<svg width="1000" height="300" viewBox="0 0 1000 300" fill="none" xmlns="http://www.w3.org/2000/svg">
<path d="M498.4 212.2V208.6H498.5C513.4 208.6 517.5 204.3 517.5 188.5V134.3C517.5 112.6 510.9 102.9 496.2 102.9C486.9 102.9 476.9 108.1 466.6 118.4L466.2 118.8V188.4C466.2 203.4 470.8 208.2 485.6 208.5V212.1H421.2V208.5C436.2 208.2 440.6 203.6 440.6 188.4V123C440.6 108.1 437.6 102.6 429.4 102.6C426.7 102.6 422.5 103.6 419.1 104.8V101L456.5 89.6C458 89.2 459.3 89 460.5 89C464.2 89 466.1 91.3 466.1 95.8V110.7L468.4 108C482.1 91.8 493.6 85.4 509.4 85.4C531.9 85.4 542.9 99.8 542.9 129.3V188.6C542.9 203.8 547.7 208.7 562.6 208.7V212.3H498.4V212.2Z" fill="#173B3F"/>
<path d="M615.3 216.1C599.2 216.1 586.6 210.6 576.9 199.1C567.3 187.9 562.4 173.1 562.4 155.3C562.4 136 568.1 120 579.8 106.2C591.5 92.1 606.1 85.3 624.6 85.3C636.3 85.3 645.4 88.6 651.5 95L653.8 97.4V62.4C653.8 43.3 650.7 37.2 640.9 37.2C638.5 37.2 634.3 38.1 631.3 39.1L631.4 35.2L672.9 22.2C673.4 22.1 673.9 22 674.4 22C677.1 22 679.3 24.2 679.3 26.9V175.8C679.3 195.4 682.5 205.1 689.8 207.1C691.5 207.6 695.7 208 701.3 208.1V211.8L660.9 211.4H653.8V198.7L651.6 200.6C639.7 211.1 627.8 216.1 615.3 216.1ZM624.8 92.9C604.8 92.9 591.3 114.1 591.3 145.6C591.3 178.9 606.9 202.2 629.1 202.2C637 202.2 645.2 198.3 653.5 190.6L653.9 190.2V132.3C654 107.3 643.4 92.9 624.8 92.9Z" fill="#173B3F"/>
<path d="M756 216.1C739.4 216.1 725.9 210.3 714.6 198.3C703.9 186.3 698.4 171 698.4 152.9C698.4 133.1 703.8 116.8 714.3 104.3C725 91.7 739.3 85.4 756.8 85.4C787.1 85.4 806.8 104.5 807.4 134.2H718.7V135.5C718.7 170.6 736.2 192.4 764.4 192.4C782.3 192.4 795.6 183.7 804 166.4L807 168.6C804.3 182 798.4 193.3 789.5 202.2C780.1 211.6 769.2 216.1 756 216.1ZM750.2 93.4C733.6 93.4 720.2 107.3 719 125.8L718.9 127.2H778.8L778.7 125.8C777.6 105.2 767.2 93.4 750.2 93.4Z" fill="#173B3F"/>
<path d="M824.8 212.2V63.5C824.8 45.3 821.5 39.2 811.9 39.2C809.2 39.2 804.9 39.9 801.9 40.9V37.5L842.6 22.2C843.1 22 843.7 21.9 844.3 21.9H845.4C848.1 21.9 850.3 24.1 850.3 26.8V188.6C850.3 203 855.4 208.4 869.7 208.7V212.3H824.8V212.2Z" fill="#173B3F"/>
<path d="M959.2 216.1C949 216.1 944 210.2 943.7 198L943.6 195.2L941.5 197C927 209.6 914.2 216.1 903.5 216.1C884.1 216.1 872 204.5 872 186C872 176 877.1 167.1 887.4 158.9C898 150.6 916.6 141.9 942.7 133L943.6 132.7V131.8C943.6 107.1 939.9 92.9 920.8 92.9C904.6 92.9 901.2 101.7 901.2 109.1C901.2 122.4 897 128.9 888.3 128.9C881.3 128.9 876.6 124 876.6 116.7C876.6 108.3 880.8 101.2 889.4 95C898.3 88.6 910.2 85.4 924.9 85.4C954.6 85.4 969.1 97.6 969.1 122.6V179C969.1 195 971.5 198.8 975.7 200.1C976.1 200.2 976.5 200.3 977 200.3C979.4 200.3 982.3 198.4 985.7 194.8L988.5 198.2C979.2 210.1 969.3 216.1 959.2 216.1ZM941.9 140.1C908.2 153.8 897.9 163.2 897.9 180.1C897.9 191.4 906.1 199.9 916.9 199.9C924.1 199.9 932.7 196.2 943.2 188.7L943.7 188.3V139.4L941.9 140.1Z" fill="#173B3F"/>
<path d="M389 216.1C378.8 216.1 373.8 210.2 373.5 198L373.4 195.2L371.3 197C356.8 209.6 344 216.1 333.3 216.1C313.9 216.1 301.8 204.5 301.8 186C301.8 176 306.9 167.1 317.2 158.9C327.8 150.6 346.4 141.9 372.5 133L373.4 132.7V131.8C373.4 107.1 369.7 92.9 350.6 92.9C334.4 92.9 331 101.7 331 109.1C331 122.4 326.8 128.9 318.1 128.9C311.1 128.9 306.4 124 306.4 116.7C306.4 108.3 310.6 101.2 319.2 95C328 88.6 340 85.4 354.7 85.4C384.5 85.4 398.9 97.6 398.9 122.6V179C398.9 195 401.3 198.8 405.5 200.1C405.9 200.2 406.3 200.3 406.8 200.3C409.2 200.3 412.1 198.5 415.5 194.8L418.3 198.2C409 210.1 399.2 216.1 389 216.1ZM371.7 140.1C338 153.8 327.7 163.1 327.7 180.1C327.7 191.4 335.9 199.9 346.7 199.9C353.9 199.9 362.5 196.2 373 188.7L373.5 188.3V139.4L371.7 140.1Z" fill="#173B3F"/>
<path d="M218.3 76.6L218.2 76.5L216.9 75.7L216.6 75.5L146.4 35L145.2 34.3C139.2 30.9 132.3 29 124.9 29C117.5 29 110.6 30.9 104.7 34.3L103.7 34.9L103.4 35.1L32.8 75.8L31.4 76.6H31.3C19.4 83.9 11.4 97.1 11.4 112.1V195.1C11.4 210.2 19.4 223.3 31.4 230.6L32.3 231.1L104.2 272.6C110.3 276.1 117.3 278.1 124.9 278.1C132.4 278.1 139.5 276.1 145.6 272.6L217.4 231.1L217.6 231C230 223.8 238.4 210.4 238.4 195V112C238.3 97 230.3 83.8 218.3 76.6ZM221.4 154.8H221C168.7 155 126.1 197.8 126.1 250.1C126.1 250.8 125.5 251.3 124.9 251.3C124.2 251.3 123.7 250.7 123.7 250.1V249.7C123.5 197.4 80.7 154.8 28.4 154.8C27.7 154.8 27.2 154.2 27.2 153.6C27.2 152.9 27.8 152.4 28.4 152.4H28.8C81.1 152.2 123.7 109.4 123.7 57.1C123.7 56.4 124.3 55.9 124.9 55.9C125.6 55.9 126.1 56.5 126.1 57.1C126.1 109.6 168.8 152.4 221.4 152.4C222.1 152.4 222.6 153 222.6 153.6C222.7 154.3 222.1 154.8 221.4 154.8Z" fill="#173B3F"/>
</svg>
