<svg width="60px" height="60px" viewBox="0 0 60 60" version="1.1" xmlns="http://www.w3.org/2000/svg" xmlns:xlink="http://www.w3.org/1999/xlink">
    <!-- Generator: Sketch 3.6.1 (26313) - http://www.bohemiancoding.com/sketch -->
    <title>designa-logo</title>
    <desc>Created with Sketch.</desc>
    <defs></defs>
    <g id="Page-1" stroke="none" stroke-width="1" fill="none" fill-rule="evenodd">
        <g id="we-do-best" transform="translate(-490.000000, -50.000000)">
            <g id="nav-bar" transform="translate(0.000000, 50.000000)">
                <g id="designa-logo" transform="translate(490.000000, 0.000000)">
                    <g id="Layer_1">
                        <g id="Group">
                            <path class="logo-stroke" d="M49.8787879,19.6454849 C44.3838384,19.6454849 39.9191919,15.2307692 39.9191919,9.83277592 C39.9191919,4.41471572 44.3838384,0.0200668896 49.8787879,0.0200668896 C55.3737374,0.0200668896 59.8383838,4.43478261 59.8383838,9.83277592 C59.8585859,15.2307692 55.3737374,19.6454849 49.8787879,19.6454849 L49.8787879,19.6454849 Z" id="Shape" fill="#354243"></path>
                            <path class="logo-stroke" d="M37.1111111,59.7993311 C34.2626263,59.7993311 31.8585859,59.1772575 30,57.9732441 C29.6363636,57.7324415 29.2929293,57.4715719 28.969697,57.1906355 C28.4848485,57.5117057 27.959596,57.7926421 27.4343434,58.0334448 C24.969697,59.1973244 22.3232323,59.7993311 19.5555556,59.7993311 C16.7474747,59.7993311 14.1212121,59.2575251 11.6969697,58.2140468 C9.27272727,57.1505017 7.17171717,55.6454849 5.41414141,53.7190635 C3.6969697,51.8327759 2.34343434,49.5652174 1.39393939,47.0167224 C0.464646465,44.4882943 0,41.7391304 0,38.7892977 C0,35.9799331 0.424242424,33.2909699 1.27272727,30.8227425 C2.14141414,28.2943144 3.37373737,26.0668896 4.96969697,24.180602 C6.60606061,22.2341137 8.58585859,20.6889632 10.8484848,19.6053512 C13.1515152,18.4816054 15.5555556,17.9197324 18.3030303,17.9197324 C20.1616162,17.9197324 22.2424242,18.2006689 23.4545455,18.7625418 L23.4545455,10.4749164 C23.4545455,8.08695652 25.7575758,6.42140468 28.2020202,6.42140468 L39.7979798,6.42140468 C42.2222222,6.42140468 44.040404,8.04682274 44.040404,10.4749164 L44.040404,41.0367893 C45.8585859,41.6588629 47.6767677,43.264214 47.6767677,45.1103679 L47.6767677,54.8428094 C47.6767677,56.9698997 45.7979798,58.7759197 43.6969697,59.1371237 C42.4444444,59.3578595 41.1313131,59.5183946 40.1616162,59.6187291 C39.0909091,59.7391304 37.959596,59.7993311 37.1111111,59.7993311 L37.1111111,59.7993311 Z" id="Shape" fill="#354243"></path>
                            <path d="M42.4040404,44.6287625 C41.4949495,44.5685619 40.9090909,44.3478261 40.6060606,44.0267559 C40.3838384,43.8060201 40.2020202,43.2842809 40.2020202,42.1003344 L40.2020202,10.4749164 C40.2020202,10.1939799 40.0808081,9.83277592 39.7979798,9.83277592 L28.1818182,9.83277592 C27.8989899,9.83277592 27.4747475,10.2140468 27.4747475,10.4749164 L27.4747475,25.9464883 C26.4646465,24.8428094 25.5959596,23.9197324 24.3030303,23.2173913 C22.5050505,22.2541806 20.5454545,21.7525084 18.4040404,21.7525084 C16.2626263,21.7525084 14.3030303,22.1939799 12.5252525,23.0568562 C10.7474747,23.9197324 9.21212121,25.1237458 7.93939394,26.6488294 C6.66666667,28.173913 5.65656566,30 4.94949495,32.0668896 C4.24242424,34.1337793 3.87878788,36.4013378 3.87878788,38.7892977 C3.87878788,41.277592 4.26262626,43.5852843 5.05050505,45.6722408 C5.81818182,47.7591973 6.90909091,49.6053512 8.3030303,51.1304348 C9.6969697,52.6555184 11.3737374,53.8595318 13.2727273,54.6822742 C15.1919192,55.5250836 17.2929293,55.9464883 19.5555556,55.9464883 C21.7373737,55.9464883 23.8383838,55.4849498 25.7777778,54.5618729 C27.3737374,53.7993311 28.7272727,52.6555184 29.7979798,51.1705686 C30.4848485,54.3411371 32.9494949,55.9464883 37.1313131,55.9464883 C37.8383838,55.9464883 38.6464646,55.8862876 39.5757576,55.7859532 C40.4848485,55.6856187 41.2929293,55.5250836 42.4848485,55.3244147 C42.7272727,55.2842809 42.6464646,55.083612 42.6464646,54.8428094 L42.6464646,45.1103679 C42.6262626,44.8494983 42.6666667,44.6488294 42.4040404,44.6287625 L42.4040404,44.6287625 Z" id="Shape" fill="#FFFFFF"></path>
                            <ellipse id="Oval" fill="#51C7E5" cx="49.8787879" cy="9.81270903" rx="6.08080808" ry="5.97993311"></ellipse>
                        </g>
                    </g>
                </g>
            </g>
        </g>
    </g>
</svg>