<svg width="2001" height="2001" viewBox="0 0 2001 2001" fill="none" xmlns="http://www.w3.org/2000/svg">
<path d="M770.879 903.587L766.847 818.094C766.284 806.227 770.495 794.947 778.701 786.333C786.911 777.733 797.979 773 809.871 773H946.491C970.241 773 989.563 792.32 989.563 816.067V841.747C989.563 851.2 986.392 860.52 980.636 868.013L934.629 927.813C926.531 938.347 913.769 944.627 900.488 944.627H813.904C790.86 944.627 771.963 926.6 770.879 903.587ZM1104.51 816.067C1104.51 792.32 1123.83 773 1147.58 773H1284.2C1296.1 773 1307.16 777.733 1315.36 786.333C1323.58 794.947 1327.79 806.227 1327.23 818.094L1323.19 903.587C1322.11 926.6 1303.2 944.627 1280.16 944.627H1193.59C1180.31 944.627 1167.55 938.347 1159.44 927.813L1113.44 868.013C1107.68 860.52 1104.51 851.2 1104.51 841.747V816.067ZM954.523 943.12L1000.53 883.32C1009.64 871.467 1014.66 856.707 1014.66 841.747V839.573C1017.99 836.52 1021.63 833.987 1025.5 832.04H1068.58C1072.44 833.987 1076.08 836.52 1079.42 839.573V841.747C1079.42 856.707 1084.43 871.467 1093.55 883.32L1139.56 943.12C1152.36 959.773 1172.58 969.72 1193.59 969.72H1280.16C1316.64 969.72 1346.55 941.187 1348.27 904.76L1352.3 819.28C1353.19 800.48 1346.51 782.627 1333.52 769.013C1320.54 755.4 1303.02 747.894 1284.2 747.894H1147.58C1112.18 747.894 1083.02 775.027 1079.74 809.587C1059.22 799.307 1034.86 799.307 1014.33 809.587C1011.05 775.027 981.895 747.894 946.491 747.894H809.871C791.051 747.894 773.532 755.4 760.543 769.013C747.552 782.627 740.888 800.48 741.776 819.28L745.809 904.76C747.525 941.187 777.436 969.72 813.904 969.72H900.488C921.505 969.72 941.705 959.773 954.523 943.12ZM1698.35 1473.88C1674.19 1498.04 1642.08 1511.33 1607.92 1511.33C1573.76 1511.33 1541.64 1498.04 1517.48 1473.88L1452.27 1408.67L1633.12 1227.8L1698.35 1293.03C1722.5 1317.19 1735.8 1349.29 1735.8 1383.45C1735.8 1417.61 1722.5 1449.73 1698.35 1473.88ZM1059.58 1540.81V1513.25C1074.84 1508.72 1086.82 1496.56 1091.11 1481.2C1166.34 1476.24 1239.52 1458.71 1309.18 1428.53C1315.54 1425.77 1318.46 1418.39 1315.7 1412.03C1312.95 1405.67 1305.55 1402.75 1299.2 1405.51C1232.71 1434.31 1162.87 1451.15 1091.07 1456.08C1085.55 1436.57 1067.63 1422.23 1046.38 1422.23C1025.16 1422.23 1007.26 1436.53 1001.71 1456C930.372 1450.96 860.967 1434.13 794.872 1405.51C788.517 1402.76 781.128 1405.67 778.368 1412.03C775.615 1418.39 778.537 1425.77 784.895 1428.53C854.136 1458.53 926.876 1476.04 1001.64 1481.12C1006.04 1496.95 1018.59 1509.36 1034.49 1513.59V1540.76C866.98 1537.87 713.348 1477.39 592.424 1378.28L771.417 1326.59L702.885 1258.05L770.533 1213.45C847.036 1320.47 946.612 1384.15 1047.03 1384.15C1164.79 1384.15 1281.38 1296.6 1360.96 1154.25L1401.83 1195.11C1350.86 1255.15 1353.6 1345.48 1410.24 1402.13L1435 1426.89C1326.31 1496.92 1197.66 1538.43 1059.58 1540.81ZM1046.38 1490.09C1034.59 1490.09 1025 1480.49 1025 1468.71C1025 1456.91 1034.59 1447.32 1046.38 1447.32C1058.18 1447.32 1067.76 1456.91 1067.76 1468.71C1067.76 1480.49 1058.18 1490.09 1046.38 1490.09ZM581.096 1218.45L526.792 1164.15L652.752 1061.64C667.488 1065.73 682.043 1066.15 691.336 1065.81C709.675 1112.39 731.661 1154.91 756.389 1192.72L663.381 1254.04L723.607 1314.27L320.34 1430.72L581.096 1218.45ZM328.56 822.573C328.56 670.44 376.223 529.307 457.209 413.027L621.935 577.76C613.421 635.2 617.979 707.627 649.123 766.813C642.896 766.36 636.469 767.227 630.017 769.48C606.761 777.6 586.805 800.16 576.627 829.827C566.356 859.774 568.712 890.774 582.935 912.76C606.136 948.627 604.84 960.134 602.491 981.027L602.224 983.427C599.38 1009.09 605.465 1029.44 620.311 1043.92C622.564 1046.12 624.976 1048.07 627.465 1049.85L489.381 1162.24L543.692 1216.55L482.565 1266.31C386.236 1144.03 328.56 989.947 328.56 822.573ZM400.241 237.987L462.444 175.774L582.052 212.8L748.561 379.307C735.001 387.44 721.012 397.787 707.277 410.894L564.865 268.48L547.12 286.227L689.977 429.08C679.449 441.333 669.289 455.493 659.819 471.787L510.685 322.653L492.94 340.4L647.533 495C643.616 503.16 639.856 511.747 636.312 520.853C633.129 529.04 630.252 538.187 627.768 548.094L437.263 357.587L400.241 237.987ZM372.359 147.894L435.343 167.387L391.853 210.88L372.359 147.894ZM1034.49 104.347V130.32C1018.11 134.68 1005.28 147.734 1001.26 164.24C926.641 169.347 854.013 186.667 784.895 216.613C778.537 219.373 775.615 226.76 778.368 233.12C780.421 237.853 785.04 240.68 789.891 240.68C791.553 240.68 793.245 240.347 794.872 239.653C861.071 210.96 930.588 194.147 1002.04 189.134C1007.97 207.974 1025.6 221.694 1046.38 221.694C1067.19 221.694 1084.84 207.947 1090.75 189.053C1162.66 193.96 1232.6 210.8 1299.2 239.653C1305.56 242.4 1312.95 239.48 1315.7 233.12C1318.46 226.76 1315.54 219.373 1309.18 216.613C1239.64 186.493 1166.58 169.147 1091.48 164.16C1087.55 148.134 1075.32 135.333 1059.58 130.667V104.36C1216.68 107.08 1361.59 160.427 1478.75 248.813L1434.39 327.253L1453.39 346.253L1387.76 411.894C1381.56 406.16 1375.02 400.467 1368.07 394.813C1376.7 382.16 1387.44 359.12 1382.58 326.987L1378.51 300.56L1360.74 320.587C1360.59 320.773 1344.98 338.08 1324.42 338.08C1313.03 338.08 1301.64 332.68 1290.59 322.027C1243.66 276.814 1164.2 248.734 1083.23 248.734C1018.14 248.734 923.387 266.293 839.348 349.28C828.547 350 802.705 353.187 771.845 367.094L637.496 232.747C750.56 154 887.157 106.894 1034.49 104.347ZM1067.76 175.213C1067.76 187 1058.18 196.587 1046.38 196.587C1034.59 196.587 1025 187 1025 175.213C1025 163.413 1034.59 153.827 1046.38 153.827C1058.18 153.827 1067.76 163.413 1067.76 175.213ZM1610.47 299.387C1605.2 304.64 1598.22 307.534 1590.78 307.534C1583.34 307.534 1576.34 304.64 1571.08 299.387C1565.82 294.12 1562.92 287.12 1562.92 279.694C1562.92 272.254 1565.82 265.254 1571.08 260C1576.34 254.734 1583.34 251.84 1590.78 251.84C1598.22 251.84 1605.2 254.734 1610.47 260C1621.32 270.854 1621.32 288.52 1610.47 299.387ZM1526.84 214.76L1686.54 165.334L1617.71 234.16C1609.63 229.36 1600.42 226.747 1590.78 226.747C1576.63 226.747 1563.34 232.253 1553.34 242.253C1543.34 252.253 1537.83 265.547 1537.83 279.694C1537.83 293.827 1543.34 307.12 1553.34 317.12C1563.34 327.12 1576.63 332.627 1590.78 332.627C1604.91 332.627 1618.2 327.12 1628.22 317.12C1645.94 299.387 1648.39 272.12 1635.66 251.694L1704.28 183.08L1654.84 342.773L1546.62 403.973L1465.63 323L1526.84 214.76ZM1405.59 429.547L1471.14 364L1505.6 398.467L1436.42 467.667C1427.67 454.894 1417.47 442.16 1405.59 429.547ZM659.7 529.96C719.648 375.934 839.505 374.173 844.585 374.173L849.931 374.24L853.684 370.44C932.499 290.587 1022.02 273.827 1083.23 273.827C1157.96 273.827 1230.74 299.227 1273.18 340.107C1289.07 355.413 1306.31 363.173 1324.42 363.173C1337.44 363.173 1348.82 359.08 1357.8 354.134C1354.43 375.4 1342.46 386.88 1341.86 387.453L1330.7 397.56L1342.64 406.707C1534.62 553.853 1434.67 731.56 1407.43 772.707C1334.99 732.093 1338.06 631.973 1338.1 630.947L1338.72 616.267L1324.12 617.947C1302.44 620.467 1280.95 621.734 1260.27 621.734C1094.82 621.734 1016.01 540.613 1015.26 539.813L990.808 513.747L993.595 549.387C996.275 583.68 1007.15 607.72 1018.85 624.08C950.533 601.973 949.255 532.027 949.235 528.613L949.279 461.267L924.983 524.08C895.209 601.053 801.403 617.88 800.476 618.04L791.943 619.467L790.244 627.96C771.969 719.334 708.86 764.52 685.688 778.32C631.223 703.453 637.369 587.334 659.7 529.96ZM711.415 1048.16L707.86 1038.88L698.019 1040.17C697.617 1040.23 657.545 1045.27 637.783 1025.91C628.668 1016.99 625.197 1003.99 627.167 986.187L627.432 983.827C630.399 957.44 630.772 940.493 604.005 899.12C593.935 883.56 592.571 860.693 600.367 837.973C607.951 815.853 622.481 798.693 638.285 793.187C644.38 791.053 649.524 791.293 654.481 793.933C667.991 801.12 676.479 823.72 678.603 831.8L703.299 927.24V797.094C732.144 779.12 792.047 731.973 813.103 641C835.231 635.707 894.819 617.214 930.849 565.96C942.327 602.387 973.405 652.747 1057.54 655.68L1120.02 657.867L1063.22 631.747C1062.9 631.6 1037.29 619.347 1024.78 580.08C1062.59 606.733 1139.52 646.827 1260.27 646.827C1277.51 646.827 1295.27 645.987 1313.23 644.32C1314.88 676.32 1325.9 752.813 1390.78 791.987V927.227L1415.47 831.8C1417.42 824.28 1426.02 801.187 1439.56 793.947C1444.52 791.293 1449.66 791.053 1455.79 793.187C1471.6 798.693 1486.12 815.853 1493.71 837.973C1501.5 860.693 1500.14 883.56 1490.07 899.12C1463.3 940.507 1463.68 957.453 1466.64 983.84L1466.91 986.187C1468.87 1003.99 1465.4 1016.99 1456.3 1025.91C1436.52 1045.27 1396.44 1040.23 1396.07 1040.19L1386.2 1038.84L1382.66 1048.16C1310.88 1237.01 1179.14 1359.05 1047.03 1359.05C914.931 1359.05 783.192 1237.01 711.415 1048.16ZM1516.07 1309.36L1434.52 1390.92L1427.99 1384.39C1381.14 1337.52 1378.34 1263.04 1419.56 1212.85L1516.07 1309.36ZM1437.3 1195.09C1460.11 1176.29 1488.48 1166.07 1518.43 1166.07C1552.58 1166.07 1584.7 1179.37 1608.84 1203.53L1615.38 1210.05L1533.82 1291.61L1437.3 1195.09ZM1765.52 822.573C1765.52 965.4 1723.5 1098.56 1651.35 1210.55L1626.59 1185.79C1597.7 1156.89 1559.28 1140.97 1518.43 1140.97C1481.78 1140.97 1447.16 1153.87 1419.55 1177.35L1373.32 1131.11C1383.91 1110.35 1393.78 1088.57 1402.74 1065.81C1419.31 1066.37 1452.54 1064.64 1473.76 1043.92C1488.6 1029.44 1494.7 1009.09 1491.86 983.427L1491.59 981.04C1489.23 960.133 1487.94 948.627 1511.14 912.76C1525.36 890.774 1527.72 859.774 1517.44 829.827C1507.27 800.16 1487.31 777.6 1464.06 769.48C1455.66 766.547 1447.31 765.974 1439.39 767.627C1467.67 716.214 1513.27 603.293 1450.02 489.547L1523.35 416.213L1542.35 435.213L1620.8 390.853C1711.54 511.147 1765.52 660.64 1765.52 822.573ZM1669.5 1228.68C1745.99 1111.84 1790.62 972.347 1790.62 822.573C1790.62 656.16 1735.51 502.453 1642.8 378.413L1675.88 359.707L1750.28 119.333L1509.9 193.734L1491.19 226.813C1367.16 134.093 1213.46 79.0001 1047.03 79.0001C887.975 79.0001 740.531 129.347 619.493 214.747L595.408 190.653L334.309 109.853L415.121 370.947L439.208 395.027C353.813 516.067 303.463 663.52 303.463 822.573C303.463 995.947 363.257 1155.55 463.111 1282.13L209 1489L563.227 1386.71C693.368 1498.48 862.432 1566.15 1047.03 1566.15C1196.82 1566.15 1336.31 1521.52 1453.15 1445.03L1499.74 1491.63C1528.64 1520.52 1567.06 1536.44 1607.92 1536.44C1648.78 1536.44 1687.19 1520.52 1716.1 1491.63C1744.99 1462.73 1760.9 1424.32 1760.9 1383.45C1760.9 1342.59 1744.99 1304.17 1716.1 1275.28L1669.5 1228.68Z" fill="#77C92B"/>
<path d="M1694.8 817.039V795.133C1682.23 795.133 1673.51 792.626 1668.65 787.613C1663.78 782.6 1661.34 774.499 1661.34 763.31V739.224C1661.34 725.783 1659.49 715.029 1655.79 706.965C1652.01 698.827 1646.78 692.688 1640.09 688.546C1633.34 684.405 1625.34 681.644 1616.12 680.263C1606.89 678.883 1596.79 678.193 1585.82 678.193V712.85C1594.39 712.85 1600.93 713.976 1605.44 716.228C1609.87 718.408 1612.88 721.823 1614.48 726.473C1616.08 731.05 1616.88 736.863 1616.88 743.91V775.734C1616.88 781.256 1617.9 786.523 1619.93 791.537C1621.96 796.477 1625.74 800.873 1631.26 804.724C1636.79 808.502 1644.67 811.517 1654.91 813.77C1665.16 815.949 1678.45 817.039 1694.8 817.039ZM1585.82 954.033C1596.79 954.033 1606.89 953.343 1616.12 951.962C1625.34 950.582 1633.34 947.821 1640.09 943.679C1646.78 939.538 1652.01 933.398 1655.79 925.261C1659.49 917.196 1661.34 906.443 1661.34 893.001V868.807C1661.34 857.618 1663.78 849.517 1668.65 844.503C1673.51 839.49 1682.23 836.983 1694.8 836.983V815.077C1678.45 815.077 1665.16 816.204 1654.91 818.456C1644.67 820.636 1636.79 823.651 1631.26 827.502C1625.74 831.28 1621.96 835.675 1619.93 840.689C1617.9 845.629 1616.88 850.897 1616.88 856.492V888.315C1616.88 895.29 1616.08 901.066 1614.48 905.644C1612.88 910.294 1609.87 913.709 1605.44 915.888C1600.93 918.141 1594.39 919.267 1585.82 919.267V954.033ZM1694.8 836.983V795.133H1655.68V836.983H1694.8Z" fill="#77C92B"/>
<path d="M381.842 817.039V795.133C394.411 795.133 403.13 792.626 407.998 787.613C412.866 782.6 415.3 774.499 415.3 763.31V739.224C415.3 725.783 417.153 715.029 420.858 706.965C424.636 698.827 429.867 692.688 436.552 688.546C443.309 684.405 451.301 681.644 460.529 680.263C469.756 678.883 479.855 678.193 490.826 678.193V712.85C482.253 712.85 475.714 713.976 471.209 716.228C466.777 718.408 463.762 721.823 462.163 726.473C460.565 731.05 459.766 736.863 459.766 743.91V775.734C459.766 781.256 458.748 786.523 456.714 791.537C454.68 796.477 450.902 800.873 445.38 804.724C439.858 808.502 431.975 811.517 421.73 813.77C411.485 815.949 398.189 817.039 381.842 817.039ZM490.826 954.033C479.855 954.033 469.756 953.343 460.529 951.962C451.301 950.582 443.309 947.821 436.552 943.679C429.867 939.538 424.636 933.398 420.858 925.261C417.153 917.196 415.3 906.443 415.3 893.001V868.807C415.3 857.618 412.866 849.517 407.998 844.503C403.13 839.49 394.411 836.983 381.842 836.983V815.077C398.189 815.077 411.485 816.204 421.73 818.456C431.975 820.636 439.858 823.651 445.38 827.502C450.902 831.28 454.68 835.675 456.714 840.689C458.748 845.629 459.766 850.897 459.766 856.492V888.315C459.766 895.29 460.565 901.066 462.163 905.644C463.762 910.294 466.777 913.709 471.209 915.888C475.714 918.141 482.253 919.267 490.826 919.267V954.033ZM381.842 836.983V795.133H420.967V836.983H381.842Z" fill="#77C92B"/>
<path d="M244.429 1723.04V1703.08L405.108 1621.24V1653.17L281.855 1712.56L282.853 1710.56V1715.55L281.855 1713.55L405.108 1772.94V1804.87L244.429 1723.04ZM550.35 1836.81H471.507V1581.32H553.843C578.627 1581.32 599.834 1586.43 617.466 1596.66C635.097 1606.81 648.612 1621.4 658.01 1640.45C667.408 1659.41 672.107 1682.12 672.107 1708.56C672.107 1735.18 667.366 1758.09 657.885 1777.3C648.404 1796.43 634.598 1811.15 616.468 1821.46C598.337 1831.69 576.298 1836.81 550.35 1836.81ZM502.445 1809.36H548.354C569.478 1809.36 586.985 1805.29 600.874 1797.14C614.763 1788.99 625.117 1777.39 631.937 1762.33C638.757 1747.28 642.166 1729.36 642.166 1708.56C642.166 1687.94 638.798 1670.18 632.062 1655.3C625.325 1640.33 615.262 1628.85 601.872 1620.86C588.482 1612.8 571.807 1608.76 551.847 1608.76H502.445V1809.36ZM800.351 1840.8C781.887 1840.8 765.961 1836.72 752.571 1828.57C739.264 1820.34 728.993 1808.86 721.758 1794.14C714.605 1779.34 711.029 1762.12 711.029 1742.5C711.029 1722.87 714.605 1705.57 721.758 1690.6C728.993 1675.55 739.056 1663.82 751.947 1655.42C764.921 1646.94 780.058 1642.7 797.357 1642.7C807.337 1642.7 817.192 1644.36 826.923 1647.69C836.653 1651.01 845.51 1656.42 853.495 1663.9C861.479 1671.31 867.841 1681.12 872.581 1693.34C877.322 1705.57 879.692 1720.62 879.692 1738.5V1750.98H731.987V1725.53H849.752C849.752 1714.72 847.59 1705.07 843.265 1696.59C839.023 1688.1 832.952 1681.41 825.051 1676.5C817.234 1671.6 808.002 1669.14 797.357 1669.14C785.63 1669.14 775.484 1672.05 766.917 1677.88C758.434 1683.61 751.906 1691.1 747.331 1700.33C742.757 1709.56 740.47 1719.46 740.47 1730.02V1746.99C740.47 1761.46 742.965 1773.73 747.955 1783.79C753.028 1793.77 760.056 1801.38 769.038 1806.62C778.02 1811.77 788.458 1814.35 800.351 1814.35C808.085 1814.35 815.071 1813.27 821.309 1811.11C827.63 1808.86 833.077 1805.54 837.651 1801.13C842.225 1796.64 845.76 1791.07 848.255 1784.41L876.698 1792.4C873.704 1802.04 868.673 1810.53 861.603 1817.85C854.534 1825.08 845.802 1830.74 835.406 1834.81C825.01 1838.8 813.325 1840.8 800.351 1840.8ZM1075.33 1645.19L1004.47 1836.81H974.534L903.676 1645.19H935.612L988.506 1797.89H990.502L1043.4 1645.19H1075.33ZM1314.79 1581.32H1345.73V1763.95C1345.73 1780.25 1342.74 1794.1 1336.75 1805.5C1330.76 1816.89 1322.32 1825.54 1311.42 1831.44C1300.53 1837.35 1287.68 1840.3 1272.88 1840.3C1258.9 1840.3 1246.47 1837.76 1235.58 1832.69C1224.68 1827.53 1216.11 1820.22 1209.88 1810.74C1203.64 1801.25 1200.52 1789.98 1200.52 1776.93H1230.96C1230.96 1784.16 1232.75 1790.48 1236.32 1795.89C1239.98 1801.21 1244.97 1805.37 1251.29 1808.36C1257.61 1811.36 1264.81 1812.86 1272.88 1812.86C1281.77 1812.86 1289.34 1810.98 1295.58 1807.24C1301.82 1803.5 1306.56 1798.01 1309.8 1790.78C1313.13 1783.46 1314.79 1774.52 1314.79 1763.95V1581.32ZM1403.74 1836.81V1645.19H1432.18V1674.13H1434.18C1437.67 1664.65 1443.99 1656.96 1453.14 1651.05C1462.29 1645.15 1472.6 1642.2 1484.08 1642.2C1486.24 1642.2 1488.94 1642.24 1492.19 1642.32C1495.43 1642.4 1497.89 1642.53 1499.55 1642.7V1672.64C1498.55 1672.39 1496.26 1672.01 1492.69 1671.51C1489.19 1670.93 1485.49 1670.64 1481.58 1670.64C1472.27 1670.64 1463.95 1672.59 1456.63 1676.5C1449.4 1680.33 1443.66 1685.65 1439.42 1692.47C1435.26 1699.21 1433.18 1706.9 1433.18 1715.55V1836.81H1403.74ZM1703.61 1746.99L1542.93 1828.82V1796.89L1666.18 1737.51L1665.19 1739.5V1734.51L1666.18 1736.51L1542.93 1677.13V1645.19L1703.61 1727.03V1746.99Z" fill="#77C92B"/>
</svg>
