<svg width="268" height="46" viewBox="0 0 268 46" fill="none" xmlns="http://www.w3.org/2000/svg">
<path d="M63.9145 15.1233C63.3429 14.4967 62.6407 14.0031 61.8576 13.6775C61.0744 13.3518 60.2294 13.2019 59.382 13.2383C54.5146 13.2383 50.9887 17.1761 50.9887 23.7957C50.9887 30.4988 54.2622 34.3948 59.382 34.3948C60.2367 34.4624 61.0951 34.3226 61.8842 33.9874C62.6733 33.6521 63.3698 33.1314 63.9145 32.4693V33.8514C63.916 33.873 63.9253 33.8934 63.9406 33.9087C63.956 33.9241 63.9763 33.9334 63.9979 33.9349H68.446C68.4676 33.9334 68.488 33.9241 68.5033 33.9087C68.5187 33.8934 68.528 33.873 68.5294 33.8514V5.73939C68.5297 5.70382 68.5215 5.66868 68.5055 5.63691C68.4895 5.60515 68.4662 5.57766 68.4374 5.55673C68.4086 5.53581 68.3752 5.52206 68.3401 5.51661C68.3049 5.51116 68.269 5.51419 68.2353 5.52543L64.0386 7.41032C63.9993 7.43016 63.9665 7.46087 63.9441 7.4988C63.9217 7.53672 63.9107 7.58028 63.9124 7.62429L63.9145 15.1233ZM63.9145 27.9849C63.4963 28.6161 62.9195 29.1263 62.2418 29.4643C61.5642 29.8023 60.8096 29.9561 60.0538 29.9105C57.2008 29.9105 55.5608 27.4393 55.5608 23.7519C55.5608 19.7724 57.1976 17.5933 60.0538 17.5933C60.804 17.5843 61.5456 17.7543 62.217 18.0891C62.8885 18.424 63.4704 18.9141 63.9145 19.5189V27.9849Z" fill="#404040"/>
<path d="M99.4164 26.7696C99.1963 27.3578 99.0141 27.9596 98.8708 28.5711C98.7029 27.9431 98.5349 27.3943 98.3253 26.7696L93.8772 14.2011C93.8772 14.1593 93.8355 14.1593 93.7938 14.1593H89.2612C89.2195 14.1593 89.1778 14.2011 89.1778 14.2856L96.5217 34.3103C96.5217 34.352 96.5634 34.352 96.6062 34.352H101.051C101.083 34.3476 101.112 34.3329 101.134 34.3103L108.478 14.2856C108.478 14.2439 108.437 14.1593 108.395 14.1593H103.864C103.833 14.1638 103.804 14.1784 103.781 14.2011L99.4164 26.7696Z" fill="#404040"/>
<path d="M80.0293 13.6148C74.3596 13.6148 70.6711 17.5526 70.6711 24.1722C70.6711 30.7918 74.2804 34.7713 80.0293 34.7713C81.3753 34.8249 82.716 34.5738 83.9514 34.0366C85.1867 33.4994 86.2847 32.6901 87.1635 31.669C87.1732 31.6618 87.1811 31.6523 87.1865 31.6415C87.192 31.6306 87.1948 31.6186 87.1948 31.6065C87.1948 31.5943 87.192 31.5823 87.1865 31.5715C87.1811 31.5606 87.1732 31.5511 87.1635 31.5439L84.3521 28.6556C84.3448 28.6458 84.3352 28.6379 84.3243 28.6324C84.3133 28.627 84.3012 28.6242 84.289 28.6242C84.2768 28.6242 84.2647 28.627 84.2538 28.6324C84.2428 28.6379 84.2333 28.6458 84.2259 28.6556C83.7427 29.3068 83.108 29.8304 82.3767 30.1809C81.6454 30.5314 80.8396 30.6981 80.0293 30.6667C79.4066 30.6691 78.7895 30.5483 78.2136 30.3114C77.6378 30.0745 77.1144 29.726 76.6737 29.2861C76.233 28.8462 75.8836 28.3235 75.6456 27.748C75.4076 27.1726 75.2858 26.5557 75.2871 25.933H88.6322C88.6539 25.9315 88.6742 25.9223 88.6896 25.9069C88.7049 25.8916 88.7142 25.8712 88.7156 25.8496C88.8318 24.9325 88.8879 24.0087 88.8836 23.0843C88.8836 16.5887 84.8988 13.6148 80.0293 13.6148ZM75.3298 22.0776C75.3169 21.4687 75.4317 20.8638 75.6668 20.3019C75.9019 19.74 76.2521 19.2336 76.6948 18.8153C77.1376 18.3969 77.663 18.076 78.2373 17.8731C78.8116 17.6701 79.422 17.5897 80.0293 17.6371C82.127 17.6371 84.058 18.9775 84.2676 22.0776H75.3298Z" fill="#404040"/>
<path d="M191.233 28.2779V17.7216H195.808C195.829 17.7201 195.85 17.7109 195.865 17.6955C195.88 17.6802 195.889 17.6598 195.891 17.6382V13.787C195.889 13.7654 195.88 13.7451 195.865 13.7297C195.85 13.7144 195.829 13.7051 195.808 13.7036H191.233V5.70187C191.234 5.6663 191.225 5.63116 191.209 5.59939C191.193 5.56763 191.17 5.54017 191.141 5.51925C191.112 5.49833 191.079 5.48457 191.044 5.47913C191.009 5.47368 190.973 5.47667 190.939 5.48791L186.742 7.49905C186.703 7.51888 186.67 7.54959 186.648 7.58752C186.626 7.62544 186.615 7.66901 186.616 7.71301V13.7036H183.679C183.657 13.7051 183.637 13.7144 183.621 13.7297C183.606 13.7451 183.597 13.7654 183.595 13.787V17.6382C183.597 17.6598 183.606 17.6802 183.621 17.6955C183.637 17.7109 183.657 17.7201 183.679 17.7216H186.616V29.2001C186.616 32.3836 188.001 34.3948 191.316 34.3948C192.764 34.4387 194.203 34.1373 195.512 33.5154C195.554 33.5154 195.554 33.4737 195.554 33.432L196.1 29.4942C196.1 29.4108 196.016 29.3691 195.973 29.4108C195.05 29.9336 194.013 30.2212 192.952 30.2484C191.695 30.2056 191.233 29.4097 191.233 28.2779Z" fill="#404040"/>
<path d="M220.356 13.6148C217.583 13.552 214.853 14.3097 212.509 15.7928C212.485 15.8145 212.47 15.8442 212.467 15.8763L213.809 19.4792C213.813 19.4918 213.819 19.5034 213.829 19.5128C213.838 19.5223 213.849 19.5295 213.861 19.5336C213.874 19.5377 213.887 19.5387 213.9 19.5365C213.913 19.5343 213.925 19.5289 213.936 19.5209C215.687 18.2791 217.791 17.633 219.937 17.6777C220.443 17.6765 220.945 17.7751 221.414 17.9681C221.882 18.1611 222.308 18.4445 222.666 18.8023C223.025 19.16 223.309 19.585 223.504 20.0529C223.698 20.5207 223.798 21.0223 223.798 21.5288V22.4082C222.318 21.6571 220.672 21.2966 219.014 21.3609C215.027 21.3609 211.083 23.372 211.083 28.0222C211.083 32.4628 214.23 34.7253 218.426 34.7253C219.419 34.7737 220.41 34.6122 221.336 34.2512C222.261 33.8903 223.1 33.3381 223.798 32.6307V34.1808C223.799 34.2024 223.808 34.2228 223.824 34.2381C223.839 34.2535 223.859 34.2628 223.881 34.2643H228.203C228.225 34.263 228.245 34.2538 228.261 34.2385C228.276 34.2231 228.286 34.2026 228.287 34.1808V21.2817C228.372 14.4524 223.92 13.6148 220.356 13.6148ZM223.839 28.7379C223.254 29.3492 222.55 29.835 221.771 30.166C220.992 30.497 220.153 30.6663 219.307 30.6634C216.873 30.6634 215.614 29.6162 215.614 28.0244C215.614 26.0988 217.46 25.3018 219.768 25.3018C221.155 25.2897 222.529 25.5754 223.797 26.1395V28.7368L223.839 28.7379Z" fill="#404040"/>
<path d="M243.479 15.1232C242.907 14.4966 242.205 14.0031 241.422 13.6774C240.639 13.3517 239.794 13.2018 238.946 13.2382C234.079 13.2382 230.553 17.176 230.553 23.7957C230.553 30.4987 233.827 34.3948 238.946 34.3948C239.801 34.4623 240.659 34.3225 241.449 33.9873C242.238 33.652 242.934 33.1313 243.479 32.4692V33.8513C243.48 33.8731 243.49 33.8936 243.505 33.909C243.521 33.9243 243.542 33.9335 243.563 33.9348H248.011C248.033 33.9335 248.054 33.9243 248.069 33.909C248.085 33.8936 248.094 33.8731 248.096 33.8513V5.7393C248.096 5.70373 248.088 5.66859 248.072 5.63683C248.056 5.60506 248.033 5.57757 248.004 5.55665C247.975 5.53572 247.942 5.52197 247.907 5.51652C247.871 5.51108 247.836 5.5141 247.802 5.52534L243.605 7.41024C243.566 7.43007 243.533 7.46078 243.511 7.49871C243.488 7.53663 243.477 7.5802 243.479 7.6242V15.1232ZM243.479 27.9848C243.061 28.616 242.484 29.1263 241.806 29.4642C241.129 29.8022 240.374 29.9561 239.618 29.9104C236.765 29.9104 235.125 27.4392 235.125 23.7518C235.125 19.7723 236.762 17.5932 239.618 17.5932C240.368 17.5842 241.11 17.7542 241.781 18.0891C242.453 18.4239 243.035 18.914 243.479 19.5188V27.9848Z" fill="#404040"/>
<path d="M259.509 13.6148C256.736 13.5521 254.006 14.3098 251.661 15.7928C251.638 15.8145 251.623 15.8442 251.62 15.8763L252.962 19.4792C252.966 19.4918 252.972 19.5034 252.982 19.5129C252.991 19.5224 253.002 19.5295 253.014 19.5336C253.027 19.5377 253.04 19.5387 253.053 19.5365C253.066 19.5343 253.078 19.529 253.088 19.5209C254.84 18.2791 256.943 17.6329 259.09 17.6778C259.596 17.6765 260.098 17.7751 260.567 17.9681C261.035 18.1611 261.461 18.4446 261.819 18.8023C262.178 19.16 262.462 19.585 262.656 20.0529C262.851 20.5207 262.951 21.0223 262.951 21.5288V22.4082C261.471 21.6572 259.824 21.2966 258.167 21.3609C254.18 21.3609 250.235 23.372 250.235 28.0223C250.235 32.4628 253.383 34.7253 257.579 34.7253C258.572 34.7738 259.563 34.6122 260.488 34.2513C261.414 33.8903 262.253 33.3381 262.951 32.6308V34.1808C262.952 34.2025 262.961 34.2228 262.977 34.2382C262.992 34.2535 263.012 34.2628 263.034 34.2643H267.352C267.373 34.2628 267.394 34.2535 267.409 34.2382C267.424 34.2228 267.433 34.2025 267.435 34.1808V21.2817C267.525 14.4524 263.073 13.6148 259.509 13.6148ZM262.992 28.7379C262.407 29.3492 261.703 29.8351 260.924 30.1661C260.145 30.4971 259.306 30.6663 258.46 30.6635C256.026 30.6635 254.767 29.6162 254.767 28.0244C254.767 26.0989 256.613 25.3019 258.922 25.3019C260.309 25.2898 261.683 25.5755 262.951 26.1395V28.7368L262.992 28.7379Z" fill="#404040"/>
<path d="M157.915 13.6148C152.245 13.6148 148.557 17.5526 148.557 24.1722C148.557 30.7918 152.166 34.7713 157.915 34.7713C159.261 34.825 160.602 34.5739 161.837 34.0367C163.072 33.4995 164.17 32.6901 165.049 31.669C165.059 31.6618 165.067 31.6523 165.072 31.6415C165.078 31.6306 165.08 31.6186 165.08 31.6065C165.08 31.5943 165.078 31.5823 165.072 31.5715C165.067 31.5606 165.059 31.5511 165.049 31.5439L162.238 28.6556C162.23 28.6458 162.221 28.6379 162.21 28.6324C162.199 28.627 162.187 28.6242 162.175 28.6242C162.162 28.6242 162.15 28.627 162.139 28.6324C162.128 28.6379 162.119 28.6458 162.111 28.6556C161.628 29.3068 160.993 29.8304 160.262 30.1809C159.531 30.5313 158.725 30.6981 157.915 30.6667C157.292 30.6691 156.675 30.5483 156.099 30.3114C155.523 30.0745 155 29.726 154.559 29.2861C154.118 28.8462 153.769 28.3235 153.531 27.748C153.293 27.1726 153.171 26.5557 153.173 25.933H166.518C166.539 25.9315 166.56 25.9223 166.575 25.9069C166.59 25.8916 166.6 25.8712 166.601 25.8496C166.717 24.9325 166.773 24.0087 166.769 23.0843C166.727 16.5887 162.784 13.6148 157.915 13.6148ZM153.215 22.0776C153.202 21.4687 153.317 20.8638 153.552 20.3019C153.787 19.74 154.138 19.2336 154.58 18.8153C155.023 18.3969 155.549 18.076 156.123 17.8731C156.697 17.6701 157.308 17.5897 157.915 17.6371C160.013 17.6371 161.943 18.9775 162.153 22.0776H153.215Z" fill="#404040"/>
<path d="M202.816 16.255V14.2438C202.814 14.2222 202.805 14.2018 202.789 14.1865C202.774 14.1712 202.754 14.1619 202.732 14.1604H198.284C198.262 14.1619 198.242 14.1712 198.227 14.1865C198.211 14.2018 198.202 14.2222 198.201 14.2438V34.2685C198.202 34.2902 198.211 34.3105 198.227 34.3259C198.242 34.3412 198.262 34.3505 198.284 34.352H202.732C202.754 34.3505 202.774 34.3412 202.789 34.3259C202.805 34.3105 202.814 34.2902 202.816 34.2685V23.0361C202.816 19.185 204.83 18.2223 206.635 18.2223C207.821 18.1825 208.986 18.536 209.951 19.2278C209.961 19.2358 209.973 19.2412 209.986 19.2434C209.999 19.2456 210.013 19.2446 210.025 19.2405C210.037 19.2363 210.049 19.2292 210.058 19.2198C210.067 19.2103 210.073 19.1987 210.077 19.1861L210.706 15.121C210.706 15.0793 210.706 15.0376 210.664 15.0376C209.622 14.1539 208.296 13.6777 206.93 13.6972C206.064 13.6474 205.204 13.8664 204.467 14.3243C203.731 14.7822 203.154 15.4565 202.816 16.255Z" fill="#404040"/>
<path d="M176.504 21.9514C174.364 21.2389 172.56 20.5265 172.56 19.3123C172.56 18.265 173.609 17.6371 175.288 17.6371C176.029 17.6214 176.765 17.7582 177.451 18.0392C178.137 18.3203 178.758 18.7394 179.275 19.2706C179.282 19.2803 179.291 19.2883 179.302 19.2937C179.313 19.2991 179.325 19.302 179.338 19.302C179.35 19.302 179.362 19.2991 179.373 19.2937C179.384 19.2883 179.393 19.2803 179.401 19.2706L182.465 16.7567C182.474 16.7494 182.482 16.74 182.488 16.7291C182.493 16.7182 182.496 16.7063 182.496 16.6941C182.496 16.682 182.493 16.67 182.488 16.6591C182.482 16.6482 182.474 16.6388 182.465 16.6315C181.564 15.6291 180.455 14.8359 179.215 14.3076C177.975 13.7792 176.635 13.5285 175.288 13.5731C171.301 13.5731 168.07 15.5425 168.07 19.1871C168.07 22.5804 170.378 24.2984 174.742 25.764C177.051 26.6861 178.644 27.3141 178.644 28.7379C178.644 30.2045 177.259 30.7073 175.371 30.7073C173.604 30.6454 171.932 29.8934 170.713 28.6127C170.706 28.603 170.696 28.5951 170.685 28.5897C170.674 28.5842 170.662 28.5814 170.65 28.5814C170.638 28.5814 170.626 28.5842 170.615 28.5897C170.604 28.5951 170.594 28.603 170.587 28.6127L167.523 31.2101C167.514 31.2175 167.506 31.227 167.501 31.2378C167.495 31.2487 167.493 31.2606 167.493 31.2727C167.493 31.2848 167.495 31.2967 167.501 31.3075C167.506 31.3184 167.514 31.3279 167.523 31.3353C169.034 33.4299 172.139 34.7285 175.371 34.7285C180.029 34.7285 183.134 32.6339 183.134 28.7379C183.134 24.8847 180.41 23.2501 176.504 21.9514Z" fill="#404040"/>
<path d="M122.917 22.7505C122.917 19.4407 121.49 18.0586 119.139 18.0586C116.621 18.0586 115.027 19.3573 115.027 22.7088V34.3135C115.026 34.3351 115.017 34.3555 115.001 34.3708C114.986 34.3861 114.965 34.3954 114.944 34.3969H110.496C110.474 34.3954 110.454 34.3861 110.438 34.3708C110.423 34.3555 110.414 34.3351 110.412 34.3135V14.2438C110.414 14.2222 110.423 14.2018 110.438 14.1865C110.454 14.1712 110.474 14.1619 110.496 14.1604H114.944C114.965 14.1619 114.986 14.1712 115.001 14.1865C115.017 14.2018 115.026 14.2222 115.027 14.2438V16.0453C115.673 15.2549 116.496 14.6271 117.429 14.2124C118.362 13.7977 119.379 13.6077 120.399 13.6576C124.259 13.6576 127.574 15.7522 127.574 21.9525V34.3113C127.573 34.3329 127.564 34.3533 127.548 34.3687C127.533 34.384 127.513 34.3933 127.491 34.3948H123.043C123.021 34.3933 123.001 34.384 122.986 34.3687C122.97 34.3533 122.961 34.3329 122.96 34.3113V22.7505H122.917Z" fill="#404040"/>
<path d="M142.01 32.6757C141.303 33.3829 140.457 33.9347 139.525 34.2954C138.592 34.6561 137.595 34.8179 136.597 34.7702C132.443 34.7702 129.253 32.466 129.253 28.0255C129.253 23.3335 133.197 21.3224 137.184 21.3224C138.845 21.271 140.492 21.6459 141.968 22.4114V21.531C141.968 21.0244 141.868 20.5229 141.674 20.055C141.48 19.5871 141.195 19.1622 140.837 18.8044C140.478 18.4467 140.052 18.1632 139.584 17.9703C139.116 17.7773 138.614 17.6786 138.107 17.6799C135.948 17.6353 133.831 18.281 132.064 19.523C132.054 19.5311 132.042 19.5364 132.029 19.5386C132.016 19.5408 132.002 19.5398 131.99 19.5357C131.978 19.5316 131.966 19.5245 131.957 19.515C131.948 19.5055 131.942 19.494 131.938 19.4813L130.595 15.8784C130.595 15.8367 130.595 15.795 130.637 15.795C132.994 14.3065 135.739 13.5487 138.527 13.6169C142.093 13.6169 146.541 14.4963 146.541 21.2839V34.2279C146.54 34.2495 146.53 34.2699 146.515 34.2852C146.5 34.3006 146.479 34.3098 146.458 34.3113H142.09C142.068 34.3098 142.048 34.3006 142.033 34.2852C142.017 34.2699 142.008 34.2495 142.006 34.2279L142.01 32.6757ZM142.01 28.7796V26.1405C140.741 25.5806 139.368 25.2951 137.981 25.3029C135.672 25.3029 133.826 26.0988 133.826 28.0255C133.826 29.6173 135.085 30.6645 137.519 30.6645C138.358 30.6837 139.191 30.5258 139.965 30.201C140.739 29.8762 141.436 29.3919 142.01 28.7796Z" fill="#404040"/>
<path d="M42.6799 23.0415C42.679 20.0128 42.0813 17.014 40.9208 14.2165C39.7603 11.419 38.0598 8.87767 35.9165 6.73777C33.7732 4.59787 31.2292 2.90137 28.4299 1.74527C25.6305 0.589175 22.6308 -0.00383509 19.6021 0.000101098H5.08024C5.0313 -0.00116974 4.98277 0.00955651 4.93895 0.0313762C4.89512 0.0531959 4.85732 0.0854486 4.82883 0.125267C4.8013 0.15828 4.78052 0.196369 4.76772 0.237407C4.75491 0.278444 4.75033 0.321619 4.7542 0.364433C4.75808 0.407247 4.77035 0.448883 4.79031 0.486955C4.81027 0.525027 4.83754 0.558796 4.87055 0.58633L13.5987 7.87562C14.4321 8.54532 15.4671 8.91431 16.5362 8.92291H19.6021C23.3354 8.92291 26.9158 10.4059 29.5556 13.0458C32.1954 15.6856 33.6785 19.266 33.6785 22.9992C33.6785 26.7325 32.1954 30.3129 29.5556 32.9527C26.9158 35.5925 23.3354 37.0756 19.6021 37.0756H16.5384C15.4668 37.0701 14.4272 37.4407 13.6008 38.1229L4.87271 45.4122C4.80701 45.4684 4.76585 45.5481 4.75805 45.6342C4.75026 45.7204 4.77645 45.8061 4.83099 45.8732C4.86237 45.9099 4.90077 45.9401 4.94394 45.9617C4.98711 45.9834 5.03416 45.9962 5.08236 45.9995H19.6021C22.6285 46.0201 25.629 45.4412 28.4305 44.2963C31.2321 43.1514 33.7792 41.463 35.9249 39.3287C38.0705 37.1943 39.7724 34.6562 40.9321 31.8608C42.0919 29.0654 42.6866 26.068 42.682 23.0415H42.6799Z" fill="#404040"/>
<path d="M26.0207 23.0415C26.0237 22.8236 25.9759 22.608 25.8812 22.4118C25.7865 22.2155 25.6475 22.044 25.4751 21.9108L0.549861 0.545648C0.491277 0.492397 0.415065 0.462676 0.335897 0.462204C0.24888 0.467948 0.166916 0.505041 0.105154 0.566607C0.0433909 0.628173 0.00602121 0.710058 0 0.797057V9.67599C0.00444507 10.1567 0.107246 10.6315 0.302076 11.071C0.496905 11.5105 0.779662 11.9055 1.13289 12.2316L12.0914 21.9525L12.2177 22.0777C12.4635 22.3546 12.5981 22.7128 12.5953 23.0832C12.5907 23.4522 12.4571 23.808 12.2177 24.0888L12.0914 24.215L1.13929 33.892C0.779395 34.2127 0.492158 34.6067 0.296787 35.0474C0.101416 35.4882 0.00242839 35.9655 0.00643131 36.4476V45.3266C0.0124525 45.4136 0.0497895 45.4954 0.111552 45.557C0.173315 45.6186 0.255311 45.6557 0.342329 45.6614C0.421496 45.6609 0.497709 45.6312 0.556292 45.578L25.4815 24.2129C25.6523 24.068 25.7896 23.8877 25.8838 23.6845C25.978 23.4813 26.0269 23.2601 26.0271 23.0361L26.0207 23.0415Z" fill="#7BE473"/>
<path d="M8.35369 23.0415C8.35669 22.8236 8.30898 22.608 8.21429 22.4118C8.1196 22.2155 7.98056 22.044 7.80814 21.9108L0.59051 15.6688C0.531927 15.6155 0.455714 15.5858 0.376547 15.5853C0.289529 15.5911 0.207566 15.6282 0.145803 15.6897C0.0840403 15.7513 0.0466706 15.8332 0.0406494 15.9202V23.0415V30.1639C0.0466706 30.2509 0.0840403 30.3328 0.145803 30.3944C0.207566 30.4559 0.289529 30.493 0.376547 30.4988C0.455714 30.4983 0.531927 30.4686 0.59051 30.4153L7.84986 24.1733C8.01636 24.0373 8.14863 23.8642 8.23613 23.6678C8.32363 23.4715 8.3639 23.2573 8.35369 23.0426V23.0415Z" fill="#404040"/>
</svg>
