<?xml version="1.0" encoding="UTF-8"?>
<svg width="241px" height="107px" viewBox="0 0 241 107" version="1.1" xmlns="http://www.w3.org/2000/svg" xmlns:xlink="http://www.w3.org/1999/xlink">
    <!-- Generator: Sketch 56.3 (81716) - https://sketch.com -->
    <title>ixda-sjc-logo</title>
    <desc>Created with Sketch.</desc>
    <g id="Page-1" stroke="none" stroke-width="1" fill="none" fill-rule="evenodd">
        <g id="ixda-sjc-logo---blue" transform="translate(-30.000000, -19.000000)">
            <g id="ixda-sjc-logo" transform="translate(30.000000, 19.000000)">
                <path d="M4.84,93.68 C4.57599868,93.68 4.32300121,93.7313328 4.081,93.834 C3.83899879,93.9366672 3.62633425,94.0759991 3.443,94.252 C3.25966575,94.4280009 3.11666718,94.6369988 3.014,94.879 C2.91133282,95.1210012 2.86,95.3813319 2.86,95.66 C2.86,95.9533348 2.92599934,96.2063323 3.058,96.419 C3.19000066,96.6316677 3.37699879,96.8296658 3.619,97.013 C3.86100121,97.1963343 4.16166487,97.3723325 4.521,97.541 C4.88033513,97.7096675 5.2799978,97.8966656 5.72,98.102 C6.3066696,98.3660013 6.81266454,98.6446652 7.238,98.938 C7.66333546,99.2313348 8.01899857,99.5503316 8.305,99.895 C8.59100143,100.239668 8.80366597,100.620998 8.943,101.039 C9.08233403,101.457002 9.152,101.937331 9.152,102.48 C9.152,103.037336 9.05666762,103.543331 8.866,103.998 C8.67533238,104.452669 8.40766839,104.844998 8.063,105.175 C7.71833161,105.505002 7.30400242,105.761666 6.82,105.945 C6.33599758,106.128334 5.79333634,106.22 5.192,106.22 L4.268,106.22 C3.73999736,106.22 3.27066872,106.161334 2.86,106.044 C2.44933128,105.926666 2.11933458,105.772668 1.87,105.582 C1.44466454,105.244665 1.12933436,104.933001 0.924,104.647 C0.71866564,104.360999 0.616,104.130001 0.616,103.954 C0.616,103.895333 0.65999956,103.844 0.748,103.8 L2.134,103.096 C2.19266696,103.066667 2.22933326,103.052 2.244,103.052 C2.30266696,103.052 2.3686663,103.103333 2.442,103.206 L2.805,103.69 C2.91500055,103.836667 3.03599934,103.968666 3.168,104.086 C3.30000066,104.203334 3.45399912,104.295 3.63,104.361 C3.80600088,104.427 4.01866542,104.46 4.268,104.46 L5.192,104.46 C5.73466938,104.46 6.20033139,104.269335 6.589,103.888 C6.97766861,103.506665 7.172,103.037336 7.172,102.48 C7.172,102.171998 7.11333392,101.900668 6.996,101.666 C6.87866608,101.431332 6.70633447,101.215001 6.479,101.017 C6.25166553,100.818999 5.97300165,100.632001 5.643,100.456 C5.31299835,100.279999 4.93533546,100.089334 4.51,99.884 C3.9233304,99.6053319 3.40266894,99.3340013 2.948,99.07 C2.49333106,98.8059987 2.11200154,98.5163349 1.804,98.201 C1.49599846,97.8856651 1.26500077,97.5226687 1.111,97.112 C0.95699923,96.7013313 0.88,96.2173361 0.88,95.66 C0.88,95.1026639 0.97533238,94.5930023 1.166,94.131 C1.35666762,93.6689977 1.62433161,93.2730016 1.969,92.943 C2.31366839,92.6129983 2.72799758,92.3600009 3.212,92.184 C3.69600242,92.0079991 4.23866366,91.92 4.84,91.92 L5.192,91.92 C5.73466938,91.92 6.22966443,91.9969992 6.677,92.151 C7.12433557,92.3050008 7.50933172,92.4956655 7.832,92.723 C8.15466828,92.9503345 8.40399912,93.1923321 8.58,93.449 C8.75600088,93.705668 8.844,93.9366656 8.844,94.142 C8.844,94.2153337 8.80000044,94.2739998 8.712,94.318 L7.304,95.022 C7.27466652,95.0366667 7.23800022,95.044 7.194,95.044 C7.13533304,95.044 7.07666696,95.0000004 7.018,94.912 C6.76866542,94.574665 6.51933458,94.2850012 6.27,94.043 C6.02066542,93.8009988 5.66133568,93.68 5.192,93.68 L4.84,93.68 Z M18.238,96.628 C18.2086665,96.5106661 18.1720002,96.3713341 18.128,96.21 C18.0839997,96.0486659 18.0326669,95.8653344 17.974,95.66 L17.886,95.66 L17.622,96.65 L16.544,100.764 C16.544,100.793333 16.5403333,100.811667 16.533,100.819 C16.5256666,100.826333 16.522,100.837333 16.522,100.852 C16.522,100.984001 16.6026658,101.05 16.764,101.05 L19.074,101.05 C19.2353341,101.05 19.316,100.984001 19.316,100.852 C19.316,100.837333 19.3123333,100.822667 19.305,100.808 C19.2976666,100.793333 19.294,100.778667 19.294,100.764 L18.238,96.628 Z M22.836,105.714 C22.836,105.743333 22.8396666,105.761667 22.847,105.769 C22.8543333,105.776333 22.858,105.787333 22.858,105.802 C22.858,105.934001 22.7773341,106 22.616,106 L20.966,106 C20.8339993,106 20.7606667,105.948667 20.746,105.846 L19.932,102.942 C19.9173332,102.854 19.8440006,102.81 19.712,102.81 L16.148,102.81 C16.0159993,102.81 15.9426667,102.854 15.928,102.942 L15.114,105.846 C15.0993332,105.948667 15.0260006,106 14.894,106 L13.244,106 C13.0826658,106 13.002,105.934001 13.002,105.802 C13.002,105.787333 13.0056666,105.776333 13.013,105.769 C13.0203333,105.761667 13.024,105.743333 13.024,105.714 L17.116,92.294 C17.1306667,92.1913328 17.2039993,92.14 17.336,92.14 L18.524,92.14 C18.6266671,92.14 18.6999997,92.1913328 18.744,92.294 L22.836,105.714 Z M21.208,89.148 C20.6506638,90.1453383 20.0200035,90.644 19.316,90.644 C18.861331,90.644 18.3993356,90.4533352 17.93,90.072 L17.49,89.786 C17.1966652,89.5953324 16.9326678,89.5 16.698,89.5 C16.5219991,89.5 16.3680006,89.5366663 16.236,89.61 C16.1039993,89.6833337 15.9903338,89.7639996 15.895,89.852 C15.7996661,89.9400004 15.7190003,90.0206663 15.653,90.094 C15.5869996,90.1673337 15.5320002,90.204 15.488,90.204 C15.429333,90.204 15.3853334,90.1893335 15.356,90.16 L14.872,89.808 C14.7986663,89.7639998 14.762,89.712667 14.762,89.654 C14.762,89.5659996 14.8169994,89.4340009 14.927,89.258 C15.0370005,89.0819991 15.1799991,88.9060009 15.356,88.73 C15.5320008,88.5539991 15.7373321,88.4000007 15.972,88.268 C16.2066678,88.1359993 16.4486654,88.07 16.698,88.07 C17.1820024,88.07 17.6439978,88.2459982 18.084,88.598 L18.502,88.928 C18.7220011,89.1040009 18.9786652,89.192 19.272,89.192 C19.4773343,89.192 19.6496659,89.1553337 19.789,89.082 C19.928334,89.0086663 20.0493328,88.9243338 20.152,88.829 C20.2546671,88.7336662 20.3389996,88.6493337 20.405,88.576 C20.4710003,88.5026663 20.5259997,88.466 20.57,88.466 C20.6286669,88.466 20.6726665,88.4806665 20.702,88.51 L21.142,88.862 C21.2006669,88.920667 21.23,88.979333 21.23,89.038 C21.23,89.0820002 21.2226667,89.1186665 21.208,89.148 Z M34.0999999,95.66 C34.0999999,95.1026639 33.9093351,94.6333352 33.5279999,94.252 C33.1466647,93.8706648 32.677336,93.68 32.1199999,93.68 L31.4599999,93.68 C30.9026638,93.68 30.4333351,93.8706648 30.0519999,94.252 C29.6706647,94.6333352 29.4799999,95.1026639 29.4799999,95.66 L29.4799999,102.48 C29.4799999,103.037336 29.6706647,103.506665 30.0519999,103.888 C30.4333351,104.269335 30.9026638,104.46 31.4599999,104.46 L32.1199999,104.46 C32.677336,104.46 33.1466647,104.269335 33.5279999,103.888 C33.9093351,103.506665 34.0999999,103.037336 34.0999999,102.48 L34.0999999,95.66 Z M36.0799999,102.48 C36.0799999,103.037336 35.9846675,103.546998 35.7939999,104.009 C35.6033323,104.471002 35.3356683,104.866998 34.9909999,105.197 C34.6463315,105.527002 34.2320023,105.779999 33.7479999,105.956 C33.2639975,106.132001 32.7213362,106.22 32.1199999,106.22 L31.4599999,106.22 C30.8586636,106.22 30.3160023,106.132001 29.8319999,105.956 C29.3479975,105.779999 28.9336683,105.527002 28.5889999,105.197 C28.2443315,104.866998 27.9766675,104.471002 27.7859999,104.009 C27.5953323,103.546998 27.4999999,103.037336 27.4999999,102.48 L27.4999999,95.66 C27.4999999,95.1026639 27.5953323,94.5930023 27.7859999,94.131 C27.9766675,93.6689977 28.2443315,93.2730016 28.5889999,92.943 C28.9336683,92.6129983 29.3479975,92.3600009 29.8319999,92.184 C30.3160023,92.0079991 30.8586636,91.92 31.4599999,91.92 L32.1199999,91.92 C32.7213362,91.92 33.2639975,92.0079991 33.7479999,92.184 C34.2320023,92.3600009 34.6463315,92.6129983 34.9909999,92.943 C35.3356683,93.2730016 35.6033323,93.6689977 35.7939999,94.131 C35.9846675,94.5930023 36.0799999,95.1026639 36.0799999,95.66 L36.0799999,102.48 Z M55.8579998,102.26 C55.8579998,103.301339 55.469337,104.232663 54.6919998,105.054 C54.339998,105.435335 53.9366687,105.724999 53.4819998,105.923 C53.0273309,106.121001 52.5360024,106.22 52.0079998,106.22 C51.3039963,106.22 50.5706703,106.007335 49.8079998,105.582 C49.2799972,105.288665 48.8840011,104.984335 48.6199998,104.669 C48.3559985,104.353665 48.2239998,104.108001 48.2239998,103.932 C48.2239998,103.888 48.2753326,103.836667 48.3779998,103.778 L49.7639998,103.096 C49.7933333,103.081333 49.8299996,103.074 49.8739998,103.074 C49.918,103.074 49.9766661,103.118 50.0499998,103.206 C50.1820005,103.382001 50.3066659,103.546999 50.4239998,103.701 C50.5413337,103.855001 50.6659991,103.986999 50.7979998,104.097 C50.9300005,104.207001 51.0839989,104.295 51.2599998,104.361 C51.4360007,104.427 51.6486652,104.46 51.8979998,104.46 C52.4553359,104.46 52.9246646,104.265669 53.3059998,103.877 C53.687335,103.488331 53.8779998,103.022669 53.8779998,102.48 L53.8779998,92.36 C53.8779998,92.2133326 53.9513324,92.14 54.0979998,92.14 L55.6379998,92.14 C55.7846672,92.14 55.8579998,92.2133326 55.8579998,92.36 L55.8579998,102.26 Z M68.3979998,95.66 C68.3979998,95.1026639 68.207335,94.6333352 67.8259998,94.252 C67.4446645,93.8706648 66.9753359,93.68 66.4179998,93.68 L65.7579998,93.68 C65.2006636,93.68 64.731335,93.8706648 64.3499998,94.252 C63.9686645,94.6333352 63.7779998,95.1026639 63.7779998,95.66 L63.7779998,102.48 C63.7779998,103.037336 63.9686645,103.506665 64.3499998,103.888 C64.731335,104.269335 65.2006636,104.46 65.7579998,104.46 L66.4179998,104.46 C66.9753359,104.46 67.4446645,104.269335 67.8259998,103.888 C68.207335,103.506665 68.3979998,103.037336 68.3979998,102.48 L68.3979998,95.66 Z M70.3779998,102.48 C70.3779998,103.037336 70.2826674,103.546998 70.0919998,104.009 C69.9013321,104.471002 69.6336682,104.866998 69.2889998,105.197 C68.9443314,105.527002 68.5300022,105.779999 68.0459998,105.956 C67.5619973,106.132001 67.0193361,106.22 66.4179998,106.22 L65.7579998,106.22 C65.1566634,106.22 64.6140022,106.132001 64.1299998,105.956 C63.6459973,105.779999 63.2316682,105.527002 62.8869998,105.197 C62.5423314,104.866998 62.2746674,104.471002 62.0839998,104.009 C61.8933321,103.546998 61.7979998,103.037336 61.7979998,102.48 L61.7979998,95.66 C61.7979998,95.1026639 61.8933321,94.5930023 62.0839998,94.131 C62.2746674,93.6689977 62.5423314,93.2730016 62.8869998,92.943 C63.2316682,92.6129983 63.6459973,92.3600009 64.1299998,92.184 C64.6140022,92.0079991 65.1566634,91.92 65.7579998,91.92 L66.4179998,91.92 C67.0193361,91.92 67.5619973,92.0079991 68.0459998,92.184 C68.5300022,92.3600009 68.9443314,92.6129983 69.2889998,92.943 C69.6336682,93.2730016 69.9013321,93.6689977 70.0919998,94.131 C70.2826674,94.5930023 70.3779998,95.1026639 70.3779998,95.66 L70.3779998,102.48 Z M79.8379997,93.68 C79.5739984,93.68 79.3210009,93.7313328 79.0789997,93.834 C78.8369985,93.9366672 78.624334,94.0759991 78.4409997,94.252 C78.2576655,94.4280009 78.1146669,94.6369988 78.0119997,94.879 C77.9093325,95.1210012 77.8579997,95.3813319 77.8579997,95.66 C77.8579997,95.9533348 77.9239991,96.2063323 78.0559997,96.419 C78.1880004,96.6316677 78.3749985,96.8296658 78.6169997,97.013 C78.8590009,97.1963343 79.1596646,97.3723325 79.5189997,97.541 C79.8783348,97.7096675 80.2779975,97.8966656 80.7179997,98.102 C81.3046693,98.3660013 81.8106643,98.6446652 82.2359997,98.938 C82.6613352,99.2313348 83.0169983,99.5503316 83.3029997,99.895 C83.5890011,100.239668 83.8016657,100.620998 83.9409997,101.039 C84.0803337,101.457002 84.1499997,101.937331 84.1499997,102.48 C84.1499997,103.037336 84.0546673,103.543331 83.8639997,103.998 C83.6733321,104.452669 83.4056681,104.844998 83.0609997,105.175 C82.7163313,105.505002 82.3020021,105.761666 81.8179997,105.945 C81.3339973,106.128334 80.7913361,106.22 80.1899997,106.22 L79.2659997,106.22 C78.7379971,106.22 78.2686684,106.161334 77.8579997,106.044 C77.447331,105.926666 77.1173343,105.772668 76.8679997,105.582 C76.4426643,105.244665 76.1273341,104.933001 75.9219997,104.647 C75.7166654,104.360999 75.6139997,104.130001 75.6139997,103.954 C75.6139997,103.895333 75.6579993,103.844 75.7459997,103.8 L77.1319997,103.096 C77.1906667,103.066667 77.227333,103.052 77.2419997,103.052 C77.3006667,103.052 77.366666,103.103333 77.4399997,103.206 L77.8029997,103.69 C77.9130003,103.836667 78.0339991,103.968666 78.1659997,104.086 C78.2980004,104.203334 78.4519988,104.295 78.6279997,104.361 C78.8040006,104.427 79.0166651,104.46 79.2659997,104.46 L80.1899997,104.46 C80.7326691,104.46 81.1983311,104.269335 81.5869997,103.888 C81.9756683,103.506665 82.1699997,103.037336 82.1699997,102.48 C82.1699997,102.171998 82.1113336,101.900668 81.9939997,101.666 C81.8766658,101.431332 81.7043342,101.215001 81.4769997,101.017 C81.2496652,100.818999 80.9710014,100.632001 80.6409997,100.456 C80.3109981,100.279999 79.9333352,100.089334 79.5079997,99.884 C78.9213301,99.6053319 78.4006687,99.3340013 77.9459997,99.07 C77.4913308,98.8059987 77.1100013,98.5163349 76.8019997,98.201 C76.4939982,97.8856651 76.2630005,97.5226687 76.1089997,97.112 C75.9549989,96.7013313 75.8779997,96.2173361 75.8779997,95.66 C75.8779997,95.1026639 75.9733321,94.5930023 76.1639997,94.131 C76.3546673,93.6689977 76.6223313,93.2730016 76.9669997,92.943 C77.3116681,92.6129983 77.7259973,92.3600009 78.2099997,92.184 C78.6940021,92.0079991 79.2366634,91.92 79.8379997,91.92 L80.1899997,91.92 C80.7326691,91.92 81.2276641,91.9969992 81.6749997,92.151 C82.1223353,92.3050008 82.5073314,92.4956655 82.8299997,92.723 C83.152668,92.9503345 83.4019988,93.1923321 83.5779997,93.449 C83.7540006,93.705668 83.8419997,93.9366656 83.8419997,94.142 C83.8419997,94.2153337 83.7980002,94.2739998 83.7099997,94.318 L82.3019997,95.022 C82.2726662,95.0366667 82.2359999,95.044 82.1919997,95.044 C82.1333328,95.044 82.0746667,95.0000004 82.0159997,94.912 C81.7666651,94.574665 81.5173343,94.2850012 81.2679997,94.043 C81.0186651,93.8009988 80.6593354,93.68 80.1899997,93.68 L79.8379997,93.68 Z M97.5479997,105.78 C97.5479997,105.926667 97.4746671,106 97.3279997,106 L89.8479997,106 C89.7013323,106 89.6279997,105.926667 89.6279997,105.78 L89.6279997,92.36 C89.6279997,92.2133326 89.7013323,92.14 89.8479997,92.14 L97.3279997,92.14 C97.4746671,92.14 97.5479997,92.2133326 97.5479997,92.36 L97.5479997,93.68 C97.5479997,93.8266674 97.4746671,93.9 97.3279997,93.9 L91.8279997,93.9 C91.6813323,93.9 91.6079997,93.9733326 91.6079997,94.12 L91.6079997,97.86 C91.6079997,98.0066674 91.6813323,98.08 91.8279997,98.08 L96.3379997,98.08 C96.4846671,98.08 96.5579997,98.1533326 96.5579997,98.3 L96.5579997,99.62 C96.5579997,99.7666674 96.4846671,99.84 96.3379997,99.84 L91.8279997,99.84 C91.6813323,99.84 91.6079997,99.9133326 91.6079997,100.06 L91.6079997,104.02 C91.6079997,104.166667 91.6813323,104.24 91.8279997,104.24 L97.3279997,104.24 C97.4746671,104.24 97.5479997,104.313333 97.5479997,104.46 L97.5479997,105.78 Z M93.8079997,90.886 L93.6539997,90.952 L92.7079997,90.952 C92.5613323,90.952 92.4879997,90.8933339 92.4879997,90.776 C92.4879997,90.717333 92.5026662,90.6660002 92.5319997,90.622 L94.3359997,87.872 L94.5119997,87.762 L96.4479997,87.762 C96.6093338,87.762 96.6899997,87.8279993 96.6899997,87.96 C96.6899997,88.018667 96.6606666,88.077333 96.6019997,88.136 L93.8079997,90.886 Z M117.326,95.88 C117.326,95.3226639 117.135335,94.8533352 116.754,94.472 C116.372664,94.0906648 115.903336,93.9 115.346,93.9 L112.926,93.9 C112.779332,93.9 112.706,93.9733326 112.706,94.12 L112.706,104.02 C112.706,104.166667 112.779332,104.24 112.926,104.24 L115.346,104.24 C115.903336,104.24 116.372664,104.045669 116.754,103.657 C117.135335,103.268331 117.326,102.802669 117.326,102.26 L117.326,95.88 Z M119.306,102.04 C119.306,103.272006 118.954003,104.239996 118.25,104.944 C117.545996,105.648004 116.578006,106 115.346,106 L110.946,106 C110.799332,106 110.726,105.926667 110.726,105.78 L110.726,92.36 C110.726,92.2133326 110.799332,92.14 110.946,92.14 L115.346,92.14 C116.563339,92.14 117.527663,92.4956631 118.239,93.207 C118.950336,93.9183369 119.306,94.8826606 119.306,96.1 L119.306,102.04 Z M131.846,95.66 C131.846,95.1026639 131.655335,94.6333352 131.274,94.252 C130.892664,93.8706648 130.423336,93.68 129.866,93.68 L129.206,93.68 C128.648663,93.68 128.179335,93.8706648 127.798,94.252 C127.416664,94.6333352 127.226,95.1026639 127.226,95.66 L127.226,102.48 C127.226,103.037336 127.416664,103.506665 127.798,103.888 C128.179335,104.269335 128.648663,104.46 129.206,104.46 L129.866,104.46 C130.423336,104.46 130.892664,104.269335 131.274,103.888 C131.655335,103.506665 131.846,103.037336 131.846,102.48 L131.846,95.66 Z M133.826,102.48 C133.826,103.037336 133.730667,103.546998 133.54,104.009 C133.349332,104.471002 133.081668,104.866998 132.737,105.197 C132.392331,105.527002 131.978002,105.779999 131.494,105.956 C131.009997,106.132001 130.467336,106.22 129.866,106.22 L129.206,106.22 C128.604663,106.22 128.062002,106.132001 127.578,105.956 C127.093997,105.779999 126.679668,105.527002 126.335,105.197 C125.990331,104.866998 125.722667,104.471002 125.532,104.009 C125.341332,103.546998 125.246,103.037336 125.246,102.48 L125.246,95.66 C125.246,95.1026639 125.341332,94.5930023 125.532,94.131 C125.722667,93.6689977 125.990331,93.2730016 126.335,92.943 C126.679668,92.6129983 127.093997,92.3600009 127.578,92.184 C128.062002,92.0079991 128.604663,91.92 129.206,91.92 L129.866,91.92 C130.467336,91.92 131.009997,92.0079991 131.494,92.184 C131.978002,92.3600009 132.392331,92.6129983 132.737,92.943 C133.081668,93.2730016 133.349332,93.6689977 133.54,94.131 C133.730667,94.5930023 133.826,95.1026639 133.826,95.66 L133.826,102.48 Z M143.285999,93.68 C143.021998,93.68 142.769001,93.7313328 142.526999,93.834 C142.284998,93.9366672 142.072334,94.0759991 141.888999,94.252 C141.705665,94.4280009 141.562667,94.6369988 141.459999,94.879 C141.357332,95.1210012 141.305999,95.3813319 141.305999,95.66 C141.305999,95.9533348 141.371999,96.2063323 141.503999,96.419 C141.636,96.6316677 141.822998,96.8296658 142.064999,97.013 C142.307001,97.1963343 142.607664,97.3723325 142.966999,97.541 C143.326335,97.7096675 143.725997,97.8966656 144.165999,98.102 C144.752669,98.3660013 145.258664,98.6446652 145.683999,98.938 C146.109335,99.2313348 146.464998,99.5503316 146.750999,99.895 C147.037001,100.239668 147.249665,100.620998 147.388999,101.039 C147.528334,101.457002 147.597999,101.937331 147.597999,102.48 C147.597999,103.037336 147.502667,103.543331 147.311999,103.998 C147.121332,104.452669 146.853668,104.844998 146.508999,105.175 C146.164331,105.505002 145.750002,105.761666 145.265999,105.945 C144.781997,106.128334 144.239336,106.22 143.637999,106.22 L142.713999,106.22 C142.185997,106.22 141.716668,106.161334 141.305999,106.044 C140.895331,105.926666 140.565334,105.772668 140.315999,105.582 C139.890664,105.244665 139.575334,104.933001 139.369999,104.647 C139.164665,104.360999 139.061999,104.130001 139.061999,103.954 C139.061999,103.895333 139.105999,103.844 139.193999,103.8 L140.579999,103.096 C140.638666,103.066667 140.675333,103.052 140.689999,103.052 C140.748666,103.052 140.814666,103.103333 140.887999,103.206 L141.250999,103.69 C141.361,103.836667 141.481999,103.968666 141.613999,104.086 C141.746,104.203334 141.899999,104.295 142.075999,104.361 C142.252,104.427 142.464665,104.46 142.713999,104.46 L143.637999,104.46 C144.180669,104.46 144.646331,104.269335 145.034999,103.888 C145.423668,103.506665 145.617999,103.037336 145.617999,102.48 C145.617999,102.171998 145.559333,101.900668 145.441999,101.666 C145.324666,101.431332 145.152334,101.215001 144.924999,101.017 C144.697665,100.818999 144.419001,100.632001 144.088999,100.456 C143.758998,100.279999 143.381335,100.089334 142.955999,99.884 C142.36933,99.6053319 141.848668,99.3340013 141.393999,99.07 C140.939331,98.8059987 140.558001,98.5163349 140.249999,98.201 C139.941998,97.8856651 139.711,97.5226687 139.556999,97.112 C139.402999,96.7013313 139.325999,96.2173361 139.325999,95.66 C139.325999,95.1026639 139.421332,94.5930023 139.611999,94.131 C139.802667,93.6689977 140.070331,93.2730016 140.414999,92.943 C140.759668,92.6129983 141.173997,92.3600009 141.657999,92.184 C142.142002,92.0079991 142.684663,91.92 143.285999,91.92 L143.637999,91.92 C144.180669,91.92 144.675664,91.9969992 145.122999,92.151 C145.570335,92.3050008 145.955331,92.4956655 146.277999,92.723 C146.600668,92.9503345 146.849999,93.1923321 147.025999,93.449 C147.202,93.705668 147.289999,93.9366656 147.289999,94.142 C147.289999,94.2153337 147.246,94.2739998 147.157999,94.318 L145.749999,95.022 C145.720666,95.0366667 145.684,95.044 145.639999,95.044 C145.581333,95.044 145.522666,95.0000004 145.463999,94.912 C145.214665,94.574665 144.965334,94.2850012 144.715999,94.043 C144.466665,93.8009988 144.107335,93.68 143.637999,93.68 L143.285999,93.68 Z M168.145999,103.8 C168.234,103.844 168.277999,103.895333 168.277999,103.954 C168.277999,104.027334 168.208333,104.192332 168.068999,104.449 C167.929665,104.705668 167.691334,104.987998 167.353999,105.296 C166.693996,105.912003 165.777339,106.22 164.603999,106.22 L163.943999,106.22 C163.342663,106.22 162.800002,106.132001 162.315999,105.956 C161.831997,105.779999 161.417668,105.527002 161.072999,105.197 C160.728331,104.866998 160.460667,104.471002 160.269999,104.009 C160.079332,103.546998 159.983999,103.037336 159.983999,102.48 L159.983999,95.66 C159.983999,95.1026639 160.079332,94.5930023 160.269999,94.131 C160.460667,93.6689977 160.728331,93.2730016 161.072999,92.943 C161.417668,92.6129983 161.831997,92.3600009 162.315999,92.184 C162.800002,92.0079991 163.342663,91.92 163.943999,91.92 L164.603999,91.92 C165.146669,91.92 165.641664,91.9969992 166.088999,92.151 C166.536335,92.3050008 166.921331,92.4919989 167.243999,92.712 C167.566668,92.9320011 167.815999,93.170332 167.991999,93.427 C168.168,93.683668 168.255999,93.9219989 168.255999,94.142 C168.255999,94.2153337 168.212,94.2739998 168.123999,94.318 L166.715999,95.022 C166.686666,95.0366667 166.65,95.044 166.605999,95.044 C166.547332,95.044 166.488666,95.0000004 166.429999,94.912 C166.180665,94.574665 165.931334,94.2850012 165.681999,94.043 C165.432665,93.8009988 165.073335,93.68 164.603999,93.68 L163.943999,93.68 C163.386663,93.68 162.917335,93.8706648 162.535999,94.252 C162.154664,94.6333352 161.963999,95.1026639 161.963999,95.66 L161.963999,102.48 C161.963999,103.037336 162.154664,103.506665 162.535999,103.888 C162.917335,104.269335 163.386663,104.46 163.943999,104.46 L164.603999,104.46 C164.868001,104.46 165.106332,104.412334 165.318999,104.317 C165.531667,104.221666 165.689332,104.115334 165.791999,103.998 C166.041334,103.704665 166.224665,103.473668 166.341999,103.305 C166.459333,103.136332 166.554666,103.052 166.627999,103.052 C166.657333,103.052 166.701332,103.066667 166.759999,103.096 L168.145999,103.8 Z M177.451999,96.628 C177.422666,96.5106661 177.386,96.3713341 177.341999,96.21 C177.297999,96.0486659 177.246666,95.8653344 177.187999,95.66 L177.099999,95.66 L176.835999,96.65 L175.757999,100.764 C175.757999,100.793333 175.754333,100.811667 175.746999,100.819 C175.739666,100.826333 175.735999,100.837333 175.735999,100.852 C175.735999,100.984001 175.816665,101.05 175.977999,101.05 L178.287999,101.05 C178.449333,101.05 178.529999,100.984001 178.529999,100.852 C178.529999,100.837333 178.526333,100.822667 178.518999,100.808 C178.511666,100.793333 178.507999,100.778667 178.507999,100.764 L177.451999,96.628 Z M182.049999,105.714 C182.049999,105.743333 182.053666,105.761667 182.060999,105.769 C182.068333,105.776333 182.071999,105.787333 182.071999,105.802 C182.071999,105.934001 181.991333,106 181.829999,106 L180.179999,106 C180.047999,106 179.974666,105.948667 179.959999,105.846 L179.145999,102.942 C179.131333,102.854 179.058,102.81 178.925999,102.81 L175.361999,102.81 C175.229999,102.81 175.156666,102.854 175.141999,102.942 L174.327999,105.846 C174.313333,105.948667 174.24,106 174.107999,106 L172.457999,106 C172.296665,106 172.215999,105.934001 172.215999,105.802 C172.215999,105.787333 172.219666,105.776333 172.226999,105.769 C172.234333,105.761667 172.237999,105.743333 172.237999,105.714 L176.329999,92.294 C176.344666,92.1913328 176.417999,92.14 176.549999,92.14 L177.737999,92.14 C177.840667,92.14 177.913999,92.1913328 177.957999,92.294 L182.049999,105.714 Z M197.955999,105.78 C197.955999,105.926667 197.882667,106 197.735999,106 L196.195999,106 C196.049332,106 195.975999,105.926667 195.975999,105.78 L196.217999,96.012 L193.071999,103.888 C193.042666,103.961334 192.976666,104.005333 192.873999,104.02 L192.125999,104.02 C192.023332,104.005333 191.957333,103.961334 191.927999,103.888 L188.825999,95.99 L189.023999,105.78 C189.023999,105.926667 188.950667,106 188.803999,106 L187.263999,106 C187.117332,106 187.043999,105.926667 187.043999,105.78 L187.043999,92.36 C187.043999,92.2133326 187.117332,92.14 187.263999,92.14 L188.781999,92.14 C188.884666,92.14 188.950666,92.1839996 188.979999,92.272 L192.455999,101.006 L192.521999,101.006 L195.975999,92.25 L196.173999,92.118 L197.735999,92.14 C197.882667,92.14 197.955999,92.2133326 197.955999,92.36 L197.955999,105.78 Z M211.155999,95.88 C211.155999,95.3226639 210.965334,94.8533352 210.583999,94.472 C210.202664,94.0906648 209.733335,93.9 209.175999,93.9 L206.755999,93.9 C206.609332,93.9 206.535999,93.9733326 206.535999,94.12 L206.535999,97.86 C206.535999,98.0066674 206.609332,98.08 206.755999,98.08 L209.175999,98.08 C209.733335,98.08 210.202664,97.8893352 210.583999,97.508 C210.965334,97.1266648 211.155999,96.6573361 211.155999,96.1 L211.155999,95.88 Z M209.175999,92.14 C210.393339,92.14 211.357662,92.4956631 212.068999,93.207 C212.780336,93.9183369 213.135999,94.8826606 213.135999,96.1 C213.135999,96.6573361 213.040667,97.1633311 212.849999,97.618 C212.659332,98.0726689 212.391668,98.4649984 212.046999,98.795 C211.702331,99.1250017 211.284335,99.3816657 210.792999,99.565 C210.301663,99.7483342 209.762669,99.84 209.175999,99.84 L206.755999,99.84 C206.609332,99.84 206.535999,99.9133326 206.535999,100.06 L206.535999,105.78 C206.535999,105.926667 206.462667,106 206.315999,106 L204.775999,106 C204.629332,106 204.555999,105.926667 204.555999,105.78 L204.555999,92.36 C204.555999,92.2133326 204.629332,92.14 204.775999,92.14 L209.175999,92.14 Z M224.795999,95.66 C224.795999,95.1026639 224.605334,94.6333352 224.223999,94.252 C223.842664,93.8706648 223.373335,93.68 222.815999,93.68 L222.155999,93.68 C221.598663,93.68 221.129334,93.8706648 220.747999,94.252 C220.366664,94.6333352 220.175999,95.1026639 220.175999,95.66 L220.175999,102.48 C220.175999,103.037336 220.366664,103.506665 220.747999,103.888 C221.129334,104.269335 221.598663,104.46 222.155999,104.46 L222.815999,104.46 C223.373335,104.46 223.842664,104.269335 224.223999,103.888 C224.605334,103.506665 224.795999,103.037336 224.795999,102.48 L224.795999,95.66 Z M226.775999,102.48 C226.775999,103.037336 226.680667,103.546998 226.489999,104.009 C226.299332,104.471002 226.031668,104.866998 225.686999,105.197 C225.342331,105.527002 224.928002,105.779999 224.443999,105.956 C223.959997,106.132001 223.417336,106.22 222.815999,106.22 L222.155999,106.22 C221.554663,106.22 221.012002,106.132001 220.527999,105.956 C220.043997,105.779999 219.629668,105.527002 219.284999,105.197 C218.940331,104.866998 218.672667,104.471002 218.481999,104.009 C218.291332,103.546998 218.195999,103.037336 218.195999,102.48 L218.195999,95.66 C218.195999,95.1026639 218.291332,94.5930023 218.481999,94.131 C218.672667,93.6689977 218.940331,93.2730016 219.284999,92.943 C219.629668,92.6129983 220.043997,92.3600009 220.527999,92.184 C221.012002,92.0079991 221.554663,91.92 222.155999,91.92 L222.815999,91.92 C223.417336,91.92 223.959997,92.0079991 224.443999,92.184 C224.928002,92.3600009 225.342331,92.6129983 225.686999,92.943 C226.031668,93.2730016 226.299332,93.6689977 226.489999,94.131 C226.680667,94.5930023 226.775999,95.1026639 226.775999,95.66 L226.775999,102.48 Z M236.235999,93.68 C235.971998,93.68 235.719,93.7313328 235.476999,93.834 C235.234998,93.9366672 235.022333,94.0759991 234.838999,94.252 C234.655665,94.4280009 234.512666,94.6369988 234.409999,94.879 C234.307332,95.1210012 234.255999,95.3813319 234.255999,95.66 C234.255999,95.9533348 234.321998,96.2063323 234.453999,96.419 C234.586,96.6316677 234.772998,96.8296658 235.014999,97.013 C235.257,97.1963343 235.557664,97.3723325 235.916999,97.541 C236.276334,97.7096675 236.675997,97.8966656 237.115999,98.102 C237.702669,98.3660013 238.208664,98.6446652 238.633999,98.938 C239.059335,99.2313348 239.414998,99.5503316 239.700999,99.895 C239.987001,100.239668 240.199665,100.620998 240.338999,101.039 C240.478333,101.457002 240.547999,101.937331 240.547999,102.48 C240.547999,103.037336 240.452667,103.543331 240.261999,103.998 C240.071332,104.452669 239.803668,104.844998 239.458999,105.175 C239.114331,105.505002 238.700002,105.761666 238.215999,105.945 C237.731997,106.128334 237.189335,106.22 236.587999,106.22 L235.663999,106.22 C235.135997,106.22 234.666668,106.161334 234.255999,106.044 C233.84533,105.926666 233.515334,105.772668 233.265999,105.582 C232.840664,105.244665 232.525334,104.933001 232.319999,104.647 C232.114665,104.360999 232.011999,104.130001 232.011999,103.954 C232.011999,103.895333 232.055999,103.844 232.143999,103.8 L233.529999,103.096 C233.588666,103.066667 233.625332,103.052 233.639999,103.052 C233.698666,103.052 233.764665,103.103333 233.837999,103.206 L234.200999,103.69 C234.311,103.836667 234.431998,103.968666 234.563999,104.086 C234.696,104.203334 234.849998,104.295 235.025999,104.361 C235.202,104.427 235.414665,104.46 235.663999,104.46 L236.587999,104.46 C237.130669,104.46 237.596331,104.269335 237.984999,103.888 C238.373668,103.506665 238.567999,103.037336 238.567999,102.48 C238.567999,102.171998 238.509333,101.900668 238.391999,101.666 C238.274665,101.431332 238.102334,101.215001 237.874999,101.017 C237.647665,100.818999 237.369001,100.632001 237.038999,100.456 C236.708997,100.279999 236.331335,100.089334 235.905999,99.884 C235.31933,99.6053319 234.798668,99.3340013 234.343999,99.07 C233.88933,98.8059987 233.508001,98.5163349 233.199999,98.201 C232.891998,97.8856651 232.661,97.5226687 232.506999,97.112 C232.352998,96.7013313 232.275999,96.2173361 232.275999,95.66 C232.275999,95.1026639 232.371332,94.5930023 232.561999,94.131 C232.752667,93.6689977 233.020331,93.2730016 233.364999,92.943 C233.709668,92.6129983 234.123997,92.3600009 234.607999,92.184 C235.092002,92.0079991 235.634663,91.92 236.235999,91.92 L236.587999,91.92 C237.130669,91.92 237.625664,91.9969992 238.072999,92.151 C238.520335,92.3050008 238.905331,92.4956655 239.227999,92.723 C239.550667,92.9503345 239.799998,93.1923321 239.975999,93.449 C240.152,93.705668 240.239999,93.9366656 240.239999,94.142 C240.239999,94.2153337 240.196,94.2739998 240.107999,94.318 L238.699999,95.022 C238.670666,95.0366667 238.633999,95.044 238.589999,95.044 C238.531332,95.044 238.472666,95.0000004 238.413999,94.912 C238.164665,94.574665 237.915334,94.2850012 237.665999,94.043 C237.416665,93.8009988 237.057335,93.68 236.587999,93.68 L236.235999,93.68 Z" id="são-josé-dos-campos" fill="#515E66"></path>
                <polygon id="Shape" fill="#515E66" fill-rule="nonzero" points="0.290030211 1.51518987 11.673716 1.51518987 11.673716 76.0481013 0.290030211 76.0481013"></polygon>
                <path d="M114.924471,1.51518987 L141.099698,1.51518987 C150.960725,1.51518987 159.081571,5.9164557 163.939577,14.0696203 C167.637462,20.3468354 167.927492,23.1607595 167.927492,38.7455696 C167.927492,55.4848101 167.057402,58.443038 163.722054,63.6379747 C159.299094,70.564557 151.540785,75.9759494 140.374622,75.9759494 L114.924471,75.9759494 L114.924471,1.51518987 L114.924471,1.51518987 Z M126.23565,65.3696203 L139.794562,65.3696203 C146.175227,65.3696203 150.743202,63.2050633 153.643505,58.8759494 C156.181269,55.1240506 156.471299,53.0316456 156.471299,39.178481 C156.471299,25.7582278 156.181269,22.5113924 153.135952,18.4708861 C149.655589,13.7810127 145.885196,12.1936709 139.794562,12.1936709 L126.23565,12.1936709 L126.23565,65.3696203 L126.23565,65.3696203 Z" id="Shape" fill="#515E66" fill-rule="nonzero"></path>
                <path d="M222.163142,59.3810127 L193.740181,59.3810127 L187.939577,76.0481013 L175.975831,76.0481013 L203.238671,1.51518987 L212.664653,1.51518987 L239.927492,76.0481013 L227.963746,76.0481013 L222.163142,59.3810127 L222.163142,59.3810127 Z M218.900302,49.3518987 L208.096677,16.8113924 L207.879154,16.8113924 L197.075529,49.3518987 L218.900302,49.3518987 L218.900302,49.3518987 Z" id="Shape" fill="#515E66" fill-rule="nonzero"></path>
                <path d="M64.5317221,16.378481 C63.8791541,17.0278481 62.7915408,17.0278481 62.2114804,16.378481 L55.4682779,9.66835443 C54.81571,9.01898734 54.81571,8.00886076 55.4682779,7.35949367 L62.2114804,0.649367089 C62.8640483,1.99840144e-14 63.8791541,1.99840144e-14 64.5317221,0.649367089 L71.2749245,7.35949367 C71.9274924,8.00886076 71.9274924,9.09113924 71.2749245,9.66835443 L64.5317221,16.378481 L64.5317221,16.378481 Z" id="Shape" fill="#55C4C4" fill-rule="nonzero"></path>
                <g id="Group" transform="translate(29.728097, 10.101266)" fill="#55C4C4" fill-rule="nonzero">
                    <path d="M0.50755287,9.59620253 L0.50755287,9.95696203 L0.50755287,9.59620253 Z M9.93353474,65.9468354 L10.6586103,65.9468354 L9.93353474,65.9468354 Z M55.6132931,0.316455696 L55.7132931,0.216455696 C55.7132931,0.216455696 55.6132931,0.316455696 55.6132931,0.316455696 Z M11.3111782,65.8746835 C11.1661631,65.8746835 11.0936556,65.9746835 10.9486405,65.9746835 C11.0936556,65.8746835 11.1661631,65.8746835 11.3111782,65.8746835 Z M0.580060423,10.4620253 L0.580060423,10.5620253 C0.580060423,10.5620253 0.580060423,10.5620253 0.580060423,10.4620253 Z M0.50755287,55.8455696 L0.50755287,56.5670886 L0.50755287,55.8455696 Z M55.9033233,65.8025316 C56.0483384,65.8746835 56.265861,65.8746835 56.4108761,65.9468354 C56.1933535,65.9468354 56.0483384,65.8746835 55.9033233,65.8025316 Z M11.9637462,65.4417722 C11.8187311,65.5860759 11.673716,65.6582278 11.5287009,65.7303797 C11.673716,65.7303797 11.8187311,65.5860759 11.9637462,65.4417722 Z M66.7794562,55.7012658 L66.7794562,56.5670886 L66.7794562,55.7012658 Z M57.4259819,65.9468354 L56.5558912,65.9468354 L57.4259819,65.9468354 Z M54.81571,64.2873418 C54.81571,64.9367089 55.2507553,65.5139241 55.8308157,65.8025316 C55.6132931,65.7303797 55.4682779,65.6582278 55.2507553,65.4417722 L34.8761329,45.1670886 C34.223565,44.5177215 33.2084592,44.5177215 32.5558912,45.1670886 L12.1812689,65.4417722 C12.1812689,65.5139241 12.1087613,65.5139241 12.1087613,65.5139241 C12.3987915,65.2253165 12.6163142,64.7924051 12.6163142,64.3594937 L12.6163142,55.7012658 C12.6163142,54.7632911 11.8187311,54.0417722 10.9486405,54.0417722 L2.24773414,54.0417722 C1.52265861,54.0417722 1.01510574,54.4025316 0.725075529,54.9797468 C0.797583082,54.7632911 0.870090634,54.6189873 1.08761329,54.4025316 L21.4622356,34.1278481 C22.1148036,33.478481 22.1148036,32.3962025 21.4622356,31.7468354 L1.16012085,11.4721519 C1.08761329,11.4 1.08761329,11.4 1.08761329,11.4 C1.3776435,11.6164557 1.74018127,11.8329114 2.17522659,11.8329114 L10.8761329,11.8329114 C11.8187311,11.8329114 12.5438066,11.0392405 12.5438066,10.1734177 L12.5438066,1.51518987 C12.5438066,1.08227848 12.3987915,0.721518987 12.1087613,0.432911392 C12.1087613,0.505063291 12.1812689,0.505063291 12.1812689,0.505063291 L32.5558912,20.7075949 C33.1359517,21.356962 34.223565,21.356962 34.8761329,20.7075949 L55.2507553,0.505063291 C55.2507553,0.505063291 55.2507553,0.432911392 55.3232628,0.432911392 C55.1057402,0.721518987 54.8882175,1.08227848 54.8882175,1.51518987 L54.8882175,10.1734177 C54.8882175,11.1113924 55.6858006,11.8329114 56.5558912,11.8329114 L65.2567976,11.8329114 C65.6918429,11.8329114 66.0543807,11.6886076 66.3444109,11.4 C66.2719033,11.4 66.2719033,11.4721519 66.1993958,11.5443038 L45.9697885,31.6746835 C45.3172205,32.3240506 45.3172205,33.4063291 45.9697885,34.0556962 L66.3444109,54.4025316 C66.489426,54.6189873 66.6344411,54.7632911 66.7069486,54.9797468 C66.4169184,54.4025316 65.836858,53.9696203 65.18429,53.9696203 L56.4833837,53.9696203 C55.5407855,53.9696203 54.81571,54.7632911 54.81571,55.6291139 L54.81571,64.2873418 Z M66.6344411,55.0518987 C66.7069486,55.2683544 66.7794562,55.4126582 66.7794562,55.7012658 C66.7794562,55.4126582 66.7069486,55.1962025 66.6344411,55.0518987 Z M0.652567976,55.1240506 C0.580060423,55.2683544 0.580060423,55.4126582 0.580060423,55.6291139 C0.50755287,55.4126582 0.580060423,55.2683544 0.652567976,55.1240506 Z" id="Combined-Shape"></path>
                </g>
                <g id="Group" transform="translate(29.728097, 10.101266)" fill="#515E66" fill-rule="nonzero">
                    <path d="M10.8761329,0 L2.17522659,0 C1.30513595,0 0.50755287,0.721518987 0.50755287,1.65949367 L0.50755287,10.3177215 C0.50755287,11.1835443 1.2326284,11.9772152 2.17522659,11.9772152 L10.8761329,11.9772152 C11.7462236,11.9772152 12.5438066,11.2556962 12.5438066,10.3177215 L12.5438066,1.65949367 C12.4712991,0.721518987 11.7462236,0 10.8761329,0 L10.8761329,0 Z" id="Shape"></path>
                    <path d="M65.18429,0 L56.4833837,0 C55.6132931,0 54.81571,0.721518987 54.81571,1.65949367 L54.81571,10.3177215 C54.81571,11.1835443 55.5407855,11.9772152 56.4833837,11.9772152 L65.18429,11.9772152 C66.0543807,11.9772152 66.7794562,11.2556962 66.7794562,10.3177215 L66.7794562,1.65949367 C66.7794562,0.721518987 66.0543807,0 65.18429,0 L65.18429,0 Z" id="Shape"></path>
                    <path d="M10.8761329,54.0417722 L2.17522659,54.0417722 C1.30513595,54.0417722 0.50755287,54.7632911 0.50755287,55.7012658 L0.50755287,64.3594937 C0.50755287,65.2253165 1.2326284,66.0189873 2.17522659,66.0189873 L10.8761329,66.0189873 C11.7462236,66.0189873 12.5438066,65.2974684 12.5438066,64.3594937 L12.5438066,55.7012658 C12.4712991,54.7632911 11.7462236,54.0417722 10.8761329,54.0417722 L10.8761329,54.0417722 Z" id="Shape"></path>
                    <path d="M65.18429,54.0417722 L56.4833837,54.0417722 C55.6132931,54.0417722 54.81571,54.7632911 54.81571,55.7012658 L54.81571,64.3594937 C54.81571,65.2253165 55.5407855,66.0189873 56.4833837,66.0189873 L65.18429,66.0189873 C66.0543807,66.0189873 66.7794562,65.2974684 66.7794562,64.3594937 L66.7794562,55.7012658 C66.7794562,54.7632911 66.0543807,54.0417722 65.18429,54.0417722 L65.18429,54.0417722 Z" id="Shape"></path>
                </g>
            </g>
        </g>
    </g>
</svg>