<?xml version="1.0" encoding="utf-8"?>
<!-- Generator: Adobe Illustrator 23.0.3, SVG Export Plug-In . SVG Version: 6.00 Build 0)  -->
<svg version="1.1" id="Layer_1" xmlns="http://www.w3.org/2000/svg" xmlns:xlink="http://www.w3.org/1999/xlink" x="0px" y="0px"
	 viewBox="0 0 758 322" style="enable-background:new 0 0 758 322;" xml:space="preserve">
<style type="text/css">
	.st0{fill:#FFE008;}
	.st1{fill:#FF9527;}
	.st2{fill:#E02B4A;}
	.st3{clip-path:url(#SVGID_2_);fill:#FF9527;}
	.st4{clip-path:url(#SVGID_2_);fill:#FFE008;}
	.st5{clip-path:url(#SVGID_2_);fill:#E02B4A;}
	.st6{opacity:0.3;fill:url(#SVGID_3_);}
	.st7{opacity:0.3;fill:url(#SVGID_4_);}
	.st8{opacity:0.3;fill:url(#SVGID_5_);}
	.st9{opacity:0.3;fill:url(#SVGID_6_);}
	.st10{opacity:0.3;fill:url(#SVGID_7_);}
	.st11{opacity:0.3;fill:url(#SVGID_8_);}
	.st12{fill:#808284;}
</style>
<g>
	<g>
		<rect x="632.7" y="133.4" class="st0" width="13.4" height="13.4"/>
		<rect x="622.4" y="57.7" class="st1" width="13.4" height="13.4"/>
		<rect x="647.4" y="156" class="st1" width="10" height="10"/>
		<rect x="632.1" y="189.1" class="st2" width="14.7" height="14.7"/>
		<rect x="611.8" y="30.9" class="st0" width="9.8" height="9.8"/>
		<rect x="634.7" y="2.6" class="st2" width="7.9" height="7.9"/>
		<rect x="649.5" y="87.2" class="st2" width="13.4" height="13.4"/>
		<rect x="663.8" y="8.3" class="st0" width="7.8" height="7.8"/>
		<rect x="663.8" y="43.7" class="st0" width="13.4" height="13.4"/>
		<polygon class="st1" points="662.1,44.3 648.9,44.3 648.7,44.3 648.7,44 648.7,30.9 662.1,30.9 		"/>
		<g>
			<defs>
				<polygon id="SVGID_1_" points="666.3,203.7 623.9,203.7 575.6,292.5 714.3,292.5 				"/>
			</defs>
			<clipPath id="SVGID_2_">
				<use xlink:href="#SVGID_1_"  style="overflow:visible;"/>
			</clipPath>
			<rect x="612.3" y="238.8" class="st3" width="17.1" height="17.1"/>
			<rect x="612.3" y="220.4" class="st4" width="17.1" height="17.1"/>
			<rect x="630.9" y="238.8" class="st4" width="17.1" height="17.1"/>
			<rect x="649.5" y="238.8" class="st4" width="17.1" height="17.1"/>
			<rect x="649.5" y="220.4" class="st4" width="17.1" height="17.1"/>
			<rect x="612.3" y="257.2" class="st5" width="17.1" height="17.1"/>
			<rect x="630.9" y="257.2" class="st3" width="17.1" height="17.1"/>
			<rect x="649.5" y="257.2" class="st3" width="17.1" height="17.1"/>
			<rect x="593.8" y="275.6" class="st5" width="17.1" height="17.1"/>
			<rect x="575.2" y="275.6" class="st5" width="17.1" height="17.1"/>
			<rect x="593.8" y="257.2" class="st3" width="17.1" height="17.1"/>
			<rect x="593.8" y="238.9" class="st4" width="17.1" height="17.1"/>
			<rect x="593.8" y="220.6" class="st3" width="17.1" height="17.1"/>
			<rect x="575.2" y="257.2" class="st5" width="17.1" height="17.1"/>
			<rect x="612.3" y="275.6" class="st3" width="17.1" height="17.1"/>
			<rect x="630.9" y="275.6" class="st5" width="17.1" height="17.1"/>
			<rect x="649.5" y="275.6" class="st5" width="17.1" height="17.1"/>
			<rect x="704.9" y="275.6" class="st3" width="17.1" height="17.1"/>
			<rect x="686.5" y="238.8" class="st4" width="17.1" height="17.1"/>
			<rect x="686.5" y="275.6" class="st5" width="17.1" height="17.1"/>
			<rect x="668" y="275.6" class="st3" width="17.1" height="17.1"/>
			<rect x="668" y="257.2" class="st5" width="17.1" height="17.1"/>
			<rect x="668" y="238.8" class="st3" width="17.1" height="17.1"/>
			<rect x="668" y="220.4" class="st5" width="17.1" height="17.1"/>
			<rect x="686.6" y="275.6" class="st5" width="17.1" height="17.1"/>
			<rect x="686.6" y="257.2" class="st3" width="17.1" height="17.1"/>
		</g>
		<polygon class="st2" points="548.6,318.4 739.6,318.4 749.2,302.1 538.9,302.1 		"/>
		<polygon class="st1" points="621.8,179.4 605.5,216.1 605.5,115.3 621.8,115.3 		"/>
		<linearGradient id="SVGID_3_" gradientUnits="userSpaceOnUse" x1="613.6211" y1="189.3547" x2="613.6211" y2="150.9454">
			<stop  offset="0" style="stop-color:#000000"/>
			<stop  offset="1" style="stop-color:#000000;stop-opacity:0"/>
		</linearGradient>
		<polygon class="st6" points="621.8,179.4 605.5,216.1 605.5,115.3 621.8,115.3 		"/>
		<polygon class="st2" points="559.8,302.1 621.8,190.6 621.8,155.7 538.9,302.1 		"/>
		<linearGradient id="SVGID_4_" gradientUnits="userSpaceOnUse" x1="739.0413" y1="310.2354" x2="692.3669" y2="310.2354">
			<stop  offset="0" style="stop-color:#000000"/>
			<stop  offset="1" style="stop-color:#000000;stop-opacity:0"/>
		</linearGradient>
		<polygon class="st7" points="548.6,318.4 739.6,318.4 749.2,302.1 538.9,302.1 		"/>
		<polygon class="st1" points="739.6,318.4 668.4,190.6 668.4,155.7 749.2,302.1 		"/>
		<linearGradient id="SVGID_5_" gradientUnits="userSpaceOnUse" x1="682.4994" y1="200.0866" x2="705.5338" y2="239.6585">
			<stop  offset="0" style="stop-color:#000000"/>
			<stop  offset="1" style="stop-color:#000000;stop-opacity:0"/>
		</linearGradient>
		<polygon class="st8" points="739.6,318.4 668.4,190.6 668.4,155.7 749.2,302.1 		"/>
		<polygon class="st0" points="668.4,190.6 684.8,219.9 684.8,115.3 668.4,115.3 		"/>
		<linearGradient id="SVGID_6_" gradientUnits="userSpaceOnUse" x1="676.5938" y1="116.7076" x2="676.5938" y2="153.9213">
			<stop  offset="0" style="stop-color:#000000"/>
			<stop  offset="1" style="stop-color:#000000;stop-opacity:0"/>
		</linearGradient>
		<polygon class="st9" points="668.4,190.6 684.8,219.9 684.8,115.3 668.4,115.3 		"/>
		<rect x="599.9" y="101.1" class="st0" width="90.3" height="16.3"/>
		<linearGradient id="SVGID_7_" gradientUnits="userSpaceOnUse" x1="549.2006" y1="301.4317" x2="576.96" y2="253.0006">
			<stop  offset="0" style="stop-color:#000000"/>
			<stop  offset="1" style="stop-color:#000000;stop-opacity:0"/>
		</linearGradient>
		<polygon class="st10" points="559.8,302.1 621.8,190.6 621.8,155.7 538.9,302.1 		"/>
		<linearGradient id="SVGID_8_" gradientUnits="userSpaceOnUse" x1="599.9043" y1="109.2947" x2="690.248" y2="109.2947">
			<stop  offset="0" style="stop-color:#000000"/>
			<stop  offset="1" style="stop-color:#000000;stop-opacity:0"/>
		</linearGradient>
		<rect x="599.9" y="101.1" class="st11" width="90.3" height="16.3"/>
	</g>
	<g>
		<path class="st12" d="M139.8,283.8v-113c0-1.4,1.2-2.6,2.6-2.6h16.2v117.4c0,8.6,7,15.6,15.4,15.6h39.7c1.4,0,2.6,1.2,2.6,2.6
			v14.6H174C155.2,318.4,139.8,302.8,139.8,283.8z"/>
		<path class="st12" d="M310.4,246.4V312c0,3.6-2.8,6.4-6.4,6.4h-2.2H293h-35.8c-16.2,0-29.2-13-29.2-29.2V283
			c0-16.2,13-29.2,29.2-29.2H291c1.2,0,2.2-1,2.2-2.2v-5c0-6.4-4.2-11.8-12-11.8h-39.8c-1.2,0-2.2-1-2.2-2.2v-14.2h42
			C297.4,218.4,310.4,228.2,310.4,246.4z M257.2,301.4h34c1.2,0,2-1,2-2.2v-31.8c-1,1.8-3,2.8-5.2,3h-30.8
			c-6.6,0-11.8,5.2-11.8,11.8v7.4C245.4,296.2,250.6,301.4,257.2,301.4z"/>
		<path class="st12" d="M408.9,247.6v41.6c0,16.2-13.2,29.2-29.2,29.2h-47.6c-3.6,0-6.4-2.8-6.4-6.4V168.4h15.2c1.2,0,2.2,1,2.2,2.2
			v54.2c2.4-3.4,7.4-6.4,13.6-6.4h23C395.7,218.4,408.9,231.4,408.9,247.6z M391.5,246.8c0-6.6-5.2-11.8-11.8-11.8h-27
			c-5.2,0.6-9.2,4.8-9.6,10.2v54.6c0,1.2,1,2,2.2,2h34.4c6.6,0,11.8-5.2,11.8-11.8V246.8z"/>
		<path class="st12" d="M422.5,258.2v-13.4c0-16.2,11.2-26.4,27.4-26.4h54.8v14.2c0,1.2-1,2.2-2.2,2.2h-52.6c-6.6,0-10,3.2-10,9.8
			v5.8c0,1,0.8,1.8,1.8,2.2l61.8,14.6c3.2,0.6,5.4,3.4,5.4,6.6v17.8c0,17.4-12.4,26.8-28.6,26.8h-56.6v-14.2c0-1.2,1-2.2,2.2-2.2
			h54.4c6.6,0,12.4-3.8,12.4-10.4v-9.4c0-1-0.8-1.8-1.8-2l-62.8-15.4C424.9,264.2,422.5,261.4,422.5,258.2z"/>
	</g>
	<g>
		<path class="st2" d="M124.9,247.6v70.8h-15.2c-1.2,0-2.2-1-2.2-2.2v-69.6c0-6.4-5.2-11.8-11.8-11.8h-26c2,1.2,3.6,3.2,3.6,5.6v78
			H58.1c-1.2,0-2.2-1-2.2-2.2V237c0-1.2-1-2.2-2.2-2.2H23.5c-1,0-1.8,0.8-2,1.8v79.6c0,1.2-1,2.2-2.2,2.2H4.1v-87
			c0-7.2,5.8-13,13-13h78.6C111.9,218.4,124.9,231.4,124.9,247.6z"/>
	</g>
</g>
</svg>
