<?xml version="1.0" encoding="UTF-8"?>
<svg width="430px" height="119px" viewBox="0 0 430 119" version="1.1" xmlns="http://www.w3.org/2000/svg" xmlns:xlink="http://www.w3.org/1999/xlink">
    <!-- Generator: Sketch 45.2 (43514) - http://www.bohemiancoding.com/sketch -->
    <title>novatec</title>
    <desc>Created with Sketch.</desc>
    <defs>
        <rect id="path-1" x="0" y="0" width="429.170769" height="118.384615"></rect>
        <rect id="path-3" x="0" y="0" width="429.170769" height="118.384615"></rect>
        <rect id="path-5" x="0" y="0" width="429.170769" height="118.384615"></rect>
        <rect id="path-7" x="0" y="0" width="429.170769" height="118.384615"></rect>
        <rect id="path-9" x="0" y="0" width="429.170769" height="118.384615"></rect>
        <rect id="path-11" x="0" y="0" width="429.170769" height="118.384615"></rect>
        <rect id="path-13" x="0" y="0" width="429.170769" height="118.384615"></rect>
        <rect id="path-15" x="0" y="0" width="429.170769" height="118.384615"></rect>
        <rect id="path-17" x="0" y="0" width="429.170769" height="118.384615"></rect>
        <rect id="path-19" x="0" y="0" width="429.170769" height="118.384615"></rect>
        <rect id="path-21" x="0" y="0" width="429.170769" height="118.384615"></rect>
        <rect id="path-23" x="0" y="0" width="429.170769" height="118.384615"></rect>
        <rect id="path-25" x="0" y="0" width="429.170769" height="118.384615"></rect>
        <rect id="path-27" x="0" y="0" width="429.170769" height="118.384615"></rect>
    </defs>
    <g id="Page-1" stroke="none" stroke-width="1" fill="none" fill-rule="evenodd">
        <g id="novatec">
            <g id="Clipped">
                <mask id="mask-2" fill="white">
                    <use xlink:href="#path-1"></use>
                </mask>
                <g id="SVGID_1_"></g>
                <path d="M8.47384615,58.56 C8.84769231,61.6753846 8.84769231,64.7907692 8.84769231,67.9061538 L9.09692308,67.9061538 C12.7107692,61.5507692 20.9353846,57.06 28.6615385,57.06 C43.4907692,57.06 50.5938462,65.4138462 50.5938462,79.8646154 L50.5938462,116.88 L42.3692308,116.88 L42.3692308,84.6 C42.3692308,71.64 38.7553846,64.5369231 26.5430769,64.5369231 C24.7984615,64.5369231 8.84769231,65.6584615 8.84769231,86.9676923 L8.84769231,116.875385 L0.623076923,116.875385 L0.623076923,71.3907692 C0.623076923,68.2753846 0.249230769,62.7923077 0,58.5553846 L8.47384615,58.5553846 L8.47384615,58.56 Z" id="Shape" fill="#000000" fill-rule="nonzero" mask="url(#mask-2)"></path>
            </g>
            <g id="Clipped">
                <mask id="mask-4" fill="white">
                    <use xlink:href="#path-3"></use>
                </mask>
                <g id="SVGID_1_"></g>
                <path d="M97.9476923,118.38 C79.8784615,118.38 67.0430769,105.290769 67.0430769,87.72 C67.0430769,70.1492308 79.8784615,57.0646154 97.9476923,57.0646154 C116.141538,57.0646154 128.976923,70.1492308 128.976923,87.72 C128.976923,105.290769 116.141538,118.38 97.9476923,118.38 M97.9476923,64.5461538 C84.4892308,64.5461538 76.0153846,74.64 76.0153846,87.72 C76.0153846,100.8 84.4892308,110.893846 97.9476923,110.893846 C111.530769,110.893846 120.004615,100.8 120.004615,87.72 C120.004615,74.64 111.530769,64.5461538 97.9476923,64.5461538" id="Shape" fill="#000000" fill-rule="nonzero" mask="url(#mask-4)"></path>
            </g>
            <g id="Clipped">
                <mask id="mask-6" fill="white">
                    <use xlink:href="#path-5"></use>
                </mask>
                <g id="SVGID_1_"></g>
                <polygon id="Shape" fill="#000000" fill-rule="nonzero" mask="url(#mask-6)" points="169.726154 116.884615 160.504615 116.884615 136.827692 58.56 146.672308 58.56 165.24 107.663077 165.489231 107.663077 184.056923 58.56 193.403077 58.56"></polygon>
            </g>
            <g id="Clipped">
                <mask id="mask-8" fill="white">
                    <use xlink:href="#path-7"></use>
                </mask>
                <g id="SVGID_1_"></g>
                <path d="M241.633846,81.12 L241.633846,79.6246154 C241.633846,69.5307692 236.769231,64.5461538 226.68,64.5461538 C219.821538,64.5461538 213.84,66.9092308 208.855385,71.3953846 L203.870769,65.5384615 C209.229231,60.0553846 217.587692,57.0646154 228.549231,57.0646154 C240.009231,57.0646154 249.853846,63.54 249.853846,77.7415385 L249.853846,103.790769 C249.853846,108.281538 250.356923,113.76 250.86,116.88 L242.88,116.88 C242.381538,114.013846 242.127692,110.524615 242.127692,107.404615 L241.883077,107.404615 C237.143077,115.130769 230.663077,118.375385 221.321538,118.375385 C210.973846,118.375385 201.253846,112.643077 201.253846,101.303077 C201.253846,82.3615385 223.56,81.1153846 237.516923,81.1153846 L241.633846,81.1153846 L241.633846,81.12 Z M237.396923,87.8492308 C229.038462,87.8492308 210.226154,88.4723077 210.226154,100.181538 C210.226154,107.912308 217.329231,110.898462 223.938462,110.898462 C235.901538,110.898462 241.633846,102.424615 241.633846,92.0861538 L241.633846,87.8492308 L237.396923,87.8492308 Z" id="Shape" fill="#000000" fill-rule="nonzero" mask="url(#mask-8)"></path>
            </g>
            <g id="Clipped">
                <mask id="mask-10" fill="white">
                    <use xlink:href="#path-9"></use>
                </mask>
                <g id="SVGID_1_"></g>
                <path d="M299.196923,66.0369231 L282.369231,66.0369231 L282.369231,100.430769 C282.369231,109.158462 285.733846,110.898462 290.843077,110.898462 C293.709231,110.898462 296.824615,110.030769 299.316923,108.655385 L299.690769,116.256923 C296.709231,117.632308 292.716923,118.38 288.6,118.38 C282.369231,118.38 274.144615,115.633846 274.144615,102.803077 L274.144615,66.0369231 L261.807692,66.0369231 L261.807692,58.56 L274.144615,58.56 L274.144615,42.1107692 L282.369231,42.1107692 L282.369231,58.56 L299.196923,58.56 L299.196923,66.0369231 Z" id="Shape" fill="#000000" fill-rule="nonzero" mask="url(#mask-10)"></path>
            </g>
            <g id="Clipped">
                <mask id="mask-12" fill="white">
                    <use xlink:href="#path-11"></use>
                </mask>
                <g id="SVGID_1_"></g>
                <path d="M316.264615,89.9676923 C317.261538,101.676923 326.113846,110.898462 337.703077,110.898462 C346.421538,110.898462 353.150769,106.038462 356.390769,100.804615 L362.746154,106.038462 C355.896923,114.766154 347.298462,118.38 337.703077,118.38 C320.381538,118.38 307.541538,105.290769 307.541538,87.72 C307.541538,70.1446154 320.381538,57.0646154 336.955385,57.0646154 C354.646154,57.1892308 364.864615,70.2738462 364.864615,86.2246154 L364.864615,89.9676923 L316.264615,89.9676923 L316.264615,89.9676923 Z M355.892308,83.2384615 C355.892308,72.1476923 348.793846,64.5415385 336.950769,64.5415385 C326.233846,64.5415385 316.513846,73.6430769 316.513846,83.2384615 L355.892308,83.2384615 Z" id="Shape" fill="#000000" fill-rule="nonzero" mask="url(#mask-12)"></path>
            </g>
            <g id="Clipped">
                <mask id="mask-14" fill="white">
                    <use xlink:href="#path-13"></use>
                </mask>
                <g id="SVGID_1_"></g>
                <path d="M422.436923,72.2676923 C419.695385,68.0307692 414.336923,64.5415385 407.866154,64.5415385 C394.278462,64.2923077 385.929231,74.3907692 385.929231,87.72 C385.929231,101.049231 394.278462,111.147692 407.866154,110.893846 C414.336923,110.893846 419.695385,107.404615 422.436923,103.167692 L429.166154,108.276923 C423.443077,115.006154 415.707692,118.246154 407.866154,118.375385 C388.795385,118.62 376.956923,105.286154 376.956923,87.7153846 C376.956923,70.14 388.795385,56.8107692 407.866154,57.06 C415.707692,57.1846154 423.443077,60.4246154 429.166154,67.1538462 L422.436923,72.2676923 Z" id="Shape" fill="#000000" fill-rule="nonzero" mask="url(#mask-14)"></path>
            </g>
            <g id="Clipped">
                <mask id="mask-16" fill="white">
                    <use xlink:href="#path-15"></use>
                </mask>
                <g id="SVGID_1_"></g>
                <path d="M288.544615,24.9230769 C288.909231,29.2615385 292.190769,32.6769231 296.487692,32.6769231 C299.713846,32.6769231 302.206154,30.8769231 303.410769,28.9384615 L305.764615,30.8769231 C303.226154,34.1076923 300.041538,35.4461538 296.487692,35.4461538 C290.063077,35.4461538 285.313846,30.6 285.313846,24.0923077 C285.313846,17.5846154 290.063077,12.7384615 296.201538,12.7384615 C302.755385,12.7846154 306.544615,17.6307692 306.544615,23.5384615 L306.544615,24.9230769 L288.544615,24.9230769 L288.544615,24.9230769 Z M303.221538,22.4307692 C303.221538,18.3230769 300.595385,15.5076923 296.201538,15.5076923 C292.236923,15.5076923 288.641538,18.8769231 288.641538,22.4307692 L303.221538,22.4307692 Z" id="Shape" fill="#000000" fill-rule="nonzero" mask="url(#mask-16)"></path>
            </g>
            <g id="Clipped">
                <mask id="mask-18" fill="white">
                    <use xlink:href="#path-17"></use>
                </mask>
                <g id="SVGID_1_"></g>
                <path d="M333.641538,34.8923077 L330.595385,34.8923077 L330.595385,31.2923077 L330.498462,31.2923077 C328.513846,34.2 324.96,35.4461538 322.107692,35.4461538 C315.36,35.4461538 310.615385,30.6 310.615385,24.0923077 C310.615385,17.5846154 315.36,12.7384615 322.107692,12.7384615 C324.96,12.7384615 328.518462,13.9846154 330.498462,16.8923077 L330.595385,16.8923077 L330.595385,0 L333.641538,0 L333.641538,34.8923077 Z M322.103077,32.6769231 C327.083077,32.6769231 330.724615,28.9384615 330.724615,24.0923077 C330.724615,19.2461538 327.083077,15.5076923 322.103077,15.5076923 C317.063077,15.5076923 313.929231,19.2461538 313.929231,24.0923077 C313.929231,28.9384615 317.063077,32.6769231 322.103077,32.6769231 L322.103077,32.6769231 Z" id="Shape" fill="#000000" fill-rule="nonzero" mask="url(#mask-18)"></path>
            </g>
            <g id="Clipped">
                <mask id="mask-20" fill="white">
                    <use xlink:href="#path-19"></use>
                </mask>
                <g id="SVGID_1_"></g>
                <path d="M342.498462,7.2 C341.390769,7.2 340.283077,6.27692308 340.283077,4.98461538 C340.283077,3.69230769 341.390769,2.76923077 342.498462,2.76923077 C343.606154,2.76923077 344.713846,3.69230769 344.713846,4.98461538 C344.713846,6.27692308 343.606154,7.2 342.498462,7.2 L342.498462,7.2 Z M344.021538,34.8923077 L340.98,34.8923077 L340.98,13.2923077 L344.021538,13.2923077 L344.021538,34.8923077 Z" id="Shape" fill="#000000" fill-rule="nonzero" mask="url(#mask-20)"></path>
            </g>
            <g id="Clipped">
                <mask id="mask-22" fill="white">
                    <use xlink:href="#path-21"></use>
                </mask>
                <g id="SVGID_1_"></g>
                <path d="M362.529231,16.0615385 L356.293846,16.0615385 L356.293846,28.8 C356.293846,32.0307692 357.544615,32.6769231 359.436923,32.6769231 C360.498462,32.6769231 361.652308,32.3538462 362.58,31.8461538 L362.709231,34.6615385 C361.606154,35.1692308 360.124615,35.4461538 358.601538,35.4461538 C356.293846,35.4461538 353.247692,34.4307692 353.247692,29.6769231 L353.247692,16.0615385 L348.683077,16.0615385 L348.683077,13.2923077 L353.247692,13.2923077 L353.247692,7.2 L356.293846,7.2 L356.293846,13.2923077 L362.529231,13.2923077 L362.529231,16.0615385 Z" id="Shape" fill="#000000" fill-rule="nonzero" mask="url(#mask-22)"></path>
            </g>
            <g id="Clipped">
                <mask id="mask-24" fill="white">
                    <use xlink:href="#path-23"></use>
                </mask>
                <g id="SVGID_1_"></g>
                <path d="M377.016923,35.4461538 C370.333846,35.4461538 365.575385,30.6 365.575385,24.0923077 C365.575385,17.5846154 370.329231,12.7384615 377.016923,12.7384615 C383.764615,12.7384615 388.509231,17.5846154 388.509231,24.0923077 C388.509231,30.6 383.76,35.4461538 377.016923,35.4461538 M377.016923,15.5076923 C372.036923,15.5076923 368.893846,19.2461538 368.893846,24.0923077 C368.893846,28.9384615 372.036923,32.6769231 377.016923,32.6769231 C382.052308,32.6769231 385.190769,28.9384615 385.190769,24.0923077 C385.190769,19.2461538 382.047692,15.5076923 377.016923,15.5076923" id="Shape" fill="#000000" fill-rule="nonzero" mask="url(#mask-24)"></path>
            </g>
            <g id="Clipped">
                <mask id="mask-26" fill="white">
                    <use xlink:href="#path-25"></use>
                </mask>
                <g id="SVGID_1_"></g>
                <path d="M394.370769,20.0307692 C394.370769,18.0923077 394.273846,16.4307692 394.190769,13.2923077 L397.181538,13.2923077 L397.181538,17.3076923 L397.278462,17.3076923 C398.146154,15 400.416923,12.7384615 404.201538,12.7384615 C405.069231,12.7384615 405.812308,12.8307692 406.458462,13.0153846 L405.853846,16.0153846 C405.484615,15.8769231 404.94,15.7846154 404.1,15.7846154 C399.484615,15.7846154 397.407692,19.8 397.407692,22.7076923 L397.407692,34.8923077 L394.366154,34.8923077 L394.366154,20.0307692 L394.370769,20.0307692 Z" id="Shape" fill="#000000" fill-rule="nonzero" mask="url(#mask-26)"></path>
            </g>
            <g id="Clipped">
                <mask id="mask-28" fill="white">
                    <use xlink:href="#path-27"></use>
                </mask>
                <g id="SVGID_1_"></g>
                <path d="M423.216923,21.6461538 L423.216923,21.0923077 C423.216923,17.3538462 421.412308,15.5076923 417.683077,15.5076923 C415.14,15.5076923 412.924615,16.3846154 411.078462,18.0461538 L409.236923,15.8769231 C411.216923,13.8461538 414.309231,12.7384615 418.370769,12.7384615 C422.621538,12.7384615 426.263077,15.1384615 426.263077,20.4 L426.263077,30.0461538 C426.263077,31.7076923 426.447692,33.7384615 426.632308,34.8923077 L423.673846,34.8923077 C423.493846,33.8307692 423.401538,32.5384615 423.401538,31.3846154 L423.304615,31.3846154 C421.550769,34.2461538 419.155385,35.4461538 415.693846,35.4461538 C411.863077,35.4461538 408.263077,33.3230769 408.263077,29.1230769 C408.263077,22.1076923 416.529231,21.6461538 421.693846,21.6461538 L423.216923,21.6461538 L423.216923,21.6461538 Z M421.643077,24.1384615 C418.550769,24.1384615 411.581538,24.3692308 411.581538,28.7076923 C411.581538,31.5692308 414.216923,32.6769231 416.663077,32.6769231 C421.093846,32.6769231 423.216923,29.5384615 423.216923,25.7076923 L423.216923,24.1384615 L421.643077,24.1384615 Z" id="Shape" fill="#000000" fill-rule="nonzero" mask="url(#mask-28)"></path>
            </g>
        </g>
    </g>
</svg>