<?xml version="1.0" encoding="UTF-8"?>
<!DOCTYPE svg PUBLIC "-//W3C//DTD SVG 1.1//EN" "http://www.w3.org/Graphics/SVG/1.1/DTD/svg11.dtd">
<svg xmlns="http://www.w3.org/2000/svg" version="1.1" width="4496px" height="2536px" style="shape-rendering:geometricPrecision; text-rendering:geometricPrecision; image-rendering:optimizeQuality; fill-rule:evenodd; clip-rule:evenodd" xmlns:xlink="http://www.w3.org/1999/xlink">
<g><path style="opacity:0.996" fill="#104dff" d="M 1026.5,619.5 C 1156.6,611.465 1268.6,651.965 1362.5,741C 1459.81,843.963 1496.98,965.796 1474,1106.5C 1460.36,1176.42 1431.2,1238.75 1386.5,1293.5C 1427.13,1347.14 1467.8,1400.81 1508.5,1454.5C 1469.83,1484.17 1431.17,1513.83 1392.5,1543.5C 1320.1,1450.76 1248.43,1357.43 1177.5,1263.5C 1249.48,1225.31 1292.98,1165.98 1308,1085.5C 1318.83,1024.3 1311.83,965.303 1287,908.5C 1250.75,836.28 1192.91,791.78 1113.5,775C 1055.48,764.201 999.485,770.534 945.5,794C 874.687,829.164 830.187,885.331 812,962.5C 799.232,1022.78 803.565,1081.78 825,1139.5C 848.688,1194.85 887.188,1236.35 940.5,1264C 912.167,1306.33 883.833,1348.67 855.5,1391C 854.5,1391.67 853.5,1391.67 852.5,1391C 755.448,1337.93 689.614,1258.77 655,1153.5C 637.977,1095.89 632.977,1037.22 640,977.5C 656.654,861.644 711.488,768.811 804.5,699C 871.068,651.975 945.068,625.475 1026.5,619.5 Z"/></g>
<g><path style="opacity:0.996" fill="#104dff" d="M 2471.5,812.5 C 2547.64,809.603 2614.98,832.103 2673.5,880C 2730.07,932.642 2759.91,997.809 2763,1075.5C 2764.09,1109.59 2760.76,1143.26 2753,1176.5C 2614.04,1178.5 2474.88,1179.16 2335.5,1178.5C 2347.75,1226.25 2376.42,1260.09 2421.5,1280C 2492.8,1304.95 2561.47,1298.95 2627.5,1262C 2641.61,1253.55 2655.44,1244.71 2669,1235.5C 2690.91,1270.97 2712.57,1306.64 2734,1342.5C 2735.19,1344.04 2735.52,1345.71 2735,1347.5C 2634.37,1430.1 2520.87,1454.6 2394.5,1421C 2288.9,1387.73 2218.73,1318.57 2184,1213.5C 2159.4,1121.94 2171.4,1035.61 2220,954.5C 2280.25,866.106 2364.09,818.773 2471.5,812.5 Z M 2467.5,944.5 C 2514.08,941.723 2552.58,957.723 2583,992.5C 2597.72,1013.82 2605.55,1037.49 2606.5,1063.5C 2516.17,1063.5 2425.83,1063.5 2335.5,1063.5C 2346.58,1013.93 2374.91,978.1 2420.5,956C 2435.72,949.777 2451.39,945.943 2467.5,944.5 Z"/></g>
<g><path style="opacity:0.996" fill="#104dff" d="M 3524.5,812.5 C 3627.85,810.42 3714.35,847.087 3784,922.5C 3851.78,1005.3 3873.11,1098.97 3848,1203.5C 3816.93,1307.57 3750.43,1378.4 3648.5,1416C 3553.18,1447.07 3461.51,1438.74 3373.5,1391C 3287.21,1339.33 3236.71,1263.5 3222,1163.5C 3209.69,1043.68 3250.85,947.183 3345.5,874C 3399.08,835.862 3458.75,815.362 3524.5,812.5 Z M 3523.5,961.5 C 3581.45,958.565 3627.62,980.232 3662,1026.5C 3694.66,1078.77 3699.99,1133.77 3678,1191.5C 3646.32,1258.1 3593.49,1288.77 3519.5,1283.5C 3463.22,1276.71 3423.05,1247.71 3399,1196.5C 3387.16,1166.94 3382.83,1136.27 3386,1104.5C 3391.43,1047.8 3418.6,1005.3 3467.5,977C 3485.42,968.689 3504.09,963.522 3523.5,961.5 Z"/></g>
<g><path style="opacity:0.996" fill="#104dff" d="M 3142.5,818.5 C 3163.53,817.886 3184.2,820.219 3204.5,825.5C 3204.5,873.5 3204.5,921.5 3204.5,969.5C 3182.15,969.193 3159.81,969.693 3137.5,971C 3093.99,974.501 3058.16,992.668 3030,1025.5C 3014.14,1049.74 3005.48,1076.41 3004,1105.5C 3003.5,1210.83 3003.33,1316.17 3003.5,1421.5C 2949.17,1421.5 2894.83,1421.5 2840.5,1421.5C 2840.5,1222.83 2840.5,1024.17 2840.5,825.5C 2890.5,825.5 2940.5,825.5 2990.5,825.5C 2990.33,848.502 2990.5,871.502 2991,894.5C 3030.35,847.24 3080.85,821.907 3142.5,818.5 Z"/></g>
<g><path style="opacity:0.996" fill="#104dff" d="M 1556.5,825.5 C 1610.5,825.5 1664.5,825.5 1718.5,825.5C 1718.33,946.167 1718.5,1066.83 1719,1187.5C 1726.44,1240.94 1756.61,1273.11 1809.5,1284C 1857.74,1291.11 1896.24,1275.28 1925,1236.5C 1934.34,1221.16 1939.67,1204.49 1941,1186.5C 1941.5,1066.17 1941.67,945.834 1941.5,825.5C 1995.5,825.5 2049.5,825.5 2103.5,825.5C 2103.5,1024.17 2103.5,1222.83 2103.5,1421.5C 2049.5,1421.5 1995.5,1421.5 1941.5,1421.5C 1941.67,1399.16 1941.5,1376.83 1941,1354.5C 1874.67,1434.59 1792.5,1456.43 1694.5,1420C 1629.71,1391.55 1587.21,1343.38 1567,1275.5C 1561.61,1257.2 1558.27,1238.54 1557,1219.5C 1556.5,1088.17 1556.33,956.834 1556.5,825.5 Z"/></g>
<g><path style="opacity:0.993" fill="#fe7f18" d="M 1050.5,1266.5 C 1097.07,1266.34 1128.23,1288.01 1144,1331.5C 1154.03,1375.44 1140.53,1409.94 1103.5,1435C 1067.67,1453.51 1033.34,1451.18 1000.5,1428C 968.6,1399.24 959.433,1364.4 973,1323.5C 988.058,1289.73 1013.89,1270.73 1050.5,1266.5 Z"/></g>
<g><path style="opacity:0.974" fill="#104dff" d="M 3200.5,1598.5 C 3207.34,1599.61 3214.01,1601.45 3220.5,1604C 3219.56,1615.58 3215.22,1625.91 3207.5,1635C 3198.79,1641.53 3189.12,1643.53 3178.5,1641C 3169.03,1638.06 3159.69,1634.73 3150.5,1631C 3145.56,1629.96 3140.89,1630.63 3136.5,1633C 3133.71,1636.08 3131.54,1639.58 3130,1643.5C 3129.28,1644.06 3128.44,1644.39 3127.5,1644.5C 3121.2,1642.62 3114.87,1640.96 3108.5,1639.5C 3110.49,1629.37 3114.32,1620.04 3120,1611.5C 3128.42,1601.92 3138.92,1598.75 3151.5,1602C 3160.97,1604.94 3170.31,1608.27 3179.5,1612C 3185.96,1613.65 3191.46,1612.15 3196,1607.5C 3197.51,1604.47 3199.01,1601.47 3200.5,1598.5 Z"/></g>
<g><path style="opacity:0.98" fill="#104dff" d="M 2134.5,1654.5 C 2170.38,1651.68 2201.04,1662.68 2226.5,1687.5C 2219.81,1695.02 2213.31,1702.69 2207,1710.5C 2205.61,1712.23 2203.94,1713.56 2202,1714.5C 2191.03,1704.59 2178.53,1697.09 2164.5,1692C 2124.92,1683.54 2097.09,1697.7 2081,1734.5C 2070.39,1767.88 2077.55,1796.71 2102.5,1821C 2126.9,1838.02 2152.57,1840.02 2179.5,1827C 2188.21,1821.79 2196.21,1815.62 2203.5,1808.5C 2211.49,1815.99 2219.32,1823.65 2227,1831.5C 2227.67,1832.5 2227.67,1833.5 2227,1834.5C 2190.76,1870.08 2148.59,1879.24 2100.5,1862C 2059.52,1841.96 2038.19,1808.96 2036.5,1763C 2037.47,1722.38 2054.8,1691.05 2088.5,1669C 2103.04,1661.21 2118.37,1656.37 2134.5,1654.5 Z"/></g>
<g><path style="opacity:0.98" fill="#104dff" d="M 2820.5,1654.5 C 2856.38,1651.68 2887.04,1662.68 2912.5,1687.5C 2905.81,1695.02 2899.31,1702.69 2893,1710.5C 2891.61,1712.23 2889.94,1713.56 2888,1714.5C 2877.03,1704.59 2864.53,1697.09 2850.5,1692C 2813.49,1683.6 2786.32,1696.1 2769,1729.5C 2757.57,1758.7 2760.9,1786.03 2779,1811.5C 2804,1837.37 2832.84,1842.53 2865.5,1827C 2874.21,1821.79 2882.21,1815.62 2889.5,1808.5C 2897.49,1815.99 2905.32,1823.65 2913,1831.5C 2913.67,1832.5 2913.67,1833.5 2913,1834.5C 2892.19,1857.15 2866.36,1868.82 2835.5,1869.5C 2829.66,1884.85 2823.33,1900.02 2816.5,1915C 2806.05,1911.62 2795.72,1907.62 2785.5,1903C 2784.55,1902.28 2784.38,1901.45 2785,1900.5C 2792.36,1889.97 2799.53,1879.3 2806.5,1868.5C 2753.39,1853.5 2725.39,1818.33 2722.5,1763C 2723.47,1722.38 2740.8,1691.05 2774.5,1669C 2789.04,1661.21 2804.37,1656.37 2820.5,1654.5 Z"/></g>
<g><path style="opacity:0.983" fill="#104dff" d="M 3508.5,1654.5 C 3554.76,1652.21 3589.93,1670.54 3614,1709.5C 3629.5,1742.06 3630.5,1775.06 3617,1808.5C 3596.14,1848.53 3562.97,1869.2 3517.5,1870.5C 3458.22,1867.71 3422.39,1837.38 3410,1779.5C 3404.44,1731.8 3421.6,1694.97 3461.5,1669C 3476.33,1661 3491.99,1656.17 3508.5,1654.5 Z M 3506.5,1689.5 C 3551.77,1687.6 3578.6,1708.93 3587,1753.5C 3589.87,1785.93 3577.7,1810.76 3550.5,1828C 3513.1,1843.53 3482.6,1835.03 3459,1802.5C 3446.96,1779.59 3445.3,1755.92 3454,1731.5C 3464.47,1708.54 3481.97,1694.54 3506.5,1689.5 Z"/></g>
<g><path style="opacity:0.985" fill="#104dff" d="M 2461.5,1656.5 C 2473.41,1656.18 2485.25,1656.51 2497,1657.5C 2527.47,1727.08 2557.63,1796.75 2587.5,1866.5C 2574.5,1866.67 2561.5,1866.5 2548.5,1866C 2541.21,1849.97 2534.21,1833.81 2527.5,1817.5C 2494.84,1816.5 2462.17,1816.17 2429.5,1816.5C 2422.83,1833.17 2416.17,1849.83 2409.5,1866.5C 2396.48,1866.83 2383.48,1866.5 2370.5,1865.5C 2401.12,1795.93 2431.45,1726.26 2461.5,1656.5 Z M 2477.5,1703.5 C 2478.75,1703.58 2479.58,1704.24 2480,1705.5C 2490.98,1731.43 2502.14,1757.27 2513.5,1783C 2490.5,1783.5 2467.5,1783.67 2444.5,1783.5C 2455.5,1756.83 2466.5,1730.17 2477.5,1703.5 Z"/></g>
<g><path style="opacity:0.985" fill="#104dff" d="M 3147.5,1656.5 C 3159.41,1656.18 3171.25,1656.51 3183,1657.5C 3213.47,1727.08 3243.63,1796.75 3273.5,1866.5C 3260.5,1866.67 3247.5,1866.5 3234.5,1866C 3227.21,1849.97 3220.21,1833.81 3213.5,1817.5C 3180.84,1816.5 3148.17,1816.17 3115.5,1816.5C 3108.83,1833.17 3102.17,1849.83 3095.5,1866.5C 3082.48,1866.83 3069.48,1866.5 3056.5,1865.5C 3087.12,1795.93 3117.45,1726.26 3147.5,1656.5 Z M 3163.5,1703.5 C 3164.75,1703.58 3165.58,1704.24 3166,1705.5C 3176.98,1731.43 3188.14,1757.27 3199.5,1783C 3176.5,1783.5 3153.5,1783.67 3130.5,1783.5C 3141.5,1756.83 3152.5,1730.17 3163.5,1703.5 Z"/></g>
<g><path style="opacity:0.985" fill="#104dff" d="M 1018.5,1658.5 C 1070.17,1658.5 1121.83,1658.5 1173.5,1658.5C 1173.5,1669.5 1173.5,1680.5 1173.5,1691.5C 1134.5,1691.5 1095.5,1691.5 1056.5,1691.5C 1056.5,1709.17 1056.5,1726.83 1056.5,1744.5C 1091.17,1744.5 1125.83,1744.5 1160.5,1744.5C 1160.5,1755.83 1160.5,1767.17 1160.5,1778.5C 1125.83,1778.5 1091.17,1778.5 1056.5,1778.5C 1056.5,1796.83 1056.5,1815.17 1056.5,1833.5C 1096.17,1833.5 1135.83,1833.5 1175.5,1833.5C 1175.5,1844.5 1175.5,1855.5 1175.5,1866.5C 1123.17,1866.5 1070.83,1866.5 1018.5,1866.5C 1018.5,1797.17 1018.5,1727.83 1018.5,1658.5 Z"/></g>
<g><path style="opacity:0.982" fill="#104dff" d="M 1342.5,1658.5 C 1373.5,1658.33 1404.5,1658.5 1435.5,1659C 1484.51,1664.69 1515.68,1691.19 1529,1738.5C 1536.78,1778.15 1526.28,1811.99 1497.5,1840C 1479.2,1854.97 1458.2,1863.64 1434.5,1866C 1403.84,1866.5 1373.17,1866.67 1342.5,1866.5C 1342.5,1797.17 1342.5,1727.83 1342.5,1658.5 Z M 1380.5,1692.5 C 1397.17,1692.33 1413.84,1692.5 1430.5,1693C 1469.28,1699.95 1489.94,1723.11 1492.5,1762.5C 1490.41,1802.88 1469.41,1826.04 1429.5,1832C 1413.17,1832.5 1396.84,1832.67 1380.5,1832.5C 1380.5,1785.83 1380.5,1739.17 1380.5,1692.5 Z"/></g>
<g><path style="opacity:0.978" fill="#104dff" d="M 1694.5,1658.5 C 1707.17,1658.5 1719.83,1658.5 1732.5,1658.5C 1732.33,1702.5 1732.5,1746.5 1733,1790.5C 1737.54,1819.71 1754.54,1834.71 1784,1835.5C 1813.96,1834.54 1830.96,1819.2 1835,1789.5C 1835.5,1745.83 1835.67,1702.17 1835.5,1658.5C 1848.17,1658.5 1860.83,1658.5 1873.5,1658.5C 1873.67,1700.17 1873.5,1741.83 1873,1783.5C 1869.73,1839.94 1839.89,1868.61 1783.5,1869.5C 1729.78,1869.61 1700.28,1842.94 1695,1789.5C 1694.5,1745.83 1694.33,1702.17 1694.5,1658.5 Z"/></g>
</svg>
