<?xml version="1.0" encoding="utf-8"?>
<!-- Generator: Adobe Illustrator 24.1.1, SVG Export Plug-In . SVG Version: 6.00 Build 0)  -->
<svg version="1.1" id="Layer_1" xmlns="http://www.w3.org/2000/svg" xmlns:xlink="http://www.w3.org/1999/xlink" x="0px" y="0px"
	 viewBox="0 0 376.52 113" style="enable-background:new 0 0 376.52 113;" xml:space="preserve">
<style type="text/css">
	.st0{display:none;}
	.st1{display:inline;}
	.st2{fill:url(#SVGID_1_);}
	.st3{display:inline;fill:url(#SVGID_2_);}
	.st4{fill:#34313F;}
	.st5{fill:url(#SVGID_3_);}
	.st6{fill:url(#SVGID_4_);}
</style>
<g class="st0">
	<g class="st1">
		<g>
			
				<linearGradient id="SVGID_1_" gradientUnits="userSpaceOnUse" x1="0" y1="59.38" x2="113" y2="59.38" gradientTransform="matrix(1 0 0 -1 0 115.88)">
				<stop  offset="4.401574e-07" style="stop-color:#EB2368"/>
				<stop  offset="1" style="stop-color:#552E8B"/>
			</linearGradient>
			<path class="st2" d="M56.5,113C25.35,113,0,87.65,0,56.5S25.34,0,56.5,0C87.65,0,113,25.35,113,56.5S87.66,113,56.5,113z
				 M56.5,3.6C27.33,3.6,3.6,27.33,3.6,56.5s23.73,52.9,52.9,52.9s52.9-23.73,52.9-52.9S85.67,3.6,56.5,3.6z"/>
		</g>
	</g>
	
		<linearGradient id="SVGID_2_" gradientUnits="userSpaceOnUse" x1="31.3164" y1="41.5401" x2="82.0058" y2="92.2295" gradientTransform="matrix(1 0 0 -1 0 115.88)">
		<stop  offset="4.401574e-07" style="stop-color:#EB2368"/>
		<stop  offset="1" style="stop-color:#552E8B"/>
	</linearGradient>
	<path class="st3" d="M57.15,93.28c-1.46,0-3.1-0.15-4.86-0.57c-3.75-0.89-6.96-3.56-8.57-7.13L22.31,38.31
		c-0.76-1.69-0.78-3.63-0.05-5.33c0.74-1.72,2.19-3.07,3.98-3.68c4.84-1.67,10.17-1.3,13.54-0.4c3.25,0.87,6.23,3.51,7.6,6.73
		c3.49,8.22,9.34,23.19,13.61,34.12c1.13,2.88,2.15,5.5,3,7.67c0.41,1.05,1.33,1.69,2.46,1.72c1.17,0.02,2.1-0.57,2.57-1.61
		L87.3,37.16c0.47-1.03,0.49-2.01,0.08-2.83c-0.47-0.93-1.47-1.62-2.76-1.9c-2.81-0.6-5.7-0.76-8.61-0.45
		c-3.22,0.34-5.92,2.3-7.05,5.13l-7.12,17.92c-0.37,0.92-1.41,1.38-2.34,1.01c-0.92-0.37-1.38-1.41-1.01-2.34l7.12-17.92
		c1.62-4.08,5.46-6.91,10.02-7.39c3.29-0.34,6.56-0.17,9.74,0.51c2.36,0.51,4.26,1.89,5.22,3.8c0.91,1.8,0.9,3.91-0.01,5.94
		L72.3,79.01c-1.07,2.36-3.36,3.79-5.95,3.73c-2.59-0.07-4.78-1.6-5.73-4.01c-0.85-2.17-1.88-4.79-3-7.68
		c-4.26-10.91-10.1-25.86-13.57-34.02c-0.75-1.77-2.71-3.99-5.21-4.66c-0.99-0.26-6.17-1.49-11.44,0.33
		c-0.84,0.29-1.5,0.89-1.84,1.7c-0.34,0.78-0.33,1.64,0.02,2.42l21.41,47.27c1.16,2.56,3.45,4.47,6.12,5.11
		c3.14,0.75,5.82,0.47,7.51,0.11c0.67-0.14,2.94-0.74,4.03-2.45c0.54-0.84,1.65-1.08,2.49-0.54c0.84,0.54,1.08,1.65,0.54,2.49
		c-1.8,2.8-5.01,3.75-6.31,4.03C60.29,93.07,58.84,93.28,57.15,93.28z"/>
</g>
<g>
	<g>
		<g>
			<path class="st4" d="M134.74,36.27c1,0,1.46,0.31,1.7,1.31c2.47,9.86,5.32,19.58,8.79,29.67h0.54
				c3.47-10.1,6.32-19.96,8.71-29.67c0.23-1,0.69-1.31,1.7-1.31h4.24c0.85,0,1.16,0.23,1.16,0.85c0,0.62-0.31,1.7-0.46,2.31
				c-2.7,10.48-6.4,22.5-10.25,32.14c-0.77,1.93-1.54,2.47-3.31,2.47h-4.16c-1.77,0-2.54-0.54-3.31-2.47
				c-3.85-9.63-7.55-21.66-10.25-32.14c-0.15-0.62-0.46-1.7-0.46-2.31c0-0.62,0.31-0.85,1.16-0.85
				C130.54,36.27,134.74,36.27,134.74,36.27z"/>
			<path class="st4" d="M192.54,56.54c0,1.46-0.62,2.23-2.16,2.23H170.5c0.23,7.32,1.85,10.1,9.4,10.1c2.7,0,6.01-0.62,8.17-1.46
				c0.46-0.15,0.92-0.31,1.23-0.31c0.39,0,0.69,0.15,0.92,0.85l0.54,1.85c0.23,0.77,0.39,1.31,0.39,1.62c0,0.54-0.31,0.85-0.92,1.16
				c-2.7,1.23-7.01,2.16-11.18,2.16c-12.02,0-15.8-5.32-15.8-18.27v-2.62c0-12.1,3.85-18.27,15.11-18.27
				c9.17,0,14.18,4.47,14.18,15.41L192.54,56.54L192.54,56.54z M184.68,52.99c0.77,0,1-0.23,1-1.08c0-7.32-1.54-10.48-7.48-10.48
				c-6.4,0-7.78,3.7-7.78,11.56H184.68z"/>
			<path class="st4" d="M198.09,37.42c0-0.93,0.39-1.16,1.23-1.16h2.7c0.92,0,1.31,0.23,1.46,1.16l0.38,2.47h0.15
				c2.16-2.62,5.7-4.32,10.94-4.32c8.79,0,13.33,4.08,13.33,15.18v21.89c0,1.08-0.39,1.39-1.54,1.39h-4.01
				c-1.08,0-1.54-0.31-1.54-1.39v-22.2c0-6.47-2.24-9.09-8.09-9.09c-5.09,0-7.94,1.93-7.94,8.02v23.27c0,1.08-0.38,1.39-1.54,1.39
				h-4.01c-1.08,0-1.54-0.31-1.54-1.39V37.42H198.09z"/>
			<path class="st4" d="M248.35,74.03c-4.86,0-7.63-1-9.25-2.77c-1.7-1.93-2.31-4.62-2.31-9.4v-19.5h-4.62
				c-0.85,0-1.16-0.23-1.16-1.16v-2.47c0-1,0.23-1.16,1-1.31l4.78-0.93v-8.4c0-1.08,0.46-1.46,1.54-1.46h4.08
				c1.08,0,1.46,0.39,1.46,1.46v8.17h8.32c0.92,0,1.23,0.39,1.23,1.39v3.31c0,0.92-0.31,1.39-1.23,1.39h-8.32v18.96
				c0,3.01,0.15,4.08,0.92,5.24c0.85,1.23,2,1.46,4.86,1.46h3.31c1,0,1.39,0.23,1.39,1.46v3.16c0,1-0.23,1.39-1.39,1.39
				L248.35,74.03L248.35,74.03z"/>
			<path class="st4" d="M280.33,37.65c0-1.08,0.46-1.39,1.54-1.39h4.01c1.16,0,1.54,0.31,1.54,1.46v24.97c0,4.47-1.31,7.48-3.93,9.4
				c-2.39,1.85-5.47,2.62-10.71,2.62s-8.32-0.77-10.79-2.62c-2.62-1.93-3.93-4.93-3.93-9.4V37.64c0-1.08,0.46-1.39,1.54-1.39h4.01
				c1.16,0,1.54,0.31,1.54,1.39v23.89c0,2.85,0.46,4.62,1.77,5.7s3.24,1.54,5.86,1.54c2.7,0,4.62-0.54,5.93-1.7
				c1.23-1.08,1.62-2.7,1.62-5.55L280.33,37.65L280.33,37.65z"/>
			<path class="st4" d="M299.99,41.2h0.15c2-3.39,4.55-4.93,9.56-4.93h1.54c1.23,0,1.62,0.31,1.62,1.39v3.39
				c0,0.92-0.39,1.31-1.62,1.31h-1.7c-3.7,0-5.32,0.69-6.55,2.16c-1.23,1.46-1.7,3.47-1.7,6.7v21.43c0,1.08-0.38,1.39-1.54,1.39
				h-4.01c-1.08,0-1.54-0.31-1.54-1.39V37.43c0-0.93,0.39-1.16,1.23-1.16h2.7c0.92,0,1.39,0.23,1.46,1.16L299.99,41.2z"/>
			<path class="st4" d="M338.37,37.65c0-1.08,0.46-1.39,1.54-1.39h4.01c1.16,0,1.54,0.31,1.54,1.46v24.97c0,4.47-1.31,7.48-3.93,9.4
				c-2.39,1.85-5.47,2.62-10.71,2.62s-8.32-0.77-10.79-2.62c-2.62-1.93-3.93-4.93-3.93-9.4V37.64c0-1.08,0.46-1.39,1.54-1.39h4.01
				c1.16,0,1.54,0.31,1.54,1.39v23.89c0,2.85,0.46,4.62,1.77,5.7s3.24,1.54,5.86,1.54c2.7,0,4.62-0.54,5.93-1.7
				c1.23-1.08,1.62-2.7,1.62-5.55L338.37,37.65L338.37,37.65z"/>
			<path class="st4" d="M351.47,72.8c-0.69-0.23-1.08-0.46-1.08-1.08c0-0.46,0.15-1.08,0.46-2.31l0.39-1.39
				c0.23-0.85,0.54-1.08,1-1.08c0.62,0,1.16,0.38,2.77,0.85c2.23,0.69,5.01,1.08,7.86,1.08c4.93,0,7.01-1.7,7.01-5.32v-0.39
				c0-3.55-1.7-4.62-5.47-5.4l-3.62-0.77c-7.86-1.7-9.79-4.01-9.79-10.4v-0.54c0-7.17,4.16-10.48,12.95-10.48
				c3.85,0,7.24,0.54,9.79,1.31c0.77,0.23,0.92,0.54,0.92,1c0,0.39-0.23,1.16-0.46,2.23l-0.39,1.46c-0.23,0.85-0.38,1.08-0.92,1.08
				c-0.39,0-1-0.15-1.54-0.31c-1.7-0.46-4.62-0.85-6.94-0.85c-5.24,0-6.78,1.31-6.78,4.55v0.39c0,2.7,1.31,3.78,5.78,4.78l3.55,0.77
				c6.86,1.46,9.56,4.16,9.56,10.87v0.62c0,7.32-4.7,11.25-13.8,11.25C359.1,74.72,354.63,73.95,351.47,72.8z"/>
		</g>
	</g>
	<g>
		<g>
			<g>
				
					<linearGradient id="SVGID_3_" gradientUnits="userSpaceOnUse" x1="0" y1="59.38" x2="113" y2="59.38" gradientTransform="matrix(1 0 0 -1 0 115.88)">
					<stop  offset="4.401574e-07" style="stop-color:#EB2368"/>
					<stop  offset="1" style="stop-color:#552E8B"/>
				</linearGradient>
				<path class="st5" d="M56.5,113C25.35,113,0,87.65,0,56.5S25.35,0,56.5,0S113,25.35,113,56.5S87.66,113,56.5,113z M56.5,4.98
					C28.09,4.98,4.98,28.09,4.98,56.5s23.11,51.52,51.52,51.52s51.52-23.11,51.52-51.52S84.91,4.98,56.5,4.98z"/>
			</g>
		</g>
		
			<linearGradient id="SVGID_4_" gradientUnits="userSpaceOnUse" x1="30.8786" y1="40.9267" x2="82.46" y2="92.5081" gradientTransform="matrix(1 0 0 -1 0 115.88)">
			<stop  offset="4.401574e-07" style="stop-color:#ED2067"/>
			<stop  offset="1" style="stop-color:#542E8C"/>
		</linearGradient>
		<path class="st6" d="M91.17,32.59c-1.05-2.08-3.11-3.59-5.66-4.14c-2.15-0.46-4.37-0.7-6.6-0.7c-1.11,0-2.23,0.06-3.35,0.17
			c-4.8,0.5-8.85,3.49-10.55,7.79l-7.12,17.91c-0.5,1.26,0.12,2.69,1.37,3.19c0.29,0.12,0.6,0.17,0.91,0.17
			c1.01,0,1.91-0.61,2.28-1.55l7.12-17.91c1.03-2.6,3.52-4.41,6.5-4.72c0.94-0.1,1.9-0.15,2.83-0.15c1.88,0,3.75,0.2,5.57,0.59
			c1.09,0.23,1.93,0.8,2.31,1.55c0.41,0.81,0.17,1.68-0.09,2.26L68.42,77.4c-0.36,0.79-1.03,1.23-1.9,1.23h-0.06
			c-0.87-0.02-1.55-0.5-1.87-1.31c-0.85-2.17-1.87-4.78-3-7.66l-0.01-0.03c-4.26-10.92-10.11-25.87-13.59-34.09
			c-1.44-3.4-4.59-6.18-8.03-7.1c-1.89-0.51-4.14-0.79-6.33-0.79c-2.72,0-5.27,0.4-7.58,1.2c-1.96,0.68-3.55,2.15-4.36,4.04
			c-0.81,1.87-0.78,4.01,0.05,5.86l21.39,47.24c1.7,3.75,5.07,6.55,9.01,7.49c1.64,0.39,3.32,0.59,5,0.59
			c1.49,0,2.96-0.15,4.38-0.46c1.38-0.29,4.8-1.3,6.72-4.31c0.73-1.14,0.4-2.66-0.74-3.39c-0.4-0.25-0.85-0.39-1.32-0.39
			c-0.84,0-1.61,0.42-2.07,1.13c-0.96,1.49-3.01,2.03-3.62,2.16c-1.08,0.23-2.21,0.35-3.35,0.35c-1.3,0-2.6-0.15-3.87-0.46
			c-2.48-0.59-4.6-2.36-5.68-4.74L26.2,36.72c-0.28-0.61-0.28-1.28-0.02-1.89c0.27-0.63,0.79-1.11,1.45-1.34
			c1.81-0.62,3.8-0.94,5.91-0.94c2.59,0,4.59,0.48,5.14,0.62c2.29,0.61,4.08,2.65,4.77,4.28c3.47,8.18,9.3,23.09,13.55,33.99
			l0.37,0.94c0.98,2.51,1.88,4.8,2.64,6.74c1.04,2.65,3.46,4.35,6.32,4.42c0.06,0,0.13,0,0.19,0c2.78,0,5.22-1.57,6.37-4.11
			l18.27-40.35C92.16,36.87,92.17,34.57,91.17,32.59z"/>
	</g>
</g>
</svg>
