<svg width="1318" height="296" viewBox="0 0 1318 296" fill="none" xmlns="http://www.w3.org/2000/svg">
<g clip-path="url(#clip0)">
<path fill-rule="evenodd" clip-rule="evenodd" d="M241.747 46.7003C243.609 84.0944 84.9555 300.068 64.4407 287.406C42.4088 273.845 33.5823 240.79 40.9779 226.992L130.847 97.2315L74.2499 105.707C33.3926 106.809 3.56855 103.91 0 54.4639C64.2166 43.1575 128.312 31.5121 192.495 20.0701C212.561 16.4765 240.385 19.3751 241.747 46.6325V46.7003Z" fill="#0095DA"/>
<path fill-rule="evenodd" clip-rule="evenodd" d="M252.088 103.063L267.086 183.428C271.758 221.839 265.087 249.096 219.368 255.877C207.645 250.91 198.456 198.243 199.577 180.495C212.731 163.256 242.813 124.557 252.088 103.063V103.063Z" fill="#8ED8F8"/>
<path fill-rule="evenodd" clip-rule="evenodd" d="M459.842 54.5825H323.651V85.281H405.814L323.582 225.144H459.773V194.446H377.679L459.842 54.5825V54.5825ZM621.599 54.5825V74.3475C608.934 63.9738 593.525 57.3635 577.177 55.291C560.829 53.2186 544.219 55.7697 529.292 62.6456C514.366 69.5216 501.741 80.4375 492.897 94.1148C484.053 107.792 479.356 123.664 479.356 139.872C479.356 156.08 484.053 171.952 492.897 185.629C501.741 199.306 514.366 210.222 529.292 217.098C544.219 223.974 560.829 226.525 577.177 224.453C593.525 222.38 608.934 215.77 621.599 205.396V225.144H652.819V54.5825H621.599ZM566.088 194.446C555.109 194.446 544.377 191.245 535.248 185.247C526.119 179.25 519.004 170.725 514.803 160.751C510.601 150.778 509.502 139.803 511.644 129.215C513.786 118.627 519.073 108.901 526.836 101.268C534.599 93.6343 544.49 88.4358 555.258 86.3297C566.026 84.2237 577.188 85.3046 587.331 89.4358C597.474 93.567 606.144 100.563 612.243 109.539C618.343 118.515 621.599 129.068 621.599 139.863C621.599 154.34 615.75 168.223 605.34 178.459C594.93 188.695 580.81 194.446 566.088 194.446V194.446ZM680.316 54.5825V296H711.347L711.467 205.396C724.134 215.776 739.546 222.392 755.898 224.468C772.251 226.544 788.867 223.994 803.799 217.118C818.731 210.242 831.36 199.323 840.208 185.642C849.056 171.962 853.755 156.085 853.755 139.872C853.755 123.659 849.056 107.782 840.208 94.1014C831.36 80.4205 818.731 69.5023 803.799 62.626C788.867 55.7497 772.251 53.2002 755.898 55.2762C739.546 57.3522 724.134 63.9676 711.467 74.3475V54.5825H680.316ZM711.536 139.863C711.536 129.068 714.792 118.515 720.892 109.539C726.991 100.563 735.661 93.567 745.804 89.4358C755.947 85.3046 767.109 84.2237 777.877 86.3297C788.645 88.4358 798.536 93.6343 806.299 101.268C814.062 108.901 819.349 118.627 821.491 129.215C823.633 139.803 822.534 150.778 818.332 160.751C814.131 170.725 807.016 179.25 797.887 185.247C788.759 191.245 778.026 194.446 767.047 194.446C752.325 194.446 738.205 188.695 727.795 178.459C717.385 168.223 711.536 154.34 711.536 139.863V139.863ZM883.568 54.5825V296H914.599V205.396C927.265 215.776 942.677 222.392 959.03 224.468C975.382 226.544 991.998 223.994 1006.93 217.118C1021.86 210.242 1034.49 199.323 1043.34 185.642C1052.19 171.962 1056.89 156.085 1056.89 139.872C1056.89 123.659 1052.19 107.782 1043.34 94.1014C1034.49 80.4205 1021.86 69.5023 1006.93 62.626C991.998 55.7497 975.382 53.2002 959.03 55.2762C942.677 57.3522 927.265 63.9676 914.599 74.3475V54.5825H883.568ZM914.788 139.863C914.788 129.068 918.044 118.515 924.144 109.539C930.243 100.563 938.913 93.567 949.056 89.4358C959.199 85.3046 970.361 84.2237 981.129 86.3297C991.897 88.4358 1001.79 93.6343 1009.55 101.268C1017.31 108.901 1022.6 118.627 1024.74 129.215C1026.88 139.803 1025.79 150.778 1021.58 160.751C1017.38 170.725 1010.27 179.25 1001.14 185.247C992.01 191.245 981.278 194.446 970.299 194.446C955.577 194.446 941.457 188.695 931.047 178.459C920.637 168.223 914.788 154.34 914.788 139.863V139.863ZM1107.77 85.281H1167.1V54.5825H1107.77V0H1076.55V225.144H1107.77V85.281ZM1171.98 193.039L1172.21 223.398L1270.85 222.754C1322.76 217.296 1335.15 146.254 1291.12 130.083C1285.49 124.862 1219.42 122.014 1211.82 118.064C1197.89 109.979 1203.31 82.9078 1230.46 83.0434L1307.41 83.7384V53.2264L1226.01 52.7348C1169.34 55.1249 1156.02 126.421 1196.2 145.288C1203.1 148.373 1272.49 153.628 1275.16 155.814C1296.43 164.612 1288.28 191.92 1261.71 193.107L1171.98 193.039Z" fill="#0095DA"/>
</g>
<defs>
<clipPath id="clip0">
<rect width="1318" height="296" fill="white"/>
</clipPath>
</defs>
</svg>
