<?xml version="1.0" encoding="iso-8859-1"?>
<!-- Generator: Adobe Illustrator 16.0.0, SVG Export Plug-In . SVG Version: 6.00 Build 0)  -->
<!DOCTYPE svg PUBLIC "-//W3C//DTD SVG 1.1//EN" "http://www.w3.org/Graphics/SVG/1.1/DTD/svg11.dtd">
<svg version="1.1" id="Layer_1" xmlns="http://www.w3.org/2000/svg" xmlns:xlink="http://www.w3.org/1999/xlink" x="0px" y="0px"
	 width="150px" height="130px" viewBox="0 0 150 130" style="enable-background:new 0 0 150 130;" xml:space="preserve">
<g>
	<path style="fill:#1871B4;" d="M19.081,100.601c-0.901,1.512-1.883,2.635-2.945,3.37c-1.262,0.838-2.794,1.256-4.597,1.256
		c-2.384,0-4.408-0.97-6.07-2.91c-1.903-2.247-2.854-5.331-2.854-9.253c0-4.085,0.972-7.24,2.915-9.467
		c1.623-1.838,3.586-2.757,5.89-2.757c3.286,0,5.79,1.501,7.513,4.503l-2.194,1.104c-1.062-2.206-2.745-3.31-5.048-3.31
		c-2.144,0-3.776,0.98-4.898,2.941c-0.981,1.757-1.472,4.086-1.472,6.985c0,2.9,0.571,5.26,1.712,7.077
		c1.182,1.88,2.774,2.818,4.778,2.818c2.204,0,3.967-1.153,5.289-3.462L19.081,100.601z"/>
	<path style="fill:#1871B4;" d="M35.367,99.222c0,2.043-0.822,3.595-2.464,4.657c-1.382,0.898-3.055,1.348-5.019,1.348
		c-2.644,0-5.108-0.786-7.392-2.359l1.292-1.991c0.741,0.572,1.652,1.053,2.734,1.44c1.202,0.429,2.344,0.643,3.426,0.643
		c1.302,0,2.354-0.245,3.155-0.735c1.042-0.633,1.562-1.623,1.562-2.972c0-1.226-0.671-2.379-2.013-3.462
		c-0.621-0.49-1.833-1.226-3.636-2.206c-4.147-2.246-6.22-4.585-6.22-7.016c0-1.776,0.761-3.196,2.284-4.259
		c1.402-0.98,3.155-1.47,5.259-1.47c2.143,0,4.287,0.674,6.43,2.021l-1.052,2.083c-1.823-1.184-3.586-1.776-5.289-1.776
		c-1.242,0-2.313,0.245-3.215,0.735c-1.122,0.593-1.683,1.46-1.683,2.604c0,1.042,0.621,2.043,1.863,3.003
		c0.46,0.348,1.677,1.077,3.651,2.19c1.973,1.113,3.39,2.089,4.252,2.926C34.676,95.995,35.367,97.526,35.367,99.222z"/>
	<path style="fill:#1871B4;" d="M51.864,99.222c0,2.043-0.822,3.595-2.464,4.657c-1.382,0.898-3.055,1.348-5.019,1.348
		c-2.644,0-5.108-0.786-7.392-2.359l1.292-1.991c0.741,0.572,1.652,1.053,2.734,1.44c1.202,0.429,2.344,0.643,3.426,0.643
		c1.302,0,2.354-0.245,3.155-0.735c1.042-0.633,1.562-1.623,1.562-2.972c0-1.226-0.671-2.379-2.013-3.462
		c-0.621-0.49-1.833-1.226-3.636-2.206c-4.147-2.246-6.22-4.585-6.22-7.016c0-1.776,0.761-3.196,2.284-4.259
		c1.402-0.98,3.155-1.47,5.259-1.47c2.143,0,4.287,0.674,6.43,2.021l-1.052,2.083c-1.823-1.184-3.586-1.776-5.289-1.776
		c-1.242,0-2.313,0.245-3.215,0.735c-1.122,0.593-1.683,1.46-1.683,2.604c0,1.042,0.621,2.043,1.863,3.003
		c0.46,0.348,1.677,1.077,3.651,2.19c1.973,1.113,3.39,2.089,4.252,2.926C51.173,95.995,51.864,97.526,51.864,99.222z"/>
</g>
<g>
	<path style="fill:#555458;" d="M68.482,104.981h-2.794v7.107h-2.554l0.03-7.107h-9.165v-1.532l7.723-15.686h2.645l-7.182,14.981
		h5.979v-7.261h2.524v7.261h2.794V104.981z"/>
</g>
<g>
	<path style="fill:#1871B4;" d="M87.954,104.981h-2.585V93.86H74.762v11.121h-2.614V81.084h2.614v10.447h10.607V81.084h2.585
		V104.981z"/>
	<path style="fill:#1871B4;" d="M107.305,83.29h-6.852v21.691h-2.584V83.29h-6.881v-2.206h16.316V83.29z"/>
</g>
<g>
	<path style="fill:#1871B4;" d="M128.82,104.981h-2.285v-21.17h-0.18l-6.281,21.323h-1.803l-6.279-21.538h-0.18v21.385h-2.285
		V81.084h3.787l5.77,20.252h0.18l5.799-20.252h3.758V104.981z"/>
	<path style="fill:#1871B4;" d="M144.836,104.981h-12.68l-0.031-23.897h2.615v21.691h10.096V104.981z"/>
</g>
<path style="fill:#747578;" d="M122.721,8.408c-0.363,2.642-0.693,5.288-1.1,7.923c-0.225,1.47-0.57,1.63-1.51,0.609
	c-0.979-1.062-1.531-0.789-2.367,0.183C110.475,25.583,103.158,34,95.857,42.43c-1.691,1.952-3.377,3.909-5.066,5.864
	c-0.119-0.094-0.236-0.188-0.354-0.283c0.967-1.312,1.924-2.631,2.898-3.936c7.305-9.759,14.604-19.523,21.934-29.262
	c0.707-0.941,0.713-1.581-0.264-2.27c-0.465-0.329-1.248-0.627-1.068-1.328c0.166-0.661,0.996-0.553,1.545-0.754
	c2.086-0.762,4.297-1.121,6.328-2.053H122.721z"/>
<path style="fill:#747578;" d="M113.426,50.377c-0.021,14.021-13.436,24.007-26.582,19.721c-1.402-0.458-2.34-0.413-3.496,0.651
	c-2.391,2.203-6.866,2.563-9.684,1.035c-0.347-0.188-0.824-0.33-0.709-0.854c0.089-0.408,0.516-0.455,0.862-0.496
	c4.145-0.489,7.059-2.849,9.164-6.353c0.676-1.125,1.27-0.727,2.088-0.247c8.881,5.202,20.057,0.903,22.795-8.886
	c1.605-5.738,0.521-11.025-3.594-15.43c-0.971-1.039-0.938-1.664-0.002-2.647c2.174-2.285,2.18-2.366,4.27,0.082
	C111.812,40.793,113.385,45.305,113.426,50.377"/>
<path style="fill:#747578;" d="M61.203,54.082c0.594-0.859,1.043-1.505,1.488-2.154c3.754-5.482,7.462-10.997,11.292-16.423
	c0.902-1.278,0.193-1.77-0.575-2.472c-1.246-1.139-1.21-1.316,0.361-1.811c2.024-0.637,4.067-1.22,6.089-1.867
	c1.137-0.363,1.486,0.02,1.311,1.176c-0.326,2.132-0.576,4.276-0.906,6.408c-0.221,1.435-0.514,1.573-1.531,0.601
	c-0.919-0.878-1.453-0.771-2.293,0.185c-4.476,5.092-9.031,10.113-13.571,15.147C62.479,53.302,62.172,53.87,61.203,54.082"/>
<g>
	<defs>
		<path id="SVGID_1_" d="M102.422,16.121c-2.545,1.275-5.34,1.818-7.971,2.844c-0.824,0.322-2.137,0.22-2.344,1.111
			c-0.217,0.934,1.002,1.404,1.678,1.969c0.771,0.645,1.004,1.226,0.205,2.003c-0.289,0.281-0.506,0.64-0.762,0.957
			c-9.652,11.933-19.282,23.884-28.971,35.786c-3.499,4.298-8.164,6.027-13.497,5.188c-11.434-1.8-15.453-12.833-13.159-20.295
			c2.08-6.766,8.283-12.05,15.186-11.683c3.023,0.16,4.441-0.497,5.921-3.095c5.207-9.143,17.147-10.666,24.735-3.407
			c0.777,0.744,1.074,2.386,2.273,2.167c1.072-0.197,1.576-1.636,2.391-2.472c0.105-0.11,0.197-0.233,0.301-0.346
			c0.459-0.513,0.389-0.992-0.039-1.501c-1.582-1.885-3.301-3.618-5.451-4.826c-8.912-5.011-21.284-3.689-28.206,6.817
			c-0.841,1.275-1.719,1.776-3.199,1.718c-3.64-0.141-6.987,0.953-9.993,3.012c-4.843,3.318-8.074,7.82-9.38,13.671
			c-0.585,3.298-0.533,6.405,0,8.64c0.095,0.29,0.206,0.577,0.282,0.873c2.003,7.732,6.802,12.979,14.232,15.208
			c4.7,1.41,9.68,1.299,14.391-0.61c1.729-0.7,3.445-1.548,4.664-3.053C76.133,53.928,86.533,41.041,96.941,28.16
			c1.576-1.953,1.576-1.953,3.531-0.463c0.283,0.215,0.561,0.438,0.848,0.646c0.6,0.435,1.064,0.384,1.162-0.445
			c0.467-3.917,1.307-7.797,1.152-11.777H102.422z"/>
	</defs>
	<clipPath id="SVGID_2_">
		<use xlink:href="#SVGID_1_"  style="overflow:visible;"/>
	</clipPath>
	
		<linearGradient id="SVGID_3_" gradientUnits="userSpaceOnUse" x1="-53.9922" y1="138.7148" x2="-52.9922" y2="138.7148" gradientTransform="matrix(0 -55.2927 -55.2927 0 7737.625 -2914)">
		<stop  offset="0" style="stop-color:#3B4387"/>
		<stop  offset="0.0765" style="stop-color:#3B4387"/>
		<stop  offset="0.4643" style="stop-color:#0094C6"/>
		<stop  offset="0.7041" style="stop-color:#009BCC"/>
		<stop  offset="0.8571" style="stop-color:#39468B"/>
		<stop  offset="0.9592" style="stop-color:#3D3980"/>
		<stop  offset="1" style="stop-color:#3D3980"/>
	</linearGradient>
	<rect x="31.555" y="15.51" style="clip-path:url(#SVGID_2_);fill:url(#SVGID_3_);" width="72.234" height="56.36"/>
</g>
<g>
	<path style="fill:#8C9297;" d="M96.908,112.63c0.18-0.129,0.316-0.193,0.41-0.193c0.074,0,0.135,0.025,0.182,0.075
		c0.047,0.051,0.07,0.111,0.07,0.185c0,0.156-0.113,0.265-0.344,0.325l-0.455,0.911c-0.113,0.253-0.199,0.507-0.256,0.76
		s-0.086,0.513-0.086,0.778c0,0.334,0.078,0.868,0.236,1.604c0.605-0.41,1.17-0.959,1.691-1.647
		c-0.004-0.173-0.006-0.299-0.006-0.38c0-0.884,0.129-1.582,0.385-2.093c0.17-0.338,0.357-0.507,0.562-0.507
		c0.121,0,0.223,0.054,0.305,0.16c0.08,0.106,0.121,0.265,0.121,0.474c0,0.169-0.031,0.364-0.096,0.585
		c-0.105,0.362-0.232,0.693-0.377,0.995c0,1.014,0.074,1.817,0.227,2.413c0.473-0.33,0.932-0.744,1.377-1.243
		c0.326-0.365,0.576-0.747,0.744-1.143c0.17-0.396,0.254-0.721,0.254-0.975c0-0.124-0.043-0.285-0.133-0.482
		c-0.1-0.229-0.15-0.396-0.15-0.5s0.037-0.194,0.113-0.269s0.166-0.111,0.273-0.111c0.131,0,0.236,0.062,0.312,0.189
		c0.078,0.127,0.117,0.353,0.117,0.679c0,0.828-0.354,1.697-1.059,2.605c-0.707,0.909-1.568,1.61-2.586,2.105
		c-0.125-0.438-0.242-1.09-0.35-1.954c-0.535,0.547-0.867,0.874-0.996,0.982c-0.26,0.222-0.512,0.409-0.754,0.564
		c-0.24,0.154-0.5,0.29-0.775,0.407c-0.027-0.229-0.09-0.6-0.189-1.11c-0.137-0.72-0.207-1.234-0.207-1.544
		c0-0.418,0.1-0.829,0.299-1.233s0.498-0.759,0.896-1.064c-0.715,0.021-1.223,0.104-1.525,0.253
		c-0.205,0.101-0.309,0.222-0.309,0.362c0,0.052,0.023,0.137,0.07,0.253c0.045,0.108,0.066,0.189,0.066,0.241
		c0,0.072-0.027,0.135-0.078,0.188c-0.053,0.052-0.117,0.078-0.197,0.078c-0.104,0-0.191-0.046-0.262-0.139
		c-0.072-0.093-0.107-0.223-0.107-0.392c0-0.322,0.141-0.583,0.426-0.784C95.162,112.746,95.881,112.609,96.908,112.63z"/>
</g>
<g>
	<path style="fill:#8C9297;" d="M105.738,116.02l0.195,0.266c-0.967,0.937-1.795,1.405-2.484,1.405c-0.281,0-0.494-0.097-0.643-0.29
		s-0.221-0.503-0.221-0.929c0-0.86,0.256-1.717,0.768-2.569c0.576-0.969,1.264-1.454,2.064-1.454c0.281,0,0.494,0.072,0.643,0.215
		s0.223,0.339,0.223,0.588c0,0.262-0.09,0.519-0.268,0.771c-0.178,0.254-0.494,0.518-0.951,0.79
		c-0.23,0.133-0.719,0.372-1.469,0.718c-0.035,0.218-0.053,0.425-0.053,0.622c0,0.285,0.045,0.484,0.133,0.597
		c0.09,0.112,0.219,0.169,0.389,0.169c0.16,0,0.338-0.046,0.531-0.139C104.857,116.654,105.236,116.401,105.738,116.02z
		 M103.668,115.145c0.635-0.289,1.111-0.601,1.432-0.935c0.217-0.233,0.324-0.465,0.324-0.693c0-0.173-0.043-0.312-0.133-0.413
		c-0.088-0.103-0.203-0.154-0.346-0.154c-0.146,0-0.287,0.057-0.426,0.169c-0.186,0.148-0.342,0.374-0.467,0.676
		C103.871,114.236,103.742,114.687,103.668,115.145z"/>
	<path style="fill:#8C9297;" d="M108.506,113.517c0.318-0.358,0.633-0.621,0.943-0.787c0.309-0.167,0.582-0.251,0.818-0.251
		c0.275,0,0.498,0.113,0.662,0.338c0.166,0.226,0.25,0.565,0.25,1.02c0,0.659-0.152,1.305-0.457,1.937
		c-0.303,0.631-0.678,1.111-1.127,1.441c-0.447,0.329-0.883,0.494-1.311,0.494c-0.361,0-0.652-0.108-0.869-0.325
		c-0.217-0.218-0.324-0.499-0.324-0.845c0-0.277,0.053-0.663,0.158-1.158l0.699-3.19c0.17-0.78,0.383-1.374,0.639-1.782
		s0.594-0.734,1.012-0.978s0.814-0.365,1.189-0.365c0.225,0,0.389,0.04,0.494,0.118c0.104,0.078,0.156,0.184,0.156,0.316
		c0,0.121-0.047,0.222-0.143,0.302c-0.094,0.08-0.229,0.12-0.402,0.12c-0.131,0-0.355-0.029-0.674-0.09
		c-0.143-0.028-0.27-0.042-0.379-0.042c-0.197,0-0.357,0.108-0.48,0.325c-0.09,0.169-0.215,0.598-0.373,1.285L108.506,113.517z
		 M109.67,113.148c-0.193,0-0.422,0.118-0.689,0.355c-0.266,0.237-0.518,0.656-0.754,1.258s-0.355,1.191-0.355,1.771
		c0,0.217,0.068,0.398,0.205,0.546c0.137,0.146,0.295,0.22,0.477,0.22c0.438,0,0.828-0.353,1.17-1.059
		c0.344-0.705,0.516-1.408,0.516-2.107c0-0.318-0.064-0.577-0.195-0.778C109.953,113.217,109.828,113.148,109.67,113.148z"/>
	<path style="fill:#8C9297;" d="M117.459,116.02l0.195,0.266c-0.965,0.937-1.793,1.405-2.484,1.405c-0.279,0-0.494-0.097-0.641-0.29
		c-0.148-0.193-0.223-0.503-0.223-0.929c0-0.86,0.256-1.717,0.77-2.569c0.576-0.969,1.264-1.454,2.064-1.454
		c0.279,0,0.494,0.072,0.641,0.215c0.148,0.143,0.223,0.339,0.223,0.588c0,0.262-0.088,0.519-0.266,0.771
		c-0.178,0.254-0.496,0.518-0.953,0.79c-0.229,0.133-0.717,0.372-1.467,0.718c-0.035,0.218-0.053,0.425-0.053,0.622
		c0,0.285,0.043,0.484,0.133,0.597c0.088,0.112,0.217,0.169,0.387,0.169c0.162,0,0.34-0.046,0.533-0.139
		C116.578,116.654,116.959,116.401,117.459,116.02z M115.389,115.145c0.635-0.289,1.113-0.601,1.432-0.935
		c0.217-0.233,0.326-0.465,0.326-0.693c0-0.173-0.045-0.312-0.133-0.413c-0.09-0.103-0.205-0.154-0.346-0.154
		c-0.146,0-0.289,0.057-0.428,0.169c-0.184,0.148-0.34,0.374-0.467,0.676C115.592,114.236,115.465,114.687,115.389,115.145z"/>
	<path style="fill:#8C9297;" d="M118.984,113.679l-0.17-0.241c0.418-0.361,0.781-0.627,1.094-0.796
		c0.209-0.116,0.365-0.175,0.467-0.175c0.15,0,0.271,0.076,0.361,0.229c0.131,0.217,0.258,0.691,0.385,1.423
		c0.488-0.731,0.92-1.236,1.295-1.514s0.689-0.416,0.941-0.416c0.129,0,0.234,0.038,0.312,0.115c0.08,0.077,0.119,0.172,0.119,0.285
		c0,0.126-0.055,0.229-0.166,0.311c-0.078,0.057-0.293,0.097-0.645,0.121c-0.287,0.017-0.541,0.114-0.758,0.295
		c-0.346,0.292-0.682,0.719-1.006,1.279l0.379,1.804c0.162,0.792,0.332,1.379,0.51,1.761s0.395,0.676,0.65,0.881
		c0.146,0.116,0.307,0.175,0.484,0.175c0.252,0,0.436-0.156,0.551-0.471c0.074-0.205,0.195-0.308,0.361-0.308
		c0.078,0,0.146,0.033,0.207,0.1c0.059,0.066,0.088,0.15,0.088,0.251c0,0.196-0.109,0.378-0.328,0.543
		c-0.219,0.164-0.5,0.247-0.844,0.247c-0.377,0-0.74-0.122-1.084-0.365c-0.346-0.243-0.645-0.633-0.895-1.17
		s-0.482-1.391-0.695-2.561c-0.078,0.108-0.205,0.29-0.377,0.543c-0.498,0.716-0.883,1.176-1.154,1.381s-0.533,0.308-0.781,0.308
		c-0.174,0-0.316-0.049-0.432-0.147s-0.172-0.216-0.172-0.353c0-0.113,0.037-0.21,0.113-0.293c0.074-0.082,0.16-0.124,0.26-0.124
		c0.102,0,0.207,0.069,0.312,0.205c0.092,0.121,0.178,0.182,0.262,0.182c0.055,0,0.115-0.019,0.184-0.055
		c0.098-0.056,0.23-0.177,0.396-0.361c0.236-0.262,0.418-0.487,0.543-0.676l0.734-1.104l-0.242-1.128
		c-0.064-0.306-0.127-0.502-0.193-0.589c-0.064-0.086-0.137-0.129-0.215-0.129c-0.061,0-0.143,0.032-0.25,0.096
		C119.359,113.371,119.158,113.519,118.984,113.679z"/>
	<path style="fill:#8C9297;" d="M123.557,113.956l-0.23-0.241c0.359-0.438,0.717-0.762,1.07-0.971
		c0.355-0.209,0.664-0.313,0.924-0.313c0.098,0,0.176,0.025,0.232,0.075c0.059,0.051,0.086,0.124,0.086,0.22
		c0,0.117-0.012,0.236-0.037,0.359s-0.105,0.413-0.24,0.871c0.604-0.615,1.016-0.995,1.236-1.14
		c0.371-0.245,0.709-0.368,1.018-0.368c0.201,0,0.371,0.097,0.508,0.29c0.139,0.192,0.207,0.484,0.207,0.874
		c0,0.974-0.297,1.898-0.893,2.775c-0.594,0.876-1.252,1.314-1.973,1.314c-0.285,0-0.568-0.078-0.852-0.235l-0.506,1.99
		c-0.031,0.121-0.047,0.22-0.047,0.296c0,0.148,0.055,0.255,0.164,0.319c0.17,0.101,0.527,0.184,1.072,0.247l-0.078,0.302
		c-0.635-0.052-1.133-0.078-1.496-0.078c-0.375,0-0.859,0.026-1.455,0.078l0.076-0.302c0.301-0.032,0.518-0.116,0.654-0.253
		s0.246-0.38,0.328-0.729l1.07-4.578c0.201-0.853,0.303-1.327,0.303-1.424c0-0.104-0.051-0.156-0.148-0.156
		C124.377,113.179,124.047,113.438,123.557,113.956z M124.756,116.804c0.311,0.317,0.629,0.477,0.957,0.477
		c0.473,0,0.887-0.376,1.244-1.128c0.355-0.752,0.533-1.486,0.533-2.202c0-0.229-0.049-0.402-0.15-0.521
		c-0.1-0.118-0.234-0.178-0.404-0.178c-0.188,0-0.4,0.095-0.637,0.283c-0.367,0.294-0.646,0.585-0.838,0.875
		c-0.139,0.209-0.268,0.57-0.391,1.085L124.756,116.804z"/>
	<path style="fill:#8C9297;" d="M131.85,116.02l0.195,0.266c-0.967,0.937-1.795,1.405-2.484,1.405c-0.281,0-0.494-0.097-0.643-0.29
		s-0.221-0.503-0.221-0.929c0-0.86,0.256-1.717,0.768-2.569c0.576-0.969,1.264-1.454,2.064-1.454c0.281,0,0.494,0.072,0.643,0.215
		s0.223,0.339,0.223,0.588c0,0.262-0.09,0.519-0.268,0.771c-0.178,0.254-0.494,0.518-0.951,0.79
		c-0.23,0.133-0.719,0.372-1.469,0.718c-0.035,0.218-0.053,0.425-0.053,0.622c0,0.285,0.045,0.484,0.133,0.597
		c0.09,0.112,0.219,0.169,0.389,0.169c0.16,0,0.338-0.046,0.531-0.139C130.969,116.654,131.348,116.401,131.85,116.02z
		 M129.779,115.145c0.635-0.289,1.111-0.601,1.432-0.935c0.217-0.233,0.324-0.465,0.324-0.693c0-0.173-0.043-0.312-0.133-0.413
		c-0.088-0.103-0.203-0.154-0.346-0.154c-0.146,0-0.287,0.057-0.426,0.169c-0.186,0.148-0.342,0.374-0.467,0.676
		C129.982,114.236,129.854,114.687,129.779,115.145z"/>
	<path style="fill:#8C9297;" d="M133.914,117.533h-0.883l0.414-1.622c0.201-0.797,0.377-1.553,0.527-2.269
		c0.035-0.177,0.053-0.287,0.053-0.331c0-0.097-0.043-0.146-0.129-0.146c-0.061,0-0.15,0.042-0.273,0.124
		c-0.121,0.082-0.342,0.286-0.662,0.612l-0.184-0.211c0.379-0.414,0.756-0.725,1.133-0.933c0.377-0.207,0.664-0.311,0.865-0.311
		c0.072,0,0.129,0.018,0.17,0.052s0.062,0.077,0.062,0.13s-0.027,0.191-0.078,0.418l-0.258,1.085c0.398-0.642,0.85-1.19,1.352-1.646
		c0.24-0.218,0.441-0.327,0.604-0.327c0.119,0,0.219,0.039,0.297,0.117c0.08,0.079,0.119,0.17,0.119,0.274
		c0,0.109-0.039,0.201-0.115,0.277c-0.078,0.077-0.27,0.167-0.576,0.271c-0.293,0.101-0.529,0.222-0.713,0.362
		s-0.385,0.356-0.604,0.646c-0.219,0.29-0.371,0.542-0.457,0.757c-0.088,0.216-0.221,0.715-0.398,1.499L133.914,117.533z"/>
	<path style="fill:#8C9297;" d="M138.059,111.532l0.939-0.368l-0.426,1.688h1.225l-0.094,0.429h-1.227l-0.516,2.021
		c-0.164,0.606-0.246,1.028-0.246,1.266c0,0.108,0.023,0.187,0.068,0.235c0.045,0.048,0.107,0.072,0.186,0.072
		c0.123,0,0.311-0.074,0.562-0.224c0.332-0.196,0.646-0.42,0.947-0.669l0.225,0.277c-0.863,0.663-1.441,1.069-1.734,1.218
		c-0.291,0.149-0.525,0.224-0.703,0.224c-0.146,0-0.262-0.055-0.346-0.163c-0.086-0.108-0.127-0.285-0.127-0.53
		c0-0.29,0.074-0.732,0.225-1.327l0.602-2.4h-0.959l0.107-0.429h0.959L138.059,111.532z"/>
	<path style="fill:#8C9297;" d="M142.824,112.461c0.352,0,0.623,0.069,0.814,0.208s0.287,0.299,0.287,0.479
		c0,0.108-0.041,0.203-0.121,0.283c-0.082,0.081-0.18,0.121-0.293,0.121c-0.076,0-0.141-0.018-0.195-0.052s-0.135-0.119-0.236-0.256
		c-0.193-0.262-0.385-0.393-0.574-0.393c-0.162,0-0.305,0.063-0.43,0.19c-0.123,0.126-0.186,0.284-0.186,0.473
		c0,0.164,0.039,0.324,0.117,0.479c0.08,0.155,0.279,0.405,0.598,0.75c0.439,0.474,0.658,0.924,0.658,1.35s-0.178,0.798-0.533,1.117
		s-0.812,0.479-1.373,0.479c-0.469,0-0.818-0.098-1.047-0.293s-0.342-0.436-0.342-0.721c0-0.141,0.043-0.257,0.129-0.35
		c0.088-0.093,0.193-0.139,0.32-0.139c0.109,0,0.205,0.037,0.283,0.111s0.119,0.162,0.119,0.263c0,0.04-0.004,0.092-0.008,0.156
		c-0.004,0.053-0.004,0.097-0.004,0.133c0,0.133,0.055,0.245,0.164,0.338c0.105,0.093,0.252,0.139,0.436,0.139
		c0.213,0,0.4-0.037,0.561-0.111c0.162-0.074,0.287-0.187,0.377-0.338c0.092-0.15,0.137-0.3,0.137-0.448
		c0-0.145-0.043-0.289-0.127-0.434c-0.086-0.145-0.275-0.384-0.572-0.717c-0.41-0.466-0.615-0.914-0.615-1.344
		c0-0.394,0.156-0.738,0.469-1.033C141.947,112.608,142.344,112.461,142.824,112.461z"/>
</g>
</svg>
