<?xml version="1.0" encoding="utf-8"?>
<!-- Generator: Adobe Illustrator 16.0.0, SVG Export Plug-In . SVG Version: 6.00 Build 0)  -->
<!DOCTYPE svg PUBLIC "-//W3C//DTD SVG 1.1//EN" "http://www.w3.org/Graphics/SVG/1.1/DTD/svg11.dtd">
<svg version="1.1" id="Layer_1" xmlns="http://www.w3.org/2000/svg" xmlns:xlink="http://www.w3.org/1999/xlink" x="0px" y="0px"
	 width="300px" height="300px" viewBox="0 0 300 300" enable-background="new 0 0 300 300" xml:space="preserve">
<g>
	<path fill="#344243" d="M228.853,108.971c-21.269,0-38.572-17.176-38.572-38.285c0-21.11,17.304-38.284,38.572-38.284
		s38.571,17.173,38.571,38.284C267.424,91.795,250.121,108.971,228.853,108.971z"/>
	<path fill="#344243" d="M179.377,265.482c-11.042,0-20.305-2.403-27.523-7.145c-1.41-0.927-2.74-1.94-3.985-3.036
		c-1.9,1.221-3.883,2.324-5.949,3.313c-9.537,4.558-19.806,6.867-30.522,6.867c-10.85,0-21.072-2.074-30.389-6.168
		c-9.352-4.108-17.546-10.009-24.348-17.535c-6.652-7.358-11.883-16.153-15.54-26.143c-3.596-9.801-5.417-20.57-5.417-32.005
		c0-10.983,1.655-21.426,4.926-31.037c3.346-9.846,8.154-18.56,14.282-25.899c6.339-7.581,13.984-13.591,22.729-17.863
		c8.947-4.364,18.228-6.571,28.815-6.571c7.171,0,14.574,1.105,19.924,3.298V73.253c0-9.314,8.948-14.59,18.415-14.59h45.005
		c9.38,0,16.829,5.117,16.829,14.59v119.109c6.687,2.403,13.374,8.694,13.374,15.906v37.899c0,8.275-7.099,15.299-15.25,16.699
		c-4.875,0.84-9.848,1.485-13.623,1.916C186.996,265.247,182.657,265.482,179.377,265.482z"/>
	<path fill="#FFFFFF" d="M199.491,206.327c-3.539-0.269-5.959-1.085-7.174-2.36c-0.836-0.878-1.739-2.899-1.739-7.546V73.253
		c0-1.074,0.296-1.215-0.779-1.215h-45.005c-1.073,0-2.365,0.141-2.365,1.215v60.309c-4.012-4.342-7.416-7.901-12.433-10.617
		c-6.972-3.771-14.629-5.684-22.966-5.684c-8.307,0-15.957,1.7-22.831,5.053c-6.85,3.343-12.817,8.057-17.784,14.001
		c-4.949,5.923-8.839,13.027-11.587,21.108c-2.74,8.059-4.125,16.875-4.125,26.209c0,9.67,1.518,18.7,4.505,26.844
		c2.991,8.171,7.229,15.317,12.585,21.243c5.373,5.941,11.851,10.606,19.255,13.86c7.401,3.253,15.596,4.9,24.351,4.9
		c8.459,0,16.551-1.816,24.053-5.402c6.204-2.965,11.413-7.41,15.535-13.24c2.63,12.369,12.181,18.643,28.392,18.643
		c2.725,0,5.903-0.203,9.459-0.606c3.495-0.397,6.246-1.001,10.841-1.792c0.931-0.159,0.262-0.968,0.262-1.916v-37.897
		C199.939,207.251,200.508,206.407,199.491,206.327z"/>
	<ellipse fill="#50C6E4" cx="228.853" cy="70.685" rx="23.569" ry="23.28"/>
</g>
</svg>
