<svg xmlns="http://www.w3.org/2000/svg" xmlns:xlink="http://www.w3.org/1999/xlink" width="431" height="211" viewBox="0 0 431 211">
    <defs>
        <path id="a" d="M0 211h431V0H0z"/>
    </defs>
    <g fill="none" fill-rule="evenodd">
        <path fill="#FFF" d="M187.325 6.16c-3.21.026-3.211.026-3.211 2.884v84.554c0 2.776.301 3.038 3.21 2.724V6.16zm5.381-.199v90.74c3.761.425 3.9.312 3.901-3.088.002-28.133.002-56.267.002-84.4 0-.563.12-1.17-.057-1.675-.154-.44-.583-.959-1.007-1.097-.849-.276-1.777-.317-2.839-.48zm-11.858 1.476c-.353.055-.52.06-.674.108-12.74 3.915-21.311 12.108-25.446 24.592-3.647 11.01-3.747 22.273-1.292 33.512 2.233 10.223 7.443 18.678 16.43 24.58 3.325 2.184 6.9 3.858 10.982 4.899V7.438zm18.91 88.489c.607-.093 1-.12 1.375-.214 12.203-3.1 20.557-10.511 24.729-22.175 4.397-12.293 4.409-24.902 1.147-37.412-3.543-13.59-11.93-23.189-25.519-28.037-.511-.182-1.05-.289-1.732-.474v88.312zM242 52.395c-.268 21.57-11.054 35.648-29.233 44.818-10.09 5.09-20.878 5.761-31.878 3.694-11.407-2.143-21.322-7.192-29.475-15.385-7.284-7.319-11.092-16.304-12.054-26.396-.882-9.256-.214-18.443 2.771-27.345 3.906-11.648 11.472-20.193 22.685-25.527 14.16-6.738 28.959-8.737 43.54-2.47 18.324 7.877 29.889 21.716 33.03 41.642.402 2.547.46 5.148.614 6.969zM259.798 26.655v2.014c0 20.864.109 41.73-.078 62.592-.046 5.116 2.168 8.356 6.295 10.746.488.283.99.542 1.817.993H240c1.256-.81 2.408-1.48 3.482-2.257 2.948-2.132 4.394-4.922 4.384-8.688-.068-29.482-.038-58.964-.038-88.445V1.476l.434-.179C272.76 27.023 297.26 52.75 321.76 78.474l.426-.148v-1.94c0-21.261-.097-42.523.074-63.782.039-4.889-2.02-8.062-5.958-10.419-.524-.314-1.047-.63-1.967-1.185H342c-1.137.715-2.025 1.232-2.872 1.81-3.31 2.254-5.017 5.189-5.002 9.403.1 29.483.053 58.964.053 88.446v1.94l-.442.15-73.517-76.305-.422.211"/>
        <path fill="#FFF" d="M85.093 30.014h-.324c0 6.38.071 12.76-.044 19.139-.033 1.79.557 2.189 2.217 2.15 4.35-.101 8.705-.032 13.059-.034 6.87-.004 11.97-3.675 14.177-10.168 1.89-5.561 1.884-11.26.793-16.9-2.25-11.637-10.007-21.701-26.345-19.379-1.61.229-2.666 1.013-2.982 2.548-.305 1.482-.513 3.01-.528 4.52-.057 6.041-.023 12.082-.023 18.124m7.682 71.907H65c1.373-.87 2.526-1.52 3.59-2.293 2.882-2.092 4.34-4.832 4.331-8.513-.06-26.219-.114-52.44.04-78.658.029-4.942-2.082-8.127-6.066-10.494-.462-.275-.916-.56-1.292-1.228.594 0 1.188.015 1.781-.002 7.683-.218 15.367-.4 23.047-.671 8.455-.299 16.749.394 24.529 4.03 8.188 3.826 12.132 10.508 12.606 19.365.567 10.599-4.152 19.08-10.906 26.7-1.375 1.55-2.935 2.938-4.375 4.367 2.399 2.834 4.79 5.398 6.881 8.185 4.374 5.828 8.506 11.838 12.899 17.651 3.725 4.93 7.939 9.426 13.039 13.005 4.214 2.958 8.732 4.992 14.06 4.483.203-.019.414.051.62.08l.216.462c-1.334.71-2.597 1.643-4.013 2.092-8.663 2.745-16.62 2.062-23.644-4.494-7.215-6.733-13.203-14.396-18.367-22.743-4.757-7.686-11.873-11.896-20.461-13.865-2.407-.552-4.926-.614-7.392-.91-1.01-.122-1.405.261-1.402 1.316.03 10.849-.018 21.7.046 32.548.024 3.956 2.592 6.333 5.68 8.267.612.382 1.255.714 2.328 1.32M52.685 43.403l-2.253 18.37c-.354-.617-.59-.91-.703-1.243-1.663-4.882-5.164-7.68-10.19-7.944-5.981-.314-11.993-.074-18.19-.074-.044.621-.122 1.215-.123 1.81-.029 12.76-.014 25.523-.091 38.285-.025 4.209 2.296 6.829 5.529 8.943.696.456 1.438.843 2.482 1.45H1.486c1.483-1.024 2.878-1.862 4.13-2.879 2.467-2.007 3.665-4.586 3.658-7.856-.056-26.772-.078-53.545-.01-80.317.006-2.441-.835-4.237-2.696-5.497C4.532 5.07 2.307 3.97 0 2.658h1.928c14.114-.001 28.227.029 42.34-.023 3.51-.012 7.153.75 10.373-1.635l.359.365-3.524 17.238c-.727-1.818-1.187-3.193-1.813-4.488-1.729-3.58-4.595-5.601-8.592-5.665-6.176-.097-12.355-.025-18.533-.074-1.415-.012-1.32.872-1.32 1.809.006 6.694.002 13.387.002 20.08 0 4.877.007 9.756-.004 14.634-.002.9-.042 1.69 1.262 1.678 7.253-.062 14.508-.048 21.761-.123 2.952-.03 5.591-1.165 8.446-3.05M431 1.37l-3.467 16.67-.384.012c-.355-.976-.675-1.966-1.074-2.923-1.857-4.451-5.16-6.745-10.064-6.718-5.696.032-11.395.054-17.091-.028-1.564-.023-1.9.563-1.899 1.993.008 17.748-.044 35.498-.07 53.248-.012 9.243.151 18.49-.063 27.73-.114 4.857 2.017 8.082 5.983 10.441.585.347 1.181.676 2.107 1.205h-27.872c1.103-.685 2.097-1.26 3.046-1.899 3.304-2.224 4.943-5.213 4.925-9.306-.12-26.992-.137-53.986-.19-80.978-.004-2.398-.012-2.4-2.456-2.402-5.184-.001-10.37-.006-15.554.001-6.566.01-9.812 2.443-11.684 8.73-.108.367-.284.715-.617 1.533L351 1.405c.354-.06.559-.163.656-.1 2.446 1.575 5.183 1.394 7.917 1.39 20.226-.02 40.453.01 60.68-.03 3.535-.007 7.21.745 10.432-1.665l.315.37M101.2 119H126c-1.374.949-2.579 1.683-3.671 2.557-2.239 1.792-3.353 4.078-3.348 7.036.044 26.688.026 53.377.026 80.066V211l-66.752-69.063-.402.1v1.716c0 18.933.064 37.865-.051 56.796-.025 3.972 1.563 6.736 4.76 8.8.721.466 1.473.886 2.47 1.483H34c1.195-.785 2.326-1.452 3.372-2.232 2.49-1.857 3.71-4.264 3.703-7.475-.057-26.586-.033-53.172-.033-79.76v-1.829l.363-.279c22.105 23.136 44.21 46.273 66.643 69.75.078-.877.154-1.33.154-1.783.006-19.698-.003-39.396.013-59.094.002-2.843-1.286-4.989-3.44-6.678-1.058-.83-2.219-1.53-3.576-2.452M170 119h25.121c-1.187.76-2.153 1.242-2.948 1.921-1.08.922-2.162 1.897-3.003 3.027-1.196 1.607-1.332 3.312-.459 5.297 8.564 19.483 17.04 39.005 25.543 58.514.196.449.42.885.746 1.567.37-.698.657-1.158.87-1.65 8.602-19.744 17.188-39.496 25.81-59.232.862-1.974.073-3.614-1.091-4.922-1.501-1.686-3.38-3.039-5.037-4.484H260c-.6.372-.955.601-1.318.817-1.955 1.16-3.39 2.754-4.293 4.854-2.276 5.29-4.506 10.603-6.908 15.838-10.456 22.777-20.967 45.53-31.462 68.29-.29.627-.64 1.228-1.132 2.163-.458-.798-.79-1.28-1.029-1.802a229382.108 229382.108 0 0 1-37.202-81.325c-.212-.463-.445-.934-.546-1.426-.637-3.115-2.433-5.338-5.206-6.836-.217-.116-.41-.275-.904-.611M278.853 170.305l-10.845-30.355-.456.006-11.19 30.349h22.491zM227 210.995c5.4-1.589 8.683-5.001 10.629-10.227 9.972-26.78 20.098-53.505 30.173-80.248.155-.41.337-.811.633-1.52.393.834.688 1.402.933 1.991 10.74 25.822 21.524 51.625 32.17 77.485 2.327 5.65 5.325 10.434 11.462 12.524h-27.769c1.695-2.5 4.21-3.41 6.831-4.418-.76-2.02-1.477-3.968-2.226-5.903-3.001-7.757-6.039-15.502-8.99-23.278-.423-1.115-.995-1.457-2.128-1.45-7.405.038-14.81.048-22.214-.01-1.249-.01-1.79.424-2.168 1.583-2.788 8.538-5.634 17.057-8.469 25.579-1.07 3.214-.524 4.708 2.451 6.418.857.492 1.775.875 3.006 1.474H227zM428.224 120l-3.263 15.56c-.687-1.614-1.201-3.104-1.934-4.48-1.472-2.766-3.853-4.44-7.049-4.518-5.84-.142-11.685-.073-17.529-.11-.917-.007-1.128.47-1.12 1.248.02 1.976.004 3.951.004 5.927 0 8.411.028 16.821-.028 25.232-.01 1.33.373 1.744 1.747 1.728 5.791-.067 11.584-.037 17.377-.027 3.32.006 6.457-.623 9.647-2.899l-2.07 16.502c-.333-.55-.519-.765-.607-1.012-1.618-4.562-5.019-7.161-9.98-7.295-4.96-.135-9.93-.015-14.893-.082-1.337-.018-1.193.767-1.193 1.585v24.015c0 2.432-.032 4.865.026 7.296.014.563.167 1.28.54 1.653 5.26 5.257 11.456 8.214 19.108 6.57 5.148-1.106 8.508-4.768 11.461-8.785.405-.552.778-1.127 1.166-1.69l.366.139L428.307 211h-48.989c1.355-.889 2.641-1.613 3.788-2.51 2.263-1.771 3.41-4.05 3.402-6.982-.067-24.217-.09-48.437-.076-72.655 0-1.88-1.012-3.119-2.347-4.038-1.882-1.292-3.971-2.294-6.085-3.483h1.644c14.119 0 28.238-.013 42.357.014 1.73.004 3.398-.044 4.926-.96.28-.169.646-.2 1.297-.386M321 119h27.503c-.707.362-1.072.543-1.43.734-1.35.718-2.774 1.33-4.031 2.183-2.167 1.47-3.302 3.326-3.276 6.237.195 23.235.21 46.472.249 69.708.001 1.166.327 2.055 1.173 2.842 5.172 4.804 11.094 7.54 18.29 6.158 4.97-.955 8.319-4.377 11.283-8.198.678-.873 1.275-1.81 2.239-2.626L371.243 211h-49.441c1.225-.776 2.262-1.368 3.23-2.057 2.77-1.976 4.128-4.608 4.114-8.089-.101-24.718-.145-49.435-.16-74.152 0-1.539-.523-2.777-1.653-3.598-2.043-1.483-4.236-2.761-6.333-4.104M24.855 211H.032c1.332-.892 2.545-1.606 3.647-2.463 2.308-1.797 3.492-4.108 3.485-7.133-.044-24.014-.082-48.028.032-72.042.02-4.121-1.666-6.91-4.978-9C1.596 119.97.964 119.593 0 119h25c-1.275.834-2.317 1.44-3.276 2.157-2.531 1.888-3.814 4.321-3.806 7.597.062 23.86.115 47.722-.036 71.582-.03 4.742 2.04 7.708 5.92 9.848.358.197.722.381 1.082.572l-.029.244"/>
        <mask id="b" fill="#fff">
            <use xlink:href="#a"/>
        </mask>
        <path fill="#FFF" d="M136 181h38v-8h-38z" mask="url(#b)"/>
    </g>
</svg>
