<svg width="660" height="99" viewBox="0 0 660 99" fill="none" xmlns="http://www.w3.org/2000/svg">
<path d="M16.6952 97.1591H0V1.29547H29.2754V14.25H16.6952V41.9256H28.0996V54.8802H16.6952V97.1591Z" fill="white"/>
<path d="M72.9018 97.1591H56.0891V62.1819C56.0891 61.2397 55.7755 60.5331 55.1485 60.062C54.5998 59.5124 54.012 59.2376 53.3849 59.2376H50.6808V97.1591H33.9856V1.29547H58.6756C63.5353 1.29547 67.1016 2.47314 69.3747 4.82851C71.7261 7.10537 72.9018 11.031 72.9018 16.6054V37.8037C72.9018 42.6715 72.1572 46.2438 70.668 48.5207C69.2571 50.7975 66.9057 52.25 63.6137 52.8781C66.9057 53.4277 69.2571 54.8802 70.668 57.2356C72.1572 59.5124 72.9018 63.0455 72.9018 67.8347V97.1591ZM56.0891 16.6054C56.0891 15.5847 55.8147 14.8388 55.2661 14.3678C54.7174 13.8182 54.1295 13.5434 53.5025 13.5434H50.6808V46.7541H53.3849C54.012 46.7541 54.5998 46.5186 55.1485 46.0475C55.7755 45.498 56.0891 44.7521 56.0891 43.8099V16.6054Z" fill="white"/>
<path d="M117.666 82.9091C117.666 88.6405 116.608 92.6447 114.492 94.9215C112.454 97.1199 109.084 98.219 104.381 98.219H92.8587C87.9991 98.219 84.4327 97.0414 82.1597 94.686C79.8866 92.3306 78.7501 88.405 78.7501 82.9091V15.3099C78.7501 9.57852 79.7691 5.61364 81.807 3.41529C83.8449 1.13843 87.2153 0 91.9181 0H103.44C108.3 0 111.866 1.17769 114.139 3.53307C116.491 5.80993 117.666 9.73555 117.666 15.3099V82.9091ZM100.854 15.3099C100.854 14.2893 100.579 13.5434 100.031 13.0723C99.4819 12.5227 98.8941 12.2479 98.267 12.2479C97.64 12.2479 97.0129 12.5227 96.3859 13.0723C95.7588 13.5434 95.4453 14.2893 95.4453 15.3099V82.9091C95.4453 83.8513 95.7196 84.5971 96.2683 85.1467C96.8953 85.6178 97.5224 85.8533 98.1494 85.8533C98.7765 85.8533 99.3644 85.6178 99.913 85.1467C100.54 84.5971 100.854 83.8513 100.854 82.9091V15.3099Z" fill="white"/>
<path d="M139.165 45.9298V97.1591H124.116V1.29547H141.399L151.628 52.7604V1.29547H167.148V97.1591H149.159L139.165 45.9298Z" fill="white"/>
<path d="M180.995 14.25H171.825V1.29547H206.979V14.25H197.808V97.1591H180.995V14.25Z" fill="white"/>
<path d="M232.273 1.29547H248.968V97.1591H232.273V1.29547Z" fill="white"/>
<path d="M271.089 45.9298V97.1591H256.04V1.29547H273.323L283.552 52.7604V1.29547H299.071V97.1591H281.083L271.089 45.9298Z" fill="white"/>
<path d="M321.977 1.29547H339.26L343.727 72.4277L348.195 1.29547H365.361L356.19 97.1591H331.5L321.977 1.29547Z" fill="white"/>
<path d="M372.604 1.29547H397.882L407.053 97.1591H391.063L389.182 73.0166H380.952L379.188 97.1591H363.081L372.604 1.29547ZM381.892 60.062H388.241L385.067 17.7831L381.892 60.062Z" fill="white"/>
<path d="M410.583 1.29547H427.278V84.2046H439.388V97.1591H410.583V1.29547Z" fill="white"/>
<path d="M473.384 97.1591H444.109V1.29547H473.384V14.25H460.804V41.9256H472.209V54.8802H460.804V84.2046H473.384V97.1591Z" fill="white"/>
<path d="M498.045 79.4938C498.045 76.5103 498.515 73.7232 499.456 71.1323C500.475 68.4628 501.729 65.8719 503.218 63.3595C504.707 60.8471 506.314 58.374 508.039 55.9401C509.763 53.4277 511.37 50.8368 512.859 48.1674C514.348 45.498 515.563 42.7108 516.504 39.8058C517.523 36.9008 518.032 33.7603 518.032 30.3843V15.6632C518.032 14.7211 517.758 14.0145 517.209 13.5434C516.739 12.9938 516.112 12.719 515.328 12.719C514.623 12.719 513.995 12.9938 513.447 13.5434C512.977 14.0145 512.741 14.7211 512.741 15.6632V33.5641H498.28V15.781C498.28 13.0331 498.476 10.717 498.868 8.83265C499.26 6.86984 499.926 5.29959 500.867 4.1219C501.807 2.8657 503.061 1.96282 504.629 1.41323C506.275 0.863644 508.313 0.588836 510.743 0.588836H520.148C524.851 0.588836 528.222 1.72727 530.26 4.00413C532.376 6.20248 533.434 10.1281 533.434 15.781V35.0951C533.434 38.3926 532.964 41.4938 532.023 44.3988C531.083 47.3037 529.907 50.0909 528.496 52.7604C527.085 55.3513 525.517 57.9029 523.793 60.4153C522.147 62.8492 520.619 65.2831 519.208 67.717C517.797 70.1508 516.621 72.624 515.681 75.1364C514.74 77.5703 514.27 80.1219 514.27 82.7914V85.3823H534.61V97.1591H498.045V79.4938Z" fill="white"/>
<path d="M576.417 82.3203C576.417 88.0517 575.358 92.0558 573.242 94.3327C571.204 96.531 567.834 97.6302 563.131 97.6302H553.96C549.101 97.6302 545.534 96.4525 543.261 94.0971C540.988 91.7418 539.852 87.8161 539.852 82.3203V15.8988C539.852 10.1674 540.871 6.20248 542.909 4.00413C544.946 1.72727 548.317 0.588836 553.02 0.588836H562.19C567.05 0.588836 570.616 1.76653 572.889 4.1219C575.241 6.39876 576.417 10.3244 576.417 15.8988V82.3203ZM560.78 15.8988C560.78 14.8781 560.505 14.1322 559.957 13.6612C559.408 13.1116 558.82 12.8368 558.193 12.8368C557.566 12.8368 556.939 13.1116 556.312 13.6612C555.685 14.1322 555.371 14.8781 555.371 15.8988V82.3203C555.371 83.2624 555.646 84.0083 556.194 84.5579C556.821 85.029 557.448 85.2645 558.075 85.2645C558.702 85.2645 559.29 85.029 559.839 84.5579C560.466 84.0083 560.78 83.2624 560.78 82.3203V15.8988Z" fill="white"/>
<path d="M581.746 79.4938C581.746 76.5103 582.216 73.7232 583.157 71.1323C584.176 68.4628 585.43 65.8719 586.919 63.3595C588.408 60.8471 590.015 58.374 591.74 55.9401C593.464 53.4277 595.071 50.8368 596.56 48.1674C598.049 45.498 599.264 42.7108 600.205 39.8058C601.224 36.9008 601.733 33.7603 601.733 30.3843V15.6632C601.733 14.7211 601.459 14.0145 600.91 13.5434C600.44 12.9938 599.813 12.719 599.029 12.719C598.323 12.719 597.696 12.9938 597.148 13.5434C596.678 14.0145 596.442 14.7211 596.442 15.6632V33.5641H581.981V15.781C581.981 13.0331 582.177 10.717 582.569 8.83265C582.961 6.86984 583.627 5.29959 584.568 4.1219C585.508 2.8657 586.762 1.96282 588.33 1.41323C589.976 0.863644 592.014 0.588836 594.444 0.588836H603.849C608.552 0.588836 611.923 1.72727 613.961 4.00413C616.077 6.20248 617.135 10.1281 617.135 15.781V35.0951C617.135 38.3926 616.665 41.4938 615.724 44.3988C614.784 47.3037 613.608 50.0909 612.197 52.7604C610.786 55.3513 609.218 57.9029 607.494 60.4153C605.848 62.8492 604.32 65.2831 602.909 67.717C601.498 70.1508 600.322 72.624 599.382 75.1364C598.441 77.5703 597.971 80.1219 597.971 82.7914V85.3823H618.311V97.1591H581.746V79.4938Z" fill="white"/>
<path d="M639.19 31.2087H623.553V15.8988C623.553 10.3244 624.689 6.39876 626.962 4.1219C629.314 1.76653 632.919 0.588836 637.779 0.588836H645.774C650.633 0.588836 654.2 1.76653 656.473 4.1219C658.824 6.39876 660 10.3244 660 15.8988V32.3864C660 37.2541 659.255 40.8265 657.766 43.1033C656.355 45.3802 654.004 46.8327 650.712 47.4608C654.004 48.0104 656.355 49.4628 657.766 51.8182C659.255 54.0951 660 57.6281 660 62.4174V82.3203C660 87.8947 658.824 91.8596 656.473 94.2149C654.2 96.4918 650.633 97.6302 645.774 97.6302H637.779C632.919 97.6302 629.314 96.4918 626.962 94.2149C624.689 91.8596 623.553 87.8947 623.553 82.3203V63.0062H639.19V82.3203C639.19 83.3409 639.464 84.1261 640.013 84.6757C640.561 85.1467 641.149 85.3823 641.776 85.3823C642.404 85.3823 642.991 85.1467 643.54 84.6757C644.089 84.1261 644.363 83.3409 644.363 82.3203V56.7645C644.363 55.8223 644.049 55.1157 643.422 54.6447C642.874 54.0951 642.286 53.8203 641.659 53.8203H633.311V41.3368H641.894C642.521 41.3368 643.07 41.062 643.54 40.5124C644.089 39.9628 644.363 39.2562 644.363 38.3926V15.8988C644.363 14.8781 644.089 14.1322 643.54 13.6612C642.991 13.1116 642.404 12.8368 641.776 12.8368C641.149 12.8368 640.561 13.1116 640.013 13.6612C639.464 14.1322 639.19 14.8781 639.19 15.8988V31.2087Z" fill="white"/>
</svg>
