<svg xmlns="http://www.w3.org/2000/svg" width="59" height="59" viewBox="0 0 59 59">
    <path fill="#FFF" fill-rule="evenodd" d="M59 8.873v41.254c-.034.087-.085.172-.1.262-.599 3.505-2.545 6.03-5.685 7.603-.957.48-2.055.68-3.088 1.008H38.719c-.01-.095-.029-.19-.029-.285-.001-7.18-.001-14.362.001-21.542 0-.145.033-.29.056-.475h9.72v-9.856h-9.75c0-1.483-.053-2.905.014-4.32.066-1.413.995-2.21 2.41-2.21 2.247-.001 4.493 0 6.74-.002.2 0 .402-.018.587-.027v-9.761c-2.883 0-5.723-.02-8.563.015a6.646 6.646 0 0 0-1.92.335c-4.331 1.394-6.789 4.53-8.027 8.763-.492 1.68-.48 3.412-.46 5.142.009.684.002 1.369.002 2.1h-7.158c-.023.174-.054.303-.054.433-.003 2.976.004 5.952-.01 8.928-.002.388.137.486.503.483 1.708-.015 3.417-.006 5.126-.006H29.5V59H8.873c-.087-.034-.172-.085-.262-.1-3.482-.593-6.001-2.52-7.575-5.635C.544 52.293.337 51.177 0 50.127V8.873c.034-.087.085-.172.1-.262C.7 5.106 2.646 2.58 5.786 1.008 6.742.528 7.84.328 8.873 0h41.254c.087.034.172.085.262.1 3.482.593 6.001 2.52 7.576 5.635.49.972.698 2.088 1.035 3.138"/>
</svg>
