<svg width="45" height="60" viewBox="0 0 45 60" fill="none" xmlns="http://www.w3.org/2000/svg">
<g id="icon">
<g id="Group">
<g id="Mask group">
<mask id="mask0_20_23" style="mask-type:luminance" maskUnits="userSpaceOnUse" x="0" y="0" width="45" height="60">
<g id="Group_2">
<path id="Vector" d="M0 0H44.5241V60H0V0Z" fill="#FF610F"/>
</g>
</mask>
<g mask="url(#mask0_20_23)">
<path id="Vector_2" fill-rule="evenodd" clip-rule="evenodd" d="M41.1018 22.648C40.951 16.719 38.8167 11.7255 34.2464 7.93695C29.7099 4.17762 24.5287 2.75575 18.7489 3.83754C14.2556 4.67927 10.5963 7.04135 7.71256 10.5776C3.71471 15.4818 2.56214 21.0692 4.33947 27.1845C5.14889 29.9743 6.58153 32.5088 7.97569 35.037C11.952 42.2587 16.927 48.7664 21.9789 55.2202C22.3128 55.6449 22.4344 55.3417 22.6068 55.1171C25.2428 51.664 27.8849 48.2139 30.4147 44.6762C33.9417 39.7443 37.1347 34.62 39.5645 29.0295C40.4478 26.9967 41.1464 24.9132 41.1033 22.648M22.0466 0.0582047C27.1986 0.0489718 31.7042 1.49854 35.659 4.54385C40.5771 8.32934 43.4962 13.3644 44.3533 19.5735C44.8765 23.3667 44.1487 27.006 42.6637 30.4898C40.6417 35.2355 38.0626 39.6704 35.2004 43.9391C32.3059 48.2555 29.0544 52.2964 25.8767 56.3943C25.2181 57.2422 24.5534 58.087 23.8855 58.9272C23.7316 59.1226 23.5701 59.315 23.39 59.4842C22.6945 60.1398 21.9128 60.1767 21.1818 59.5596C20.417 58.9133 19.8354 58.0916 19.2121 57.3191C14.5803 51.5639 10.1639 45.6503 6.39995 39.2626C4.42564 35.9126 2.5883 32.4857 1.27261 28.8048C-1.22797 21.8186 0.0569432 15.3756 4.20252 9.44499C7.16012 5.21016 11.0995 2.26795 16.0822 0.906093C18.0903 0.356735 20.117 -0.180312 22.0466 0.0582047Z" fill="#D4EB9E"/>
</g>
</g>
</g>
<path id="Vector_3" fill-rule="evenodd" clip-rule="evenodd" d="M30.7763 22.1974C30.7763 17.4425 26.9878 13.677 22.1897 13.6647C17.6902 13.6539 13.8494 17.4886 13.8494 21.9958C13.8494 26.8769 17.504 30.5793 22.3313 30.5916C26.9539 30.6024 30.7763 26.8031 30.7763 22.1974ZM10.7717 22.0697C10.7486 15.7867 15.9421 10.6147 22.2975 10.587C28.6912 10.5593 33.8355 15.7082 33.854 22.1543C33.8724 28.4865 28.7313 33.6493 22.3852 33.6693C15.9329 33.6908 10.7948 28.5604 10.7717 22.0697Z" fill="#D4EB9E"/>
</g>
</svg>
