<svg xmlns="http://www.w3.org/2000/svg" width="45" height="45" viewBox="0 0 45 45">
    <g fill="none" fill-rule="evenodd">
        <circle cx="22.5" cy="22.5" r="22.5" fill="#D95D1D"/>
        <g fill="#FFF">
            <path d="M21.778 29.259H12.546c-.757-.001-1.287-.391-1.485-1.107a1.98 1.98 0 0 1-.058-.52C11 23.21 11 18.788 11 14.366c0-.978.6-1.609 1.54-1.615.924-.006 1.848-.001 2.773-.002h6.433c.185-.556.412-.768.79-.748.358.02.59.26.702.748H32.399c.384 0 .747.07 1.051.333.371.321.548.743.548 1.243.002 4.456.004 8.912-.001 13.367-.002.932-.62 1.564-1.507 1.565-2.6.004-5.198.002-7.797 0-.39 0-.692-.258-.744-.627-.054-.389.148-.728.515-.84.102-.03.216-.03.325-.03 2.508-.002 5.017-.001 7.526-.001h.237V14.265H12.45v13.494h.217c3.233 0 6.466.007 9.698-.007.5-.002.884.332.861.899-.02.532 0 1.067-.007 1.6a.432.432 0 0 0 .133.335c1.296 1.347 2.589 2.698 3.882 4.048.303.317.36.654.2.986-.229.476-.862.473-1.158.154-.473-.509-.958-1.005-1.437-1.507l-2.206-2.308c-.04-.041-.086-.077-.14-.126-.064.063-.12.117-.174.173-1.178 1.232-2.357 2.464-3.534 3.698-.165.173-.338.296-.59.296-.33 0-.541-.162-.662-.46a.707.707 0 0 1 .136-.788c.413-.447.837-.882 1.257-1.322.905-.945 1.81-1.892 2.718-2.833a.449.449 0 0 0 .138-.355c-.01-.317-.003-.634-.003-.983"/>
            <path d="M22.507 18.003c1.556 0 3.11-.003 4.666.002.582.002.96.637.783 1.306-.09.34-.274.56-.549.647a.92.92 0 0 1-.272.04c-3.09.002-6.178.002-9.267.001-.452 0-.787-.322-.855-.811-.086-.629.257-1.17.765-1.182.559-.012 1.117-.003 1.676-.003h3.053M19.506 21c.572 0 1.144-.001 1.716.001.47.002.781.406.778 1.003-.003.58-.318.992-.77.993-1.164.003-2.327.005-3.49 0-.384-.002-.687-.363-.733-.848-.049-.517.163-.982.516-1.112a.781.781 0 0 1 .267-.035c.572-.003 1.144-.001 1.716-.001"/>
        </g>
    </g>
</svg>
