<svg xmlns="http://www.w3.org/2000/svg" xmlns:xlink="http://www.w3.org/1999/xlink" width="29" height="40" viewBox="0 0 29 40">
    <defs>
        <path id="a" d="M0 .12h28.934v38.991H0z"/>
    </defs>
    <g fill="none" fill-rule="evenodd">
        <g>
            <mask id="b" fill="#fff">
                <use xlink:href="#a"/>
            </mask>
            <path fill="#FF610F" d="M26.71 14.838c-.098-3.853-1.485-7.098-4.455-9.56-2.948-2.443-6.315-3.367-10.071-2.664-2.92.547-5.298 2.082-7.172 4.38-2.598 3.187-3.347 6.818-2.192 10.792.526 1.813 1.457 3.46 2.363 5.103 2.584 4.693 5.817 8.922 9.1 13.116.217.276.296.079.408-.067 1.713-2.244 3.43-4.486 5.074-6.785 2.292-3.205 4.367-6.535 5.946-10.168.574-1.321 1.028-2.675 1-4.147M14.327.158c3.348-.006 6.276.936 8.846 2.915 3.196 2.46 5.093 5.732 5.65 9.767.34 2.465-.133 4.83-1.098 7.094-1.314 3.084-2.99 5.966-4.85 8.74-1.881 2.805-3.994 5.431-6.059 8.094-.428.551-.86 1.1-1.294 1.646-.1.127-.205.252-.322.362-.452.426-.96.45-1.435.049-.497-.42-.875-.954-1.28-1.456-3.01-3.74-5.88-7.583-8.326-11.734-1.283-2.177-2.477-4.404-3.332-6.796-1.625-4.54-.79-8.727 1.904-12.581 1.922-2.752 4.482-4.664 7.72-5.549 1.305-.357 2.622-.705 3.876-.55" mask="url(#b)"/>
        </g>
        <path fill="#FF610F" d="M20 14.545c0-3.09-2.462-5.537-5.58-5.545C11.496 8.993 9 11.485 9 14.414c0 3.172 2.375 5.578 5.512 5.586 3.004.007 5.488-2.462 5.488-5.455m-13-.083C6.985 10.379 10.36 7.018 14.49 7c4.155-.018 7.498 3.328 7.51 7.517.012 4.115-3.329 7.47-7.453 7.483-4.193.014-7.532-3.32-7.547-7.538"/>
    </g>
</svg>
