<svg width="45" height="45" viewBox="0 0 45 45" fill="none" xmlns="http://www.w3.org/2000/svg">
<g clip-path="url(#clip0_5_34)">
<path d="M22.5 45C34.9264 45 45 34.9264 45 22.5C45 10.0736 34.9264 0 22.5 0C10.0736 0 0 10.0736 0 22.5C0 34.9264 10.0736 45 22.5 45Z" fill="#E5C295"/>
<mask id="mask0_5_34" style="mask-type:luminance" maskUnits="userSpaceOnUse" x="18" y="9" width="10" height="16">
<path d="M18.086 9.0271H27.906V24.9681H18.086V9.0271Z" fill="white"/>
</mask>
<g mask="url(#mask0_5_34)">
<path fill-rule="evenodd" clip-rule="evenodd" d="M19.93 16.9501H19.933C19.933 18.2741 19.922 19.5981 19.937 20.9221C19.95 22.0821 21.173 23.2281 22.522 23.3721C24.434 23.5771 26.059 22.3681 26.062 20.7281C26.0693 18.2515 26.0673 15.7748 26.056 13.2981C26.0541 12.9727 25.9952 12.6502 25.882 12.3451C25.432 11.1481 23.974 10.4041 22.528 10.6041C21.019 10.8131 19.932 11.8841 19.93 13.1691C19.928 14.4291 19.93 15.6901 19.93 16.9511M27.904 17.0491C27.904 18.2741 27.908 19.4991 27.904 20.7231C27.898 22.5571 26.582 24.1371 24.56 24.7421C21.744 25.5851 18.621 23.9801 18.164 21.4501C18.1192 21.2204 18.0948 20.9872 18.091 20.7531C18.086 18.1871 18.081 15.6201 18.091 13.0531C18.099 11.3991 19.544 9.79612 21.377 9.25812C23.514 8.63012 25.801 9.32812 27.026 10.8301C27.613 11.5521 27.899 12.3621 27.903 13.2401C27.909 14.5101 27.904 15.7801 27.904 17.0501" fill="white"/>
</g>
<path fill-rule="evenodd" clip-rule="evenodd" d="M22.111 34.236V32.703C22.111 31.94 22.097 31.177 22.119 30.415C22.127 30.132 22.028 30.045 21.779 30C20.271 29.73 18.987 29.01 17.936 27.862C16.67 26.481 16.032 24.825 16 22.922C15.991 22.385 16.347 22.017 16.852 22.003C17.31 21.99 17.679 22.341 17.692 22.864C17.721 24.101 18.066 25.218 18.782 26.211C20.036 27.954 22.165 28.733 24.234 28.203C26.423 27.643 27.982 25.833 28.259 23.525C28.29 23.269 28.289 23.01 28.325 22.755C28.3369 22.6437 28.3708 22.536 28.4246 22.4379C28.4784 22.3398 28.5511 22.2534 28.6385 22.1836C28.7259 22.1137 28.8262 22.0619 28.9338 22.0311C29.0413 22.0003 29.1539 21.991 29.265 22.004C29.675 22.038 30 22.416 30 22.884C30 24.253 29.658 25.524 28.954 26.686C28.044 28.189 26.755 29.196 25.141 29.754C24.791 29.875 24.413 29.913 24.054 30.009C23.967 30.032 23.836 30.136 23.835 30.204C23.822 31.53 23.825 32.857 23.825 34.218C23.945 34.224 24.046 34.235 24.147 34.235C24.787 34.236 25.428 34.233 26.069 34.237C26.605 34.239 26.964 34.582 26.971 35.093C26.979 35.637 26.648 35.993 26.091 35.995C24.016 36.002 21.942 36.001 19.868 35.996C19.334 35.995 18.974 35.64 18.956 35.133C18.94 34.637 19.288 34.265 19.836 34.246C20.476 34.224 21.116 34.237 21.757 34.236H22.111Z" fill="white"/>
</g>
<defs>
<clipPath id="clip0_5_34">
<rect width="45" height="45" fill="white"/>
</clipPath>
</defs>
</svg>
