<svg xmlns="http://www.w3.org/2000/svg" xmlns:xlink="http://www.w3.org/1999/xlink" width="45" height="45" viewBox="0 0 45 45">
    <defs>
        <path id="a" d="M0 0h30v19H0z"/>
    </defs>
    <g fill="none" fill-rule="evenodd">
        <circle cx="22.5" cy="22.5" r="22.5" fill="#D95D1D"/>
        <g transform="translate(8 12)">
            <mask id="b" fill="#fff">
                <use xlink:href="#a"/>
            </mask>
            <path fill="#FFF" d="M13.89 1.255c.037.168.07.326.109.483.027.111.054.224.095.33.144.372.194.4.585.385.257-.009.514-.01.772-.016.062-.001.126-.002.187-.014.1-.018.169-.068.195-.17.08-.308.168-.613.253-.919.006-.025.008-.051.012-.079H13.89zm12.783 12.793c-.071-2.736-1.63-6.582-5.775-8.875-3.86-2.136-8.84-1.992-12.586.474-1.89 1.244-3.28 2.873-4.164 4.876a9.948 9.948 0 0 0-.841 3.525H17.565c.69 0 1.379.01 2.068.017a.654.654 0 0 1 .663.587c.03.317-.217.614-.559.665-.103.016-.21.017-.315.017l-17.014.001h-.145c.04.04.064.065.09.089.774.725 1.551 1.448 2.321 2.177a.545.545 0 0 0 .405.155c1.177-.001 2.355.001 3.532.001l16.21-.002a.814.814 0 0 0 .585-.227c.642-.6 1.286-1.198 1.932-1.794.124-.115.258-.22.417-.355-.076-.019-.127-.042-.177-.042-1.276-.002-2.552-.001-3.827-.003a.923.923 0 0 1-.234-.032c-.322-.086-.53-.387-.476-.695.061-.358.353-.55.69-.555.941-.013 1.883-.004 2.825-.004h.117zM12.89 2.599c-.123-.459-.242-.899-.358-1.34-.042-.155-.084-.312-.114-.47-.09-.475.139-.749.652-.783.095-.007.19-.006.287-.006 1.153 0 2.306 0 3.46.003.114 0 .231.015.342.042.283.069.45.253.434.527-.012.22-.07.44-.123.656-.113.453-.238.905-.361 1.371 3.003.524 5.562 1.8 7.607 3.945 2.045 2.145 3.1 4.676 3.322 7.544.266 0 .526-.001.786.001.204.002.41-.004.613.016.534.052.69.612.458.929-.052.07-.11.14-.175.201-1.235 1.158-2.473 2.313-3.706 3.473-.236.223-.524.289-.84.29-.65.003-1.301.001-1.952.001L5.237 19c-.195 0-.39.001-.584-.012a1.124 1.124 0 0 1-.708-.32A1799.802 1799.802 0 0 1 .329 15.27a1.358 1.358 0 0 1-.25-.31c-.216-.383.028-.816.489-.852.345-.026.693-.023 1.04-.019.328.004.38-.034.405-.337.166-1.949.736-3.783 1.858-5.437 1.992-2.938 4.779-4.84 8.421-5.593l.599-.122z" mask="url(#b)"/>
        </g>
    </g>
</svg>
