<svg width="45" height="45" viewBox="0 0 45 45" fill="none" xmlns="http://www.w3.org/2000/svg">
<g id="icon-lightning-talk 1" clip-path="url(#clip0_5_73)">
<g id="Group">
<path id="Vector" d="M22.5 45C34.9264 45 45 34.9264 45 22.5C45 10.0736 34.9264 0 22.5 0C10.0736 0 0 10.0736 0 22.5C0 34.9264 10.0736 45 22.5 45Z" fill="#E5C295"/>
<g id="Group_2">
<path id="Vector_2" fill-rule="evenodd" clip-rule="evenodd" d="M14.486 30.5641C15.786 29.9571 16.994 29.3901 18.206 28.8291C18.756 28.5741 19.201 28.6361 19.51 28.9961C19.5823 29.0844 19.6358 29.1866 19.6674 29.2963C19.6989 29.406 19.7077 29.521 19.6933 29.6342C19.6789 29.7475 19.6415 29.8566 19.5835 29.9549C19.5255 30.0532 19.4481 30.1387 19.356 30.2061C19.2511 30.279 19.14 30.3426 19.024 30.3961C17.28 31.2181 15.536 32.0431 13.786 32.8531C13.586 32.9461 13.336 33.0171 13.12 32.9961C12.521 32.9381 12.229 32.4861 12.35 31.8601C12.592 30.6101 12.834 29.3601 13.092 28.1141C13.158 27.8001 13.102 27.5841 12.831 27.3561C11.298 26.0601 10.311 24.4661 10.059 22.5271C9.758 20.2171 10.627 18.2721 12.318 16.6341C14.367 14.6481 16.945 13.6471 19.798 13.2181C23.078 12.7241 26.273 13.0521 29.285 14.3881C31.773 15.4921 33.761 17.1221 34.64 19.6821C35.324 21.6761 35.019 23.5791 33.846 25.3451C32.526 27.3331 30.578 28.5961 28.29 29.4251C26.4666 30.0798 24.5423 30.4085 22.605 30.3961C21.843 30.3961 21.386 29.8741 21.614 29.2591C21.735 28.9311 21.997 28.7301 22.361 28.6961C23.02 28.6331 23.686 28.6281 24.341 28.5451C27.148 28.1901 29.691 27.2981 31.631 25.2531C33.746 23.0231 33.584 19.8971 31.301 17.7971C29.456 16.0991 27.195 15.2571 24.698 14.9091C22.252 14.5691 19.841 14.7541 17.511 15.5611C15.433 16.2811 13.641 17.3741 12.546 19.2561C11.513 21.0311 11.666 22.8061 12.689 24.5381C13.149 25.3171 13.791 25.9631 14.533 26.5101C14.997 26.8531 15.145 27.2401 15.017 27.7901C14.809 28.6831 14.669 29.5891 14.487 30.5641" fill="white"/>
<path id="Vector_3" fill-rule="evenodd" clip-rule="evenodd" d="M16.99 23.014C17.52 23.042 17.986 22.614 18.018 22.068C18.0283 21.9303 18.0106 21.792 17.9659 21.6614C17.9211 21.5308 17.8503 21.4107 17.7577 21.3083C17.6652 21.2059 17.5527 21.1234 17.4273 21.0657C17.3018 21.0081 17.166 20.9765 17.028 20.973C16.7672 20.9685 16.5145 21.0634 16.321 21.2383C16.1275 21.4132 16.0078 21.6551 15.986 21.915C15.95 22.521 16.37 22.98 16.99 23.014ZM17 24C16.4696 23.9987 15.9614 23.7867 15.5873 23.4107C15.2131 23.0347 15.0037 22.5254 15.005 21.995C15.0063 21.4646 15.2183 20.9564 15.5943 20.5823C15.9703 20.2081 16.4796 19.9987 17.01 20C17.2725 20.0001 17.5323 20.0522 17.7746 20.1531C18.0169 20.254 18.2369 20.4019 18.4218 20.5881C18.6068 20.7743 18.7531 20.9953 18.8523 21.2383C18.9515 21.4813 19.0017 21.7415 19 22.004C19.0004 22.2665 18.9489 22.5265 18.8486 22.769C18.7482 23.0115 18.6009 23.2319 18.4152 23.4173C18.2295 23.6028 18.0089 23.7497 17.7662 23.8497C17.5235 23.9497 17.2625 24.0008 17 24ZM22.99 23.014C23.52 23.042 23.986 22.614 24.018 22.068C24.0283 21.9303 24.0106 21.792 23.9659 21.6614C23.9211 21.5308 23.8503 21.4107 23.7577 21.3083C23.6652 21.2059 23.5527 21.1234 23.4273 21.0657C23.3018 21.0081 23.166 20.9765 23.028 20.973C22.7672 20.9685 22.5145 21.0634 22.321 21.2383C22.1275 21.4132 22.0078 21.6551 21.986 21.915C21.95 22.521 22.37 22.98 22.99 23.014ZM23 24C22.4696 23.9987 21.9614 23.7867 21.5873 23.4107C21.2131 23.0347 21.0037 22.5254 21.005 21.995C21.0063 21.4646 21.2183 20.9564 21.5943 20.5823C21.9703 20.2081 22.4796 19.9987 23.01 20C23.2725 20.0001 23.5323 20.0522 23.7746 20.1531C24.0169 20.254 24.2369 20.4019 24.4218 20.5881C24.6068 20.7743 24.7531 20.9953 24.8523 21.2383C24.9515 21.4813 25.0017 21.7415 25 22.004C25.0004 22.2665 24.9489 22.5265 24.8486 22.769C24.7482 23.0115 24.6009 23.2319 24.4152 23.4173C24.2295 23.6028 24.0089 23.7497 23.7662 23.8497C23.5235 23.9497 23.2625 24.0008 23 24ZM27.99 23.014C28.52 23.042 28.986 22.614 29.018 22.068C29.0283 21.9303 29.0106 21.792 28.9659 21.6614C28.9211 21.5308 28.8503 21.4107 28.7577 21.3083C28.6652 21.2059 28.5527 21.1234 28.4273 21.0657C28.3018 21.0081 28.166 20.9765 28.028 20.973C27.7672 20.9685 27.5145 21.0634 27.321 21.2383C27.1275 21.4132 27.0078 21.6551 26.986 21.915C26.95 22.521 27.37 22.98 27.99 23.014ZM28 24C27.4696 23.9987 26.9614 23.7867 26.5873 23.4107C26.2131 23.0347 26.0037 22.5254 26.005 21.995C26.0063 21.4646 26.2183 20.9564 26.5943 20.5823C26.9703 20.2081 27.4796 19.9987 28.01 20C28.2725 20.0001 28.5323 20.0522 28.7746 20.1531C29.0169 20.254 29.2369 20.4019 29.4218 20.5881C29.6068 20.7743 29.7531 20.9953 29.8523 21.2383C29.9515 21.4813 30.0017 21.7415 30 22.004C30.0004 22.2665 29.9489 22.5265 29.8486 22.769C29.7482 23.0115 29.6009 23.2319 29.4152 23.4173C29.2295 23.6028 29.0089 23.7497 28.7662 23.8497C28.5235 23.9497 28.2625 24.0008 28 24Z" fill="white"/>
</g>
</g>
</g>
<defs>
<clipPath id="clip0_5_73">
<rect width="45" height="45" fill="white"/>
</clipPath>
</defs>
</svg>
