<svg xmlns="http://www.w3.org/2000/svg" xmlns:xlink="http://www.w3.org/1999/xlink" width="45" height="45" viewBox="0 0 45 45">
    <defs>
        <path id="a" d="M.086.027h9.82v15.941H.086z"/>
    </defs>
    <g fill="none" fill-rule="evenodd">
        <circle cx="22.5" cy="22.5" r="22.5" fill="#D95D1D"/>
        <g transform="translate(18 9)">
            <mask id="b" fill="#fff">
                <use xlink:href="#a"/>
            </mask>
            <path fill="#FFF" d="M1.93 7.95h.003c0 1.324-.011 2.648.004 3.972.013 1.16 1.236 2.306 2.585 2.45 1.912.205 3.537-1.004 3.54-2.644a988.71 988.71 0 0 0-.006-7.43 2.786 2.786 0 0 0-.174-.953c-.45-1.197-1.908-1.941-3.354-1.741-1.509.209-2.596 1.28-2.598 2.565-.002 1.26 0 2.521 0 3.782m7.974.098c0 1.225.004 2.45 0 3.674-.006 1.834-1.322 3.414-3.344 4.019-2.816.843-5.939-.762-6.396-3.292a3.973 3.973 0 0 1-.073-.697c-.005-2.566-.01-5.133 0-7.7C.099 2.399 1.544.796 3.377.258 5.514-.37 7.801.328 9.026 1.83c.587.722.873 1.532.877 2.41.006 1.27.001 2.54.001 3.81" mask="url(#b)"/>
        </g>
        <path fill="#FFF" d="M22.111 34.236v-1.533c0-.763-.014-1.526.008-2.288.008-.283-.091-.37-.34-.415-1.508-.27-2.792-.99-3.843-2.138-1.266-1.381-1.904-3.037-1.936-4.94-.009-.537.347-.905.852-.919.458-.013.827.338.84.861.029 1.237.374 2.354 1.09 3.347 1.254 1.743 3.383 2.522 5.452 1.992 2.189-.56 3.748-2.37 4.025-4.678.031-.256.03-.515.066-.77a.847.847 0 0 1 .94-.751c.41.034.735.412.735.88 0 1.369-.342 2.64-1.046 3.802-.91 1.503-2.199 2.51-3.813 3.068-.35.121-.728.159-1.087.255-.087.023-.218.127-.219.195-.013 1.326-.01 2.653-.01 4.014.12.006.221.017.322.017.64.001 1.281-.002 1.922.002.536.002.895.345.902.856.008.544-.323.9-.88.902-2.075.007-4.149.006-6.223.001-.534-.001-.894-.356-.912-.863-.016-.496.332-.868.88-.887.64-.022 1.28-.009 1.921-.01h.354"/>
    </g>
</svg>
