<svg width="45" height="45" viewBox="0 0 45 45" fill="none" xmlns="http://www.w3.org/2000/svg">
<g id="icon-lunch 1" clip-path="url(#clip0_5_84)">
<g id="Group">
<path id="Vector" d="M22.5 45C34.9264 45 45 34.9264 45 22.5C45 10.0736 34.9264 0 22.5 0C10.0736 0 0 10.0736 0 22.5C0 34.9264 10.0736 45 22.5 45Z" fill="#E5C295"/>
<g id="Group_2">
<g id="Mask group">
<mask id="mask0_5_84" style="mask-type:luminance" maskUnits="userSpaceOnUse" x="8" y="12" width="30" height="19">
<g id="Group_3">
<path id="Vector_2" d="M8 12H38V31H8V12Z" fill="white"/>
</g>
</mask>
<g mask="url(#mask0_5_84)">
<path id="Vector_3" fill-rule="evenodd" clip-rule="evenodd" d="M21.89 13.255C21.927 13.423 21.96 13.581 21.999 13.738C22.026 13.849 22.053 13.962 22.094 14.068C22.238 14.44 22.288 14.468 22.679 14.453C22.936 14.444 23.193 14.443 23.451 14.437C23.513 14.436 23.577 14.435 23.638 14.423C23.738 14.405 23.807 14.355 23.833 14.253C23.913 13.945 24.001 13.64 24.086 13.334C24.092 13.309 24.094 13.283 24.098 13.255H21.89ZM34.673 26.048C34.602 23.312 33.043 19.466 28.898 17.173C25.038 15.037 20.058 15.181 16.312 17.647C14.422 18.891 13.032 20.52 12.148 22.523C11.6542 23.6366 11.3691 24.8315 11.307 26.048H25.565C26.255 26.048 26.944 26.058 27.633 26.065C27.797 26.0619 27.9562 26.1205 28.079 26.2293C28.2018 26.338 28.2792 26.4889 28.296 26.6521C28.326 26.9691 28.079 27.2661 27.737 27.317C27.634 27.333 27.527 27.334 27.422 27.334L10.408 27.335H10.263C10.303 27.375 10.327 27.4 10.353 27.424C11.127 28.149 11.904 28.872 12.674 29.601C12.7273 29.6532 12.7908 29.6939 12.8604 29.7206C12.9301 29.7472 13.0045 29.7593 13.079 29.7561C14.256 29.7551 15.434 29.757 16.611 29.757L32.821 29.755C32.9287 29.7578 33.0358 29.7392 33.1363 29.7002C33.2367 29.6612 33.3284 29.6027 33.406 29.528C34.048 28.928 34.692 28.33 35.338 27.734C35.462 27.6191 35.596 27.514 35.755 27.379C35.679 27.36 35.628 27.337 35.578 27.337C34.302 27.335 33.026 27.336 31.751 27.334C31.672 27.3334 31.5933 27.3227 31.517 27.302C31.195 27.216 30.987 26.915 31.041 26.607C31.102 26.2491 31.394 26.057 31.731 26.052C32.672 26.0391 33.614 26.048 34.556 26.048H34.673ZM20.89 14.599C20.767 14.14 20.648 13.7 20.532 13.259C20.49 13.104 20.448 12.947 20.418 12.789C20.328 12.314 20.557 12.04 21.07 12.006C21.165 11.999 21.26 12 21.357 12C22.51 12 23.663 12 24.817 12.003C24.931 12.003 25.048 12.018 25.159 12.045C25.442 12.114 25.609 12.298 25.593 12.572C25.581 12.792 25.523 13.012 25.47 13.228C25.357 13.681 25.232 14.133 25.109 14.599C28.112 15.123 30.671 16.399 32.716 18.544C34.761 20.689 35.816 23.22 36.038 26.088C36.304 26.088 36.564 26.087 36.824 26.089C37.028 26.091 37.234 26.085 37.437 26.105C37.971 26.157 38.127 26.717 37.895 27.034C37.843 27.104 37.785 27.174 37.72 27.235C36.485 28.393 35.247 29.548 34.014 30.708C33.778 30.931 33.49 30.997 33.174 30.998C32.524 31.001 31.873 30.9991 31.222 30.9991L13.237 31C13.042 31 12.847 31.0011 12.653 30.9881C12.3865 30.9689 12.1355 30.8555 11.945 30.668C10.7381 29.537 9.53277 28.4044 8.329 27.2701C8.23089 27.1796 8.14665 27.0751 8.079 26.96C7.863 26.577 8.107 26.144 8.568 26.108C8.913 26.082 9.261 26.085 9.608 26.089C9.936 26.093 9.988 26.055 10.013 25.752C10.179 23.803 10.749 21.969 11.871 20.315C13.863 17.377 16.65 15.475 20.292 14.722L20.891 14.6L20.89 14.599Z" fill="white"/>
</g>
</g>
</g>
</g>
</g>
<defs>
<clipPath id="clip0_5_84">
<rect width="45" height="45" fill="white"/>
</clipPath>
</defs>
</svg>
