<svg xmlns="http://www.w3.org/2000/svg" xmlns:xlink="http://www.w3.org/1999/xlink" width="45" height="45" viewBox="0 0 45 45">
    <defs>
        <path id="a" d="M.082.008h24.814v13.965H.082z"/>
    </defs>
    <g fill="none" fill-rule="evenodd">
        <circle cx="22.5" cy="22.5" r="22.5" fill="#D95D1D"/>
        <g transform="translate(11 20)">
            <mask id="b" fill="#fff">
                <use xlink:href="#a"/>
            </mask>
            <path fill="#FFF" d="M22.93 4.73c.01-1.063-.754-2.042-1.951-2.505-.645-.25-.65-.248-.645.42.008 1.363.029 2.726-.287 4.07-.058.246-.315.575-.13.72.22.171.578-.042.862-.131 1.28-.4 2.142-1.44 2.151-2.574M5.764.034c1.374 0 2.749-.003 4.123.003.29.001.581.024.87.059.494.059.845.423.858.867.015.458-.343.854-.85.92-.191.025-.387.017-.582.017-2.555 0-5.11.007-7.664-.007-.356-.002-.485.076-.473.433.042 1.203-.064 2.409.171 3.606.96 4.895 6.877 7.649 11.57 5.396 2.808-1.348 4.292-3.495 4.528-6.447.07-.878.033-1.754.055-2.632.007-.28-.103-.357-.387-.353-.944.013-1.889.003-2.833.005-.333 0-.632-.073-.863-.317-.479-.504-.231-1.273.476-1.472.106-.03.218-.06.326-.058 1.844.012 3.699-.174 5.528.125 2.172.355 3.887 1.94 4.211 3.85.314 1.848-.47 3.271-2.029 4.352a5.476 5.476 0 0 1-3.273.986c-.488-.008-.782.157-1.064.526-2.496 3.264-5.924 4.604-10.068 3.896-4.268-.73-6.929-3.267-8.044-7.226C.12 5.748.077 4.91.083 4.068c.006-.982.01-1.964.031-2.946C.131.367.457.056 1.265.042 2.278.024 3.292.035 4.305.034h1.459" mask="url(#b)"/>
        </g>
        <path fill="#FFF" d="M27.97 11c.413.007.72.183.906.525.203.375.159.74-.144 1.048-.273.278-.575.533-.878.785-.177.147-.2.266-.027.432.282.272.55.556.817.84.47.502.482.964-.015 1.43a46.058 46.058 0 0 1-1.894 1.67c-.46.385-1.01.35-1.445-.049-.353-.324-.38-.855-.022-1.244.272-.295.58-.566.896-.822.207-.169.194-.284.009-.452-.29-.264-.566-.542-.833-.826-.452-.479-.46-.948.018-1.398.612-.575 1.253-1.123 1.89-1.674A1.16 1.16 0 0 1 27.97 11M17.984 11.857c.004.381-.116.604-.322.791-.27.246-.532.501-.82.729-.223.176-.207.307-.006.484.275.241.534.497.79.755.508.514.5 1.003-.033 1.482-.584.526-1.174 1.048-1.771 1.561-.513.44-1.091.452-1.518.047-.424-.4-.398-.95.076-1.397.255-.24.517-.475.788-.7.168-.14.168-.25.012-.399a23.765 23.765 0 0 1-.822-.837c-.483-.513-.482-.988.034-1.459a76.083 76.083 0 0 1 1.869-1.642 1.027 1.027 0 0 1 1.134-.175c.403.17.573.477.59.76M22.993 11.972c-.017.305-.163.533-.376.726-.27.244-.537.492-.822.72-.214.17-.233.296-.003.475.288.223.558.47.818.722.496.482.53.946.036 1.42a33.25 33.25 0 0 1-1.954 1.722 1.033 1.033 0 0 1-1.408-.072c-.38-.39-.378-.907.03-1.309.277-.274.568-.538.875-.784.18-.144.161-.244.014-.386-.292-.28-.584-.561-.856-.859-.46-.503-.469-.945.011-1.394.622-.582 1.27-1.14 1.92-1.697.331-.284.727-.331 1.132-.145.385.178.556.493.583.86"/>
    </g>
</svg>
