<svg width="45" height="45" viewBox="0 0 45 45" fill="none" xmlns="http://www.w3.org/2000/svg">
<g id="icon-coffee-break 1" clip-path="url(#clip0_5_121)">
<g id="Group">
<path id="Vector" d="M22.5 45C34.9264 45 45 34.9264 45 22.5C45 10.0736 34.9264 0 22.5 0C10.0736 0 0 10.0736 0 22.5C0 34.9264 10.0736 45 22.5 45Z" fill="#E5C295"/>
<g id="Group_2">
<g id="Mask group">
<mask id="mask0_5_121" style="mask-type:luminance" maskUnits="userSpaceOnUse" x="11" y="20" width="25" height="14">
<g id="Group_3">
<path id="Vector_2" d="M11.082 20.0081H35.896V33.9731H11.082V20.0081Z" fill="white"/>
</g>
</mask>
<g mask="url(#mask0_5_121)">
<path id="Vector_3" fill-rule="evenodd" clip-rule="evenodd" d="M33.93 24.7301C33.94 23.6671 33.176 22.6881 31.979 22.2251C31.334 21.9751 31.329 21.9771 31.334 22.6451C31.342 24.0081 31.363 25.3711 31.047 26.7151C30.989 26.9611 30.732 27.2901 30.917 27.4351C31.137 27.6061 31.495 27.3931 31.779 27.3041C33.059 26.9041 33.921 25.8641 33.93 24.7301ZM16.764 20.0341C18.138 20.0341 19.513 20.0311 20.887 20.0371C21.177 20.0381 21.468 20.0611 21.757 20.0961C22.251 20.1551 22.602 20.5191 22.615 20.9631C22.63 21.4211 22.272 21.8171 21.765 21.8831C21.574 21.9081 21.378 21.9001 21.183 21.9001C18.628 21.9001 16.073 21.9071 13.519 21.8931C13.163 21.8911 13.034 21.9691 13.046 22.3261C13.088 23.5291 12.982 24.7351 13.217 25.9321C14.177 30.8271 20.094 33.5811 24.787 31.3281C27.595 29.9801 29.079 27.8331 29.315 24.8811C29.385 24.0031 29.348 23.1271 29.37 22.2491C29.377 21.9691 29.267 21.8921 28.983 21.8961C28.039 21.9091 27.094 21.8991 26.15 21.9011C25.817 21.9011 25.518 21.8281 25.287 21.5841C24.808 21.0801 25.056 20.3111 25.763 20.1121C25.869 20.0821 25.981 20.0521 26.089 20.0541C27.933 20.0661 29.788 19.8801 31.617 20.1791C33.789 20.5341 35.504 22.1191 35.828 24.0291C36.142 25.8771 35.358 27.3001 33.799 28.3811C32.8412 29.0506 31.6943 29.3961 30.526 29.3671C30.038 29.3591 29.744 29.5241 29.462 29.8931C26.966 33.1571 23.538 34.4971 19.394 33.7891C15.126 33.0591 12.465 30.5221 11.35 26.5631C11.12 25.7481 11.077 24.9101 11.083 24.0681C11.089 23.0861 11.093 22.1041 11.114 21.1221C11.131 20.3671 11.457 20.0561 12.265 20.0421C13.278 20.0241 14.292 20.0351 15.305 20.0341H16.764Z" fill="white"/>
</g>
</g>
</g>
<path id="Vector_4" fill-rule="evenodd" clip-rule="evenodd" d="M27.97 10.9999C28.383 11.0069 28.69 11.1829 28.876 11.5249C29.079 11.8999 29.035 12.2649 28.732 12.5729C28.459 12.8509 28.157 13.1059 27.854 13.3579C27.677 13.5049 27.654 13.6239 27.827 13.7899C28.109 14.0619 28.377 14.3459 28.644 14.6299C29.114 15.1319 29.126 15.5939 28.629 16.0599C28.013 16.6338 27.3815 17.1907 26.735 17.7299C26.275 18.1149 25.725 18.0799 25.29 17.6809C24.937 17.3569 24.91 16.8259 25.268 16.4369C25.54 16.1419 25.848 15.8709 26.164 15.6149C26.371 15.4459 26.358 15.3309 26.173 15.1629C25.883 14.8989 25.607 14.6209 25.34 14.3369C24.888 13.8579 24.88 13.3889 25.358 12.9389C25.97 12.3639 26.611 11.8159 27.248 11.2649C27.4515 11.0971 27.7062 11.0036 27.97 10.9999ZM17.984 11.8569C17.988 12.2379 17.868 12.4609 17.662 12.6479C17.392 12.8939 17.13 13.1489 16.842 13.3769C16.619 13.5529 16.635 13.6839 16.836 13.8609C17.111 14.1019 17.37 14.3579 17.626 14.6159C18.134 15.1299 18.126 15.6189 17.593 16.0979C17.009 16.6239 16.419 17.1459 15.822 17.6589C15.309 18.0989 14.731 18.1109 14.304 17.7059C13.88 17.3059 13.906 16.7559 14.38 16.3089C14.635 16.0689 14.897 15.8339 15.168 15.6089C15.336 15.4689 15.336 15.3589 15.18 15.2099C14.8992 14.9377 14.6251 14.6586 14.358 14.3729C13.875 13.8599 13.876 13.3849 14.392 12.9139C15.006 12.3564 15.6291 11.809 16.261 11.2719C16.4111 11.1332 16.5993 11.0425 16.8013 11.0113C17.0033 10.9801 17.21 11.0099 17.395 11.0969C17.798 11.2669 17.968 11.5739 17.985 11.8569M22.993 11.9719C22.976 12.2769 22.83 12.5049 22.617 12.6979C22.347 12.9419 22.08 13.1899 21.795 13.4179C21.581 13.5879 21.562 13.7139 21.792 13.8929C22.08 14.1159 22.35 14.3629 22.61 14.6149C23.106 15.0969 23.14 15.5609 22.646 16.0349C22.0174 16.6342 21.3656 17.2087 20.692 17.7569C20.4918 17.9255 20.2352 18.0118 19.9738 17.9985C19.7125 17.9851 19.4659 17.873 19.284 17.6849C18.904 17.2949 18.906 16.7779 19.314 16.3759C19.591 16.1019 19.882 15.8379 20.189 15.5919C20.369 15.4479 20.35 15.3479 20.203 15.2059C19.911 14.9259 19.619 14.6449 19.347 14.3469C18.887 13.8439 18.878 13.4019 19.358 12.9529C19.98 12.3709 20.628 11.8129 21.278 11.2559C21.609 10.9719 22.005 10.9249 22.41 11.1109C22.795 11.2889 22.966 11.6039 22.993 11.9709" fill="white"/>
</g>
</g>
<defs>
<clipPath id="clip0_5_121">
<rect width="45" height="45" fill="white"/>
</clipPath>
</defs>
</svg>
