<svg xmlns="http://www.w3.org/2000/svg" width="59" height="59" viewBox="0 0 59 59">
    <g fill="#FFF" fill-rule="evenodd">
        <path d="M29.446 51.419c2.714 0 5.429.025 8.143-.013.994-.014 2.007-.083 2.977-.288 6.429-1.355 10.822-6.809 10.842-13.433.017-5.45.019-10.9-.008-16.349a14.39 14.39 0 0 0-.295-2.914C49.74 12.035 44.319 7.639 37.772 7.61c-5.51-.025-11.021-.01-16.532.001-.671.002-1.35.04-2.012.147-6.869 1.101-11.613 6.67-11.626 13.641-.01 5.409-.016 10.817.012 16.226.005.993.088 2.006.295 2.976 1.359 6.367 6.754 10.753 13.27 10.813 2.756.025 5.511.004 8.267.005zM.026 29.523c0-4.776-.01-9.551.004-14.327.007-2.413.09-4.832 1.038-7.098C2.956 3.58 6.368.965 11.203.273 12.63.068 14.09.019 15.535.016c9.306-.022 18.613-.019 27.92-.006 2.388.004 4.797.036 7.062.908 4.809 1.85 7.537 5.392 8.24 10.482.133.966.166 1.952.169 2.93.035 9.775.06 19.551.074 29.327.003 2.372-.09 4.75-.969 6.989-1.739 4.43-4.959 7.143-9.66 7.977-1.378.244-2.798.342-4.2.347-9.816.034-19.632.034-29.449.025-2.481-.003-4.95-.224-7.226-1.308-3.932-1.872-6.365-4.963-7.1-9.272-.267-1.56-.354-3.163-.37-4.749-.046-4.714-.017-9.428-.017-14.143h.017z"/>
        <path d="M39.2 17.477c.006 1.485 1.214 2.718 2.669 2.723 1.44.006 2.668-1.24 2.68-2.719.011-1.51-1.21-2.745-2.707-2.733-1.468.01-2.648 1.23-2.642 2.73m1.624 12.029c.006-6.027-4.864-11.002-10.787-11.018-5.957-.016-10.86 4.948-10.863 11.002-.004 6.03 4.862 11.004 10.784 11.02 5.95.017 10.86-4.955 10.866-11.004m-28.822-.069c0-2.722-.005-5.445 0-8.168.012-5.732 4.263-10.066 9.89-10.075 5.395-.008 10.789-.006 16.183 0 5.667.006 9.914 4.332 9.92 10.106.007 5.466.007 10.932 0 16.398-.006 5.774-4.251 10.099-9.92 10.106-5.374.008-10.747.006-16.121 0-5.709-.005-9.945-4.323-9.952-10.137-.003-2.743 0-5.486 0-8.23"/>
        <path d="M29.946 36.62c-3.848-.022-6.961-3.23-6.946-7.159.015-3.915 3.167-7.094 7.022-7.082 3.875.013 7.005 3.239 6.978 7.192-.027 3.91-3.19 7.072-7.054 7.05"/>
    </g>
</svg>
