<svg xmlns="http://www.w3.org/2000/svg" width="59" height="59" viewBox="0 0 59 59">
    <path fill="#FFF" fill-rule="evenodd" d="M50.48 18.768c-1.352.526-2.725.963-4.235 1.125 1.895-1.514 3.216-3.252 3.163-4.157-.14.072-.273.138-.403.208a16.035 16.035 0 0 1-3.973 1.494c-.277.064-.468.032-.685-.18a7.664 7.664 0 0 0-9.258-1.122c-2.904 1.708-4.18 4.858-3.75 7.82.087.6.104.597-.481.557-2.7-.184-5.265-.881-7.706-2.039-2.868-1.359-5.318-3.264-7.37-5.682-.194-.228-.285-.26-.444.035-1.436 2.673-1.024 6.252.975 8.556.443.51.958.938 1.55 1.428-1.14-.065-2.129-.304-3.051-.77-.353-.18-.426-.08-.39.259.01.095 0 .192.012.286.42 3.3 2.168 5.549 5.305 6.695.224.082.454.145.682.216a4.632 4.632 0 0 1-1.596.278c-.543-.002-1.085-.002-1.697-.114.547 1.598 1.439 2.852 2.727 3.82 1.284.963 2.745 1.463 4.355 1.59-3.262 2.52-6.953 3.525-11.026 3.193.002.181.116.201.189.245a21.897 21.897 0 0 0 9.685 3.127c1.803.148 3.595.047 5.382-.228 4.412-.677 8.243-2.542 11.455-5.637 2.624-2.527 4.482-5.554 5.656-8.998.84-2.461 1.268-4.993 1.163-7.6-.013-.34.092-.548.368-.746.801-.574 1.51-1.26 2.16-2 .455-.517.945-1.018 1.233-1.664l.022-.013-.018.018zM59 8.113v42.693c-.024.09-.056.18-.07.273-.529 3.576-2.473 6.03-5.829 7.37-.739.294-1.526.382-2.295.551H7.866c-.126-.127-.297-.12-.454-.152-3.3-.656-5.568-2.557-6.834-5.666-.31-.764-.41-1.578-.578-2.376V8.194c.074-.107.064-.233.079-.354C.54 4.058 3.438.932 7.169.186c.235-.047.494-.014.698-.186H51.05c.146.123.332.113.502.145 3.326.639 5.596 2.553 6.873 5.675.301.738.395 1.525.574 2.293z"/>
</svg>
