<svg xmlns="http://www.w3.org/2000/svg" width="45" height="45" viewBox="0 0 45 45">
    <g fill="none" fill-rule="evenodd">
        <circle cx="22.5" cy="22.5" r="22.5" fill="#D95D1D"/>
        <g fill="#FFF">
            <path d="M14.486 30.564c1.3-.607 2.508-1.174 3.72-1.735.55-.255.995-.193 1.304.167a.84.84 0 0 1-.154 1.21 2.192 2.192 0 0 1-.332.19c-1.744.822-3.488 1.647-5.238 2.457-.2.093-.45.164-.666.143-.599-.058-.891-.51-.77-1.136.242-1.25.484-2.5.742-3.746.066-.314.01-.53-.261-.758-1.533-1.296-2.52-2.89-2.772-4.829-.301-2.31.568-4.255 2.259-5.893 2.049-1.986 4.627-2.987 7.48-3.416 3.28-.494 6.475-.166 9.487 1.17 2.488 1.104 4.476 2.734 5.355 5.294.684 1.994.379 3.897-.794 5.663-1.32 1.988-3.268 3.251-5.556 4.08a16.51 16.51 0 0 1-5.685.971c-.762 0-1.219-.522-.991-1.137.121-.328.383-.529.747-.563.659-.063 1.325-.068 1.98-.151 2.807-.355 5.35-1.247 7.29-3.292 2.115-2.23 1.953-5.356-.33-7.456-1.845-1.698-4.106-2.54-6.603-2.888-2.446-.34-4.857-.155-7.187.652-2.078.72-3.87 1.813-4.965 3.695-1.033 1.775-.88 3.55.143 5.282.46.779 1.102 1.425 1.844 1.972.464.343.612.73.484 1.28-.208.893-.348 1.799-.53 2.774"/>
            <path d="M16.99 23.014c.53.028.996-.4 1.028-.946a1.019 1.019 0 0 0-.99-1.095 1.028 1.028 0 0 0-1.042.942c-.036.606.384 1.065 1.004 1.099M17 24a2 2 0 0 1 .01-4A1.991 1.991 0 0 1 19 22.004 1.993 1.993 0 0 1 17.001 24M22.99 23.014c.53.028.996-.4 1.028-.946a1.019 1.019 0 0 0-.99-1.095 1.028 1.028 0 0 0-1.042.942c-.036.606.384 1.065 1.004 1.099M23 24a2 2 0 0 1 .01-4A1.991 1.991 0 0 1 25 22.004 1.993 1.993 0 0 1 23.001 24M27.99 23.014c.53.028.996-.4 1.028-.946a1.019 1.019 0 0 0-.99-1.095 1.028 1.028 0 0 0-1.042.942c-.036.606.384 1.065 1.004 1.099M28 24a2 2 0 0 1 .01-4A1.991 1.991 0 0 1 30 22.004 1.993 1.993 0 0 1 28.001 24"/>
        </g>
    </g>
</svg>
