<svg xmlns="http://www.w3.org/2000/svg" xmlns:xlink="http://www.w3.org/1999/xlink" width="34" height="34" viewBox="0 0 34 34">
    <defs>
        <path id="a" d="M0 0h34v34H0z"/>
    </defs>
    <g fill="none" fill-rule="evenodd">
        <mask id="b" fill="#fff">
            <use xlink:href="#a"/>
        </mask>
        <path fill="#FFF" d="M7.718 11.023c.23-.024.462-.036.69-.074 1.261-.21 2.17-1.19 2.23-2.398.067-1.319-.694-2.39-1.945-2.729a3.676 3.676 0 0 0-1.529-.069c-1.706.26-2.704 1.882-2.148 3.497.375 1.09 1.397 1.755 2.702 1.773zM5.183 28.446h5.102V13.122H5.183v15.324zm13.105.006v-.275-3.018c.003-1.889-.001-3.777.014-5.666.008-.933.455-1.663 1.188-2.208 1.505-1.12 3.514-.445 3.991 1.353.138.52.195 1.073.199 1.612.02 2.639.009 5.278.009 7.917v.28h5.123c.004-.086.01-.16.01-.232 0-2.92.013-5.839-.01-8.758a11.138 11.138 0 0 0-.21-2.012c-.25-1.29-.797-2.443-1.8-3.34-.993-.89-2.188-1.282-3.5-1.351-1.989-.105-3.632.545-4.8 2.207-.054.078-.111.152-.167.228l-.047-.014v-2.05h-5.12v15.327h5.12zM34 17.014v14.402c0 1.525-1.061 2.583-2.597 2.583H2.59c-1.52 0-2.59-1.06-2.59-2.567V2.554C.001 1.056 1.063.002 2.576.002c9.62-.003 19.24-.003 28.861 0 1.51 0 2.563 1.06 2.563 2.56v14.452z" mask="url(#b)"/>
    </g>
</svg>
