<svg xmlns="http://www.w3.org/2000/svg" width="45" height="45" viewBox="0 0 45 45">
    <g fill="none" fill-rule="evenodd">
        <circle cx="22.5" cy="22.5" r="22.5" fill="#D95D1D"/>
        <g fill="#FFF">
            <path d="M33.427 16.205h-.475c-7.316 0-14.632 0-21.948-.003-.193 0-.403-.013-.577-.084-.312-.127-.47-.473-.417-.8.05-.316.313-.573.662-.63.129-.021.263-.016.394-.016h10.58v-1.533c.002-.16-.002-.323.02-.481a.75.75 0 0 1 .798-.657c.41.018.727.308.737.72.015.63.004 1.262.004 1.95h10.747c.78 0 1.048.262 1.048 1.023 0 4.103 0 8.207-.003 12.31 0 .169-.009.346-.062.505-.104.313-.405.498-.735.49-.325-.006-.623-.21-.714-.521a1.836 1.836 0 0 1-.057-.507c-.003-3.782-.002-7.564-.002-11.346v-.42zM11.563 31.4h.515l21.786.001c.154 0 .31-.003.46.02.41.06.695.414.675.82a.787.787 0 0 1-.715.752c-.098.01-.198.007-.297.007H11.014c-.76 0-1.014-.256-1.014-1.025v-13.02c0-.642.28-.97.806-.955a.73.73 0 0 1 .732.643c.026.154.024.313.024.47l.001 11.805v.482z"/>
            <path d="M17.985 23.52c.795.043 1.494-.6 1.542-1.418a1.528 1.528 0 0 0-1.486-1.643c-.79-.033-1.516.623-1.563 1.413-.053.909.576 1.598 1.507 1.648m.017 1.48a3 3 0 1 1 .016-6A2.987 2.987 0 0 1 21 22.006 2.99 2.99 0 0 1 18.002 25M18.43 26c1.779.01 3.247.833 4.386 2.5.274.402.236.924-.074 1.261-.308.336-.74.325-1.036-.077-.48-.654-1.016-1.199-1.693-1.53-1.54-.755-3.4-.236-4.51 1.26-.132.177-.274.361-.442.477-.289.198-.665.082-.885-.223-.223-.31-.241-.763-.015-1.125a5.454 5.454 0 0 1 2.253-2.056c.646-.318 1.316-.499 2.017-.486M27.482 22.003h2.561c.584.001.95.38.957.988.007.608-.363 1.007-.94 1.008-1.729.001-3.458.002-5.188-.001-.418 0-.718-.253-.83-.676-.108-.408-.006-.886.286-1.11a.993.993 0 0 1 .56-.2c.864-.02 1.73-.009 2.594-.009M27.486 20.998c-.866 0-1.732.003-2.598-.001-.551-.003-.882-.374-.888-.981-.006-.626.329-1.012.896-1.013 1.754-.004 3.508-.004 5.262 0 .442.002.715.266.815.752.087.423-.042.884-.348 1.09a.956.956 0 0 1-.508.146c-.877.015-1.754.007-2.631.007M28.486 26.996c-.512 0-1.023.01-1.534-.002-.584-.015-.963-.429-.952-1.017.01-.573.384-.965.954-.97a182.73 182.73 0 0 1 3.105 0c.546.005.941.435.941.993 0 .556-.394.98-.943.993-.524.013-1.048.003-1.571.003"/>
        </g>
    </g>
</svg>
