<svg xmlns="http://www.w3.org/2000/svg" width="312" height="147.926" viewBox="0 0 312 147.926"><path fill="#25354B" d="M173.75 101.139v1.5h-11.285v-1.5c0-.848.522-1.239 1.501-1.304.065 0 .195-.065.391-.065s.522-.065.979-.065c.457 0 .979 0 1.631-.064L162.4 88.354l-.326-.848h-22.047l-.326.848-4.566 11.285c.652.064 1.239.064 1.696.064s.717.065.914.065c.195 0 .326.065.391.065.979.065 1.5.457 1.5 1.304v1.5h-11.219v-1.5c0-.782.392-1.239 1.239-1.304l2.088-.195 17.677-43.182h3.327l17.611 43.182 2.152.195c.847.067 1.239.524 1.239 1.306m-32.68-16.111h20.025l-9.132-22.504c-.13-.392-.326-.783-.456-1.239-.131-.457-.327-.913-.457-1.435-.13.521-.326.978-.457 1.435-.13.457-.326.913-.457 1.305l-9.066 22.438zm51.01 16.307v1.305h-12.523v-1.305c0-.717.456-1.108 1.305-1.174h1.5c.521 0 1.174-.131 1.892-.131V57.763c-.587 0-1.109-.065-1.565-.065h-.979c-.196 0-.392-.065-.522-.065h-.325c-.849-.065-1.305-.457-1.305-1.174v-1.304h7.827v44.876c.587 0 1.108.066 1.565.066s.783.065.979.065h.847c.848.065 1.304.456 1.304 1.173m18.395 0v1.305h-12.524v-1.305c0-.717.457-1.108 1.305-1.174h1.5c.522 0 1.175-.131 1.892-.131V57.763c-.587 0-1.108-.065-1.565-.065h-.978c-.196 0-.392-.065-.522-.065h-.326c-.848-.065-1.305-.457-1.305-1.174v-1.304h7.827v44.876c.588 0 1.109.066 1.566.066.456 0 .782.065.978.065h.848c.847.065 1.304.456 1.304 1.173m58.083-30.919c1.826.783 3.393 1.892 4.631 3.327 1.239 1.435 2.283 3.196 2.936 5.283s.979 4.371.979 6.915-.326 4.827-.979 6.849c-.652 2.022-1.696 3.849-2.936 5.284-1.238 1.435-2.805 2.544-4.631 3.327s-3.849 1.174-6.196 1.174c-2.349 0-4.436-.391-6.262-1.174a13.392 13.392 0 0 1-4.697-3.327c-1.304-1.435-2.218-3.261-2.869-5.284-.653-2.022-1.044-4.305-1.044-6.849s.391-4.827 1.044-6.915c.651-2.087 1.565-3.848 2.869-5.283a13.401 13.401 0 0 1 4.697-3.327c1.826-.783 3.913-1.239 6.262-1.239 2.347 0 4.369.456 6.196 1.239m-1.174 28.766c1.435-.652 2.674-1.631 3.652-2.87s1.696-2.739 2.152-4.5c.457-1.761.718-3.718.718-5.871s-.261-4.11-.718-5.871c-.456-1.761-1.174-3.262-2.152-4.501s-2.218-2.283-3.652-2.935c-1.436-.652-3.066-.979-5.022-.979-1.957 0-3.653.326-5.088.979-1.436.652-2.675 1.696-3.653 2.935s-1.63 2.74-2.152 4.501c-.521 1.761-.718 3.718-.718 5.871s.196 4.109.718 5.871c.522 1.761 1.174 3.261 2.152 4.5s2.218 2.218 3.653 2.87c1.435.652 3.131.979 5.088.979 1.955-.001 3.586-.327 5.022-.979m36.071-28.766c1.827.783 3.393 1.892 4.632 3.327a14.825 14.825 0 0 1 2.935 5.283c.652 2.087.979 4.371.979 6.915s-.326 4.827-.979 6.849c-.651 2.022-1.696 3.849-2.935 5.284-1.239 1.435-2.805 2.544-4.632 3.327-1.826.783-3.848 1.174-6.196 1.174s-4.436-.391-6.262-1.174-3.392-1.892-4.696-3.327-2.218-3.261-2.87-5.284c-.652-2.022-1.044-4.305-1.044-6.849s.392-4.827 1.044-6.915 1.565-3.848 2.87-5.283 2.87-2.544 4.696-3.327 3.913-1.239 6.262-1.239 4.37.456 6.196 1.239m-1.174 28.766a9.79 9.79 0 0 0 3.652-2.87c.979-1.239 1.696-2.739 2.153-4.5.456-1.761.718-3.718.718-5.871s-.262-4.11-.718-5.871c-.457-1.761-1.175-3.262-2.153-4.501-.978-1.239-2.217-2.283-3.652-2.935-1.435-.652-3.065-.979-5.022-.979s-3.652.326-5.088.979c-1.435.652-2.674 1.696-3.652 2.935s-1.631 2.74-2.153 4.501c-.521 1.761-.717 3.718-.717 5.871s.195 4.109.717 5.871c.522 1.761 1.175 3.261 2.153 4.5s2.218 2.218 3.652 2.87c1.436.652 3.131.979 5.088.979s3.588-.327 5.022-.979m-68.935-28.978c1.175.326 2.283.783 3.262 1.435h8.35v1.109c0 .522-.327.783-.913.848l-4.958.391c.587.848 1.109 1.761 1.436 2.805.325 1.043.456 2.152.456 3.326 0 1.565-.261 2.936-.848 4.24-.587 1.305-1.305 2.348-2.349 3.262-1.043.913-2.218 1.565-3.652 2.087-1.435.521-3 .718-4.696.718-1.892 0-3.588-.196-5.088-.783-.913.522-1.631 1.109-2.152 1.826-.522.718-.783 1.436-.783 2.087 0 .914.326 1.631.979 2.152.652.522 1.565.848 2.609 1.109s2.283.327 3.652.392c1.37.065 2.805.196 4.24.261s2.805.195 4.174.391c1.37.196 2.675.521 3.719 1.043 1.043.522 1.957 1.109 2.608 2.022.653.913.914 2.087.914 3.522 0 1.37-.326 2.609-.979 3.848s-1.631 2.349-2.936 3.327c-1.305.978-2.739 1.695-4.566 2.282-1.826.587-3.913.913-6.131.913-2.283 0-4.305-.261-6.001-.717-1.696-.457-3.131-1.109-4.305-1.892-1.175-.783-2.022-1.696-2.609-2.74a6.958 6.958 0 0 1-.913-3.392 6.5 6.5 0 0 1 1.695-4.436c1.109-1.239 2.74-2.218 4.697-2.87-1.109-.392-1.957-.849-2.609-1.566s-.914-1.63-.914-2.87c0-.457.065-.913.262-1.435.195-.522.456-.979.783-1.5.325-.522.717-.914 1.238-1.37.522-.457 1.044-.848 1.696-1.174-1.565-.913-2.739-2.087-3.588-3.587-.848-1.5-1.304-3.196-1.304-5.153 0-1.565.326-3 .848-4.305s1.305-2.348 2.348-3.262c1.044-.913 2.218-1.565 3.653-2.087 1.435-.522 3-.783 4.762-.783a14.69 14.69 0 0 1 3.913.526m7.305 32.222c-.521-.652-1.174-1.109-2.087-1.435-.913-.326-1.957-.652-3.131-.783-1.175-.13-2.349-.196-3.653-.261s-2.479-.13-3.783-.196-2.479-.195-3.587-.391c-.848.326-1.631.717-2.349 1.109-.718.391-1.239.913-1.761 1.435a5.242 5.242 0 0 0-1.175 1.762c-.261.652-.456 1.304-.456 2.087 0 .979.195 1.892.718 2.674.521.783 1.239 1.5 2.152 2.087s2.152 1.109 3.522 1.435c1.369.326 2.935.522 4.696.522 1.631 0 3.196-.131 4.631-.522s2.674-.913 3.718-1.565 1.892-1.565 2.479-2.479c.588-.913.914-1.891.914-3 .001-1.044-.325-1.826-.848-2.479M233.15 87.75c1.108-.391 2.022-.979 2.739-1.696.718-.717 1.305-1.565 1.696-2.544s.587-2.153.587-3.392-.195-2.283-.587-3.326c-.392-1.044-.979-1.827-1.762-2.544a8.394 8.394 0 0 0-2.739-1.696c-1.044-.391-2.283-.587-3.652-.587-1.37 0-2.544.196-3.653.587a8.113 8.113 0 0 0-2.805 1.696c-.782.717-1.305 1.5-1.695 2.544-.392 1.043-.588 2.152-.588 3.392s.196 2.348.588 3.327c.391.979.913 1.827 1.695 2.544a8.08 8.08 0 0 0 2.805 1.696c1.109.391 2.283.587 3.653.587 1.37-.001 2.609-.197 3.718-.588"/><path fill="#FAA626" d="M51.688 0h1.739v27.829h-1.739z"/><path fill="#F4B723" d="M71.407 7.819l-16.838 6.615V0z"/><path fill="#25354B" d="M13.165 102.33l39.363-79.208 40.323 79.208z"/><path fill="#2F607C" d="M0 102.33l15.576-31.341 15.955 31.341z"/><path fill="#344960" d="M44.257 102.33l33.984-68.381 34.812 68.381z"/><path fill="#2F607C" d="M35.71 102.33l23.127-46.537 23.692 46.537z"/><path fill="#25354B" d="M133.5 128.177c-.115 0-.277.023-.507.023-.231 0-.485.022-.762.022v14.489c.277 0 .531.022.762.022.23 0 .392.023.507.023h.23c.3.023.438.161.438.415v.462h-5.075v-.462c0-.254.161-.392.461-.415h.23c.116 0 .277-.023.508-.023s.485-.022.761-.022v-14.489c-.276 0-.531-.022-.761-.022s-.392-.023-.508-.023h-.23c-.3-.022-.461-.161-.461-.415v-.462h5.075v.462c0 .254-.138.393-.438.415h-.23zm3.737 14.166a.918.918 0 0 1 .23-.347c.092-.092.185-.185.323-.23.139-.046.277-.093.438-.093.138 0 .277.047.416.093.138.046.23.139.323.23a.918.918 0 0 1 .23.347c.046.138.092.276.092.415 0 .161-.046.276-.092.415-.046.139-.138.23-.23.323-.093.092-.185.185-.323.23-.139.046-.277.092-.416.092-.3 0-.554-.114-.761-.322a.973.973 0 0 1-.3-.738c.001-.139.024-.278.07-.415m12.274-9.944c.646.276 1.199.668 1.638 1.176s.808 1.131 1.038 1.869c.231.738.347 1.546.347 2.445 0 .9-.116 1.707-.347 2.422-.23.716-.6 1.361-1.038 1.869s-.992.9-1.638 1.177c-.646.277-1.361.415-2.192.415s-1.569-.138-2.215-.415a4.718 4.718 0 0 1-1.661-1.177c-.462-.508-.785-1.153-1.016-1.869a7.866 7.866 0 0 1-.369-2.422c0-.899.139-1.707.369-2.445.231-.738.554-1.361 1.016-1.869a4.728 4.728 0 0 1 1.661-1.176c.646-.277 1.384-.439 2.215-.439s1.546.162 2.192.439m-.416 10.174c.507-.23.946-.577 1.292-1.016.346-.438.6-.969.761-1.592.162-.623.254-1.314.254-2.076s-.092-1.453-.254-2.076c-.161-.623-.415-1.154-.761-1.592a3.53 3.53 0 0 0-1.292-1.038c-.507-.231-1.084-.347-1.776-.347s-1.292.115-1.799.347c-.508.23-.946.6-1.292 1.038-.346.438-.576.969-.761 1.592s-.254 1.314-.254 2.076.07 1.453.254 2.076.415 1.154.761 1.592c.347.438.785.785 1.292 1.016.507.23 1.107.346 1.799.346s1.269-.115 1.776-.346m6.321-.23a.93.93 0 0 1 .23-.347c.093-.092.185-.185.323-.23s.276-.093.438-.093c.139 0 .276.047.415.093s.23.139.323.23a.906.906 0 0 1 .23.347c.046.138.093.276.093.415 0 .161-.047.276-.093.415s-.139.23-.23.323c-.093.092-.185.185-.323.23s-.276.092-.415.092c-.3 0-.554-.114-.762-.322a.977.977 0 0 1-.3-.738 1.36 1.36 0 0 1 .071-.415m17.856-3.161c0 .692-.115 1.315-.369 1.868a4.044 4.044 0 0 1-1.084 1.408c-.462.392-1.038.669-1.73.876-.692.208-1.453.301-2.33.301h-7.221v-.462c0-.254.139-.393.438-.415h.23c.116 0 .277-.023.508-.023s.484-.022.762-.022v-14.489c-.277 0-.531-.022-.762-.022s-.392-.023-.508-.023h-.23c-.3-.022-.461-.161-.461-.415v-.438h6.645c.923 0 1.729.093 2.422.277s1.246.461 1.685.807c.438.369.784.808.992 1.315.207.508.346 1.107.346 1.753 0 .439-.092.854-.23 1.246s-.369.762-.646 1.107c-.276.346-.646.623-1.061.877a5.135 5.135 0 0 1-1.408.576c1.292.186 2.284.601 2.977 1.27s1.035 1.543 1.035 2.628m-9.62-4.222h3.529c.762 0 1.407-.115 1.938-.301.531-.184.97-.438 1.315-.761.347-.323.601-.669.762-1.062.161-.392.23-.83.23-1.246 0-1.106-.346-1.914-1.038-2.491-.692-.554-1.776-.854-3.229-.854h-3.507v6.715zm8.444 4.199c0-.508-.115-.992-.3-1.408a3.064 3.064 0 0 0-.854-1.038 4.435 4.435 0 0 0-1.361-.669c-.53-.161-1.13-.23-1.822-.23h-4.106v6.875h4.083c1.431 0 2.515-.3 3.253-.923s1.107-1.477 1.107-2.607m13.149 4.014v.462h-1.959c-.231 0-.393-.116-.438-.323l-.162-1.477c-.323.3-.622.577-.923.83a5.013 5.013 0 0 1-.992.623c-.346.162-.691.3-1.084.393-.393.092-.83.139-1.292.139a3.75 3.75 0 0 1-1.13-.185 2.931 2.931 0 0 1-.992-.531 2.733 2.733 0 0 1-.692-.899c-.161-.369-.254-.831-.254-1.361 0-.484.139-.923.415-1.338.277-.416.692-.785 1.292-1.084.601-.301 1.361-.555 2.284-.738.923-.186 2.03-.301 3.322-.323v-1.2c0-1.062-.207-1.868-.669-2.445s-1.153-.854-2.054-.854c-.554 0-1.015.069-1.407.23-.392.161-.692.323-.969.508s-.508.323-.669.484c-.162.162-.323.254-.438.254a.359.359 0 0 1-.346-.207l-.185-.347c.6-.6 1.223-1.062 1.892-1.361s1.407-.461 2.237-.461c.623 0 1.154.092 1.615.3.462.185.854.461 1.154.83.3.369.53.808.691 1.338.162.531.23 1.085.23 1.73v6.575c.186 0 .369.023.531.023h.53c.301.023.462.161.462.415m-2.606-5.075c-1.084.022-2.03.115-2.814.253-.784.139-1.431.323-1.938.555-.507.23-.876.484-1.13.807a1.731 1.731 0 0 0-.369 1.107c0 .393.046.715.185.992a1.923 1.923 0 0 0 1.223 1.085c.276.092.577.114.877.114.438 0 .854-.045 1.223-.138.369-.092.715-.208 1.038-.393s.623-.392.899-.622c.277-.231.53-.508.808-.785v-2.975zm17.464 5.075v.462h-2.768v-7.337c0-1.084-.254-1.915-.738-2.537-.484-.601-1.246-.9-2.261-.9-.762 0-1.453.185-2.1.576a6.24 6.24 0 0 0-1.73 1.593v7.683c.208 0 .415.022.577.022.161 0 .276.023.346.023h.3c.3.023.438.161.438.415v.462h-4.406v-.462c0-.254.139-.392.438-.415h.53c.185 0 .415-.046.692-.046v-9.645c-.208 0-.415-.022-.577-.022h-.346c-.069 0-.115-.022-.162-.022h-.138c-.3-.023-.438-.162-.438-.416v-.438h2.261c.208 0 .323.093.346.277l.093 1.729a6.637 6.637 0 0 1 1.822-1.592 4.674 4.674 0 0 1 2.33-.6c.623 0 1.177.093 1.661.301.485.207.877.483 1.2.853s.554.831.715 1.362c.162.53.254 1.13.254 1.799v6.414c.208 0 .393.022.554.022.162 0 .277.023.347.023h.3c.298.024.46.162.46.416m13.403 0v.462h-1.476c-.115 0-.184-.023-.276-.069s-.161-.115-.254-.208l-4.821-5.146c-.139-.138-.254-.253-.369-.299-.116-.047-.277-.07-.508-.07h-.508v4.869c.208 0 .393.022.554.022.162 0 .277.023.346.023h.301c.3.023.461.161.461.415v.462h-4.429v-.462c0-.254.162-.392.462-.415h.531c.185 0 .415-.046.669-.046v-14.95c-.207 0-.392-.023-.554-.023h-.346c-.069 0-.139-.023-.185-.023h-.115c-.3-.022-.462-.161-.462-.415v-.438h2.768v10.22h.531c.115 0 .207-.022.3-.046a.769.769 0 0 0 .323-.207l3.968-3.784c-.369-.022-.554-.022-.577-.022-.3-.023-.461-.162-.461-.416v-.461h3.553v.461c0 .254-.139.393-.438.416h-.161c-.093 0-.186.022-.301.022s-.23.022-.369.022l-4.105 3.899c-.07.069-.162.138-.231.208-.069.068-.138.139-.23.185.115.069.23.114.323.208.092.092.161.184.254.275l4.498 4.892c.139 0 .277.023.393.023h.484c.296.024.457.162.457.416m6.806 0v.461h-4.429v-.461c0-.254.161-.392.462-.415h.531c.185 0 .415-.046.669-.046v-9.645c-.207 0-.393-.022-.554-.022h-.346c-.069 0-.139-.022-.185-.022h-.115c-.301-.023-.462-.162-.462-.416v-.461h2.768v10.566c.208 0 .393.022.554.022s.276.023.347.023h.299c.299.024.461.162.461.416m-3.138-14.58c-.046-.116-.092-.254-.092-.393s.046-.277.092-.393a.968.968 0 0 1 .208-.322c.092-.093.208-.186.323-.231s.254-.069.392-.069c.139 0 .276.023.393.069.115.046.23.139.323.231.092.092.184.207.23.322.046.139.092.254.092.393s-.046.276-.092.393a1.083 1.083 0 0 1-.23.322.982.982 0 0 1-.323.208 1.094 1.094 0 0 1-.393.092c-.138 0-.276-.046-.392-.092s-.231-.116-.323-.208a.978.978 0 0 1-.208-.322m17.926 14.58v.462h-2.768v-7.337c0-1.084-.254-1.915-.738-2.537-.484-.601-1.246-.9-2.261-.9-.762 0-1.453.185-2.1.576a6.24 6.24 0 0 0-1.73 1.593v7.683c.208 0 .416.022.577.022s.276.023.347.023h.299c.301.023.438.161.438.415v.462h-4.406v-.462c0-.254.139-.392.438-.415h.53c.185 0 .415-.046.692-.046v-9.645c-.207 0-.416-.022-.576-.022h-.347c-.069 0-.115-.022-.161-.022h-.139c-.3-.023-.438-.162-.438-.416v-.438h2.261c.208 0 .323.093.346.277l.093 1.729a6.626 6.626 0 0 1 1.823-1.592 4.668 4.668 0 0 1 2.329-.6c.623 0 1.177.093 1.661.301.484.207.877.483 1.2.853s.554.831.715 1.362c.162.53.254 1.13.254 1.799v6.414c.208 0 .393.022.554.022.162 0 .277.023.347.023h.299c.299.024.461.162.461.416m8.167-11.027a3.96 3.96 0 0 1 1.153.507h2.953v.393c0 .185-.115.276-.323.3l-1.753.139c.208.3.393.623.507.992.116.369.162.762.162 1.176 0 .554-.092 1.039-.3 1.5a3.221 3.221 0 0 1-.831 1.154c-.369.322-.784.553-1.292.738-.507.184-1.061.253-1.661.253-.669 0-1.269-.069-1.799-.276-.323.185-.577.392-.762.646s-.276.508-.276.738c0 .323.115.577.346.762s.554.3.923.392c.369.093.807.115 1.292.139.484.023.992.069 1.5.092.507.023.991.07 1.477.139.484.069.945.185 1.314.369s.692.393.923.716.323.738.323 1.246c0 .483-.115.923-.346 1.36-.231.438-.577.831-1.039 1.177-.461.347-.969.6-1.614.808a7.155 7.155 0 0 1-2.169.323 8.261 8.261 0 0 1-2.123-.254 5.145 5.145 0 0 1-1.522-.669 2.833 2.833 0 0 1-.923-.969 2.47 2.47 0 0 1-.323-1.2c0-.6.208-1.13.6-1.569.393-.438.97-.784 1.662-1.015-.393-.139-.692-.3-.923-.554-.231-.254-.323-.576-.323-1.015 0-.162.023-.323.092-.508s.162-.347.277-.53c.115-.186.254-.324.438-.485s.369-.3.6-.415a3.352 3.352 0 0 1-1.27-1.27 3.627 3.627 0 0 1-.461-1.822c0-.553.115-1.061.3-1.521.185-.462.462-.831.831-1.154s.784-.554 1.291-.738a4.866 4.866 0 0 1 1.685-.276c.507-.004.969.065 1.384.181m2.584 11.396a1.59 1.59 0 0 0-.738-.508c-.323-.115-.692-.23-1.107-.276s-.831-.069-1.292-.093c-.462-.022-.877-.046-1.338-.068-.462-.023-.877-.07-1.27-.139-.3.115-.576.254-.83.392-.254.139-.438.323-.623.508s-.323.393-.416.623c-.092.23-.161.462-.161.738 0 .346.069.669.254.946a2.6 2.6 0 0 0 .762.738c.323.207.761.392 1.246.507a7.181 7.181 0 0 0 1.661.185c.576 0 1.13-.046 1.638-.185a4.843 4.843 0 0 0 1.315-.554 2.88 2.88 0 0 0 .876-.876c.208-.323.323-.669.323-1.062a1.349 1.349 0 0 0-.3-.876m-2.654-5.191c.393-.139.715-.346.969-.6s.462-.553.601-.899c.138-.346.207-.762.207-1.2a3.24 3.24 0 0 0-.207-1.176 2.276 2.276 0 0 0-.623-.9c-.277-.254-.601-.461-.97-.6s-.807-.208-1.292-.208c-.484 0-.899.069-1.292.208s-.715.346-.991.6a2.219 2.219 0 0 0-.601.9 3.37 3.37 0 0 0-.207 1.199c0 .438.069.831.207 1.177.139.347.323.646.601.899.276.254.599.461.991.6s.808.208 1.292.208c.485 0 .923-.07 1.315-.208m20.048-10.958c.461.185.877.415 1.223.715s.6.646.808 1.038c.208.393.3.808.323 1.246-.115.023-.185.047-.277.069-.185.046-.323.046-.415.046a.267.267 0 0 1-.185-.068c-.046-.047-.093-.093-.115-.186a2.74 2.74 0 0 0-.277-.691c-.139-.254-.3-.508-.53-.738s-.508-.438-.831-.6c-.346-.162-.715-.231-1.176-.231-.462 0-.9.069-1.27.208a2.972 2.972 0 0 0-.969.6 2.523 2.523 0 0 0-.623.923c-.139.347-.23.738-.23 1.153 0 .623.161 1.246.484 1.822.323.577.83 1.178 1.5 1.846l5.145 5.076a8.503 8.503 0 0 0 .83-1.73 8.45 8.45 0 0 0 .393-1.73c.023-.092.046-.185.092-.23a.356.356 0 0 1 .231-.092h.623c-.023.715-.162 1.477-.416 2.237s-.6 1.499-1.084 2.191l3.414 3.369h-1.015c-.139 0-.254-.023-.347-.047-.092-.022-.184-.092-.3-.207l-2.353-2.33c-.347.392-.738.761-1.153 1.107a6.354 6.354 0 0 1-1.339.876 8.465 8.465 0 0 1-1.568.577 7.09 7.09 0 0 1-1.73.207 5.424 5.424 0 0 1-1.708-.276c-.553-.185-1.061-.484-1.499-.854s-.808-.83-1.084-1.385c-.277-.553-.393-1.153-.393-1.845 0-.554.069-1.085.276-1.593.208-.508.485-.969.831-1.384s.762-.784 1.246-1.107.969-.623 1.522-.831c-.554-.623-.946-1.199-1.223-1.775-.277-.577-.393-1.2-.393-1.869 0-.531.093-1.038.277-1.5.185-.461.461-.83.83-1.176a3.8 3.8 0 0 1 1.315-.808 4.835 4.835 0 0 1 1.685-.301c.509 0 .993.093 1.455.278m-6.368 13.542c.231.438.508.808.877 1.107.369.301.762.508 1.2.646.438.139.876.23 1.314.23.531 0 1.038-.069 1.523-.185a5.277 5.277 0 0 0 1.36-.508 6.69 6.69 0 0 0 1.154-.784c.346-.3.646-.623.945-.992l-5.283-5.214c-.046-.046-.092-.069-.139-.115a6.49 6.49 0 0 0-1.36.762c-.416.3-.785.646-1.062 1.015a4.91 4.91 0 0 0-.646 1.177c-.161.415-.23.854-.23 1.315.001.6.116 1.108.347 1.546m36.705 2.169v.531h-3.991v-.531c0-.3.185-.438.53-.462.023 0 .069-.022.139-.022s.185-.022.347-.022c.161 0 .346 0 .576-.023l-1.614-3.991-.116-.3h-7.798l-.115.3-1.615 3.991c.231.023.438.023.601.023.161 0 .253.022.322.022s.116.022.139.022c.347.023.53.162.53.462v.531h-3.967v-.531c0-.276.139-.438.438-.462l.738-.068 6.252-15.273h1.177l6.229 15.273.762.068c.297.023.436.185.436.462m-11.559-5.699h7.083l-3.229-7.959c-.047-.139-.115-.277-.162-.439-.046-.161-.115-.322-.161-.507-.046.185-.115.346-.161.507-.047.162-.116.323-.162.462l-3.208 7.936zm14.442 4.938a.931.931 0 0 1 .231-.347c.092-.092.185-.185.323-.23.138-.046.276-.093.438-.093.139 0 .277.047.416.093.138.046.23.139.322.23a.895.895 0 0 1 .23.347c.047.138.093.276.093.415 0 .161-.046.276-.093.415-.046.139-.138.23-.23.323-.092.092-.185.185-.322.23-.139.046-.277.092-.416.092-.3 0-.554-.114-.761-.322a.973.973 0 0 1-.3-.738 1.3 1.3 0 0 1 .069-.415m9.506-14.166c-.115 0-.277.023-.508.023s-.484.022-.762.022v14.489c.277 0 .531.022.762.022s.393.023.508.023h.23c.3.023.438.161.438.415v.462h-5.076v-.462c0-.254.161-.392.462-.415h.23c.115 0 .277-.023.508-.023s.484-.022.761-.022v-14.489c-.276 0-.53-.022-.761-.022s-.393-.023-.508-.023h-.23c-.301-.022-.462-.161-.462-.415v-.462h5.076v.462c0 .254-.139.393-.438.415h-.23zm3.736 14.166a.931.931 0 0 1 .231-.347c.092-.092.185-.185.322-.23.139-.046.277-.093.438-.093.139 0 .277.047.415.093.139.046.231.139.323.23a.895.895 0 0 1 .23.347c.047.138.093.276.093.415 0 .161-.046.276-.093.415-.046.139-.138.23-.23.323-.092.092-.185.185-.323.23a1.343 1.343 0 0 1-.415.092c-.3 0-.554-.114-.761-.322a.974.974 0 0 1-.301-.738 1.36 1.36 0 0 1 .071-.415"/></svg>