<svg width="403" height="338" viewBox="0 0 403 338" xmlns="http://www.w3.org/2000/svg"><title>alura</title><path d="M144.107 113h11.147c.562 0 1.03.465 1.03 1.024v110.859c0 .559-.468 1.024-1.03 1.024h-11.147c-.562 0-1.03-.465-1.03-1.024v-110.86c0-.558.468-1.023 1.03-1.023zm76.629 91.22v2.792c0 1.21-.188 2.885-.656 5.026-.375 2.048-1.499 4.189-3.279 6.236-1.78 2.048-4.403 3.91-7.962 5.399-3.56 1.49-8.432 2.234-14.708 2.234s-11.148-.745-14.708-2.234c-3.56-1.49-6.182-3.258-7.962-5.399-1.78-2.047-2.904-4.188-3.279-6.33-.375-2.14-.656-3.722-.656-4.932v-63.109c0-.559.469-1.024 1.03-1.024h11.148c.563 0 1.031.465 1.031 1.024v59.106c0 1.955.281 3.351.562 4.468a7.451 7.451 0 0 0 1.686 3.165c.843 1.024 2.155 1.861 3.935 2.513 1.686.651 4.028 1.024 6.932 1.024 2.998 0 5.433-.373 7.213-1.024 1.78-.652 3.092-1.49 4.028-2.42.937-.931 1.593-1.955 1.874-3.072.281-1.117.656-2.048.656-4.747v-59.013c0-.559.468-1.024 1.03-1.024H219.8c.562 0 1.03.465 1.03 1.024v60.316h-.093zm37.94-61.341h7.494c.656 0 1.124.651.937 1.303l-2.53 9.68c-.093.466-.562.745-.936.745h-5.246c-2.81 0-5.06.372-6.839 1.117-1.686.745-3.091 1.582-4.028 2.606-.937 1.024-1.5 2.048-1.78 3.072a12.46 12.46 0 0 0-.375 3.072v60.502c0 .559-.468 1.024-1.03 1.024H233.1c-.562 0-1.03-.465-1.03-1.024v-63.109c0-1.117.187-2.792.656-4.933.374-2.14 1.498-4.189 3.278-6.33 1.78-2.047 4.403-3.909 7.963-5.398 3.466-1.582 8.431-2.327 14.708-2.327zm-153.165 0c9.087 0 15.738 1.768 20.047 5.306 4.216 3.537 6.37 8.004 6.37 13.31v45.61c0 1.861-.374 3.909-1.03 6.05-.656 2.234-1.967 4.282-3.935 6.05-1.967 1.862-4.683 3.351-8.056 4.654-3.372 1.21-7.869 1.862-13.302 1.862-5.527 0-9.93-.652-13.303-1.862-3.372-1.21-6.089-2.792-8.056-4.654-1.967-1.862-3.279-3.91-3.934-6.05-.656-2.234-1.031-4.282-1.031-6.05v-7.26c0-3.91 1.03-7.447 2.998-10.612 2.06-3.165 4.871-5.492 8.618-6.795 1.874-.651 3.935-1.303 6.37-2.14 2.342-.838 4.684-1.583 6.933-2.42 2.248-.745 4.121-1.49 5.808-2.049 1.686-.651 2.716-.93 3.091-1.116.375-.187.937-.466 1.593-.838.655-.373 1.311-.931 1.967-1.583.656-.744 1.124-1.582 1.592-2.42.469-.93.656-2.047.656-3.258v-2.885c0-1.024-.187-2.048-.656-3.165-.374-1.117-1.124-2.048-2.154-2.978-1.03-.931-2.436-1.676-4.122-2.234-1.686-.559-3.841-.838-6.464-.838-5.152 0-8.618 1.024-10.492 3.165-1.592 1.861-2.53 4.095-2.717 6.702 0 .558-.468.93-1.03.93H80.03c-.562 0-1.03-.465-1.03-1.024v-2.699c0-2.606.468-5.026 1.499-7.26.937-2.234 2.53-4.282 4.777-5.957 2.155-1.676 4.872-3.072 8.244-4.003 3.279-.93 7.307-1.49 11.991-1.49zm13.302 40.862c-.187 1.024-.749 1.769-1.592 2.327-.843.559-1.593.838-2.342 1.117-1.593.559-3.279 1.117-5.059 1.769-1.78.651-3.466 1.303-5.058 1.768-1.874.652-3.654 1.21-5.246 1.862-1.218.559-2.436 1.21-3.56 2.14-.937.839-1.78 1.862-2.53 3.166-.749 1.303-1.124 2.885-1.124 4.84 0 3.91.937 6.795 2.81 8.75 1.874 1.861 5.34 2.885 10.399 2.885 5.152 0 8.712-1.024 10.586-2.979 1.873-2.047 2.81-4.84 2.81-8.563V183.74h-.094zm179.77-40.862c9.086 0 15.738 1.768 20.047 5.306 4.215 3.537 6.37 8.004 6.37 13.31v45.61c0 1.861-.375 3.909-1.03 6.05-.656 2.234-1.968 4.282-3.935 6.05-1.967 1.862-4.684 3.351-8.056 4.654-3.373 1.21-7.87 1.862-13.303 1.862-5.527 0-9.93-.652-13.302-1.862s-6.09-2.792-8.056-4.654c-1.968-1.862-3.28-3.91-3.935-6.05-.656-2.234-1.03-4.282-1.03-6.05v-7.26c0-3.91 1.03-7.447 2.997-10.612 2.061-3.165 4.872-5.492 8.619-6.795 1.873-.651 3.934-1.303 6.37-2.14 2.342-.838 4.684-1.583 6.932-2.42 2.248-.745 4.122-1.49 5.808-2.049 1.686-.651 2.717-.93 3.092-1.116.374-.187.936-.466 1.592-.838.656-.373 1.312-.931 1.967-1.583.656-.744 1.125-1.582 1.593-2.42.468-.93.656-2.047.656-3.258v-2.885c0-1.024-.188-2.048-.656-3.165-.375-1.117-1.124-2.048-2.155-2.978-1.03-.931-2.435-1.676-4.122-2.234-1.686-.559-3.84-.838-6.463-.838-5.153 0-8.619 1.024-10.492 3.165-1.593 1.861-2.53 4.095-2.717 6.702 0 .558-.468.93-1.03.93h-11.242c-.562 0-1.03-.465-1.03-1.024v-2.699c0-2.606.468-5.026 1.498-7.26.937-2.234 2.53-4.282 4.778-5.957 2.155-1.676 4.871-3.072 8.244-4.003 3.372-.93 7.307-1.49 11.99-1.49zm13.302 40.862c-.187 1.024-.75 1.769-1.593 2.327-.843.559-1.592.838-2.342 1.117-1.592.559-3.278 1.117-5.058 1.769-1.78.651-3.466 1.303-5.059 1.768-1.873.652-3.653 1.21-5.246 1.862-1.218.559-2.435 1.21-3.56 2.14-.936.839-1.78 1.862-2.529 3.166-.75 1.303-1.124 2.885-1.124 4.84 0 3.91.937 6.795 2.81 8.75 1.874 1.861 5.34 2.885 10.399 2.885 5.152 0 8.712-1.024 10.585-2.979 1.874-2.047 2.81-4.84 2.81-8.563V183.74h-.093z" fill="#414040"/></svg>