<svg width="264" height="122" viewBox="0 0 264 122" xmlns="http://www.w3.org/2000/svg"><title>alura-dark</title><path d="M70.4 0h11.9c.6 0 1.1.5 1.1 1.1v119.1c0 .6-.5 1.1-1.1 1.1H70.4c-.6 0-1.1-.5-1.1-1.1V1.1c0-.6.5-1.1 1.1-1.1zm81.8 98v3c0 1.3-.2 3.1-.7 5.4-.4 2.2-1.6 4.5-3.5 6.7s-4.7 4.2-8.5 5.8c-3.8 1.6-9 2.4-15.7 2.4-6.7 0-11.9-.8-15.7-2.4-3.8-1.6-6.6-3.5-8.5-5.8-1.9-2.2-3.1-4.5-3.5-6.8-.4-2.3-.7-4-.7-5.3V33.2c0-.6.5-1.1 1.1-1.1h11.9c.6 0 1.1.5 1.1 1.1v63.5c0 2.1.3 3.6.6 4.8.3 1.2.9 2.4 1.8 3.4.9 1.1 2.3 2 4.2 2.7 1.8.7 4.3 1.1 7.4 1.1 3.2 0 5.8-.4 7.7-1.1 1.9-.7 3.3-1.6 4.3-2.6s1.7-2.1 2-3.3c.3-1.2.7-2.2.7-5.1V33.2c0-.6.5-1.1 1.1-1.1h11.9c.6 0 1.1.5 1.1 1.1V98h-.1zm40.5-65.9h8c.7 0 1.2.7 1 1.4L199 43.9c-.1.5-.6.8-1 .8h-5.6c-3 0-5.4.4-7.3 1.2-1.8.8-3.3 1.7-4.3 2.8-1 1.1-1.6 2.2-1.9 3.3-.3 1.2-.4 2.3-.4 3.3v65c0 .6-.5 1.1-1.1 1.1h-12c-.6 0-1.1-.5-1.1-1.1V52.5c0-1.2.2-3 .7-5.3.4-2.3 1.6-4.5 3.5-6.8 1.9-2.2 4.7-4.2 8.5-5.8 3.7-1.7 9-2.5 15.7-2.5zm-163.5 0c9.7 0 16.8 1.9 21.4 5.7 4.5 3.8 6.8 8.6 6.8 14.3v49c0 2-.4 4.2-1.1 6.5-.7 2.4-2.1 4.6-4.2 6.5-2.1 2-5 3.6-8.6 5-3.6 1.3-8.4 2-14.2 2-5.9 0-10.6-.7-14.2-2-3.6-1.3-6.5-3-8.6-5-2.1-2-3.5-4.2-4.2-6.5-.7-2.4-1.1-4.6-1.1-6.5v-7.8c0-4.2 1.1-8 3.2-11.4 2.2-3.4 5.2-5.9 9.2-7.3 2-.7 4.2-1.4 6.8-2.3 2.5-.9 5-1.7 7.4-2.6 2.4-.8 4.4-1.6 6.2-2.2 1.8-.7 2.9-1 3.3-1.2.4-.2 1-.5 1.7-.9s1.4-1 2.1-1.7c.7-.8 1.2-1.7 1.7-2.6.5-1 .7-2.2.7-3.5v-3.1c0-1.1-.2-2.2-.7-3.4-.4-1.2-1.2-2.2-2.3-3.2-1.1-1-2.6-1.8-4.4-2.4-1.8-.6-4.1-.9-6.9-.9-5.5 0-9.2 1.1-11.2 3.4-1.7 2-2.7 4.4-2.9 7.2 0 .6-.5 1-1.1 1H2c-.6 0-1.1-.5-1.1-1.1v-2.9c0-2.8.5-5.4 1.6-7.8 1-2.4 2.7-4.6 5.1-6.4 2.3-1.8 5.2-3.3 8.8-4.3 3.5-1 7.8-1.6 12.8-1.6zM43.4 76c-.2 1.1-.8 1.9-1.7 2.5-.9.6-1.7.9-2.5 1.2-1.7.6-3.5 1.2-5.4 1.9-1.9.7-3.7 1.4-5.4 1.9-2 .7-3.9 1.3-5.6 2-1.3.6-2.6 1.3-3.8 2.3-1 .9-1.9 2-2.7 3.4-.8 1.4-1.2 3.1-1.2 5.2 0 4.2 1 7.3 3 9.4 2 2 5.7 3.1 11.1 3.1 5.5 0 9.3-1.1 11.3-3.2 2-2.2 3-5.2 3-9.2V76h-.1zm191.9-43.9c9.7 0 16.8 1.9 21.4 5.7 4.5 3.8 6.8 8.6 6.8 14.3v49c0 2-.4 4.2-1.1 6.5-.7 2.4-2.1 4.6-4.2 6.5-2.1 2-5 3.6-8.6 5-3.6 1.3-8.4 2-14.2 2-5.9 0-10.6-.7-14.2-2-3.6-1.3-6.5-3-8.6-5-2.1-2-3.5-4.2-4.2-6.5-.7-2.4-1.1-4.6-1.1-6.5v-7.8c0-4.2 1.1-8 3.2-11.4 2.2-3.4 5.2-5.9 9.2-7.3 2-.7 4.2-1.4 6.8-2.3 2.5-.9 5-1.7 7.4-2.6 2.4-.8 4.4-1.6 6.2-2.2 1.8-.7 2.9-1 3.3-1.2.4-.2 1-.5 1.7-.9s1.4-1 2.1-1.7c.7-.8 1.2-1.7 1.7-2.6.5-1 .7-2.2.7-3.5v-3.1c0-1.1-.2-2.2-.7-3.4-.4-1.2-1.2-2.2-2.3-3.2-1.1-1-2.6-1.8-4.4-2.4-1.8-.6-4.1-.9-6.9-.9-5.5 0-9.2 1.1-11.2 3.4-1.7 2-2.7 4.4-2.9 7.2 0 .6-.5 1-1.1 1h-12c-.6 0-1.1-.5-1.1-1.1v-2.9c0-2.8.5-5.4 1.6-7.8 1-2.4 2.7-4.6 5.1-6.4 2.3-1.8 5.2-3.3 8.8-4.3 3.6-1 7.8-1.6 12.8-1.6zM249.5 76c-.2 1.1-.8 1.9-1.7 2.5-.9.6-1.7.9-2.5 1.2-1.7.6-3.5 1.2-5.4 1.9-1.9.7-3.7 1.4-5.4 1.9-2 .7-3.9 1.3-5.6 2-1.3.6-2.6 1.3-3.8 2.3-1 .9-1.9 2-2.7 3.4-.8 1.4-1.2 3.1-1.2 5.2 0 4.2 1 7.3 3 9.4 2 2 5.7 3.1 11.1 3.1 5.5 0 9.3-1.1 11.3-3.2 2-2.2 3-5.2 3-9.2V76h-.1z" fill="#414040"/></svg>