<svg width="836" height="191" viewBox="0 0 836 191" xmlns="http://www.w3.org/2000/svg" xmlns:xlink="http://www.w3.org/1999/xlink"><title>back4app</title><defs><path id="a" d="M163.272 99.23H.218V.271h163.054v98.96z"/></defs><g fill="none" fill-rule="evenodd"><path d="M54.38 70.625l.284-.179c.188-.114.465-.296.837-.506.743-.414 1.827-1.056 3.249-1.767.708-.36 1.5-.74 2.367-1.151.866-.408 1.813-.818 2.827-1.263 1.016-.433 2.107-.865 3.26-1.324 1.156-.442 2.38-.885 3.661-1.341.642-.227 1.302-.434 1.974-.655.673-.215 1.355-.45 2.057-.66.7-.218 1.418-.414 2.145-.623.729-.203 1.465-.429 2.22-.62.753-.204 1.52-.388 2.299-.576.777-.184 1.562-.392 2.363-.562.8-.177 1.61-.35 2.431-.51.821-.158 1.647-.342 2.487-.483a125.399 125.399 0 0 1 10.431-1.433l2.7-.21a64.4 64.4 0 0 1 2.72-.179l5.582-.145 5.305.143a64.7 64.7 0 0 1 2.753.177l2.745.212c3.59.334 7.08.83 10.438 1.43.84.14 1.666.325 2.487.483.821.159 1.632.332 2.431.51.802.167 1.587.377 2.365.56.777.188 1.545.373 2.298.575.755.19 1.492.418 2.22.62.728.21 1.445.406 2.146.625.701.207 1.385.445 2.057.659.672.22 1.333.427 1.974.654.643.218 1.266.458 1.877.678.611.224 1.208.437 1.785.664 1.152.458 2.243.892 3.26 1.326 1.013.444 1.96.855 2.827 1.263.866.41 1.658.792 2.366 1.153 1.42.712 2.505 1.355 3.248 1.77.371.21.647.391.836.506l.284.18-1.212-.389c-.794-.245-1.96-.594-3.452-1.018l-2.476-.677-2.928-.753c-1.05-.251-2.164-.53-3.344-.802-1.182-.26-2.423-.549-3.723-.823-1.302-.26-2.655-.55-4.062-.817-1.41-.253-2.864-.537-4.365-.787-1.504-.235-3.045-.502-4.627-.729-1.585-.21-3.2-.45-4.849-.646-1.651-.176-3.328-.38-5.029-.54-1.703-.133-3.426-.293-5.166-.41-1.741-.086-3.496-.187-5.258-.261l-5.306-.094-5.306.094c-1.763.075-3.518.176-5.26.262-1.738.119-3.461.277-5.164.412-1.702.161-3.378.365-5.03.541-1.648.199-3.263.438-4.848.648-1.582.229-3.123.494-4.627.73-1.501.252-2.955.534-4.365.786-1.406.268-2.76.558-4.063.819-1.299.275-2.54.562-3.722.822l-3.344.801-2.93.752-2.475.676c-1.492.423-2.659.77-3.452 1.016l-1.213.386" fill="#1F8AEC"/><g transform="translate(28.339 91.537)"><mask id="b" fill="#fff"><use xlink:href="#a"/></mask><path d="M150.701 72.52c-2.825 6.17-5.913 11.438-8.144 14.965l-7.02-26.6-22.59-1.262-4.786-17.576-26.417-11.804-26.416 11.804-4.785 17.576-22.591 1.261-7.02 26.603c-2.219-3.507-5.285-8.738-8.104-14.88-8.554-18.635-8.23-31.035-6.451-38.154 2.17-8.686 7.841-15.5 16.856-20.254 5.473-2.887 12.098-3.945 18.877-3.945 18.59 0 38.331 7.97 38.6 8.08l1.034.422 1.034-.423c.368-.15 37.01-14.926 57.478-4.134 9.012 4.752 14.682 11.563 16.854 20.245 3.22 12.873-1.707 27.812-6.409 38.076m-68.96-31.221c7.254 0 13.469 2.91 16.087 7.046-3.47 2.716-9.132 6.007-16.196 6.007-7.027 0-12.59-3.256-16.003-5.964 2.602-4.16 8.834-7.09 16.112-7.09M55.01 83.819C32.844 67.89 46.147 64.85 52.13 64.27l2.451-.136 4.538-16.67c3.38 3.3 11.466 9.84 22.491 9.84 11.06 0 19.315-6.582 22.751-9.872l4.547 16.702 2.458.137c5.167.501 15.783 2.837 4.325 13.713C101.946 88.82 89.724 91.15 81.77 91.15c-9.428 0-18.39-2.462-26.761-7.332m107.079-50.43c-2.505-10.025-9-17.863-19.304-23.297-11.505-6.066-26.896-5.138-39.481-2.666C101.949 2.86 99.032-.238 96.44.34c-2.62.585-3.987 4.722-3.27 9.51-5.434 1.524-9.566 3.035-11.425 3.752-1.855-.715-5.97-2.223-11.383-3.744.719-4.791-.647-8.933-3.269-9.518-2.592-.578-5.511 2.522-6.864 7.089C47.64 4.95 32.23 4.014 20.706 10.091 10.4 15.525 3.906 23.363 1.402 33.388c-2.836 11.35-.573 25.167 6.726 41.067 5.374 11.707 11.475 20.042 11.731 20.39l3.23 4.386 7.98-30.24a77.92 77.92 0 0 0 10.438 11.058C53.408 90.404 67.332 95.88 81.77 95.88c13.18 0 26.696-5.463 39.088-15.796a94.053 94.053 0 0 0 11.479-11.406l8.063 30.554 3.23-4.385c.256-.35 6.358-8.684 11.732-20.39 7.298-15.9 9.561-29.718 6.726-41.068" fill="#1F8AEC" mask="url(#b)"/></g><path d="M68.981 47.443L46.466 7.95l4.357 1.185-.427.287-.464.323a70.568 70.568 0 0 0-2.782 2.085 93.164 93.164 0 0 0-3.609 3 106.305 106.305 0 0 0-6.813 6.515 113.008 113.008 0 0 0-11.876 14.66 109.004 109.004 0 0 0-9.22 16.44 107.227 107.227 0 0 0-3.503 8.753 111.57 111.57 0 0 0-2.704 9.031c-.788 3.044-1.392 6.134-1.903 9.238-.52 3.103-.858 6.235-1.104 9.374l-.163 2.357-.094 2.361c-.04.786-.049 1.575-.055 2.363-.004.788-.027 1.576-.017 2.364.035 1.577.034 3.154.129 4.73.042.788.064 1.577.12 2.364l.179 2.362c.05.788.135 1.574.22 2.36l.246 2.356.314 2.351c.103.784.205 1.568.34 2.348.254 1.562.494 3.126.81 4.678l.45 2.332.51 2.322c.676 3.097 1.486 6.165 2.348 9.22.435 1.527.92 3.04 1.378 4.56l1.505 4.525.026.08a3.042 3.042 0 1 1-5.774 1.923l-1.557-4.68c-.475-1.575-.976-3.142-1.428-4.725-.894-3.169-1.734-6.355-2.439-9.578l-.53-2.415-.47-2.43c-.327-1.617-.58-3.25-.844-4.88-.14-.814-.247-1.633-.355-2.452L.94 113.18l-.258-2.467a59.472 59.472 0 0 1-.23-2.47l-.187-2.475c-.058-.825-.083-1.653-.126-2.48-.099-1.652-.1-3.31-.135-4.966-.01-.828.012-1.657.018-2.485.006-.83.014-1.657.057-2.486l.1-2.485.17-2.483c.259-3.306.618-6.61 1.166-9.887.539-3.276 1.178-6.54 2.01-9.758a117.67 117.67 0 0 1 2.859-9.548 113.403 113.403 0 0 1 3.703-9.252c2.735-6.057 6-11.87 9.734-17.358a119.017 119.017 0 0 1 12.517-15.45 112.332 112.332 0 0 1 7.2-6.887 98.908 98.908 0 0 1 3.85-3.198 76.607 76.607 0 0 1 3.038-2.276l.53-.37.58-.388.001-.001.201-.121a2.909 2.909 0 0 1 4.157 1.306l18.564 41.499a.83.83 0 0 1-.419 1.095.833.833 0 0 1-1.058-.346m81.178-.749l18.564-41.5a2.91 2.91 0 0 1 4.142-1.314l.216.13.001.001.58.388.53.37a75.314 75.314 0 0 1 3.037 2.276 99.584 99.584 0 0 1 3.85 3.198 112.06 112.06 0 0 1 7.2 6.887 119.077 119.077 0 0 1 12.52 15.45 115.137 115.137 0 0 1 9.732 17.358 113.15 113.15 0 0 1 3.704 9.253c1.089 3.14 2.04 6.327 2.86 9.548.83 3.218 1.47 6.481 2.01 9.758.547 3.276.906 6.58 1.165 9.887l.17 2.482.1 2.486c.042.828.051 1.657.058 2.485.005.829.027 1.658.018 2.486-.036 1.655-.038 3.313-.136 4.965-.043.828-.068 1.656-.126 2.48l-.187 2.476a59.315 59.315 0 0 1-.23 2.47l-.259 2.467-.327 2.456c-.108.82-.215 1.639-.356 2.452-.264 1.63-.516 3.262-.844 4.879l-.468 2.431-.531 2.416c-.704 3.222-1.546 6.408-2.44 9.576-.45 1.584-.952 3.151-1.427 4.726l-1.557 4.681a3.043 3.043 0 1 1-5.775-1.923l.027-.081 1.506-4.524c.456-1.52.942-3.035 1.377-4.56.862-3.055 1.672-6.124 2.349-9.22l.51-2.322.45-2.332c.315-1.553.555-3.116.809-4.679.135-.78.237-1.564.34-2.347l.314-2.35.247-2.359c.084-.785.169-1.57.219-2.358l.179-2.362c.056-.787.079-1.577.12-2.364.094-1.576.094-3.153.129-4.73.01-.789-.013-1.576-.017-2.365a53.093 53.093 0 0 0-.055-2.363l-.095-2.361-.162-2.357c-.245-3.138-.585-6.271-1.104-9.374-.511-3.103-1.115-6.194-1.902-9.238a111.875 111.875 0 0 0-2.705-9.031 107.066 107.066 0 0 0-3.504-8.752 108.94 108.94 0 0 0-9.22-16.441 112.827 112.827 0 0 0-11.875-14.659 106.112 106.112 0 0 0-6.813-6.516 92.583 92.583 0 0 0-3.61-2.999 70.183 70.183 0 0 0-2.782-2.085l-.463-.323-.427-.288 4.357-1.185-22.516 39.493a.828.828 0 0 1-1.475-.75" fill="#1F8AEC"/><path d="M196.32 96.72l-.053-.085c-.197-.31-.33-.492-.493-.721-.159-.209-.315-.425-.478-.623a29.406 29.406 0 0 0-.966-1.148h.081c0-30.53-18.732-63.243-43.293-76.607l-1.66 4.978c10.187 5.753 19.616 15.34 26.897 27.442 4.62 7.678 8.089 15.91 10.269 24.21.852 3.875 1.412 11.563-8.726 8.366l-.371-.185c-3.492-1.672-7.083-3.078-10.713-4.328-1.81-.65-3.651-1.17-5.488-1.72l-2.77-.742c-.462-.12-.923-.252-1.387-.363l-1.392-.33c-3.709-.924-7.451-1.629-11.205-2.246-1.877-.29-3.757-.557-5.639-.819-1.883-.218-3.765-.467-5.65-.657-1.886-.179-3.774-.364-5.662-.483-1.888-.109-3.777-.248-5.665-.332l-5.665-.214-5.663-.096-.353-.006h-.194l-.354.006-5.663.096-5.664.214c-1.888.084-3.777.223-5.666.332-1.887.119-3.775.304-5.66.483-1.886.19-3.768.44-5.651.657-1.882.262-3.762.53-5.64.82-3.753.616-7.496 1.32-11.204 2.244l-1.392.33c-.464.112-.925.243-1.388.364l-2.77.742c-1.836.55-3.677 1.07-5.487 1.72-3.61 1.242-7.18 2.64-10.654 4.3-10.922 3.664-10.06-4.775-9.187-8.564 2.17-8.113 5.568-16.157 10.066-23.672C51 37.998 60.373 28.417 70.5 22.653l-1.564-5.035c-24.459 13.35-43.131 46.054-43.131 76.525h.22c-.327.375-.653.75-.967 1.148-.162.198-.319.414-.477.623-.164.23-.297.411-.493.721l-.054.085a1.499 1.499 0 0 0-.205 1.084c.046.284.088.489.137.727a22.533 22.533 0 0 0 .529 2.017c.28.882.61 1.756 1.029 2.612a12.93 12.93 0 0 0 1.429 2.309c-.098 2.22-.007 4.265.293 5.831.668 3.486 2.24 4.43 3.442 4.607a3.17 3.17 0 0 0 .789.015 48.745 48.745 0 0 0 1.102 7.776c2.982-9.14 8.968-16.408 17.84-21.639.429-.252.863-.489 1.302-.72a43.12 43.12 0 0 1-1.172-4.61c-.437-4.603 1.051-11.84 13.55-14.683.168-.036.335-.072.503-.103l1.347-.25c.344-.062.688-.126 1.033-.19l.166-.028v-.004c.497-.092.995-.184 1.495-.269l2.708-.425 1.354-.216 1.358-.19 2.717-.381c1.818-.224 3.637-.427 5.458-.626 1.827-.154 3.65-.34 5.479-.47.916-.062 1.831-.111 2.746-.183.915-.064 1.828-.149 2.746-.186 1.836-.087 3.667-.204 5.505-.267l5.513-.153 5.521-.038.406.001h.045l.407-.001 5.52.038 5.514.153c1.837.063 3.67.18 5.504.267.918.037 1.831.122 2.746.186.915.072 1.831.121 2.746.183 1.83.13 3.652.316 5.48.47 1.82.199 3.64.402 5.458.626l2.716.38 1.36.191 1.352.216 2.709.425c.21.036.417.075.625.113 15.727 2.358 17.129 10.899 16.53 15.81a42.502 42.502 0 0 1-.923 3.656v.002c-.018.058-.039.118-.057.178.693.34 1.374.706 2.041 1.098 8.923 5.26 14.925 12.58 17.89 21.791.514-2.245.96-4.922 1.141-7.92a3.177 3.177 0 0 0 .7-.023c1.202-.178 2.775-1.121 3.443-4.607.3-1.564.39-3.606.294-5.824a12.874 12.874 0 0 0 1.435-2.316c.418-.856.749-1.73 1.028-2.612a21.526 21.526 0 0 0 .53-2.017c.049-.238.09-.443.136-.726a1.499 1.499 0 0 0-.204-1.085" fill="#1F8AEC"/><path d="M147.046 19.3l-.01-.042.039.054c.01.013.005.013.005.013l.006.014-.04-.038zm-73.474 0l-.04.039.002-.008c.004-.006-.001-.006.01-.019l.038-.054-.01.043zm78.261-4.938l-.207-.237-.394-.49-.295-.358c-.195-.227-.385-.43-.576-.637a27.08 27.08 0 0 0-1.144-1.134 32.728 32.728 0 0 0-2.365-1.927c-1.601-1.185-3.267-2.164-4.954-3.042a48.655 48.655 0 0 0-5.142-2.257 56.134 56.134 0 0 0-5.235-1.674 65.566 65.566 0 0 0-5.28-1.198 75.117 75.117 0 0 0-2.648-.45l-2.648-.35c-1.765-.21-3.53-.337-5.292-.454a145.9 145.9 0 0 0-2.64-.104L110.32 0h-.024l-2.692.05a145.9 145.9 0 0 0-2.64.104c-1.762.117-3.527.245-5.292.453l-2.648.351c-.885.134-1.765.284-2.647.45-1.766.33-3.526.716-5.281 1.198A56.22 56.22 0 0 0 83.86 4.28a48.79 48.79 0 0 0-5.141 2.257c-1.687.878-3.353 1.857-4.954 3.042a32.45 32.45 0 0 0-2.365 1.927 27.08 27.08 0 0 0-1.144 1.134c-.191.206-.381.41-.576.637l-.295.357-.394.491-.207.237c-.748.863-1.03 2.164-.627 3.365L79.14 50.458c.142.424.541.682.95.587.45-.105.74-.6.647-1.105l-5.904-31.924.074-.065a23.057 23.057 0 0 1 1.89-1.39c1.335-.876 2.778-1.626 4.26-2.318 1.49-.67 3.03-1.247 4.593-1.772 1.564-.531 3.167-.934 4.776-1.323a58.133 58.133 0 0 1 4.881-.956c.82-.13 1.645-.236 2.467-.354l2.48-.286c1.656-.168 3.319-.258 4.983-.34l2.5-.086 2.486-.041.085.001.085-.001 2.486.04 2.5.087c1.664.082 3.327.172 4.984.34l2.479.286c.822.118 1.646.224 2.466.354 1.64.255 3.272.562 4.882.956 1.609.389 3.212.792 4.775 1.323a49.833 49.833 0 0 1 4.594 1.772c1.481.692 2.925 1.442 4.26 2.318.662.442 1.302.904 1.89 1.39l.073.065-5.903 31.924c-.094.506.196 1 .648 1.105.408.095.807-.163.949-.587l10.983-32.73c.403-1.202.121-2.503-.627-3.366zm161.233 86.972c0-1.52-.262-2.983-.78-4.387-.523-1.399-1.223-2.623-2.103-3.665a9.807 9.807 0 0 0-3.122-2.46c-1.2-.602-2.523-.905-3.963-.905h-25.46v22.468h24.62c1.52 0 2.94-.279 4.263-.84a10.178 10.178 0 0 0 3.423-2.344c.96-.999 1.718-2.178 2.28-3.542.56-1.36.842-2.803.842-4.325zm-35.429-46.017v21.505h22.097c2.801 0 5.183-.96 7.146-2.881 1.96-1.923 2.944-4.564 2.944-7.93 0-3.283-.903-5.89-2.704-7.812-1.802-1.924-4.022-2.882-6.665-2.882h-22.818zm52.122 49.139c0 3.605-.721 6.77-2.161 9.494-1.443 2.725-3.423 5.005-5.946 6.85-2.523 1.839-5.445 3.243-8.768 4.202-3.322.963-6.864 1.442-10.627 1.442h-41.193V41.14H306.7c2.964 0 5.645.642 8.048 1.923 2.402 1.282 4.443 2.94 6.125 4.985 1.68 2.04 2.98 4.369 3.902 6.967.919 2.607 1.381 5.228 1.381 7.87 0 4.168-1.042 8.072-3.122 11.715-2.083 3.646-5.124 6.351-9.126 8.112 4.882 1.443 8.745 4.026 11.588 7.748 2.84 3.723 4.264 8.39 4.264 13.996zm33.147 11.417c2.718 0 5.303-.483 7.745-1.443 2.44-.964 4.342-2.24 5.704-3.845 1.76-1.36 2.643-2.886 2.643-4.564v-7.21c-1.922-.72-4.005-1.3-6.245-1.742-2.244-.44-4.406-.66-6.485-.66-4.164 0-7.568.938-10.208 2.822-2.643 1.884-3.963 4.266-3.963 7.147 0 2.725 1.04 4.99 3.122 6.79 2.08 1.8 4.643 2.705 7.687 2.705m-4.565 11.775c-3.044 0-5.884-.505-8.527-1.501-2.64-1.004-4.924-2.408-6.846-4.208a19.553 19.553 0 0 1-4.503-6.305c-1.08-2.407-1.622-5.05-1.622-7.935 0-2.96.661-5.704 1.983-8.227 1.32-2.525 3.162-4.668 5.524-6.43 2.361-1.76 5.183-3.14 8.466-4.143 3.283-1.002 6.884-1.501 10.809-1.501 2.801 0 5.544.24 8.226.719 2.683.48 5.064 1.164 7.147 2.045v-3.606c0-4.162-1.184-7.371-3.543-9.612-2.364-2.24-5.867-3.366-10.508-3.366a27.78 27.78 0 0 0-9.848 1.805c-3.205 1.2-6.486 2.965-9.848 5.283l-4.923-10.208c8.085-5.367 16.813-8.052 26.179-8.052 9.046 0 16.072 2.22 21.077 6.667 5.002 4.446 7.505 10.875 7.505 19.283v19.588c0 1.677.301 2.88.902 3.6.6.724 1.58 1.125 2.942 1.204v13.696c-2.724.558-5.086.841-7.086.841-3.043 0-5.386-.68-7.026-2.043-1.64-1.361-2.663-3.162-3.061-5.406l-.362-3.483c-2.801 3.683-6.204 6.486-10.207 8.408-4.005 1.923-8.285 2.887-12.85 2.887m47.794-32.682c0-4.403.76-8.57 2.283-12.494 1.519-3.923 3.724-7.372 6.604-10.337 2.882-2.959 6.366-5.322 10.449-7.088 4.083-1.76 8.687-2.642 13.81-2.642 6.886 0 12.75 1.483 17.593 4.447 4.844 2.965 8.47 6.85 10.87 11.653l-15.731 4.808c-1.363-2.323-3.165-4.104-5.404-5.346-2.243-1.243-4.725-1.864-7.447-1.864-2.323 0-4.484.46-6.486 1.38a15.997 15.997 0 0 0-5.222 3.844c-1.483 1.644-2.643 3.625-3.484 5.949-.842 2.323-1.261 4.886-1.261 7.69 0 2.803.44 5.366 1.322 7.69.88 2.323 2.058 4.324 3.542 6.006a15.53 15.53 0 0 0 5.223 3.905 15.007 15.007 0 0 0 6.366 1.384c2.882 0 5.542-.724 7.987-2.163 2.44-1.442 4.142-3.204 5.102-5.288l15.734 4.804c-2.162 4.809-5.727 8.732-10.69 11.775-4.965 3.047-10.929 4.568-17.893 4.568-5.125 0-9.729-.884-13.811-2.646-4.083-1.761-7.567-4.143-10.447-7.147-2.883-3.004-5.105-6.486-6.667-10.453-1.56-3.964-2.342-8.111-2.342-12.435m114.691 31.478l-18.253-27.272-8.647 8.527v18.745h-16.094v-87.71h16.094v53.228l25.219-28.353h17.175l-23.42 26.67 25.101 36.165zm35.189-17.062h20.776v-27.15l-20.776 27.15zm18.974 32.32v-17.899h-35.068v-14.299l40.231-51.662h10.929v51.54h10.569v14.421h-10.57v17.898h-16.09zm83.344-48.179l-11.77-33.52-12.248 33.52h24.018zM639.239 41.14h14.651l32.425 85.303H669.26l-7.926-21.264h-29.782l-7.807 21.264h-17.053L639.24 41.14zm87.187 72.81c2.404 0 4.623-.523 6.667-1.565a16.076 16.076 0 0 0 5.222-4.201c1.443-1.762 2.562-3.806 3.364-6.13.8-2.324 1.2-4.725 1.2-7.21 0-2.642-.438-5.102-1.32-7.387-.882-2.284-2.101-4.267-3.665-5.948a17.004 17.004 0 0 0-5.521-3.963c-2.123-.964-4.426-1.444-6.907-1.444-1.521 0-3.083.26-4.682.784a16.281 16.281 0 0 0-4.444 2.22 19.369 19.369 0 0 0-3.664 3.366 13.947 13.947 0 0 0-2.46 4.202v14.778c1.439 3.605 3.641 6.59 6.602 8.952 2.963 2.363 6.166 3.547 9.608 3.547m5.405 13.696c-4.965 0-9.29-1.104-12.97-3.306-3.683-2.201-6.566-5.185-8.646-8.952v36.645h-16.094V63.487h14.052v10.816c2.32-3.684 5.322-6.59 9.008-8.712 3.68-2.124 7.925-3.185 12.73-3.185 4.24 0 8.165.86 11.768 2.582 3.601 1.722 6.704 4.047 9.309 6.971 2.597 2.926 4.641 6.365 6.123 10.332 1.48 3.963 2.223 8.15 2.223 12.552 0 4.57-.683 8.854-2.042 12.856-1.364 4.006-3.263 7.494-5.706 10.454-2.443 2.963-5.345 5.288-8.706 6.97-3.361 1.683-7.046 2.524-11.049 2.524m70.734-13.697c2.405 0 4.623-.523 6.667-1.565a16.084 16.084 0 0 0 5.222-4.201c1.442-1.762 2.563-3.806 3.364-6.13a21.989 21.989 0 0 0 1.201-7.21c0-2.642-.44-5.102-1.32-7.387-.883-2.284-2.102-4.267-3.665-5.948a17.004 17.004 0 0 0-5.522-3.963c-2.123-.964-4.426-1.444-6.907-1.444-1.522 0-3.083.26-4.681.784a16.281 16.281 0 0 0-4.445 2.22 19.369 19.369 0 0 0-3.663 3.366 13.947 13.947 0 0 0-2.461 4.202v14.778c1.439 3.605 3.641 6.59 6.602 8.952 2.963 2.363 6.166 3.547 9.608 3.547m5.406 13.696c-4.966 0-9.29-1.104-12.97-3.306-3.684-2.201-6.566-5.185-8.646-8.952v36.645H770.26V63.487h14.052v10.816c2.32-3.684 5.322-6.59 9.008-8.712 3.681-2.124 7.925-3.185 12.73-3.185 4.24 0 8.165.86 11.768 2.582 3.602 1.722 6.704 4.047 9.309 6.971 2.597 2.926 4.642 6.365 6.123 10.332 1.48 3.963 2.223 8.15 2.223 12.552 0 4.57-.683 8.854-2.042 12.856-1.363 4.006-3.263 7.494-5.706 10.454-2.442 2.963-5.345 5.288-8.706 6.97-3.361 1.683-7.046 2.524-11.048 2.524" fill="#1F8AEC"/></g></svg>