<?xml version="1.0" encoding="iso-8859-1"?>
<!-- Generator: Adobe Illustrator 16.0.0, SVG Export Plug-In . SVG Version: 6.00 Build 0)  -->
<!DOCTYPE svg PUBLIC "-//W3C//DTD SVG 1.1//EN" "http://www.w3.org/Graphics/SVG/1.1/DTD/svg11.dtd">
<svg version="1.1" id="Layer_1" xmlns="http://www.w3.org/2000/svg" xmlns:xlink="http://www.w3.org/1999/xlink" x="0px" y="0px"
	 width="267.499px" height="83.718px" viewBox="0 327.932 267.499 83.718" style="enable-background:new 0 327.932 267.499 83.718;"
	 xml:space="preserve">
<path d="M8.902,327.932c-4.921,0-8.902,3.982-8.902,8.902v37.836c0,4.921,3.981,8.903,8.902,8.903h37.836
	c4.921,0,8.903-3.981,8.903-8.903v-37.836c0-4.921-3.982-8.902-8.903-8.902H8.902z M170.817,327.932
	c-1.894,0-2.782,0.491-2.782,1.46v39.488c0,3.396,0.867,5.767,2.608,7.111c1.741,1.346,3.724,2.018,5.93,2.018
	c3.217,0,4.816-0.66,4.816-1.983c0-0.44-0.135-1.062-0.4-1.878c-0.265-0.815-0.594-1.235-0.991-1.235
	c-0.088,0-0.392,0.064-0.921,0.175s-1.164,0.156-1.913,0.156c-2.38,0-3.564-1.623-3.564-4.886v-38.966
	C173.599,328.424,172.711,327.932,170.817,327.932z M10.832,333.497l1.391,3.616l3.878,0.209l-3.008,2.452l0.991,3.738l-3.252-2.104
	l-3.251,2.104l0.991-3.738l-3.008-2.452l3.877-0.209L10.832,333.497z M45.243,333.497c3.273,0,4.834,1.788,4.834,5.06v34.394
	c0,3.271-1.56,5.06-4.834,5.06H10.849c-3.271,0-5.285-1.788-5.285-5.06C5.624,352.852,24.357,333.435,45.243,333.497L45.243,333.497
	z M81.323,342.625c-4.189,0-7.731,1.175-10.642,3.513c-1.543,1.28-2.766,3.114-3.669,5.495c-0.904,2.381-1.356,5.213-1.356,8.521
	c0,6.261,1.345,10.81,4.034,13.632s6.774,4.225,12.241,4.225c2.777,0,5.196-0.368,7.269-1.095c2.071-0.728,3.112-1.484,3.112-2.278
	c0-0.529-0.27-1.228-0.8-2.087c-0.529-0.86-1.021-1.287-1.46-1.287c-0.045,0-0.142,0.039-0.296,0.105
	c-0.154,0.066-0.285,0.113-0.417,0.156c-2.292,1.147-4.788,1.722-7.477,1.722c-3.704,0-6.347-1.04-7.912-3.113
	c-1.566-2.071-2.73-5.428-2.73-10.102c0-8.42,3.587-12.641,9.981-12.641c2.424,0,4.818,0.525,7.199,1.583
	c0.088,0.045,0.177,0.082,0.244,0.104l0.261,0.105c0.109,0.044,0.181,0.069,0.226,0.069c0.397,0,0.848-0.452,1.356-1.357
	c0.506-0.903,0.766-1.652,0.766-2.225c0-0.793-1.016-1.486-3.043-2.104C86.181,342.948,83.88,342.626,81.323,342.625L81.323,342.625
	z M113.438,342.625c-3.615,0-6.706,0.478-9.286,1.427c-2.58,0.948-3.877,1.891-3.877,2.816c0,0.44,0.282,1.1,0.834,1.983
	c0.55,0.882,1.036,1.321,1.478,1.321c0.088,0,0.604-0.246,1.53-0.73c2.688-1.366,5.623-2.052,8.798-2.052
	c4.849,0,7.268,1.844,7.268,5.547v3.113c-3.835,0.088-7.26,0.321-10.258,0.695c-2.999,0.375-5.682,1.441-8.085,3.182
	c-2.403,1.742-3.617,4.342-3.617,7.825c0,3.484,1.04,6.062,3.112,7.737c2.072,1.677,4.812,2.521,8.207,2.521
	c4.185,0,7.727-1.488,10.641-4.469v3.009c0,0.969,0.888,1.464,2.782,1.46c1.894-0.004,2.782-0.491,2.782-1.46v-23.544
	c0-3.263-1.15-5.804-3.443-7.633S117.053,342.625,113.438,342.625L113.438,342.625z M147.988,342.625
	c-4.807,0-8.51,1.532-11.111,4.573c-2.602,3.042-3.896,7.504-3.896,13.389c0,5.886,1.32,10.262,3.965,13.128
	c2.645,2.866,6.729,4.293,12.241,4.294c3.13,0,5.891-0.49,8.294-1.46c2.402-0.97,3.599-1.883,3.599-2.765
	c0-0.44-0.266-1.118-0.817-2c-0.552-0.881-1.055-1.321-1.495-1.321c-0.089,0-0.554,0.221-1.391,0.661
	c-2.513,1.412-5.262,2.122-8.259,2.122c-3.264,0-5.708-0.854-7.338-2.573c-1.631-1.72-2.586-4.025-2.852-7.686h20.9
	c1.545-0.506,2.104-1.461,2.191-3.095C162.019,348.385,157.333,342.626,147.988,342.625L147.988,342.625z M188.623,342.851
	c-1.894,0-2.783,0.492-2.783,1.46v22.952c0,3.352,1.509,5.965,3.426,7.859c1.918,1.896,4.709,2.852,8.346,2.852
	c3.457,0,6.533-1.501,9.372-4.486v3.06c0,0.969,0.955,1.461,2.8,1.461s2.764-0.435,2.764-1.305v-32.394
	c0-0.968-0.852-1.46-2.747-1.46s-2.817,0.492-2.817,1.46v24.204c-2.38,3.087-5.119,4.625-8.294,4.625
	c-2.161,0-3.823-0.562-4.99-1.686c-1.168-1.125-2.295-2.7-2.295-4.73v-22.413C191.404,343.342,190.516,342.851,188.623,342.851
	L188.623,342.851z M224.233,342.904c-1.894,0-2.783,0.473-2.783,1.443v32.202c0,0.97,0.888,1.461,2.783,1.461
	c1.895,0,2.783-0.49,2.781-1.461v-24.256l0.992-1.13c0.618-0.794,1.594-1.562,2.939-2.313c1.345-0.749,2.883-1.13,4.625-1.13
	c1.741,0,3.146,0.575,4.226,1.722c1.079,1.147,1.686,2.709,1.686,4.695v22.413c0,0.97,0.887,1.46,2.782,1.46s2.782-0.489,2.782-1.46
	c-0.065-8.061,0.088-16.236,0-24.256c2.688-3.042,5.265-4.573,7.999-4.573c2.071,0,3.648,0.575,4.73,1.722
	c1.079,1.147,1.738,2.709,1.738,4.695v22.413c0,0.97,0.758,1.46,2.661,1.46c1.903,0,2.903-0.489,2.903-1.46v-22.935
	c0-2.115-0.451-3.925-1.111-5.425c-0.662-1.498-1.559-2.623-2.661-3.374c-1.983-1.279-4.215-1.913-6.729-1.913
	c-3.924,0-7.435,1.818-10.52,5.477c-1.499-3.659-4.653-5.477-9.458-5.477c-3.632,0-6.821,1.469-9.583,4.434v-2.991
	C227.014,343.377,226.126,342.904,224.233,342.904z M148.196,347.389c5.291,0,7.929,3.623,7.929,10.589h-17.196
	C139.413,351.012,142.509,347.389,148.196,347.389z M120.184,360.813l0,7.807c-1.631,1.456-3.233,2.579-4.798,3.374
	c-1.565,0.793-3.422,1.182-5.581,1.182c-3.748,0-5.616-1.809-5.616-5.425c0-2.292,0.904-3.89,2.712-4.816
	c0.926-0.483,1.805-0.891,2.643-1.2C111.131,361.118,114.672,360.814,120.184,360.813L120.184,360.813z M132.703,391.362
	c-0.706,0-0.835,0.177-0.835,0.488v1.251c0,0.31,0.129,0.487,0.835,0.487c0.705,0,0.834-0.177,0.834-0.487v-1.251
	C133.538,391.54,133.408,391.362,132.703,391.362z M184.45,391.362c-0.706,0-0.835,0.177-0.835,0.488v1.251
	c0,0.31,0.129,0.487,0.835,0.487c0.705,0,0.834-0.177,0.834-0.487v-1.251C185.284,391.54,185.155,391.362,184.45,391.362z
	 M249.428,391.589c-0.489,0-0.971,0.127-1.46,0.4c-0.489,0.259-0.73,0.526-0.73,0.8c0,0.129,0.062,0.276,0.192,0.434
	c0.129,0.144,0.276,0.209,0.434,0.209c0.158,0,0.364-0.036,0.609-0.122c0.244-0.101,0.456-0.156,0.643-0.156
	s0.576,0.065,1.165,0.208c0.59,0.144,1.128,0.226,1.617,0.226s0.971-0.124,1.46-0.383c0.489-0.273,0.73-0.562,0.73-0.835
	c0-0.115-0.065-0.241-0.208-0.4c-0.129-0.158-0.274-0.243-0.417-0.244c-0.129,0-0.309,0.056-0.539,0.157
	c-0.216,0.086-0.431,0.122-0.661,0.122c-0.23,0-0.645-0.064-1.234-0.208C250.452,391.654,249.916,391.589,249.428,391.589
	L249.428,391.589z M103.388,395.814c-1.568,0-2.786,0.469-3.634,1.426c-0.848,0.957-1.27,2.367-1.27,4.225
	c0,1.844,0.425,3.219,1.288,4.122c0.863,0.901,2.201,1.355,4,1.355c1.021,0,1.918-0.146,2.695-0.452
	c0.791-0.305,1.182-0.609,1.182-0.887c0-0.138-0.091-0.349-0.278-0.626c-0.172-0.277-0.325-0.4-0.469-0.4
	c-0.029,0-0.179,0.053-0.453,0.191c-0.819,0.443-1.717,0.678-2.695,0.678c-1.064,0-1.867-0.276-2.399-0.817
	c-0.532-0.541-0.836-0.988-0.922-2.139h6.817c0.53-0.186,0.62-0.705,0.713-1.252C107.961,397.62,106.437,395.814,103.388,395.814
	L103.388,395.814z M111.56,395.814c-0.619,0-0.835,0.145-0.835,0.452v10.224c0,0.307,0.215,0.452,0.834,0.452
	c0.619,0,0.834-0.144,0.834-0.452v-7.668c0.777-0.978,1.834-1.478,2.869-1.478c0.706,0,1.243,0.177,1.617,0.54
	c0.388,0.349,0.521,0.853,0.521,1.496v7.111c0,0.308,0.215,0.452,0.834,0.452c0.619,0,0.834-0.143,0.835-0.452v-7.285
	c0-1.062-0.114-1.904-0.747-2.504c-0.619-0.601-1.519-0.887-2.713-0.887c-1.124,0-2.289,0.473-3.217,1.425v-0.973
	C112.394,395.96,112.179,395.815,111.56,395.814L111.56,395.814z M125.662,395.814c-1.064,0-1.929,0.283-2.591,0.852
	c-0.662,0.555-0.991,1.255-0.991,2.086c0,0.833,0.212,1.445,0.643,1.861c0.432,0.402,1.123,0.745,2.087,1.008
	c0.963,0.264,1.613,0.547,1.93,0.852c0.331,0.291,0.487,0.694,0.487,1.234c0,0.527-0.183,0.951-0.557,1.27
	c-0.359,0.305-0.833,0.47-1.408,0.47c-0.561,0-1.041-0.066-1.443-0.191c-0.403-0.139-0.706-0.275-0.921-0.4
	c-0.216-0.138-0.333-0.208-0.348-0.208c-0.145,0-0.317,0.14-0.504,0.417c-0.173,0.278-0.261,0.488-0.261,0.626
	c0,0.264,0.376,0.544,1.095,0.835c0.719,0.277,1.563,0.417,2.556,0.417s1.852-0.314,2.557-0.938
	c0.719-0.624,1.077-1.408,1.078-2.365c0-0.971-0.259-1.702-0.748-2.174c-0.475-0.485-1.377-0.919-2.729-1.321
	c-0.604-0.18-1.045-0.387-1.304-0.608c-0.244-0.223-0.365-0.533-0.365-0.922s0.174-0.686,0.504-0.921
	c0.345-0.25,0.822-0.382,1.427-0.383c0.618,0,1.163,0.133,1.651,0.383c0.172,0.083,0.264,0.122,0.279,0.122
	c0.129,0,0.276-0.14,0.434-0.418c0.172-0.291,0.261-0.532,0.261-0.712c0-0.222-0.294-0.429-0.87-0.608
	C127.036,395.895,126.396,395.814,125.662,395.814L125.662,395.814z M132.703,395.814c-0.619,0-0.835,0.16-0.835,0.47v10.189
	c0,0.31,0.217,0.469,0.835,0.469c0.619,0,0.834-0.159,0.834-0.469v-10.189C133.538,395.974,133.322,395.814,132.703,395.814z
	 M138.269,395.814c-0.619,0-0.836,0.145-0.836,0.452v10.224c0,0.307,0.216,0.452,0.834,0.452s0.834-0.144,0.834-0.452v-7.668
	c0.777-0.978,1.834-1.478,2.871-1.478c0.705,0,1.243,0.177,1.617,0.54c0.389,0.349,0.521,0.853,0.521,1.496v7.111
	c0,0.308,0.215,0.452,0.835,0.452c0.619,0,0.833-0.143,0.834-0.452v-7.285c0-1.062-0.113-1.904-0.747-2.504
	c-0.619-0.601-1.519-0.887-2.712-0.887c-1.125,0-2.29,0.473-3.219,1.425v-0.973C139.102,395.96,138.886,395.815,138.269,395.814
	L138.269,395.814z M153.917,395.814c-1.539,0-2.715,0.489-3.547,1.461c-0.832,0.971-1.253,2.353-1.253,4.155
	c0,1.789,0.417,3.161,1.236,4.104c0.832,0.943,2.011,1.408,3.564,1.408c1.567,0,2.757-0.462,3.547-1.391
	c0.804-0.943,1.112-2.318,1.112-4.121c0-1.816-0.312-3.198-1.129-4.155C156.643,396.303,155.457,395.814,153.917,395.814z
	 M171.271,395.814c-1.568,0-2.786,0.469-3.634,1.426c-0.848,0.957-1.269,2.367-1.269,4.225c0,1.844,0.423,3.219,1.287,4.122
	c0.863,0.901,2.201,1.355,4,1.355c1.021,0,1.918-0.146,2.695-0.452c0.791-0.305,1.182-0.609,1.182-0.887
	c0-0.138-0.091-0.349-0.278-0.626c-0.172-0.277-0.325-0.4-0.469-0.4c-0.029,0-0.179,0.053-0.453,0.191
	c-0.819,0.443-1.717,0.678-2.695,0.678c-1.064,0-1.867-0.276-2.399-0.817c-0.532-0.541-0.835-0.988-0.922-2.139h6.816
	c0.531-0.186,0.62-0.705,0.713-1.252C175.844,397.62,174.32,395.814,171.271,395.814L171.271,395.814z M184.45,395.814
	c-0.619,0-0.834,0.16-0.834,0.47v10.189c0,0.31,0.216,0.469,0.834,0.469c0.619,0,0.834-0.159,0.834-0.469v-10.189
	C185.284,395.974,185.068,395.814,184.45,395.814z M190.005,395.814c-0.619,0-0.826,0.145-0.826,0.452v10.224
	c0,0.307,0.225,0.452,0.844,0.452s0.826-0.144,0.826-0.452v-7.668c0.777-0.978,1.835-1.478,2.871-1.478
	c0.705,0,1.243,0.177,1.617,0.54c0.389,0.349,0.521,0.853,0.521,1.496v7.111c0,0.308,0.252,0.452,0.871,0.452
	s0.797-0.143,0.798-0.452v-7.285c0-1.062-0.112-1.904-0.746-2.504c-0.619-0.601-1.519-0.887-2.712-0.887
	c-1.125,0-2.289,0.473-3.217,1.425v-0.973C190.85,395.96,190.625,395.815,190.005,395.814L190.005,395.814z M205.664,395.814
	c-1.54,0-2.716,0.489-3.547,1.461c-0.832,0.971-1.253,2.353-1.253,4.155c0,1.789,0.417,3.161,1.236,4.104
	c0.832,0.943,2.012,1.408,3.565,1.408c1.566,0,2.756-0.462,3.546-1.391c0.804-0.943,1.111-2.318,1.111-4.121
	c0-1.816-0.311-3.198-1.128-4.155C208.39,396.303,207.203,395.814,205.664,395.814z M213.489,395.814
	c-0.634,0-0.939,0.125-0.939,0.365c0,0.056,0.027,0.134,0.07,0.261l3.39,10.154c0.071,0.226,0.359,0.348,0.852,0.348h0.73
	c0.494,0,0.783-0.122,0.853-0.348l3.39-10.12c0.042-0.126,0.07-0.225,0.07-0.295c0-0.24-0.289-0.365-0.852-0.365
	c-0.549,0-0.852,0.105-0.921,0.331l-2.834,8.554l-2.817-8.554C214.409,395.92,214.122,395.814,213.489,395.814z M228.599,395.814
	c-1.169,0-2.167,0.147-3.008,0.452c-0.827,0.291-1.234,0.596-1.234,0.887c0,0.139,0.089,0.349,0.261,0.626
	c0.185,0.277,0.327,0.417,0.47,0.417c0.029,0,0.205-0.091,0.504-0.243c0.87-0.429,1.825-0.644,2.851-0.644
	c1.568,0,2.468,0.594,2.468,1.756v0.957c-1.241,0.028-2.471,0.12-3.441,0.244c-0.969,0.111-1.859,0.438-2.643,0.991
	c-0.77,0.541-1.148,1.359-1.148,2.452c0,1.094,0.339,1.909,1.009,2.435c0.67,0.525,1.563,0.782,2.66,0.782
	c1.353,0,2.621-0.474,3.563-1.408v0.973c0,0.305,0.154,0.452,0.766,0.452c0.614,0,0.903-0.146,0.903-0.452v-7.407
	c0-1.024-0.371-1.832-1.111-2.4C230.726,396.102,229.767,395.814,228.599,395.814L228.599,395.814z M240.474,395.814
	c-1.367,0-2.528,0.361-3.478,1.096c-0.503,0.402-0.897,0.99-1.2,1.739c-0.288,0.749-0.437,1.637-0.437,2.677
	c0,1.775,0.358,3.115,1.062,4.017c0.719,0.887,1.799,1.392,3.251,1.53l-0.347,1.321c-0.03,0.139-0.036,0.216-0.036,0.243
	c0,0.153,0.118,0.261,0.347,0.331c0.245,0.069,0.484,0.17,0.713,0.295c0.244,0.125,0.365,0.311,0.365,0.574
	c0,0.486-0.415,0.731-1.235,0.731c-0.316,0-0.675-0.07-1.078-0.209c-0.403-0.138-0.641-0.208-0.713-0.208
	c-0.272,0-0.417,0.179-0.417,0.54c0,0.263,0.288,0.494,0.834,0.661c0.546,0.166,1.091,0.242,1.652,0.242
	c1.655,0,2.486-0.625,2.486-1.859c0-0.416-0.14-0.742-0.4-0.991c-0.259-0.236-0.503-0.379-0.747-0.435
	c-0.23-0.042-0.466-0.069-0.696-0.069h-0.087l0.262-1.096h0.086c0.906,0,1.706-0.108,2.382-0.331
	c0.676-0.236,1.008-0.481,1.009-0.73c0-0.167-0.089-0.38-0.261-0.644c-0.172-0.276-0.326-0.417-0.47-0.417
	c-0.098,0.026-0.109,0.03-0.243,0.086c-0.748,0.361-1.557,0.54-2.435,0.54c-1.208,0-2.073-0.323-2.59-0.975
	c-0.504-0.651-1.027-1.711-1.027-3.182c0-2.648,1.324-3.981,3.409-3.981c0.792,0,1.571,0.171,2.348,0.504l0.157,0.052l0.069,0.035
	c0.129,0,0.277-0.14,0.435-0.417c0.172-0.291,0.261-0.533,0.261-0.713c0-0.25-0.33-0.467-0.991-0.661s-1.409-0.295-2.243-0.295
	V395.814z M250.855,395.814c-1.169,0-2.167,0.147-3.008,0.452c-0.827,0.291-1.234,0.596-1.234,0.887c0,0.139,0.089,0.349,0.26,0.626
	c0.186,0.277,0.327,0.417,0.47,0.417c0.028,0,0.205-0.091,0.504-0.243c0.87-0.429,1.825-0.644,2.852-0.644
	c1.568,0,2.467,0.594,2.467,1.756v0.957c-1.24,0.028-2.471,0.12-3.44,0.244c-0.969,0.111-1.859,0.438-2.643,0.991
	c-0.77,0.541-1.148,1.359-1.148,2.452c0,1.094,0.337,1.909,1.008,2.435c0.67,0.525,1.563,0.782,2.66,0.782
	c1.353,0,2.621-0.474,3.562-1.408v0.973c0,0.305,0.154,0.452,0.767,0.452s0.902-0.146,0.902-0.452v-7.407
	c0-1.024-0.37-1.832-1.111-2.4C252.983,396.102,252.024,395.814,250.855,395.814L250.855,395.814z M262.417,395.814
	c-1.539,0-2.715,0.489-3.546,1.461c-0.833,0.971-1.254,2.353-1.254,4.155c0,1.789,0.418,3.161,1.236,4.104
	c0.833,0.943,2.012,1.408,3.564,1.408c1.567,0,2.757-0.462,3.547-1.391c0.804-0.943,1.111-2.318,1.111-4.121
	c0-1.816-0.31-3.198-1.128-4.155C265.143,396.303,263.957,395.814,262.417,395.814z M103.441,397.31c1.726,0,2.59,1.008,2.59,3.199
	v0.313h-5.6C100.59,398.631,101.585,397.31,103.441,397.31L103.441,397.31z M153.883,397.31c1.012,0,1.758,0.325,2.243,0.991
	c0.485,0.666,0.781,1.708,0.781,3.096c0,1.386-0.296,2.412-0.781,3.078c-0.485,0.651-1.231,0.974-2.243,0.974
	c-1.012,0-1.754-0.323-2.226-0.974c-0.471-0.666-0.871-1.691-0.871-3.078c0-1.4,0.399-2.444,0.871-3.096
	C152.129,397.635,152.871,397.31,153.883,397.31z M171.323,397.31c1.726,0,2.59,1.008,2.59,3.199v0.313h-5.599
	C168.473,398.631,169.467,397.31,171.323,397.31L171.323,397.31z M205.629,397.31c1.012,0,1.757,0.325,2.243,0.991
	c0.485,0.666,0.781,1.708,0.781,3.096c0,1.386-0.296,2.412-0.781,3.078c-0.486,0.651-1.231,0.974-2.243,0.974
	c-1.012,0-1.755-0.323-2.226-0.974c-0.472-0.666-0.872-1.691-0.872-3.078c0-1.4,0.399-2.444,0.872-3.096
	C203.874,397.635,204.617,397.31,205.629,397.31z M262.383,397.31c1.013,0,1.758,0.325,2.243,0.991
	c0.485,0.666,0.782,1.708,0.782,3.096c0,1.386-0.296,2.412-0.782,3.078c-0.485,0.651-1.23,0.974-2.243,0.974
	c-1.012,0-1.754-0.323-2.226-0.974c-0.472-0.666-0.871-1.691-0.871-3.078c0-1.4,0.399-2.444,0.871-3.096
	C260.628,397.635,261.37,397.31,262.383,397.31z M230.909,401.518v2.47c-0.528,0.457-1.172,0.794-1.686,1.043
	c-0.499,0.249-1.092,0.365-1.792,0.365c-1.211,0-1.825-0.552-1.825-1.687c0-0.72,0.302-1.222,0.887-1.513
	c0.299-0.152,0.582-0.285,0.852-0.382C227.859,401.62,229.127,401.518,230.909,401.518z M253.165,401.518v2.47
	c-0.527,0.457-1.172,0.794-1.685,1.043c-0.499,0.249-1.092,0.365-1.791,0.365c-1.212,0-1.826-0.552-1.826-1.687
	c0-0.72,0.302-1.222,0.887-1.513c0.299-0.152,0.581-0.285,0.852-0.382C250.115,401.62,251.385,401.518,253.165,401.518z"/>
</svg>
