<?xml version="1.0" encoding="utf-8"?>
<!-- Generator: Adobe Illustrator 16.0.0, SVG Export Plug-In . SVG Version: 6.00 Build 0)  -->
<!DOCTYPE svg PUBLIC "-//W3C//DTD SVG 1.1//EN" "http://www.w3.org/Graphics/SVG/1.1/DTD/svg11.dtd">
<svg version="1.1" id="Layer_1" xmlns="http://www.w3.org/2000/svg" xmlns:xlink="http://www.w3.org/1999/xlink" x="0px" y="0px"
	 width="200px" height="80px" viewBox="0 0 200 80" enable-background="new 0 0 200 80" xml:space="preserve">
<g>
	<g>
		<polygon fill="#FFCD09" points="16.564,22.586 16.564,32.537 16.564,47.463 16.564,57.412 26.516,57.412 49.097,57.412 
			49.097,47.646 26.28,47.646 26.28,32.447 49.097,32.447 49.097,22.586 26.516,22.586 		"/>
		<polygon fill="#F58220" points="16.564,12.879 6.994,22.586 6.994,57.412 16.564,67.121 49.097,67.121 49.097,57.777 
			49.097,57.412 26.516,57.412 16.564,57.412 16.564,47.463 16.564,32.537 16.564,22.586 26.516,22.586 49.097,22.586 
			49.097,22.314 49.097,12.879 		"/>
	</g>
	<g>
		<g>
			<path fill="none" d="M122.803,30.942c-0.249-0.407-0.578-0.731-0.984-0.975c-0.408-0.242-0.9-0.362-1.48-0.362
				c-2.127-0.016-3.19,1.486-3.19,4.508c0,0.596,0.06,1.165,0.177,1.713c0.117,0.549,0.299,1.025,0.551,1.432
				c0.25,0.408,0.578,0.736,0.985,0.986c0.407,0.249,0.899,0.375,1.479,0.375c2.129,0.018,3.193-1.486,3.193-4.506
				c0-0.611-0.061-1.189-0.178-1.736C123.237,31.826,123.054,31.35,122.803,30.942z"/>
			<path fill="none" d="M109.769,29.674c-1.079,0-1.924,0.356-2.535,1.067c-0.61,0.712-0.915,1.851-0.915,3.416
				c0,0.642,0.051,1.236,0.153,1.785c0.101,0.548,0.269,1.019,0.504,1.407c0.233,0.393,0.544,0.701,0.927,0.928
				s0.85,0.34,1.396,0.34c0.798,0,1.432-0.207,1.899-0.622c0.47-0.415,0.789-1.045,0.964-1.889v-5.822
				c-0.281-0.219-0.604-0.376-0.964-0.47C110.84,29.721,110.364,29.674,109.769,29.674z"/>
			<path fill="none" d="M147.151,29.499c-2.418,0-3.474,2.253-3.474,4.39c0,2.488,1.408,4.365,3.427,4.365
				c1.974,0,3.451-1.854,3.451-4.412C150.556,31.916,149.592,29.499,147.151,29.499z"/>
			<path fill="none" d="M74.832,33.549c-0.705,0-1.416,0.027-2.138,0.082c-0.72,0.056-1.231,0.287-1.538,0.692
				c-0.304,0.407-0.457,0.806-0.457,1.197c0,0.548,0.196,0.997,0.588,1.35c0.391,0.353,0.893,0.528,1.504,0.528
				c0.438,0,0.883-0.059,1.336-0.175c0.455-0.117,0.807-0.267,1.057-0.446c0.251-0.179,0.459-0.379,0.623-0.598
				s0.285-0.432,0.363-0.635v-1.949c-0.219-0.014-0.442-0.025-0.67-0.033C75.272,33.553,75.049,33.549,74.832,33.549z"/>
			<path fill="none" d="M94.537,33.549c-0.703,0-1.416,0.027-2.136,0.082c-0.721,0.056-1.231,0.287-1.537,0.692
				c-0.307,0.407-0.459,0.806-0.459,1.197c0,0.548,0.195,0.997,0.589,1.35c0.391,0.353,0.893,0.528,1.502,0.528
				c0.438,0,0.885-0.059,1.338-0.175c0.455-0.117,0.807-0.267,1.057-0.446c0.25-0.179,0.457-0.379,0.622-0.598
				s0.286-0.432,0.364-0.635v-1.949c-0.222-0.014-0.443-0.025-0.67-0.033C94.979,33.553,94.756,33.549,94.537,33.549z"/>
			<path fill="none" d="M158.889,29.569c-2.137,0-3.403,1.878-3.403,4.366c0,2.3,1.149,4.201,3.356,4.201
				c1.385,0,2.65-0.939,3.027-2.465c0.07-0.28,0.094-0.563,0.094-0.892v-1.972c0-0.26-0.022-0.61-0.094-0.869
				C161.564,30.649,160.438,29.569,158.889,29.569z"/>
			<path fill="none" d="M187.492,29.499c-2.419,0-3.475,2.253-3.475,4.39c0,2.488,1.408,4.365,3.426,4.365
				c1.973,0,3.451-1.854,3.451-4.412C190.895,31.916,189.932,29.499,187.492,29.499z"/>
			<path fill="none" d="M175.535,29.545c-1.973,0-3.381,1.667-3.381,4.295c0,2.231,1.15,4.084,3.355,4.084
				c1.291,0,2.441-0.797,2.865-2.111c0.117-0.352,0.164-0.751,0.164-1.104v-2.041c0-0.352-0.022-0.658-0.117-0.916
				C178.045,30.531,177.06,29.545,175.535,29.545z"/>
			<path d="M66.32,38.314c-0.523,0.141-1.139,0.211-1.843,0.211c-0.783,0-1.508-0.143-2.172-0.422
				c-0.665-0.283-1.244-0.705-1.737-1.268c-0.492-0.564-0.879-1.27-1.16-2.115c-0.283-0.842-0.424-1.829-0.424-2.957
				c0-1.252,0.148-2.309,0.446-3.17c0.297-0.858,0.692-1.557,1.187-2.089c0.493-0.532,1.051-0.916,1.678-1.15
				c0.625-0.234,1.26-0.353,1.901-0.353c1.394,0,2.466,0.179,3.216,0.54l1.01-1.549c-0.782-0.282-1.471-0.474-2.065-0.575
				c-0.595-0.103-1.36-0.151-2.301-0.151c-0.876,0-1.737,0.155-2.581,0.47c-0.846,0.312-1.609,0.81-2.289,1.49
				c-0.682,0.681-1.229,1.558-1.645,2.629c-0.414,1.072-0.621,2.376-0.621,3.908c0,1.471,0.188,2.742,0.562,3.813
				c0.375,1.072,0.885,1.953,1.525,2.642c0.642,0.688,1.394,1.201,2.252,1.537c0.861,0.336,1.785,0.504,2.771,0.504
				c0.812,0,1.58-0.068,2.301-0.209c0.719-0.143,1.494-0.532,2.324-1.176l-1.01-1.103C67.287,37.993,66.845,38.172,66.32,38.314z"/>
			<path d="M139.394,37.879c-0.526,0.141-1.14,0.211-1.843,0.211c-0.784,0-1.508-0.141-2.172-0.422
				c-0.666-0.283-1.246-0.705-1.737-1.269c-0.493-0.563-0.879-1.269-1.16-2.113c-0.28-0.844-0.422-1.831-0.422-2.958
				c0-1.251,0.147-2.308,0.444-3.168c0.295-0.86,0.69-1.557,1.185-2.09c0.492-0.531,1.052-0.916,1.679-1.15s1.26-0.352,1.902-0.352
				c1.393,0,2.464,0.179,3.215,0.54l1.01-1.55c-0.783-0.281-1.473-0.474-2.064-0.574c-0.596-0.104-1.361-0.152-2.301-0.152
				c-0.877,0-1.736,0.156-2.582,0.469c-0.846,0.314-1.608,0.811-2.291,1.491c-0.68,0.682-1.229,1.558-1.643,2.628
				c-0.415,1.072-0.623,2.376-0.623,3.908c0,1.471,0.188,2.743,0.564,3.815c0.376,1.071,0.884,1.952,1.525,2.641
				c0.644,0.689,1.395,1.202,2.254,1.538s1.785,0.504,2.771,0.504c0.811,0,1.582-0.07,2.301-0.212
				c0.717-0.141,1.492-0.53,2.324-1.173l-1.012-1.104C140.359,37.558,139.918,37.736,139.394,37.879z"/>
			<path d="M78.248,38.631c-0.211-0.541-0.317-1.1-0.317-1.679c0-0.798,0.024-1.642,0.069-2.534c0.049-0.893,0.07-1.809,0.07-2.748
				c0-0.422-0.043-0.844-0.129-1.268c-0.085-0.422-0.259-0.811-0.518-1.162c-0.258-0.353-0.633-0.637-1.125-0.855
				c-0.493-0.219-1.146-0.329-1.961-0.329c-0.86,0-1.687,0.086-2.477,0.258c-0.791,0.173-1.484,0.438-2.078,0.798l0.588,1.41
				c0.219-0.126,0.474-0.239,0.762-0.342c0.289-0.102,0.597-0.188,0.916-0.258c0.322-0.069,0.634-0.125,0.939-0.164
				c0.305-0.04,0.59-0.059,0.855-0.059c0.908,0,1.533,0.172,1.878,0.516c0.345,0.346,0.517,0.947,0.517,1.808
				c0,0.376-0.023,0.798-0.07,1.269c-0.219-0.031-0.434-0.047-0.645-0.047s-0.428,0-0.646,0c-1.08,0-2.104,0.059-3.074,0.176
				s-1.723,0.543-2.254,1.277c-0.53,0.737-0.797,1.449-0.797,2.139c0,0.516,0.088,0.977,0.27,1.383s0.427,0.756,0.738,1.045
				c0.312,0.291,0.687,0.514,1.115,0.67c0.433,0.156,0.896,0.234,1.396,0.234c0.501,0,1.002-0.056,1.502-0.164
				c0.502-0.108,0.9-0.248,1.197-0.41c0.297-0.166,0.553-0.354,0.764-0.564s0.387-0.426,0.528-0.646h0.116
				c0.328,1.097,0.734,1.645,1.221,1.645h1.666C78.799,39.637,78.459,39.17,78.248,38.631z M76.168,36.67
				c-0.078,0.203-0.198,0.416-0.362,0.635s-0.372,0.419-0.623,0.598c-0.25,0.18-0.603,0.329-1.058,0.446
				c-0.453,0.118-0.897,0.176-1.336,0.176c-0.61,0-1.113-0.176-1.504-0.528c-0.391-0.352-0.587-0.802-0.587-1.349
				c0-0.392,0.153-0.791,0.457-1.198c0.306-0.406,0.818-0.637,1.538-0.691c0.721-0.055,1.432-0.082,2.137-0.082
				c0.219,0,0.441,0.004,0.67,0.012c0.227,0.008,0.449,0.02,0.668,0.033V36.67L76.168,36.67z"/>
			<path d="M86.158,33.947c-0.416-0.281-0.869-0.508-1.361-0.681s-0.947-0.349-1.361-0.528s-0.764-0.384-1.045-0.61
				s-0.422-0.544-0.422-0.951c0-0.578,0.16-0.985,0.48-1.222c0.32-0.234,0.825-0.352,1.514-0.352c0.58,0,1.123,0.066,1.631,0.198
				c0.51,0.134,0.943,0.286,1.305,0.457l0.443-1.549c-0.422-0.203-0.918-0.38-1.488-0.527c-0.572-0.149-1.279-0.224-2.125-0.224
				c-1.143,0-2.034,0.263-2.676,0.787c-0.643,0.525-0.963,1.349-0.963,2.476c0,0.689,0.141,1.237,0.424,1.645
				c0.281,0.407,0.628,0.738,1.043,0.998c0.414,0.259,0.869,0.47,1.361,0.634c0.494,0.164,0.947,0.336,1.361,0.516
				c0.415,0.181,0.764,0.402,1.045,0.669c0.28,0.266,0.422,0.634,0.422,1.104c0,0.689-0.22,1.165-0.656,1.431
				c-0.438,0.268-0.994,0.399-1.668,0.399c-0.594,0-1.18-0.086-1.76-0.259c-0.578-0.172-1.05-0.359-1.408-0.562l-0.564,1.596
				c0.424,0.234,0.947,0.438,1.574,0.609c0.625,0.174,1.385,0.258,2.275,0.258c0.688,0,1.289-0.09,1.797-0.27
				c0.508-0.179,0.936-0.426,1.278-0.738c0.345-0.312,0.599-0.688,0.763-1.127c0.166-0.438,0.246-0.908,0.246-1.408
				c0-0.705-0.141-1.271-0.422-1.703C86.92,34.584,86.573,34.229,86.158,33.947z"/>
			<path d="M97.953,38.631c-0.211-0.541-0.316-1.1-0.316-1.679c0-0.798,0.021-1.642,0.07-2.534c0.047-0.893,0.069-1.809,0.069-2.748
				c0-0.422-0.042-0.844-0.129-1.268c-0.086-0.422-0.258-0.811-0.517-1.162c-0.26-0.353-0.635-0.637-1.127-0.855
				c-0.493-0.219-1.146-0.329-1.961-0.329c-0.859,0-1.687,0.086-2.476,0.258c-0.79,0.173-1.483,0.438-2.077,0.798l0.586,1.41
				c0.221-0.126,0.475-0.239,0.764-0.342c0.289-0.102,0.596-0.188,0.914-0.258c0.322-0.069,0.636-0.125,0.939-0.164
				c0.307-0.04,0.592-0.059,0.857-0.059c0.906,0,1.533,0.172,1.877,0.516c0.344,0.346,0.518,0.947,0.518,1.808
				c0,0.376-0.023,0.798-0.07,1.269c-0.221-0.031-0.435-0.047-0.646-0.047c-0.212,0-0.428,0-0.646,0
				c-1.08,0-2.105,0.059-3.076,0.176s-1.721,0.543-2.254,1.277c-0.531,0.737-0.797,1.449-0.797,2.139c0,0.516,0.09,0.977,0.27,1.383
				s0.427,0.756,0.738,1.045c0.313,0.291,0.686,0.514,1.115,0.67c0.431,0.156,0.896,0.234,1.396,0.234s1.002-0.056,1.503-0.164
				s0.898-0.248,1.197-0.41c0.297-0.166,0.552-0.354,0.763-0.564c0.21-0.211,0.388-0.426,0.528-0.646h0.117
				c0.328,1.097,0.735,1.645,1.221,1.645h1.667C98.504,39.637,98.164,39.17,97.953,38.631z M95.875,36.67
				c-0.08,0.203-0.199,0.416-0.365,0.635c-0.163,0.219-0.37,0.419-0.62,0.598c-0.25,0.18-0.603,0.329-1.058,0.446
				c-0.455,0.118-0.899,0.176-1.338,0.176c-0.609,0-1.111-0.176-1.502-0.528c-0.393-0.353-0.588-0.802-0.588-1.349
				c0-0.392,0.152-0.791,0.457-1.198c0.307-0.406,0.817-0.637,1.539-0.691c0.719-0.056,1.432-0.082,2.135-0.082
				c0.221,0,0.441,0.004,0.67,0.012c0.227,0.008,0.449,0.02,0.668,0.033v1.949H95.875z"/>
			<path d="M114.041,35.943V23.547h-1.877v4.883c-0.393-0.139-0.756-0.241-1.092-0.305c-0.339-0.062-0.796-0.095-1.374-0.095
				c-1.657,0-2.962,0.521-3.907,1.561c-0.949,1.042-1.42,2.564-1.42,4.566c0,2.099,0.381,3.64,1.139,4.625
				c0.76,0.985,1.92,1.478,3.484,1.478c0.799,0,1.494-0.178,2.09-0.539c0.596-0.358,1.049-0.812,1.36-1.361h0.095l0.471,1.667h1.268
				c-0.126-0.624-0.197-1.265-0.211-1.913C114.047,37.465,114.041,36.74,114.041,35.943z M112.164,36.107
				c-0.174,0.844-0.494,1.475-0.963,1.891c-0.47,0.413-1.104,0.621-1.9,0.621c-0.549,0-1.014-0.113-1.396-0.341
				s-0.691-0.535-0.926-0.927c-0.236-0.391-0.405-0.859-0.505-1.407c-0.104-0.549-0.153-1.144-0.153-1.786
				c0-1.564,0.305-2.704,0.915-3.416c0.611-0.711,1.457-1.067,2.535-1.067c0.599,0,1.071,0.047,1.433,0.142
				c0.36,0.094,0.682,0.25,0.963,0.469v5.822H112.164z"/>
			<path d="M124.234,29.639c-0.422-0.539-0.959-0.953-1.607-1.244c-0.646-0.289-1.412-0.435-2.287-0.435
				c-1.655,0-2.93,0.528-3.812,1.585c-0.884,1.058-1.326,2.578-1.326,4.565c0,0.924,0.103,1.765,0.305,2.522
				c0.203,0.76,0.518,1.408,0.94,1.949s0.958,0.953,1.607,1.244c0.647,0.289,1.411,0.434,2.286,0.434
				c1.66,0,2.931-0.527,3.812-1.584c0.885-1.056,1.328-2.577,1.328-4.564c0-0.924-0.104-1.766-0.307-2.524
				C124.97,30.829,124.658,30.179,124.234,29.639z M120.338,38.619c-0.58,0-1.071-0.126-1.479-0.376
				c-0.407-0.25-0.735-0.579-0.985-0.987c-0.252-0.405-0.434-0.883-0.552-1.432c-0.116-0.547-0.176-1.117-0.176-1.712
				c0-3.021,1.063-4.523,3.19-4.508c0.58,0,1.072,0.121,1.48,0.362c0.406,0.243,0.734,0.567,0.984,0.975s0.435,0.884,0.552,1.434
				c0.117,0.547,0.176,1.125,0.176,1.736C123.531,37.131,122.467,38.635,120.338,38.619z"/>
			<polygon points="150.203,23.278 147.926,23.278 145.883,26.634 147.338,26.634 			"/>
			<path d="M147.199,27.95c-3.121,0-5.634,2.229-5.634,6.009c0,3.59,2.394,5.844,5.444,5.844c2.723,0,5.658-1.83,5.658-6.032
				C152.668,30.32,150.461,27.95,147.199,27.95z M147.104,38.254c-2.019,0-3.427-1.877-3.427-4.365c0-2.138,1.056-4.391,3.474-4.391
				c2.44,0,3.404,2.418,3.404,4.342C150.556,36.399,149.078,38.254,147.104,38.254z"/>
			<path d="M164.006,22.879h-2.043v6.783h-0.047c-0.517-0.892-1.666-1.712-3.428-1.712c-2.746,0-5.117,2.3-5.093,6.079
				c0,3.451,2.136,5.773,4.882,5.773c1.854,0,3.215-0.961,3.825-2.229h0.071l0.094,1.973h1.83c-0.047-0.774-0.094-1.924-0.094-2.935
				V22.879H164.006z M161.963,34.78c0,0.328-0.022,0.61-0.094,0.892c-0.377,1.525-1.644,2.465-3.027,2.465
				c-2.206,0-3.356-1.901-3.356-4.201c0-2.488,1.269-4.366,3.403-4.366c1.549,0,2.676,1.08,2.98,2.371
				c0.07,0.258,0.094,0.61,0.094,0.869V34.78z"/>
			<path d="M178.797,29.898h-0.047c-0.518-0.94-1.574-1.948-3.547-1.948c-2.627,0-5.14,2.159-5.14,6.009
				c0,3.146,2.019,5.539,4.835,5.539c1.76,0,3.006-0.846,3.616-1.902h0.046v1.246c0,2.886-1.551,3.99-3.662,3.99
				c-1.408,0-2.582-0.423-3.332-0.916l-0.52,1.598c0.918,0.609,2.418,0.938,3.781,0.938c1.432,0,3.028-0.354,4.155-1.36
				c1.079-1.013,1.619-2.584,1.619-5.211v-6.597c0-1.362,0.022-2.301,0.094-3.099h-1.831L178.797,29.898z M178.539,34.709
				c0,0.354-0.047,0.752-0.164,1.104c-0.422,1.313-1.574,2.112-2.865,2.112c-2.206,0-3.355-1.854-3.355-4.084
				c0-2.63,1.408-4.296,3.379-4.296c1.526,0,2.514,0.986,2.889,2.207c0.096,0.258,0.119,0.564,0.119,0.917v2.039H178.539z"/>
			<path d="M187.539,27.95c-3.123,0-5.634,2.229-5.634,6.009c0,3.59,2.394,5.844,5.445,5.844c2.724,0,5.655-1.83,5.655-6.032
				C193.006,30.32,190.799,27.95,187.539,27.95z M187.443,38.254c-2.018,0-3.426-1.877-3.426-4.365c0-2.138,1.056-4.391,3.475-4.391
				c2.439,0,3.402,2.418,3.402,4.342C190.895,36.399,189.416,38.254,187.443,38.254z"/>
			<path d="M167.09,23.7c-0.774,0-1.291,0.587-1.291,1.291c0,0.705,0.492,1.268,1.242,1.268c0.822,0,1.314-0.562,1.314-1.268
				C168.356,24.264,167.84,23.7,167.09,23.7z"/>
			<rect x="166.056" y="28.185" width="2.065" height="11.362"/>
		</g>
		<g>
			<path d="M58.002,46.733h1.041v7.104h3.403V54.7h-4.444V46.733z"/>
			<path d="M67.082,47.371c0,0.354-0.246,0.639-0.662,0.639c-0.377,0-0.625-0.284-0.625-0.639c0-0.354,0.26-0.647,0.648-0.647
				C66.821,46.721,67.082,47.006,67.082,47.371z M65.922,54.699v-5.721h1.041v5.721H65.922L65.922,54.699z"/>
			<path d="M71.457,48.979l1.121,3.203c0.189,0.53,0.344,1.004,0.461,1.477h0.035c0.131-0.473,0.295-0.944,0.483-1.477l1.11-3.203
				h1.088L73.51,54.7h-0.991l-2.175-5.721H71.457z"/>
			<path d="M79.103,50.764c0-0.674-0.013-1.254-0.047-1.784h0.909l0.049,1.135h0.033c0.262-0.769,0.898-1.254,1.597-1.254
				c0.106,0,0.188,0.013,0.284,0.024v0.98c-0.106-0.023-0.213-0.023-0.354-0.023c-0.731,0-1.253,0.543-1.395,1.324
				c-0.023,0.144-0.036,0.318-0.036,0.482v3.051h-1.04V50.764L79.103,50.764z"/>
			<path d="M90.392,51.791c0,2.117-1.478,3.037-2.849,3.037c-1.537,0-2.742-1.135-2.742-2.943c0-1.901,1.265-3.024,2.837-3.024
				C89.28,48.86,90.392,50.055,90.392,51.791z M85.864,51.853c0,1.254,0.71,2.196,1.728,2.196c0.992,0,1.736-0.934,1.736-2.221
				c0-0.971-0.484-2.188-1.714-2.188C86.396,49.642,85.864,50.776,85.864,51.853z"/>
			<path d="M93.926,53.647c0.318,0.188,0.863,0.401,1.384,0.401c0.744,0,1.101-0.364,1.101-0.85c0-0.498-0.297-0.758-1.054-1.041
				c-1.04-0.379-1.524-0.934-1.524-1.619c0-0.924,0.758-1.68,1.975-1.68c0.578,0,1.088,0.154,1.395,0.355l-0.248,0.758
				c-0.224-0.144-0.637-0.344-1.17-0.344c-0.613,0-0.945,0.354-0.945,0.782c0,0.474,0.332,0.685,1.076,0.979
				c0.98,0.365,1.5,0.863,1.5,1.715c0,1.018-0.791,1.723-2.127,1.723c-0.625,0-1.205-0.164-1.606-0.4L93.926,53.647z"/>
			<path d="M106.563,52.027c0.022,1.408,0.91,1.984,1.961,1.984c0.744,0,1.206-0.129,1.583-0.293l0.189,0.744
				c-0.365,0.164-1.006,0.364-1.914,0.364c-1.76,0-2.812-1.17-2.812-2.896c0-1.725,1.016-3.074,2.684-3.074
				c1.877,0,2.363,1.631,2.363,2.686c0,0.213-0.014,0.365-0.035,0.484H106.563L106.563,52.027z M109.612,51.283
				c0.013-0.648-0.271-1.678-1.44-1.678c-1.065,0-1.514,0.957-1.596,1.678H109.612z"/>
			<path d="M120.205,47.608h-2.422v-0.875h5.896v0.875h-2.436v7.094h-1.041v-7.094H120.205z"/>
			<path d="M126.633,52.027c0.025,1.408,0.91,1.984,1.962,1.984c0.745,0,1.206-0.129,1.583-0.293l0.188,0.744
				c-0.363,0.164-1.002,0.364-1.912,0.364c-1.762,0-2.812-1.17-2.812-2.896c0-1.725,1.018-3.074,2.686-3.074
				c1.879,0,2.363,1.631,2.363,2.686c0,0.213-0.012,0.365-0.036,0.484H126.633L126.633,52.027z M129.685,51.283
				c0.011-0.648-0.271-1.678-1.442-1.678c-1.062,0-1.514,0.957-1.596,1.678H129.685z"/>
			<path d="M138.418,54.498c-0.271,0.129-0.873,0.33-1.643,0.33c-1.725,0-2.85-1.168-2.85-2.918c0-1.764,1.207-3.051,3.074-3.051
				c0.613,0,1.158,0.154,1.44,0.309l-0.235,0.791c-0.248-0.129-0.64-0.271-1.207-0.271c-1.312,0-2.021,0.979-2.021,2.164
				c0,1.321,0.851,2.139,1.983,2.139c0.592,0,0.979-0.141,1.277-0.271L138.418,54.498z"/>
			<path d="M142.002,50.527c0-0.604-0.013-1.076-0.047-1.549h0.922l0.058,0.945h0.024c0.283-0.531,0.946-1.064,1.892-1.064
				c0.791,0,2.021,0.475,2.021,2.436v3.404h-1.039v-3.297c0-0.922-0.344-1.691-1.324-1.691c-0.674,0-1.207,0.484-1.396,1.066
				c-0.047,0.129-0.07,0.305-0.07,0.482v3.438h-1.043v-4.172L142.002,50.527L142.002,50.527z"/>
			<path d="M156.104,51.791c0,2.117-1.479,3.037-2.85,3.037c-1.537,0-2.741-1.135-2.741-2.943c0-1.901,1.266-3.024,2.836-3.024
				C154.992,48.86,156.104,50.055,156.104,51.791z M151.578,51.853c0,1.254,0.709,2.196,1.725,2.196
				c0.992,0,1.738-0.934,1.738-2.221c0-0.971-0.484-2.188-1.715-2.188C152.109,49.642,151.578,50.776,151.578,51.853z"/>
			<path d="M159.78,46.308h1.04V54.7h-1.04V46.308z"/>
			<path d="M170.11,51.791c0,2.117-1.478,3.037-2.849,3.037c-1.536,0-2.741-1.135-2.741-2.943c0-1.901,1.265-3.024,2.836-3.024
				C169,48.86,170.11,50.055,170.11,51.791z M165.584,51.853c0,1.254,0.709,2.196,1.726,2.196c0.991,0,1.737-0.934,1.737-2.221
				c0-0.971-0.484-2.188-1.713-2.188C166.117,49.642,165.584,50.776,165.584,51.853z"/>
			<path d="M178.682,53.861c0,1.324-0.271,2.115-0.816,2.623c-0.566,0.506-1.371,0.686-2.092,0.686
				c-0.686,0-1.441-0.166-1.904-0.473l0.262-0.805c0.379,0.246,0.97,0.461,1.678,0.461c1.064,0,1.844-0.555,1.844-2.01v-0.625
				h-0.023c-0.308,0.531-0.933,0.955-1.819,0.955c-1.419,0-2.435-1.203-2.435-2.787c0-1.939,1.266-3.027,2.59-3.027
				c0.992,0,1.524,0.51,1.783,0.982h0.023l0.035-0.863h0.923c-0.036,0.402-0.047,0.875-0.047,1.561L178.682,53.861L178.682,53.861z
				 M177.642,51.236c0-0.178-0.013-0.33-0.06-0.461c-0.188-0.615-0.687-1.111-1.453-1.111c-0.994,0-1.7,0.84-1.7,2.164
				c0,1.123,0.577,2.055,1.69,2.055c0.647,0,1.229-0.399,1.441-1.062c0.059-0.178,0.082-0.379,0.082-0.558L177.642,51.236
				L177.642,51.236L177.642,51.236z"/>
			<path d="M183.848,47.371c0,0.354-0.249,0.639-0.662,0.639c-0.378,0-0.626-0.284-0.626-0.639c0-0.354,0.259-0.647,0.649-0.647
				C183.586,46.721,183.848,47.006,183.848,47.371z M182.688,54.699v-5.721h1.042v5.721H182.688L182.688,54.699z"/>
			<path d="M191.838,53.328c0,0.496,0.022,0.98,0.082,1.373h-0.934l-0.083-0.723h-0.034c-0.318,0.449-0.935,0.852-1.748,0.852
				c-1.158,0-1.748-0.813-1.748-1.643c0-1.383,1.229-2.139,3.438-2.127v-0.117c0-0.461-0.13-1.324-1.301-1.312
				c-0.545,0-1.1,0.152-1.502,0.429l-0.235-0.699c0.474-0.295,1.17-0.496,1.892-0.496c1.748,0,2.174,1.195,2.174,2.33V53.328
				L191.838,53.328z M190.834,51.779c-1.138-0.023-2.426,0.178-2.426,1.289c0,0.686,0.45,0.992,0.971,0.992
				c0.756,0,1.24-0.473,1.406-0.955c0.034-0.119,0.049-0.238,0.049-0.332V51.779z"/>
		</g>
	</g>
</g>
</svg>
