<svg width="364" height="120" viewBox="0 0 364 120" xmlns="http://www.w3.org/2000/svg" xmlns:xlink="http://www.w3.org/1999/xlink"><title>Page 1</title><defs><path id="a" d="M54.279 87.785H.409V.436h53.87v87.35z"/><path id="c" d="M0 119.663h363.503V0H0z"/></defs><g fill="none" fill-rule="evenodd"><g transform="translate(49.128 31.878)"><mask id="b" fill="#fff"><use xlink:href="#a"/></mask><path d="M41.747 33.727a15.98 15.98 0 0 1-3.354 4.942c-1.412 1.412-3.072 2.53-4.978 3.353-1.905.825-3.942 1.236-6.106 1.236-2.118 0-4.131-.411-6.036-1.236-1.907-.823-3.567-1.94-4.978-3.353a15.966 15.966 0 0 1-3.354-4.942c-.824-1.882-1.235-3.907-1.235-6.073 0-2.164.411-4.188 1.235-6.071a15.975 15.975 0 0 1 3.354-4.942c1.411-1.412 3.071-2.53 4.978-3.354a15.064 15.064 0 0 1 6.036-1.235c2.164 0 4.2.412 6.106 1.235 1.906.824 3.566 1.942 4.978 3.354a15.99 15.99 0 0 1 3.354 4.942c.822 1.883 1.235 3.907 1.235 6.071 0 2.166-.413 4.19-1.235 6.073M52.54 17.09c-1.413-3.248-3.267-6.254-5.715-8.702a27.581 27.581 0 0 0-8.617-5.826C34.937 1.151 31.06.436 27.344.436c-3.719 0-7.249 1.025-10.52 2.437-3.272 1.413-6.119 3.343-8.542 5.79-2.425 2.447-4.342 5.294-5.754 8.543C1.115 20.453.409 23.936.409 27.654c0 3.72.706 7.214 2.119 10.485 1.412 3.273 3.021 6.272 5.754 8.578 2.632 2.222 5.27 4.378 8.542 5.79a25.494 25.494 0 0 0 4.035 1.35v6.465H9.48V71.83h11.38v15.956h11.507V71.83H43.41V60.322H32.366v-6.165a26.839 26.839 0 0 0 5.427-1.65c2.907-1.218 6.13-3.342 8.577-5.79s4.378-5.305 5.79-8.578c1.413-3.271 2.119-6.766 2.119-10.485 0-3.717-.325-7.316-1.738-10.563" fill="#9FD7DD" mask="url(#b)"/></g><path d="M53.726 74.188l8.674-7.251a15.322 15.322 0 0 1-1.163-2.849 15.847 15.847 0 0 1-.568-5.876c.18-2.021.781-3.973 1.805-5.85 1.026-1.877 2.343-3.438 3.948-4.68a15.79 15.79 0 0 1 5.249-2.698c1.894-.556 3.863-.74 5.907-.55 2.042.188 4.003.796 5.88 1.822a14.848 14.848 0 0 1 4.65 3.93c1.263 1.617 2.173 3.374 2.728 5.266.556 1.894.745 3.852.567 5.875-.177 2.023-.78 3.973-1.804 5.851-.091.166-.197.317-.292.478l9.652 6.692c.382-.588.633-.972.976-1.601 1.761-3.226 3.177-6.704 3.472-10.25.289-3.49.297-6.293-.76-10.336-.86-3.293-2.394-6.656-4.563-9.432-.868-1.108-2.385-2.742-3.421-3.69l2.472-4.526 5.453-9.98 1.44-2.636 1.033 4.158 11.261 1.52L110.112 0 81.844 8.743l6.87 8.383 5.956-1.824-2.063 3.779-5.453 9.98-2.423 4.438c-1.79-.582-4.171-.926-6.042-1.1-3.503-.325-6.781.168-10.232 1.424-3.214 1.17-6.228 2.692-9.003 4.86-2.774 2.168-5.015 5.103-6.776 8.328-1.76 3.224-2.799 6.58-3.114 10.066-.313 3.485.013 6.869.975 10.15a26.756 26.756 0 0 0 3.187 6.96" fill="#F6B518"/><path d="M80.295 43.908a15.743 15.743 0 0 1 5.427 2.319c1.69 1.125 3.113 2.589 4.268 4.39.7 1.089 1.227 2.22 1.62 3.385l10.203-4.676a26.81 26.81 0 0 0-2.428-4.74c-1.985-3.092-4.438-5.62-7.359-7.586-2.92-1.968-6.041-3.322-9.364-4.062-3.322-.742-6.719-.827-10.194-.254-1.39.228-2.747.576-4.075 1.03l-2.055-3.2 11.708-7.188-4.43-7.215-11.74 7.427-3.077-4.77-1.623-2.528 4.145 1.089 6.734-9.154L40.882.4l-5.888 28.998 10.652-2.008 1.256-6.101 2.326 3.623 3.034 4.666-9.705 5.871 4.308 7.018 9.78-6.004 1.798 2.803c-1.369 1.292-2.592 2.88-3.64 4.438-.503.745-1.272 1.775-1.694 2.549l10.136 5.777a16.17 16.17 0 0 1 1.023-1.77c1.145-1.704 2.619-3.134 4.419-4.289a14.88 14.88 0 0 1 5.679-2.194c2.025-.334 4.001-.29 5.93.132" fill="#D6DE23"/><path d="M34.486 40.064v7.814c-3.812-3.19-7.758-4.785-11.835-4.785-4.492 0-8.277 1.614-11.354 4.841-3.096 3.21-4.644 7.136-4.644 11.779 0 4.587 1.548 8.456 4.644 11.61 3.096 3.152 6.89 4.728 11.382 4.728 2.322 0 4.294-.378 5.918-1.133.906-.377 1.845-.887 2.817-1.53a33.184 33.184 0 0 0 3.072-2.32v7.955c-3.775 2.134-7.74 3.2-11.892 3.2-6.247 0-11.58-2.18-15.997-6.54C2.199 71.285 0 65.98 0 59.77c0-5.568 1.84-10.532 5.521-14.893 4.53-5.342 10.392-8.013 17.583-8.013 3.926 0 7.72 1.067 11.382 3.2M64.15 59.569c0 1.74.327 3.344.985 4.813a12.138 12.138 0 0 0 2.668 3.827 12.057 12.057 0 0 0 3.914 2.522c1.487.6 3.063.9 4.726.9 1.661 0 3.237-.3 4.726-.9a12.419 12.419 0 0 0 3.943-2.522 11.95 11.95 0 0 0 2.696-3.827c.656-1.47.986-3.073.986-4.813 0-1.74-.33-3.343-.986-4.813a11.968 11.968 0 0 0-2.696-3.827 12.537 12.537 0 0 0-8.669-3.421c-1.663 0-3.239.3-4.726.899-1.489.6-2.793 1.44-3.914 2.522a12.156 12.156 0 0 0-2.668 3.827c-.658 1.47-.985 3.073-.985 4.813m-11.888 0c0-3.247.599-6.271 1.798-9.075 1.197-2.803 2.86-5.248 4.987-7.335 2.125-2.088 4.668-3.72 7.625-4.9 2.957-1.178 6.213-1.769 9.77-1.769 3.518 0 6.765.59 9.742 1.769 2.977 1.18 5.538 2.812 7.684 4.9a22.425 22.425 0 0 1 5.015 7.335c1.198 2.804 1.798 5.828 1.798 9.075 0 3.247-.6 6.273-1.798 9.075a22.417 22.417 0 0 1-5.015 7.335c-2.146 2.088-4.707 3.722-7.684 4.9-2.977 1.18-6.224 1.769-9.741 1.769-3.558 0-6.814-.59-9.771-1.769-2.957-1.178-5.5-2.812-7.625-4.9-2.127-2.087-3.79-4.532-4.987-7.335-1.2-2.802-1.798-5.828-1.798-9.075m71.722 15.661h2.973c2.963 0 5.426-.312 7.39-.935 1.963-.66 3.737-1.708 5.323-3.143 3.246-2.963 4.87-6.823 4.87-11.58 0-4.795-1.605-8.683-4.813-11.666-2.889-2.66-7.146-3.992-12.77-3.992h-2.973v31.315zm-6.597 6.2V37.714h9.173c4.398 0 7.872.434 10.42 1.302 2.737.85 5.219 2.293 7.447 4.332 4.51 4.115 6.766 9.523 6.766 16.224 0 6.72-2.35 12.156-7.05 16.309-2.36 2.076-4.832 3.52-7.418 4.331-2.416.812-5.842 1.218-10.277 1.218h-9.06zm73.411-16.818l-6.484-14.865-6.795 14.865h13.28zm2.69 6.2h-18.715l-4.87 10.618h-7.108l21.633-46.463 20.867 46.463h-7.22l-4.587-10.618zM218.09 81.43l9.202-47 15.006 33.976 15.544-33.977 8.268 47.001h-6.767l-4.219-26.389-12.94 28.4-12.57-28.428-4.7 26.417zm66.584-21.972c0 4.833 1.624 8.806 4.87 11.92 3.228 3.115 6.956 4.673 11.185 4.673 4.586 0 8.456-1.586 11.608-4.758 3.152-3.208 4.729-7.116 4.729-11.721 0-4.662-1.558-8.57-4.672-11.722-3.096-3.172-6.928-4.757-11.495-4.757-4.55 0-8.39 1.585-11.524 4.757-3.134 3.134-4.7 7.003-4.7 11.608m-6.655-.084c0-6.154 2.256-11.44 6.768-15.856 4.492-4.417 9.89-6.626 16.195-6.626 6.229 0 11.57 2.228 16.025 6.682 4.474 4.455 6.71 9.807 6.71 16.054 0 6.286-2.245 11.619-6.738 15.997-4.51 4.4-9.957 6.598-16.337 6.598-5.644 0-10.712-1.954-15.204-5.861-4.945-4.322-7.419-9.985-7.419-16.988m84.35-15.148l-5.351 3.171c-1-1.737-1.953-2.87-2.86-3.398-.943-.604-2.16-.906-3.652-.906-1.831 0-3.35.52-4.559 1.557-1.208 1.02-1.812 2.303-1.812 3.851 0 2.134 1.586 3.85 4.757 5.153l4.36 1.784c3.55 1.434 6.145 3.185 7.787 5.252 1.642 2.067 2.463 4.6 2.463 7.602 0 4.02-1.34 7.343-4.02 9.967-2.7 2.643-6.05 3.964-10.052 3.964-3.794 0-6.927-1.123-9.4-3.37-2.435-2.246-3.954-5.408-4.558-9.485l6.681-1.472c.302 2.567.831 4.342 1.586 5.323 1.36 1.888 3.341 2.832 5.946 2.832 2.058 0 3.766-.69 5.125-2.068 1.359-1.377 2.039-3.124 2.039-5.238a7.35 7.35 0 0 0-.355-2.335 5.926 5.926 0 0 0-1.104-1.954c-.5-.595-1.147-1.151-1.94-1.67-.792-.52-1.736-1.015-2.83-1.487l-4.22-1.755c-5.983-2.53-8.975-6.23-8.975-11.1 0-3.284 1.255-6.03 3.766-8.239 2.51-2.227 5.634-3.341 9.372-3.341 5.04 0 8.975 2.454 11.807 7.362" fill="#D91C5B"/><mask id="d" fill="#fff"><use xlink:href="#c"/></mask><path d="M68.572 62.914H83.65v-2.407H68.572v2.407zm0-4.587H83.65v-2.406H68.572v2.406z" fill="#D91C5B" mask="url(#d)"/><path d="M70.327 46.374a2.798 2.798 0 1 0-3.742-4.162 2.798 2.798 0 0 0 3.742 4.162m-5.853.853a1.311 1.311 0 1 0-1.753-1.95 1.311 1.311 0 0 0 1.753 1.95" fill="#F0F0F1" mask="url(#d)"/></g></svg>