<svg xmlns="http://www.w3.org/2000/svg" width="128.52" height="125.608" viewBox="0.348 15.589 128.52 125.608"><circle fill="#FFF" cx="64.608" cy="78.281" r="56.481"/><path fill="#543632" d="M126.576 67.41l-5.527-9.58-1.921-10.891-8.472-7.106-5.533-9.577-10.393-3.777-8.472-7.108H75.197l-10.393-3.783-10.393 3.783H43.35l-8.472 7.101-10.393 3.778-5.531 9.579-8.473 7.109-1.92 10.892-5.53 9.583 1.92 10.897-1.92 10.891 5.53 9.582 1.92 10.897 8.473 7.107 5.524 9.581 10.393 3.86 8.473 7.183h11.062l10.393 3.785 10.394-3.785h11.062l8.472-7.178 10.396-3.827 5.528-9.594 8.475-7.116 1.918-10.898 5.532-9.579-1.92-10.891 1.92-10.891v-.027zm-61.771 65.824c-30.338 0-54.932-24.595-54.932-54.931 0-30.34 24.594-54.934 54.932-54.934 30.337 0 54.933 24.594 54.933 54.933 0 30.337-24.596 54.932-54.933 54.932z"/><path d="M65.907 25.987c0-.519-.141-1.015-.4-1.397-.251-.372-.594-.606-.96-.659a1.058 1.058 0 0 0-.158-.011c-.84-.001-1.524.922-1.525 2.061-.001.519.141 1.014.399 1.397.249.372.586.606.957.659.051.007.102.011.158.011.402 0 .779-.209 1.066-.591.294-.39.454-.912.454-1.469h.009zm-1.419 1.482a.09.09 0 0 1-.058.015.089.089 0 0 1-.047-.024.079.079 0 0 1-.004-.103c.007-.002.166-.213.128-.747-.013-.255-.109-.385-.204-.523-.114-.165-.23-.333-.23-.686 0-.455.364-.85.384-.868a.082.082 0 0 1 .096-.015c.031.018.051.054.038.089-.038.146-.122.571-.052.771.07.185.16.313.243.439.127.189.249.367.255.679.006.555-.51.951-.529.969l-.02.004zm-2.233-1.438c-.035-.518-.211-1.002-.496-1.365-.276-.354-.633-.563-1.003-.59a1.302 1.302 0 0 0-.153 0c-.837.057-1.455 1.027-1.378 2.163.038.517.21 1.002.498 1.365.28.353.638.563 1.007.589.058.004.108.004.159 0 .402-.027.767-.263 1.027-.665.269-.41.396-.942.357-1.497h-.018zm-1.311 1.576a.074.074 0 0 1-.057.019.067.067 0 0 1-.047-.019.08.08 0 0 1-.012-.103c0-.001.146-.223.072-.752-.039-.254-.14-.377-.241-.509-.129-.155-.257-.315-.282-.668-.031-.455.301-.874.319-.892a.072.072 0 0 1 .09-.021c.032.015.051.05.038.085-.032.149-.09.578 0 .772.076.18.173.303.268.422.141.179.274.349.301.66.044.554-.447.988-.466 1.006h.017zm-2.325-1.28c-.073-.513-.282-.983-.591-1.327-.302-.333-.672-.518-1.043-.519-.054 0-.107.007-.158.013-.831.116-1.382 1.129-1.223 2.252.07.517.279.989.588 1.327.302.338.672.524 1.044.524.052 0 .105 0 .159-.007.396-.05.742-.312.975-.734.235-.427.326-.962.249-1.519v-.01zm-1.201 1.667a.084.084 0 0 1-.056.022.075.075 0 0 1-.049-.02.082.082 0 0 1-.019-.102c.002-.007.131-.236.019-.759a.905.905 0 0 0-.272-.492c-.137-.146-.277-.299-.326-.651-.062-.452.243-.893.255-.913.021-.031.058-.044.092-.031s.054.044.05.083c-.02.147-.045.581.051.766.089.172.197.287.301.402.153.166.293.325.343.638.083.547-.376 1.014-.395 1.033l.006.024zm-2.41-1.117c-.107-.506-.349-.962-.681-1.281-.324-.313-.706-.471-1.076-.445a.65.65 0 0 0-.158.019c-.816.172-1.295 1.218-1.06 2.329.109.504.353.963.684 1.282.325.313.708.466 1.077.44.059-.007.108-.013.16-.026.396-.083.721-.37.926-.804.21-.44.254-.989.146-1.531l-.018.017zm-1.079 1.745a.078.078 0 0 1-.054.027.072.072 0 0 1-.049-.012.079.079 0 0 1-.026-.101c0-.002.113-.241-.034-.756-.07-.245-.184-.354-.308-.47-.146-.137-.296-.278-.369-.623-.094-.447.179-.913.191-.932.019-.032.055-.044.09-.038.033.006.057.038.054.076-.007.153-.004.581.108.766.105.166.217.273.327.376.165.153.32.306.389.612.122.536-.302 1.034-.318 1.059l-.001.016zm-2.482-.943c-.143-.498-.415-.936-.769-1.231-.345-.288-.737-.42-1.105-.369a1.239 1.239 0 0 0-.156.033c-.809.23-1.211 1.309-.898 2.402.14.498.414.936.765 1.231.345.29.733.422 1.104.37a1.46 1.46 0 0 0 .152-.032c.384-.11.689-.417.863-.865.171-.457.184-1.002.031-1.538l.013-.001zm-.954 1.816a.076.076 0 0 1-.052.03.086.086 0 0 1-.052-.009.074.074 0 0 1-.032-.096s.097-.249-.086-.747c-.086-.236-.21-.337-.341-.446a1.02 1.02 0 0 1-.411-.593c-.126-.434.114-.918.126-.938.016-.032.052-.044.087-.039.038.013.062.039.062.077.007.152.038.586.166.759.115.159.236.262.352.357.179.146.345.288.434.581.16.529-.224 1.059-.242 1.078l-.011-.014zm-2.542-.768c-.177-.487-.479-.904-.854-1.175-.363-.264-.765-.367-1.129-.291-.05.01-.103.025-.152.043-.789.285-1.116 1.389-.729 2.459.176.485.479.9.852 1.174.365.262.765.363 1.129.287.052-.013.103-.025.153-.045.376-.14.661-.465.801-.924.144-.474.117-1.016-.072-1.539l.001.011zm-.827 1.877a.08.08 0 0 1-.049.034.077.077 0 0 1-.051-.008.076.076 0 0 1-.039-.095c0-.001.077-.253-.139-.743a.938.938 0 0 0-.377-.422c-.165-.115-.331-.234-.453-.565-.159-.429.052-.924.059-.945.012-.033.045-.051.082-.045.032.006.064.034.064.07.013.15.077.58.21.742.121.15.249.242.377.332.185.133.356.259.466.551.198.522-.153 1.071-.166 1.097l.016-.003zm-2.588-.588c-.211-.473-.542-.869-.934-1.113-.381-.237-.788-.312-1.146-.21a1.164 1.164 0 0 0-.153.054c-.765.34-1.021 1.462-.555 2.503.21.475.542.87.932 1.113.383.239.785.312 1.143.21a.77.77 0 0 0 .146-.054c.365-.166.625-.51.734-.975.108-.479.045-1.021-.185-1.532l.018.004zm-.694 1.929a.087.087 0 0 1-.048.039.095.095 0 0 1-.05-.003.077.077 0 0 1-.046-.093c0-.002.06-.258-.191-.731-.118-.227-.255-.308-.398-.396-.172-.103-.348-.21-.491-.533-.185-.417-.013-.925-.006-.946a.082.082 0 0 1 .081-.053c.031.003.064.03.07.065.02.149.115.574.261.726.135.14.268.223.396.304.192.121.377.233.504.516.229.506-.083 1.082-.096 1.106l.014-.001zm-2.625-.404c-.242-.458-.599-.83-1.007-1.046-.397-.21-.809-.257-1.158-.131-.05.02-.1.046-.146.071-.741.395-.912 1.53-.379 2.539.243.459.606.83 1.009 1.047.401.21.81.254 1.161.133a.614.614 0 0 0 .146-.063c.357-.186.594-.549.663-1.021.077-.479-.024-1.021-.285-1.511l-.004-.018zm-.555 1.974a.084.084 0 0 1-.045.04c-.017.006-.033.006-.051.006a.077.077 0 0 1-.052-.088s.042-.262-.241-.715c-.133-.216-.275-.286-.428-.363a1.04 1.04 0 0 1-.525-.498c-.213-.402-.077-.918-.071-.944a.08.08 0 0 1 .076-.058c.036 0 .066.024.075.063.033.153.156.567.313.709.146.133.284.203.419.273.202.108.393.21.542.485.267.492-.002 1.085-.013 1.111v-.021zm-2.647-.223c-.274-.44-.657-.786-1.078-.973-.411-.184-.825-.201-1.165-.051a1.255 1.255 0 0 0-.14.075c-.712.444-.803 1.59-.201 2.556.274.441.656.791 1.078.977.41.185.823.205 1.163.051.049-.02.097-.045.141-.071.342-.21.552-.586.592-1.065.043-.485-.095-1.014-.389-1.486l-.001-.013zm-.419 2.007a.068.068 0 0 1-.04.043.074.074 0 0 1-.051.004.075.075 0 0 1-.057-.085c0-.002.023-.264-.29-.698-.149-.208-.297-.27-.45-.337-.185-.078-.375-.159-.56-.459-.241-.387-.144-.914-.139-.936a.072.072 0 0 1 .071-.064c.036-.006.069.02.079.051.045.146.196.548.363.682.155.122.299.186.437.243.209.089.406.179.574.44.299.465.072 1.077.062 1.103v.013zm-2.654-.037c-.303-.419-.71-.737-1.143-.895-.423-.153-.837-.143-1.165.031a1.04 1.04 0 0 0-.135.083c-.68.493-.69 1.643-.021 2.564.304.421.71.739 1.144.896.423.153.835.141 1.165-.033a.99.99 0 0 0 .134-.083c.326-.236.51-.629.518-1.108.005-.486-.17-1.004-.497-1.455zm-.276 2.033a.08.08 0 0 1-.038.046.083.083 0 0 1-.05.008c-.045-.013-.07-.044-.07-.083 0-.006.007-.268-.338-.676-.166-.197-.312-.249-.473-.306a1.035 1.035 0 0 1-.593-.42c-.268-.37-.205-.906-.205-.925 0-.039.033-.064.064-.07.032-.007.064.013.076.044.052.14.235.537.409.651.158.109.306.16.453.21.21.077.415.147.6.396.331.446.146 1.071.14 1.097l.025.028zm-2.651.147c-.332-.397-.76-.686-1.205-.812-.431-.124-.843-.083-1.158.112-.045.026-.088.059-.129.09-.645.536-.574 1.685.157 2.559.337.395.765.683 1.205.81.434.121.849.083 1.161-.114.045-.032.089-.065.127-.096.307-.262.467-.664.441-1.142-.026-.492-.236-.995-.594-1.423l-.005.016zm-.135 2.047a.08.08 0 0 1-.035.049.082.082 0 0 1-.049.012.079.079 0 0 1-.07-.077c0-.001-.013-.264-.383-.651-.178-.185-.332-.227-.494-.27-.193-.053-.392-.106-.619-.377-.291-.35-.268-.886-.266-.908a.08.08 0 0 1 .062-.07.082.082 0 0 1 .085.044c.064.142.272.518.456.626.169.102.319.141.465.185.221.064.428.122.632.358.361.42.222 1.059.216 1.091v-.012zm-2.633.333c-.36-.373-.807-.632-1.257-.728-.44-.092-.848-.023-1.148.194a.653.653 0 0 0-.123.103c-.605.581-.454 1.722.334 2.539.36.371.806.632 1.257.728.44.089.848.025 1.148-.197.043-.033.084-.064.122-.103.289-.28.415-.695.357-1.167-.061-.485-.306-.977-.69-1.378v.009zm.007 2.052a.066.066 0 0 1-.031.05.073.073 0 0 1-.048.015.07.07 0 0 1-.07-.071s-.031-.262-.428-.619c-.185-.172-.345-.198-.51-.236-.198-.039-.395-.077-.644-.332-.313-.325-.326-.861-.326-.887 0-.032.026-.064.057-.077.039-.006.07.006.09.038.076.134.306.498.498.593.179.089.332.122.478.153.223.051.435.096.658.313.389.395.3 1.04.293 1.071l-.017-.011zm-2.604.515c-.386-.348-.85-.575-1.306-.638-.445-.062-.847.035-1.132.274a.993.993 0 0 0-.115.11c-.562.623-.333 1.75.512 2.513.384.347.848.573 1.304.637.44.062.842-.034 1.129-.271.039-.034.078-.071.115-.111.269-.297.365-.721.274-1.189-.096-.481-.375-.951-.785-1.323h.004zm.152 2.045a.06.06 0 0 1-.026.053.063.063 0 0 1-.045.018.076.076 0 0 1-.076-.065c0-.001-.052-.261-.472-.592-.198-.157-.357-.178-.523-.196-.197-.026-.402-.053-.664-.288-.338-.306-.389-.84-.389-.862 0-.036.019-.069.051-.081.038-.011.07.001.089.032.083.126.344.474.542.554.186.073.338.096.492.115.229.033.44.062.676.269.415.366.369 1.017.363 1.045h-.018zm-2.563.696c-.407-.319-.885-.513-1.345-.545-.449-.026-.843.096-1.11.352a.952.952 0 0 0-.108.12c-.517.663-.21 1.773.686 2.476.408.318.887.518 1.346.549.453.031.848-.09 1.117-.351.038-.038.076-.077.108-.116.249-.312.32-.739.191-1.205-.127-.472-.434-.918-.874-1.263l-.011-.017zm.295 2.03c0 .021-.01.041-.023.055a.091.091 0 0 1-.052.022.077.077 0 0 1-.083-.061c0-.002-.07-.257-.511-.558-.21-.146-.369-.153-.542-.166-.205-.013-.408-.025-.682-.241-.363-.282-.447-.812-.453-.837a.075.075 0 0 1 .044-.083c.033-.019.07-.006.09.025.089.122.371.446.574.511.186.058.339.07.492.083.229.014.441.025.69.218.439.332.433.988.433 1.014l.023.018zm-2.507.873c-.431-.29-.919-.45-1.381-.45-.447 0-.83.153-1.078.428-.033.04-.064.082-.096.126-.466.695-.083 1.78.855 2.419.434.289.918.449 1.384.448.452 0 .835-.147 1.084-.428a.868.868 0 0 0 .102-.122c.23-.331.261-.765.108-1.211-.159-.459-.498-.887-.957-1.2l-.021-.01zm.434 2.005a.08.08 0 0 1-.019.056.072.072 0 0 1-.044.024.08.08 0 0 1-.089-.054c0-.002-.085-.251-.548-.52-.221-.129-.381-.128-.549-.124-.2 0-.405.006-.697-.198-.377-.255-.502-.778-.507-.805a.079.079 0 0 1 .04-.088.067.067 0 0 1 .095.019c.099.115.402.421.608.472.19.046.347.046.498.046.23 0 .445 0 .706.166.464.306.506.956.507.981v.025zm-2.44 1.045a2.506 2.506 0 0 0-1.409-.352c-.448.032-.821.211-1.05.502-.033.045-.063.09-.09.134-.421.728.038 1.78 1.022 2.354.446.262.944.391 1.404.352.447-.031.823-.21 1.046-.497a.891.891 0 0 0 .09-.128c.197-.345.203-.779.019-1.218-.192-.448-.562-.85-1.047-1.13l.015-.017zm.574 1.969a.08.08 0 0 1-.016.058.083.083 0 0 1-.042.027.076.076 0 0 1-.09-.048s-.102-.242-.581-.479c-.229-.108-.389-.096-.555-.083-.198.02-.402.038-.708-.141-.396-.223-.555-.739-.562-.759a.088.088 0 0 1 .039-.089c.033-.021.07-.013.096.013.109.108.434.395.645.434.198.038.35.025.503.013.23-.013.446-.031.715.122.484.274.573.918.573.95l-.017-.018zm-2.362 1.214c-.466-.228-.973-.318-1.431-.254-.444.063-.805.267-1.013.575a.932.932 0 0 0-.079.138c-.371.752.162 1.773 1.184 2.273.465.225.976.313 1.435.249.446-.063.803-.268 1.015-.573.031-.045.057-.09.083-.141.177-.364.153-.798-.064-1.226-.223-.434-.62-.81-1.117-1.059l-.013.018zm.71 1.924a.084.084 0 0 1-.053.095c-.032.014-.077-.007-.09-.038 0 0-.12-.236-.612-.44-.236-.096-.395-.069-.561-.045-.199.032-.396.064-.715-.088-.409-.199-.606-.696-.612-.723-.013-.031 0-.069.032-.089.031-.019.07-.019.096.008.114.102.459.363.669.389.198.019.352 0 .505-.02.229-.032.439-.063.721.07.503.242.638.88.644.906l-.024-.025zm-2.272 1.375a2.504 2.504 0 0 0-1.444-.152c-.44.095-.785.322-.975.644a1.2 1.2 0 0 0-.071.144c-.319.777.282 1.758 1.34 2.186.479.195.99.249 1.441.153.44-.094.785-.322.971-.644.024-.046.05-.094.07-.143.146-.372.096-.803-.153-1.213-.256-.42-.677-.766-1.194-.975h.015zm.843 1.87a.08.08 0 0 1-.007.061.061.061 0 0 1-.039.038c-.031.019-.077 0-.096-.032 0 0-.134-.224-.644-.396a.927.927 0 0 0-.562-.007c-.191.045-.396.096-.721-.039-.422-.171-.651-.656-.658-.675-.013-.032-.006-.071.026-.09.031-.019.07-.019.096 0 .122.096.484.331.695.339.199.006.352-.025.498-.059.223-.044.435-.089.728.021.516.204.695.829.702.86l-.018-.021zm-2.17 1.531c-.493-.161-1.008-.179-1.451-.052-.432.124-.759.376-.924.709a1.326 1.326 0 0 0-.059.147c-.262.797.406 1.734 1.489 2.088.492.166 1.007.186 1.451.058.432-.121.759-.377.924-.708.022-.045.043-.097.059-.146.125-.383.042-.804-.232-1.2-.283-.396-.728-.715-1.257-.886v-.01zm.97 1.808a.061.061 0 0 1-.004.057.073.073 0 0 1-.035.032c-.033.012-.078 0-.096-.032 0 0-.153-.218-.671-.351-.249-.064-.395-.02-.561.031-.192.058-.389.115-.721.006-.435-.146-.695-.611-.708-.63a.09.09 0 0 1 .019-.097.079.079 0 0 1 .096-.013c.127.083.503.294.714.288.198-.008.352-.052.492-.097.223-.063.428-.128.728-.032.529.166.752.779.758.804l-.011.034zm-2.058 1.679a2.49 2.49 0 0 0-1.451.049c-.422.153-.731.429-.871.771a1.339 1.339 0 0 0-.049.152c-.205.813.527 1.702 1.631 1.979a2.507 2.507 0 0 0 1.451-.049c.427-.16.733-.435.874-.778.02-.052.039-.103.052-.153.103-.39-.013-.811-.313-1.181-.306-.383-.771-.664-1.313-.797l-.011.007zm1.095 1.733a.07.07 0 0 1 0 .06.069.069 0 0 1-.031.038.08.08 0 0 1-.103-.021c-.001-.008-.166-.21-.693-.307-.251-.044-.401.013-.559.07-.185.069-.376.14-.721.058-.44-.115-.733-.562-.747-.581a.076.076 0 0 1 .013-.096.09.09 0 0 1 .096-.019c.133.069.522.255.74.236.197-.021.344-.077.484-.128.218-.077.415-.152.721-.083.542.127.804.727.817.752l-.017.021zm-1.934 1.816c-.51-.09-1.023-.037-1.445.152-.41.182-.7.478-.816.83a1.145 1.145 0 0 0-.037.154c-.149.828.643 1.662 1.764 1.862.509.091 1.022.038 1.444-.151.411-.183.701-.479.816-.831.017-.051.029-.102.039-.155.07-.394-.07-.805-.397-1.153-.336-.358-.822-.609-1.368-.708zm1.211 1.655c.009.02.011.038.005.058-.005.012-.015.032-.03.038a.092.092 0 0 1-.109-.013s-.185-.197-.715-.255c-.255-.032-.402.039-.555.109-.185.082-.369.165-.714.108-.453-.085-.779-.511-.792-.524-.024-.031-.024-.069 0-.095.026-.025.059-.039.09-.025.14.062.542.222.746.184.191-.031.332-.095.472-.158.21-.096.408-.186.715-.135.547.09.854.669.867.695l.02.013zm-1.804 1.948c-.514-.055-1.023.035-1.43.251-.396.211-.664.527-.752.888a1.18 1.18 0 0 0-.026.156c-.09.835.759 1.613 1.895 1.734.516.058 1.026-.031 1.429-.248.396-.21.669-.524.759-.887.013-.052.026-.102.032-.153.044-.396-.127-.799-.478-1.123-.358-.332-.862-.549-1.41-.606l-.019-.012zm1.325 1.565c.007.021.013.04.007.061-.007.017-.013.031-.033.041-.031.025-.076.022-.108-.006 0 0-.197-.181-.727-.202a.913.913 0 0 0-.542.148c-.178.097-.357.196-.708.159-.452-.046-.81-.447-.823-.467-.026-.024-.026-.063-.006-.095.019-.032.057-.039.089-.025.14.057.555.186.76.134.191-.045.324-.122.458-.192.198-.108.389-.204.702-.179.548.052.893.613.905.633l.026-.01zm-1.664 2.07c-.516-.019-1.017.105-1.409.352-.381.237-.626.57-.691.936a.931.931 0 0 0-.017.158c-.031.839.87 1.555 2.007 1.597.518.019 1.018-.104 1.41-.352.38-.237.625-.57.692-.936a.717.717 0 0 0 .019-.16c.019-.401-.178-.791-.555-1.092-.376-.306-.894-.49-1.449-.51l-.007.007zm1.432 1.469a.07.07 0 0 1 .013.058.078.078 0 0 1-.023.044.078.078 0 0 1-.104 0c-.001 0-.206-.166-.742-.147a.865.865 0 0 0-.53.184c-.166.108-.337.217-.689.204-.452-.019-.835-.396-.848-.408-.025-.026-.025-.063-.013-.097a.088.088 0 0 1 .09-.038c.146.046.567.142.771.077.192-.064.319-.147.448-.223.197-.122.376-.236.688-.23.562.013.938.542.958.567l-.019.009zm-1.516 2.18c-.519.018-1.009.177-1.381.446-.364.267-.584.617-.625.984-.006.054-.007.106-.006.161.028.836.976 1.49 2.114 1.451.519-.019 1.008-.178 1.381-.451.364-.271.586-.615.626-.984.006-.059.007-.11.006-.161-.014-.401-.237-.771-.63-1.044-.4-.281-.927-.428-1.484-.409v.007zm1.531 1.367a.08.08 0 0 1 .017.056.081.081 0 0 1-.021.047.08.08 0 0 1-.104.008c-.001 0-.217-.152-.75-.099a.959.959 0 0 0-.516.223c-.159.121-.325.249-.678.256-.455.019-.862-.332-.88-.345a.075.075 0 0 1-.018-.09c.016-.032.051-.044.088-.037.152.037.579.107.771.025.186-.072.313-.166.435-.255.185-.135.357-.262.67-.275.555-.025.977.479.989.498l-.003-.012zm-1.36 2.281a2.473 2.473 0 0 0-1.347.543c-.345.288-.542.653-.555 1.022-.002.054 0 .108.005.159.086.836 1.078 1.42 2.209 1.304.515-.054.994-.247 1.347-.545.344-.287.542-.651.555-1.023a1.237 1.237 0 0 0-.004-.161c-.045-.396-.293-.752-.702-1-.421-.25-.957-.357-1.512-.299h.004zm1.621 1.256a.075.075 0 0 1 .021.055.143.143 0 0 1-.013.049.083.083 0 0 1-.102.014s-.224-.138-.753-.045c-.249.042-.371.147-.498.258-.146.13-.306.266-.656.301-.454.047-.881-.271-.899-.284-.026-.024-.039-.062-.026-.094.019-.033.051-.052.083-.047.153.023.581.065.772-.028.179-.083.299-.188.415-.285.178-.145.344-.284.651-.322.555-.065 1.001.407 1.02.43h-.015zm-1.197 2.37c-.511.089-.975.313-1.306.636-.323.313-.494.687-.481 1.062 0 .051.006.102.013.156.14.824 1.173 1.338 2.29 1.145a2.53 2.53 0 0 0 1.302-.638c.319-.313.492-.689.479-1.061-.007-.057-.007-.108-.02-.159-.07-.396-.345-.734-.772-.948-.434-.225-.976-.295-1.525-.198l.02.005zm1.705 1.137a.084.084 0 0 1 .025.054.078.078 0 0 1-.116.073c-.002 0-.236-.115-.756.012a.912.912 0 0 0-.48.294c-.143.141-.288.285-.636.351-.45.084-.9-.21-.919-.224a.077.077 0 0 1-.032-.09c.012-.032.044-.051.081-.051.151.014.584.027.768-.082.171-.096.283-.203.391-.313.166-.159.319-.306.625-.362.549-.103 1.034.337 1.053.355l-.004-.017zm-1.029 2.448c-.502.125-.951.383-1.258.727-.299.334-.444.721-.406 1.091.006.054.014.107.026.156.203.815 1.266 1.255 2.37.981.502-.124.951-.381 1.258-.724.301-.335.445-.723.407-1.092a1.2 1.2 0 0 0-.027-.159c-.096-.388-.392-.705-.833-.892-.453-.189-1.002-.221-1.538-.089h.001zm1.781 1.018a.072.072 0 0 1 .028.054.063.063 0 0 1-.011.044c-.025.033-.064.045-.103.026-.006 0-.249-.11-.752.059a.871.871 0 0 0-.459.323c-.134.147-.269.307-.613.391-.446.107-.913-.149-.931-.161-.032-.019-.052-.059-.039-.088.006-.04.039-.059.077-.059.153 0 .581-.019.759-.134.159-.114.268-.231.364-.339.153-.173.293-.332.593-.415.535-.141 1.046.261 1.071.282l.016.017zm-.857 2.514c-.493.159-.92.446-1.204.813-.276.353-.393.75-.33 1.114.009.054.022.105.039.156.258.805 1.348 1.166 2.431.815.493-.158.92-.446 1.206-.811.276-.351.393-.752.33-1.117a1.048 1.048 0 0 0-.039-.151c-.124-.384-.44-.676-.894-.83-.462-.158-1.008-.153-1.537.019l-.002-.008zm1.848.892a.069.069 0 0 1 .032.051.077.077 0 0 1-.007.047.077.077 0 0 1-.097.038c-.002 0-.251-.089-.748.111-.236.094-.332.222-.435.355-.12.159-.241.325-.58.433-.434.143-.918-.082-.937-.092a.08.08 0 0 1-.045-.086.078.078 0 0 1 .077-.062c.153-.01.58-.057.752-.188.16-.121.255-.245.344-.364.14-.183.274-.351.568-.45.53-.181 1.065.184 1.091.202l-.015.005zm-.678 2.566c-.48.194-.887.51-1.146.892-.252.375-.339.778-.252 1.141.013.053.03.104.05.152.312.778 1.429 1.065 2.487.645a2.483 2.483 0 0 0 1.148-.895c.255-.369.345-.775.255-1.136-.013-.049-.025-.101-.044-.145-.147-.369-.484-.645-.945-.767-.472-.126-1.014-.084-1.53.129l-.023-.016zm1.905.76a.13.13 0 0 1 .032.049c0 .017 0 .032-.007.052a.08.08 0 0 1-.095.041c-.007-.006-.262-.069-.741.159-.23.107-.319.243-.415.383a1.065 1.065 0 0 1-.549.473c-.426.165-.924-.019-.944-.033a.073.073 0 0 1-.051-.081.083.083 0 0 1 .064-.07c.147-.021.575-.103.733-.243.147-.133.236-.262.319-.391.127-.19.249-.369.537-.49.51-.215 1.071.117 1.097.129l.02.022zm-.498 2.609c-.465.225-.85.569-1.081.972-.224.388-.285.797-.17 1.15a.814.814 0 0 0 .06.149c.369.752 1.499.963 2.526.467.466-.226.849-.57 1.085-.972.223-.389.287-.799.172-1.151a.55.55 0 0 0-.058-.147c-.172-.36-.528-.61-.995-.701-.479-.094-1.021-.01-1.519.233h-.02zm1.953.626c.02.01.034.026.04.045a.089.089 0 0 1 0 .051c-.014.035-.054.059-.091.05-.002 0-.26-.052-.726.215-.221.126-.3.267-.381.413-.097.181-.198.357-.515.512-.41.196-.924.042-.945.038a.07.07 0 0 1-.055-.078c0-.03.025-.062.058-.069.146-.026.568-.133.713-.288.134-.14.212-.272.288-.406.115-.198.217-.383.498-.522.492-.251 1.079.041 1.104.055l.012-.016zm-.314 2.637c-.45.257-.809.628-1.009 1.044-.196.403-.23.815-.091 1.16.019.05.043.099.07.144.417.727 1.561.857 2.547.29.45-.26.808-.629 1.009-1.045.196-.406.23-.815.091-1.159a.858.858 0 0 0-.07-.146c-.2-.354-.571-.575-1.046-.634-.485-.062-1.02.059-1.5.339v.007zm1.993.485a.079.079 0 0 1 .042.044.086.086 0 0 1 .003.05.078.078 0 0 1-.088.056c-.002 0-.264-.032-.708.267-.212.141-.28.285-.351.439-.086.18-.172.366-.479.541-.396.227-.918.11-.941.104a.077.077 0 0 1-.061-.074c0-.034.024-.067.059-.077.146-.039.556-.177.693-.341.126-.149.195-.289.262-.425.1-.206.193-.402.461-.561.478-.28 1.082-.032 1.108-.023zm-.13 2.654c-.43.289-.762.682-.935 1.112-.168.415-.171.829-.008 1.163a.78.78 0 0 0 .076.136c.466.694 1.615.745 2.559.107.427-.294.759-.683.931-1.11.166-.423.172-.836.006-1.167a.886.886 0 0 0-.083-.141c-.223-.332-.612-.531-1.091-.554-.492-.028-1.014.126-1.475.438l.02.016zm2.021.346c.02.007.037.023.044.042.008.014.009.03.007.049a.08.08 0 0 1-.084.061c-.002 0-.265-.014-.688.315-.2.155-.258.304-.318.463-.074.183-.147.374-.441.572-.377.255-.907.174-.93.166a.076.076 0 0 1-.065-.07.085.085 0 0 1 .052-.084c.144-.049.544-.215.667-.388a1.84 1.84 0 0 0 .23-.445c.085-.211.166-.415.423-.595.457-.319 1.076-.114 1.103-.101v.015zm.054 2.654c-.407.319-.711.735-.854 1.173-.138.43-.113.841.072 1.163.025.047.056.089.089.134.515.661 1.666.633 2.563-.067a2.51 2.51 0 0 0 .855-1.174c.138-.427.112-.841-.072-1.163-.032-.045-.058-.089-.09-.131-.249-.313-.651-.485-1.13-.473-.491.015-1.001.204-1.441.543l.008-.005zm2.043.205a.08.08 0 0 1 .056.09.08.08 0 0 1-.079.064c-.001 0-.265.005-.664.36-.192.173-.237.325-.286.485-.06.192-.121.389-.399.603-.357.281-.893.239-.913.236-.032-.002-.063-.03-.07-.065a.071.071 0 0 1 .052-.081c.14-.062.529-.255.638-.435.109-.166.153-.315.197-.461.07-.217.141-.422.383-.616.434-.349 1.071-.185 1.097-.181h-.012zm.239 2.645c-.386.347-.659.786-.77 1.232-.108.437-.051.846.153 1.153.032.045.064.087.103.127.561.619 1.709.512 2.552-.251.389-.343.664-.784.772-1.229.109-.441.058-.851-.153-1.154-.025-.046-.064-.091-.096-.131-.269-.299-.676-.439-1.155-.401-.485.039-.983.271-1.397.641l-.009.013zm2.051.066c.026 0 .044.014.051.03.013.017.013.03.013.049 0 .037-.033.07-.071.07 0 0-.261.019-.638.409-.179.177-.21.339-.249.497-.044.191-.089.396-.351.631-.339.299-.874.295-.899.295-.032 0-.064-.026-.07-.065-.007-.037.013-.07.044-.089.14-.071.511-.295.612-.477.096-.174.135-.327.167-.473.059-.224.108-.435.339-.645.408-.378 1.052-.262 1.078-.257l-.026.025zm.424 2.619c-.36.371-.603.827-.683 1.282-.078.442.005.847.234 1.141a.983.983 0 0 0 .105.117c.603.584 1.738.394 2.529-.421.361-.379.604-.832.683-1.285.079-.444-.005-.846-.232-1.141a.766.766 0 0 0-.106-.121c-.287-.28-.706-.397-1.181-.318-.481.075-.96.338-1.348.738v.008zm2.05-.082a.095.095 0 0 1 .05.031.078.078 0 0 1 .013.043c0 .038-.031.07-.069.077-.006 0-.263.038-.612.447-.166.191-.191.35-.217.517-.032.198-.063.4-.312.651-.319.324-.855.355-.874.355a.089.089 0 0 1-.084-.056c-.012-.038 0-.071.033-.09.127-.084.484-.327.567-.523.076-.178.109-.331.135-.485.038-.229.076-.439.286-.664.383-.406 1.028-.336 1.059-.331l.025.028zm.607 2.587c-.334.395-.545.866-.593 1.326-.046.447.064.844.313 1.123.034.036.072.076.113.109.642.542 1.761.271 2.492-.599.335-.396.545-.869.592-1.327.047-.446-.062-.846-.312-1.121a.929.929 0 0 0-.114-.112c-.306-.257-.731-.342-1.199-.231-.475.111-.935.405-1.292.832zm2.038-.224a.086.086 0 0 1 .054.026.068.068 0 0 1 .021.046.078.078 0 0 1-.063.082c-.002 0-.259.059-.573.493-.152.205-.166.364-.182.532-.019.201-.038.406-.268.673-.293.354-.829.423-.849.423-.038.008-.07-.011-.083-.051a.08.08 0 0 1 .025-.09c.121-.081.459-.356.536-.553.064-.188.083-.342.096-.493.019-.222.045-.441.241-.683.353-.428 1.003-.401 1.034-.401l.011-.004zm.785 2.535c-.305.421-.482.907-.497 1.367-.016.448.122.839.389 1.096a.945.945 0 0 0 .123.103c.677.496 1.774.149 2.444-.771.307-.416.482-.902.498-1.364.015-.449-.124-.837-.389-1.097a.767.767 0 0 0-.123-.101c-.324-.238-.755-.291-1.213-.149-.467.14-.905.467-1.232.916zm2.017-.362c.02-.002.039.008.052.021s.02.028.02.045a.077.077 0 0 1-.059.086c-.006 0-.254.078-.542.53-.14.219-.14.377-.146.543-.007.198-.013.401-.218.689-.268.363-.798.472-.816.477-.038.009-.07-.012-.09-.043-.019-.032-.006-.07.02-.098.122-.093.44-.388.498-.594.05-.188.058-.343.062-.494.008-.229.014-.449.192-.701.318-.453.97-.475 1.002-.475l.025.014zm.96 2.474c-.274.439-.418.934-.401 1.396.017.449.182.827.465 1.065.041.04.083.073.129.099.711.446 1.781.023 2.385-.938.277-.439.419-.931.402-1.392-.017-.446-.181-.828-.465-1.064a1.336 1.336 0 0 0-.129-.089c-.339-.213-.772-.236-1.22-.063-.453.178-.868.535-1.161 1l-.005-.014zm1.989-.504c.019 0 .038.004.051.018.013.01.02.025.025.042.006.04-.013.077-.052.089 0 .003-.248.099-.503.57-.121.225-.114.384-.108.552.007.201.019.406-.166.705-.242.386-.759.528-.785.532-.037.015-.07-.004-.089-.032a.075.075 0 0 1 .013-.094c.109-.103.408-.416.454-.625.037-.192.031-.347.031-.498-.013-.223-.021-.441.146-.708.287-.473.938-.538.964-.542l.019-.009zm1.13 2.402c-.242.457-.352.962-.303 1.42.047.449.239.818.539 1.036.042.03.088.062.133.089.741.394 1.78-.097 2.317-1.104a2.51 2.51 0 0 0 .302-1.418c-.048-.444-.239-.809-.538-1.033-.043-.033-.089-.056-.135-.082-.354-.185-.788-.179-1.222.026-.442.21-.831.593-1.094 1.084v-.018zm1.947-.641a.067.067 0 0 1 .059.015c.014.004.026.019.029.037.014.037-.006.074-.044.088 0 0-.236.108-.459.602-.104.229-.083.39-.064.553.025.199.051.402-.115.715-.21.402-.721.58-.739.589a.074.074 0 0 1-.09-.032.076.076 0 0 1 .014-.096c.108-.115.383-.446.407-.656.032-.199.013-.351 0-.505-.024-.229-.044-.438.096-.72.256-.5.899-.607.925-.614l-.019.024zm1.297 2.318c-.211.472-.284.98-.204 1.436.079.442.296.796.609.994.045.027.097.054.141.074.766.342 1.768-.224 2.232-1.264.212-.472.287-.983.205-1.438-.076-.443-.294-.794-.606-.993a.988.988 0 0 0-.141-.074c-.363-.159-.797-.119-1.211.11-.428.242-.785.649-1.016 1.154h-.009zm1.898-.778a.07.07 0 0 1 .059.012c.015.007.024.021.031.037a.077.077 0 0 1-.038.096c-.001.002-.232.129-.417.634-.089.238-.062.394-.031.561.038.195.077.396-.07.72-.185.415-.682.63-.702.641a.09.09 0 0 1-.096-.029.07.07 0 0 1 0-.094c.096-.118.345-.472.357-.682a1.705 1.705 0 0 0-.045-.5c-.044-.224-.082-.437.045-.724.217-.51.854-.665.881-.671h.026zm1.452 2.222a2.498 2.498 0 0 0-.102 1.449c.109.437.35.773.677.948.047.025.096.047.145.065.789.287 1.749-.346 2.14-1.416.179-.486.214-1 .102-1.448-.109-.435-.349-.771-.677-.949a1.275 1.275 0 0 0-.145-.065c-.376-.135-.806-.07-1.206.191-.41.267-.741.703-.934 1.225zm1.841-.907a.084.084 0 0 1 .059.004c.016.01.028.021.036.038.013.037 0 .084-.033.103-.006 0-.223.147-.376.656a.914.914 0 0 0 .013.563c.052.196.102.395-.019.728-.16.427-.638.675-.658.688-.031.02-.07.013-.096-.018-.025-.028-.025-.065-.006-.099.083-.121.312-.49.312-.701 0-.19-.038-.343-.076-.49-.058-.217-.108-.428-.007-.72.186-.523.805-.722.829-.729l.022-.023zm1.605 2.117c-.144.496-.144 1.013 0 1.451.139.428.402.746.741.9.047.018.099.037.149.053.807.231 1.719-.47 2.034-1.562.145-.495.145-1.012 0-1.451-.137-.427-.4-.745-.738-.897a.907.907 0 0 0-.151-.059c-.385-.114-.807-.014-1.189.276-.391.292-.69.752-.846 1.279v.01zm1.772-1.035a.074.074 0 0 1 .092.035.08.08 0 0 1-.025.104c-.007 0-.217.158-.325.682-.058.248-.007.399.052.562.062.187.127.383.03.722-.127.438-.586.718-.605.727a.078.078 0 0 1-.097-.009c-.024-.026-.031-.071-.012-.097.076-.133.274-.516.261-.727-.012-.198-.063-.346-.107-.493-.077-.217-.142-.421-.058-.722.146-.532.753-.775.778-.79l.016.006zm1.749 1.998a2.513 2.513 0 0 0 .1 1.449c.169.415.454.717.804.846.05.017.101.032.152.042.82.177 1.683-.585 1.921-1.698.108-.503.072-1.021-.101-1.449-.169-.414-.453-.713-.803-.842a.842.842 0 0 0-.152-.043c-.393-.085-.808.043-1.169.354-.368.328-.635.8-.752 1.349v-.008zm1.695-1.155a.078.078 0 0 1 .06-.002c.016.007.03.017.041.03a.082.082 0 0 1-.018.104c-.001.001-.201.175-.277.705-.038.255.025.402.089.554.077.184.153.376.083.722-.096.446-.536.757-.556.771-.03.025-.069.019-.095-.005a.065.065 0 0 1-.019-.091c.069-.134.241-.53.21-.74-.026-.192-.089-.338-.146-.478-.09-.211-.173-.409-.108-.716.108-.541.695-.828.721-.836l.015-.018zm1.883 1.872c-.072.511-.001 1.022.202 1.437.197.406.502.686.859.787.045.017.103.026.153.035.829.117 1.633-.703 1.793-1.831.069-.513 0-1.023-.204-1.438-.198-.404-.504-.683-.861-.787a1.495 1.495 0 0 0-.159-.03c-.396-.059-.805.1-1.143.441-.351.344-.581.842-.656 1.388l.016-.002zm1.612-1.269a.064.064 0 0 1 .06-.006c.017.001.03.013.041.028a.073.073 0 0 1-.01.1c-.002 0-.188.187-.228.722-.019.255.054.396.13.55a.989.989 0 0 1 .135.708c-.065.446-.479.792-.493.804-.024.019-.062.019-.095 0-.025-.026-.039-.064-.025-.097.063-.14.204-.546.159-.759-.039-.192-.108-.332-.173-.473-.102-.202-.19-.401-.153-.707.07-.55.638-.875.664-.888l-.012.018zm2.009 1.734c-.037.517.07 1.021.302 1.421.226.388.55.648.912.729.052.012.104.019.158.023.843.065 1.589-.809 1.672-1.944.038-.518-.07-1.023-.3-1.416-.224-.39-.55-.645-.913-.722-.051-.007-.102-.021-.159-.021-.396-.023-.792.161-1.104.519-.318.369-.517.878-.555 1.435l-.013-.024zm1.52-1.379a.076.076 0 0 1 .059-.01c.016 0 .032.012.043.023.025.034.024.075-.003.104-.001 0-.174.201-.176.733 0 .258.083.393.171.538.104.172.212.346.187.7-.032.454-.422.823-.436.836-.024.026-.062.026-.095.007-.032-.02-.037-.058-.032-.095.052-.147.166-.561.108-.767-.051-.191-.133-.324-.204-.453-.114-.196-.224-.384-.204-.694.033-.556.574-.918.601-.933l-.019.011zm2.126 1.589c0 .519.14 1.017.398 1.397.252.373.593.607.961.658.052.01.106.015.158.015.841 0 1.522-.926 1.524-2.061.002-.519-.14-1.017-.399-1.397-.252-.374-.592-.608-.96-.658a.856.856 0 0 0-.159-.015c-.4 0-.781.21-1.068.594-.292.39-.459.911-.459 1.467h.004zm1.419-1.481a.077.077 0 0 1 .057-.014.075.075 0 0 1 .046.023.08.08 0 0 1 0 .103s-.159.213-.128.748c.014.252.109.383.205.522.113.164.229.332.229.685 0 .456-.363.852-.383.867a.074.074 0 0 1-.095.014c-.033-.014-.046-.05-.039-.085.039-.148.122-.573.052-.771-.071-.185-.16-.313-.243-.439-.128-.189-.249-.367-.255-.68-.013-.554.504-.954.529-.973h.025zm2.23 1.439c.035.519.21 1.005.495 1.366.278.353.633.563 1.005.592.055.002.105.002.159 0 .836-.061 1.455-1.028 1.378-2.163a2.475 2.475 0 0 0-.497-1.364c-.275-.356-.632-.566-1.005-.592a2.106 2.106 0 0 0-.159 0c-.396.025-.762.264-1.022.666-.268.408-.391.939-.354 1.495zm1.311-1.575a.097.097 0 0 1 .059-.021c.019.002.04.008.052.021.029.026.037.07.012.104 0 0-.141.215-.07.752a.929.929 0 0 0 .243.505c.126.151.254.313.28.663.032.454-.3.874-.312.886-.019.026-.057.031-.089.02-.034-.012-.052-.05-.038-.082.033-.155.089-.582 0-.771-.077-.188-.173-.309-.269-.43-.14-.178-.273-.351-.302-.664-.042-.554.449-.988.468-1.007l-.034.024zm2.327 1.278c.073.512.28.983.592 1.328.302.334.671.516 1.042.518a.808.808 0 0 0 .156-.012c.832-.113 1.384-1.126 1.225-2.252-.07-.514-.28-.986-.59-1.327-.305-.334-.677-.519-1.045-.519-.057 0-.108.002-.16.009-.396.057-.747.318-.977.736-.235.428-.324.968-.247 1.519h.004zm1.199-1.666c.017-.014.035-.022.054-.022s.034.009.049.019c.032.022.04.067.021.103-.002 0-.132.231-.021.754.051.251.161.367.273.491.139.146.278.297.327.647.061.453-.243.892-.257.91-.019.034-.057.048-.089.034-.035-.015-.057-.045-.052-.085.019-.145.047-.579-.056-.764-.092-.173-.196-.287-.297-.402-.154-.166-.299-.324-.344-.638-.084-.549.372-1.014.391-1.032v-.015zm2.409 1.117c.106.505.351.96.682 1.28.323.313.706.472 1.077.444.049-.003.101-.01.152-.019.817-.174 1.294-1.221 1.061-2.335-.109-.507-.351-.965-.682-1.282-.328-.313-.711-.472-1.08-.444-.057.003-.107.01-.159.02-.396.084-.723.369-.925.804-.21.443-.262.985-.147 1.53l.021.002zm1.078-1.745a.076.076 0 0 1 .057-.026.074.074 0 0 1 .047.012.078.078 0 0 1 .028.101c0 .005-.112.243.032.76.07.247.185.357.309.472.146.14.297.28.37.624.093.448-.178.906-.192.933a.093.093 0 0 1-.089.039.08.08 0 0 1-.056-.079c.009-.145.004-.58-.108-.765a1.712 1.712 0 0 0-.326-.375c-.164-.159-.318-.307-.388-.612-.122-.542.301-1.043.316-1.062v-.022zm2.485.941c.143.501.414.938.769 1.234.344.288.738.421 1.11.369.052-.01.11-.019.159-.032.81-.229 1.212-1.309.899-2.402a2.513 2.513 0 0 0-.767-1.233c-.344-.29-.733-.421-1.103-.369a2.132 2.132 0 0 0-.155.032c-.381.11-.686.416-.859.862-.173.454-.185 1.003-.032 1.538l-.021.001zm.956-1.813c.014-.019.032-.032.051-.032.018-.005.033 0 .052.007a.074.074 0 0 1 .03.096s-.096.242.087.745a.91.91 0 0 0 .336.446c.154.129.313.257.411.594.122.439-.116.921-.128.939a.088.088 0 0 1-.092.037c-.037-.014-.061-.037-.061-.075-.01-.153-.039-.588-.168-.762a1.731 1.731 0 0 0-.351-.354c-.177-.151-.346-.291-.435-.59-.158-.528.23-1.059.242-1.077l.026.026zm2.542.767c.175.486.477.906.85 1.176.365.264.768.366 1.129.292.052-.013.105-.028.154-.045.788-.284 1.115-1.391.727-2.46a2.494 2.494 0 0 0-.851-1.174c-.363-.266-.767-.369-1.128-.291a.97.97 0 0 0-.151.044c-.379.135-.664.463-.805.921-.14.467-.117 1.013.075 1.537zm.827-1.878c.01-.02.028-.03.047-.038.019-.004.034-.004.051.008.035.011.052.059.038.096 0 0-.075.255.14.737a.928.928 0 0 0 .372.423c.163.115.331.229.451.562.153.427-.053.918-.062.943a.073.073 0 0 1-.082.045.082.082 0 0 1-.065-.07c-.012-.152-.077-.58-.21-.738-.121-.154-.25-.243-.376-.332-.188-.136-.358-.262-.468-.556-.191-.523.155-1.07.174-1.099l-.01.019zm2.586.588c.211.475.542.87.933 1.115.383.237.79.312 1.145.21a.888.888 0 0 0 .15-.054c.769-.342 1.019-1.462.556-2.503-.21-.479-.542-.875-.932-1.116-.382-.243-.788-.313-1.146-.21a.963.963 0 0 0-.149.049c-.364.161-.624.512-.733.977-.11.472-.044 1.014.18 1.525l-.004.007zm.694-1.93a.072.072 0 0 1 .047-.037.076.076 0 0 1 .052.004.087.087 0 0 1 .051.092c0 .002-.058.259.191.731.121.227.255.309.402.397.173.103.351.21.49.532.185.413.015.925.006.944-.012.032-.043.051-.082.051-.031-.008-.063-.032-.07-.065-.026-.151-.115-.575-.263-.727-.133-.141-.269-.222-.394-.307-.192-.121-.377-.235-.505-.516-.229-.505.084-1.087.096-1.105l-.021.006zm2.624.406a2.5 2.5 0 0 0 1.007 1.047c.397.211.809.262 1.159.134.049-.021.098-.04.145-.063.741-.391.911-1.533.378-2.532-.242-.454-.598-.832-1.008-1.048-.398-.21-.807-.256-1.155-.128-.051.021-.1.04-.146.062-.354.192-.592.557-.666 1.028-.075.486.028 1.021.287 1.512v-.012zm.558-1.971c.008-.021.023-.04.043-.046a.074.074 0 0 1 .051 0c.038.013.063.051.057.088 0 0-.037.263.242.715.137.217.281.288.428.364.18.089.362.186.53.498.216.402.076.918.076.944-.006.032-.038.059-.076.059-.032 0-.064-.026-.069-.066-.033-.145-.154-.561-.313-.705-.147-.135-.28-.206-.415-.283-.204-.109-.389-.21-.543-.482-.266-.492 0-1.085.014-1.113l-.025.027zm2.645.219c.273.441.657.785 1.078.972.41.188.823.206 1.166.052.046-.019.093-.042.14-.07.71-.439.801-1.588.201-2.551-.27-.439-.65-.785-1.079-.971-.408-.18-.824-.198-1.159-.044-.047.025-.099.051-.142.078-.341.21-.55.59-.593 1.064-.04.49.094 1.015.388 1.486v-.016zm.416-2.006a.096.096 0 0 1 .042-.045c.014-.005.033-.007.045-.005a.082.082 0 0 1 .059.087s-.026.262.284.696c.149.203.294.27.449.332.177.077.369.159.553.46.236.384.144.911.134.93-.005.033-.037.057-.075.065-.037 0-.069-.028-.084-.058-.044-.147-.196-.55-.364-.686-.158-.119-.299-.182-.438-.247-.211-.096-.407-.177-.575-.446-.299-.465-.075-1.084-.063-1.11l.033.027zm2.655.037c.305.419.71.736 1.145.896.421.158.837.146 1.161-.026.045-.026.092-.049.134-.081.678-.491.691-1.641.021-2.565a2.561 2.561 0 0 0-1.147-.894c-.422-.154-.836-.14-1.168.033a.553.553 0 0 0-.136.082c-.324.235-.509.631-.517 1.109-.006.49.167 1.01.493 1.462l.014-.016zm.277-2.031a.079.079 0 0 1 .04-.047c.015-.007.03-.007.049-.007.04.007.068.044.063.081 0 .008-.005.27.339.679.163.196.315.247.475.306.191.062.388.134.593.42.268.372.204.907.204.926 0 .04-.03.063-.063.07a.077.077 0 0 1-.084-.045c-.051-.14-.229-.536-.407-.649a1.71 1.71 0 0 0-.452-.21c-.211-.08-.416-.15-.601-.397-.332-.446-.147-1.07-.14-1.099l-.016-.028zm2.652-.149c.332.397.757.687 1.203.812.433.124.844.084 1.159-.111.045-.028.082-.062.128-.094.646-.537.575-1.687-.158-2.561-.332-.397-.762-.688-1.206-.813-.434-.122-.85-.082-1.163.112a2.522 2.522 0 0 0-.133.094c-.307.257-.466.663-.442 1.141.028.489.238.992.595 1.42h.017zm.134-2.047a.122.122 0 0 1 .035-.05.114.114 0 0 1 .049-.012c.04 0 .07.034.07.078 0 0 .011.261.382.651.179.185.332.223.494.267.194.052.393.103.622.378.289.351.266.886.266.904-.01.033-.033.063-.065.07-.037.007-.07-.012-.089-.044-.065-.141-.275-.517-.461-.626-.17-.101-.319-.141-.465-.183-.224-.065-.428-.122-.631-.36-.364-.42-.224-1.058-.219-1.089l.012.016zm2.635-.334c.357.374.807.633 1.256.727.44.093.85.025 1.149-.192.043-.032.083-.065.121-.102.607-.582.458-1.722-.332-2.543a2.54 2.54 0 0 0-1.258-.729c-.44-.092-.85-.024-1.148.196a.828.828 0 0 0-.122.101c-.289.277-.416.693-.354 1.168.056.485.304.975.688 1.376v-.002zm-.009-2.049a.12.12 0 0 1 .03-.053.074.074 0 0 1 .051-.013c.04 0 .071.029.077.069 0 .002.033.264.428.622a.939.939 0 0 0 .51.238c.2.037.401.082.646.332.32.332.332.866.332.885 0 .04-.02.07-.057.077-.033.015-.07-.007-.085-.037-.069-.129-.304-.5-.495-.589a1.98 1.98 0 0 0-.481-.146c-.222-.046-.432-.091-.649-.312-.388-.39-.294-1.042-.294-1.065l-.013-.008zm2.606-.516c.383.348.848.572 1.303.638.439.061.842-.034 1.132-.275.037-.033.074-.07.111-.108.563-.623.332-1.752-.509-2.514-.388-.348-.849-.574-1.309-.636-.443-.064-.846.033-1.136.271a.54.54 0 0 0-.112.112c-.271.292-.371.713-.275 1.188.096.476.369.948.785 1.317l.01.007zm-.152-2.044a.075.075 0 0 1 .025-.055c.013-.012.027-.021.046-.021.037 0 .07.028.075.065 0 0 .051.263.472.587a.92.92 0 0 0 .523.198c.198.026.401.052.663.287.34.307.391.835.391.863 0 .037-.019.07-.051.081a.086.086 0 0 1-.089-.032c-.082-.129-.344-.479-.543-.554a1.733 1.733 0 0 0-.492-.117c-.229-.03-.439-.062-.676-.267-.421-.369-.369-1.021-.369-1.047l.025.012zm2.563-.697c.406.317.883.515 1.346.545.448.032.841-.094 1.109-.352a.85.85 0 0 0 .105-.118c.519-.657.211-1.767-.682-2.468-.412-.32-.889-.512-1.349-.542-.448-.032-.842.093-1.109.351a.735.735 0 0 0-.107.121c-.248.318-.316.746-.192 1.206.129.472.439.925.879 1.269v-.012zm-.294-2.031c0-.021.009-.039.022-.054a.073.073 0 0 1 .047-.023c.037-.005.075.023.084.062 0 .001.065.256.51.556.21.145.371.154.539.164.199.011.404.022.684.242.356.281.445.809.45.834.004.04-.015.07-.047.082-.032.021-.069.01-.093-.023-.094-.121-.375-.449-.575-.519a2.169 2.169 0 0 0-.495-.082c-.228-.011-.442-.025-.69-.217-.441-.337-.436-.989-.436-1.015v-.007zm2.504-.874c.43.292.921.451 1.383.451.449 0 .835-.154 1.085-.428.032-.039.065-.082.098-.126.47-.694.084-1.78-.855-2.418-.429-.294-.921-.454-1.383-.454-.448 0-.832.154-1.082.428-.034.04-.067.083-.098.122-.225.331-.262.766-.104 1.212.162.458.505.889.966 1.199l-.01.014zm-.432-2.002a.075.075 0 0 1 .019-.057c.012-.014.024-.023.044-.024a.079.079 0 0 1 .089.053s.084.25.547.519a.903.903 0 0 0 .549.121.998.998 0 0 1 .699.192c.383.253.505.775.509.794.014.033-.004.07-.038.085-.031.013-.069.007-.088-.019-.099-.115-.402-.421-.607-.479-.185-.049-.344-.049-.495-.049-.232 0-.442 0-.703-.174-.461-.309-.505-.958-.505-.99l-.02.028zm2.439-1.047c.448.259.949.383 1.409.353.448-.032.823-.213 1.052-.502.032-.043.06-.087.089-.131.42-.728-.038-1.782-1.024-2.353-.447-.26-.948-.386-1.406-.354-.448.032-.822.211-1.051.505a.866.866 0 0 0-.089.126c-.201.346-.21.778-.021 1.22.189.444.562.847 1.042 1.129v.007zm-.575-1.969a.084.084 0 0 1 .017-.059.065.065 0 0 1 .042-.025.085.085 0 0 1 .094.049c0 .01.102.25.583.486.229.117.389.102.557.089.198-.012.401-.03.708.146.391.232.549.741.556.768a.08.08 0 0 1-.039.088c-.033.021-.07.012-.095-.007-.108-.107-.434-.388-.645-.426-.198-.032-.351-.021-.504-.014-.229.019-.446.032-.715-.122-.486-.275-.575-.918-.575-.95l.016-.023zm2.363-1.212c.468.227.972.316 1.43.252.443-.063.807-.267 1.014-.575.028-.042.057-.094.08-.141.369-.752-.159-1.773-1.181-2.275a2.5 2.5 0 0 0-1.43-.257c-.446.065-.804.269-1.014.575-.026.044-.059.088-.077.135-.173.355-.154.79.065 1.218.222.432.624.804 1.121 1.054l-.008.014zm-.71-1.927a.065.065 0 0 1 .013-.058.074.074 0 0 1 .04-.03c.037-.014.077.004.096.041 0 .006.12.244.614.439a.891.891 0 0 0 .562.047c.198-.027.399-.061.717.094.409.206.605.701.613.722.013.031.002.07-.028.097-.024.023-.063.019-.094 0-.117-.097-.453-.365-.671-.384-.191-.019-.343 0-.497.026-.226.03-.439.062-.72-.07-.501-.236-.634-.877-.641-.906l-.004-.018zm2.303-1.415c.485.187.997.233 1.447.131.439-.099.781-.334.961-.656.025-.047.045-.096.063-.143.299-.785-.313-1.757-1.371-2.169-.484-.187-.996-.233-1.447-.131-.441.099-.779.334-.965.656-.025.047-.052.097-.07.146-.146.374-.091.804.166 1.208.255.416.683.757 1.206.958h.01zm-.87-1.856a.089.089 0 0 1 .008-.061.067.067 0 0 1 .039-.033c.035-.021.077-.009.098.031 0 0 .141.221.65.383.243.077.397.037.561-.008.196-.051.397-.096.725.034.427.163.663.645.677.663.019.032.005.069-.018.088-.028.02-.065.02-.099 0-.122-.088-.483-.326-.701-.331-.196-.007-.346.032-.497.063-.222.051-.433.103-.723-.012-.514-.198-.705-.822-.715-.852l-.005.035zm2.164-1.504a2.515 2.515 0 0 0 1.453.052c.433-.124.76-.376.923-.71.023-.047.044-.097.059-.146.262-.799-.402-1.735-1.485-2.089-.491-.161-1.008-.178-1.449-.051-.426.124-.758.376-.925.71-.02.047-.043.096-.057.146-.122.382-.037.809.236 1.2.282.399.726.716 1.257.888h-.012zm-.969-1.806a.085.085 0 0 1 .002-.061.086.086 0 0 1 .033-.035c.033-.02.077-.005.099.027 0 0 .151.218.667.349.244.063.397.017.562-.03.191-.062.383-.122.722-.009.433.14.694.607.708.626a.061.061 0 0 1-.019.088c-.026.028-.065.028-.096.01-.129-.084-.505-.302-.716-.295-.198.005-.35.052-.489.09-.226.065-.428.121-.728.025-.53-.166-.753-.778-.762-.811l.017.026zm2.058-1.681c.502.127 1.019.11 1.45-.046.424-.154.731-.43.872-.774.019-.048.033-.1.045-.151.202-.812-.531-1.7-1.634-1.979-.504-.127-1.021-.11-1.453.049-.423.153-.733.43-.873.771a1.17 1.17 0 0 0-.053.154c-.103.387.013.809.313 1.18.304.381.771.663 1.313.796h.02zm-1.094-1.733a.066.066 0 0 1 0-.061.083.083 0 0 1 .03-.037c.035-.02.077-.01.104.021.002.003.165.209.693.302.25.044.399-.012.556-.07.188-.069.379-.145.722-.061.443.112.737.562.75.579.02.028.016.07-.009.096-.022.026-.062.031-.093.015-.136-.072-.528-.26-.741-.235a1.705 1.705 0 0 0-.483.125c-.217.082-.416.152-.722.082-.543-.128-.805-.727-.816-.752l.009-.004zm1.935-1.817a2.511 2.511 0 0 0 1.444-.149c.416-.186.7-.479.817-.832a.805.805 0 0 0 .038-.154c.146-.827-.646-1.661-1.763-1.859a2.469 2.469 0 0 0-1.441.148c-.409.183-.693.48-.815.832-.014.052-.025.104-.038.159-.069.397.07.805.403 1.154.335.357.821.612 1.369.711l-.014-.01zm-1.213-1.655a.074.074 0 0 1-.005-.058.085.085 0 0 1 .031-.04.077.077 0 0 1 .102.019c.004 0 .183.196.714.255.254.032.399-.038.553-.11.183-.082.369-.163.72-.107.454.084.778.509.79.523.028.032.028.07 0 .096-.018.032-.056.039-.089.026-.133-.063-.542-.218-.744-.186-.192.037-.332.101-.474.159-.203.096-.401.185-.707.134-.549-.089-.855-.664-.869-.688l-.022-.023zm1.804-1.948c.517.056 1.024-.033 1.43-.251.397-.21.667-.524.756-.886.013-.051.022-.102.028-.155.088-.835-.758-1.613-1.889-1.732-.512-.056-1.023.033-1.43.248-.397.21-.664.528-.752.889-.015.051-.019.102-.028.156-.038.399.131.797.48 1.123.355.332.86.547 1.417.608h-.012zm-1.325-1.565a.081.081 0 0 1-.009-.059.098.098 0 0 1 .027-.042c.034-.019.076-.019.104.007 0 .005.193.185.729.205.255.013.395-.064.542-.149.175-.093.354-.191.705-.159.454.052.809.454.823.473.022.025.027.069.004.096a.071.071 0 0 1-.088.032c-.143-.051-.557-.185-.763-.133a2.126 2.126 0 0 0-.458.191c-.198.107-.391.211-.701.183-.551-.049-.894-.604-.906-.632l-.009-.013zm1.664-1.676c.517.019 1.02-.105 1.411-.351.379-.238.624-.572.692-.937.005-.052.012-.105.012-.159.03-.837-.874-1.554-2.01-1.595-.523-.02-1.021.105-1.409.351-.383.238-.626.571-.695.936a.555.555 0 0 0-.02.159c-.019.401.178.789.555 1.091.375.306.895.491 1.448.512l.016-.007zm-1.43-1.47a.073.073 0 0 1-.014-.063.08.08 0 0 1 .023-.044.078.078 0 0 1 .103 0c.002 0 .208.164.743.146a.968.968 0 0 0 .53-.183c.168-.109.342-.225.694-.213.455.012.836.391.853.409a.08.08 0 0 1 .012.096c-.019.026-.056.045-.089.03-.146-.042-.568-.145-.769-.082-.188.059-.32.141-.446.222-.194.122-.379.239-.688.231-.556-.012-.939-.549-.953-.567v.018zm1.514-2.18c.52-.017 1.01-.176 1.382-.448.363-.264.586-.612.626-.981.007-.053.007-.107.007-.16-.028-.838-.978-1.49-2.114-1.452-.523.017-1.017.176-1.386.447-.365.266-.586.615-.624.982-.007.054-.007.106-.007.16.014.4.235.772.626 1.046.401.281.926.425 1.479.406h.011zm-1.53-1.365c-.019-.017-.019-.038-.019-.058 0-.017.006-.033.019-.046.025-.033.071-.033.103-.013 0 0 .218.153.745.097.257-.026.383-.122.519-.226.159-.12.325-.241.676-.254.453-.019.862.331.881.351.025.02.032.058.013.09a.087.087 0 0 1-.09.039c-.147-.039-.573-.109-.773-.026-.183.069-.311.166-.433.255-.185.134-.357.261-.671.274-.556.025-.969-.479-.987-.498l.017.015zm1.359-2.476c.517-.054.994-.247 1.347-.544.344-.29.545-.653.557-1.024.002-.053 0-.106-.006-.159-.087-.834-1.076-1.418-2.208-1.301a2.489 2.489 0 0 0-1.348.543c-.344.288-.542.652-.554 1.023a.72.72 0 0 0 .005.154c.04.395.289.752.701 1.001.418.249.953.357 1.506.3v.007zm-1.618-1.257a.073.073 0 0 1-.023-.056c0-.018.007-.034.019-.048a.082.082 0 0 1 .104-.015s.226.137.751.044c.253-.042.375-.146.501-.258.151-.13.308-.265.658-.302.453-.046.884.273.902.287.028.021.037.06.023.092-.015.039-.046.058-.085.052-.148-.021-.579-.064-.77.031-.179.089-.295.192-.412.288-.175.146-.342.286-.648.325-.557.069-1.008-.402-1.02-.428v-.012zm1.196-2.567c.509-.089.972-.314 1.304-.636.322-.312.495-.689.483-1.06a1.2 1.2 0 0 0-.017-.159c-.145-.823-1.173-1.34-2.294-1.143-.512.09-.977.319-1.309.638-.322.314-.493.69-.481 1.061a.876.876 0 0 0 .019.159c.067.396.342.733.767.95.438.224.979.294 1.528.197v-.007zm-1.705-1.138a.099.099 0 0 1-.029-.055c0-.017.008-.033.02-.048a.072.072 0 0 1 .098-.019c.002 0 .238.12.757-.008.244-.058.357-.172.479-.293.14-.141.287-.288.631-.345.446-.077.899.21.918.223.032.02.047.058.032.09-.013.038-.044.058-.083.051-.152-.013-.584-.019-.771.083-.173.103-.287.211-.395.312-.167.159-.32.313-.626.371-.55.102-1.026-.339-1.055-.357l.024-.005zm1.026-2.449c.503-.123.952-.383 1.258-.725.301-.338.446-.727.409-1.098a2.967 2.967 0 0 0-.027-.16c-.204-.816-1.265-1.257-2.37-.982a2.562 2.562 0 0 0-1.264.722c-.299.331-.444.722-.407 1.091.005.052.012.103.023.153.098.389.391.702.832.894.446.184.995.217 1.53.082l.016.023zm-1.779-1.018a.065.065 0 0 1-.027-.051c-.008-.018 0-.035.004-.05a.073.073 0 0 1 .098-.025s.241.108.753-.057c.242-.078.343-.199.458-.327.129-.146.269-.306.607-.388.439-.109.911.146.929.158a.081.081 0 0 1 .038.09.076.076 0 0 1-.074.058c-.154 0-.59.019-.767.141-.165.108-.266.223-.369.338-.154.172-.299.332-.601.408-.535.147-1.054-.262-1.072-.28l.023-.015zm.854-2.513c.496-.16.921-.446 1.206-.812.275-.354.393-.751.329-1.116a.751.751 0 0 0-.037-.154c-.254-.798-1.348-1.164-2.433-.814-.49.159-.918.447-1.199.81-.272.352-.389.747-.323 1.117l.037.152c.128.384.438.677.893.83.467.16 1.009.153 1.537-.019l-.01.006zm-1.845-.891a.078.078 0 0 1-.032-.051c-.005-.016 0-.034.009-.05.02-.035.059-.051.097-.035.001 0 .249.087.747-.113.236-.096.334-.222.435-.355.121-.159.245-.324.582-.433.433-.141.921.083.939.094a.079.079 0 0 1 .044.085.075.075 0 0 1-.072.063c-.154.008-.587.057-.752.188-.159.121-.255.249-.347.363-.14.186-.273.352-.565.454-.529.179-1.064-.192-1.093-.205l.008-.005zm.677-2.567c.481-.193.889-.511 1.145-.894.253-.372.342-.776.253-1.138a1.276 1.276 0 0 0-.051-.151c-.311-.779-1.426-1.072-2.482-.645a2.49 2.49 0 0 0-1.145.894c-.255.369-.346.778-.255 1.136.012.05.026.102.045.146.145.37.485.645.95.766.473.128 1.014.083 1.531-.128l.009.014zm-1.904-.761c-.021-.011-.029-.029-.035-.048a.067.067 0 0 1 .006-.051.07.07 0 0 1 .088-.043s.255.069.733-.163c.229-.111.313-.244.407-.387.109-.167.225-.339.552-.472.42-.168.922.02.943.027.03.014.052.047.052.083-.01.034-.033.062-.073.067-.151.02-.579.098-.74.239a1.723 1.723 0 0 0-.317.383c-.126.185-.249.371-.538.485-.514.21-1.077-.114-1.103-.135l.025.015zm.498-2.608c.465-.227.85-.57 1.079-.971.229-.39.287-.798.174-1.152a.896.896 0 0 0-.057-.147c-.365-.754-1.495-.964-2.523-.468-.463.227-.846.571-1.077.972-.222.39-.28.798-.166 1.151a.85.85 0 0 0 .065.147c.178.361.528.61 1 .702.485.092 1.021.009 1.526-.234h-.021zm-1.953-.625a.068.068 0 0 1-.038-.045.052.052 0 0 1 0-.051.076.076 0 0 1 .089-.049s.257.051.723-.216a.94.94 0 0 0 .383-.413c.096-.174.198-.354.509-.508.409-.198.92-.045.946-.039.031.013.057.046.05.083-.007.039-.03.07-.063.077-.154.031-.567.141-.715.293-.141.141-.218.28-.294.409-.112.197-.222.389-.503.529-.497.249-1.086-.038-1.109-.052l.022-.018zm.313-2.636c.449-.258.809-.63 1.009-1.044.197-.402.229-.816.092-1.161a.973.973 0 0 0-.07-.141c-.418-.728-1.561-.855-2.546-.287-.446.262-.805.632-1.008 1.046-.198.408-.229.817-.089 1.16a.985.985 0 0 0 .07.147c.196.351.572.575 1.044.632.486.058 1.021-.063 1.501-.338l-.003-.014zm-1.991-.488a.071.071 0 0 1-.042-.043.074.074 0 0 1-.005-.051.078.078 0 0 1 .089-.055s.262.031.708-.267c.213-.141.28-.286.351-.438.087-.182.173-.368.479-.542.397-.229.919-.111.939-.106.037.013.061.045.061.077 0 .038-.021.069-.056.077-.146.037-.557.177-.691.343-.129.154-.197.295-.263.428-.1.211-.193.402-.462.562-.479.287-1.085.039-1.107.025v-.01zm.131-2.651c.43-.289.762-.684.933-1.113.167-.415.171-.83.009-1.164a1.115 1.115 0 0 0-.079-.138c-.468-.696-1.617-.747-2.563-.112-.433.289-.764.685-.934 1.111-.174.418-.174.83-.016 1.165.02.048.052.094.075.139.225.332.607.528 1.087.555.483.025 1.007-.132 1.474-.442h.014zm-2.023-.348a.092.092 0 0 1-.047-.04.12.12 0 0 1-.005-.051.08.08 0 0 1 .085-.061c.001 0 .264.014.686-.313.201-.156.26-.307.323-.463.07-.187.145-.378.437-.575.378-.254.909-.175.933-.171.035 0 .061.031.063.07.004.032-.017.063-.05.077-.145.05-.546.216-.67.382-.115.16-.175.3-.229.44-.087.211-.166.409-.423.588-.455.312-1.075.108-1.103.102v.015zm-.056-2.655a2.49 2.49 0 0 0 .855-1.174c.14-.428.111-.84-.071-1.162-.027-.046-.051-.09-.084-.133-.519-.657-1.665-.632-2.565.07a2.558 2.558 0 0 0-.855 1.174c-.132.428-.107.843.077 1.162.026.044.059.088.089.133.25.318.646.484 1.125.479.489-.006.999-.198 1.441-.543l-.012-.006zm-2.043-.204a.079.079 0 0 1-.044-.038.082.082 0 0 1-.012-.049c.009-.038.043-.069.079-.067.01 0 .269-.006.673-.363.189-.172.234-.325.286-.485.056-.191.12-.389.4-.606.365-.28.894-.235.921-.235.038 0 .062.025.07.064a.08.08 0 0 1-.047.082c-.14.058-.523.249-.638.434a1.988 1.988 0 0 0-.198.46c-.07.217-.134.421-.374.613-.435.343-1.065.185-1.099.177l-.017.013zm-.238-2.646c.386-.347.659-.783.771-1.231.107-.437.053-.846-.154-1.156a.882.882 0 0 0-.098-.125c-.562-.625-1.706-.514-2.552.245a2.486 2.486 0 0 0-.771 1.231c-.106.437-.054.847.152 1.154a.809.809 0 0 0 .101.126c.266.298.678.439 1.153.397.486-.038.984-.269 1.397-.638v-.003zm-2.049-.062a.074.074 0 0 1-.05-.033.09.09 0 0 1-.013-.049.073.073 0 0 1 .074-.071s.262-.023.636-.407c.178-.183.215-.338.252-.503.046-.197.093-.396.355-.632.341-.306.876-.299.896-.299.037 0 .068.024.075.057a.076.076 0 0 1-.042.083c-.136.07-.512.286-.612.472a1.549 1.549 0 0 0-.168.472c-.056.217-.108.428-.336.638-.409.376-1.055.256-1.08.256l.013.016zm-.426-2.621a2.49 2.49 0 0 0 .683-1.283c.077-.442-.004-.847-.231-1.14a1.202 1.202 0 0 0-.106-.118c-.608-.584-1.744-.395-2.533.423-.365.372-.607.827-.683 1.282-.077.443.005.848.229 1.141.033.041.065.082.104.118.285.28.708.396 1.18.319.479-.077.956-.337 1.346-.741l.011-.001zm-2.049.08a.076.076 0 0 1-.051-.029.072.072 0 0 1-.02-.048c0-.04.031-.073.07-.076 0-.002.262-.043.607-.452.164-.196.189-.352.215-.519.033-.191.065-.396.313-.651.315-.326.851-.357.873-.357a.08.08 0 0 1 .08.058c.013.038 0 .07-.033.09-.126.083-.485.325-.574.516a2.211 2.211 0 0 0-.133.485c-.04.23-.07.44-.288.664-.383.408-1.028.337-1.061.332v-.013zm-.606-2.585c.334-.396.544-.868.593-1.327.046-.446-.065-.844-.313-1.122a1.088 1.088 0 0 0-.114-.111c-.643-.535-1.759-.268-2.493.601-.336.395-.549.867-.594 1.327-.051.447.065.849.314 1.123a.618.618 0 0 0 .113.109c.307.262.727.343 1.199.236.472-.109.932-.402 1.289-.83l.006-.006zm-2.038.223a.094.094 0 0 1-.057-.026c-.009-.013-.019-.029-.019-.046a.077.077 0 0 1 .063-.082c.002 0 .259-.06.574-.492.152-.206.166-.365.181-.532.019-.198.037-.403.264-.674.293-.348.829-.417.849-.421a.082.082 0 0 1 .084.049.08.08 0 0 1-.028.091c-.119.083-.458.357-.533.555a1.918 1.918 0 0 0-.098.492c-.019.223-.045.44-.243.682-.351.428-1 .402-1.032.402l-.005.002zm-.785-2.536c.304-.419.481-.904.498-1.366.016-.449-.124-.839-.391-1.097-.037-.037-.079-.07-.121-.103-.678-.493-1.776-.147-2.444.772a2.483 2.483 0 0 0-.5 1.363c-.015.45.124.839.391 1.097a.653.653 0 0 0 .124.103c.316.237.752.29 1.21.15.467-.144.898-.471 1.231-.919h.002zm-2.019.363a.074.074 0 0 1-.056-.021c-.006-.012-.019-.028-.019-.044a.08.08 0 0 1 .055-.088c.01 0 .258-.076.543-.529.14-.217.14-.376.148-.544.006-.2.006-.407.216-.692.269-.368.799-.473.818-.478.036-.007.069.01.089.043.019.032.006.07-.02.093-.116.096-.435.389-.49.594a2.038 2.038 0 0 0-.065.496c-.005.229-.012.446-.191.701-.318.454-.968.473-1.001.473l-.027-.004zm-.958-2.474c.271-.439.416-.935.402-1.396-.02-.453-.183-.829-.468-1.072a.731.731 0 0 0-.127-.096c-.712-.446-1.784-.026-2.387.938-.275.44-.419.931-.402 1.392.016.446.182.828.468 1.065a.856.856 0 0 0 .126.089c.341.21.772.235 1.22.064.458-.179.868-.536 1.168-1.008v.024zm-1.991.504a.073.073 0 0 1-.056-.018.068.068 0 0 1-.027-.043.075.075 0 0 1 .051-.088c.004-.001.248-.096.502-.568.12-.226.112-.383.105-.553-.013-.2-.023-.405.166-.704.24-.387.759-.528.78-.534.04-.01.077.006.091.037.02.032.012.07-.014.095-.107.104-.409.418-.453.625a1.952 1.952 0 0 0-.026.5c.012.229.021.444-.147.709-.284.472-.937.537-.962.537l-.01.005zm-1.131-2.402c.245-.457.353-.961.304-1.421-.044-.446-.235-.813-.534-1.033a1.056 1.056 0 0 0-.134-.083c-.74-.396-1.78.098-2.318 1.103-.242.457-.35.961-.299 1.419.052.453.243.817.543 1.034.044.031.089.064.136.09.354.19.789.185 1.224-.02.446-.205.836-.586 1.098-1.078l-.02-.011zm-1.948.642a.085.085 0 0 1-.057-.02.089.089 0 0 1-.03-.044c-.011-.039.01-.083.045-.096.002 0 .243-.115.46-.6.105-.236.087-.396.068-.562a1.024 1.024 0 0 1 .112-.714c.21-.402.722-.581.742-.588.031-.013.07 0 .089.033.02.024.012.07-.014.096-.103.107-.384.446-.406.65a1.54 1.54 0 0 0 .004.496c.026.225.045.441-.096.715-.255.492-.899.601-.926.606l.009.028zM87.067 31c.212-.472.284-.984.205-1.438-.08-.443-.294-.796-.607-.993a.857.857 0 0 0-.141-.075c-.767-.345-1.766.223-2.233 1.257a2.55 2.55 0 0 0-.204 1.436c.083.441.3.792.613.988.044.026.096.052.141.07.371.161.796.128 1.216-.108.432-.236.793-.65 1.024-1.155l-.014.018zm-1.899.775a.077.077 0 0 1-.058-.009c-.017-.008-.025-.022-.033-.039a.08.08 0 0 1 .04-.097c0-.001.231-.127.416-.631.089-.24.057-.396.025-.562-.037-.195-.077-.398.067-.721.188-.416.679-.629.701-.638.037-.013.075-.003.095.026a.07.07 0 0 1 0 .096c-.095.118-.344.471-.356.683-.014.196.013.35.042.499.048.225.085.437-.042.723-.219.51-.854.669-.883.677l-.014-.007zm-1.452-2.222c.177-.486.215-1 .103-1.448-.11-.436-.351-.772-.678-.947a1.182 1.182 0 0 0-.146-.065c-.789-.289-1.746.347-2.14 1.415-.178.492-.215 1.002-.101 1.449.107.44.349.777.675.95a.645.645 0 0 0 .146.063c.378.14.806.07 1.205-.191.413-.268.744-.701.936-1.226zm-1.841.907a.077.077 0 0 1-.058-.006.072.072 0 0 1-.036-.037.081.081 0 0 1 .033-.098c0-.001.222-.145.372-.659.071-.246.03-.399-.012-.563-.052-.193-.105-.392.016-.723.156-.428.634-.674.652-.685a.074.074 0 0 1 .094.013.078.078 0 0 1 .004.095c-.084.122-.313.491-.313.703 0 .197.04.345.077.491.057.217.11.427.006.721-.181.523-.805.721-.831.728l-.004.02zm-1.603-2.114c.142-.498.142-1.015 0-1.454-.141-.427-.402-.746-.743-.898a1.146 1.146 0 0 0-.148-.055c-.805-.233-1.719.467-2.033 1.561-.146.498-.146 1.014 0 1.452.137.427.4.747.738.894.051.019.098.039.148.052.384.107.804.012 1.188-.275.39-.293.689-.753.844-1.289l.006.012zm-1.774 1.033a.073.073 0 0 1-.058-.001.083.083 0 0 1-.038-.034.07.07 0 0 1 .024-.096s.212-.16.327-.683c.052-.249 0-.402-.057-.561-.061-.186-.131-.383-.032-.721.126-.435.583-.715.604-.728.025-.019.07-.013.089.013.026.025.026.064.013.095-.076.128-.281.517-.263.729.015.197.059.343.11.491.069.217.14.421.058.728-.148.535-.751.778-.779.791l.002-.023zm-1.749-1.998c.109-.507.074-1.021-.099-1.449-.168-.417-.453-.717-.803-.845-.05-.013-.101-.032-.155-.038-.817-.172-1.68.587-1.92 1.703-.107.511-.07 1.021.103 1.448.168.421.453.721.804.848.05.02.101.033.151.046.396.083.812-.046 1.176-.358.369-.318.635-.797.752-1.34l-.009-.015zm-1.695 1.155a.078.078 0 0 1-.058.002.102.102 0 0 1-.047-.031c-.023-.034-.012-.078.014-.103 0-.001.196-.174.273-.704a.908.908 0 0 0-.097-.555c-.074-.185-.158-.374-.083-.719.099-.445.532-.756.551-.769a.074.074 0 0 1 .094.006.081.081 0 0 1 .019.095c-.07.134-.241.536-.211.747.028.198.085.339.141.479.085.21.169.415.104.721-.108.549-.696.829-.721.842l.021-.011zm-1.885-1.872c.074-.513.002-1.023-.202-1.438-.195-.404-.501-.682-.858-.786a1.256 1.256 0 0 0-.155-.032c-.832-.119-1.636.702-1.797 1.829-.072.513-.002 1.023.201 1.438.198.404.503.683.862.786.049.015.101.026.159.034.395.057.804-.099 1.14-.438.347-.347.582-.84.659-1.392h-.009zm-1.61 1.27a.077.077 0 0 1-.059.007.067.067 0 0 1-.042-.028.08.08 0 0 1 .009-.103c.003-.001.187-.188.229-.722.012-.255-.059-.397-.136-.547-.089-.179-.184-.362-.133-.711.062-.451.479-.792.498-.806.027-.024.064-.024.097-.003.025.022.04.06.025.093-.065.141-.206.549-.159.757.038.19.107.332.174.467.094.211.188.403.151.709-.07.555-.638.874-.664.893l.01-.006zm-2.01-1.735c.037-.516-.069-1.021-.301-1.42-.225-.389-.547-.647-.912-.725-.052-.01-.104-.02-.158-.021-.837-.061-1.584.814-1.664 1.949-.04.517.068 1.027.3 1.422.224.391.549.651.911.728.051.013.104.019.159.026.399.031.794-.153 1.107-.517.319-.37.518-.875.558-1.43v-.012zm-1.518 1.38a.08.08 0 0 1-.059.011.042.042 0 0 1-.041-.026c-.028-.026-.026-.07.002-.102.002 0 .175-.198.175-.733 0-.256-.079-.391-.168-.537-.101-.173-.206-.345-.183-.702.033-.453.423-.822.439-.835.025-.026.065-.026.096-.007.031.02.042.057.031.096-.05.147-.164.562-.105.767.054.19.133.325.208.452.116.198.224.383.205.695-.032.556-.574.919-.601.932v-.011zm13.811 93.889H48.359V111.42s9.7 1.023 16.74 1.023c7.041 0 16.743-1.023 16.743-1.023v10.048z" fill="#543632"/><g fill="none" stroke="#FFF"><path stroke-width=".332" stroke-miterlimit="10" d="M81.069 112.252v8.438H49.131v-8.438"/><path stroke-width=".307" stroke-linecap="square" stroke-linejoin="round" d="M49.125 112.332a140.402 140.402 0 0 0 3.395.378c4.216.415 8.454.625 12.691.625h.188a123.308 123.308 0 0 0 15.588-.991c.037-.003.063-.012.096-.012"/></g><path d="M53.467 115.79l-.301-.309h-.346l-.296.309v2.393l.299.332h.332l.307-.337v-.441l.478-.007v.618l-.58.634h-.745l-.572-.64v-2.762l.578-.599h.746l.573.599v.594h-.484v-.407l.011.023zm1.637 3.179h-.481v-3.93h1.165l.609.61v1.356l-.435.459.702 1.504h-.528l-.619-1.32h-.415v1.328l.002-.007zm0-1.8h.481l.329-.352v-.967l-.323-.321h-.487v1.652-.012zm2.404-2.129h.933l.587 3.93h-.486l-.153-1.022h-.827l-.153 1.021h-.488l.588-3.931-.001.002zm.515.479h-.101l-.291 1.95h.688l-.296-1.95zm2.966 1.364v.477h-.952v1.609h-.482v-3.913h1.62v.472h-1.138v1.354h.952v.001zm1.234-1.416h-.698v-.432h1.885v.429h-.702v3.503h-.478v-3.51l-.007.01zm4.068.323l-.299-.309h-.346l-.297.309v2.393l.301.332h.334l.307-.337v-.441l.481-.007v.618l-.574.634h-.76l-.572-.64v-2.762l.578-.599h.746l.575.599v.594h-.484v-.407l.01.023zm3.137 2.567l-.599.629h-.763l-.595-.629v-2.777l.601-.594h.76l.601.594v2.777h-.005zm-.483-.185v-2.397l-.318-.314h-.36l-.316.319v2.397l.322.346h.353l.32-.339v-.012zm2.644-1.289v.477h-.953v1.609h-.481v-3.913h1.622v.472h-1.141v1.354h.953v.001zm2.178 0v.477h-.954v1.609h-.479v-3.913h1.622v.472H72.82v1.354h.955l-.008.001zm2.178-.095v.479h-.958v1.227h1.218v.479h-1.699v-3.93h1.624v.477h-1.143v1.269h.958zm2.165 0v.479h-.957v1.227h1.217v.479h-1.695v-3.93H78.3v.477h-1.14v1.269h.963-.013z" fill="#FFF"/><g fill="#FFF"><path d="M126.488 89.504l-5.009 7.485s4.695 2.86 6.866 6.753c0 0-13.367.168-21.181 9.103 1-4.801 8.436-11.014 8.805-11.332.004 0 .012-.004.012-.004s-3.788-5.636-7.005-9.968l.601-.168s4.574-3.024 16.911-1.874v.005z"/><path d="M115.981 101.509s-.008.007-.012.007c-.02.007-.031.019-.05.025a106.594 106.594 0 0 1-7.309 3.229c-.314.13-.624.247-.915.359-8.807 3.311-24.06 7.715-42.995 7.715h-.186c-19.264 0-34.715-4.56-43.441-7.888-.154-.057-.31-.119-.469-.187a108.017 108.017 0 0 1-7.303-3.229c-.019-.007-.031-.019-.049-.028-.007 0-.013-.004-.013-.004s3.534-5.669 6.577-10.005c1.578-2.253 3.027-4.141 3.776-4.703 2.457-1.825 15.384 7.623 40.922 7.623h.186c25.544 0 37.845-9.448 40.301-7.623.757.562 2.285 2.469 3.975 4.74 3.217 4.332 7.005 9.972 7.005 9.972v-.003z"/><path d="M115.919 101.542c.019-.01.03-.021.05-.028-.372.318-7.805 6.531-8.805 11.332 0 0-3.663-3.088-3.537-6.25 0 0 1.585-.495 4.07-1.468.294-.109.603-.228.921-.356 4.324-1.678 6.896-3.01 7.311-3.229h-.01zm-90.327 5.053c.131 3.162-3.533 6.25-3.533 6.25-1.008-4.804-8.435-11.014-8.806-11.332.02.008.032.019.05.028.415.223 2.982 1.552 7.302 3.229.161.067.316.13.47.185 2.747 1.084 4.517 1.638 4.517 1.638v.002z"/><path d="M19.64 91.377l.179.127c-3.043 4.336-6.578 10.009-6.578 10.009s.007.006.013.006c.372.319 7.797 6.532 8.806 11.331-7.815-8.933-21.188-9.103-21.188-9.103 2.179-3.893 7.494-6.753 7.494-6.753l-5.019-7.48c12.339-1.144 16.294 1.873 16.294 1.873v-.01z"/></g><g fill="none" stroke="#543632" stroke-width="1.045" stroke-linejoin="round" stroke-miterlimit="10"><path stroke-linecap="round" d="M20.605 104.771a108.015 108.015 0 0 1-7.302-3.229m-.05-.029c.372.318 7.797 6.531 8.806 11.332 0 0 3.664-3.088 3.533-6.25 0 0-1.77-.558-4.517-1.64"/><path stroke-linecap="round" d="M22.059 112.845C14.244 103.91.871 103.742.871 103.742c2.179-3.893 7.494-6.753 7.494-6.753l-5.019-7.485C15.685 88.359 19.64 91.38 19.64 91.38"/><path stroke-linecap="square" d="M64.515 112.845c-19.263 0-34.715-4.56-43.441-7.89a9.25 9.25 0 0 1-.469-.185c-4.32-1.678-6.887-3.01-7.302-3.229-.019-.01-.03-.021-.05-.028-.006 0-.013-.004-.013-.004s3.535-5.669 6.578-10.005c1.578-2.253 3.027-4.147 3.776-4.703 2.456-1.825 15.384 7.623 40.921 7.623"/><path stroke-linecap="round" d="M108.978 91.542c-1.691-2.271-3.22-4.185-3.975-4.74-2.456-1.825-14.759 7.623-40.302 7.623m43.91 10.346c4.325-1.678 6.896-3.01 7.309-3.229m-51.218 11.303c18.935 0 34.188-4.406 42.994-7.715"/><path stroke-linecap="round" d="M115.969 101.513c-.372.318-7.805 6.531-8.805 11.332 0 0-3.663-3.088-3.537-6.25 0 0 1.585-.495 4.07-1.468.294-.109.603-.228.921-.356a108.764 108.764 0 0 0 7.311-3.231c.021-.008.032-.017.052-.026.007 0 .012-.004.012-.004s-3.783-5.638-7.005-9.97"/><path stroke-linecap="round" d="M107.163 112.845c7.815-8.935 21.183-9.103 21.183-9.103-2.171-3.893-6.866-6.753-6.866-6.753l5.009-7.485c-12.337-1.146-16.911 1.876-16.911 1.876"/></g><path fill="#F60" d="M22.486 102.841c-.646-.226-1.157-.531-1.529-.917a2.873 2.873 0 0 1-.752-1.341c-.127-.51-.147-1.065-.064-1.678.083-.607.262-1.257.516-1.943.212-.559.454-1.033.741-1.424a4.96 4.96 0 0 1 .906-.969 3.858 3.858 0 0 1 1.015-.584c.351-.131.695-.22 1.045-.258a4.304 4.304 0 0 1 1.015.005c.332.045.638.115.931.211a13.529 13.529 0 0 1 1.129.462 7.839 7.839 0 0 1 .886.463c-.282.477-.422.715-.709 1.188a10.219 10.219 0 0 0-1.002-.601c-.21-.11-.42-.218-.625-.316a5.555 5.555 0 0 0-.529-.222 7.486 7.486 0 0 0-.428-.129 2.195 2.195 0 0 0-.357-.054 1.415 1.415 0 0 0-.332.018c-.112.018-.23.051-.351.093-.311.103-.601.397-.871.888-.272.491-.549 1.122-.827 1.902-.428 1.188-.588 2.143-.466 2.876.118.733.562 1.246 1.327 1.5.215.077.44.141.676.203.236.066.472.107.713.154.239.045.476.07.71.089.236.019.459.026.677.015l-.236.745c-.249.04-.514.059-.792.051a7.908 7.908 0 0 1-2.455-.41l.038-.017zm14.038-1.03c-.169.729-.408 1.364-.721 1.908-.312.544-.692.981-1.146 1.309a3.489 3.489 0 0 1-1.561.616c-.587.087-1.235.038-1.942-.151-.723-.194-1.31-.479-1.757-.849a3.317 3.317 0 0 1-.984-1.314c-.208-.505-.3-1.068-.279-1.686.019-.618.14-1.28.35-1.983a7.44 7.44 0 0 1 .803-1.831 4.202 4.202 0 0 1 1.123-1.233 3.2 3.2 0 0 1 1.449-.573c.542-.075 1.136-.023 1.799.154.65.173 1.192.43 1.634.767.434.332.771.748 1.008 1.224.235.479.37 1.028.408 1.641a7.152 7.152 0 0 1-.198 1.99l.014.011zm-1.751-.409c.14-.562.218-1.07.237-1.533a3.638 3.638 0 0 0-.132-1.227 1.915 1.915 0 0 0-.529-.886c-.242-.238-.562-.409-.964-.519-.344-.089-.682-.141-1.001-.141s-.587.052-.81.159c-.218.109-.44.401-.664.888s-.466 1.168-.715 2.043a9.372 9.372 0 0 0-.312 1.512c-.051.465-.038.881.051 1.249.083.369.249.683.491.939.243.255.588.444 1.027.562.452.121.836.177 1.154.165.319-.007.601-.058.837-.151.107-.047.224-.154.344-.341.121-.178.236-.407.357-.683.121-.273.235-.586.345-.931.115-.345.217-.71.306-1.083l-.022-.022zm11.557 7.065c.126-2.884.197-4.325.355-7.206a144.975 144.975 0 0 1-4.127 6.609c-.216-.037-.324-.053-.535-.093a141.12 141.12 0 0 1-1.779-7.652 689.135 689.135 0 0 1-2.01 6.921c-.402-.084-.606-.126-1.003-.215a680.76 680.76 0 0 0 2.814-9.097c.594.12.893.186 1.486.3.587 2.834.912 4.255 1.633 7.089a149.459 149.459 0 0 0 3.784-6.157c.581.085.874.127 1.46.203a538.45 538.45 0 0 0-.331 9.52c-.708-.096-1.059-.14-1.767-.24l.02.018zm6.289-3.635l.241-.032a3.73 3.73 0 0 0 .643-.152c.204-.068.383-.181.539-.332.156-.152.287-.362.389-.629.103-.264.172-.611.206-1.032a2.918 2.918 0 0 0-.038-.829 1.625 1.625 0 0 0-.237-.587 1.122 1.122 0 0 0-.407-.364c-.166-.089-.351-.141-.562-.159s-.427-.026-.657-.014l-.835 8.43c-.702-.07-1.054-.11-1.755-.188l1.046-9.312c.173.004.357.011.562.022.205.009.408.021.625.032l.646.038c.21.014.42.032.625.047.484.044.905.14 1.256.299.351.154.638.357.861.601.224.24.384.534.472.881.09.336.122.715.097 1.121a3.958 3.958 0 0 1-.275 1.213 2.657 2.657 0 0 1-.682.956c-.301.262-.671.46-1.109.588-.447.126-.964.166-1.558.107l-.076-.004c-.02-.294-.026-.441-.045-.733l.028.032zm6.82 4.832c-.705-.029-1.056-.042-1.76-.082l.505-9.404c.65.037.976.052 1.626.077l-.376 9.409h.005zm2.363.075l.205-9.416c.653.013.979.019 1.632.022l-.064 8.426c1.302.009 1.954.007 3.256-.015l-.063.995c-1.979.03-2.968.028-4.952-.013h-.014zm12.096-.304a192.725 192.725 0 0 1-1.21-3.1c-1.262.099-1.893.141-3.159.211-.36 1.265-.547 1.897-.93 3.159-.444.015-.666.019-1.112.03 1.284-3.764 1.878-5.659 2.963-9.448.626-.159.934-.244 1.556-.409 1.416 3.785 2.173 5.666 3.776 9.396-.753.066-1.132.099-1.884.147v.014zm-1.537-3.973a180.961 180.961 0 0 1-1.468-3.986 163.183 163.183 0 0 1-1.108 4.122 71.414 71.414 0 0 0 2.576-.136z"/><path fill="#543632" d="M81.771 104.956c-.747.058-1.12.086-1.869.133l-.004-.769a75.825 75.825 0 0 0 3.473-.479l.579 3.805c-.183.12-.407.247-.676.383a9.396 9.396 0 0 1-.89.383 11.32 11.32 0 0 1-1.003.325 6.469 6.469 0 0 1-1.021.203c-.667.084-1.249.032-1.747-.154a2.836 2.836 0 0 1-1.238-.874 4.463 4.463 0 0 1-.785-1.479 9.772 9.772 0 0 1-.383-1.979c-.07-.734-.019-1.398.143-2.003.159-.601.413-1.129.764-1.575s.78-.811 1.295-1.091a5 5 0 0 1 1.742-.542c.159-.019.346-.037.543-.051.198-.016.401-.02.6-.026h.562s.324.011.446.03c-.024.563-.045.844-.075 1.397-.141-.023-.32-.049-.537-.075a11.128 11.128 0 0 0-.668-.044 13.29 13.29 0 0 0-.691-.007 4.84 4.84 0 0 0-.613.037c-.292.04-.564.099-.815.18a1.529 1.529 0 0 0-.675.447 1.14 1.14 0 0 0-.243.516 4.304 4.304 0 0 0-.096.773c-.012.285-.007.599.012.925.019.331.047.65.077.963.133 1.25.383 2.194.752 2.827.372.63.881.911 1.525.834a7.096 7.096 0 0 0 1.033-.204c.173-.046.332-.095.481-.14.149-.047.28-.088.384-.136l-.344-2.495-.038-.038zm6.048-1.24c-.228.045-.339.063-.565.105l.7 3.823c-.696.126-1.042.191-1.737.306l-1.575-9.269.514-.122c.187-.047.379-.088.575-.135.196-.046.395-.089.598-.127.201-.047.394-.084.58-.117.957-.177 1.715-.121 2.297.18.582.307.969.886 1.154 1.748.081.384.114.734.091 1.041a2.695 2.695 0 0 1-.188.821 2.237 2.237 0 0 1-.383.641 3.764 3.764 0 0 1-.505.49c.347.426.673.823.984 1.199.312.376.611.693.905.965.293.267.573.463.85.599.275.136.549.165.817.107l.056-.012.135.581a3.056 3.056 0 0 1-.44.222 3.548 3.548 0 0 1-.586.181 4.926 4.926 0 0 1-.58.089c-.18.012-.353 0-.52-.033a1.809 1.809 0 0 1-.509-.21 3.3 3.3 0 0 1-.556-.43 7.57 7.57 0 0 1-.649-.697c-.239-.28-.501-.621-.792-1.019-.256-.354-.391-.532-.646-.888l-.025-.039zm-.444-.861c.233-.042.453-.117.654-.223.205-.105.359-.217.463-.339.054-.061.107-.13.153-.212a.98.98 0 0 0 .111-.32c.024-.133.032-.295.024-.483a4.595 4.595 0 0 0-.096-.708 2.721 2.721 0 0 0-.261-.771 1.254 1.254 0 0 0-.396-.463c-.154-.101-.332-.163-.53-.182s-.421-.007-.67.038c-.057.014-.127.024-.211.051-.082.023-.158.044-.223.069l.664 3.624.288-.051.03-.03z"/><path fill="#543632" d="M99.363 105.001a187.327 187.327 0 0 1-1.812-2.791 120.72 120.72 0 0 1-3.075.841 192.32 192.32 0 0 1-.29 3.284c-.441.104-.655.155-1.091.251.517-3.946.728-5.919 1.047-9.851.579-.283.874-.424 1.453-.713 2.149 3.421 3.268 5.112 5.596 8.453-.733.215-1.096.32-1.829.525h.001zm-2.308-3.581a205.78 205.78 0 0 1-2.241-3.612c-.091 1.7-.146 2.556-.275 4.262 1.009-.25 1.512-.379 2.517-.645v-.005zm11.509-4.425c.264.701.418 1.362.461 1.988a4.103 4.103 0 0 1-.233 1.728 3.55 3.55 0 0 1-.966 1.383c-.441.399-1.014.72-1.71.956-.713.24-1.359.332-1.938.273a3.321 3.321 0 0 1-1.55-.545 4.029 4.029 0 0 1-1.171-1.247 7.864 7.864 0 0 1-.807-1.847 7.777 7.777 0 0 1-.345-1.972c-.019-.607.065-1.156.255-1.649.184-.493.483-.919.894-1.28.408-.365.938-.654 1.59-.876.642-.218 1.243-.312 1.799-.273a3.403 3.403 0 0 1 1.53.46c.465.266.886.645 1.255 1.135.371.491.691 1.08.954 1.767h-.018zm-1.698.638a7.808 7.808 0 0 0-.654-1.407 3.638 3.638 0 0 0-.799-.946 2.085 2.085 0 0 0-.938-.444c-.339-.061-.701-.023-1.095.108a3.857 3.857 0 0 0-.921.443 1.971 1.971 0 0 0-.594.579c-.127.206-.146.575-.062 1.107.081.533.261 1.229.534 2.092.169.543.364 1.014.575 1.428.21.415.453.755.729 1.016.272.261.583.428.929.503.347.077.734.046 1.169-.101.446-.147.797-.32 1.058-.505.263-.185.466-.383.615-.593.061-.096.101-.25.101-.465 0-.219-.031-.473-.082-.768a14.843 14.843 0 0 0-.589-2.034l.024-.013z"/><path fill="#F60" d="M97.847 94.911c-.676-1.047-1.31-1.159-1.75-1.082-.517.091-1.066.496-2.026 1.203-.048.033-.125.083-.224.152a7.161 7.161 0 0 0-.252.188c-.099.075-.347.274-.528.375-.36.2-.58.219-.743.205-1.289-.136-1.879-2.348-1.879-2.348a5.164 5.164 0 0 1-.074-.307c.025.049.069.122.126.201.243.373.953 1.255 1.738 1.253.28 0 .693-.216 1.587-.942.331-.269.951-.801 1.671-1.007.046-.014.102-.032.172-.047.262-.043.741-.117 1.225.302.574.492.836 1.39.943 1.853h.014z"/><path fill="#543632" d="M46.471 73.045c2.651 0 3.025-1.459 3.025-2.768 0-1.045-.148-2.092-.299-3.139-.15-1.046-.299-2.055-.299-3.103 0-3.432 2.243-4.893 5.419-4.893h.785v2.055h-.674c-2.205 0-2.953 1.2-2.953 3.215 0 .862.113 1.762.263 2.654.15.939.262 1.832.262 2.841.037 2.392-1.01 3.593-2.69 4.039v.076c1.681.415 2.728 1.686 2.69 4.076 0 1.009-.112 1.947-.262 2.84-.149.938-.263 1.792-.263 2.692 0 2.093.86 3.252 2.953 3.252h.674v2.057h-.785c-3.102 0-5.419-1.347-5.419-5.117 0-1.01.148-2.054.3-3.061.148-1.01.298-2.018.298-3.025 0-1.154-.374-2.764-3.027-2.764v-1.906l.002-.021zm36.355 1.938c-2.652 0-3.026 1.458-3.026 2.765 0 1.047.146 2.1.292 3.14.147 1.052.303 2.061.303 3.107 0 3.439-2.248 4.899-5.426 4.899h-.785V86.84h.673c2.2 0 2.953-1.194 2.953-3.21 0-.86-.117-1.755-.262-2.654-.153-.931-.262-1.831-.262-2.839-.039-2.393 1.007-3.586 2.692-4.039v-.076c-1.686-.409-2.731-1.677-2.692-4.07 0-1.008.108-1.939.262-2.84.145-.931.262-1.792.262-2.69 0-2.093-.862-3.249-2.953-3.249h-.678V59.1h.785c3.098 0 5.415 1.346 5.415 5.119 0 1.01-.153 2.057-.298 3.065-.154 1.009-.302 2.015-.302 3.023 0 1.156.371 2.764 3.025 2.764v1.9l.022.012z"/><path fill="#F60" d="M75.14 84.58l-21.091.009a.126.126 0 0 1-.125-.141c.188-1.636.297-3.005.361-4.021.144-2.239.08-2.78 0-3.222-.334-1.812-.985-1.89-.945-3.03.05-1.506 1.199-1.856 1.704-3.598.205-.715.328-1.756-.062-3.171-.033-.122.109-.212.203-.135 1.379 1.2 3.419 2.525 5.914 2.546 1.881.013 2.953-.677 5.364-1.392 1.812-.542 5.738-1.333 7.958-1.091.062.007.107.063.107.128-.052.912-.594 2.049-.186 3.293.462 1.396 1.358 1.587 1.513 2.838.14 1.175-.599 1.437-.996 3.451-.178.894-.166 1.524-.14 2.789.026 1.147.14 2.713.542 4.567-.052.063-.077.089-.126.154l.005.026z"/><path fill="#543632" d="M82.644 84.351l-.885-1.694c1.01-.528 2.869-1.758 3.967-4.066.954-2.005.856-3.82.82-4.503a10.261 10.261 0 0 0-1.133-4.031 10.55 10.55 0 0 0-3.55-3.92l1.054-1.595c1.241.818 2.977 2.288 4.194 4.636a12.206 12.206 0 0 1 1.343 4.804c.04.742.16 2.986-1.002 5.431-1.336 2.809-3.585 4.299-4.808 4.938z"/><path fill="#F60" d="M67.071 61.402c-.575-1.521-.369-2.533-.092-3.166.325-.737.937-1.38 2.008-2.504.056-.055.134-.149.242-.266.134-.143.233-.242.28-.291.115-.111.402-.396.575-.621.351-.45.472-.775.533-1.032.504-2.017-1.115-3.956-1.115-3.956-.096-.114-.18-.21-.222-.262.03.064.07.166.112.287.205.55.621 2.043.243 3.223-.134.428-.516.951-1.569 1.965-.389.376-1.142 1.059-1.671 2.061-.031.058-.07.141-.122.242-.166.378-.451 1.065-.332 1.998.154 1.097.796 1.92 1.143 2.303l-.013.019zm-3.636 5.015c-2.048-3.473-1.979-6.03-1.562-7.698.484-1.938 1.706-3.766 3.844-6.963.106-.157.256-.42.474-.752.265-.406.47-.695.565-.83.227-.321.813-1.135 1.142-1.765.655-1.244.818-2.087.877-2.745.365-5.136-4.411-9.186-4.411-9.186-.287-.243-.528-.43-.664-.534.096.152.236.38.396.654.728 1.25 2.378 4.724 1.959 7.779-.154 1.108-.868 2.539-3.016 5.462-.797 1.086-2.355 3.081-3.216 5.737a7.236 7.236 0 0 0-.197.658c-.249.987-.671 2.795.039 5.027.828 2.627 2.748 4.36 3.757 5.155h.013z"/><path fill="#F60" d="M60.774 44.819c1.08-1.217 1.251-2.234 1.216-2.925-.041-.805-.383-1.623-.98-3.054-.031-.07-.069-.187-.134-.335-.076-.182-.134-.311-.159-.373-.064-.144-.235-.511-.318-.786-.166-.542-.16-.89-.135-1.155.255-2.06 2.457-3.291 2.457-3.291.128-.075.241-.131.299-.16-.051.053-.121.131-.21.227-.39.433-1.31 1.683-1.38 2.921-.024.446.147 1.072.767 2.393.229.491.689 1.397.822 2.52.008.07.02.153.025.275.019.408.044 1.154-.408 1.983-.535.976-1.429 1.512-1.888 1.748l.026.012z"/></svg>