<?xml version="1.0" encoding="utf-8"?>
<!-- Generator: Adobe Illustrator 16.0.0, SVG Export Plug-In . SVG Version: 6.00 Build 0)  -->
<!DOCTYPE svg PUBLIC "-//W3C//DTD SVG 1.1//EN" "http://www.w3.org/Graphics/SVG/1.1/DTD/svg11.dtd">
<svg version="1.1" id="Layer_1" xmlns="http://www.w3.org/2000/svg" xmlns:xlink="http://www.w3.org/1999/xlink" x="0px" y="0px"
	 width="300px" height="300px" viewBox="0 0 300 300" enable-background="new 0 0 300 300" xml:space="preserve">
<g>
	<path fill="#344243" d="M144.117,120.114c-15.902,0-28.839-12.842-28.839-28.625c0-15.783,12.937-28.624,28.839-28.624
		s28.839,12.84,28.839,28.624C172.956,107.272,160.019,120.114,144.117,120.114z"/>
	<path fill="#344243" d="M107.125,237.135c-8.256,0-15.181-1.797-20.579-5.342c-1.054-0.693-2.048-1.451-2.979-2.27
		c-1.421,0.912-2.904,1.738-4.448,2.477c-7.131,3.408-14.809,5.135-22.821,5.135c-8.112,0-15.755-1.551-22.721-4.611
		c-6.992-3.072-13.12-7.484-18.205-13.111c-4.973-5.502-8.884-12.078-11.619-19.547c-2.688-7.328-4.05-15.379-4.05-23.928
		c0-8.213,1.238-16.021,3.683-23.208c2.502-7.361,6.097-13.876,10.679-19.364c4.739-5.668,10.455-10.162,16.993-13.355
		c6.69-3.263,13.629-4.914,21.545-4.914c5.362,0,10.897,0.827,14.897,2.466V93.408c0-6.964,6.69-10.908,13.768-10.908h33.65
		c7.013,0,12.582,3.826,12.582,10.908v89.057c5,1.797,10,6.5,10,11.893v28.336c0,6.188-5.307,11.438-11.402,12.486
		c-3.645,0.627-7.363,1.109-10.186,1.432C112.822,236.959,109.578,237.135,107.125,237.135z"/>
	<path fill="#FFFFFF" d="M122.164,192.906c-2.646-0.201-4.455-0.812-5.363-1.766c-0.625-0.656-1.301-2.168-1.301-5.641V93.408
		c0-0.802,0.221-0.908-0.582-0.908h-33.65c-0.802,0-1.768,0.106-1.768,0.908V138.5c-3-3.246-5.545-5.907-9.296-7.938
		c-5.213-2.82-10.938-4.25-17.171-4.25c-6.211,0-11.931,1.271-17.07,3.778c-5.121,2.5-9.583,6.024-13.297,10.468
		c-3.7,4.429-6.609,9.74-8.663,15.783c-2.049,6.025-3.085,12.617-3.085,19.596c0,7.229,1.135,13.982,3.368,20.07
		c2.237,6.109,5.405,11.453,9.41,15.883c4.017,4.443,8.861,7.93,14.397,10.363c5.533,2.432,11.661,3.664,18.207,3.664
		c6.324,0,12.375-1.359,17.983-4.039c4.639-2.217,8.534-5.541,11.616-9.9c1.966,9.248,9.107,13.939,21.228,13.939
		c2.037,0,4.414-0.152,7.072-0.453c2.613-0.297,4.67-0.748,8.105-1.34c0.696-0.119,0.197-0.723,0.197-1.432v-28.336
		C122.5,193.596,122.924,192.965,122.164,192.906z"/>
	<ellipse fill="#50C6E4" cx="144.117" cy="91.488" rx="17.622" ry="17.406"/>
</g>
</svg>
