<?xml version="1.0" encoding="utf-8"?>
<!-- Generator: Adobe Illustrator 16.0.0, SVG Export Plug-In . SVG Version: 6.00 Build 0)  -->
<!DOCTYPE svg PUBLIC "-//W3C//DTD SVG 1.1//EN" "http://www.w3.org/Graphics/SVG/1.1/DTD/svg11.dtd">
<svg version="1.1" id="logo" xmlns="http://www.w3.org/2000/svg" xmlns:xlink="http://www.w3.org/1999/xlink" x="0px" y="0px"
	 width="200px" height="80px" viewBox="0 0 200 80" enable-background="new 0 0 200 80" xml:space="preserve">
<g>
	<path fill="#154474" d="M12.775,57.72c-0.186,0.504-0.202,0.969-0.056,1.388c0.146,0.419,0.416,0.788,0.808,1.106
		c0.393,0.318,0.913,0.571,1.56,0.752c0.642,0.187,1.365,0.278,2.155,0.278h13.407c0.374,0,0.506,0.171,0.384,0.506l-1.869,5.138
		c-0.129,0.339-0.375,0.504-0.75,0.504h-9.519c-3.159,0-5.718-0.233-7.671-0.703c-1.951-0.467-3.382-1.214-4.305-2.245
		c-0.928-1.018-1.374-2.321-1.347-3.904c0.035-1.572,0.451-3.477,1.256-5.697c0.987-2.682,2.251-4.91,3.816-6.669
		c1.562-1.765,3.275-3.173,5.134-4.21c1.869-1.038,3.801-1.772,5.815-2.19c2.015-0.422,3.958-0.634,5.837-0.634
		c2.33,0,4.247,0.246,5.763,0.736c1.51,0.482,2.653,1.175,3.416,2.065c0.768,0.888,1.167,1.974,1.214,3.244
		c0.042,1.283-0.226,2.706-0.803,4.289l-1.903,5.24c-0.122,0.335-0.371,0.501-0.747,0.501H13.528
		C13.141,57.215,12.892,57.383,12.775,57.72 M30.149,51.323c0.379,0,0.628-0.176,0.75-0.511c0.458-1.277,0.175-2.287-0.864-3.048
		c-1.038-0.752-2.743-1.131-5.11-1.131c-0.753,0-1.628,0.103-2.616,0.305c-0.998,0.201-1.983,0.474-2.954,0.826
		c-0.968,0.354-1.837,0.791-2.592,1.318c-0.751,0.514-1.246,1.092-1.471,1.729c-0.125,0.335,0,0.511,0.379,0.511H30.149z"/>
	<g>
		<path fill="#154474" d="M43.858,44.171c0.305-0.846,0.928-1.562,1.874-2.147c0.944-0.583,1.835-0.885,2.659-0.885h11.666
			c0.973,0,1.81,0.207,2.486,0.606c0.682,0.406,1.142,0.777,1.395,1.108c0.132,0.17,0.278,0.363,0.444,0.58
			c0.164,0.22,0.281,0.329,0.353,0.329c0.08,0,0.203-0.059,0.379-0.178c0.178-0.114,0.393-0.279,0.652-0.475
			c0.261-0.206,0.576-0.423,0.946-0.657c0.367-0.238,0.785-0.436,1.256-0.606c0.894-0.372,1.729-0.584,2.514-0.629
			c0.787-0.053,1.296-0.079,1.523-0.079h3.998c1.54,0,2.854,0.26,3.941,0.787c1.087,0.52,1.944,1.185,2.574,1.988
			c0.628,0.805,1.012,1.704,1.161,2.692c0.149,0.992,0.048,1.959-0.292,2.901l-6.329,17.38c-0.119,0.339-0.374,0.504-0.745,0.504
			h-5.691c-0.417,0-0.559-0.165-0.438-0.504l6.09-16.729c0.196-0.539,0.235-1.013,0.126-1.432c-0.106-0.422-0.31-0.783-0.591-1.084
			c-0.292-0.3-0.634-0.533-1.053-0.684c-0.416-0.154-0.826-0.224-1.234-0.224h-3.722c-0.676,0-1.426,0.224-2.25,0.676
			c-0.819,0.461-1.389,1.118-1.708,1.994l-6.364,17.481c-0.123,0.339-0.374,0.504-0.75,0.504h-5.747
			c-0.376,0-0.498-0.165-0.376-0.504l6.364-17.481c0.241-0.673,0.095-1.287-0.433-1.842c-0.533-0.552-1.227-0.828-2.091-0.828
			h-5.188c-0.414,0-0.814,0.151-1.204,0.448c-0.395,0.302-0.665,0.654-0.805,1.063l-6.789,18.64
			c-0.121,0.339-0.374,0.504-0.75,0.504h-5.75c-0.366,0-0.496-0.165-0.376-0.504L43.858,44.171z"/>
	</g>
	<path fill="#154474" d="M98.378,41.139h10.645c1.811,0,3.23,0.319,4.273,0.959c1.042,0.639,1.771,1.543,2.182,2.696
		c0.403,1.165,0.498,2.566,0.291,4.209c-0.203,1.649-0.663,3.462-1.384,5.443c-0.546,1.51-1.317,3.037-2.289,4.582
		c-0.976,1.542-2.105,2.932-3.37,4.156c-1.275,1.223-2.706,2.239-4.286,3.026c-1.584,0.786-3.243,1.181-4.967,1.181H81.952
		c-0.379,0-0.506-0.165-0.384-0.504L94.35,31.769c0.124-0.335,0.374-0.504,0.747-0.504h5.75c0.378,0,0.501,0.169,0.378,0.504
		L98,40.641C97.869,40.979,98.004,41.139,98.378,41.139 M90.68,60.748c-0.121,0.326,0.004,0.499,0.379,0.499h6.14
		c1.168,0,2.274-0.103,3.323-0.299c1.048-0.2,2.008-0.558,2.863-1.061c0.858-0.508,1.636-1.197,2.335-2.066
		c0.689-0.874,1.288-2,1.791-3.375c0.539-1.48,0.786-2.691,0.751-3.634c-0.031-0.934-0.291-1.666-0.806-2.191
		c-0.501-0.516-1.201-0.869-2.101-1.057c-0.882-0.185-1.91-0.276-3.076-0.276h-6.137c-0.379,0-0.625,0.169-0.75,0.504L90.68,60.748z
		"/>
	<g>
		<path fill="#154474" d="M137.32,41.139c0.369,0,0.497,0.174,0.377,0.509l-1.868,5.14c-0.125,0.33-0.381,0.501-0.752,0.501h-5.407
			c-0.339,0-0.676,0.082-1.002,0.252c-0.314,0.172-0.626,0.362-0.914,0.579c-0.287,0.217-0.525,0.458-0.731,0.708
			c-0.201,0.256-0.346,0.479-0.42,0.677l-6.323,17.384c-0.122,0.339-0.375,0.504-0.751,0.504h-6.304
			c-0.378,0-0.508-0.165-0.378-0.504l6.966-19.142c0.313-0.874,0.821-1.715,1.508-2.522c0.687-0.806,1.479-1.511,2.376-2.113
			c0.896-0.61,1.854-1.087,2.888-1.442c1.023-0.349,2.056-0.529,3.064-0.529H137.32z"/>
	</g>
	<path fill="#154474" d="M142.558,41.139h15.891c1.428,0,2.535,0.278,3.33,0.834c0.796,0.557,1.346,1.27,1.645,2.139
		c0.298,0.875,0.395,1.848,0.293,2.93c-0.117,1.071-0.365,2.146-0.764,3.223l-6.049,16.624c-0.114,0.339-0.368,0.504-0.74,0.504
		h-19.668c-1.12,0-1.937-0.312-2.42-0.93c-0.493-0.622-0.781-1.353-0.866-2.188c-0.091-0.847-0.061-1.684,0.099-2.524
		c0.154-0.837,0.31-1.479,0.474-1.908c0.294-0.813,0.729-1.698,1.311-2.675c0.58-0.976,1.261-1.879,2.048-2.698
		c0.788-0.82,1.687-1.526,2.681-2.092c0.996-0.569,2.054-0.856,3.184-0.856h9.409c0.974,0,1.83-0.208,2.566-0.63
		c0.736-0.418,1.209-0.91,1.418-1.484c0.166-0.469,0.151-0.938-0.056-1.407c-0.201-0.473-0.604-0.711-1.203-0.711h-14.821
		c-0.378,0-0.503-0.171-0.378-0.501l1.869-5.14C141.931,41.312,142.179,41.139,142.558,41.139 M151.436,61.498
		c0.371,0,0.62-0.169,0.743-0.506l1.099-3.02c0.122-0.337-0.003-0.511-0.376-0.511h-10.033c-0.523,0-1.026,0.198-1.506,0.585
		c-0.479,0.386-0.811,0.816-0.976,1.284c-0.206,0.572-0.204,1.076,0.017,1.515c0.212,0.431,0.654,0.652,1.331,0.652H151.436z"/>
	<path fill="#154474" d="M163.812,61.247h15.494c0.524,0,0.967-0.077,1.317-0.231c0.362-0.149,0.665-0.339,0.916-0.58
		c0.256-0.23,0.455-0.487,0.599-0.776c0.138-0.286,0.255-0.547,0.338-0.782c0.159-0.435,0.198-0.869,0.109-1.309
		c-0.08-0.436-0.502-0.656-1.258-0.656h-8.842c-1.35,0-2.431-0.195-3.231-0.577c-0.797-0.389-1.345-0.923-1.662-1.61
		c-0.319-0.693-0.425-1.515-0.343-2.474c0.085-0.957,0.339-2.008,0.755-3.152c0.614-1.675,1.322-3.038,2.132-4.074
		c0.812-1.047,1.764-1.848,2.858-2.421c1.089-0.569,2.354-0.956,3.799-1.16c1.447-0.199,3.122-0.305,5.038-0.305H194
		c0.38,0,0.507,0.169,0.38,0.509l-1.864,5.14c-0.12,0.338-0.376,0.501-0.747,0.501h-14.768c-0.603,0-1.103,0.196-1.508,0.578
		c-0.398,0.387-0.687,0.815-0.86,1.286c-0.157,0.439-0.177,0.871-0.055,1.306c0.125,0.444,0.464,0.66,1.036,0.66h8.221
		c1.464,0,2.672,0.146,3.618,0.426c0.952,0.293,1.63,0.768,2.041,1.434c0.409,0.678,0.572,1.593,0.47,2.751s-0.472,2.617-1.106,4.36
		c-0.19,0.501-0.513,1.165-0.982,1.991c-0.47,0.818-1.071,1.623-1.806,2.415c-0.745,0.789-1.619,1.471-2.629,2.043
		c-1.021,0.572-2.165,0.854-3.441,0.854h-18.43c-0.373,0-0.496-0.165-0.377-0.504l1.869-5.138
		C163.185,61.415,163.433,61.247,163.812,61.247"/>
	<linearGradient id="SVGID_1_" gradientUnits="userSpaceOnUse" x1="134.4375" y1="25.7441" x2="194.2666" y2="25.7441">
		<stop  offset="0" style="stop-color:#FFFFFF"/>
		<stop  offset="0" style="stop-color:#FFFFFF"/>
		<stop  offset="0" style="stop-color:#FFFFFF"/>
		<stop  offset="0.1488" style="stop-color:#C7D2DE"/>
		<stop  offset="0.3107" style="stop-color:#91A7BE"/>
		<stop  offset="0.4694" style="stop-color:#6584A3"/>
		<stop  offset="0.621" style="stop-color:#42688F"/>
		<stop  offset="0.7635" style="stop-color:#295480"/>
		<stop  offset="0.8937" style="stop-color:#1A4877"/>
		<stop  offset="1" style="stop-color:#154474"/>
	</linearGradient>
	<path fill="url(#SVGID_1_)" d="M134.438,36.862c4.338-11.164,15.171-19.069,27.869-19.069c13.438,0,24.802,8.878,28.563,21.087
		h3.396c-2.002-14.834-14.705-26.271-30.083-26.271C149.511,12.608,137.266,23.023,134.438,36.862"/>
	<path fill="#90A63C" d="M184.594,38.88h4.563c-3.928-11.184-14.565-19.205-27.091-19.205c-11.137,0-20.797,6.352-25.557,15.621
		c5.072-7.167,13.463-11.859,22.968-11.859C170.483,23.437,180.013,29.732,184.594,38.88"/>
	<path fill="#BDD63D" d="M176.706,38.853h6.157c-4.341-7.925-13.101-13.341-23.217-13.341c-10.34,0-19.283,5.663-23.518,13.888
		c4.978-5.761,12.329-9.407,20.53-9.407C164.604,29.992,171.747,33.411,176.706,38.853"/>
	<g>
		<g>
			<path fill="#154474" d="M21.637,38.289c-0.949,0-1.89-0.223-2.458-0.581l-0.083-0.053l0.409-1.183l0.132,0.079
				c0.258,0.154,0.973,0.513,2.041,0.513c1.001,0,2.194-0.393,2.194-2.263v-0.447c-0.441,0.596-1.247,0.958-2.194,0.958
				c-1.845,0-3.184-1.458-3.184-3.467c0-2.44,1.735-3.757,3.367-3.757c1.188,0,1.842,0.554,2.165,0.97l0.043-0.813h1.401
				l-0.01,0.134c-0.044,0.59-0.063,1.149-0.063,1.869v3.972c0,1.599-0.329,2.594-1.067,3.226
				C23.534,38.143,22.426,38.289,21.637,38.289z M22.08,29.313c-1.205,0-2.014,0.99-2.014,2.463c0,1.077,0.522,2.335,1.995,2.335
				c0.775,0,1.442-0.467,1.699-1.19c0.064-0.196,0.099-0.413,0.099-0.623v-1.227c0-0.234-0.021-0.392-0.068-0.529
				C23.594,29.947,23.042,29.313,22.08,29.313z"/>
		</g>
		<g>
			<path fill="#154474" d="M21.86,28.213c1.243,0,1.93,0.626,2.243,1.188h0.029l0.055-1.03h1.148
				c-0.037,0.495-0.063,1.05-0.063,1.878v3.972c0,1.572-0.326,2.534-1.023,3.131c-0.702,0.615-1.707,0.813-2.611,0.813
				c-0.864,0-1.815-0.198-2.391-0.562l0.326-0.944c0.472,0.282,1.217,0.53,2.104,0.53c1.341,0,2.319-0.662,2.319-2.388v-0.765
				h-0.028c-0.4,0.644-1.177,1.15-2.291,1.15c-1.784,0-3.059-1.443-3.059-3.342C18.618,29.528,20.208,28.213,21.86,28.213
				 M22.061,34.236c0.812,0,1.535-0.48,1.816-1.273c0.071-0.217,0.106-0.449,0.106-0.665v-1.227c0-0.215-0.016-0.401-0.075-0.57
				c-0.238-0.722-0.883-1.312-1.829-1.312c-1.25,0-2.139,1.002-2.139,2.588C19.941,33.123,20.651,34.236,22.061,34.236
				 M21.86,27.963c-1.693,0-3.492,1.36-3.492,3.882c0,2.048,1.422,3.592,3.309,3.592c0.825,0,1.548-0.265,2.069-0.744v0.108
				c0,1.418-0.696,2.138-2.069,2.138c-1.037,0-1.728-0.346-1.976-0.495l-0.264-0.158l-0.101,0.291l-0.326,0.944l-0.064,0.187
				l0.167,0.106c0.586,0.37,1.553,0.6,2.524,0.6c0.811,0,1.95-0.152,2.776-0.875c0.766-0.656,1.108-1.68,1.108-3.319v-3.972
				c0-0.9,0.032-1.445,0.063-1.859l0.02-0.269h-0.27h-1.148h-0.237l-0.012,0.237l-0.021,0.39
				C23.532,28.361,22.886,27.963,21.86,27.963L21.86,27.963z M22.061,33.986c-1.378,0-1.87-1.142-1.87-2.21
				c0-1.42,0.742-2.338,1.889-2.338c0.896,0,1.409,0.589,1.591,1.141c0.044,0.127,0.062,0.273,0.062,0.492v1.227
				c0,0.197-0.033,0.4-0.094,0.587C23.403,33.552,22.782,33.986,22.061,33.986L22.061,33.986z"/>
		</g>
	</g>
	<g>
		<path fill="#154474" d="M27.227,35.336v-4.835c0-0.797-0.015-1.487-0.055-2.123l-0.008-0.133h1.399l0.03,1.041
			c0.406-0.739,1.133-1.198,1.942-1.198c0.15,0,0.265,0.018,0.385,0.039l0.103,0.019v1.438l-0.152-0.034
			c-0.124-0.027-0.247-0.039-0.411-0.039c-0.822,0-1.464,0.588-1.634,1.499c-0.031,0.16-0.059,0.348-0.059,0.555v3.771H27.227z"/>
		<g>
			<path fill="#154474" d="M30.536,28.213c0.141,0,0.25,0.017,0.363,0.037v1.178c-0.133-0.029-0.265-0.042-0.438-0.042
				c-0.924,0-1.582,0.665-1.757,1.601c-0.032,0.166-0.061,0.362-0.061,0.578v3.646h-1.291v-4.71c0-0.8-0.015-1.492-0.055-2.131
				h1.145l0.04,1.344h0.057C28.865,28.796,29.65,28.213,30.536,28.213 M30.536,27.963c-0.723,0-1.383,0.345-1.829,0.922
				l-0.015-0.522l-0.007-0.243h-0.243h-1.145h-0.266l0.017,0.266c0.037,0.597,0.054,1.27,0.054,2.115v4.71v0.25h0.25h1.291h0.25
				v-0.25v-3.646c0-0.211,0.032-0.404,0.057-0.531c0.162-0.862,0.741-1.397,1.512-1.397c0.154,0,0.269,0.011,0.384,0.036
				l0.304,0.067v-0.311V28.25v-0.209l-0.206-0.037C30.828,27.983,30.702,27.963,30.536,27.963L30.536,27.963z"/>
		</g>
	</g>
	<g>
		<path fill="#154474" d="M34.645,35.494c-0.783,0-2.603-0.304-2.603-3.121v-4.128h1.556v3.91c0,1.384,0.483,2.057,1.477,2.057
			c0.797,0,1.381-0.529,1.607-1.054c0.071-0.173,0.109-0.378,0.109-0.589v-4.323h1.56v5.1c0,0.81,0.017,1.382,0.055,1.856
			l0.011,0.135h-1.407l-0.065-0.941C36.659,34.805,35.936,35.494,34.645,35.494z"/>
		<g>
			<path fill="#154474" d="M38.226,28.37v4.975c0,0.708,0.013,1.335,0.055,1.866h-1.155l-0.077-1.115h-0.03
				c-0.341,0.557-1.098,1.273-2.375,1.273c-1.127,0-2.478-0.595-2.478-2.996V28.37h1.306v3.785c0,1.302,0.417,2.182,1.602,2.182
				c0.875,0,1.487-0.583,1.722-1.13c0.077-0.188,0.12-0.41,0.12-0.639V28.37H38.226 M38.476,28.12h-0.25h-1.31h-0.25v0.25v4.198
				c0,0.192-0.036,0.386-0.101,0.543c-0.208,0.483-0.75,0.975-1.491,0.975c-0.58,0-1.352-0.2-1.352-1.932V28.37v-0.25h-0.25h-1.306
				h-0.25v0.25v4.003c0,2.93,1.908,3.246,2.728,3.246c1.083,0,1.783-0.466,2.197-0.893l0.034,0.501l0.016,0.233h0.233h1.155h0.271
				l-0.022-0.27c-0.038-0.47-0.054-1.04-0.054-1.846V28.37V28.12L38.476,28.12z"/>
		</g>
	</g>
	<g>
		<g>
			<path fill="#154474" d="M40.391,38.139c-0.069,0-0.125-0.056-0.125-0.125V30.6c0-0.718-0.021-1.319-0.041-1.869l-0.012-0.356
				c-0.001-0.034,0.012-0.066,0.035-0.091s0.056-0.038,0.09-0.038h1.167c0.066,0,0.122,0.052,0.125,0.119l0.043,0.884
				c0.523-0.747,1.396-1.165,2.479-1.165c1.835,0,3.168,1.517,3.168,3.607c0,2.627-1.703,3.804-3.391,3.804
				c-0.867,0-1.636-0.319-2.123-0.866v3.386c0,0.069-0.056,0.125-0.125,0.125H40.391z M43.749,29.327
				c-0.861,0-1.626,0.596-1.859,1.448c-0.049,0.21-0.083,0.352-0.083,0.476v1.174c0,0.176,0.029,0.34,0.056,0.491
				c0.222,0.804,0.964,1.351,1.844,1.351c1.267,0,2.054-0.966,2.054-2.521C45.761,30.542,45.139,29.327,43.749,29.327z"/>
		</g>
		<g>
			<path fill="#154474" d="M44.152,28.208c1.734,0,3.043,1.409,3.043,3.482c0,2.458-1.572,3.679-3.266,3.679
				c-0.951,0-1.783-0.399-2.218-1.072h-0.03v3.717h-1.291V30.6c0-0.878-0.032-1.581-0.053-2.229h1.167l0.058,1.174h0.034
				C42.125,28.709,42.978,28.208,44.152,28.208 M43.707,34.392c1.373,0,2.179-1.072,2.179-2.646c0-1.372-0.755-2.544-2.137-2.544
				c-0.896,0-1.725,0.609-1.98,1.54c-0.034,0.153-0.087,0.339-0.087,0.509v1.174c0,0.184,0.03,0.355,0.058,0.513
				C41.979,33.804,42.771,34.392,43.707,34.392 M44.152,27.958c-0.971,0-1.78,0.324-2.372,0.943l-0.027-0.543
				c-0.006-0.133-0.116-0.238-0.25-0.238h-1.167c-0.068,0-0.133,0.027-0.18,0.076s-0.072,0.114-0.07,0.182l0.013,0.356
				c0.019,0.548,0.041,1.148,0.041,1.865v7.414c0,0.138,0.112,0.25,0.25,0.25h1.291c0.138,0,0.25-0.112,0.25-0.25v-3.087
				c0.507,0.441,1.215,0.692,1.998,0.692c1.693,0,3.516-1.229,3.516-3.929C47.445,29.528,46.061,27.958,44.152,27.958L44.152,27.958
				z M43.707,34.142c-0.823,0-1.517-0.511-1.726-1.271c-0.02-0.112-0.049-0.278-0.049-0.446v-1.174c0-0.109,0.032-0.243,0.06-0.362
				l0.021-0.093c0.216-0.787,0.931-1.344,1.736-1.344c1.304,0,1.887,1.152,1.887,2.294C45.636,33.224,44.897,34.142,43.707,34.142
				L43.707,34.142z"/>
		</g>
	</g>
	<g>
		<g>
			<path fill="#154474" d="M51.768,35.494c-2.101,0-3.568-1.5-3.568-3.649c0-2.247,1.485-3.757,3.696-3.757
				c2.107,0,3.579,1.499,3.579,3.646C55.474,34.331,53.612,35.494,51.768,35.494z M51.858,29.274c-1.441,0-2.086,1.271-2.086,2.53
				c0,1.452,0.865,2.505,2.057,2.505c1.19,0,2.055-1.065,2.055-2.533C53.883,30.571,53.25,29.274,51.858,29.274z"/>
		</g>
		<g>
			<path fill="#154474" d="M51.895,28.213c2.06,0,3.454,1.432,3.454,3.521c0,2.537-1.839,3.636-3.581,3.636
				c-1.942,0-3.443-1.358-3.443-3.524C48.324,29.558,49.896,28.213,51.895,28.213 M51.829,34.435c1.249,0,2.18-1.115,2.18-2.658
				c0-1.161-0.605-2.627-2.15-2.627c-1.55,0-2.211,1.352-2.211,2.655C49.647,33.3,50.551,34.435,51.829,34.435 M51.895,27.963
				c-2.25,0-3.821,1.596-3.821,3.882c0,2.222,1.519,3.774,3.693,3.774c1.907,0,3.831-1.202,3.831-3.886
				C55.599,29.513,54.076,27.963,51.895,27.963L51.895,27.963z M51.829,34.185c-1.119,0-1.932-1.001-1.932-2.38
				c0-1.109,0.514-2.405,1.961-2.405c1.503,0,1.9,1.555,1.9,2.377C53.758,33.172,52.947,34.185,51.829,34.185L51.829,34.185z"/>
		</g>
	</g>
</g>
</svg>
