<svg width="334" height="120" viewBox="0 0 334 120" xmlns="http://www.w3.org/2000/svg" xmlns:xlink="http://www.w3.org/1999/xlink"><title>gdgvaledoparaiba</title><defs><path id="a" d="M0 119.302h333.055V.047H0z"/></defs><g fill="none" fill-rule="evenodd"><g transform="translate(0 .301)"><path fill="#787979" d="M118.71 115.187l.137.504.142-.504 7.473-20.811h2.196l-8.837 23.748h-1.93l-8.837-23.748h2.188zm17.24 1.534c1.306 0 2.472-.311 3.51-.942 1.022-.632 1.764-1.472 2.233-2.532v-3.874h-3.495c-1.942.016-3.465.367-4.554 1.062-1.107.686-1.658 1.64-1.658 2.845 0 .99.368 1.817 1.104 2.467.738.652 1.689.974 2.86.974zm6.137 1.403c-.192-.552-.322-1.374-.373-2.46-.681.887-1.562 1.576-2.622 2.066a8.042 8.042 0 0 1-3.364.721c-1.705 0-3.074-.474-4.122-1.417-1.05-.946-1.567-2.145-1.567-3.59 0-1.719.71-3.081 2.142-4.072 1.427-1.005 3.417-1.509 5.973-1.509h3.539v-2.006c0-1.261-.39-2.25-1.16-2.975-.778-.724-1.917-1.081-3.402-1.081-1.357 0-2.493.343-3.377 1.044-.892.693-1.344 1.53-1.344 2.505l-1.956-.013c0-1.407.654-2.618 1.956-3.648 1.306-1.027 2.922-1.54 4.82-1.54 1.966 0 3.52.495 4.654 1.481 1.137.978 1.717 2.356 1.75 4.118v8.346c0 1.711.183 2.986.542 3.833v.196h-2.089z"/><mask id="b" fill="#fff"><use xlink:href="#a"/></mask><path fill="#787979" mask="url(#b)" d="M149.068 118.124h1.961V93.073h-1.961zm13.735-16.307c-1.463 0-2.71.535-3.71 1.61-1.001 1.078-1.616 2.523-1.836 4.335h10.59v-.207c-.057-1.698-.544-3.079-1.458-4.142-.908-1.061-2.11-1.596-3.586-1.596m.36 16.635c-1.502 0-2.854-.374-4.07-1.106-1.22-.744-2.158-1.775-2.826-3.09-.679-1.328-1.015-2.808-1.015-4.447v-.703c0-1.698.334-3.225.996-4.582.647-1.362 1.567-2.43 2.741-3.208 1.176-.777 2.444-1.168 3.814-1.168 2.14 0 3.846.735 5.102 2.2 1.259 1.457 1.882 3.453 1.882 5.99v1.096h-12.594v.375c0 1.994.57 3.667 1.722 4.998 1.15 1.334 2.592 1.998 4.325 1.998 1.042 0 1.97-.187 2.77-.571.798-.384 1.522-.991 2.18-1.831l1.216.933c-1.438 2.08-3.516 3.116-6.243 3.116m19.739-8.973c0 2.251.452 4.027 1.344 5.327.908 1.3 2.185 1.948 3.827 1.948 2.398 0 4.112-1.063 5.12-3.18v-8.287c-1.008-2.296-2.703-3.444-5.09-3.444-1.642 0-2.92.65-3.827 1.94-.922 1.287-1.374 3.187-1.374 5.696zm-1.97-.341c0-2.74.604-4.923 1.834-6.552 1.221-1.622 2.877-2.437 4.98-2.437 2.384 0 4.2.942 5.446 2.824v-9.9h1.943v25.05h-1.83l-.083-2.344c-1.256 1.78-3.092 2.672-5.515 2.672-2.038 0-3.664-.82-4.914-2.451-1.239-1.636-1.86-3.854-1.86-6.628v-.234zm20.213.442c0 2.109.555 3.838 1.642 5.191 1.098 1.357 2.53 2.035 4.298 2.035 1.768 0 3.19-.678 4.288-2.035 1.088-1.353 1.64-3.139 1.64-5.356v-.373c0-1.354-.25-2.58-.759-3.704-.487-1.117-1.195-1.988-2.092-2.605-.91-.613-1.94-.916-3.106-.916-1.74 0-3.16.681-4.258 2.044-1.096 1.365-1.653 3.152-1.653 5.357v.363zm-1.945-.538c0-1.703.325-3.225.99-4.585.646-1.354 1.576-2.419 2.776-3.173 1.214-.755 2.57-1.136 4.09-1.136 2.346 0 4.254.828 5.71 2.476 1.463 1.647 2.184 3.827 2.184 6.546v.41c0 1.704-.322 3.24-.985 4.608-.662 1.364-1.588 2.414-2.778 3.159-1.205.732-2.568 1.105-4.102 1.105-2.33 0-4.231-.823-5.695-2.47-1.46-1.647-2.19-3.836-2.19-6.548v-.392zm30.37-2.285h6.086c1.942 0 3.427-.46 4.452-1.388 1.014-.925 1.533-2.216 1.533-3.869s-.516-2.959-1.53-3.934c-1.014-.97-2.457-1.471-4.33-1.495h-6.212v10.686zm0 1.7v9.667h-2.01V94.376h8.096c2.461 0 4.415.631 5.844 1.893 1.438 1.26 2.142 2.994 2.142 5.205 0 2.225-.683 3.946-2.06 5.163-1.37 1.209-3.366 1.821-5.981 1.821h-6.032zm22.933 8.264c1.306 0 2.47-.311 3.502-.942 1.03-.632 1.775-1.472 2.238-2.532v-3.874h-3.492c-1.945.016-3.46.367-4.564 1.062-1.1.686-1.642 1.64-1.642 2.845 0 .99.36 1.817 1.096 2.467.738.652 1.688.974 2.862.974zm6.134 1.403c-.195-.552-.322-1.374-.378-2.46a6.862 6.862 0 0 1-2.614 2.066 8.051 8.051 0 0 1-3.374.721c-1.69 0-3.071-.474-4.112-1.417-1.051-.946-1.583-2.145-1.583-3.59 0-1.719.723-3.081 2.153-4.072 1.426-1.005 3.422-1.509 5.974-1.509h3.54v-2.006c0-1.261-.386-2.25-1.163-2.975-.775-.724-1.914-1.081-3.404-1.081-1.362 0-2.481.343-3.382 1.044-.89.693-1.326 1.53-1.326 2.505l-1.962-.013c0-1.407.644-2.618 1.962-3.648 1.302-1.027 2.903-1.54 4.804-1.54 1.972 0 3.523.495 4.665 1.481 1.134.978 1.718 2.356 1.744 4.118v8.346c0 1.711.184 2.986.54 3.833v.196h-2.084zm14.912-15.984a7.546 7.546 0 0 0-1.326-.115c-1.213 0-2.243.34-3.092 1.022-.841.675-1.445 1.669-1.805 2.959v12.117h-1.94v-17.645h1.913l.027 2.802c1.032-2.083 2.699-3.132 4.98-3.132.542 0 .97.071 1.287.21l-.044 1.781zm7.435 14.581c1.302 0 2.474-.311 3.503-.942 1.017-.632 1.765-1.472 2.241-2.532v-3.874h-3.5c-1.945.016-3.468.367-4.556 1.062-1.1.686-1.65 1.64-1.65 2.845 0 .99.365 1.817 1.096 2.467.74.652 1.69.974 2.866.974zm6.135 1.403c-.195-.552-.327-1.374-.378-2.46a6.827 6.827 0 0 1-2.62 2.066 8.044 8.044 0 0 1-3.365.721c-1.696 0-3.077-.474-4.115-1.417-1.048-.946-1.58-2.145-1.58-3.59 0-1.719.718-3.081 2.147-4.072 1.427-1.005 3.422-1.509 5.972-1.509h3.548v-2.006c0-1.261-.398-2.25-1.174-2.975-.775-.724-1.905-1.081-3.396-1.081-1.357 0-2.488.343-3.375 1.044-.891.693-1.335 1.53-1.335 2.505l-1.956-.013c0-1.407.644-2.618 1.956-3.648 1.301-1.027 2.895-1.54 4.806-1.54 1.97 0 3.52.495 4.668 1.481 1.126.978 1.709 2.356 1.751 4.118v8.346c0 1.711.17 2.986.53 3.833v.196h-2.084zm6.938 0h1.959v-17.645h-1.959v17.645zm2.973-24.66h2.369l-3.763 4.547-1.712-.008 3.106-4.54zm16.527 15.674c0-2.328-.449-4.127-1.354-5.392-.903-1.266-2.174-1.903-3.814-1.903-1.253 0-2.313.31-3.183.927-.865.612-1.523 1.514-1.972 2.695v7.96c.98 2.22 2.704 3.33 5.185 3.33 1.61 0 2.865-.635 3.776-1.911.912-1.269 1.362-3.174 1.362-5.706zm1.962.341c0 2.755-.612 4.937-1.828 6.547-1.214 1.622-2.859 2.425-4.908 2.425-2.467 0-4.317-.916-5.584-2.741l-.085 2.414h-1.823V93.072h1.943v9.965c1.235-1.922 3.077-2.889 5.515-2.889 2.083 0 3.74.802 4.95 2.393 1.208 1.592 1.82 3.809 1.82 6.648v.29zm9.314 7.242c1.303 0 2.47-.311 3.5-.942 1.028-.632 1.773-1.472 2.246-2.532v-3.874h-3.502c-1.94.016-3.46.367-4.559 1.062-1.102.686-1.647 1.64-1.647 2.845 0 .99.362 1.817 1.099 2.467.726.652 1.677.974 2.863.974zm6.137 1.403c-.21-.552-.327-1.374-.383-2.46a6.892 6.892 0 0 1-2.618 2.066 8.035 8.035 0 0 1-3.367.721c-1.695 0-3.069-.474-4.112-1.417-1.056-.946-1.586-2.145-1.586-3.59 0-1.719.724-3.081 2.145-4.072 1.432-1.005 3.428-1.509 5.98-1.509h3.55v-2.006c0-1.261-.388-2.25-1.173-2.975-.783-.724-1.908-1.081-3.4-1.081-1.363 0-2.487.343-3.378 1.044-.884.693-1.342 1.53-1.342 2.505l-1.954-.013c0-1.407.65-2.618 1.954-3.648 1.307-1.027 2.907-1.54 4.815-1.54 1.97 0 3.521.495 4.66 1.481 1.129.978 1.716 2.356 1.75 4.118v8.346c0 1.711.179 2.986.544 3.833v.196h-2.085z"/></g><path d="M332.488 35.955h-34.663v10.734h24.438c-.801 5.477-2.704 9.742-5.544 12.595-3.617 3.62-9.281 7.605-19.202 7.605-15.314 0-27.287-12.34-27.287-27.643 0-15.31 11.973-27.653 27.287-27.653 8.25 0 14.284 3.252 18.737 7.424l7.329-7.328C317.369 5.745 309.113 1.2 297.517 1.2c-20.966 0-38.596 17.071-38.596 38.045 0 20.964 17.63 38.039 38.596 38.039 11.311 0 19.851-3.707 26.526-10.666 6.871-6.87 9.012-16.518 9.012-24.314 0-2.416-.184-4.495-.567-6.35m-117.163 28.47c15.77 0 25.547-8.75 25.547-25.188 0-16.344-9.777-25.193-25.547-25.193h-11.688v50.381h11.688zm-22.64-61.332h22.252c22.656 0 36.884 15.042 36.884 36.144 0 21.2-14.238 36.143-36.884 36.143h-22.252V3.092zm-9.145 32.863h-34.667v10.734h24.442c-.809 5.477-2.704 9.742-5.549 12.595-3.625 3.62-9.277 7.605-19.207 7.605-15.303 0-27.276-12.34-27.276-27.643 0-15.31 11.973-27.653 27.276-27.653 8.253 0 14.29 3.252 18.745 7.424l7.329-7.328C168.42 5.745 160.165 1.2 148.559 1.2c-20.967 0-38.596 17.071-38.596 38.045 0 20.964 17.63 38.039 38.596 38.039 11.322 0 19.862-3.707 26.537-10.666 6.867-6.87 9.004-16.518 9.004-24.314 0-2.416-.184-4.495-.56-6.35" fill="#787979"/><path fill="#FCC013" d="M21.435 119.604h20.36L55.383 96.1l-.27-.47-9.905-17.127z"/><path fill="#0F9D58" d="M0 119.604h21.435l23.775-41.1-10.72-18.527z"/><path fill="#557DBE" d="M0 .349L55.384 96.1 66.09 77.589l.012-.02L21.435.35z"/><path d="M73.044 65.57a11.16 11.16 0 0 0 0-11.182L41.794.35H21.436l44.667 77.22 6.942-12z" fill="#DA4536"/></g></svg>