<?xml version="1.0" encoding="utf-8"?>
<!-- Generator: Adobe Illustrator 16.0.0, SVG Export Plug-In . SVG Version: 6.00 Build 0)  -->
<!DOCTYPE svg PUBLIC "-//W3C//DTD SVG 1.1//EN" "http://www.w3.org/Graphics/SVG/1.1/DTD/svg11.dtd">
<svg version="1.1" id="Layer_1" xmlns="http://www.w3.org/2000/svg" xmlns:xlink="http://www.w3.org/1999/xlink" x="0px" y="0px"
	 width="200px" height="80px" viewBox="0 0 200 80" enable-background="new 0 0 200 80" xml:space="preserve">
<g>
	<path fill="#6D6E71" d="M184.129,24.073h1.105c0.008,0.014,0.012,0.028,0.018,0.041c0.181,0.394,0.361,0.786,0.527,1.182
		c0.18,0.444,0.34,0.896,0.535,1.335c0.008,0.013,0.014,0.027,0.018,0.041c0.144-0.323,0.365-0.845,0.508-1.168
		c0.134-0.299,0.269-0.605,0.402-0.905c0.051-0.116,0.062-0.139,0.062-0.181c0-0.101-0.104-0.101-0.195-0.101l-0.403,0.018
		l0.403-0.264h1.484l-0.107,0.102c-0.106,0.097-0.161,0.166-0.161,0.356c0,0.065,0.006,0.128,0.016,0.198
		c0.027,0.291,0.051,0.582,0.072,0.873c0.035,0.384,0.069,0.767,0.139,1.145c0.061,0.31,0.127,0.421,0.348,0.587
		c-0.246,0.046-0.41,0.069-0.658,0.069c-0.1,0-0.274,0-0.436-0.12c-0.189-0.148-0.217-0.384-0.25-0.804
		c-0.027-0.287-0.055-0.573-0.08-0.86c-0.018-0.272-0.027-0.545-0.053-0.817l-0.006-0.055l-0.029,0.06
		c-0.16,0.35-0.309,0.711-0.465,1.062c-0.365,0.841-0.391,0.896-0.465,1.122l0.051,0.138c-0.135,0.033-0.662,0.207-0.855,0.282
		c-0.148-0.412-0.67-1.75-1.084-2.664c-0.043,0.388-0.08,0.776-0.115,1.163c-0.014,0.129-0.09,0.993-0.09,1.072
		c0,0.101,0.023,0.128,0.203,0.147l0.406,0.06l-0.234,0.143h-0.859l0.119-0.143c0.023-0.032,0.047-0.06,0.062-0.101
		c0.026-0.074,0.041-0.204,0.062-0.389c0.033-0.282,0.069-0.559,0.104-0.84c0.018-0.176,0.104-1.034,0.127-1.233
		c0.006-0.047,0.01-0.097,0.01-0.143c0-0.12-0.045-0.18-0.184-0.18c-0.064,0-0.361,0.008-0.428,0.008L184.129,24.073L184.129,24.073
		z"/>
	<path fill="#6D6E71" d="M183.927,24.073l-0.201,0.471l-0.207,0.093c0.013-0.046,0.049-0.217,0.049-0.235
		c0-0.106-0.123-0.111-0.252-0.111l-0.646,0.005c-0.055,1.801-0.055,1.957-0.055,2.202c0,0.13,0,0.236,0.01,0.393
		c0.015,0.2,0.078,0.241,0.291,0.254l0.394,0.042l-0.301,0.148h-1.539l0.104-0.148c0.103-0.152,0.115-0.175,0.115-0.278
		c0.004-0.102,0-0.577,0-0.683c0-0.194,0-0.392,0.004-0.586c0.014-0.397,0.037-0.795,0.037-1.187c0-0.065-0.006-0.139-0.006-0.156
		h-0.561c-0.283,0.009-0.287,0.017-0.441,0.249l-0.244,0.093l0.244-0.564h3.203L183.927,24.073L183.927,24.073z"/>
	<path fill="#EF3E35" d="M177.949,50.435c-0.65,0.354-1.3,0.769-1.949,1.063c-1.953,0.887-3.961,1.123-5.734,1.123
		c-1.891,0-4.848-0.119-7.863-2.307c-4.195-2.955-6.027-8.039-6.027-12.473c0-9.162,7.447-13.655,13.537-13.655
		c2.127,0,4.314,0.532,6.088,1.655c2.953,1.95,3.724,4.492,4.136,5.852l-13.89,5.615l-4.553,0.356
		c1.479,7.507,6.561,11.88,12.176,11.88c3.017,0,5.203-1.062,7.215-2.068L177.949,50.435L177.949,50.435z M172.392,32.819
		c1.121-0.415,1.713-0.769,1.713-1.597c0-2.364-2.655-5.084-5.853-5.084c-2.362,0-6.797,1.833-6.797,8.218
		c0,1.005,0.117,2.069,0.176,3.133L172.392,32.819L172.392,32.819z"/>
	<path fill="#2FB457" d="M154.953,51.734h-10.461c1.356-1.773,1.596-1.951,1.596-3.133v-9.636c0-4.61,0.059-11.172,0.234-17.32
		c0.061-3.015,0.297-6.798,0.354-9.518h-4.609L146.5,10h8.451c-1.83,1.065-2.422,1.419-2.658,3.489
		c-0.471,4.551-0.53,11.762-0.53,20.156v13.655c0,2.306,0.412,2.66,2.364,2.839c1.004,0.118,2.011,0.176,3.015,0.295L154.953,51.734
		L154.953,51.734z"/>
	<path fill="#0075BF" d="M135.563,27.084c1.358,1.123,4.197,3.487,4.197,7.98c0,4.374-2.482,6.443-4.964,8.395
		c-0.77,0.769-1.655,1.597-1.655,2.896c0,1.301,0.887,2.01,1.537,2.541l2.127,1.654c2.604,2.188,4.965,4.197,4.965,8.277
		c0,5.555-5.379,11.172-15.547,11.172c-8.569,0-12.707-4.08-12.707-8.455c0-2.127,1.063-5.145,4.556-7.211
		c3.661-2.246,8.629-2.541,11.284-2.719c-0.825-1.064-1.771-2.188-1.771-4.021c0-1.004,0.295-1.596,0.592-2.305
		c-0.652,0.06-1.301,0.119-1.893,0.119c-6.267,0-9.812-4.671-9.812-9.282c0-2.72,1.242-5.734,3.783-7.921
		c3.371-2.779,7.389-3.251,10.58-3.251h12.176l-3.781,2.128h-3.667V27.084z M131.369,53.33c-0.474-0.061-0.771-0.061-1.359-0.061
		c-0.533,0-3.725,0.119-6.209,0.947c-1.299,0.473-5.084,1.891-5.084,6.09c0,4.195,4.08,7.209,10.406,7.209
		c5.676,0,8.688-2.719,8.688-6.383C137.812,58.119,135.86,56.521,131.369,53.33L131.369,53.33z M133.082,42.101
		c1.357-1.36,1.478-3.252,1.478-4.316c0-4.256-2.541-10.877-7.449-10.877c-1.534,0-3.188,0.769-4.137,1.951
		c-1.004,1.241-1.302,2.837-1.302,4.374c0,3.96,2.308,10.521,7.39,10.521C130.539,43.754,132.136,43.045,133.082,42.101
		L133.082,42.101z"/>
	<path fill="#FFDF1C" d="M98.914,52.502c-9.399,0-14.423-7.328-14.423-13.949c0-7.744,6.325-14.365,15.309-14.365
		c8.691,0,14.13,6.798,14.13,13.951C113.929,45.113,108.55,52.502,98.914,52.502L98.914,52.502z M106.304,47.715
		c1.418-1.891,1.772-4.256,1.772-6.562c0-5.201-2.481-15.132-9.812-15.132c-1.95,0-3.901,0.769-5.32,2.01
		c-2.304,2.069-2.719,4.67-2.719,7.212c0,5.852,2.897,15.485,10.048,15.485C102.58,50.729,104.944,49.605,106.304,47.715
		L106.304,47.715z"/>
	<path fill="#EF3E35" d="M67.467,52.502c-9.399,0-14.424-7.328-14.424-13.949c0-7.744,6.325-14.365,15.31-14.365
		c8.689,0,14.127,6.798,14.127,13.951C82.479,45.113,77.102,52.502,67.467,52.502L67.467,52.502z M74.854,47.715
		c1.419-1.891,1.774-4.256,1.774-6.562c0-5.201-2.482-15.132-9.812-15.132c-1.951,0-3.902,0.769-5.321,2.01
		c-2.305,2.069-2.719,4.67-2.719,7.212c0,5.852,2.897,15.485,10.05,15.485C71.13,50.729,73.496,49.605,74.854,47.715L74.854,47.715z
		"/>
	<path fill="#0075BF" d="M49.285,50.439l-7.925,1.828c-3.214,0.498-6.097,0.941-9.144,0.941
		c-15.297,0.002-21.114-11.248-21.114-20.061c0-10.751,8.257-20.726,22.389-20.726c2.993,0,5.875,0.444,8.479,1.164
		c4.156,1.164,6.097,2.605,7.315,3.437l-4.6,4.377l-1.939,0.443l1.385-2.217c-1.884-1.827-5.321-5.208-11.859-5.208
		c-8.758,0-15.352,6.65-15.352,16.349c0,10.418,7.538,20.227,19.618,20.227c3.548,0,5.376-0.721,7.038-1.385v-8.924l-8.368,0.443
		l4.434-2.382h11.75l-1.44,1.385c-0.389,0.332-0.444,0.443-0.555,0.888c-0.055,0.498-0.111,2.105-0.111,2.66L49.285,50.439
		L49.285,50.439z"/>
</g>
</svg>
