<svg xmlns="http://www.w3.org/2000/svg" width="782" height="226" viewBox="0 0 782 226"><path d="M247.473 77.057c0-2.836.974-5.22 2.924-7.167 1.949-1.951 4.341-2.926 7.174-2.926 2.834 0 5.217.975 7.167 2.926 1.949 1.947 2.924 4.331 2.924 7.167 0 2.831-.975 5.225-2.924 7.172-1.95 1.949-4.333 2.924-7.167 2.924-2.833 0-5.225-.975-7.174-2.924-1.95-1.947-2.924-4.341-2.924-7.172m.402 26.298c0-2.566.663-4.824 1.99-6.775 1.327-1.941 3.899-2.916 7.707-2.916 3.8 0 6.372.975 7.699 2.916 1.327 1.951 1.99 4.209 1.99 6.775v53.53c0 2.571-.663 4.827-1.99 6.772-1.327 1.948-3.899 2.924-7.699 2.924-3.808 0-6.38-.976-7.707-2.924-1.327-1.945-1.99-4.201-1.99-6.772v-53.53m31.384-25.105c0-2.211.311-3.98.925-5.305.713-1.417 1.638-2.522 2.793-3.325 1.155-.795 2.392-1.329 3.719-1.591a18.08 18.08 0 0 1 4.381-.533h6.38c3.367 0 5.93.754 7.699 2.253 1.86 1.416 3.366 3.99 4.521 7.706l18.993 61.365h.262l18.731-61.365c1.147-3.716 2.613-6.29 4.382-7.706 1.859-1.499 4.471-2.253 7.838-2.253h6.11c1.416 0 2.833.181 4.25.533a9.871 9.871 0 0 1 3.85 1.591c1.154.802 2.039 1.908 2.653 3.325.713 1.325 1.065 3.094 1.065 5.305v77.708c0 2.744-.754 5.217-2.261 7.437-1.416 2.121-3.89 3.187-7.436 3.187-3.538 0-6.061-1.065-7.568-3.187-1.417-2.22-2.129-4.692-2.129-7.437V96.72h-.262l-20.32 63.481c-.713 2.31-1.859 3.947-3.456 4.922-1.598.967-3.539 1.459-5.84 1.459-2.31 0-4.251-.492-5.848-1.459-1.597-.975-2.743-2.612-3.456-4.922l-20.32-63.481h-.262v59.239c0 2.744-.753 5.217-2.26 7.437-1.417 2.121-3.899 3.187-7.437 3.187-3.546 0-6.069-1.065-7.576-3.187-1.417-2.22-2.121-4.692-2.121-7.437V78.25m154.687 53.936c-1.065.972-2.433 1.676-4.12 2.117-1.679.443-3.096.754-4.251.938l-7.035 1.053c-4.069.622-7.174 1.638-9.296 3.06-2.129 1.412-3.194 3.582-3.194 6.507 0 2.211.935 4.118 2.794 5.708 1.948 1.507 4.603 2.261 7.969 2.261 2.653 0 5.045-.394 7.175-1.196 2.121-.789 3.89-1.858 5.307-3.186 1.507-1.327 2.662-2.834 3.456-4.521.794-1.679 1.196-3.406 1.196-5.176v-7.565m19.393 13.936c0 2.039.091 3.726.263 5.054.27 1.326.491 2.473.663 3.447.271.889.491 1.688.664 2.393.27.621.4 1.326.4 2.129 0 2.216-.884 4.029-2.652 5.451-1.777 1.322-3.81 1.985-6.11 1.985-4.161 0-7.084-1.106-8.772-3.325-1.679-2.302-2.562-4.951-2.652-7.969-3.81 4.25-7.929 7.223-12.352 8.902-4.341 1.597-9.075 2.392-14.21 2.392-2.752 0-5.447-.491-8.107-1.458a23.787 23.787 0 0 1-7.036-3.857 19.358 19.358 0 0 1-4.914-6.106c-1.245-2.485-1.859-5.271-1.859-8.366 0-3.988.705-7.305 2.121-9.967 1.417-2.744 3.367-4.914 5.848-6.503 2.475-1.687 5.357-2.974 8.634-3.856 3.274-.886 6.772-1.549 10.49-1.992l11.818-1.326c1.155-.09 2.22-.271 3.195-.532 1.056-.263 1.94-.663 2.65-1.196a5.724 5.724 0 0 0 1.861-1.986c.443-.885.664-2.041.664-3.459 0-2.832-1.237-4.863-3.718-6.11-2.393-1.237-5.227-1.859-8.502-1.859-3.628 0-6.462.575-8.501 1.73-2.031 1.063-3.761 2.261-5.177 3.585a1166.855 1166.855 0 0 1-3.988 3.719c-1.237 1.066-2.834 1.592-4.783 1.592-2.473 0-4.472-.705-5.971-2.125-1.507-1.507-2.261-3.276-2.261-5.312 0-1.951.663-3.942 1.99-5.981 1.327-2.029 3.276-3.888 5.848-5.577 2.653-1.769 5.89-3.184 9.697-4.249 3.891-1.149 8.321-1.722 13.276-1.722 4.611 0 8.854.393 12.752 1.198 3.898.704 7.216 1.898 9.959 3.579 2.752 1.597 4.874 3.677 6.381 6.247 1.588 2.473 2.391 5.446 2.391 8.894v32.536m7.339-30.809c0-3.983.893-7.346 2.662-10.101 1.769-2.741 4.028-4.955 6.772-6.633 2.834-1.776 5.979-3.013 9.428-3.717a44.989 44.989 0 0 1 10.229-1.197c3.719 0 7.347.352 10.893 1.056 3.538.712 6.684 1.73 9.428 3.055 2.834 1.245 5.094 2.793 6.771 4.652 1.689 1.769 2.525 3.759 2.525 5.981 0 2.299-.704 4.291-2.121 5.977-1.417 1.679-3.408 2.522-5.979 2.522-1.858 0-3.406-.442-4.644-1.333a225.169 225.169 0 0 0-3.718-3.055c-1.245-1.146-2.752-2.164-4.521-3.055-1.769-.966-4.161-1.46-7.175-1.46-3.358 0-6.061.494-8.1 1.46-2.039.973-3.056 2.48-3.056 4.521 0 2.301.976 3.85 2.924 4.644 1.949.806 4.424 1.554 7.438 2.258l8.1 1.864a79.19 79.19 0 0 1 8.368 2.387c2.926.975 5.539 2.26 7.84 3.85a20.474 20.474 0 0 1 5.708 5.979c1.509 2.303 2.262 5.135 2.262 8.502 0 3.988-.886 7.436-2.654 10.36-1.688 2.834-3.947 5.226-6.781 7.175-2.834 1.859-6.061 3.227-9.688 4.119a40.751 40.751 0 0 1-10.763 1.458c-4.431 0-8.591-.491-12.481-1.458-3.898-.893-7.306-2.088-10.229-3.583-2.924-1.601-5.225-3.46-6.903-5.581-1.688-2.13-2.531-4.391-2.531-6.782 0-2.121.62-3.976 1.858-5.577 1.245-1.679 3.235-2.522 5.979-2.522 2.129 0 3.858.627 5.184 1.858a194.43 194.43 0 0 1 4.251 4.12c1.59 1.507 3.407 2.875 5.446 4.12 2.122 1.236 4.996 1.859 8.633 1.859 3.448 0 6.192-.664 8.231-1.999 2.039-1.327 3.055-3.005 3.055-5.046 0-2.473-1.016-4.118-3.055-4.913-1.95-.794-4.645-1.638-8.101-2.519l-11.425-2.793a64.36 64.36 0 0 1-7.969-2.527c-2.392-.969-4.513-2.252-6.372-3.844a18.312 18.312 0 0 1-4.251-5.714c-.977-2.301-1.468-5.094-1.468-8.368m73.063-7.174h-3.316c-2.752 0-4.742-.535-5.979-1.591-1.154-1.065-1.728-2.662-1.728-4.781 0-2.132.573-3.72 1.728-4.785 1.237-1.063 3.228-1.595 5.979-1.595h3.316V83.565c0-3.184.886-5.577 2.654-7.174 1.777-1.679 4.119-2.523 7.043-2.523s5.267.844 7.036 2.523c1.777 1.597 2.661 3.99 2.661 7.174v11.821h5.84c2.834 0 5.004.489 6.511 1.464 1.507.976 2.261 2.612 2.261 4.916 0 2.299-.754 3.939-2.261 4.912-1.507.974-3.677 1.46-6.511 1.46h-5.84v38.785c0 3.007 1.679 4.514 5.045 4.514h2.793c2.122 0 3.76.577 4.914 1.729 1.237 1.154 1.859 2.744 1.859 4.787 0 5.754-4.692 8.629-14.078 8.629-7.085 0-12.18-1.418-15.275-4.252-3.104-2.924-4.652-7.261-4.652-13.014v-41.177m88.077 14.478c-.532-4.512-2.302-8.188-5.315-11.024-3.014-2.922-6.684-4.382-11.024-4.382-4.873 0-8.763 1.37-11.687 4.12-2.924 2.746-4.914 6.505-5.979 11.287h34.005m-34.006 11.153c0 5.139 1.548 9.387 4.652 12.752 3.186 3.275 7.609 4.914 13.276 4.914 3.637 0 6.471-.482 8.502-1.458 2.129-.974 3.856-2.039 5.184-3.187 1.417-1.24 2.744-2.35 3.981-3.324 1.243-1.061 2.833-1.598 4.782-1.598 2.302 0 4.209.844 5.708 2.531 1.507 1.59 2.262 3.276 2.262 5.045 0 2.924-1.065 5.487-3.187 7.699-2.039 2.129-4.603 3.898-7.707 5.314-3.006 1.328-6.282 2.352-9.828 3.056-3.539.712-6.773 1.065-9.697 1.065-6.814 0-12.571-1.017-17.265-3.056-4.692-2.13-8.543-4.868-11.557-8.239-3.005-3.354-5.176-7.125-6.503-11.287-1.335-4.16-1.998-8.369-1.998-12.621 0-5.662.844-10.801 2.522-15.404 1.688-4.601 4.078-8.542 7.175-11.818 3.186-3.367 7.044-5.938 11.556-7.705 4.521-1.86 9.656-2.787 15.406-2.787 5.577 0 10.541.927 14.882 2.787 4.332 1.766 8.01 4.158 11.023 7.172 3.006 2.924 5.267 6.29 6.773 10.09 1.589 3.809 2.391 7.707 2.391 11.697 0 3.357-.622 5.617-1.858 6.776-1.155 1.053-3.366 1.585-6.643 1.585h-43.832m59.413-31.08c0-2.914.844-5.135 2.522-6.642 1.679-1.589 3.759-2.383 6.241-2.383 2.481 0 4.562.794 6.24 2.383 1.687 1.507 2.53 3.728 2.53 6.642v7.445h.263a37.048 37.048 0 0 1 2.121-5.979c.893-1.947 1.949-3.677 3.194-5.182 1.326-1.591 2.833-2.875 4.513-3.85 1.769-.976 3.85-1.459 6.24-1.459 3.104 0 5.627.884 7.576 2.653 2.031 1.771 3.056 4.03 3.056 6.775 0 1.767-.271 3.274-.804 4.511-.532 1.247-1.276 2.26-2.252 3.055a9.016 9.016 0 0 1-3.055 1.599 11.779 11.779 0 0 1-3.456.532H678.7c-3.891 0-6.905 1.596-9.026 4.782-2.039 3.095-3.055 8.677-3.055 16.731v22.58c0 2.572-.663 4.828-1.998 6.772-1.327 1.951-3.89 2.925-7.699 2.925-3.808 0-6.38-.974-7.707-2.925-1.326-1.944-1.989-4.2-1.989-6.772V102.69m43.456 12.623c0-3.983.885-7.346 2.662-10.101 1.77-2.741 4.029-4.955 6.773-6.633 2.834-1.776 5.979-3.013 9.427-3.717a45.002 45.002 0 0 1 10.229-1.197c3.719 0 7.347.352 10.893 1.056 3.539.712 6.684 1.73 9.427 3.055 2.834 1.245 5.095 2.793 6.773 4.652 1.687 1.769 2.522 3.759 2.522 5.981 0 2.299-.703 4.291-2.121 5.977-1.416 1.679-3.407 2.522-5.979 2.522-1.859 0-3.407-.442-4.652-1.333a171.198 171.198 0 0 0-3.718-3.055c-1.237-1.146-2.744-2.164-4.513-3.055-1.77-.966-4.161-1.46-7.175-1.46-3.366 0-6.062.494-8.101 1.46-2.039.973-3.055 2.48-3.055 4.521 0 2.301.975 3.85 2.924 4.644 1.949.806 4.423 1.554 7.438 2.258l8.1 1.864a79.358 79.358 0 0 1 8.37 2.387c2.924.975 5.537 2.26 7.838 3.85a20.49 20.49 0 0 1 5.709 5.979c1.507 2.303 2.26 5.135 2.26 8.502 0 3.988-.885 7.436-2.662 10.36-1.679 2.834-3.938 5.226-6.772 7.175-2.834 1.859-6.062 3.227-9.697 4.119a40.64 40.64 0 0 1-10.754 1.458c-4.431 0-8.591-.491-12.49-1.458-3.89-.893-7.297-2.088-10.221-3.583-2.924-1.601-5.225-3.46-6.912-5.581-1.679-2.13-2.523-4.391-2.523-6.782 0-2.121.622-3.976 1.859-5.577 1.245-1.679 3.235-2.522 5.979-2.522 2.129 0 3.849.627 5.184 1.858a194.43 194.43 0 0 1 4.251 4.12c1.589 1.507 3.407 2.875 5.438 4.12 2.13 1.236 5.004 1.859 8.641 1.859 3.446 0 6.192-.664 8.23-1.999 2.039-1.327 3.056-3.005 3.056-5.046 0-2.473-1.017-4.118-3.056-4.913-1.948-.794-4.651-1.638-8.1-2.519l-11.425-2.793a64.36 64.36 0 0 1-7.969-2.527c-2.393-.969-4.514-2.252-6.372-3.844a18.068 18.068 0 0 1-4.251-5.714c-.974-2.301-1.465-5.094-1.465-8.368"/><path fill="#FFF" d="M113.509 18.466L26.088 60.325s-.527.289-1.115.663c-.501.319-1.046.711-1.344.907-1.918 1.262-1.871 3.154-1.871 3.154l.059 97.824 1.734 2.926 89.252 45.686s2.278.855 3.845.855c1.726 0 3.684-1.242 3.684-1.242l88.743-45.191 2.156-4.012-.011-18.768.029-20.238-.046-9.966-.068-47.375s.032-1.062-.63-2.055c-.761-1.142-5.822-3.513-5.822-3.513l-86.06-41.529-5.114.015z"/><path fill="#0083CA" d="M183.106 141.634c0 1.128.841 1.616 1.879 1.09l24.432-12.384c1.038-.526 1.839-1.867 1.839-2.995l-.04-26.558c0-1.128-.761-1.616-1.799-1.09l-24.432 12.384c-1.038.526-1.879 1.867-1.879 2.996v26.557z"/><path fill="#E67E23" d="M150.905 158.25c0 1.129.841 1.617 1.879 1.091l24.432-12.384c1.038-.526 1.88-1.867 1.88-2.995v-26.558c0-1.129-.842-1.617-1.88-1.091l-24.432 12.384c-1.038.526-1.879 1.867-1.879 2.996v26.557z"/><path fill="#006CB7" d="M118.452 174.479c0 1.128.841 1.617 1.879 1.09l24.432-12.384c1.038-.526 1.879-1.867 1.879-2.995v-26.557c0-1.129-.841-1.617-1.879-1.092l-24.432 12.385c-1.038.525-1.879 1.867-1.879 2.996v26.557z"/><path fill="#0083CA" d="M182.913 106.366c0 1.128.812 1.616 1.85 1.09l24.446-12.384c1.038-.526 1.975-1.867 1.975-2.995l.001-13.092-.037-5.377-.004-8.089c0-1.128-.911-1.616-1.949-1.09l-24.417 12.384c-1.038.526-1.865 1.867-1.865 2.996v26.557z"/><path fill="#E67E23" d="M150.964 122.709c0 1.129.812 1.617 1.85 1.091l24.446-12.384c1.038-.526 1.894-1.867 1.894-2.995V81.862c0-1.128-.87-1.616-1.908-1.09l-24.417 12.384c-1.038.526-1.865 1.867-1.865 2.996v26.557z"/><path fill="#006CB7" d="M118.511 138.916c0 1.127.812 1.616 1.85 1.09l24.446-12.385c1.038-.525 1.894-1.867 1.894-2.994V98.069c0-1.129-.87-1.617-1.908-1.091l-24.417 12.384c-1.038.526-1.865 1.867-1.865 2.996v26.558z"/><path fill="#B13432" d="M173.9 75.965c1.028.503 1.055 1.318.06 1.819l-23.603 11.894c-1.01.509-2.665.508-3.695-.003l-24.1-11.954c-1.017-.505-1.021-1.321-.008-1.822l23.652-11.716c.997-.494 2.628-.491 3.643.006L173.9 75.965z"/><path fill="#00A0DC" d="M204.981 60.106c1.025.495 1.066 1.294.09 1.785l-23.143 11.597c-.99.499-2.627.497-3.654-.005l-24.04-11.746c-1.016-.496-1.033-1.297-.041-1.788l23.193-11.488c.978-.484 2.591-.481 3.604.008l23.991 11.637zm-62.827 31.867c1.03.512 1.044 1.342.029 1.854l-24.079 12.135c-1.031.519-2.705.519-3.737-.001L90.209 93.792c-1.02-.513-1.009-1.345.024-1.857l24.126-11.952c1.017-.504 2.666-.502 3.684.005l24.111 11.985zm-.492-31.881c1.012.495 1.025 1.297.028 1.79l-23.66 11.687c-1.013.501-2.657.499-3.672-.005L90.622 61.791c-1.002-.497-.991-1.3.023-1.793l23.706-11.514c1-.486 2.62-.482 3.621.008l23.69 11.6z"/><path fill="#2B93D1" d="M172.845 44.557c1.01.487 1.036 1.274.058 1.757l-23.201 11.459c-.993.491-2.619.488-3.631-.007l-23.68-11.57c-1-.488-1.004-1.276-.009-1.76l23.248-11.29c.981-.477 2.584-.472 3.582.01l23.633 11.401z"/><path fill="#00A0DC" d="M109.858 75.935c1.015.505 1.013 1.321-.004 1.823L85.721 89.681c-1.034.511-2.696.51-3.713-.003L58.22 77.696c-1.005-.506-.98-1.324.055-1.827l24.177-11.744c1.02-.495 2.658-.493 3.661.006l23.745 11.804z"/><path fill="#2B93D1" d="M109.77 44.569c.997.488.996 1.277-.004 1.761L86.052 57.816c-1.016.492-2.649.489-3.648-.007L59.025 46.212c-.988-.49-.963-1.279.054-1.764l23.756-11.317c1.002-.477 2.612-.472 3.598.01l23.337 11.428zM141.031 29.3c.995.48 1.007 1.254.027 1.729l-23.257 11.264c-.996.482-2.612.478-3.609-.009L90.864 30.885c-.985-.481-.975-1.256.023-1.731l23.301-11.099c.982-.468 2.575-.463 3.559.011L141.031 29.3z"/><path fill="#00A0DC" d="M77.891 60.14c.999.497.984 1.3-.036 1.794L53.67 73.65c-1.036.501-2.687.499-3.689-.005L26.554 61.843c-.989-.498-.95-1.303.087-1.797l24.225-11.541c1.022-.487 2.649-.483 3.637.008L77.891 60.14z"/><path fill="#E67E23" d="M150.738 193.55c0 1.128.841 1.616 1.879 1.09l24.432-12.384c1.038-.526 1.879-1.867 1.879-2.995v-26.558c0-1.129-.841-1.616-1.879-1.09l-24.432 12.383c-1.038.526-1.879 1.867-1.879 2.996v26.558z"/><path fill="#1268B3" d="M50.007 141.634c0 1.128-.841 1.616-1.879 1.09L23.696 130.34c-1.038-.526-1.879-1.867-1.879-2.995v-26.558c0-1.128.841-1.616 1.879-1.09l24.432 12.384c1.038.526 1.879 1.867 1.879 2.996v26.557z"/><path fill="#0E5595" d="M82.125 158.159c0 1.128-.841 1.616-1.879 1.09l-24.432-12.384c-1.038-.525-1.879-1.867-1.879-2.995v-26.558c0-1.129.841-1.616 1.879-1.09l24.432 12.384c1.038.526 1.879 1.866 1.879 2.996v26.557z"/><path fill="#06447C" d="M114.473 174.594c0 1.128-.841 1.617-1.879 1.09L88.162 163.3c-1.038-.526-1.879-1.867-1.879-2.995v-26.557c0-1.129.841-1.617 1.879-1.092l24.432 12.385c1.038.525 1.879 1.867 1.879 2.996v26.557z"/><path fill="#1268B3" d="M49.949 106.092c0 1.128-.812 1.617-1.85 1.09L23.652 94.798c-1.038-.526-1.894-1.867-1.894-2.995V65.245c0-1.128.87-1.616 1.908-1.09L48.083 76.54c1.038.526 1.865 1.867 1.865 2.996v26.556z"/><path fill="#0E5595" d="M82.066 122.618c0 1.128-.812 1.616-1.85 1.091L55.77 111.324c-1.038-.526-1.894-1.867-1.894-2.995V81.771c0-1.128.87-1.616 1.908-1.09l24.417 12.384c1.038.526 1.865 1.867 1.865 2.995v26.558z"/><path fill="#06447C" d="M114.414 139.053c0 1.128-.812 1.617-1.85 1.09l-24.446-12.384c-1.038-.526-1.894-1.867-1.894-2.995V98.207c0-1.129.87-1.617 1.908-1.091l24.417 12.384c1.038.526 1.865 1.867 1.865 2.996v26.557z"/><path fill="#0E5595" d="M82.082 193.699c0 1.129-.841 1.616-1.879 1.09l-24.432-12.537c-1.038-.525-1.879-1.866-1.879-2.996v-26.469c0-1.129.841-1.617 1.879-1.091l24.432 12.384c1.038.527 1.879 1.868 1.879 2.996v26.623z"/><path fill="#06447C" d="M114.473 210.297c0 1.129-.841 1.617-1.879 1.091l-24.432-12.515c-1.038-.526-1.879-1.867-1.879-2.996v-26.558c0-1.128.841-1.616 1.879-1.09l24.432 12.384c1.038.526 1.879 1.867 1.879 2.995v26.689z"/><path fill="#1268B3" d="M50.007 177.271c0 1.128-.841 1.617-1.879 1.09l-24.432-12.492c-1.038-.526-1.879-1.89-1.879-3.019v-26.558c0-1.127.841-1.615 1.879-1.09l24.432 12.385c1.038.525 1.879 1.867 1.879 2.994v26.69z"/><path fill="#006CB7" d="M118.452 209.984c0 1.129.841 1.617 1.879 1.091l24.432-12.384c1.038-.526 1.879-1.867 1.879-2.995v-26.558c0-1.129-.841-1.617-1.879-1.091l-24.432 12.384c-1.038.526-1.879 1.867-1.879 2.996v26.557z"/><path fill="#0083CA" d="M183.106 177.031c0 1.127.841 1.615 1.879 1.09l24.432-12.385c1.038-.525 1.839-1.867 1.839-2.994l-.04-26.559c0-1.128-.761-1.616-1.799-1.09l-24.432 12.384c-1.038.526-1.879 1.867-1.879 2.996v26.558z"/></svg>