<?xml version="1.0" encoding="utf-8"?>
<!-- Generator: Adobe Illustrator 16.0.0, SVG Export Plug-In . SVG Version: 6.00 Build 0)  -->
<!DOCTYPE svg PUBLIC "-//W3C//DTD SVG 1.1//EN" "http://www.w3.org/Graphics/SVG/1.1/DTD/svg11.dtd">
<svg version="1.1" id="Layer_1" xmlns="http://www.w3.org/2000/svg" xmlns:xlink="http://www.w3.org/1999/xlink" x="0px" y="0px"
	 width="200px" height="80px" viewBox="0 0 200 80" enable-background="new 0 0 200 80" xml:space="preserve">
<g>
	<g>
		<g>
			<defs>
				<rect id="SVGID_1_" x="9.5" y="15.035" width="181" height="49.93"/>
			</defs>
			<clipPath id="SVGID_2_">
				<use xlink:href="#SVGID_1_"  overflow="visible"/>
			</clipPath>
			<path clip-path="url(#SVGID_2_)" d="M13.074,39.732c0.158,1.313,0.158,2.628,0.158,3.94h0.107
				c1.522-2.681,4.991-4.573,8.249-4.573c6.254,0,9.25,3.522,9.25,9.618v15.61h-3.467V50.715c0-5.465-1.524-8.461-6.676-8.461
				c-0.735,0-7.462,0.473-7.462,9.459v12.614H9.764V45.144c0-1.313-0.156-3.625-0.263-5.413h3.574L13.074,39.732L13.074,39.732z"/>
		</g>
	</g>
	<g>
		<g>
			<defs>
				<rect id="SVGID_3_" x="9.5" y="15.035" width="181" height="49.93"/>
			</defs>
			<clipPath id="SVGID_4_">
				<use xlink:href="#SVGID_3_"  overflow="visible"/>
			</clipPath>
			<path clip-path="url(#SVGID_4_)" d="M50.809,64.963c-7.62,0-13.034-5.521-13.034-12.933s5.414-12.929,13.034-12.929
				c7.673,0,13.086,5.519,13.086,12.929S58.482,64.963,50.809,64.963 M50.809,42.258c-5.676,0-9.249,4.256-9.249,9.772
				s3.573,9.773,9.249,9.773c5.728,0,9.302-4.258,9.302-9.773C60.111,46.514,56.537,42.258,50.809,42.258"/>
		</g>
	</g>
	<g>
		<g>
			<defs>
				<rect id="SVGID_5_" x="9.5" y="15.035" width="181" height="49.93"/>
			</defs>
			<clipPath id="SVGID_6_">
				<use xlink:href="#SVGID_5_"  overflow="visible"/>
			</clipPath>
			<polygon clip-path="url(#SVGID_6_)" points="81.082,64.332 77.191,64.332 67.207,39.732 71.359,39.732 79.188,60.44 
				79.295,60.44 87.125,39.732 91.066,39.732 			"/>
		</g>
	</g>
	<g>
		<g>
			<defs>
				<rect id="SVGID_7_" x="9.5" y="15.035" width="181" height="49.93"/>
			</defs>
			<clipPath id="SVGID_8_">
				<use xlink:href="#SVGID_7_"  overflow="visible"/>
			</clipPath>
			<path clip-path="url(#SVGID_8_)" d="M111.408,49.248v-0.632c0-4.256-2.055-6.358-6.309-6.358c-2.893,0-5.415,0.996-7.518,2.889
				l-2.103-2.471c2.261-2.312,5.787-3.573,10.409-3.573c4.832,0,8.984,2.731,8.984,8.72v10.986c0,1.895,0.212,4.205,0.425,5.521
				h-3.366c-0.209-1.212-0.317-2.683-0.317-3.996h-0.103c-2,3.258-4.731,4.627-8.672,4.627c-4.364,0-8.463-2.418-8.463-7.201
				c0-7.99,9.407-8.515,15.293-8.515h1.737v0.003H111.408z M109.621,52.086c-3.526,0-11.461,0.262-11.461,5.2
				c0,3.261,2.997,4.521,5.786,4.521c5.045,0,7.463-3.574,7.463-7.937v-1.784H109.621z"/>
		</g>
	</g>
	<g>
		<g>
			<defs>
				<rect id="SVGID_9_" x="9.5" y="15.035" width="181" height="49.93"/>
			</defs>
			<clipPath id="SVGID_10_">
				<use xlink:href="#SVGID_9_"  overflow="visible"/>
			</clipPath>
			<path clip-path="url(#SVGID_10_)" d="M135.684,42.887h-7.096v14.504c0,3.682,1.417,4.416,3.572,4.416
				c1.209,0,2.522-0.365,3.574-0.947l0.157,3.207c-1.258,0.58-2.942,0.896-4.678,0.896c-2.627,0-6.097-1.158-6.097-6.57V42.887h-5.2
				v-3.153h5.202v-6.938h3.47v6.938h7.097v3.154H135.684z"/>
		</g>
	</g>
	<g>
		<g>
			<defs>
				<rect id="SVGID_11_" x="9.5" y="15.035" width="181" height="49.93"/>
			</defs>
			<clipPath id="SVGID_12_">
				<use xlink:href="#SVGID_11_"  overflow="visible"/>
			</clipPath>
			<path clip-path="url(#SVGID_12_)" d="M142.883,52.978c0.421,4.939,4.152,8.828,9.041,8.828c3.679,0,6.517-2.049,7.882-4.258
				l2.682,2.209c-2.89,3.68-6.517,5.205-10.562,5.205c-7.306,0-12.722-5.521-12.722-12.933c0-7.412,5.416-12.929,12.404-12.929
				c7.462,0.053,11.772,5.571,11.772,12.298v1.578L142.883,52.978L142.883,52.978z M159.596,50.141c0-4.678-2.993-7.885-7.988-7.885
				c-4.521,0-8.619,3.838-8.619,7.885H159.596z"/>
		</g>
	</g>
	<g>
		<g>
			<defs>
				<rect id="SVGID_13_" x="9.5" y="15.035" width="181" height="49.93"/>
			</defs>
			<clipPath id="SVGID_14_">
				<use xlink:href="#SVGID_13_"  overflow="visible"/>
			</clipPath>
			<path clip-path="url(#SVGID_14_)" d="M187.659,45.514c-1.154-1.785-3.416-3.258-6.146-3.258
				c-5.731-0.104-9.251,4.153-9.251,9.774s3.52,9.879,9.251,9.773c2.729,0,4.99-1.471,6.146-3.258l2.84,2.153
				c-2.415,2.838-5.678,4.205-8.984,4.261c-8.043,0.102-13.035-5.521-13.035-12.933c0-7.412,4.992-13.033,13.035-12.929
				c3.309,0.053,6.569,1.417,8.984,4.257L187.659,45.514z"/>
		</g>
	</g>
	<g>
		<g>
			<defs>
				<rect id="SVGID_15_" x="9.5" y="15.035" width="181" height="49.93"/>
			</defs>
			<clipPath id="SVGID_16_">
				<use xlink:href="#SVGID_15_"  overflow="visible"/>
			</clipPath>
			<path clip-path="url(#SVGID_16_)" d="M131.191,25.547c0.153,1.829,1.539,3.27,3.351,3.27c1.36,0,2.411-0.758,2.919-1.576
				l0.992,0.818c-1.07,1.363-2.414,1.927-3.911,1.927c-2.709,0-4.714-2.045-4.714-4.79c0-2.743,2.005-4.788,4.592-4.788
				c2.766,0.021,4.363,2.064,4.363,4.557v0.583H131.191z M137.382,24.497c0-1.734-1.108-2.921-2.962-2.921
				c-1.67,0-3.188,1.421-3.188,2.921H137.382z"/>
		</g>
	</g>
	<g>
		<g>
			<defs>
				<rect id="SVGID_17_" x="9.5" y="15.035" width="181" height="49.93"/>
			</defs>
			<clipPath id="SVGID_18_">
				<use xlink:href="#SVGID_17_"  overflow="visible"/>
			</clipPath>
			<path clip-path="url(#SVGID_18_)" d="M150.211,29.752h-1.284v-1.52h-0.041c-0.837,1.227-2.335,1.752-3.539,1.752
				c-2.847,0-4.848-2.045-4.848-4.79c0-2.743,2.001-4.788,4.848-4.788c1.204,0,2.705,0.526,3.539,1.752h0.041v-7.125h1.284V29.752z
				 M145.344,28.816c2.102,0,3.637-1.576,3.637-3.621c0-2.043-1.535-3.619-3.637-3.619c-2.125,0-3.445,1.576-3.445,3.619
				C141.898,27.24,143.219,28.816,145.344,28.816"/>
		</g>
	</g>
	<g>
		<g>
			<defs>
				<rect id="SVGID_19_" x="9.5" y="15.035" width="181" height="49.93"/>
			</defs>
			<clipPath id="SVGID_20_">
				<use xlink:href="#SVGID_19_"  overflow="visible"/>
			</clipPath>
			<path clip-path="url(#SVGID_20_)" d="M153.945,18.072c-0.467,0-0.934-0.39-0.934-0.935c0-0.546,0.467-0.935,0.934-0.935
				c0.469,0,0.937,0.389,0.937,0.935C154.882,17.683,154.414,18.072,153.945,18.072 M154.588,29.752h-1.283v-9.11h1.283V29.752z"/>
		</g>
	</g>
	<g>
		<g>
			<defs>
				<rect id="SVGID_21_" x="9.5" y="15.035" width="181" height="49.93"/>
			</defs>
			<clipPath id="SVGID_22_">
				<use xlink:href="#SVGID_21_"  overflow="visible"/>
			</clipPath>
			<path clip-path="url(#SVGID_22_)" d="M162.392,21.81h-2.628v5.372c0,1.363,0.526,1.634,1.325,1.634
				c0.447,0,0.936-0.137,1.326-0.35l0.054,1.186c-0.464,0.215-1.089,0.333-1.731,0.333c-0.974,0-2.258-0.43-2.258-2.433V21.81
				h-1.926v-1.169h1.926v-2.568h1.284v2.568h2.628V21.81z"/>
		</g>
	</g>
	<g>
		<g>
			<defs>
				<rect id="SVGID_23_" x="9.5" y="15.035" width="181" height="49.93"/>
			</defs>
			<clipPath id="SVGID_24_">
				<use xlink:href="#SVGID_23_"  overflow="visible"/>
			</clipPath>
			<path clip-path="url(#SVGID_24_)" d="M168.504,29.985c-2.817,0-4.825-2.045-4.825-4.79c0-2.743,2.005-4.788,4.825-4.788
				c2.847,0,4.846,2.045,4.846,4.788C173.35,27.94,171.349,29.985,168.504,29.985 M168.504,21.576c-2.101,0-3.427,1.576-3.427,3.619
				c0,2.045,1.326,3.621,3.427,3.621c2.124,0,3.446-1.576,3.446-3.621C171.95,23.151,170.627,21.576,168.504,21.576"/>
		</g>
	</g>
	<g>
		<g>
			<defs>
				<rect id="SVGID_25_" x="9.5" y="15.035" width="181" height="49.93"/>
			</defs>
			<clipPath id="SVGID_26_">
				<use xlink:href="#SVGID_25_"  overflow="visible"/>
			</clipPath>
			<path clip-path="url(#SVGID_26_)" d="M175.823,23.482c0-0.816-0.043-1.518-0.075-2.842h1.262v1.693h0.039
				c0.368-0.975,1.323-1.928,2.921-1.928c0.366,0,0.678,0.04,0.951,0.117l-0.255,1.264c-0.154-0.057-0.386-0.097-0.738-0.097
				c-1.946,0-2.823,1.693-2.823,2.92v5.141h-1.281V23.482L175.823,23.482z"/>
		</g>
	</g>
	<g>
		<g>
			<defs>
				<rect id="SVGID_27_" x="9.5" y="15.035" width="181" height="49.93"/>
			</defs>
			<clipPath id="SVGID_28_">
				<use xlink:href="#SVGID_27_"  overflow="visible"/>
			</clipPath>
			<path clip-path="url(#SVGID_28_)" d="M187.989,24.165v-0.234c0-1.578-0.762-2.355-2.336-2.355c-1.071,0-2.006,0.369-2.783,1.07
				l-0.778-0.915c0.837-0.857,2.142-1.325,3.854-1.325c1.793,0,3.328,1.014,3.328,3.231v4.068c0,0.7,0.078,1.558,0.156,2.045h-1.249
				c-0.077-0.448-0.114-0.994-0.114-1.48h-0.041c-0.74,1.207-1.75,1.714-3.209,1.714c-1.617,0-3.136-0.896-3.136-2.667
				c0-2.959,3.486-3.152,5.665-3.152L187.989,24.165L187.989,24.165z M187.325,25.216c-1.305,0-4.244,0.097-4.244,1.926
				c0,1.208,1.111,1.675,2.145,1.675c1.868,0,2.764-1.323,2.764-2.938v-0.662H187.325z"/>
		</g>
	</g>
</g>
</svg>
