<svg width="430" height="119" viewBox="0 0 430 119" xmlns="http://www.w3.org/2000/svg" xmlns:xlink="http://www.w3.org/1999/xlink"><title>novatec</title><defs><path id="a" d="M0 0h429.171v118.385H0z"/><path id="c" d="M0 0h429.171v118.385H0z"/><path id="e" d="M0 0h429.171v118.385H0z"/><path id="g" d="M0 0h429.171v118.385H0z"/><path id="i" d="M0 0h429.171v118.385H0z"/><path id="k" d="M0 0h429.171v118.385H0z"/><path id="m" d="M0 0h429.171v118.385H0z"/><path id="o" d="M0 0h429.171v118.385H0z"/><path id="q" d="M0 0h429.171v118.385H0z"/><path id="s" d="M0 0h429.171v118.385H0z"/><path id="u" d="M0 0h429.171v118.385H0z"/><path id="w" d="M0 0h429.171v118.385H0z"/><path id="y" d="M0 0h429.171v118.385H0z"/><path id="A" d="M0 0h429.171v118.385H0z"/></defs><g fill="none" fill-rule="evenodd"><mask id="b" fill="#fff"><use xlink:href="#a"/></mask><path d="M8.474 58.56c.374 3.115.374 6.23.374 9.346h.249C12.71 61.551 20.935 57.06 28.662 57.06c14.829 0 21.932 8.354 21.932 22.805v37.015h-8.225V84.6c0-12.96-3.614-20.063-15.826-20.063-1.745 0-17.695 1.121-17.695 22.43v29.908H.623V71.391c0-3.116-.374-8.599-.623-12.836h8.474v.005z" fill="#000" fill-rule="nonzero" mask="url(#b)"/><mask id="d" fill="#fff"><use xlink:href="#c"/></mask><path d="M97.948 118.38c-18.07 0-30.905-13.09-30.905-30.66s12.835-30.655 30.905-30.655c18.194 0 31.029 13.084 31.029 30.655 0 17.57-12.835 30.66-31.03 30.66m0-53.834c-13.458 0-21.932 10.094-21.932 23.174s8.474 23.174 21.933 23.174c13.583 0 22.057-10.094 22.057-23.174s-8.474-23.174-22.057-23.174" fill="#000" fill-rule="nonzero" mask="url(#d)"/><mask id="f" fill="#fff"><use xlink:href="#e"/></mask><path fill="#000" fill-rule="nonzero" mask="url(#f)" d="M169.726 116.885h-9.221L136.828 58.56h9.844l18.568 49.103h.25l18.567-49.103h9.346z"/><mask id="h" fill="#fff"><use xlink:href="#g"/></mask><path d="M241.634 81.12v-1.495c0-10.094-4.865-15.079-14.954-15.079-6.858 0-12.84 2.363-17.825 6.85l-4.984-5.858c5.358-5.483 13.717-8.473 24.678-8.473 11.46 0 21.305 6.475 21.305 20.677v26.049c0 4.49.503 9.969 1.006 13.089h-7.98c-.498-2.866-.752-6.355-.752-9.475h-.245c-4.74 7.726-11.22 10.97-20.561 10.97-10.348 0-20.068-5.732-20.068-17.072 0-18.941 22.306-20.188 36.263-20.188h4.117v.005zm-4.237 6.73c-8.359 0-27.17.622-27.17 12.332 0 7.73 7.102 10.716 13.711 10.716 11.964 0 17.696-8.473 17.696-18.812V87.85h-4.237z" fill="#000" fill-rule="nonzero" mask="url(#h)"/><mask id="j" fill="#fff"><use xlink:href="#i"/></mask><path d="M299.197 66.037h-16.828v34.394c0 8.727 3.365 10.467 8.474 10.467 2.866 0 5.982-.867 8.474-2.243l.374 7.602c-2.982 1.375-6.974 2.123-11.091 2.123-6.23 0-14.455-2.746-14.455-15.577V66.037h-12.337V58.56h12.337V42.11h8.224v16.45h16.828v7.477z" fill="#000" fill-rule="nonzero" mask="url(#j)"/><mask id="l" fill="#fff"><use xlink:href="#k"/></mask><path d="M316.265 89.968c.997 11.709 9.849 20.93 21.438 20.93 8.719 0 15.448-4.86 18.688-10.093l6.355 5.233c-6.85 8.728-15.448 12.342-25.043 12.342-17.321 0-30.161-13.09-30.161-30.66 0-17.575 12.84-30.655 29.413-30.655 17.691.124 27.91 13.209 27.91 29.16v3.743h-48.6zm39.627-6.73c0-11.09-7.098-18.696-18.941-18.696-10.717 0-20.437 9.101-20.437 18.696h39.378z" fill="#000" fill-rule="nonzero" mask="url(#l)"/><mask id="n" fill="#fff"><use xlink:href="#m"/></mask><path d="M422.437 72.268c-2.742-4.237-8.1-7.726-14.57-7.726-13.589-.25-21.938 9.849-21.938 23.178 0 13.33 8.35 23.428 21.937 23.174 6.47 0 11.83-3.49 14.57-7.726l6.73 5.109c-5.723 6.73-13.458 9.97-21.3 10.098-19.07.245-30.91-13.089-30.91-30.66 0-17.575 11.84-30.904 30.91-30.655 7.842.125 15.577 3.365 21.3 10.094l-6.73 5.114z" fill="#000" fill-rule="nonzero" mask="url(#n)"/><mask id="p" fill="#fff"><use xlink:href="#o"/></mask><path d="M288.545 24.923c.364 4.339 3.646 7.754 7.943 7.754 3.226 0 5.718-1.8 6.923-3.739l2.354 1.939c-2.539 3.23-5.723 4.57-9.277 4.57-6.425 0-11.174-4.847-11.174-11.355 0-6.507 4.75-11.354 10.888-11.354 6.553.047 10.343 4.893 10.343 10.8v1.385h-18zm14.677-2.492c0-4.108-2.627-6.923-7.02-6.923-3.965 0-7.56 3.369-7.56 6.923h14.58z" fill="#000" fill-rule="nonzero" mask="url(#p)"/><mask id="r" fill="#fff"><use xlink:href="#q"/></mask><path d="M333.642 34.892h-3.047v-3.6h-.097c-1.984 2.908-5.538 4.154-8.39 4.154-6.748 0-11.493-4.846-11.493-11.354 0-6.507 4.745-11.354 11.493-11.354 2.852 0 6.41 1.247 8.39 4.154h.097V0h3.047v34.892zm-11.539-2.215c4.98 0 8.622-3.739 8.622-8.585 0-4.846-3.642-8.584-8.622-8.584-5.04 0-8.174 3.738-8.174 8.584s3.134 8.585 8.174 8.585z" fill="#000" fill-rule="nonzero" mask="url(#r)"/><mask id="t" fill="#fff"><use xlink:href="#s"/></mask><path d="M342.498 7.2c-1.107 0-2.215-.923-2.215-2.215 0-1.293 1.108-2.216 2.215-2.216 1.108 0 2.216.923 2.216 2.216 0 1.292-1.108 2.215-2.216 2.215zm1.524 27.692h-3.042v-21.6h3.042v21.6z" fill="#000" fill-rule="nonzero" mask="url(#t)"/><mask id="v" fill="#fff"><use xlink:href="#u"/></mask><path d="M362.53 16.062h-6.236V28.8c0 3.23 1.25 3.877 3.143 3.877 1.061 0 2.215-.323 3.143-.83l.13 2.815c-1.104.507-2.585.784-4.108.784-2.308 0-5.354-1.015-5.354-5.77V16.063h-4.565v-2.77h4.565V7.2h3.046v6.092h6.235v2.77z" fill="#000" fill-rule="nonzero" mask="url(#v)"/><mask id="x" fill="#fff"><use xlink:href="#w"/></mask><path d="M377.017 35.446c-6.683 0-11.442-4.846-11.442-11.354 0-6.507 4.754-11.354 11.442-11.354 6.748 0 11.492 4.847 11.492 11.354 0 6.508-4.749 11.354-11.492 11.354m0-19.938c-4.98 0-8.123 3.738-8.123 8.584s3.143 8.585 8.123 8.585c5.035 0 8.174-3.739 8.174-8.585 0-4.846-3.143-8.584-8.174-8.584" fill="#000" fill-rule="nonzero" mask="url(#x)"/><mask id="z" fill="#fff"><use xlink:href="#y"/></mask><path d="M394.37 20.03c0-1.938-.096-3.6-.18-6.738h2.992v4.016h.096c.868-2.308 3.139-4.57 6.924-4.57.867 0 1.61.093 2.256.277l-.604 3c-.37-.138-.914-.23-1.754-.23-4.615 0-6.692 4.015-6.692 6.923v12.184h-3.042V20.031h.005z" fill="#000" fill-rule="nonzero" mask="url(#z)"/><mask id="B" fill="#fff"><use xlink:href="#A"/></mask><path d="M423.217 21.646v-.554c0-3.738-1.805-5.584-5.534-5.584-2.543 0-4.758.877-6.605 2.538l-1.841-2.17c1.98-2.03 5.072-3.138 9.134-3.138 4.25 0 7.892 2.4 7.892 7.662v9.646c0 1.662.185 3.692.37 4.846h-2.96c-.18-1.061-.271-2.354-.271-3.507h-.097c-1.754 2.861-4.15 4.061-7.611 4.061-3.83 0-7.43-2.123-7.43-6.323 0-7.015 8.265-7.477 13.43-7.477h1.523zm-1.574 2.492c-3.092 0-10.061.231-10.061 4.57 0 2.861 2.635 3.969 5.081 3.969 4.43 0 6.554-3.139 6.554-6.97v-1.569h-1.574z" fill="#000" fill-rule="nonzero" mask="url(#B)"/></g></svg>