<svg width="378" height="86" viewBox="0 0 378 86" xmlns="http://www.w3.org/2000/svg"><title>sketch</title><g fill="none"><path d="M128.189 56.862l-.073-.972H120l.045 1.093c.499 12.177 8.709 20.243 23.309 20.243 13.925 0 23.394-7.235 23.394-18.186 0-5.922-2.054-10.112-5.97-12.974-3.01-2.201-6.611-3.442-12.582-4.737-.399-.086-.814-.175-1.313-.28l-1.3-.272c-10.844-2.273-14.283-4.248-14.283-10.129 0-6.081 4.973-9.954 13.314-9.954 8.115 0 13.244 4.956 13.482 12.758l.032 1.018h8.056l-.024-1.074c-.281-12.161-8.44-20.346-21.63-20.346-12.927 0-21.462 7.778-21.462 17.85 0 5.905 2.052 10.017 5.973 12.764 2.987 2.093 6.447 3.203 12.551 4.435a279.407 279.407 0 0 0 1.873.373c5.776 1.142 8.324 1.848 10.649 3.2 2.886 1.678 4.318 4.075 4.318 7.788 0 6.447-5.42 10.122-14.91 10.122-9.085 0-14.723-4.556-15.333-12.72zM183.758 12v-1.05h-8.064v65.1h8.064V63.767l8.488-8.267 15.16 20.132.314.418h10.031l-1.279-1.685L197.96 49.98l17.074-16.992 1.802-1.794h-10.961l-.308.31-21.81 21.964V12zm75.348 44.394h.986l.062-.985a53.485 53.485 0 0 0 .073-1.594c.009-.273.013-.52.013-.739 0-13.18-8.73-22.89-21.63-22.89-12.877 0-22.05 10.337-22.05 23.394 0 13.436 8.758 23.478 22.134 23.478 10.114 0 17.928-6.001 20.743-15.104l.42-1.36h-8.381l-.248.699c-1.768 4.982-6.554 8.289-12.45 8.289-7.708 0-13.082-5.294-14.05-13.188h34.378zm-34.134-6.972c1.361-7.068 6.56-11.76 13.638-11.76 7.295 0 12.33 4.538 13.43 11.76h-27.068zM286.7 38.334h1.05v-7.14h-9.828v-12.18h-8.064v12.18h-8.148v7.14h8.148v25.158c0 8.253 4.28 12.726 12.138 12.726 1.371 0 2.554-.082 3.546-.22a10.606 10.606 0 0 0 1.27-.238l.77-.214V68.07l-1.273.277a21.398 21.398 0 0 1-1.127.197 17.702 17.702 0 0 1-2.43.199c-3.442 0-4.83-1.617-4.83-5.67V38.334h8.778zm25.074 38.724c11.162 0 19.043-7.063 21.022-17.058l.248-1.254h-8.133l-.208.78c-1.695 6.379-6.297 10.056-12.93 10.056-8.275 0-13.985-6.529-13.985-15.918 0-9.462 5.7-16.002 13.986-16.002 6.632 0 11.234 3.677 12.93 10.056l.207.78h8.133l-.248-1.254c-1.98-9.995-9.86-17.058-21.022-17.058-12.966 0-22.134 10.41-22.134 23.478 0 12.996 9.18 23.394 22.134 23.394zM347.894 12v-1.05h-8.064v65.1h8.064V49.716c0-7.704 4.689-12.222 11.802-12.222 6.794 0 10.206 3.933 10.206 11.382V76.05h8.064V47.7c0-10.522-6.516-17.514-17.262-17.514-5.529 0-9.973 2.026-12.81 4.933V12z" fill="#000"/><path fill="#FDB300" d="M20.903 2.831l27-2.831 27 2.831 20.903 27.835L47.903 86 0 30.666z"/><path fill="#EA6C00" d="M19.403 30.666L47.903 86 0 30.666zm57.001 0L47.904 86l47.903-55.334z"/><path fill="#FDAD00" d="M19.403 30.666h57L47.903 86z"/><path fill="#FDD231" d="M47.903 0l-27 2.831-1.5 27.835zm0 0l27 2.831 1.5 27.835z"/><path fill="#FDAD00" d="M95.807 30.666L74.904 2.831l1.5 27.835zM0 30.666L20.903 2.831l-1.5 27.835z"/><path fill="#FEEEB7" d="M47.903 0l-28.5 30.666h57z"/></g></svg>