<?xml version="1.0" encoding="utf-8"?>
<!-- Generator: Adobe Illustrator 16.0.0, SVG Export Plug-In . SVG Version: 6.00 Build 0)  -->
<!DOCTYPE svg PUBLIC "-//W3C//DTD SVG 1.1//EN" "http://www.w3.org/Graphics/SVG/1.1/DTD/svg11.dtd">
<svg version="1.1" id="logo" xmlns="http://www.w3.org/2000/svg" xmlns:xlink="http://www.w3.org/1999/xlink" x="0px" y="0px"
	 width="200px" height="80px" viewBox="0 0 200 80" enable-background="new 0 0 200 80" xml:space="preserve">
<g>
	<path fill="#3D64AC" d="M48.891,35.129L24.6,10.838l-4.932,4.934l9.124,9.123L9.062,44.625l24.291,24.289l4.932-4.929l-9.125-9.127
		L48.891,35.129z M20.036,45.364L34.711,30.69l2.96,2.96L22.999,48.446L20.036,45.364z"/>
	<g>
		<path fill="#3D64AC" d="M65.66,17.865v7.398h8.139v4.316H65.66v16.77c0,3.823,1.109,6.043,4.191,6.043
			c1.48,0,2.466-0.123,3.33-0.371l0.247,4.315c-1.111,0.37-2.837,0.737-5.058,0.737c-2.589,0-4.809-0.862-6.041-2.342
			c-1.479-1.729-2.219-4.439-2.219-8.138V29.581h-4.809v-4.316h4.809v-5.794L65.66,17.865z"/>
		<path fill="#3D64AC" d="M104.132,40.68c0,11.466-8.017,16.521-15.537,16.521c-8.384,0-14.92-6.164-14.92-16.029
			c0-10.359,6.904-16.4,15.413-16.4C98.089,24.647,104.132,31.183,104.132,40.68z M79.594,40.925c0,6.782,3.824,11.961,9.374,11.961
			c5.423,0,9.493-5.056,9.493-12.087c0-5.301-2.59-11.836-9.372-11.836C82.43,28.964,79.594,35.129,79.594,40.925z"/>
		<path fill="#3D64AC" d="M106.968,35.499c0-3.945-0.123-7.151-0.246-10.111h5.056l0.371,5.303h0.123
			c2.221-3.823,5.918-5.918,11.1-5.918c7.521,0,13.191,6.411,13.191,15.782c0,11.22-6.904,16.646-14.18,16.646
			c-4.07,0-7.768-1.85-9.619-4.932h-0.124v16.894h-5.548V35.499H106.968z M112.517,43.762c0,0.864,0.122,1.604,0.246,2.345
			c0.986,3.945,4.438,6.658,8.509,6.658c5.916,0,9.493-4.933,9.493-11.962c0-6.165-3.331-11.468-9.248-11.468
			c-3.823,0-7.521,2.713-8.508,6.904c-0.246,0.739-0.371,1.604-0.371,2.22v5.301h-0.124v0.002H112.517z"/>
		<path fill="#3D64AC" d="M147.287,17.865v7.398h8.138v4.316h-8.138v16.77c0,3.823,1.111,6.043,4.193,6.043
			c1.479,0,2.465-0.123,3.329-0.371l0.246,4.315c-1.11,0.37-2.837,0.737-5.055,0.737c-2.591,0-4.812-0.862-6.046-2.342
			c-1.602-1.729-2.217-4.439-2.217-8.138V29.581h-4.81v-4.316h4.81v-5.794L147.287,17.865z"/>
		<path fill="#3D64AC" d="M181.074,48.938c0,2.713,0.123,5.305,0.494,7.397h-5.06l-0.493-3.944h-0.246
			c-1.725,2.465-5.055,4.683-9.492,4.683c-6.289,0-9.494-4.437-9.494-8.878c0-7.521,6.658-11.59,18.74-11.59v-0.617
			c0-2.466-0.738-7.151-7.027-7.151c-2.959,0-5.918,0.862-8.137,2.343l-1.235-3.822c2.591-1.604,6.413-2.714,10.233-2.714
			c9.496,0,11.838,6.535,11.838,12.701v11.59h-0.121V48.938L181.074,48.938z M175.646,40.555
			c-6.164-0.124-13.193,0.985-13.193,7.027c0,3.696,2.468,5.423,5.305,5.423c4.068,0,6.781-2.59,7.643-5.177
			c0.248-0.616,0.248-1.231,0.248-1.852v-5.422H175.646z"/>
		<path fill="#3D64AC" d="M185.266,10.838h5.672v45.626h-5.672V10.838z"/>
	</g>
</g>
</svg>
