<svg width="545" height="175" viewBox="0 0 545 175" xmlns="http://www.w3.org/2000/svg"><title>toptal</title><path d="M33.09 103.875l43.815-43.823 9.029 9.025-43.827 43.82-9.018-9.022zm86.478-30.749L46.762.316 32.034 15.04l27.3 27.301L.425 101.247l72.807 72.81 14.728-14.725-27.304-27.315 58.912-58.89zm50.192-51.658v22.306h24.23v12.883h-24.23v50.183c0 11.543 3.267 18.083 12.69 18.083 4.61 0 7.31-.39 9.808-1.155l.768 12.886c-3.267 1.152-8.46 2.307-14.998 2.307-7.884 0-14.23-2.698-18.268-7.116-4.614-5.19-6.537-13.462-6.537-24.426V56.657h-14.426V43.774h14.426V26.466l16.537-4.998zM211.37 90.5c0 20.386 11.535 35.764 28.072 35.764 16.153 0 28.271-15.19 28.271-36.152 0-15.766-7.888-35.57-27.884-35.57-19.807 0-28.46 18.46-28.46 35.957m73.645-.963c0 34.421-24.037 49.422-46.34 49.422-24.997 0-44.613-18.463-44.613-47.883 0-30.955 20.58-49.227 46.152-49.227 26.729 0 44.801 19.424 44.801 47.688m25.153 9.426c0 2.502.196 4.81.772 6.92 3.078 11.732 13.266 19.804 25.384 19.804 17.881 0 28.26-14.613 28.26-35.956 0-18.457-9.803-34.421-27.684-34.421-11.542 0-22.502 8.08-25.58 20.767-.576 2.118-1.152 4.617-1.152 6.733v16.153zm-16.729-24.806c0-11.923-.384-21.538-.768-30.383h14.994l.967 15.958h.384c6.733-11.344 17.885-17.88 33.074-17.88 22.69 0 39.611 19.035 39.611 47.107 0 33.462-20.575 50.002-42.494 50.002-12.306 0-23.078-5.385-28.655-14.613h-.384v50.566h-16.729V74.156zm120.568-52.688v22.306h24.222v12.883h-24.222v50.183c0 11.543 3.267 18.083 12.69 18.083 4.61 0 7.302-.39 9.805-1.155l.771 12.886c-3.274 1.152-8.464 2.307-15.005 2.307-7.877 0-14.222-2.698-18.26-7.116-4.622-5.19-6.538-13.462-6.538-24.426V56.657h-14.43V43.774h14.43V26.466l16.537-4.998zm84.914 67.878c-18.464-.388-39.423 2.883-39.423 20.963 0 11.147 7.305 16.149 15.769 16.149 12.307 0 20.195-7.693 22.882-15.574.576-1.923.772-3.85.772-5.385V89.346zm16.345 25.19c0 8.08.38 15.96 1.34 22.305h-15.19l-1.344-11.73h-.575c-5.198 7.308-15.19 13.85-28.464 13.85-18.844 0-28.456-13.275-28.456-26.733 0-22.498 20-34.805 55.956-34.613v-1.92c0-7.5-2.115-21.538-21.155-21.342-8.844 0-17.88 2.495-24.417 6.92l-3.843-11.346c7.685-4.81 19.032-8.077 30.763-8.077 28.463 0 35.385 19.424 35.385 37.88v34.805zm12.537 22.304h16.92V.313h-16.92z" fill="#3D64AC" fill-rule="evenodd"/></svg>