<svg width="403" height="338" viewBox="0 0 403 338" xmlns="http://www.w3.org/2000/svg"><title>training-center</title><g fill="none"><path d="M260.558 119.806c-4.017-3.234-8.189-6.16-12.592-8.623l-1.39 6.775c2.008 1.078 3.476 2.54 4.17 3.31.387.462.619.77.619.77.232.308.154.77-.155 1.078l-4.017 3.85c7.107 3.771 13.442 8.93 18.85 15.242 3.94 4.619 7.262 9.777 9.888 15.243l2.936-2.233a.83.83 0 0 1 1.081.077s.31.231.696.77c.695.847 1.7 2.156 2.395 3.85l7.957-.617c-2.009-4.619-4.404-9.084-7.108-13.395-5.021-.308-11.279-3.849-16.223-9.623-4.712-5.389-7.184-11.547-7.107-16.474z" fill="#D33837"/><path d="M172.103 135.895c-2.472 5.62-7.957 9.623-15.296 11.163-.927.154-1.777.308-2.704.462-.927 7.313-.695 15.012.773 22.941l16.377-1.309c-.927-4.388-.309-7.621-.309-7.775.077-.231.155-.462.386-.539.232-.154.464-.154.696-.077l15.373 4.542c-2.163-14.473 1.7-27.33 10.893-35.72l-8.653-7.622-.077-.077c-.232-.308-.309-.693-.077-1 1.082-1.848 2.472-3.311 4.249-4.543l-9.811-11.393c-4.25 2.001-8.19 4.465-11.665 7.39-1.16 1-2.24 2.079-3.322 3.156 4.558 6.544 6.025 14.012 3.167 20.401z" fill="#ED684E"/><path d="M203.468 103.177c-1.313-.924-2.472-1.848-3.554-2.925-5.021.615-9.888 1.924-14.446 3.772l9.656 11.24c3.168-1.848 6.026-2.08 6.18-2.08.31 0 .541.078.696.309.077.077.155.154.155.308l3.63 10.547c10.043-5.081 22.713-5.158 35.15-.231l-1.158-6.544c-.077-.23 0-.462.154-.693.155-.154.387-.308.618-.308 1.545-.077 2.936.154 4.404.693l1.39-6.928c-5.33-2.926-10.738-5.235-16.223-6.93-4.712 6.776-16.687 6.699-26.652-.23z" fill="#F5A36A"/><path d="M284.66 121.5c-7.106-8.238-16.608-11.702-21.244-7.776-1.545 1.309-2.317 3.31-2.472 5.774v1.077c.155 4.542 2.55 10.24 6.953 15.243 4.635 5.39 10.352 8.776 14.987 9.315.386.077.695.077 1.082.077 2.008.077 3.785-.462 5.176-1.616 4.635-3.927 2.626-13.857-4.481-22.095z" fill="#D33837"/><path d="M170.944 135.664c2.704-6.081 1.314-13.241-3.013-19.554a6.765 6.765 0 0 1-.463-.77c-3.708-5.003-9.27-9.546-16.146-12.548-15.76-6.929-32.678-3.464-37.622 7.698-4.945 11.163 3.862 25.944 19.622 32.873 6.49 2.848 13.365 4.003 19.622 3.464.31 0 .618-.077.927-.077.85-.077 1.623-.231 2.395-.385 7.107-1.54 12.283-5.312 14.678-10.7z" fill="#ED684E"/><path d="M228.961 103.254l.232-.231c.077-.154.232-.308.31-.462 3.94-6.467-.155-16.782-9.58-23.25-9.58-6.62-21.09-6.774-25.571-.384-3.863 5.543-1.313 14.165 5.485 20.709.309.23.54.539.85.77.927.77 1.854 1.616 2.935 2.31 9.425 6.466 20.704 6.697 25.34.538z" fill="#F5A36A"/><path d="M137.865 190.717h-10.11v34.02h-8.336v-34.02h-9.956v-6.866h28.325v6.866zm17.519 11.34l-2.624-.231c-2.16 0-3.627.925-4.399 2.854v20.057h-8.027v-30.394h7.487l.231 3.317c1.235-2.546 3.01-3.857 5.171-3.857.926 0 1.621.154 2.161.386v7.868zm17.674 22.68c-.231-.463-.463-1.234-.695-2.391-1.389 1.928-3.318 2.931-5.788 2.931-2.547 0-4.63-.848-6.329-2.546-1.697-1.697-2.546-3.857-2.546-6.557 0-3.163 1.003-5.631 3.087-7.405 2.006-1.775 4.94-2.623 8.798-2.7h2.393V203.6c0-1.389-.232-2.314-.695-2.931-.463-.54-1.158-.849-2.084-.849-2.006 0-3.01 1.157-3.01 3.471h-7.872c0-2.777 1.08-5.091 3.164-6.942 2.084-1.852 4.785-2.778 8.027-2.778 3.319 0 5.943.849 7.718 2.623 1.852 1.697 2.778 4.243 2.778 7.406v14.271c0 2.623.386 4.706 1.158 6.172v.463h-8.104v.231zm-4.708-5.631c.85 0 1.621-.155 2.238-.54.618-.386 1.08-.772 1.39-1.235v-6.325h-1.93c-1.312 0-2.392.463-3.164 1.311-.772.849-1.158 2.006-1.158 3.472 0 2.16.85 3.317 2.624 3.317zm17.365-32.632c0-1.234.386-2.237 1.158-3.008.772-.772 1.852-1.157 3.164-1.157s2.393.385 3.165 1.157c.771.771 1.157 1.774 1.157 3.008 0 1.235-.386 2.237-1.157 3.009-.772.771-1.853 1.234-3.165 1.234s-2.392-.386-3.164-1.234c-.772-.772-1.158-1.774-1.158-3.009zm8.336 38.263h-7.95v-30.394h7.95v30.394zm13.429-30.394l.231 3.008c1.775-2.391 4.168-3.548 7.023-3.548 5.249 0 7.95 3.626 8.104 10.954v19.98h-7.95v-19.363c0-1.697-.23-3.008-.771-3.78-.54-.771-1.39-1.157-2.701-1.157-1.467 0-2.547.772-3.396 2.237v22.063h-7.95v-30.394h7.41zm21.07-7.869c0-1.234.385-2.237 1.157-3.008.772-.772 1.852-1.157 3.164-1.157s2.393.385 3.165 1.157c.771.771 1.157 1.774 1.157 3.008 0 1.235-.386 2.237-1.157 3.009-.772.771-1.853 1.234-3.165 1.234s-2.392-.386-3.164-1.234c-.772-.772-1.158-1.774-1.158-3.009zm8.335 38.263h-7.95v-30.394h7.95v30.394zm13.429-30.394l.231 3.008c1.775-2.391 4.168-3.548 7.023-3.548 5.249 0 7.95 3.626 8.104 10.954v19.98h-7.95v-19.363c0-1.697-.23-3.008-.771-3.78-.54-.771-1.39-1.157-2.701-1.157-1.467 0-2.547.772-3.396 2.237v22.063h-7.95v-30.394h7.41zm20.143 14.271c0-5.014.926-8.717 2.702-11.185 1.775-2.469 4.321-3.703 7.563-3.703 2.778 0 4.862 1.08 6.406 3.24l.309-2.7h7.177v30.394c0 3.857-1.08 6.866-3.241 8.871-2.161 2.083-5.326 3.086-9.339 3.086-1.698 0-3.396-.308-5.248-1.003-1.852-.694-3.242-1.543-4.09-2.545l2.7-5.478c.772.772 1.699 1.466 2.933 1.929 1.235.463 2.316.771 3.396.771 1.775 0 3.087-.462 3.86-1.311.771-.849 1.157-2.237 1.157-4.089v-2.622c-1.544 2.005-3.473 3.008-5.943 3.008-3.241 0-5.711-1.234-7.486-3.78-1.775-2.546-2.701-6.094-2.701-10.646v-2.237h-.155zm7.95 2.006c0 2.777.386 4.86 1.08 6.171.695 1.312 1.93 1.929 3.473 1.929 1.62 0 2.856-.617 3.628-1.774v-14.503c-.85-1.312-2.007-1.929-3.55-1.929-1.544 0-2.78.617-3.474 1.929-.771 1.311-1.157 3.394-1.157 6.248v1.929zm-104.191 40.731c-.155 3.703-1.235 6.48-3.087 8.409-1.93 1.929-4.631 2.854-8.104 2.854-3.627 0-6.483-1.234-8.413-3.625-1.929-2.392-2.932-5.863-2.932-10.26v-5.478c0-4.474 1.003-7.868 3.01-10.26 2.006-2.391 4.785-3.625 8.412-3.625 3.55 0 6.174 1.003 8.027 2.931 1.852 2.006 2.855 4.783 3.087 8.486h-6.56c-.078-2.314-.386-3.857-1.08-4.706-.618-.848-1.853-1.311-3.551-1.311-1.775 0-3.01.617-3.705 1.851-.694 1.234-1.08 3.24-1.157 6.017v6.095c0 3.24.386 5.4 1.08 6.634.695 1.234 1.93 1.774 3.705 1.774 1.698 0 2.932-.386 3.55-1.234.617-.849 1.003-2.314 1.08-4.552h6.638zm13.429 11.263c-3.242 0-5.711-.925-7.564-2.854-1.775-1.929-2.7-4.706-2.7-8.254v-1.929c0-3.78.848-6.711 2.469-8.794 1.62-2.083 4.013-3.086 7.1-3.086 3.01 0 5.326 1.003 6.792 2.932 1.543 1.928 2.315 4.782 2.315 8.562v3.086h-12.503c.078 1.774.463 3.086 1.158 3.934.695.849 1.775 1.235 3.242 1.235 2.083 0 3.858-.695 5.248-2.16l2.47 3.78c-.772 1.08-1.853 1.928-3.32 2.623-1.389.54-3.01.925-4.707.925zm-3.936-14.811h6.251v-.617c0-1.466-.231-2.546-.694-3.317-.464-.772-1.235-1.158-2.316-1.158-1.08 0-1.93.386-2.392 1.158-.463.925-.772 2.237-.85 3.934zm21.764-9.72l.154 2.391c1.39-1.851 3.242-2.854 5.557-2.854 4.168 0 6.252 2.931 6.406 8.717v15.814h-6.329V246.8c0-1.389-.231-2.314-.617-2.931-.386-.618-1.158-.926-2.161-.926-1.158 0-2.007.617-2.701 1.774v17.434h-6.329V238.16h6.02v-.077zm23.925-5.863v5.94h3.242v4.706h-3.242v11.957c0 .926.155 1.62.386 1.928.232.386.772.54 1.467.54a7.12 7.12 0 0 0 1.466-.154l-.077 4.86a10.27 10.27 0 0 1-3.473.617c-4.09 0-6.097-2.314-6.174-6.943v-12.805h-2.779v-4.706h2.779v-5.94h6.405zm16.362 30.394c-3.241 0-5.711-.925-7.563-2.854-1.775-1.929-2.702-4.706-2.702-8.254v-1.929c0-3.78.85-6.711 2.47-8.794s4.013-3.086 7.1-3.086c3.01 0 5.326 1.003 6.792 2.932 1.544 1.928 2.316 4.782 2.316 8.562v3.086h-12.426c.077 1.774.463 3.086 1.158 3.934.694.849 1.775 1.235 3.241 1.235 2.084 0 3.859-.695 5.248-2.16l2.47 3.78c-.772 1.08-1.852 1.928-3.319 2.623-1.466.54-3.087.925-4.785.925zm-3.936-14.811h6.252v-.617c0-1.466-.232-2.546-.695-3.317-.463-.772-1.235-1.158-2.315-1.158-1.08 0-1.93.386-2.393 1.158-.463.925-.772 2.237-.849 3.934zm27.861-3.626l-2.083-.154c-1.698 0-2.856.771-3.473 2.237v15.891H257.8V238.16h5.943l.154 2.623c1.003-2.006 2.393-3.009 4.09-3.009.695 0 1.313.077 1.698.309v6.094z" fill="#0C1624"/></g></svg>