<svg id="Camada_1" xmlns="http://www.w3.org/2000/svg" width="300" height="300" viewBox="0 0 300 300"><style>.st0{fill:#d33837}.st1{fill:#ed684e}.st2{fill:#f5a36a}.st3{fill:#0c1624}</style><path class="st0" d="M226.3 87.5c-5.2-4.2-10.6-8-16.3-11.2l-1.8 8.8c2.6 1.4 4.5 3.3 5.4 4.3.5.6.8 1 .8 1 .3.4.2 1-.2 1.4l-5.2 5c9.2 4.9 17.4 11.6 24.4 19.8 5.1 6 9.4 12.7 12.8 19.8l3.8-2.9c.4-.3 1-.3 1.4.1 0 0 .4.3.9 1 .9 1.1 2.2 2.8 3.1 5l10.3-.8c-2.6-6-5.7-11.8-9.2-17.4-6.5-.4-14.6-5-21-12.5-6.1-7-9.3-15-9.2-21.4z"/><path class="st1" d="M111.8 108.4c-3.2 7.3-10.3 12.5-19.8 14.5-1.2.2-2.3.4-3.5.6-1.2 9.5-.9 19.5 1 29.8l21.2-1.7c-1.2-5.7-.4-9.9-.4-10.1.1-.3.2-.6.5-.7.3-.2.6-.2.9-.1l19.9 5.9c-2.8-18.8 2.2-35.5 14.1-46.4l-11.2-9.9-.1-.1c-.3-.4-.4-.9-.1-1.3 1.4-2.4 3.2-4.3 5.5-5.9l-12.7-14.8c-5.5 2.6-10.6 5.8-15.1 9.6-1.5 1.3-2.9 2.7-4.3 4.1 5.9 8.5 7.8 18.2 4.1 26.5z"/><path class="st2" d="M152.4 65.9c-1.7-1.2-3.2-2.4-4.6-3.8-6.5.8-12.8 2.5-18.7 4.9l12.5 14.6c4.1-2.4 7.8-2.7 8-2.7.4 0 .7.1.9.4.1.1.2.2.2.4l4.7 13.7c13-6.6 29.4-6.7 45.5-.3l-1.5-8.5c-.1-.3 0-.6.2-.9.2-.2.5-.4.8-.4 2-.1 3.8.2 5.7.9l1.8-9c-6.9-3.8-13.9-6.8-21-9-6.1 8.8-21.6 8.7-34.5-.3z"/><path class="st0" d="M257.5 89.7C248.3 79 236 74.5 230 79.6c-2 1.7-3 4.3-3.2 7.5v1.4c.2 5.9 3.3 13.3 9 19.8 6 7 13.4 11.4 19.4 12.1.5.1.9.1 1.4.1 2.6.1 4.9-.6 6.7-2.1 6-5.1 3.4-18-5.8-28.7z"/><path class="st1" d="M110.3 108.1c3.5-7.9 1.7-17.2-3.9-25.4-.2-.3-.4-.6-.6-1-4.8-6.5-12-12.4-20.9-16.3-20.4-9-42.3-4.5-48.7 10s5 33.7 25.4 42.7c8.4 3.7 17.3 5.2 25.4 4.5.4 0 .8-.1 1.2-.1 1.1-.1 2.1-.3 3.1-.5 9.2-2 15.9-6.9 19-13.9z"/><path class="st2" d="M185.4 66l.3-.3c.1-.2.3-.4.4-.6 5.1-8.4-.2-21.8-12.4-30.2-12.4-8.6-27.3-8.8-33.1-.5-5 7.2-1.7 18.4 7.1 26.9.4.3.7.7 1.1 1 1.2 1 2.4 2.1 3.8 3 12.2 8.4 26.8 8.7 32.8.7z"/><path class="st3" d="M67.4 179.3H54.3v44.1H43.5v-44.1H30.6v-8.9h36.7v8.9zM90.1 194l-3.4-.3c-2.8 0-4.7 1.2-5.7 3.7v26H70.6V184h9.7l.3 4.3c1.6-3.3 3.9-5 6.7-5 1.2 0 2.1.2 2.8.5V194zm22.9 29.4c-.3-.6-.6-1.6-.9-3.1-1.8 2.5-4.3 3.8-7.5 3.8-3.3 0-6-1.1-8.2-3.3-2.2-2.2-3.3-5-3.3-8.5 0-4.1 1.3-7.3 4-9.6 2.6-2.3 6.4-3.4 11.4-3.5h3.1V196c0-1.8-.3-3-.9-3.8-.6-.7-1.5-1.1-2.7-1.1-2.6 0-3.9 1.5-3.9 4.5H93.9c0-3.6 1.4-6.6 4.1-9 2.7-2.4 6.2-3.6 10.4-3.6 4.3 0 7.7 1.1 10 3.4 2.4 2.2 3.6 5.5 3.6 9.6v18.5c0 3.4.5 6.1 1.5 8v.6H113zm-6.1-7.3c1.1 0 2.1-.2 2.9-.7.8-.5 1.4-1 1.8-1.6v-8.2h-2.5c-1.7 0-3.1.6-4.1 1.7-1 1.1-1.5 2.6-1.5 4.5 0 2.8 1.1 4.3 3.4 4.3zm22.5-42.3c0-1.6.5-2.9 1.5-3.9s2.4-1.5 4.1-1.5c1.7 0 3.1.5 4.1 1.5 1 1 1.5 2.3 1.5 3.9s-.5 2.9-1.5 3.9-2.4 1.6-4.1 1.6c-1.7 0-3.1-.5-4.1-1.6-1-1-1.5-2.3-1.5-3.9zm10.8 49.6h-10.3V184h10.3v39.4zm17.4-39.4l.3 3.9c2.3-3.1 5.4-4.6 9.1-4.6 6.8 0 10.3 4.7 10.5 14.2v25.9h-10.3v-25.1c0-2.2-.3-3.9-1-4.9-.7-1-1.8-1.5-3.5-1.5-1.9 0-3.3 1-4.4 2.9v28.6H148V184h9.6zm27.3-10.2c0-1.6.5-2.9 1.5-3.9s2.4-1.5 4.1-1.5c1.7 0 3.1.5 4.1 1.5 1 1 1.5 2.3 1.5 3.9s-.5 2.9-1.5 3.9-2.4 1.6-4.1 1.6c-1.7 0-3.1-.5-4.1-1.6-1-1-1.5-2.3-1.5-3.9zm10.8 49.6h-10.3V184h10.3v39.4zm17.4-39.4l.3 3.9c2.3-3.1 5.4-4.6 9.1-4.6 6.8 0 10.3 4.7 10.5 14.2v25.9h-10.3v-25.1c0-2.2-.3-3.9-1-4.9-.7-1-1.8-1.5-3.5-1.5-1.9 0-3.3 1-4.4 2.9v28.6h-10.3V184h9.6zm26.1 18.5c0-6.5 1.2-11.3 3.5-14.5 2.3-3.2 5.6-4.8 9.8-4.8 3.6 0 6.3 1.4 8.3 4.2l.4-3.5h9.3v39.4c0 5-1.4 8.9-4.2 11.5-2.8 2.7-6.9 4-12.1 4-2.2 0-4.4-.4-6.8-1.3-2.4-.9-4.2-2-5.3-3.3l3.5-7.1c1 1 2.2 1.9 3.8 2.5 1.6.6 3 1 4.4 1 2.3 0 4-.6 5-1.7s1.5-2.9 1.5-5.3v-3.4c-2 2.6-4.5 3.9-7.7 3.9-4.2 0-7.4-1.6-9.7-4.9-2.3-3.3-3.5-7.9-3.5-13.8v-2.9zm10.3 2.6c0 3.6.5 6.3 1.4 8 .9 1.7 2.5 2.5 4.5 2.5 2.1 0 3.7-.8 4.7-2.3v-18.8c-1.1-1.7-2.6-2.5-4.6-2.5-2 0-3.6.8-4.5 2.5-1 1.7-1.5 4.4-1.5 8.1v2.5zm-135 52.8c-.2 4.8-1.6 8.4-4 10.9-2.5 2.5-6 3.7-10.5 3.7-4.7 0-8.4-1.6-10.9-4.7s-3.8-7.6-3.8-13.3v-7.1c0-5.8 1.3-10.2 3.9-13.3 2.6-3.1 6.2-4.7 10.9-4.7 4.6 0 8 1.3 10.4 3.8 2.4 2.6 3.7 6.2 4 11H106c-.1-3-.5-5-1.4-6.1-.8-1.1-2.4-1.7-4.6-1.7-2.3 0-3.9.8-4.8 2.4-.9 1.6-1.4 4.2-1.5 7.8v7.9c0 4.2.5 7 1.4 8.6.9 1.6 2.5 2.3 4.8 2.3 2.2 0 3.8-.5 4.6-1.6.8-1.1 1.3-3 1.4-5.9h8.6zm17.4 14.6c-4.2 0-7.4-1.2-9.8-3.7-2.3-2.5-3.5-6.1-3.5-10.7v-2.5c0-4.9 1.1-8.7 3.2-11.4 2.1-2.7 5.2-4 9.2-4 3.9 0 6.9 1.3 8.8 3.8 2 2.5 3 6.2 3 11.1v4h-16.2c.1 2.3.6 4 1.5 5.1.9 1.1 2.3 1.6 4.2 1.6 2.7 0 5-.9 6.8-2.8l3.2 4.9c-1 1.4-2.4 2.5-4.3 3.4-1.8.7-3.9 1.2-6.1 1.2zm-5.1-19.2h8.1v-.8c0-1.9-.3-3.3-.9-4.3-.6-1-1.6-1.5-3-1.5s-2.5.5-3.1 1.5c-.6 1.2-1 2.9-1.1 5.1zm28.2-12.6l.2 3.1c1.8-2.4 4.2-3.7 7.2-3.7 5.4 0 8.1 3.8 8.3 11.3v20.5h-8.2V252c0-1.8-.3-3-.8-3.8-.5-.8-1.5-1.2-2.8-1.2-1.5 0-2.6.8-3.5 2.3v22.6h-8.2v-31.1h7.8zm31-7.6v7.7h4.2v6.1H186v15.5c0 1.2.2 2.1.5 2.5.3.5 1 .7 1.9.7.8 0 1.4-.1 1.9-.2l-.1 6.3c-1.4.5-2.9.8-4.5.8-5.3 0-7.9-3-8-9v-16.6h-3.6v-6.1h3.6v-7.7h8.3zm21.2 39.4c-4.2 0-7.4-1.2-9.8-3.7-2.3-2.5-3.5-6.1-3.5-10.7v-2.5c0-4.9 1.1-8.7 3.2-11.4 2.1-2.7 5.2-4 9.2-4 3.9 0 6.9 1.3 8.8 3.8 2 2.5 3 6.2 3 11.1v4H202c.1 2.3.6 4 1.5 5.1.9 1.1 2.3 1.6 4.2 1.6 2.7 0 5-.9 6.8-2.8l3.2 4.9c-1 1.4-2.4 2.5-4.3 3.4-1.9.7-4 1.2-6.2 1.2zm-5.1-19.2h8.1v-.8c0-1.9-.3-3.3-.9-4.3-.6-1-1.6-1.5-3-1.5s-2.5.5-3.1 1.5c-.6 1.2-1 2.9-1.1 5.1zm36.1-4.7l-2.7-.2c-2.2 0-3.7 1-4.5 2.9v20.6h-8.2v-31.1h7.7l.2 3.4c1.3-2.6 3.1-3.9 5.3-3.9.9 0 1.7.1 2.2.4v7.9z"/></svg>