<svg width="384" height="99" viewBox="0 0 384 99" xmlns="http://www.w3.org/2000/svg"><title>uilab</title><g fill="#FF0095" fill-rule="evenodd"><path d="M69.725 76.582c-1.674 2.9-5.692 4.496-11.31 4.496-1.22 0-2.516-.074-3.855-.224l-1.427-.16.399-1.38c.927-3.202 1.64-6.673 2.12-10.316l.065-.498.4-.306c2.94-2.25 5.598-4.598 7.896-6.976l.995-1.033.852 1.155c4.512 6.126 5.92 11.683 3.865 15.242zm-19.808-5.917c.227.337.58.568.995.649l1.182.236-.228 1.18a62.673 62.673 0 0 1-1.537 6.278l-.332 1.096-1.11-.267a62.816 62.816 0 0 1-6.087-1.804l-1.163-.412.43-1.155a1.555 1.555 0 0 0-.055-1.233 1.564 1.564 0 0 0-1.414-.88c-.237 0-.467.053-.685.157-.762.372-1.511.718-2.256 1.054l-.498.226-.5-.226a89.584 89.584 0 0 1-2.255-1.054 1.56 1.56 0 0 0-2.1.72 1.555 1.555 0 0 0-.055 1.236l.433 1.157-1.166.41a62.842 62.842 0 0 1-6.083 1.804l-1.11.267-.33-1.094a62.63 62.63 0 0 1-1.533-6.233l-.233-1.205 1.207-.217c.43-.077.796-.31 1.027-.653a1.571 1.571 0 0 0-.423-2.18c-4.609-3.111-8.605-6.444-11.88-9.908l-.786-.835.787-.831c3.274-3.463 7.269-6.793 11.872-9.904.348-.235.583-.59.661-1.004.08-.41-.004-.828-.239-1.174a1.557 1.557 0 0 0-1.02-.665l-1.203-.221.232-1.202a62.785 62.785 0 0 1 1.523-6.226l.33-1.093 1.11.264a63.044 63.044 0 0 1 6.087 1.804l1.166.41-.433 1.157a1.565 1.565 0 0 0 2.152 1.963 92.169 92.169 0 0 1 2.263-1.06l.5-.225.499.226c.74.337 1.485.68 2.242 1.046.219.107.45.16.689.16a1.56 1.56 0 0 0 1.468-2.11l-.424-1.154 1.159-.408a61.938 61.938 0 0 1 6.099-1.809l1.111-.264.33 1.092a62.609 62.609 0 0 1 1.523 6.227l.231 1.203-1.204.22c-.42.076-.78.31-1.018.66a1.578 1.578 0 0 0 .422 2.184c4.604 3.108 8.598 6.439 11.872 9.903l.786.831-.786.835c-3.263 3.452-7.24 6.771-11.821 9.87a1.571 1.571 0 0 0-.42 2.181zm-1.554 13.734c-3.095 7.083-7.074 10.986-11.203 10.986-4.125 0-8.101-3.903-11.201-10.989l-.573-1.309 1.39-.35c3.2-.802 6.534-1.924 9.917-3.332l.466-.192.465.192c3.392 1.41 6.73 2.533 9.923 3.332l1.388.352-.572 1.31zM19.76 80.852a34.72 34.72 0 0 1-3.858.226c-5.618 0-9.635-1.596-11.309-4.496-2.055-3.558-.645-9.116 3.865-15.241l.85-1.155.997 1.035c2.303 2.382 4.96 4.728 7.896 6.971l.4.306.066.5c.479 3.634 1.193 7.104 2.121 10.313l.4 1.38-1.428.161zM4.593 38.98c1.674-2.9 5.69-4.496 11.31-4.496 1.216 0 2.508.077 3.842.225l1.426.16-.398 1.379c-.913 3.174-1.622 6.645-2.104 10.318l-.065.496-.4.307c-2.937 2.245-5.595 4.592-7.899 6.976l-.997 1.03-.85-1.154c-4.51-6.127-5.92-11.683-3.865-15.241zm21.347-7.82c3.08-7.082 7.065-10.983 11.22-10.983 4.151 0 8.134 3.901 11.216 10.986l.57 1.309-1.386.347c-3.198.8-6.541 1.923-9.936 3.338l-.465.194-.466-.194c-3.39-1.412-6.733-2.536-9.937-3.34l-1.386-.348.57-1.31zm28.633 3.549a35.05 35.05 0 0 1 3.844-.225c5.618 0 9.634 1.597 11.308 4.496 2.055 3.556.645 9.11-3.865 15.24l-.85 1.155-.997-1.032c-2.304-2.383-4.96-4.729-7.898-6.974l-.4-.307-.066-.496c-.481-3.668-1.19-7.142-2.105-10.318l-.398-1.38 1.427-.159zm13.089 23.816l-.58-.746.58-.744c5.882-7.551 7.626-14.704 4.782-19.624-2.892-5.015-9.22-6.065-14.017-6.065-1.699 0-3.516.133-5.398.396l-.935.132-.357-.874c-3.61-8.874-8.923-13.962-14.577-13.962-5.66 0-10.974 5.088-14.582 13.961l-.355.872-.933-.13a39.224 39.224 0 0 0-5.395-.396c-4.799 0-11.127 1.051-14.021 6.066-2.843 4.924-1.1 12.075 4.784 19.624l.58.745-.58.746C.774 66.072-.968 73.228 1.874 78.15c2.898 5.02 9.225 6.072 14.024 6.072 1.688 0 3.51-.134 5.416-.401l.934-.133.356.872c3.63 8.873 8.936 13.965 14.556 13.965 5.626 0 10.931-5.092 14.56-13.965l.356-.872.933.133c1.903.267 3.726.4 5.411.4 4.8 0 11.13-1.052 14.026-6.07 2.842-4.923 1.1-12.08-4.784-19.628z"/><path d="M37.16 63.072a6.101 6.101 0 0 1-6.095-6.093 6.102 6.102 0 0 1 6.094-6.094 6.1 6.1 0 0 1 6.093 6.094 6.1 6.1 0 0 1-6.093 6.093m0-15.515c-5.196 0-9.424 4.224-9.424 9.422s4.228 9.423 9.424 9.423c5.197 0 9.423-4.225 9.423-9.423s-4.226-9.422-9.423-9.422m109.612 39.676c-3.166 4.09-8.577 6.994-15.57 6.994-14.25 0-20.45-9.766-20.45-22.96V36.7c0-5.411 3.694-9.105 9.102-9.105 5.411 0 9.37 3.694 9.37 9.105v33.25c0 4.88 2.638 8.18 7.652 8.18 5.41 0 8.84-3.96 8.84-9.499V36.7c0-5.411 3.694-9.105 9.104-9.105 5.41 0 9.368 3.694 9.368 9.105v47.76c0 5.41-3.298 9.105-8.707 9.105-3.695 0-6.466-1.846-8.313-5.542l-.396-.791zm54.392-50.535v47.764c0 5.41-3.826 9.105-9.236 9.105s-9.236-3.695-9.236-9.105V36.698c0-5.41 3.826-9.103 9.236-9.103s9.236 3.694 9.236 9.103M191.927.941c5.673 0 10.16 4.487 10.16 10.16s-4.487 10.16-10.16 10.16c-5.674 0-10.16-4.487-10.16-10.16s4.486-10.16 10.16-10.16m36.976 3.737c-4.474 0-7.477 2.953-7.477 7.346v72.44c0 4.394 3.003 7.345 7.477 7.345 4.472 0 7.477-2.951 7.477-7.346V12.024c0-4.393-3.005-7.346-7.477-7.346m0 90.647c-6.37 0-10.993-4.568-10.993-10.862V12.024c0-6.293 4.623-10.861 10.993-10.861s10.993 4.568 10.993 10.861v72.44c0 6.293-4.623 10.86-10.993 10.86m53.6-50.534c-5.916 0-6.554 5.415-6.554 7.742V68.63c0 2.327.638 7.74 6.554 7.74 4.302 0 7.083-3.038 7.083-7.74V52.532c0-4.704-2.78-7.742-7.083-7.742m0 35.095c-6.116 0-10.07-4.418-10.07-11.255V52.532c0-6.84 3.954-11.258 10.07-11.258 6.241 0 10.598 4.63 10.598 11.258V68.63c0 6.628-4.357 11.255-10.598 11.255m-5.014-51.193c-12.719 0-20.012 8.69-20.012 23.84V68.63c0 15.15 7.293 23.838 20.012 23.838 5.802 0 10.52-2.136 13.652-6.178l1.883-2.433 1.404 3.517c1.215 2.936 3.465 4.435 6.678 4.435 4.289 0 6.953-2.814 6.953-7.347V36.698c0-4.53-2.664-7.346-6.953-7.346-3.213 0-5.463 1.5-6.688 4.456l-1.374 3.442-1.886-2.356c-2.263-2.83-6.471-6.202-13.67-6.202m0 67.292c-14.51 0-23.527-10.482-23.527-27.354V52.532c0-16.873 9.016-27.356 23.528-27.356 5.719 0 10.8 1.944 14.58 5.524 1.944-3.157 5.089-4.864 9.037-4.864 6.262 0 10.469 4.366 10.469 10.862v47.764c0 6.498-4.207 10.863-10.469 10.863-3.94 0-7.082-1.7-9.02-4.831-2.926 2.831-7.549 5.49-14.597 5.49m77.219-51.194c-4.301 0-7.082 3.038-7.082 7.742V68.63c0 4.702 2.78 7.74 7.082 7.74 5.917 0 6.555-5.413 6.555-7.74V52.532c0-2.327-.638-7.742-6.555-7.742zm0 35.095c-6.24 0-10.598-4.627-10.598-11.255V52.532c0-6.628 4.358-11.258 10.598-11.258 6.119 0 10.071 4.419 10.071 11.258V68.63c0 6.837-3.952 11.255-10.071 11.255zm-10.52 3.972l1.882 2.433c3.131 4.042 7.851 6.178 13.652 6.178 12.719 0 20.015-8.688 20.015-23.838V52.532c0-15.15-7.296-23.84-20.015-23.84-5.093 0-9.446 1.73-12.586 5.003l-3.026 3.151V12.685c0-4.395-3.005-7.346-7.477-7.346-4.544 0-7.479 2.882-7.479 7.346v71.777c0 4.533 2.663 7.347 6.95 7.347 3.215 0 5.465-1.5 6.689-4.456l1.395-3.496zm15.534 12.127c-7.049 0-11.673-2.66-14.597-5.493-1.946 3.14-5.082 4.834-9.02 4.834-6.261 0-10.468-4.365-10.468-10.863V12.685c0-6.396 4.522-10.863 10.996-10.863 6.37 0 10.993 4.568 10.993 10.863v16.008c3.385-2.311 7.498-3.517 12.096-3.517 14.514 0 23.53 10.483 23.53 27.356V68.63c0 16.872-9.016 27.354-23.53 27.354z"/></g></svg>