<svg xmlns="http://www.w3.org/2000/svg" width="174.519" height="78.987" viewBox="0 0 174.519 78.987"><path fill="#EC1C24" d="M115.069.144l-9.945.005C26.028 52.69 145.661 8.19 84.612 51.317h23.645C156.803-.506 46.116 44.646 115.069.144M63.3 65.327c-6.446 4.026-13.817 8.504-22.293 13.517l37.135-.011c5.952-4.938 11.124-9.416 15.656-13.506H63.3z"/><path fill="none" stroke="#EC1C24" stroke-width=".422" stroke-miterlimit="22.926" d="M115.024.211l-9.905.006c-78.782 52.45 40.375 8.027-20.431 51.08h23.55c48.354-51.733-61.893-6.66 6.786-51.086zM63.461 65.282c-6.42 4.021-13.763 8.489-22.205 13.494l36.987-.011c5.929-4.932 11.081-9.399 15.595-13.483H63.461z"/><path fill="#034EA1" d="M0 11.673h9.374v19.852c0 1.881.471 3.395 1.412 4.556.938 1.158 2.906 1.735 4.737 1.735 3.77 0 5.639-1.999 5.649-5.99l.054-20.153h5.089v20.756c0 3.479-1.144 6.201-3.422 8.174-2.278 1.972-5.051 3.221-9.826 3.067-4.771-.153-7.152-1.032-9.456-3.36C1.391 38.066 0 34.904 0 30.812V11.673zm31.3 31.714v-25.86c0-4.09 2.069-6.282 5.324-6.282 1.491 0 2.713.322 3.661.949.952.633 1.972 1.563 2.864 2.923l9.818 14.943h.16V11.71h5.142v26.555c0 3.606-1.339 5.404-3.622 5.404-1.861 0-3.064-.783-4.184-2.41L36.602 21.076h-.159v22.311H31.3zm32.334-31.714h9.314v31.714h-9.314V11.673zm91.069-.086h9.263V35.17c0 1.698.21 2.794.637 3.278.427.483 1.253.73 2.478.73h7.438v4.208h-11.848c-2.942 0-5.002-.559-6.188-1.681-1.18-1.114-1.779-2.749-1.779-4.903V11.587zm-33.096 31.8l9.152-26.216c.775-2.165 1.722-3.669 2.845-4.512 1.126-.846 1.51-1.176 3.368-1.176 1.581 0 2.242.271 3.274 1.012 1.026.738 1.952 2.246 2.766 4.512l9.46 26.38h-9.787l-1.979-5.844h-11.619l-2.238 5.844h-5.242zm17.015-10.31l-3.798-12.766h-.139l-4.017 12.766h7.954zM25.455 57.008c-.292 0-.533.131-.722.395a2.669 2.669 0 0 0-.41.956 6.586 6.586 0 0 0-.158 1.108c0 .595.058 1.073.172 1.434.095.366.245.673.45.924.205.251.428.378.668.378.23 0 .428-.085.593-.256.166-.17.297-.387.396-.652.098-.265.168-.55.211-.853.044-.299.065-.582.065-.844a5.73 5.73 0 0 0-.122-1.132 2.884 2.884 0 0 0-.406-1.029c-.19-.285-.437-.429-.737-.429m-2.408 2.672c0-.656.104-1.211.308-1.663.204-.454.476-.796.813-1.025a2.33 2.33 0 0 1 1.127-.396c.347 0 .674.079.982.234.307.154.577.367.809.637.233.271.414.577.547.922.133.345.202.704.214 1.079 0 .69-.109 1.275-.329 1.755-.218.479-.511.834-.875 1.068a2.159 2.159 0 0 1-1.19.351c-.417-.008-.81-.152-1.18-.436a3.03 3.03 0 0 1-.882-1.102 3.342 3.342 0 0 1-.344-1.424m-3.839-2.935h1.946c.406 0 .748.148 1.023.444.277.294.415.682.415 1.162 0 .36-.086.643-.258.846-.171.2-.412.362-.723.483l1.249 2.801h-1.12l-1.149-2.883.127.026a.834.834 0 0 0 .675-.367c.16-.233.242-.535.242-.906 0-.349-.091-.633-.271-.852a.87.87 0 0 0-.707-.328h-.501v5.31h-.947v-5.736zm-3.516 0h2.819v.427h-.925v5.31h-.958v-5.31h-.936v-.427zm-4.361 5.736V57.61c0-.28.062-.495.189-.642a.646.646 0 0 1 .513-.224c.315 0 .569.192.765.573l1.5 2.774c.084.181.146.288.182.317.044-.018.066-.199.066-.544v-3.121h.456v5.273c0 .396-.095.596-.287.596-.177 0-.322-.116-.437-.348l-2.18-4.14-.081-.157-.111-.163-.098-.039c-.028 0-.04.039-.04.119v4.595h-.437zm-.916-5.736v.427H8.67c-.125 0-.209.015-.252.045-.044.032-.066.116-.066.26v1.766h1.713v.546H8.352v1.885c0 .127.035.225.106.293a.385.385 0 0 0 .277.104h1.817v.411H8.126c-.481 0-.724-.326-.724-.982v-3.692c0-.355.059-.621.176-.798.116-.174.342-.264.675-.264h2.162zm-4.322-.986c-.322-.529-.632-.92-.931-1.176a1.568 1.568 0 0 0-.985-.403c-.585 0-1.071.168-1.458.497-.385.331-.672.777-.858 1.338a6.523 6.523 0 0 0-.303 1.898c0 .58.049 1.123.147 1.632.101.508.252.952.462 1.333.208.383.471.673.787.875.308.184.635.289.981.317.493-.014.953-.191 1.38-.533.428-.345.736-.811.928-1.392l.459.29c-.199.585-.55 1.11-1.051 1.579-.502.472-1.131.706-1.889.706-.173 0-.4-.017-.681-.056a2.978 2.978 0 0 1-1.161-.529 3.914 3.914 0 0 1-.937-1.016 5.123 5.123 0 0 1-.614-1.362 5.803 5.803 0 0 1-.228-1.554 6.234 6.234 0 0 1 .345-1.875 4.62 4.62 0 0 1 .886-1.551 3.174 3.174 0 0 1 1.338-.929 2.86 2.86 0 0 1 1.074-.214c1.096 0 1.99.589 2.682 1.767l-.373.358zm157.08.986h.958v4.13c0 .305.077.563.231.776.155.213.376.325.664.339.321 0 .575-.13.766-.394.19-.261.287-.648.287-1.16v-3.691h.435v3.995a2.4 2.4 0 0 1-.2 1.013 1.493 1.493 0 0 1-.581.66 1.676 1.676 0 0 1-.879.229c-1.119-.029-1.681-.679-1.681-1.953v-3.944zm-2.21 3.424l-.578-2.536a.812.812 0 0 0-.07-.205l-.099-.033-.099.053a1.435 1.435 0 0 0-.072.213l-.553 2.509h1.471zm-2.429 2.312l1.053-4.848c.093-.395.206-.663.339-.812a.675.675 0 0 1 .535-.226c.257 0 .444.074.565.223.119.145.229.445.328.896l1.151 4.768h-1.023l-.393-1.741h-1.748l-.37 1.741h-.437zm-3.79-8.193v4.063h.628c.672 0 1.124-.205 1.354-.614.232-.41.349-.939.349-1.592a2.684 2.684 0 0 0-.181-.944 1.419 1.419 0 0 0-.543-.664c-.252-.168-.578-.249-.979-.249h-.628zm-1.288-.413h2.871a1.88 1.88 0 0 1 1.402.624c.185.206.333.454.444.744.11.293.173.621.188.983.006.071.012.173.012.306 0 .493-.082.913-.244 1.264-.161.348-.433.618-.812.812-.381.192-.884.289-1.509.289h-1.064v3.585h-1.288v-8.607zm-6.229 3.133c-.293 0-.535.131-.723.395a2.633 2.633 0 0 0-.409.956 6.485 6.485 0 0 0-.158 1.108c0 .595.058 1.073.172 1.434.096.366.244.673.449.924s.428.378.669.378a.797.797 0 0 0 .593-.256c.164-.17.296-.387.395-.652.1-.265.171-.55.213-.853.043-.299.064-.582.064-.844 0-.354-.04-.731-.122-1.132a2.921 2.921 0 0 0-.406-1.029c-.191-.285-.438-.429-.737-.429m-2.408 2.672c0-.656.102-1.211.308-1.663.203-.454.474-.796.812-1.025.338-.23.714-.36 1.127-.396.347 0 .676.079.982.234.307.154.577.367.808.637a3.24 3.24 0 0 1 .763 2.001c0 .69-.11 1.275-.329 1.755-.218.479-.511.834-.875 1.068s-.763.351-1.191.351c-.416-.008-.81-.152-1.178-.436a3.022 3.022 0 0 1-.883-1.102 3.285 3.285 0 0 1-.344-1.424m-3.748-4.119c.041-.381.158-.671.355-.867.197-.199.396-.299.601-.299.158.009.287.026.39.054.104.026.232.066.382.121.149.058.253.091.309.104.083 0 .147.009.191.024.102-.011.172-.041.211-.093.04-.051.107-.177.205-.373h.413c-.058.411-.188.713-.389.905a.965.965 0 0 1-.694.29 2.83 2.83 0 0 1-.536-.155c-.255-.093-.457-.136-.608-.136-.22 0-.365.133-.437.398l-.393.027zm1.974 4.608l-.577-2.536a.812.812 0 0 0-.07-.205l-.098-.033-.099.053a1.144 1.144 0 0 0-.072.213l-.555 2.509h1.471zm-2.427 2.312l1.053-4.848c.093-.395.206-.663.338-.812a.676.676 0 0 1 .534-.226c.257 0 .444.074.566.223.119.145.229.445.329.896l1.15 4.768h-1.023l-.393-1.741h-1.747l-.372 1.741h-.435zm-4.972-1.089l.468-.464c.174.341.34.588.5.747.158.157.347.263.565.314l.17.028.137.026c.344-.013.64-.143.891-.388.25-.244.383-.568.398-.969 0-.562-.121-.994-.368-1.289-.246-.296-.601-.541-1.06-.731a5.116 5.116 0 0 1-.923-.523 2.062 2.062 0 0 1-.619-.771c-.164-.331-.244-.749-.244-1.252.012-.502.126-.943.342-1.322.215-.378.502-.667.856-.864a2.36 2.36 0 0 1 1.163-.298c.271.015.533.087.789.221a2.34 2.34 0 0 1 1.131 1.306l-.437.372c-.292-.787-.758-1.194-1.396-1.223-.317 0-.585.122-.803.367s-.337.577-.357 1.001c0 .384.077.683.232.897.154.215.423.434.801.656.275.149.543.296.8.439.259.141.49.309.697.497.207.189.378.443.514.762.135.319.202.715.202 1.186a2.863 2.863 0 0 1-.207 1.063 2.505 2.505 0 0 1-.538.832 2.394 2.394 0 0 1-.757.527 2.256 2.256 0 0 1-2.068-.16c-.378-.224-.669-.554-.879-.987m-3.886-4.647v.427h-1.744c-.125 0-.209.015-.253.045-.044.032-.066.116-.066.26v1.766h1.714v.546h-1.714v1.885c0 .127.036.225.107.293a.38.38 0 0 0 .277.104h1.817v.411h-2.428c-.481 0-.722-.326-.722-.982v-3.692c0-.355.059-.621.175-.798.118-.174.343-.264.676-.264h2.161zm-6.878 5.375h.56c.57 0 .988-.212 1.252-.629.266-.422.397-.982.397-1.688 0-.16-.003-.281-.007-.362-.036-.695-.199-1.256-.487-1.684-.29-.428-.672-.643-1.147-.643h-.567v5.006zm-.871-5.368h1.493c.806 0 1.438.326 1.901.98.357.504.538 1.175.538 2.016 0 .672-.126 1.227-.377 1.662-.188.339-.438.6-.749.789-.313.188-.707.281-1.185.281h-1.622v-5.728zm-5.989.256c-.292 0-.533.131-.721.395a2.653 2.653 0 0 0-.411.956 6.582 6.582 0 0 0-.157 1.108c0 .595.058 1.073.171 1.434.097.366.245.673.449.924.207.251.428.378.669.378a.799.799 0 0 0 .594-.256 1.85 1.85 0 0 0 .395-.652c.1-.265.17-.55.211-.853.045-.299.066-.582.066-.844a5.66 5.66 0 0 0-.123-1.132 2.92 2.92 0 0 0-.405-1.029c-.191-.285-.438-.429-.738-.429m-2.407 2.672c0-.656.103-1.211.308-1.663.203-.454.475-.796.812-1.025.34-.23.715-.36 1.128-.396.348 0 .675.079.981.234.307.154.577.367.809.637a3.214 3.214 0 0 1 .762 2.001c0 .69-.108 1.275-.328 1.755-.219.479-.512.834-.876 1.068a2.158 2.158 0 0 1-1.189.351c-.418-.008-.811-.152-1.18-.436a3.043 3.043 0 0 1-.883-1.102 3.328 3.328 0 0 1-.344-1.424m-4.444 2.801V57.61c0-.28.062-.495.189-.642a.645.645 0 0 1 .513-.224c.314 0 .569.192.765.573l1.499 2.774c.085.181.146.288.183.317.044-.018.066-.199.066-.544v-3.121h.455v5.273c0 .396-.096.596-.287.596-.178 0-.322-.116-.437-.348l-2.181-4.14-.081-.157-.11-.163-.098-.039c-.028 0-.042.039-.042.119v4.595h-.434zm-2.503-2.312l-.578-2.536a.771.771 0 0 0-.07-.205l-.097-.033-.1.053a1.323 1.323 0 0 0-.072.213l-.554 2.509h1.471zm-2.427 2.312l1.052-4.848c.094-.395.205-.663.339-.812a.675.675 0 0 1 .534-.226c.258 0 .444.074.565.223.119.145.23.445.329.896l1.151 4.768h-1.024l-.392-1.741h-1.747l-.372 1.741h-.435zm-1.654-5.736h.979v5.736h-.979v-5.736zm-1.113.079v.411a6.456 6.456 0 0 0-.787-.063c-.278 0-.495.058-.652.174-.157.117-.26.324-.307.618.028.323.213.592.554.812.425.297.723.515.89.65s.325.335.475.597c.149.26.224.579.224.957-.01.552-.186.938-.528 1.164-.345.224-.758.337-1.239.337-.491 0-.876-.053-1.151-.159v-.359c.172.027.464.063.874.107.376-.014.651-.091.825-.233.174-.142.261-.359.261-.654 0-.276-.08-.494-.241-.655a5.065 5.065 0 0 0-.761-.585c-.346-.231-.605-.458-.784-.684-.178-.225-.266-.519-.266-.883 0-.538.16-.944.481-1.218.32-.275.705-.413 1.153-.413.081 0 .183.006.304.014.12.009.228.02.317.027.088.008.208.024.358.038m-3.075-.079v.427h-1.744c-.126 0-.209.015-.253.045-.044.032-.066.116-.066.26v1.766h1.714v.546h-1.714v1.885c0 .127.036.225.107.293a.383.383 0 0 0 .276.104h1.818v.411H98.11c-.481 0-.723-.326-.723-.982v-3.692c0-.355.059-.621.175-.798.117-.174.343-.264.675-.264h2.162zm-5.809-.15h.969v5.13l-.021.13c.011.104.033.166.062.185.03.02.115.03.257.03h1.124v.411H95.23c-.281 0-.459-.08-.532-.24-.07-.16-.106-.391-.106-.691v-4.955zm72.837 0h.969v5.13l-.021.13c.011.104.031.166.06.185.031.02.117.03.258.03h1.125v.411h-1.751c-.282 0-.458-.08-.531-.24-.072-.16-.108-.391-.108-.691v-4.955zm-74.865 3.574l-.576-2.536a.797.797 0 0 0-.071-.205l-.098-.033-.099.053a1.435 1.435 0 0 0-.072.213l-.553 2.509h1.469zm-2.425 2.312l1.052-4.848c.094-.395.206-.663.338-.812a.68.68 0 0 1 .535-.226c.257 0 .445.074.565.223.12.145.229.445.328.896l1.151 4.768h-1.023l-.392-1.741h-1.748l-.37 1.741h-.436zm-4.777-1.089l.469-.464c.173.341.34.588.5.747.157.157.347.263.565.314l.17.028.137.026c.344-.013.641-.143.891-.388.249-.244.382-.568.399-.969 0-.562-.123-.994-.368-1.289-.247-.296-.602-.541-1.06-.731a5.139 5.139 0 0 1-.925-.523 2.06 2.06 0 0 1-.618-.771c-.164-.331-.245-.749-.245-1.252.012-.502.126-.943.342-1.322.216-.378.501-.667.857-.864a2.356 2.356 0 0 1 1.164-.298c.27.015.532.087.788.221a2.337 2.337 0 0 1 1.13 1.306l-.438.372c-.291-.787-.756-1.194-1.396-1.223-.318 0-.585.122-.803.367-.217.245-.336.577-.357 1.001 0 .384.078.683.233.897.153.215.422.434.799.656.277.149.545.296.802.439.258.141.49.309.697.497.205.189.378.443.514.762.135.319.202.715.202 1.186a2.884 2.884 0 0 1-.207 1.063 2.537 2.537 0 0 1-.538.832 2.398 2.398 0 0 1-.758.527 2.2 2.2 0 0 1-.869.18c-.425 0-.825-.112-1.199-.34a2.279 2.279 0 0 1-.878-.987m-6.153-4.384c-.292 0-.533.131-.72.395a2.654 2.654 0 0 0-.412.956 6.686 6.686 0 0 0-.157 1.108c0 .595.058 1.073.171 1.434.096.366.245.673.449.924.206.251.428.378.668.378.23 0 .429-.085.593-.256.166-.17.298-.387.396-.652.099-.265.169-.55.211-.853.044-.299.065-.582.065-.844 0-.354-.042-.731-.122-1.132a2.921 2.921 0 0 0-.406-1.029c-.189-.285-.436-.429-.736-.429M76.8 59.68c0-.656.103-1.211.308-1.663.203-.454.475-.796.813-1.025a2.33 2.33 0 0 1 1.126-.396c.349 0 .675.079.983.234.307.154.577.367.809.637a3.213 3.213 0 0 1 .761 2.001c0 .69-.108 1.275-.329 1.755-.218.479-.512.834-.875 1.068s-.762.351-1.19.351c-.417-.008-.809-.152-1.178-.436a3.025 3.025 0 0 1-.884-1.102 3.313 3.313 0 0 1-.344-1.424m-1.84-2.935h.979v5.736h-.979v-5.736zm-4.373 0h1.946c.407 0 .748.148 1.024.444.276.294.415.682.415 1.162 0 .36-.086.643-.257.846-.172.2-.413.362-.724.483l1.249 2.801h-1.12l-1.149-2.883.127.026a.834.834 0 0 0 .674-.367c.16-.233.242-.535.242-.906 0-.349-.091-.633-.271-.852a.873.873 0 0 0-.708-.328h-.501v5.31h-.947v-5.736zm-1.438-2.87l-1.416 2.018h-.498l1.021-2.018h.893zm-.818 6.294l-.577-2.536a.771.771 0 0 0-.07-.205l-.098-.033-.099.053a1.294 1.294 0 0 0-.073.213l-.554 2.509h1.471zm-2.426 2.312l1.052-4.848c.093-.395.206-.663.337-.812a.677.677 0 0 1 .535-.226c.257 0 .444.074.566.223.12.145.229.445.328.896l1.151 4.768H68.85l-.392-1.741h-1.747l-.372 1.741h-.434zm-2.972-5.736h2.818v.427h-.925v5.31h-.958v-5.31h-.936v-.427zm-1.756 0h.979v5.736h-.979v-5.736zm-1.237.079v.411a6.47 6.47 0 0 0-.787-.063c-.28 0-.496.058-.652.174-.158.117-.26.324-.307.618.028.323.212.592.554.812.426.297.723.515.89.65.167.136.325.335.475.597.149.26.223.579.223.957-.008.552-.186.938-.529 1.164-.343.224-.756.337-1.238.337-.491 0-.876-.053-1.152-.159v-.359c.173.027.464.063.875.107.375-.014.65-.091.824-.233.175-.142.261-.359.261-.654 0-.276-.081-.494-.241-.655a5.154 5.154 0 0 0-.76-.585c-.346-.231-.607-.458-.785-.684-.177-.225-.267-.519-.267-.883 0-.538.161-.944.482-1.218a1.72 1.72 0 0 1 1.155-.413c.08 0 .182.006.303.014.12.009.227.02.316.027.091.008.212.024.36.038m-6.48-.079h1.947c.407 0 .749.148 1.024.444.275.294.415.682.415 1.162 0 .36-.086.643-.258.846-.171.2-.413.362-.724.483l1.25 2.801h-1.12l-1.148-2.883.125.026a.834.834 0 0 0 .675-.367c.161-.233.243-.535.243-.906 0-.349-.091-.633-.272-.852a.866.866 0 0 0-.706-.328h-.502v5.31h-.949v-5.736zm-.916 0v.427H50.8c-.125 0-.208.015-.252.045-.044.032-.067.116-.067.26v1.766h1.714v.546h-1.714v1.885c0 .127.036.225.109.293a.38.38 0 0 0 .276.104h1.817v.411h-2.426c-.482 0-.723-.326-.723-.982v-3.692c0-.355.058-.621.175-.798.117-.174.342-.264.674-.264h2.161zm-7.714 0h1.053l1.107 4.672c.036.168.086.262.148.278.055 0 .108-.092.16-.278l1.063-4.672h.48l-1.127 4.807c-.101.428-.211.715-.336.864-.126.149-.312.226-.558.226-.228 0-.401-.077-.524-.229-.121-.151-.231-.419-.329-.807l-1.137-4.861zm-1.756 0h.979v5.736h-.979v-5.736zm-4.978 5.736V57.61c0-.28.062-.495.189-.642a.643.643 0 0 1 .512-.224c.316 0 .569.192.766.573l1.499 2.774c.085.181.146.288.183.317.044-.018.065-.199.065-.544v-3.121h.457v5.273c0 .396-.096.596-.287.596-.178 0-.322-.116-.438-.348l-2.18-4.14-.081-.157-.11-.163-.097-.039c-.029 0-.042.039-.042.119v4.595h-.436zm-5.08-8.606v6.162c0 .527.146.954.44 1.275.295.321.662.502 1.101.543.353-.025.666-.119.938-.278.224-.163.388-.359.489-.597.101-.235.151-.54.151-.914v-6.191h.564v6.352c0 .536-.106.996-.314 1.37a2.034 2.034 0 0 1-.873.846c-.373.188-.801.279-1.285.279-.415 0-.782-.065-1.1-.196a2.055 2.055 0 0 1-.792-.562 2.386 2.386 0 0 1-.472-.883 4.028 4.028 0 0 1-.156-1.164v-6.041h1.309zm136.628 5.805c0-.656.102-1.211.307-1.663.203-.454.475-.796.813-1.025.339-.23.715-.36 1.127-.396.347 0 .675.079.981.234.309.154.578.367.81.637.231.271.414.577.547.922s.203.704.215 1.079c0 .69-.11 1.275-.33 1.755-.218.479-.51.834-.875 1.068-.364.234-.76.351-1.189.351-.419-.008-.811-.152-1.179-.436a3.012 3.012 0 0 1-.883-1.102 3.285 3.285 0 0 1-.344-1.424m2.407-2.672c-.294 0-.533.131-.722.395a2.653 2.653 0 0 0-.411.956 6.481 6.481 0 0 0-.157 1.108c0 .595.057 1.073.171 1.434.097.366.245.673.45.924s.428.378.669.378a.8.8 0 0 0 .594-.256 1.88 1.88 0 0 0 .396-.652c.097-.265.167-.55.211-.853.043-.299.065-.582.065-.844 0-.354-.042-.731-.123-1.132a2.922 2.922 0 0 0-.407-1.029c-.19-.285-.436-.429-.736-.429"/></svg>