<svg width="403" height="338" viewBox="0 0 403 338" xmlns="http://www.w3.org/2000/svg"><title>zeplin</title><g fill="none"><path d="M123.48 204l-11.844 4.265L111 243l41-14.765c-14.063-4.657-24.332-12.85-28.52-24.235" fill="#FDBD39"/><path d="M130 167l-41 14.798L112 208l11.816-4.265C119.65 192.384 122.219 179.552 130 167" fill="#F69833"/><path d="M199.14 116.194c-52.196 19.051-85.847 58.363-75.16 87.806L313 135.01c-10.686-29.443-61.663-37.867-113.86-18.816" fill="#FECF33"/><path d="M237.849 221.766c52.191-19.042 85.902-58.162 75.154-87.766L124 202.96c10.749 29.603 61.657 37.849 113.849 18.806" fill="#EE6723"/><path d="M313.073 134L124 202.817C127.702 212.989 141.82 218 161.63 218c19.313 0 44.035-4.76 69.81-14.14 52.21-19.004 88.944-49.771 81.633-69.86" fill="#F69833"/><path d="M275.37 119c-19.313 0-44.035 4.76-69.81 14.14-52.21 19.004-88.944 49.771-81.633 69.86L313 134.183C309.298 124.011 295.18 119 275.37 119" fill="#FDBD39"/><path d="M264.622 245h-.002c-5.558 0-13.76-5.03-24.375-14.948-12.558-11.735-26.944-28.922-40.508-48.396-13.563-19.473-24.709-38.942-31.382-54.82-7.272-17.303-8.308-27.942-3.082-31.622 1.146-.806 2.528-1.214 4.106-1.214 4.251 0 12.535 3.17 27.853 18.275l.335.33-.045.47a200.77 200.77 0 0 0-.288 3.254l-.17 2.134-1.503-1.517c-16.505-16.655-23.77-18.453-26.128-18.453-.672 0-1.208.137-1.592.408-2.267 1.595-2.413 9.41 4.637 26.183 6.555 15.595 17.538 34.77 30.926 53.99 13.388 19.223 27.554 36.157 39.888 47.682 13.3 12.427 19.294 13.769 21.254 13.769.677 0 1.227-.146 1.634-.433 2.392-1.683 2.395-10.055-5.467-28.108l-.36-.83.79-.432c.79-.434 1.554-.86 2.27-1.268l.947-.54.436 1.002c5.574 12.793 10.785 29.052 3.952 33.862-1.152.811-2.54 1.222-4.126 1.222zm-.002-1.973h.002l-.001.986v-.986z" fill="#EE6723"/><path d="M239 222.138l-.079.985c-1.31 16.372-4.757 36.056-13.747 36.852a5.988 5.988 0 0 1-.556.025c-6.108 0-11.886-8.842-17.173-26.28-5.003-16.497-8.886-38.647-10.932-62.37-2.047-23.717-2.016-46.214.086-63.346 2.292-18.669 6.654-28.418 12.965-28.978.187-.017.38-.026.571-.026 4.43 0 11.108 5.069 17.943 28.68l-4.463.87c-2.282-7.89-4.77-14.307-7.239-18.717-2.284-4.078-4.505-6.324-6.254-6.324-.057 0-.115.002-.172.007-2.736.243-6.72 6.948-8.94 25.045-2.065 16.824-2.09 38.984-.07 62.398 2.02 23.416 5.839 45.235 10.752 61.437 2.2 7.256 4.614 13.236 6.98 17.294 2.181 3.742 4.292 5.803 5.944 5.803.057 0 .114-.002.17-.007 2.618-.232 7.55-7.21 9.626-31.757l4.588-1.591" fill="#EE6723"/></g></svg>