<?xml version="1.0" encoding="utf-8"?>
<!-- Generator: Adobe Illustrator 16.0.0, SVG Export Plug-In . SVG Version: 6.00 Build 0)  -->
<!DOCTYPE svg PUBLIC "-//W3C//DTD SVG 1.1//EN" "http://www.w3.org/Graphics/SVG/1.1/DTD/svg11.dtd">
<svg version="1.1" id="Layer_1" xmlns="http://www.w3.org/2000/svg" xmlns:xlink="http://www.w3.org/1999/xlink" x="0px" y="0px"
	 width="16px" height="24px" viewBox="0 0 16 24" enable-background="new 0 0 16 24" xml:space="preserve">
<g>
	<path fill="#cecece" d="M6.424,12.612v0.102c-0.147,0.136-0.708,0.524-2.796,1.331c-0.315,0.122-0.52,0.421-0.52,0.762v0.622
		c0,0.276,0.224,0.5,0.5,0.5s0.5-0.224,0.5-0.5v-0.498c2.827-1.101,3.178-1.551,3.293-1.918c0.015-0.048,0.022-0.099,0.022-0.149
		V12.42c0-0.131-0.052-0.256-0.143-0.35c-0.238-0.243-0.425-0.586-0.538-0.993c-0.031-0.111-0.1-0.208-0.193-0.274
		c-0.047-0.033-0.079-0.087-0.088-0.147c-0.006-0.043-0.002-0.107,0.05-0.171c0.072-0.089,0.111-0.2,0.111-0.315V9.177
		c0-0.814,0.463-1.227,1.377-1.227c0.938,0,1.375,0.39,1.375,1.227v0.993c0,0.115,0.04,0.227,0.112,0.316
		c0.052,0.063,0.056,0.128,0.05,0.171c-0.009,0.06-0.04,0.113-0.087,0.146c-0.095,0.066-0.163,0.163-0.194,0.274
		c-0.114,0.407-0.301,0.751-0.538,0.994c-0.092,0.094-0.143,0.219-0.143,0.35v0.444c0,0.05,0.008,0.101,0.022,0.149
		c0.114,0.367,0.466,0.817,3.293,1.918v0.498c0,0.276,0.224,0.5,0.5,0.5s0.5-0.224,0.5-0.5v-0.622c0-0.337-0.21-0.644-0.52-0.762
		c-2.169-0.838-2.69-1.225-2.796-1.312v-0.122c0.256-0.307,0.46-0.687,0.598-1.114c0.191-0.187,0.317-0.435,0.354-0.704
		c0.038-0.273-0.016-0.543-0.152-0.778V9.177c0-1.394-0.888-2.227-2.375-2.227c-1.466,0-2.377,0.853-2.377,2.227v0.84
		c-0.136,0.234-0.189,0.503-0.151,0.776c0.037,0.269,0.163,0.517,0.354,0.704C5.963,11.925,6.167,12.305,6.424,12.612z"/>
	<path fill="#cecece" d="M6.079,4.956C6.155,5.561,6.679,6,7.325,6h1.349c0.647,0,1.172-0.436,1.245-1.034l0.448-3.566
		c0.044-0.344-0.064-0.683-0.304-0.955C9.818,0.167,9.466,0,9.122,0H6.877C6.534,0,6.184,0.165,5.94,0.44S5.588,1.062,5.632,1.414
		L6.079,4.956z M6.69,1.102C6.75,1.035,6.829,1,6.877,1h2.245C9.17,1,9.253,1.037,9.313,1.106c0.033,0.038,0.07,0.097,0.062,0.168
		L8.927,4.842C8.913,4.951,8.786,5,8.674,5H7.325C7.21,5,7.085,4.942,7.071,4.831L6.624,1.289C6.614,1.208,6.654,1.143,6.69,1.102z"
		/>
	<path fill="#cecece" d="M13.643,4H12c-0.276,0-0.5,0.224-0.5,0.5S11.724,5,12,5h1.643C14.391,5,15,5.554,15,6.235V17H1V6.235
		C1,5.554,1.608,5,2.356,5H4c0.276,0,0.5-0.224,0.5-0.5S4.276,4,4,4H2.356C1.057,4,0,5.003,0,6.235v15.639
		C0,23.086,1.013,24,2.356,24h11.286C14.986,24,16,23.086,16,21.875V6.235C16,5.003,14.942,4,13.643,4z M13.643,23H2.356
		C1.699,23,1,22.605,1,21.875V18h14v3.875C15,22.605,14.301,23,13.643,23z"/>
	<path fill="#cecece" d="M12.391,20H8.608c-0.276,0-0.5,0.225-0.5,0.5c0,0.277,0.224,0.5,0.5,0.5h3.782c0.276,0,0.5-0.223,0.5-0.5
		C12.891,20.224,12.667,20,12.391,20z"/>
	<path fill="#cecece" d="M5.608,20h-2c-0.276,0-0.5,0.225-0.5,0.5c0,0.277,0.224,0.5,0.5,0.5h2c0.276,0,0.5-0.223,0.5-0.5
		C6.108,20.224,5.885,20,5.608,20z"/>
	<path fill="#cecece" d="M7.999,3.019c0.14,0,0.27-0.05,0.35-0.15c0.101-0.09,0.15-0.22,0.15-0.35c0-0.12-0.05-0.25-0.15-0.35
		c-0.18-0.19-0.489-0.2-0.71,0c-0.09,0.1-0.14,0.22-0.14,0.35s0.05,0.26,0.149,0.36C7.739,2.969,7.869,3.019,7.999,3.019z"/>
</g>
</svg>
