<?xml version="1.0" encoding="utf-8"?>
<!-- Generator: Adobe Illustrator 16.0.0, SVG Export Plug-In . SVG Version: 6.00 Build 0)  -->
<!DOCTYPE svg PUBLIC "-//W3C//DTD SVG 1.1//EN" "http://www.w3.org/Graphics/SVG/1.1/DTD/svg11.dtd">
<svg version="1.1" id="Layer_1" xmlns="http://www.w3.org/2000/svg" xmlns:xlink="http://www.w3.org/1999/xlink" x="0px" y="0px"
	 width="23.91px" height="23.774px" viewBox="0 0 23.91 23.774" enable-background="new 0 0 23.91 23.774" xml:space="preserve">
<g>
	<path fill="#fff" d="M23.492,1.026l-6.112-1.02c-0.099-0.017-0.199-0.002-0.29,0.038l-5.691,2.601L6.632,0.468
		C6.51,0.412,6.371,0.407,6.248,0.455L0.324,2.685C0.129,2.758,0,2.944,0,3.152v15.145c0,0.164,0.08,0.317,0.216,0.411
		C0.3,18.767,0.399,18.797,0.5,18.797c0.06,0,0.119-0.011,0.176-0.032l5.731-2.158l4.559,2.04c0.252,0.115,0.548,0,0.66-0.252
		c0.113-0.252,0-0.548-0.252-0.66L6.628,15.61c-0.12-0.054-0.257-0.058-0.38-0.012L1,17.574V3.498l5.405-2.034L11.19,3.65
		c0.133,0.061,0.283,0.061,0.416,0l5.76-2.632l5.544,0.925v14.118L21.5,15.8c-0.275-0.053-0.533,0.129-0.583,0.399
		c-0.051,0.271,0.128,0.533,0.399,0.583l2.002,0.372c0.15,0.028,0.298-0.012,0.411-0.106c0.114-0.096,0.181-0.236,0.181-0.385V1.52
		C23.91,1.275,23.733,1.066,23.492,1.026z"/>
	<path fill="#fff" d="M5.924,3.835v9.61c0,0.276,0.224,0.5,0.5,0.5s0.5-0.224,0.5-0.5v-9.61c0-0.276-0.224-0.5-0.5-0.5
		S5.924,3.559,5.924,3.835z"/>
	<path fill="#fff" d="M11.898,9.361V5.695c0-0.276-0.224-0.5-0.5-0.5s-0.5,0.224-0.5,0.5v3.666c0,0.276,0.224,0.5,0.5,0.5
		S11.898,9.638,11.898,9.361z"/>
	<path fill="#fff" d="M17.904,8.01V3.152c0-0.276-0.224-0.5-0.5-0.5s-0.5,0.224-0.5,0.5V8.01c0,0.276,0.224,0.5,0.5,0.5
		S17.904,8.286,17.904,8.01z"/>
	<path fill="#fff" d="M15.904,9.97c-2.587,0-4.691,2.094-4.691,4.668c0,2.385,3.837,8.252,4.274,8.913
		c0.093,0.14,0.249,0.224,0.417,0.224s0.324-0.084,0.417-0.224c0.438-0.661,4.274-6.528,4.274-8.913
		C20.596,12.063,18.491,9.97,15.904,9.97z M15.904,22.354c-1.318-2.076-3.691-6.139-3.691-7.717c0-2.022,1.656-3.668,3.691-3.668
		s3.691,1.646,3.691,3.668C19.596,16.216,17.223,20.278,15.904,22.354z"/>
	<path fill="#fff" d="M15.904,12.805c-0.848,0-1.537,0.687-1.537,1.531s0.689,1.531,1.537,1.531s1.537-0.687,1.537-1.531
		S16.752,12.805,15.904,12.805z M15.904,14.867c-0.296,0-0.537-0.238-0.537-0.531s0.241-0.531,0.537-0.531s0.537,0.238,0.537,0.531
		S16.2,14.867,15.904,14.867z"/>
</g>
</svg>
