<?xml version="1.0" standalone="no"?>
<!DOCTYPE svg PUBLIC "-//W3C//DTD SVG 1.1//EN" "http://www.w3.org/Graphics/SVG/1.1/DTD/svg11.dtd" >
<svg xmlns="http://www.w3.org/2000/svg">
<metadata></metadata>
<defs>
<font id="cpmono_v07extralight" horiz-adv-x="1331" >
<font-face units-per-em="2048" ascent="1556" descent="-492" />
<missing-glyph horiz-adv-x="500" />
<glyph horiz-adv-x="0" />
<glyph horiz-adv-x="682" />
<glyph unicode=" " />
<glyph unicode="!" d="M614 0v92h103v-92h-103zM643 254v1147h45v-1147h-45z" />
<glyph unicode="&#x22;" d="M518 1296v293h53v-293h-53zM762 1296v293h53v-293h-53z" />
<glyph unicode="#" d="M174 344v41h293v279h-293v41h293v319h45v-319h287v319h45v-319h293v-41h-293v-279h293v-41h-293v-344h-45v344h-287v-344h-45v344h-293zM512 385h287v279h-287v-279z" />
<glyph unicode="$" d="M203 250v37l45 18v-51q0 -61 8.5 -98.5t33 -65t67.5 -38.5t112 -11h391q69 0 112 11t67.5 38.5t33 65t8.5 98.5v227q0 61 -8.5 98.5t-33 65t-67.5 38.5t-112 11h-395q-149 0 -205.5 57.5t-56.5 192.5v207q0 135 56.5 192.5t205.5 57.5h178v184h45v-184h176 q149 0 205.5 -57.5t56.5 -192.5v-37l-45 -18v51q0 61 -8.5 98.5t-33 65t-67.5 38.5t-112 11h-391q-69 0 -112 -11t-67.5 -38.5t-33 -65t-8.5 -98.5v-199q0 -61 8.5 -98.5t33 -65t67.5 -38.5t112 -11h395q149 0 205.5 -57.5t56.5 -192.5v-235q0 -135 -56.5 -192.5 t-205.5 -57.5h-176v-184h-45v184h-178q-149 0 -205.5 57.5t-56.5 192.5z" />
<glyph unicode="%" d="M197 442v45l938 471v-45zM197 1006v348q0 66 39 105.5t112 39.5h189q73 0 112 -39.5t39 -105.5v-348q0 -66 -39 -106t-112 -40h-189q-73 0 -112 40t-39 106zM242 1022q0 -60 29 -90.5t96 -30.5h151q125 0 125 121v315q0 121 -125 121h-151q-68 0 -96.5 -30t-28.5 -91 v-315zM643 47v348q0 66 39.5 106t112.5 40h188q73 0 112.5 -40t39.5 -106v-348q0 -66 -39.5 -105.5t-112.5 -39.5h-188q-73 0 -112.5 39.5t-39.5 105.5zM688 63q0 -59 29 -89.5t96 -30.5h152q125 0 125 120v316q0 121 -125 121h-152q-68 0 -96.5 -30t-28.5 -91v-316z" />
<glyph unicode="&#x26;" d="M59 250v235q0 116 32.5 165t105.5 65q-73 16 -105.5 64.5t-32.5 164.5v207q0 136 56.5 193t206.5 57h419q150 0 206.5 -57.5t56.5 -192.5v-16l-46 -19v31q0 61 -8.5 98.5t-33 65t-67.5 38.5t-112 11h-411q-69 0 -112 -11t-67.5 -38t-33.5 -65t-9 -99v-199 q0 -120 45 -166.5t177 -46.5h135v-41h-135q-132 0 -177 -46.5t-45 -166.5v-227q0 -61 9 -99t33.5 -65t67.5 -38t112 -11h411q69 0 112 11t67.5 38.5t33 65t8.5 98.5v440h-286v41h286v211l46 19v-230h276v-41h-276v-444q0 -135 -56.5 -192.5t-206.5 -57.5h-419 q-150 0 -206.5 57.5t-56.5 192.5z" />
<glyph unicode="'" d="M639 1296v293h53v-293h-53z" />
<glyph unicode="(" d="M475 -98v1497q0 136 56.5 193t207.5 57h117v-41h-117q-68 0 -111 -11t-67 -38t-32.5 -65t-8.5 -99v-1489q0 -61 8.5 -99t32.5 -65t67 -38t111 -11h117v-41h-117q-151 0 -207.5 57t-56.5 193z" />
<glyph unicode=")" d="M475 -307h117q68 0 111 11t67 38t32.5 65t8.5 99v1489q0 61 -8.5 99t-32.5 65t-67 38t-111 11h-117v41h117q151 0 207.5 -57t56.5 -193v-1497q0 -136 -56.5 -193t-207.5 -57h-117v41z" />
<glyph unicode="*" d="M219 1456l43 25l381 -224l2 3l-2 464l43 -24l-2 -440l2 -3l401 236v-49l-382 -219v-2l405 -232l-43 -24l-381 223l-2 -2l2 -465l-43 25l2 440l-2 2l-401 -236v50l383 219v2z" />
<glyph unicode="+" d="M221 598v41h422v424h45v-424h422v-41h-422v-424h-45v424h-422z" />
<glyph unicode="," d="M590 -88h24q48 0 48 72v16h-48v92h103v-115q0 -49 -22 -77.5t-66 -28.5h-25z" />
<glyph unicode="-" d="M336 598v41h659v-41h-659z" />
<glyph unicode="." d="M614 0v92h103v-92h-103z" />
<glyph unicode="/" d="M336 -186l610 1742h47l-610 -1742h-47z" />
<glyph unicode="0" d="M203 250v901q0 136 56 193t206 57h399q150 0 206 -57t56 -193v-901q0 -135 -56.5 -192.5t-205.5 -57.5h-399q-149 0 -205.5 57.5t-56.5 192.5zM248 254q0 -61 8.5 -98.5t33 -65t67.5 -38.5t112 -11h391q69 0 112 11t67.5 38.5t33 65t8.5 98.5v893q0 61 -8.5 98.5t-33 65 t-67.5 38.5t-112 11h-391q-69 0 -112 -11t-67.5 -38.5t-33 -65t-8.5 -98.5v-893z" />
<glyph unicode="1" d="M301 0v41h424v1319h-383v41h428v-1360h424v-41h-893z" />
<glyph unicode="2" d="M156 0v35l831 796q59 57 73.5 99.5t14.5 132.5v84q0 61 -8.5 98.5t-33 65t-67.5 38.5t-112 11h-391q-69 0 -112 -11t-67.5 -38.5t-33 -65t-8.5 -98.5v-51l-45 18v37q0 135 56.5 192.5t205.5 57.5h399q149 0 205.5 -57.5t56.5 -192.5v-94q0 -96 -19.5 -146t-80.5 -110 l-795 -758v-2h992v-41h-1061z" />
<glyph unicode="3" d="M203 250v31l45 18v-45q0 -61 8.5 -98.5t33 -65t67.5 -38.5t112 -11h391q69 0 112 11t67.5 38.5t33 65t8.5 98.5v227q0 120 -44.5 166.5t-176.5 46.5h-395v41h395q132 0 176.5 46.5t44.5 166.5v199q0 61 -8.5 98.5t-33 65t-67.5 38.5t-112 11h-391q-69 0 -112 -11 t-67.5 -38.5t-33 -65t-8.5 -98.5v-51l-45 18v37q0 135 56.5 192.5t205.5 57.5h399q149 0 205.5 -57.5t56.5 -192.5v-207q0 -116 -32 -164.5t-105 -64.5q73 -16 105 -65t32 -165v-235q0 -135 -56.5 -192.5t-205.5 -57.5h-399q-149 0 -205.5 57.5t-56.5 192.5z" />
<glyph unicode="4" d="M127 406v36l813 959h47v-955h297v-40h-297v-406h-45v406h-815zM186 446h756v891z" />
<glyph unicode="5" d="M227 250v51l45 -18v-29q0 -61 9 -99t33.5 -65t67.5 -38t112 -11h370q69 0 112 11t67.5 38.5t33 65t8.5 98.5v309q0 61 -8.5 98.5t-33 65t-67.5 38.5t-112 11h-370q-70 0 -114.5 -10.5t-68 -34t-31.5 -53t-8 -76.5h-45v799h918v-41h-873v-612q40 69 217 69h379 q149 0 205.5 -57.5t56.5 -192.5v-317q0 -135 -56.5 -192.5t-205.5 -57.5h-379q-149 0 -205.5 57.5t-56.5 192.5z" />
<glyph unicode="6" d="M223 250v901q0 134 56.5 192t205.5 58h402q148 0 204 -58t56 -192v-37l-45 -18v51q0 61 -8.5 98.5t-33 65t-67.5 38.5t-112 11h-392q-132 0 -176.5 -46.5t-44.5 -166.5v-420q41 70 217 70h400q149 0 205.5 -57.5t56.5 -192.5v-297q0 -135 -56.5 -192.5t-205.5 -57.5h-400 q-149 0 -205.5 57.5t-56.5 192.5zM268 254q0 -120 44.5 -166.5t176.5 -46.5h392q69 0 112 11t67.5 38.5t33 65t8.5 98.5v289q0 61 -8.5 98.5t-33 65t-67.5 38.5t-112 11h-392q-70 0 -114.5 -10.5t-67.5 -34t-31 -53t-8 -76.5v-328z" />
<glyph unicode="7" d="M213 1360v41h905v-43l-620 -1358h-52l625 1360h-858z" />
<glyph unicode="8" d="M203 250v235q0 116 32 165t105 65q-73 16 -105 64.5t-32 164.5v207q0 135 56.5 192.5t205.5 57.5h399q149 0 205.5 -57.5t56.5 -192.5v-207q0 -116 -32 -164.5t-105 -64.5q73 -16 105 -65t32 -165v-235q0 -135 -56.5 -192.5t-205.5 -57.5h-399q-149 0 -205.5 57.5 t-56.5 192.5zM248 254q0 -61 8.5 -98.5t33 -65t67.5 -38.5t112 -11h391q69 0 112 11t67.5 38.5t33 65t8.5 98.5v227q0 120 -44 166.5t-173 46.5h-399q-129 0 -173 -46.5t-44 -166.5v-227zM248 948q0 -120 44 -166.5t173 -46.5h399q129 0 173 46.5t44 166.5v199 q0 61 -8.5 98.5t-33 65t-67.5 38.5t-112 11h-391q-69 0 -112 -11t-67.5 -38.5t-33 -65t-8.5 -98.5v-199z" />
<glyph unicode="9" d="M182 250v37l45 18v-51q0 -61 9 -99t33.5 -65t67.5 -38t112 -11h391q132 0 176.5 46.5t44.5 166.5v440q-40 -69 -217 -69h-400q-150 0 -206 57t-56 192v277q0 135 56.5 192.5t205.5 57.5h400q149 0 205.5 -57.5t56.5 -192.5v-901q0 -134 -56.5 -192t-205.5 -58h-402 q-148 0 -204 58t-56 192zM227 879q0 -61 9 -99t33.5 -65t67.5 -38t112 -11h391q70 0 114.5 10.5t67.5 34t31 53t8 76.5v307q0 120 -44.5 166.5t-176.5 46.5h-391q-69 0 -112 -11t-67.5 -38t-33.5 -65t-9 -99v-268z" />
<glyph unicode=":" d="M614 0v92h103v-92h-103zM614 854v92h103v-92h-103z" />
<glyph unicode=";" d="M590 -88h24q48 0 48 72v16h-48v92h103v-115q0 -49 -22 -77.5t-66 -28.5h-25zM614 854v92h103v-92h-103z" />
<glyph unicode="&#x3c;" d="M276 602v37l779 403v-45l-727 -374v-5l727 -374v-45z" />
<glyph unicode="=" d="M252 414v41h827v-41h-827zM252 782v41h827v-41h-827z" />
<glyph unicode="&#x3e;" d="M276 199v45l728 374v5l-728 374v45l779 -403v-37z" />
<glyph unicode="?" d="M172 1053v98q0 135 56.5 192.5t205.5 57.5h420q149 0 205.5 -57.5t56.5 -192.5v-207q0 -135 -56.5 -192.5t-205.5 -57.5h-45q-69 0 -112 -11t-67.5 -38.5t-33 -65t-8.5 -98.5v-227h-45v231q0 135 56.5 192.5t205.5 57.5h45q69 0 112 11t67.5 38.5t33 65t8.5 98.5v199 q0 61 -8.5 98.5t-33 65t-67.5 38.5t-112 11h-412q-69 0 -112 -11t-67.5 -38.5t-33 -65t-8.5 -98.5v-113zM514 0v92h102v-92h-102z" />
<glyph unicode="@" d="M51 -98v872q0 135 56.5 192.5t205.5 57.5h705q149 0 205.5 -57.5t56.5 -192.5v-541q0 -142 -31 -187.5t-133 -45.5h-49q-90 0 -123.5 33.5t-40.5 99.5h-2q-4 -13 -10 -26t-22.5 -34t-38.5 -35.5t-60 -26t-84 -11.5h-113q-113 0 -156.5 49.5t-43.5 175.5v236 q0 126 43.5 175.5t156.5 49.5h113q46 0 84 -11.5t60 -26t38.5 -35.5t22.5 -34t10 -26h2v115h45v-457q0 -57 3.5 -84.5t18 -50t42.5 -29t80 -6.5q27 0 46.5 1t35 6.5t25.5 10t17.5 18t10.5 23.5t5 33.5t2.5 41t0.5 52.5v543q0 61 -8.5 98.5t-33 65t-67.5 38.5t-112 11h-697 q-69 0 -112 -11t-67.5 -38.5t-33 -65t-8.5 -98.5v-864q0 -61 8.5 -98.5t33 -65t67.5 -38.5t112 -11h961l-18 -41h-947q-149 0 -205.5 57.5t-56.5 192.5zM418 233q0 -109 32 -150.5t128 -41.5h98q113 0 170 66.5t57 166.5v138q0 100 -57 166.5t-170 66.5h-98 q-96 0 -128 -41.5t-32 -150.5v-220z" />
<glyph unicode="A" d="M123 0v330l520 1071h45l520 -1071v-330h-45v315l-108 230h-779l-108 -230v-315h-45zM297 586h737l-366 762h-4z" />
<glyph unicode="B" d="M203 0v1401h661q150 0 206 -57t56 -193v-207q0 -116 -32 -164.5t-105 -64.5q73 -16 105 -65t32 -165v-235q0 -135 -56.5 -192.5t-205.5 -57.5h-661zM248 41h612q69 0 112 11t67.5 38.5t33 65t8.5 98.5v227q0 120 -44.5 166.5t-176.5 46.5h-612v-653zM248 735h612 q132 0 176.5 46.5t44.5 166.5v199q0 61 -8.5 98.5t-33 65t-67.5 38.5t-112 11h-612v-625z" />
<glyph unicode="C" d="M203 250v901q0 135 56.5 192.5t205.5 57.5h409q150 0 206.5 -57.5t56.5 -192.5v-37l-45 -18v51q0 61 -9 99t-33.5 65t-67.5 38t-112 11h-401q-69 0 -112 -11t-67.5 -38.5t-33 -65t-8.5 -98.5v-893q0 -61 8.5 -98.5t33 -65t67.5 -38.5t112 -11h401q69 0 112 11t67.5 38 t33.5 65t9 99v51l45 -18v-37q0 -135 -56.5 -192.5t-206.5 -57.5h-409q-149 0 -205.5 57.5t-56.5 192.5z" />
<glyph unicode="D" d="M193 0v1401h684q148 0 204 -57t56 -193v-901q0 -135 -56.5 -192.5t-206.5 -57.5h-681zM238 41h632q69 0 112 11t67.5 38t33.5 65t9 99v893q0 61 -9 99t-33.5 65t-67.5 38t-112 11h-632v-1319z" />
<glyph unicode="E" d="M236 0v1401h890v-41h-845v-625h737v-41h-737v-653h845v-41h-890z" />
<glyph unicode="F" d="M256 0v1401h911v-41h-866v-625h758v-41h-758v-694h-45z" />
<glyph unicode="G" d="M193 250v901q0 136 56 193t206 57h419q150 0 206.5 -57t56.5 -193v-37l-45 -18v51q0 61 -9 99t-33.5 65t-67.5 38t-112 11h-411q-69 0 -112 -11t-67.5 -38.5t-33 -65t-8.5 -98.5v-893q0 -61 8.5 -99t32.5 -65t65.5 -38t108.5 -11h417q69 0 112 11t67.5 38t33.5 65t9 99 v440h-400v41h445v-485q0 -135 -56.5 -192.5t-206.5 -57.5h-419q-149 0 -205.5 57.5t-56.5 192.5z" />
<glyph unicode="H" d="M172 0v1401h45v-666h895v666h45v-1401h-45v694h-895v-694h-45z" />
<glyph unicode="I" d="M213 0v41h430v1319h-403v41h852v-41h-404v-1319h428v-41h-903z" />
<glyph unicode="J" d="M193 250v108l45 19v-123q0 -61 8.5 -98.5t33 -65t67.5 -38.5t112 -11h391q69 0 112 11.5t67.5 38.5t33 65t8.5 98v1106h-811v41h856v-1151q0 -135 -56.5 -192.5t-205.5 -57.5h-399q-149 0 -205.5 57.5t-56.5 192.5z" />
<glyph unicode="K" d="M219 0v1401h45v-877h2l862 877h66l-543 -549l484 -465v-387h-45v371l-469 450l-357 -360v-461h-45z" />
<glyph unicode="L" d="M256 0v1401h45v-1360h866v-41h-911z" />
<glyph unicode="M" d="M141 0v1401h47l478 -778l477 778h47v-1401h-45v1317h-2l-461 -754h-33l-461 754h-2v-1317h-45z" />
<glyph unicode="N" d="M182 0v1401h43l875 -1317h2v1317h45v-1401h-43l-875 1319h-2v-1319h-45z" />
<glyph unicode="O" d="M172 250v901q0 136 56 193t206 57h461q150 0 206 -57t56 -193v-901q0 -135 -56.5 -192.5t-205.5 -57.5h-461q-149 0 -205.5 57.5t-56.5 192.5zM217 254q0 -61 8.5 -98.5t33 -65t67.5 -38.5t112 -11h453q69 0 112 11t67.5 38.5t33 65t8.5 98.5v893q0 61 -8.5 98.5t-33 65 t-67.5 38.5t-112 11h-453q-69 0 -112 -11t-67.5 -38.5t-33 -65t-8.5 -98.5v-893z" />
<glyph unicode="P" d="M254 0v1401h651q149 0 205.5 -57.5t56.5 -192.5v-207q0 -135 -56.5 -192.5t-205.5 -57.5h-606v-694h-45zM299 735h602q69 0 112 11t67.5 38.5t33 65t8.5 98.5v199q0 61 -8.5 98.5t-33 65t-67.5 38.5t-112 11h-602v-625z" />
<glyph unicode="Q" d="M184 250v901q0 136 56 193t206 57h441q150 0 206 -57t56 -193v-901q0 -124 -46.5 -182.5t-164.5 -67.5l309 -266h-65l-299 266h-437q-149 0 -205.5 57.5t-56.5 192.5zM229 254q0 -61 9 -99t33.5 -65t67.5 -38t112 -11h432q69 0 112 11t67.5 38.5t33 65t8.5 98.5v893 q0 61 -8.5 98.5t-33 65t-67.5 38.5t-112 11h-432q-69 0 -112 -11t-67.5 -38t-33.5 -65t-9 -99v-893z" />
<glyph unicode="R" d="M233 0v1401h641q150 0 206.5 -57.5t56.5 -192.5v-207q0 -135 -56.5 -192.5t-206.5 -57.5l263 -389v-305h-45v289l-275 405h-538v-694h-46zM279 735h591q69 0 112 11t67.5 38t33.5 65t9 99v199q0 61 -9 99t-33.5 65t-67.5 38t-112 11h-591v-625z" />
<glyph unicode="S" d="M203 250v37l45 18v-51q0 -61 8.5 -98.5t33 -65t67.5 -38.5t112 -11h391q69 0 112 11t67.5 38.5t33 65t8.5 98.5v227q0 61 -8.5 98.5t-33 65t-67.5 38.5t-112 11h-395q-149 0 -205.5 57.5t-56.5 192.5v207q0 135 56.5 192.5t205.5 57.5h399q149 0 205.5 -57.5t56.5 -192.5 v-37l-45 -18v51q0 61 -8.5 98.5t-33 65t-67.5 38.5t-112 11h-391q-69 0 -112 -11t-67.5 -38.5t-33 -65t-8.5 -98.5v-199q0 -61 8.5 -98.5t33 -65t67.5 -38.5t112 -11h395q149 0 205.5 -57.5t56.5 -192.5v-235q0 -135 -56.5 -192.5t-205.5 -57.5h-399q-149 0 -205.5 57.5 t-56.5 192.5z" />
<glyph unicode="T" d="M117 1360v41h1097v-41h-526v-1360h-45v1360h-526z" />
<glyph unicode="U" d="M193 250v1151h45v-1147q0 -61 8.5 -98.5t33.5 -65t69.5 -38.5t115.5 -11h405q69 0 112 11t67.5 38t33.5 65t9 99v1147h45v-1151q0 -135 -56.5 -192.5t-206.5 -57.5h-419q-149 0 -205.5 57.5t-56.5 192.5z" />
<glyph unicode="V" d="M143 1085v316h45v-305l476 -1039h4l475 1039v305h45v-316l-500 -1085h-45z" />
<glyph unicode="W" d="M109 1085v316h45v-305l211 -1012h2l278 758h41l279 -758h2l211 1012v305h45v-316l-230 -1085h-45l-280 766h-4l-281 -766h-45z" />
<glyph unicode="X" d="M174 0v307l459 414l-412 373v307h45v-287l400 -364l399 364v287h45v-307l-412 -373l459 -414v-307h-45v287l-446 403l-447 -403v-287h-45z" />
<glyph unicode="Y" d="M174 1051v350h45v-332l447 -401l446 401v332h45v-350l-469 -420v-631h-45v631z" />
<glyph unicode="Z" d="M180 0v39l875 1321h-832v41h885v-43l-870 -1317h911v-41h-969z" />
<glyph unicode="[" d="M475 -348v1997h381v-41h-336v-1915h336v-41h-381z" />
<glyph unicode="\" d="M336 1556h47l610 -1742h-47z" />
<glyph unicode="]" d="M475 -307h336v1915h-336v41h381v-1997h-381v41z" />
<glyph unicode="^" d="M248 940l403 516h29l403 -516h-57l-360 465l-361 -465h-57z" />
<glyph unicode="_" d="M57 0v45h1217v-45h-1217z" />
<glyph unicode="`" d="M551 1464h49l178 -221h-51z" />
<glyph unicode="a" d="M233 240v114q0 133 58.5 186.5t208.5 53.5h231q213 0 275 -98h4v264q0 61 -9 100.5t-33 68.5t-67.5 41.5t-112.5 12.5h-247q-135 0 -183.5 -47t-48.5 -166v-31l-45 19v16q0 133 61 191.5t212 58.5h256q148 0 205 -61.5t57 -198.5v-764h-45v98h-4q-62 -98 -275 -98h-231 q-150 0 -208.5 53.5t-58.5 186.5zM279 250q0 -121 47 -165t184 -44h211q289 0 289 192v127q0 193 -289 193h-211q-137 0 -184 -44t-47 -165v-94z" />
<glyph unicode="b" d="M287 0v1401h45v-475h4q62 98 274 98h252q147 0 206.5 -62t59.5 -198v-504q0 -136 -59.5 -198t-206.5 -62h-252q-212 0 -274 98h-4v-98h-45zM332 233q0 -192 289 -192h231q135 0 183 51.5t48 177.5v484q0 126 -48 177.5t-183 51.5h-231q-289 0 -289 -192v-558z" />
<glyph unicode="c" d="M244 250v524q0 135 56.5 192.5t205.5 57.5h317q149 0 205.5 -57.5t56.5 -192.5v-37l-45 -18v51q0 61 -8.5 98.5t-33 65t-67.5 38.5t-112 11h-309q-69 0 -112 -11t-67.5 -38.5t-33 -65t-8.5 -98.5v-516q0 -61 8.5 -98.5t33 -65t67.5 -38.5t112 -11h309q69 0 112 11 t67.5 38.5t33 65t8.5 98.5v51l45 -18v-37q0 -135 -56.5 -192.5t-205.5 -57.5h-317q-149 0 -205.5 57.5t-56.5 192.5z" />
<glyph unicode="d" d="M203 260v504q0 136 59.5 198t206.5 62h252q212 0 274 -98h4v475h45v-1401h-45v98h-4q-62 -98 -274 -98h-252q-147 0 -206.5 62t-59.5 198zM248 270q0 -126 48 -177.5t183 -51.5h232q288 0 288 192v558q0 192 -288 192h-232q-135 0 -183 -51.5t-48 -177.5v-484z" />
<glyph unicode="e" d="M250 250v524q0 135 56.5 192.5t205.5 57.5h307q149 0 205.5 -57.5t56.5 -192.5v-262h-786v-258q0 -61 8.5 -98.5t33 -65t67.5 -38.5t112 -11h299q69 0 112 11t67.5 38.5t33 65t8.5 98.5v72l45 -19v-57q0 -135 -56.5 -192.5t-205.5 -57.5h-307q-149 0 -205.5 57.5 t-56.5 192.5zM295 553h741v217q0 61 -8.5 98.5t-33 65t-67.5 38.5t-112 11h-299q-69 0 -112 -11t-67.5 -38.5t-33 -65t-8.5 -98.5v-217z" />
<glyph unicode="f" d="M137 809v41h371v301q0 135 56.5 192.5t205.5 57.5h387l-18 -41h-365q-69 0 -112 -11t-67.5 -38.5t-33 -65t-8.5 -98.5v-297h528v-41h-528v-809h-45v809h-371z" />
<glyph unicode="g" d="M223 -205l45 19v-52q0 -61 8.5 -98.5t33 -65t67.5 -38.5t112 -11h306q71 0 114.5 11t68.5 38.5t33.5 65t8.5 98.5v336h-4q-62 -98 -275 -98h-252q-147 0 -206.5 62t-59.5 198v504q0 136 59.5 198t206.5 62h252q213 0 275 -98h4v98h45v-1266q0 -135 -57 -192.5t-209 -57.5 h-314q-149 0 -205.5 57.5t-56.5 192.5v37zM268 270q0 -126 48.5 -177.5t183.5 -51.5h231q289 0 289 192v558q0 192 -289 192h-231q-135 0 -183.5 -51.5t-48.5 -177.5v-484z" />
<glyph unicode="h" d="M203 0v1401h45v-475h4q62 98 274 98h252q147 0 206.5 -62t59.5 -198v-764h-45v754q0 126 -48 177.5t-183 51.5h-231q-289 0 -289 -192v-791h-45z" />
<glyph unicode="i" d="M244 0v41h450v942h-403v41h448v-983h387v-41h-882zM657 1329v72h82v-72h-82z" />
<glyph unicode="j" d="M244 -174l45 18v-82q0 -61 8.5 -98.5t33 -65t67.5 -38.5t112 -11h172q134 0 179.5 46.5t45.5 166.5v1221h-485v41h530v-1266q0 -134 -58 -192t-208 -58h-180q-149 0 -205.5 57.5t-56.5 192.5v68zM870 1329v72h82v-72h-82z" />
<glyph unicode="k" d="M229 0v1401h45v-1041h2l756 664h70l-426 -375l366 -323v-326h-45v305l-354 316l-369 -318v-303h-45z" />
<glyph unicode="l" d="M244 0v41h450v1319h-403v41h448v-1360h387v-41h-882z" />
<glyph unicode="m" d="M133 0v1024h45v-133h2q4 13 10 26t22.5 34t38.5 35.5t60 26t84 11.5h92q99 0 140.5 -36.5t50.5 -96.5h2q12 47 69 90t156 43h92q113 0 157 -50t44 -175v-799h-45v791q0 109 -32 150.5t-128 41.5h-78q-94 0 -160.5 -56t-66.5 -177v-750h-45v791q0 107 -34 149.5t-126 42.5 h-77q-113 0 -170.5 -66.5t-57.5 -166.5v-750h-45z" />
<glyph unicode="n" d="M254 0v1024h45v-98h4q62 98 275 98h231q147 0 206.5 -62t59.5 -198v-764h-45v760q0 122 -48 172.5t-183 50.5h-211q-289 0 -289 -192v-791h-45z" />
<glyph unicode="o" d="M240 250v524q0 135 56.5 192.5t205.5 57.5h327q150 0 206.5 -57.5t56.5 -192.5v-522q0 -136 -56.5 -194t-206.5 -58h-327q-149 0 -205.5 57.5t-56.5 192.5zM285 254q0 -61 8.5 -98.5t33 -65t67.5 -38.5t112 -11h319q134 0 178 46.5t44 168.5v514q0 61 -9 99t-33.5 65 t-67.5 38t-112 11h-319q-69 0 -112 -11t-67.5 -38.5t-33 -65t-8.5 -98.5v-516z" />
<glyph unicode="p" d="M264 -492v1516h45v-98h4q62 98 275 98h252q147 0 206.5 -62t59.5 -198v-504q0 -136 -59.5 -198t-206.5 -62h-252q-213 0 -275 98h-4v-590h-45zM309 233q0 -192 289 -192h231q135 0 183.5 51.5t48.5 177.5v484q0 126 -48.5 177.5t-183.5 51.5h-231q-289 0 -289 -192v-558z " />
<glyph unicode="q" d="M223 260v504q0 136 59.5 198t206.5 62h252q213 0 275 -98h4v98h45v-1516h-45v590h-4q-62 -98 -275 -98h-252q-147 0 -206.5 62t-59.5 198zM268 270q0 -126 48.5 -177.5t183.5 -51.5h231q289 0 289 192v558q0 192 -289 192h-231q-135 0 -183.5 -51.5t-48.5 -177.5v-484z " />
<glyph unicode="r" d="M322 0v1024h45v-98h4q62 98 274 98h211q148 0 207 -60.5t59 -199.5v-78l-45 -18v86q0 126 -48 177.5t-183 51.5h-191q-288 0 -288 -192v-791h-45z" />
<glyph unicode="s" d="M252 250v37l45 18v-51q0 -61 8.5 -98.5t33 -65t67.5 -38.5t112 -11h283q136 0 183.5 43t47.5 160v63q0 117 -47.5 160t-183.5 43h-277q-152 0 -212 54t-60 186v34q0 132 60 186t212 54h291q151 0 206.5 -53.5t55.5 -186.5v-10l-45 -24v28q0 81 -17 123t-64.5 62 t-139.5 20h-283q-136 0 -183.5 -43t-47.5 -160v-26q0 -117 47.5 -160t183.5 -43h277q152 0 212 -54t60 -186v-71q0 -132 -60 -186t-212 -54h-291q-149 0 -205.5 57.5t-56.5 192.5z" />
<glyph unicode="t" d="M145 983v41h402v377h45v-377h498v-41h-498v-729q0 -61 8.5 -98.5t33 -65t67.5 -38.5t112 -11h279l12 -41h-295q-149 0 -205.5 57.5t-56.5 192.5v733h-402z" />
<glyph unicode="u" d="M244 260v764h45v-754q0 -126 48 -177.5t183 -51.5h232q288 0 288 192v791h45v-1024h-45v98h-4q-62 -98 -274 -98h-252q-147 0 -206.5 62t-59.5 198z" />
<glyph unicode="v" d="M225 709v315h45v-305l394 -668h4l393 668v305h45v-315l-418 -709h-45z" />
<glyph unicode="w" d="M111 709v315h45v-305l198 -656h2l293 750h33l293 -750h2l199 656v305h45v-315l-217 -709h-52l-284 727h-4l-285 -727h-51z" />
<glyph unicode="x" d="M248 0v231l381 297l-344 277v219h45v-203l336 -268l335 268v203h46v-219l-345 -277l381 -297v-231h-45v215l-372 291l-373 -291v-215h-45z" />
<glyph unicode="y" d="M233 -205l46 19v-52q0 -61 8.5 -98.5t33 -65t67.5 -38.5t112 -11h325q134 0 180 46.5t46 166.5v336h-4q-62 -98 -275 -98h-272q-147 0 -207 62t-60 198v764h46v-754q0 -126 48 -177.5t183 -51.5h252q289 0 289 192v791h45v-1266q0 -134 -58.5 -192t-208.5 -58h-333 q-150 0 -206.5 57.5t-56.5 192.5v37z" />
<glyph unicode="z" d="M207 0v35l815 946v2h-762v41h823v-39l-811 -942v-2h852v-41h-917z" />
<glyph unicode="{" d="M365 694v41h14q132 0 176.5 46.5t44.5 166.5v451q0 136 56 193t206 57h105v-41h-101q-69 0 -112 -11t-67.5 -38.5t-33 -65t-8.5 -98.5v-451q0 -116 -32 -163.5t-105 -63.5v-4q73 -16 105 -64t32 -164v-579q0 -61 8.5 -98.5t33 -65t67.5 -38.5t112 -11h101v-41h-105 q-149 0 -205.5 57.5t-56.5 192.5v579q0 120 -44.5 166.5t-176.5 46.5h-14z" />
<glyph unicode="|" d="M643 -186v1742h45v-1742h-45z" />
<glyph unicode="}" d="M365 -307h100q69 0 112 11t67.5 38.5t33 65t8.5 98.5v579q0 116 32 164t105 64v4q-73 16 -105 63.5t-32 163.5v451q0 61 -8.5 98.5t-33 65t-67.5 38.5t-112 11h-100v41h104q149 0 205.5 -57.5t56.5 -192.5v-451q0 -120 44.5 -166.5t176.5 -46.5h15v-41h-15 q-132 0 -176.5 -46.5t-44.5 -166.5v-579q0 -136 -56 -193t-206 -57h-104v41z" />
<glyph unicode="~" d="M299 965q0 103 47.5 166t140.5 63q51 0 91.5 -21.5t68.5 -52t55 -60.5t64 -51.5t82 -21.5q67 0 103 49t36 140h45q0 -103 -47.5 -166.5t-140.5 -63.5q-51 0 -91.5 21.5t-68.5 52t-55 60.5t-64 51.5t-82 21.5q-67 0 -103 -48.5t-36 -139.5h-45z" />
<glyph unicode="&#xa0;" />
<glyph unicode="&#xa1;" d="M614 932v92h103v-92h-103zM643 -377v1147h45v-1147h-45z" />
<glyph unicode="&#xa2;" d="M233 250v524q0 135 56.5 192.5t206.5 57.5h147v184h45v-184h146q149 0 205.5 -57.5t56.5 -192.5v-37l-45 -18v51q0 61 -9 99t-33.5 65t-67.5 38t-112 11h-329q-69 0 -112 -11t-67.5 -38.5t-33 -65t-8.5 -98.5v-516q0 -61 8.5 -98.5t33 -65t67.5 -38.5t112 -11h329 q69 0 112 11t67.5 38t33.5 65t9 99v51l45 -18v-37q0 -135 -56.5 -192.5t-205.5 -57.5h-146v-184h-45v184h-147q-150 0 -206.5 57.5t-56.5 192.5z" />
<glyph unicode="&#xa3;" d="M45 694v41h215v416q0 135 56.5 192.5t205.5 57.5h420q149 0 205.5 -57.5t56.5 -192.5v-37l-45 -18v51q0 61 -8.5 98.5t-33 65t-67.5 38.5t-112 11h-412q-69 0 -112 -11t-67.5 -38.5t-33 -65t-8.5 -98.5v-412h574l-11 -41h-563v-653h899v-41h-944v694h-215z" />
<glyph unicode="&#xa4;" d="M258 326l162 161q-78 88 -78 218q0 127 78 215l-162 163l29 29l162 -164q92 76 217 76q126 0 215 -76l163 164l29 -29l-164 -163q80 -86 80 -215q0 -132 -80 -218l164 -161l-29 -29l-163 162q-87 -74 -215 -74q-127 0 -217 74l-162 -162zM387 705q0 -120 79.5 -199.5 t199.5 -79.5t199 79.5t79 199.5t-79 199t-199 79t-199.5 -79t-79.5 -199z" />
<glyph unicode="&#xa5;" d="M174 1051v350h45v-332l447 -401l446 401v332h45v-350l-446 -400h333l-20 -41h-336v-145h275l-21 -41h-254v-424h-45v424h-274l-21 41h295v145h-356l-21 41h355z" />
<glyph unicode="&#xa6;" d="M643 -186v698h45v-698h-45zM643 891v665h45v-665h-45z" />
<glyph unicode="&#xa7;" d="M209 63v37l45 19v-51q0 -61 8.5 -98.5t33 -65t67.5 -38.5t112 -11h379q69 0 112 11t67.5 38.5t33 65t8.5 98.5v96q0 61 -8.5 99t-32.5 65t-67 38t-111 11h-385q-149 0 -205.5 57.5t-56.5 192.5v118q0 62 10 105.5t30 68t39 36t46 20.5q-28 9 -46.5 20.5t-38.5 35.5 t-30 67.5t-10 105.5v103q0 135 56 192t206 57h387q150 0 206 -57t56 -192v-37l-45 -19v52q0 61 -8.5 98.5t-33 65t-67.5 38.5t-112 11h-379q-69 0 -112 -11t-67.5 -38.5t-33 -65t-8.5 -98.5v-95q0 -61 8.5 -99t32.5 -65t67 -38t111 -11h385q149 0 205.5 -57.5t56.5 -192.5 v-118q0 -62 -10 -105.5t-30 -68t-39 -36t-46 -20.5q28 -9 46.5 -20.5t38.5 -35.5t30 -67.5t10 -105.5v-105q0 -135 -56 -192t-206 -57h-387q-150 0 -206 57t-56 192zM254 631q0 -61 8.5 -98.5t33 -65t67.5 -38.5t112 -11h381q132 0 175.5 46t43.5 165v112q0 61 -8.5 98.5 t-33 65t-67.5 38.5t-112 11h-381q-68 0 -111 -11t-67 -38t-32.5 -65t-8.5 -99v-110z" />
<glyph unicode="&#xa8;" d="M469 1286v72h82v-72h-82zM780 1286v72h82v-72h-82z" />
<glyph unicode="&#xa9;" d="M49 250v901q0 136 56 193t206 57h707q150 0 206 -57t56 -193v-901q0 -135 -56.5 -192.5t-205.5 -57.5h-707q-149 0 -205.5 57.5t-56.5 192.5zM94 254q0 -61 8.5 -98.5t33 -65t67.5 -38.5t112 -11h699q69 0 112 11t67.5 38.5t33 65t8.5 98.5v893q0 61 -8.5 98.5t-33 65 t-67.5 38.5t-112 11h-699q-69 0 -112 -11t-67.5 -38.5t-33 -65t-8.5 -98.5v-893zM346 516v381q0 122 44.5 170.5t172.5 48.5h203q128 0 172.5 -48.5t44.5 -170.5v-57l-45 -19v72q0 54 -6 85t-24.5 55t-53 33t-92.5 9h-195q-111 0 -143.5 -38t-32.5 -144v-373 q0 -106 32.5 -144t143.5 -38h195q58 0 92.5 9t53 33t24.5 55t6 85v72l45 -19v-57q0 -122 -44.5 -170.5t-172.5 -48.5h-203q-128 0 -172.5 48.5t-44.5 170.5z" />
<glyph unicode="&#xaa;" d="M367 967v77q0 88 42.5 128t143.5 40h190q58 0 95.5 -12t50.5 -25.5t26 -35.5h5v186q0 82 -27.5 112.5t-108.5 30.5h-237q-81 0 -108 -30.5t-27 -112.5v-12l-45 12v14q0 89 39 129.5t139 40.5h241q100 0 139.5 -40.5t39.5 -129.5v-540h-45v96h-5q-5 -19 -11.5 -31.5 t-23.5 -29.5t-52 -26t-85 -9h-190q-101 0 -143.5 40t-42.5 128zM412 981q0 -80 30 -110.5t113 -30.5h180q185 0 185 155v43q0 133 -183 133h-182q-83 0 -113 -30.5t-30 -110.5v-49z" />
<glyph unicode="&#xab;" d="M303 158l277 440l-277 440h49l277 -440l-277 -440h-49zM702 158l277 440l-277 440h50l276 -440l-276 -440h-50z" />
<glyph unicode="&#xac;" d="M221 598v41h889v-426h-45v385h-844z" />
<glyph unicode="&#xad;" d="M336 598v41h659v-41h-659z" />
<glyph unicode="&#xae;" d="M121 842v633q0 136 56 192.5t206 56.5h561q150 0 206 -56.5t56 -192.5v-633q0 -134 -56.5 -191t-205.5 -57h-561q-149 0 -205.5 57t-56.5 191zM166 848q0 -61 8.5 -98.5t33 -65t67.5 -38.5t112 -11h555q69 0 112 11t66.5 38.5t32 65t8.5 98.5v622q0 61 -8.5 98.5t-32 65 t-66.5 38.5t-112 11h-555q-69 0 -112 -11t-67.5 -38.5t-33 -65t-8.5 -98.5v-622zM438 831v648h348q132 0 132 -101v-153q0 -51 -31 -80t-80 -29v-2l111 -151v-132h-46v117l-122 168h-267v-285h-45zM483 1157h299q54 0 72 18.5t18 67.5v109q0 48 -18 67t-72 19h-299v-281z " />
<glyph unicode="&#xaf;" d="M403 1303v40h525v-40h-525z" />
<glyph unicode="&#xb0;" d="M342 1311q0 139 92 229t232 90t231.5 -90t91.5 -229t-91.5 -229.5t-231.5 -90.5t-232 90.5t-92 229.5zM387 1311q0 -120 79.5 -199.5t199.5 -79.5t199 79.5t79 199.5t-79 199t-199 79t-199.5 -79t-79.5 -199z" />
<glyph unicode="&#xb1;" d="M221 166v41h889v-41h-889zM221 821v41h422v424h45v-424h422v-41h-422v-424h-45v424h-422z" />
<glyph unicode="&#xb2;" d="M410 772v31l395 379q34 32 47.5 58.5t13.5 66.5v73q0 88 -108 88h-185q-54 0 -81 -24.5t-27 -67.5v-59l-45 22v39q0 131 151 131h189q151 0 151 -127v-77q0 -84 -59 -140l-369 -352h437v-41h-510z" />
<glyph unicode="&#xb3;" d="M420 903v39l45 23v-60q0 -43 27 -67.5t81 -24.5h183q54 0 81 24.5t27 67.5v119q0 92 -131 92h-166v41h166q131 0 131 92v127q0 43 -27 67.5t-81 24.5h-183q-54 0 -81 -24.5t-27 -67.5v-59l-45 22v39q0 131 151 131h187q151 0 151 -131v-131q0 -45 -18 -71.5t-60 -38.5 q42 -12 60 -39t18 -72v-123q0 -131 -151 -131h-187q-151 0 -151 131z" />
<glyph unicode="&#xb4;" d="M551 1243l178 221h49l-176 -221h-51z" />
<glyph unicode="&#xb5;" d="M264 -348v1372h45v-791q0 -192 289 -192h231q135 0 183.5 51.5t48.5 177.5v754h45v-764q0 -136 -59.5 -198t-206.5 -62h-252q-213 0 -275 98h-4v-446h-45z" />
<glyph unicode="&#xb7;" d="M614 598v92h103v-92h-103z" />
<glyph unicode="&#xb8;" d="M481 -348l23 41h139q103 0 132.5 34t29.5 130v41h45v-54q0 -107 -42 -149.5t-155 -42.5h-172z" />
<glyph unicode="&#xb9;" d="M432 776v41h211v656h-190v40h235v-696h211v-41h-467z" />
<glyph unicode="&#xba;" d="M369 903v475q0 131 151 131h289q152 0 152 -131v-475q0 -131 -152 -131h-289q-151 0 -151 131zM414 905q0 -43 27 -67.5t81 -24.5h285q54 0 81 24.5t27 67.5v471q0 43 -27 67.5t-81 24.5h-285q-54 0 -81 -24.5t-27 -67.5v-471z" />
<glyph unicode="&#xbb;" d="M303 598l277 440h49l-277 -440l277 -440h-49zM702 598l277 440h49l-270 -440l270 -440h-49z" />
<glyph unicode="&#xbc;" d="M16 664v41h211v655h-190v41h235v-696h211v-41h-467zM207 -98l952 1628l35 -21l-952 -1628zM700 201v39l412 497h45v-495h160v-41h-160v-201h-45v201h-412zM756 242h356l2 430h-2z" />
<glyph unicode="&#xbd;" d="M16 664v41h211v655h-190v41h235v-696h211v-41h-467zM207 -98l952 1628l35 -21l-952 -1628zM803 0v31l395 379q34 33 48 59.5t14 65.5v73q0 88 -109 88h-184q-54 0 -81.5 -24.5t-27.5 -67.5v-59l-45 22v39q0 131 152 131h188q152 0 152 -127v-78q0 -46 -14 -77.5 t-46 -61.5l-368 -352h436v-41h-510z" />
<glyph unicode="&#xbe;" d="M0 795v39l45 22v-59q0 -43 27.5 -67.5t81.5 -24.5h182q54 0 81 24.5t27 67.5v118q0 93 -131 93h-166v41h166q131 0 131 92v127q0 43 -27 67.5t-81 24.5h-182q-54 0 -81.5 -24.5t-27.5 -67.5v-60l-45 23v39q0 131 152 131h186q151 0 151 -131v-131q0 -46 -17.5 -72.5 t-59.5 -38.5q42 -12 59.5 -38t17.5 -72v-123q0 -131 -151 -131h-186q-152 0 -152 131zM207 -98l952 1628l35 -21l-952 -1628zM700 201v39l412 497h45v-495h160v-41h-160v-201h-45v201h-412zM756 242h356l2 430h-2z" />
<glyph unicode="&#xbf;" d="M213 -98v207q0 135 56 192t206 57h45q69 0 112 11t67.5 38.5t33 65t8.5 98.5v228h45v-232q0 -135 -56.5 -192.5t-205.5 -57.5h-45q-69 0 -112 -11t-67.5 -38.5t-33 -65t-8.5 -98.5v-198q0 -61 8.5 -98.5t33 -65t67.5 -38.5t112 -11h412q69 0 112 11t67.5 38.5t33 65 t8.5 98.5v112l45 -18v-98q0 -135 -56.5 -192.5t-205.5 -57.5h-420q-149 0 -205.5 57.5t-56.5 192.5zM713 961v92h102v-92h-102z" />
<glyph unicode="&#xc0;" d="M123 0v330l520 1071h45l520 -1071v-330h-45v315l-108 230h-779l-108 -230v-315h-45zM297 586h737l-366 762h-4zM489 1757h50l178 -221h-51z" />
<glyph unicode="&#xc1;" d="M123 0v330l520 1071h45l520 -1071v-330h-45v315l-108 230h-779l-108 -230v-315h-45zM297 586h737l-366 762h-4zM612 1536l179 221h49l-176 -221h-52z" />
<glyph unicode="&#xc2;" d="M123 0v330l520 1071h45l520 -1071v-330h-45v315l-108 230h-779l-108 -230v-315h-45zM297 586h737l-366 762h-4zM461 1536l184 221h41l184 -221h-51l-151 182h-4l-152 -182h-51z" />
<glyph unicode="&#xc3;" d="M123 0v330l520 1071h45l520 -1071v-330h-45v315l-108 230h-779l-108 -230v-315h-45zM297 586h737l-366 762h-4zM401 1583q0 73 36 120.5t104 47.5q38 0 67.5 -14.5t48.5 -35.5t37 -41.5t43 -35t56 -14.5q94 0 94 129h43q0 -73 -36 -120.5t-103 -47.5q-38 0 -67.5 14.5 t-48.5 35.5t-37 41.5t-43 35t-56 14.5q-46 0 -70.5 -33t-24.5 -96h-43z" />
<glyph unicode="&#xc4;" d="M123 0v330l520 1071h45l520 -1071v-330h-45v315l-108 230h-779l-108 -230v-315h-45zM297 586h737l-366 762h-4zM469 1614v72h82v-72h-82zM780 1614v72h82v-72h-82z" />
<glyph unicode="&#xc5;" d="M123 0v330l520 1071h45l520 -1071v-330h-45v315l-108 230h-779l-108 -230v-315h-45zM297 586h737l-366 762h-4zM508 1661q0 67 45 110.5t113 43.5q67 0 112 -43.5t45 -110.5q0 -66 -45.5 -110t-111.5 -44q-68 0 -113 44t-45 110zM553 1661q0 -47 33 -80t80 -33 q49 0 80.5 32.5t31.5 80.5q0 50 -31.5 81.5t-80.5 31.5q-48 0 -80.5 -32t-32.5 -81z" />
<glyph unicode="&#xc6;" d="M76 0v336l616 1065h563v-41h-507v-625h399v-41h-399v-653h507v-41h-553v473h-491l-90 -149v-324h-45zM240 514h462v823h-2z" />
<glyph unicode="&#xc7;" d="M203 250v901q0 135 56.5 192.5t205.5 57.5h409q150 0 206.5 -57.5t56.5 -192.5v-37l-45 -18v51q0 61 -9 99t-33.5 65t-67.5 38t-112 11h-401q-69 0 -112 -11t-67.5 -38.5t-33 -65t-8.5 -98.5v-893q0 -61 8.5 -98.5t33 -65t67.5 -38.5t112 -11h401q69 0 112 11t67.5 38 t33.5 65t9 99v51l45 -18v-37q0 -135 -56.5 -192.5t-206.5 -57.5h-409q-149 0 -205.5 57.5t-56.5 192.5zM395 -348h172q113 0 155 42.5t42 149.5v54h-45v-41q0 -96 -29.5 -130t-132.5 -34h-139z" />
<glyph unicode="&#xc8;" d="M236 0v1401h890v-41h-845v-625h737v-41h-737v-653h845v-41h-890zM489 1757h50l178 -221h-51z" />
<glyph unicode="&#xc9;" d="M236 0v1401h890v-41h-845v-625h737v-41h-737v-653h845v-41h-890zM612 1536l179 221h49l-176 -221h-52z" />
<glyph unicode="&#xca;" d="M236 0v1401h890v-41h-845v-625h737v-41h-737v-653h845v-41h-890zM461 1536l184 221h41l184 -221h-51l-151 182h-4l-152 -182h-51z" />
<glyph unicode="&#xcb;" d="M236 0v1401h890v-41h-845v-625h737v-41h-737v-653h845v-41h-890zM469 1614v72h82v-72h-82zM780 1614v72h82v-72h-82z" />
<glyph unicode="&#xcc;" d="M213 0v41h430v1319h-403v41h852v-41h-404v-1319h428v-41h-903zM489 1757h50l178 -221h-51z" />
<glyph unicode="&#xcd;" d="M213 0v41h430v1319h-403v41h852v-41h-404v-1319h428v-41h-903zM612 1536l179 221h49l-176 -221h-52z" />
<glyph unicode="&#xce;" d="M213 0v41h430v1319h-403v41h852v-41h-404v-1319h428v-41h-903zM467 1536l184 221h41l185 -221h-52l-151 182h-4l-152 -182h-51z" />
<glyph unicode="&#xcf;" d="M213 0v41h430v1319h-403v41h852v-41h-404v-1319h428v-41h-903zM469 1614v72h82v-72h-82zM780 1614v72h82v-72h-82z" />
<glyph unicode="&#xd0;" d="M121 678v41h143v682h664q148 0 204 -57t56 -193v-901q0 -135 -56.5 -192.5t-205.5 -57.5h-662v678h-143zM309 41h613q69 0 112 11t67.5 38.5t33 65t8.5 98.5v893q0 61 -8.5 98.5t-33 65t-67.5 38.5t-112 11h-613v-641h393v-41h-393v-637z" />
<glyph unicode="&#xd1;" d="M182 0v1401h43l875 -1317h2v1317h45v-1401h-43l-875 1319h-2v-1319h-45zM401 1583q0 73 36 120.5t104 47.5q38 0 67.5 -14.5t48.5 -35.5t37 -41.5t43 -35t56 -14.5q94 0 94 129h43q0 -73 -36 -120.5t-103 -47.5q-38 0 -67.5 14.5t-48.5 35.5t-37 41.5t-43 35t-56 14.5 q-46 0 -70.5 -33t-24.5 -96h-43z" />
<glyph unicode="&#xd2;" d="M172 250v901q0 136 56 193t206 57h461q150 0 206 -57t56 -193v-901q0 -135 -56.5 -192.5t-205.5 -57.5h-461q-149 0 -205.5 57.5t-56.5 192.5zM217 254q0 -61 8.5 -98.5t33 -65t67.5 -38.5t112 -11h453q69 0 112 11t67.5 38.5t33 65t8.5 98.5v893q0 61 -8.5 98.5t-33 65 t-67.5 38.5t-112 11h-453q-69 0 -112 -11t-67.5 -38.5t-33 -65t-8.5 -98.5v-893zM489 1757h50l178 -221h-51z" />
<glyph unicode="&#xd3;" d="M172 250v901q0 136 56 193t206 57h461q150 0 206 -57t56 -193v-901q0 -135 -56.5 -192.5t-205.5 -57.5h-461q-149 0 -205.5 57.5t-56.5 192.5zM217 254q0 -61 8.5 -98.5t33 -65t67.5 -38.5t112 -11h453q69 0 112 11t67.5 38.5t33 65t8.5 98.5v893q0 61 -8.5 98.5t-33 65 t-67.5 38.5t-112 11h-453q-69 0 -112 -11t-67.5 -38.5t-33 -65t-8.5 -98.5v-893zM612 1536l179 221h49l-176 -221h-52z" />
<glyph unicode="&#xd4;" d="M172 250v901q0 136 56 193t206 57h461q150 0 206 -57t56 -193v-901q0 -135 -56.5 -192.5t-205.5 -57.5h-461q-149 0 -205.5 57.5t-56.5 192.5zM217 254q0 -61 8.5 -98.5t33 -65t67.5 -38.5t112 -11h453q69 0 112 11t67.5 38.5t33 65t8.5 98.5v893q0 61 -8.5 98.5t-33 65 t-67.5 38.5t-112 11h-453q-69 0 -112 -11t-67.5 -38.5t-33 -65t-8.5 -98.5v-893zM461 1536l184 221h41l184 -221h-51l-151 182h-4l-152 -182h-51z" />
<glyph unicode="&#xd5;" d="M172 250v901q0 136 56 193t206 57h461q150 0 206 -57t56 -193v-901q0 -135 -56.5 -192.5t-205.5 -57.5h-461q-149 0 -205.5 57.5t-56.5 192.5zM217 254q0 -61 8.5 -98.5t33 -65t67.5 -38.5t112 -11h453q69 0 112 11t67.5 38.5t33 65t8.5 98.5v893q0 61 -8.5 98.5t-33 65 t-67.5 38.5t-112 11h-453q-69 0 -112 -11t-67.5 -38.5t-33 -65t-8.5 -98.5v-893zM401 1583q0 73 36 120.5t104 47.5q38 0 67.5 -14.5t48.5 -35.5t37 -41.5t43 -35t56 -14.5q94 0 94 129h43q0 -73 -36 -120.5t-103 -47.5q-38 0 -67.5 14.5t-48.5 35.5t-37 41.5t-43 35 t-56 14.5q-46 0 -70.5 -33t-24.5 -96h-43z" />
<glyph unicode="&#xd6;" d="M172 250v901q0 136 56 193t206 57h461q150 0 206 -57t56 -193v-901q0 -135 -56.5 -192.5t-205.5 -57.5h-461q-149 0 -205.5 57.5t-56.5 192.5zM217 254q0 -61 8.5 -98.5t33 -65t67.5 -38.5t112 -11h453q69 0 112 11t67.5 38.5t33 65t8.5 98.5v893q0 61 -8.5 98.5t-33 65 t-67.5 38.5t-112 11h-453q-69 0 -112 -11t-67.5 -38.5t-33 -65t-8.5 -98.5v-893zM469 1614v72h82v-72h-82zM780 1614v72h82v-72h-82z" />
<glyph unicode="&#xd7;" d="M336 317l301 299l-301 299l31 31l299 -301l299 301l30 -31l-301 -299l301 -299l-30 -30l-299 301l-299 -301z" />
<glyph unicode="&#xd8;" d="M74 -168l149 229q-51 54 -51 189v901q0 136 56 193t206 57h461q119 0 180 -37l133 205h49l-151 -232q51 -51 51 -186v-901q0 -135 -56.5 -192.5t-205.5 -57.5h-461q-119 0 -180 37l-133 -205h-47zM217 254q0 -110 33 -154l801 1227q-50 33 -160 33h-453q-69 0 -112 -11 t-67.5 -38.5t-33 -65t-8.5 -98.5v-893zM279 74q47 -33 159 -33h453q69 0 112 11t67.5 38.5t33 65t8.5 98.5v893q0 105 -33 151z" />
<glyph unicode="&#xd9;" d="M193 250v1151h45v-1147q0 -61 8.5 -98.5t33.5 -65t69.5 -38.5t115.5 -11h405q69 0 112 11t67.5 38t33.5 65t9 99v1147h45v-1151q0 -135 -56.5 -192.5t-206.5 -57.5h-419q-149 0 -205.5 57.5t-56.5 192.5zM489 1757h50l178 -221h-51z" />
<glyph unicode="&#xda;" d="M193 250v1151h45v-1147q0 -61 8.5 -98.5t33.5 -65t69.5 -38.5t115.5 -11h405q69 0 112 11t67.5 38t33.5 65t9 99v1147h45v-1151q0 -135 -56.5 -192.5t-206.5 -57.5h-419q-149 0 -205.5 57.5t-56.5 192.5zM612 1536l179 221h49l-176 -221h-52z" />
<glyph unicode="&#xdb;" d="M193 250v1151h45v-1147q0 -61 8.5 -98.5t33.5 -65t69.5 -38.5t115.5 -11h405q69 0 112 11t67.5 38t33.5 65t9 99v1147h45v-1151q0 -135 -56.5 -192.5t-206.5 -57.5h-419q-149 0 -205.5 57.5t-56.5 192.5zM461 1536l184 221h41l184 -221h-51l-151 182h-4l-152 -182h-51z " />
<glyph unicode="&#xdc;" d="M193 250v1151h45v-1147q0 -61 8.5 -98.5t33.5 -65t69.5 -38.5t115.5 -11h405q69 0 112 11t67.5 38t33.5 65t9 99v1147h45v-1151q0 -135 -56.5 -192.5t-206.5 -57.5h-419q-149 0 -205.5 57.5t-56.5 192.5zM469 1614v72h82v-72h-82zM780 1614v72h82v-72h-82z" />
<glyph unicode="&#xdd;" d="M174 1051v350h45v-332l447 -401l446 401v332h45v-350l-469 -420v-631h-45v631zM612 1536l179 221h49l-176 -221h-52z" />
<glyph unicode="&#xde;" d="M285 0v1401h45v-279h575q149 0 205.5 -57.5t56.5 -192.5v-206q0 -135 -56.5 -192.5t-205.5 -57.5h-575v-416h-45zM330 457h571q69 0 112 11t67.5 38.5t33 65t8.5 98.5v198q0 61 -8.5 98.5t-33 65t-67.5 38.5t-112 11h-571v-624z" />
<glyph unicode="&#xdf;" d="M98 694v41h189v416q0 135 56.5 192.5t205.5 57.5h420q149 0 205.5 -57.5t56.5 -192.5v-207q0 -116 -32 -164.5t-105 -64.5q73 -16 105 -65t32 -165v-235q0 -135 -56.5 -192.5t-205.5 -57.5h-402l-16 41h414q69 0 112 11t67.5 38.5t33 65t8.5 98.5v227q0 120 -44.5 166.5 t-176.5 46.5h-320v41h320q132 0 176.5 46.5t44.5 166.5v199q0 61 -8.5 98.5t-33 65t-67.5 38.5t-112 11h-412q-69 0 -112 -11t-67.5 -38.5t-33 -65t-8.5 -98.5v-1147h-45v694h-189z" />
<glyph unicode="&#xe0;" d="M233 240v114q0 133 58.5 186.5t208.5 53.5h231q213 0 275 -98h4v264q0 61 -9 100.5t-33 68.5t-67.5 41.5t-112.5 12.5h-247q-135 0 -183.5 -47t-48.5 -166v-31l-45 19v16q0 133 61 191.5t212 58.5h256q148 0 205 -61.5t57 -198.5v-764h-45v98h-4q-62 -98 -275 -98h-231 q-150 0 -208.5 53.5t-58.5 186.5zM279 250q0 -121 47 -165t184 -44h211q289 0 289 192v127q0 193 -289 193h-211q-137 0 -184 -44t-47 -165v-94zM489 1434h50l178 -222h-51z" />
<glyph unicode="&#xe1;" d="M233 240v114q0 133 58.5 186.5t208.5 53.5h231q213 0 275 -98h4v264q0 61 -9 100.5t-33 68.5t-67.5 41.5t-112.5 12.5h-247q-135 0 -183.5 -47t-48.5 -166v-31l-45 19v16q0 133 61 191.5t212 58.5h256q148 0 205 -61.5t57 -198.5v-764h-45v98h-4q-62 -98 -275 -98h-231 q-150 0 -208.5 53.5t-58.5 186.5zM279 250q0 -121 47 -165t184 -44h211q289 0 289 192v127q0 193 -289 193h-211q-137 0 -184 -44t-47 -165v-94zM612 1212l179 222h49l-176 -222h-52z" />
<glyph unicode="&#xe2;" d="M233 240v114q0 133 58.5 186.5t208.5 53.5h231q213 0 275 -98h4v264q0 61 -9 100.5t-33 68.5t-67.5 41.5t-112.5 12.5h-247q-135 0 -183.5 -47t-48.5 -166v-31l-45 19v16q0 133 61 191.5t212 58.5h256q148 0 205 -61.5t57 -198.5v-764h-45v98h-4q-62 -98 -275 -98h-231 q-150 0 -208.5 53.5t-58.5 186.5zM279 250q0 -121 47 -165t184 -44h211q289 0 289 192v127q0 193 -289 193h-211q-137 0 -184 -44t-47 -165v-94zM461 1212l184 222h41l184 -222h-51l-151 183h-4l-152 -183h-51z" />
<glyph unicode="&#xe3;" d="M233 240v114q0 133 58.5 186.5t208.5 53.5h231q213 0 275 -98h4v264q0 61 -9 100.5t-33 68.5t-67.5 41.5t-112.5 12.5h-247q-135 0 -183.5 -47t-48.5 -166v-31l-45 19v16q0 133 61 191.5t212 58.5h256q148 0 205 -61.5t57 -198.5v-764h-45v98h-4q-62 -98 -275 -98h-231 q-150 0 -208.5 53.5t-58.5 186.5zM279 250q0 -121 47 -165t184 -44h211q289 0 289 192v127q0 193 -289 193h-211q-137 0 -184 -44t-47 -165v-94zM401 1245q0 73 36 120.5t104 47.5q38 0 67.5 -14.5t48.5 -35.5t37 -41.5t43 -35t56 -14.5q94 0 94 129h43q0 -73 -36 -120.5 t-103 -47.5q-38 0 -67.5 14.5t-48.5 35.5t-37 41.5t-43 35t-56 14.5q-46 0 -70.5 -33t-24.5 -96h-43z" />
<glyph unicode="&#xe4;" d="M233 240v114q0 133 58.5 186.5t208.5 53.5h231q213 0 275 -98h4v264q0 61 -9 100.5t-33 68.5t-67.5 41.5t-112.5 12.5h-247q-135 0 -183.5 -47t-48.5 -166v-31l-45 19v16q0 133 61 191.5t212 58.5h256q148 0 205 -61.5t57 -198.5v-764h-45v98h-4q-62 -98 -275 -98h-231 q-150 0 -208.5 53.5t-58.5 186.5zM279 250q0 -121 47 -165t184 -44h211q289 0 289 192v127q0 193 -289 193h-211q-137 0 -184 -44t-47 -165v-94zM469 1286v72h82v-72h-82zM780 1286v72h82v-72h-82z" />
<glyph unicode="&#xe5;" d="M233 240v114q0 133 58.5 186.5t208.5 53.5h231q213 0 275 -98h4v264q0 61 -9 100.5t-33 68.5t-67.5 41.5t-112.5 12.5h-247q-135 0 -183.5 -47t-48.5 -166v-31l-45 19v16q0 133 61 191.5t212 58.5h256q148 0 205 -61.5t57 -198.5v-764h-45v98h-4q-62 -98 -275 -98h-231 q-150 0 -208.5 53.5t-58.5 186.5zM279 250q0 -121 47 -165t184 -44h211q289 0 289 192v127q0 193 -289 193h-211q-137 0 -184 -44t-47 -165v-94zM508 1341q0 67 45 110.5t113 43.5q67 0 112 -43.5t45 -110.5q0 -66 -45.5 -109.5t-111.5 -43.5q-68 0 -113 43.5t-45 109.5z M553 1341q0 -47 33 -79.5t80 -32.5q49 0 80.5 32t31.5 80q0 50 -31.5 81.5t-80.5 31.5q-48 0 -80.5 -32t-32.5 -81z" />
<glyph unicode="&#xe6;" d="M72 240v114q0 135 54 187.5t202 52.5h315v180q0 118 -47 163.5t-182 45.5h-86q-69 0 -110.5 -11t-64 -38.5t-29.5 -64t-7 -99.5v-31l-45 19v16q0 137 52 193.5t200 56.5h94q125 0 178.5 -35.5t67.5 -95.5h4q7 28 20 49t39 41t73 30.5t113 10.5h95q148 0 200 -56.5 t52 -193.5v-221h-572v-303q0 -118 47.5 -163.5t182.5 -45.5h86q69 0 110.5 11t63.5 39t29 64t7 99v31l46 -19v-16q0 -137 -52 -193.5t-200 -56.5h-95q-66 0 -113 10.5t-73 30.5t-39 41t-20 49h-4q-14 -60 -67.5 -95.5t-178.5 -35.5h-90q-148 0 -202 52.5t-54 187.5zM117 250 q0 -64 8 -101.5t33 -63t67 -35t113 -9.5h76q135 0 182 45.5t47 163.5v303h-305q-71 0 -113 -9.5t-67 -35t-33 -63t-8 -101.5v-94zM688 594h526v176q0 63 -7 99t-29 64t-63.5 39t-110.5 11h-86q-135 0 -182.5 -45.5t-47.5 -163.5v-180z" />
<glyph unicode="&#xe7;" d="M244 250v524q0 135 56.5 192.5t205.5 57.5h317q149 0 205.5 -57.5t56.5 -192.5v-37l-45 -18v51q0 61 -8.5 98.5t-33 65t-67.5 38.5t-112 11h-309q-69 0 -112 -11t-67.5 -38.5t-33 -65t-8.5 -98.5v-516q0 -61 8.5 -98.5t33 -65t67.5 -38.5t112 -11h309q69 0 112 11 t67.5 38.5t33 65t8.5 98.5v51l45 -18v-37q0 -135 -56.5 -192.5t-205.5 -57.5h-317q-149 0 -205.5 57.5t-56.5 192.5zM395 -348h172q113 0 155 42.5t42 149.5v54h-45v-41q0 -96 -29.5 -130t-132.5 -34h-139z" />
<glyph unicode="&#xe8;" d="M250 250v524q0 135 56.5 192.5t205.5 57.5h307q149 0 205.5 -57.5t56.5 -192.5v-262h-786v-258q0 -61 8.5 -98.5t33 -65t67.5 -38.5t112 -11h299q69 0 112 11t67.5 38.5t33 65t8.5 98.5v72l45 -19v-57q0 -135 -56.5 -192.5t-205.5 -57.5h-307q-149 0 -205.5 57.5 t-56.5 192.5zM295 553h741v217q0 61 -8.5 98.5t-33 65t-67.5 38.5t-112 11h-299q-69 0 -112 -11t-67.5 -38.5t-33 -65t-8.5 -98.5v-217zM489 1434h50l178 -222h-51z" />
<glyph unicode="&#xe9;" d="M250 250v524q0 135 56.5 192.5t205.5 57.5h307q149 0 205.5 -57.5t56.5 -192.5v-262h-786v-258q0 -61 8.5 -98.5t33 -65t67.5 -38.5t112 -11h299q69 0 112 11t67.5 38.5t33 65t8.5 98.5v72l45 -19v-57q0 -135 -56.5 -192.5t-205.5 -57.5h-307q-149 0 -205.5 57.5 t-56.5 192.5zM295 553h741v217q0 61 -8.5 98.5t-33 65t-67.5 38.5t-112 11h-299q-69 0 -112 -11t-67.5 -38.5t-33 -65t-8.5 -98.5v-217zM612 1212l179 222h49l-176 -222h-52z" />
<glyph unicode="&#xea;" d="M250 250v524q0 135 56.5 192.5t205.5 57.5h307q149 0 205.5 -57.5t56.5 -192.5v-262h-786v-258q0 -61 8.5 -98.5t33 -65t67.5 -38.5t112 -11h299q69 0 112 11t67.5 38.5t33 65t8.5 98.5v72l45 -19v-57q0 -135 -56.5 -192.5t-205.5 -57.5h-307q-149 0 -205.5 57.5 t-56.5 192.5zM295 553h741v217q0 61 -8.5 98.5t-33 65t-67.5 38.5t-112 11h-299q-69 0 -112 -11t-67.5 -38.5t-33 -65t-8.5 -98.5v-217zM461 1212l184 222h41l184 -222h-51l-151 183h-4l-152 -183h-51z" />
<glyph unicode="&#xeb;" d="M250 250v524q0 135 56.5 192.5t205.5 57.5h307q149 0 205.5 -57.5t56.5 -192.5v-262h-786v-258q0 -61 8.5 -98.5t33 -65t67.5 -38.5t112 -11h299q69 0 112 11t67.5 38.5t33 65t8.5 98.5v72l45 -19v-57q0 -135 -56.5 -192.5t-205.5 -57.5h-307q-149 0 -205.5 57.5 t-56.5 192.5zM295 553h741v217q0 61 -8.5 98.5t-33 65t-67.5 38.5t-112 11h-299q-69 0 -112 -11t-67.5 -38.5t-33 -65t-8.5 -98.5v-217zM469 1286v72h82v-72h-82zM780 1286v72h82v-72h-82z" />
<glyph unicode="&#xec;" d="M223 0v41h451v942h-404v41h449v-983h387v-41h-883zM489 1434h50l178 -222h-51z" />
<glyph unicode="&#xed;" d="M223 0v41h451v942h-404v41h449v-983h387v-41h-883zM612 1212l179 222h49l-176 -222h-52z" />
<glyph unicode="&#xee;" d="M223 0v41h451v942h-404v41h449v-983h387v-41h-883zM461 1212l184 222h41l184 -222h-51l-151 183h-4l-152 -183h-51z" />
<glyph unicode="&#xef;" d="M223 0v41h451v942h-404v41h449v-983h387v-41h-883zM479 1286v72h82v-72h-82zM791 1286v72h81v-72h-81z" />
<glyph unicode="&#xf0;" d="M233 250v319q0 135 56.5 192.5t206.5 57.5h338q89 0 122 -14l2 4l-180 264h-334l-26 41h334l-199 287h55l197 -287h209l26 -41h-209l218 -321q24 -34 35.5 -73.5t11.5 -109.5v-317q0 -136 -56 -194t-206 -58h-338q-150 0 -206.5 57.5t-56.5 192.5zM279 254 q0 -61 8.5 -98.5t33 -65t67.5 -38.5t112 -11h329q134 0 178 46.5t44 168.5v309q0 61 -9 99t-33.5 65t-67.5 38t-112 11h-329q-69 0 -112 -11t-67.5 -38.5t-33 -65t-8.5 -98.5v-311z" />
<glyph unicode="&#xf1;" d="M254 0v1024h45v-98h4q62 98 275 98h231q147 0 206.5 -62t59.5 -198v-764h-45v760q0 122 -48 172.5t-183 50.5h-211q-289 0 -289 -192v-791h-45zM401 1245q0 73 36 120.5t104 47.5q38 0 67.5 -14.5t48.5 -35.5t37 -41.5t43 -35t56 -14.5q94 0 94 129h43q0 -73 -36 -120.5 t-103 -47.5q-38 0 -67.5 14.5t-48.5 35.5t-37 41.5t-43 35t-56 14.5q-46 0 -70.5 -33t-24.5 -96h-43z" />
<glyph unicode="&#xf2;" d="M240 250v524q0 135 56.5 192.5t205.5 57.5h327q150 0 206.5 -57.5t56.5 -192.5v-522q0 -136 -56.5 -194t-206.5 -58h-327q-149 0 -205.5 57.5t-56.5 192.5zM285 254q0 -61 8.5 -98.5t33 -65t67.5 -38.5t112 -11h319q134 0 178 46.5t44 168.5v514q0 61 -9 99t-33.5 65 t-67.5 38t-112 11h-319q-69 0 -112 -11t-67.5 -38.5t-33 -65t-8.5 -98.5v-516zM489 1434h50l178 -222h-51z" />
<glyph unicode="&#xf3;" d="M240 250v524q0 135 56.5 192.5t205.5 57.5h327q150 0 206.5 -57.5t56.5 -192.5v-522q0 -136 -56.5 -194t-206.5 -58h-327q-149 0 -205.5 57.5t-56.5 192.5zM285 254q0 -61 8.5 -98.5t33 -65t67.5 -38.5t112 -11h319q134 0 178 46.5t44 168.5v514q0 61 -9 99t-33.5 65 t-67.5 38t-112 11h-319q-69 0 -112 -11t-67.5 -38.5t-33 -65t-8.5 -98.5v-516zM612 1212l179 222h49l-176 -222h-52z" />
<glyph unicode="&#xf4;" d="M240 250v524q0 135 56.5 192.5t205.5 57.5h327q150 0 206.5 -57.5t56.5 -192.5v-522q0 -136 -56.5 -194t-206.5 -58h-327q-149 0 -205.5 57.5t-56.5 192.5zM285 254q0 -61 8.5 -98.5t33 -65t67.5 -38.5t112 -11h319q134 0 178 46.5t44 168.5v514q0 61 -9 99t-33.5 65 t-67.5 38t-112 11h-319q-69 0 -112 -11t-67.5 -38.5t-33 -65t-8.5 -98.5v-516zM461 1212l184 222h41l184 -222h-51l-151 183h-4l-152 -183h-51z" />
<glyph unicode="&#xf5;" d="M240 250v524q0 135 56.5 192.5t205.5 57.5h327q150 0 206.5 -57.5t56.5 -192.5v-522q0 -136 -56.5 -194t-206.5 -58h-327q-149 0 -205.5 57.5t-56.5 192.5zM285 254q0 -61 8.5 -98.5t33 -65t67.5 -38.5t112 -11h319q134 0 178 46.5t44 168.5v514q0 61 -9 99t-33.5 65 t-67.5 38t-112 11h-319q-69 0 -112 -11t-67.5 -38.5t-33 -65t-8.5 -98.5v-516zM401 1245q0 73 36 120.5t104 47.5q38 0 67.5 -14.5t48.5 -35.5t37 -41.5t43 -35t56 -14.5q94 0 94 129h43q0 -73 -36 -120.5t-103 -47.5q-38 0 -67.5 14.5t-48.5 35.5t-37 41.5t-43 35t-56 14.5 q-46 0 -70.5 -33t-24.5 -96h-43z" />
<glyph unicode="&#xf6;" d="M240 250v524q0 135 56.5 192.5t205.5 57.5h327q150 0 206.5 -57.5t56.5 -192.5v-522q0 -136 -56.5 -194t-206.5 -58h-327q-149 0 -205.5 57.5t-56.5 192.5zM285 254q0 -61 8.5 -98.5t33 -65t67.5 -38.5t112 -11h319q134 0 178 46.5t44 168.5v514q0 61 -9 99t-33.5 65 t-67.5 38t-112 11h-319q-69 0 -112 -11t-67.5 -38.5t-33 -65t-8.5 -98.5v-516zM469 1286v72h82v-72h-82zM780 1286v72h82v-72h-82z" />
<glyph unicode="&#xf7;" d="M221 598v41h889v-41h-889zM614 211v92h103v-92h-103zM614 932v92h103v-92h-103z" />
<glyph unicode="&#xf8;" d="M94 -168l187 234q-48 56 -48 184v524q0 135 56.5 192.5t206.5 57.5h338q122 0 184 -41l170 209h49l-190 -236q49 -57 49 -182v-522q0 -136 -56 -194t-206 -58h-338q-129 0 -187 41l-168 -209h-47zM279 254q0 -112 30 -154l682 848q-46 35 -162 35h-329q-69 0 -112 -11 t-67.5 -38.5t-33 -65t-8.5 -98.5v-516zM338 74q47 -33 162 -33h329q134 0 178 46.5t44 168.5v514q0 106 -33 152z" />
<glyph unicode="&#xf9;" d="M244 260v764h45v-754q0 -126 48 -177.5t183 -51.5h232q288 0 288 192v791h45v-1024h-45v98h-4q-62 -98 -274 -98h-252q-147 0 -206.5 62t-59.5 198zM489 1434h50l178 -222h-51z" />
<glyph unicode="&#xfa;" d="M244 260v764h45v-754q0 -126 48 -177.5t183 -51.5h232q288 0 288 192v791h45v-1024h-45v98h-4q-62 -98 -274 -98h-252q-147 0 -206.5 62t-59.5 198zM612 1212l179 222h49l-176 -222h-52z" />
<glyph unicode="&#xfb;" d="M244 260v764h45v-754q0 -126 48 -177.5t183 -51.5h232q288 0 288 192v791h45v-1024h-45v98h-4q-62 -98 -274 -98h-252q-147 0 -206.5 62t-59.5 198zM461 1212l184 222h41l184 -222h-51l-151 183h-4l-152 -183h-51z" />
<glyph unicode="&#xfc;" d="M244 260v764h45v-754q0 -126 48 -177.5t183 -51.5h232q288 0 288 192v791h45v-1024h-45v98h-4q-62 -98 -274 -98h-252q-147 0 -206.5 62t-59.5 198zM469 1286v72h82v-72h-82zM780 1286v72h82v-72h-82z" />
<glyph unicode="&#xfd;" d="M233 -205v-37q0 -135 56.5 -192.5t206.5 -57.5h333q150 0 208.5 58t58.5 192v1266h-45v-791q0 -192 -289 -192h-252q-135 0 -183 51.5t-48 177.5v754h-46v-764q0 -136 60 -198t207 -62h272q213 0 275 98h4v-336q0 -120 -46 -166.5t-180 -46.5h-325q-69 0 -112 11 t-67.5 38.5t-33 65t-8.5 98.5v52zM612 1212l179 222h49l-176 -222h-52z" />
<glyph unicode="&#xfe;" d="M305 -348v1749h45v-475h4q62 98 275 98h252q147 0 206.5 -62t59.5 -198v-504q0 -136 -59.5 -198t-206.5 -62h-252q-213 0 -275 98h-4v-446h-45zM350 233q0 -192 289 -192h231q135 0 183.5 51.5t48.5 177.5v484q0 126 -48.5 177.5t-183.5 51.5h-231q-289 0 -289 -192v-558 z" />
<glyph unicode="&#xff;" d="M233 -205v-37q0 -135 56.5 -192.5t206.5 -57.5h333q150 0 208.5 58t58.5 192v1266h-45v-791q0 -192 -289 -192h-252q-135 0 -183 51.5t-48 177.5v754h-46v-764q0 -136 60 -198t207 -62h272q213 0 275 98h4v-336q0 -120 -46 -166.5t-180 -46.5h-325q-69 0 -112 11 t-67.5 38.5t-33 65t-8.5 98.5v52zM469 1286v72h82v-72h-82zM780 1286v72h82v-72h-82z" />
<glyph unicode="&#x152;" d="M78 250v901q0 136 56 193t206 57h154q190 0 215 -84h2v84h553v-41h-508v-625h399v-41h-399v-653h508v-41h-553v84h-2q-25 -84 -215 -84h-154q-149 0 -205.5 57.5t-56.5 192.5zM123 254q0 -61 8.5 -98.5t33 -65t67.5 -38.5t112 -11h145q69 0 112 11t67.5 38t33.5 65t9 99 v893q0 61 -9 99t-33.5 65t-67.5 38t-112 11h-145q-69 0 -112 -11t-67.5 -38.5t-33 -65t-8.5 -98.5v-893z" />
<glyph unicode="&#x153;" d="M72 250v524q0 135 56.5 192.5t205.5 57.5h84q125 0 178.5 -35.5t67.5 -95.5h4q7 28 20 49t39 41t73 30.5t113 10.5h95q148 0 200 -56.5t52 -193.5v-221h-572v-303q0 -118 47.5 -163.5t182.5 -45.5h86q69 0 110.5 11t63.5 39t29 64t7 99v31l46 -19v-16q0 -137 -52 -193.5 t-200 -56.5h-95q-66 0 -113 10.5t-73 30.5t-39 41t-20 49h-4q-14 -60 -67.5 -95.5t-178.5 -35.5h-84q-149 0 -205.5 57.5t-56.5 192.5zM117 254q0 -61 8.5 -98.5t33 -65t67.5 -38.5t112 -11h76q135 0 182 45.5t47 163.5v524q0 118 -47 163.5t-182 45.5h-76q-69 0 -112 -11 t-67.5 -38.5t-33 -65t-8.5 -98.5v-516zM688 594h526v176q0 63 -7 99t-29 64t-63.5 39t-110.5 11h-86q-135 0 -182.5 -45.5t-47.5 -163.5v-180z" />
<glyph unicode="&#x178;" d="M174 1051v350h45v-332l447 -401l446 401v332h45v-350l-469 -420v-631h-45v631zM469 1614v72h82v-72h-82zM780 1614v72h82v-72h-82z" />
<glyph unicode="&#x2c6;" d="M461 1243l184 221h41l184 -221h-51l-151 182h-4l-152 -182h-51z" />
<glyph unicode="&#x2dc;" d="M401 1276q0 73 36 120.5t104 47.5q38 0 67.5 -14.5t48.5 -35t37 -41.5t43 -35.5t56 -14.5q94 0 94 129h43q0 -73 -36 -120.5t-103 -47.5q-38 0 -67.5 14.5t-48.5 35t-37 41.5t-43 35.5t-56 14.5q-46 0 -70.5 -33t-24.5 -96h-43z" />
<glyph unicode="&#x2000;" horiz-adv-x="907" />
<glyph unicode="&#x2001;" horiz-adv-x="1815" />
<glyph unicode="&#x2002;" horiz-adv-x="907" />
<glyph unicode="&#x2003;" horiz-adv-x="1815" />
<glyph unicode="&#x2004;" horiz-adv-x="605" />
<glyph unicode="&#x2005;" horiz-adv-x="453" />
<glyph unicode="&#x2006;" horiz-adv-x="302" />
<glyph unicode="&#x2007;" horiz-adv-x="302" />
<glyph unicode="&#x2008;" horiz-adv-x="226" />
<glyph unicode="&#x2009;" horiz-adv-x="363" />
<glyph unicode="&#x200a;" horiz-adv-x="100" />
<glyph unicode="&#x2010;" d="M336 598v41h659v-41h-659z" />
<glyph unicode="&#x2011;" d="M336 598v41h659v-41h-659z" />
<glyph unicode="&#x2012;" d="M336 598v41h659v-41h-659z" />
<glyph unicode="&#x2013;" d="M221 598v41h889v-41h-889z" />
<glyph unicode="&#x2014;" d="M152 598v41h1028v-41h-1028z" />
<glyph unicode="&#x2018;" d="M602 1309v114q0 49 22 78t66 29h25l14 -41h-24q-48 0 -48 -72v-16h48v-92h-103z" />
<glyph unicode="&#x2019;" d="M590 1329h24q48 0 48 72v16h-48v92h103v-114q0 -49 -22 -78t-66 -29h-25z" />
<glyph unicode="&#x201a;" d="M590 -88h24q48 0 48 72v16h-48v92h103v-115q0 -49 -22 -77.5t-66 -28.5h-25z" />
<glyph unicode="&#x201c;" d="M506 1309v114q0 49 22 78t66 29h24l15 -41h-25q-27 0 -37 -18.5t-10 -53.5v-16h47v-92h-102zM721 1309v114q0 49 22 78t66 29h25l14 -41h-25q-27 0 -37 -18.5t-10 -53.5v-16h47v-92h-102z" />
<glyph unicode="&#x201d;" d="M481 1329h25q27 0 37 18.5t10 53.5v16h-47v92h102v-114q0 -49 -22 -78t-66 -29h-24zM696 1329h25q27 0 37 18.5t10 53.5v16h-47v92h102v-114q0 -49 -22 -78t-66 -29h-24z" />
<glyph unicode="&#x201e;" d="M481 -88h25q27 0 37 18.5t10 53.5v16h-47v92h102v-115q0 -49 -22 -77.5t-66 -28.5h-24zM696 -88h25q27 0 37 18.5t10 53.5v16h-47v92h102v-115q0 -49 -22 -77.5t-66 -28.5h-24z" />
<glyph unicode="&#x2022;" d="M614 616v56q0 7 5.5 12.5t13.5 5.5h65q8 0 13.5 -5.5t5.5 -12.5v-56q0 -7 -5.5 -12.5t-13.5 -5.5h-65q-8 0 -13.5 5.5t-5.5 12.5z" />
<glyph unicode="&#x2026;" d="M133 0v92h103v-92h-103zM614 0v92h103v-92h-103zM1096 0v92h102v-92h-102z" />
<glyph unicode="&#x202f;" horiz-adv-x="363" />
<glyph unicode="&#x2039;" d="M502 158l270 440l-270 440h49l276 -440l-276 -440h-49z" />
<glyph unicode="&#x203a;" d="M502 598l276 440h49l-270 -440l270 -440h-49z" />
<glyph unicode="&#x205f;" horiz-adv-x="453" />
<glyph unicode="&#x20ac;" d="M66 586v41h215v200h-215v41h215v283q0 134 56.5 192t205.5 58h420q149 0 205.5 -58t56.5 -192v-37l-45 -18v51q0 61 -9 99t-33.5 65t-67.5 38t-112 11h-411q-69 0 -112 -11t-67 -38.5t-32.5 -64.5t-9.5 -99v-279h542l-20 -41h-522v-200h460l-20 -41h-440v-332 q0 -61 8.5 -98.5t33 -65t67.5 -38.5t112 -11h411q69 0 112 11t67.5 38t33.5 65t9 99v51l45 -18v-37q0 -135 -56.5 -192.5t-205.5 -57.5h-420q-149 0 -205.5 57.5t-56.5 192.5v336h-215z" />
<glyph unicode="&#x2122;" d="M37 1683v41h692l258 -415h4l258 415h47v-753h-45v667h-4l-248 -397h-20l-248 397h-4v-667h-45v712h-285v-712h-45v712h-315z" />
<glyph unicode="&#x25fc;" horiz-adv-x="1024" d="M0 0v1024h1024v-1024h-1024z" />
</font>
</defs>
</svg>
