<?xml version="1.0" standalone="no"?>
<!DOCTYPE svg PUBLIC "-//W3C//DTD SVG 1.1//EN" "http://www.w3.org/Graphics/SVG/1.1/DTD/svg11.dtd" >
<svg xmlns="http://www.w3.org/2000/svg">
<metadata></metadata>
<defs>
<font id="cpmono_v07black" horiz-adv-x="1331" >
<font-face units-per-em="2048" ascent="1556" descent="-492" />
<missing-glyph horiz-adv-x="500" />
<glyph horiz-adv-x="0" />
<glyph horiz-adv-x="682" />
<glyph unicode=" " />
<glyph unicode="!" d="M481 0v358h369v-358h-369zM481 457v946h369v-946h-369z" />
<glyph unicode="&#x22;" d="M270 1014v575h338v-575h-338zM721 1014v575h338v-575h-338z" />
<glyph unicode="#" d="M72 201v297h202v133h-202v307h202v201h338v-201h107v201h338v-201h213v-307h-213v-133h213v-297h-213v-201h-338v201h-107v-201h-338v201h-202zM592 477h147v174h-147v-174z" />
<glyph unicode="$" d="M133 348v37l369 92v-55q0 -78 92 -78h143q92 0 92 78v45q0 78 -92 78h-215q-188 0 -288.5 89.5t-100.5 270.5v137q0 88 35 159t90.5 113.5t118 64.5t123.5 22h2v137h327v-137h2q71 0 135 -20.5t117 -61t84 -109t31 -157.5v-27l-369 -92v51q0 78 -92 78h-143 q-92 0 -92 -78v-31q0 -77 92 -77h213q189 0 290 -88t101 -269v-162q0 -71 -22.5 -131.5t-60 -101.5t-85.5 -69.5t-98.5 -42t-100.5 -13.5h-2v-137h-327v137h-2q-75 0 -139.5 20.5t-116 61t-81.5 109t-30 157.5z" />
<glyph unicode="%" d="M209 416v231l911 340v-231zM209 1090v194q0 94 64.5 154.5t170.5 60.5h105q106 0 170.5 -60.5t64.5 -154.5v-194q0 -94 -64.5 -155t-170.5 -61h-105q-106 0 -170.5 61t-64.5 155zM444 1139q0 -41 39 -41h29q39 0 39 41v102q0 39 -39 39h-29q-39 0 -39 -39v-102zM545 117 v194q0 94 64.5 154.5t170.5 60.5h105q106 0 170.5 -60.5t64.5 -154.5v-194q0 -94 -64.5 -154.5t-170.5 -60.5h-105q-106 0 -170.5 60.5t-64.5 154.5zM780 166q0 -41 39 -41h29q39 0 39 41v102q0 39 -39 39h-29q-39 0 -39 -39v-102z" />
<glyph unicode="&#x26;" d="M51 348v113q0 73 44.5 146t133.5 100q-61 18 -103.5 62.5t-58.5 91t-16 91.5v101q0 178 108.5 263t301.5 85h266q188 0 299 -84.5t111 -237.5v-8l-369 -76v11q0 27 -20 42t-50 15h-186q-92 0 -92 -78v-47q0 -39 23.5 -61.5t68.5 -22.5h78v-297h-78q-92 0 -92 -78v-57 q0 -78 92 -78h184q92 0 92 78v145h-122v277h102v76l369 75v-151h143v-277h-143v-219q0 -178 -108.5 -263t-301.5 -85h-266q-193 0 -301.5 85t-108.5 263z" />
<glyph unicode="'" d="M496 1014v575h338v-575h-338z" />
<glyph unicode="(" d="M358 0v1300q0 178 108.5 263.5t301.5 85.5h215v-349h-164q-92 0 -92 -77v-1145q0 -78 92 -78h164v-348h-215q-193 0 -301.5 85t-108.5 263z" />
<glyph unicode=")" d="M348 0h164q92 0 92 78v1145q0 77 -92 77h-164v349h215q193 0 301.5 -85.5t108.5 -263.5v-1300q0 -178 -108.5 -263t-301.5 -85h-215v348z" />
<glyph unicode="*" d="M125 1329l213 207l184 -115l6 4l-6 299l287 -82l-6 -217l6 -4l254 156l74 -289l-193 -102v-8l262 -144l-213 -207l-184 115l-6 -4l6 -299l-287 82l6 215l-6 4l-254 -154l-73 289l192 103v8z" />
<glyph unicode="+" d="M170 473v338h328v348h368v-348h328v-338h-328v-348h-368v348h-328z" />
<glyph unicode="," d="M438 -184h62q68 0 110.5 43.5t42.5 109.5v31h-182v369h389v-392q0 -141 -74.5 -228t-216.5 -87h-69z" />
<glyph unicode="-" d="M315 473v338h701v-338h-701z" />
<glyph unicode="." d="M471 0v369h389v-369h-389z" />
<glyph unicode="/" d="M180 -186l604 1742h365l-604 -1742h-365z" />
<glyph unicode="0" d="M123 348v705q0 178 108 263t301 85h267q193 0 301 -85t108 -263v-705q0 -178 -108 -263t-301 -85h-267q-193 0 -301 85t-108 263zM492 422q0 -78 92 -78h164q92 0 92 78v563q0 78 -92 78h-164q-92 0 -92 -78v-563z" />
<glyph unicode="1" d="M190 0v344h363v719h-303v338h672v-1057h340v-344h-1072z" />
<glyph unicode="2" d="M123 0v297l665 555q32 28 42 45.5t10 44.5v43q0 78 -92 78h-164q-92 0 -92 -78v-113l-369 93v88q0 178 108 263t301 85h267q193 0 301 -85t108 -263v-135q0 -75 -39 -146.5t-112 -128.5l-361 -293v-6h512v-344h-1085z" />
<glyph unicode="3" d="M123 348v62l369 92v-80q0 -78 92 -78h164q92 0 92 78v43q0 78 -92 78h-164v327h164q45 0 68.5 22.5t23.5 61.5v31q0 78 -92 78h-164q-92 0 -92 -78v-72l-369 93v47q0 178 108 263t301 85h267q193 0 301 -85t108 -263v-101q0 -45 -16 -91.5t-58.5 -91t-103.5 -62.5 q89 -27 133.5 -100t44.5 -146v-113q0 -178 -108 -263t-301 -85h-267q-193 0 -301 85t-108 263z" />
<glyph unicode="4" d="M59 289v332l580 780h451v-774h182v-338h-182v-289h-369v289h-662zM496 627h225v319z" />
<glyph unicode="5" d="M154 348v39l368 90v-55q0 -78 92 -78h144q92 0 92 78v104q0 78 -92 78h-127q-47 0 -78 -17t-31 -48h-368v862h1020v-338h-652v-182q88 55 226 55h73q79 0 148 -19.5t126.5 -59.5t90.5 -109.5t33 -161.5v-238q0 -178 -108.5 -263t-301.5 -85h-246q-193 0 -301 85t-108 263 z" />
<glyph unicode="6" d="M143 348v705q0 348 400 348h276q193 0 301.5 -85t108.5 -263v-27l-369 -82v41q0 78 -92 78h-164q-92 0 -92 -78v-145q21 19 80.5 37t144.5 18h92q201 0 300.5 -90.5t99.5 -274.5v-182q0 -178 -108.5 -263t-301.5 -85h-266q-193 0 -301.5 85t-108.5 263zM512 422 q0 -78 92 -78h164q92 0 92 78v63q0 78 -92 78h-147q-109 0 -109 -78v-63z" />
<glyph unicode="7" d="M125 1063v338h1079v-322l-452 -1079h-410l467 1063h-684z" />
<glyph unicode="8" d="M133 348v113q0 71 41 145t117 101q-76 27 -117 100.5t-41 144.5v101q0 178 108.5 263t301.5 85h245q193 0 301.5 -85t108.5 -263v-101q0 -71 -41 -144.5t-117 -100.5q76 -27 117 -101t41 -145v-113q0 -178 -108.5 -263t-301.5 -85h-245q-193 0 -301.5 85t-108.5 263z M502 422q0 -78 92 -78h143q92 0 92 78v41q0 78 -92 78h-143q-92 0 -92 -78v-41zM502 950q0 -78 92 -78h143q92 0 92 78v35q0 78 -92 78h-143q-92 0 -92 -78v-35z" />
<glyph unicode="9" d="M102 348v19l369 98v-43q0 -78 92 -78h164q92 0 92 78v137q-17 -15 -80.5 -28t-152.5 -13h-105q-201 0 -290 82.5t-89 267.5v185q0 178 108.5 263t301.5 85h266q193 0 301.5 -85t108.5 -263v-705q0 -178 -108.5 -263t-301.5 -85h-266q-193 0 -301.5 85t-108.5 263z M471 928q0 -78 92 -78h164q41 0 66.5 21t25.5 57v57q0 78 -92 78h-164q-92 0 -92 -78v-57z" />
<glyph unicode=":" d="M471 0v369h389v-369h-389zM471 698v369h389v-369h-389z" />
<glyph unicode=";" d="M438 -184h62q68 0 110.5 43.5t42.5 109.5v31h-182v369h389v-392q0 -141 -74.5 -228t-216.5 -87h-69zM471 698v369h389v-369h-389z" />
<glyph unicode="&#x3c;" d="M221 502v278l887 426v-375l-434 -188v-4l434 -188v-375z" />
<glyph unicode="=" d="M211 246v338h909v-338h-909zM211 696v338h909v-338h-909z" />
<glyph unicode="&#x3e;" d="M221 76v375l434 188v4l-434 188v375l887 -426v-278z" />
<glyph unicode="?" d="M102 1026v27q0 178 108.5 263t301.5 85h246q194 0 312 -91t118 -268v-137q0 -85 -26 -152.5t-69 -107t-92.5 -60t-101.5 -20.5h-41q-43 0 -62.5 -16.5t-19.5 -54.5v-37h-368v139q0 139 73.5 220t198.5 81h47q92 0 92 66v22q0 78 -92 78h-164q-92 0 -92 -78v-51zM408 0 v358h368v-358h-368z" />
<glyph unicode="@" d="M8 -33v856q0 152 103 234t266 82h596q163 0 255.5 -72t92.5 -223v-498q0 -60 -6 -107t-24 -93.5t-47.5 -77t-79.5 -49.5t-117 -19h-60q-163 0 -215 82h-6q-25 -41 -74 -61.5t-106 -20.5h-43q-104 0 -151.5 57.5t-47.5 157.5v365q0 100 47.5 157.5t151.5 57.5h43 q110 0 157 -72h7l26 72h205v-523q0 -25 11 -36t26 -11q14 0 25.5 11t11.5 36v512q0 99 -117 99h-520q-59 0 -101.5 -35t-42.5 -84v-737q0 -49 42.5 -84t101.5 -35h882l-88 -256h-835q-163 0 -266 82t-103 233zM610 317q0 -51 41 -51h17q20 0 33.5 25.5t13.5 60.5v101 q0 35 -13.5 60.5t-33.5 25.5h-17q-41 0 -41 -52v-170z" />
<glyph unicode="A" d="M70 0v375l405 1026h381l406 -1026v-375h-369v319v7h-455v-7v-319h-368zM547 653h235l-110 326h-13z" />
<glyph unicode="B" d="M164 0v1401h635q193 0 301 -85t108 -263v-95q0 -45 -16 -91.5t-58.5 -91t-103.5 -62.5q89 -27 133.5 -100t44.5 -146v-119q0 -178 -108 -263t-301 -85h-635zM532 344h216q92 0 92 78v45q0 78 -92 78h-216v-201zM532 877h216q45 0 68.5 22.5t23.5 61.5v24q0 78 -92 78 h-216v-186z" />
<glyph unicode="C" d="M123 348v705q0 178 108 263t301 85h267q193 0 301 -85t108 -263v-129l-368 -93v154q0 78 -92 78h-164q-92 0 -92 -78v-563q0 -78 92 -78h164q92 0 92 78v178l368 -102v-150q0 -178 -108 -263t-301 -85h-267q-193 0 -301 85t-108 263z" />
<glyph unicode="D" d="M123 0v1401h686q399 0 399 -348v-705q0 -348 -399 -348h-686zM492 344h256q92 0 92 78v563q0 78 -92 78h-256v-719z" />
<glyph unicode="E" d="M158 0v1401h1003v-338h-635v-178h504v-332h-504v-209h635v-344h-1003z" />
<glyph unicode="F" d="M188 0v1401h1024v-338h-655v-244h545v-332h-545v-487h-369z" />
<glyph unicode="G" d="M127 348v705q0 178 108.5 263t301.5 85h278q389 0 389 -348v-68l-368 -92v92q0 78 -93 78h-155q-92 0 -92 -78v-563q0 -78 92 -78h180q42 0 60 15t18 53v100h-150v287h508v-451q0 -178 -108 -263t-301 -85h-258q-194 0 -302 85t-108 263z" />
<glyph unicode="H" d="M106 0v1401h369v-527h379v527h369v-1401h-369v543h-379v-543h-369z" />
<glyph unicode="I" d="M133 0v344h348v719h-327v338h1024v-338h-328v-719h348v-344h-1065z" />
<glyph unicode="J" d="M123 348v170l369 103v-199q0 -78 92 -78h123q92 0 92 78v641h-594v338h962v-1053q0 -178 -108 -263t-301 -85h-226q-193 0 -301 85t-108 263z" />
<glyph unicode="K" d="M98 0v1401h369v-473h10l352 473h474l-457 -553l364 -365v-483h-358v322l-236 247l-149 -155v-414h-369z" />
<glyph unicode="L" d="M133 0v1401h369v-1057h717v-344h-1086z" />
<glyph unicode="M" d="M51 0v1401h389l226 -502l225 502h389v-1401h-369v752h-12l-119 -332h-229l-119 332h-12v-752h-369z" />
<glyph unicode="N" d="M102 0v1401h355l387 -719h16v719h369v-1401h-359l-383 688h-16v-688h-369z" />
<glyph unicode="O" d="M102 348v705q0 178 108.5 263t301.5 85h307q193 0 301.5 -85t108.5 -263v-705q0 -178 -108.5 -263t-301.5 -85h-307q-193 0 -301.5 85t-108.5 263zM471 422q0 -78 92 -78h205q92 0 92 78v563q0 78 -92 78h-205q-92 0 -92 -78v-563z" />
<glyph unicode="P" d="M184 0v1401h635q193 0 301.5 -85t108.5 -263v-234q0 -178 -108.5 -263t-301.5 -85h-266v-471h-369zM553 803h215q44 0 68 28.5t24 69.5v84q0 78 -92 78h-215v-260z" />
<glyph unicode="Q" d="M109 348v705q0 178 108 263t301 85h287q193 0 301 -85t108 -263v-705q0 -170 -104 -260l256 -299h-420l-168 211h-260q-193 0 -301 85t-108 263zM477 422q0 -78 92 -78h185q92 0 92 78v563q0 78 -92 78h-185q-92 0 -92 -78v-563z" />
<glyph unicode="R" d="M141 0v1401h656q193 0 302 -85t109 -263v-203q0 -93 -53 -171t-129 -114l182 -227v-338h-368v252l-172 219h-158v-471h-369zM510 803h238q92 0 92 78v104q0 78 -92 78h-238v-260z" />
<glyph unicode="S" d="M133 348v37l369 92v-55q0 -78 92 -78h143q92 0 92 78v45q0 78 -92 78h-215q-188 0 -288.5 89.5t-100.5 270.5v137q0 177 118 268t312 91h225q193 0 301.5 -85t108.5 -263v-27l-369 -92v51q0 78 -92 78h-143q-92 0 -92 -78v-31q0 -77 92 -77h213q189 0 290 -88t101 -269 v-162q0 -177 -118 -267.5t-312 -90.5h-225q-193 0 -301.5 85t-108.5 263z" />
<glyph unicode="T" d="M72 1063v338h1188v-338h-410v-1063h-369v1063h-409z" />
<glyph unicode="U" d="M123 348v1053h369v-979q0 -78 92 -78h164q92 0 92 78v979h368v-1053q0 -178 -108 -263t-301 -85h-267q-193 0 -301 85t-108 263z" />
<glyph unicode="V" d="M70 987v414h368v-365l224 -618h8l223 618v365h369v-414l-396 -987h-401z" />
<glyph unicode="W" d="M41 1028v373h338v-295l63 -490h21l88 367h229l88 -367h21l63 490v295h338v-373l-180 -1028h-332l-104 356h-17l-104 -356h-332z" />
<glyph unicode="X" d="M98 0v393l324 338l-285 279v391h369v-279l160 -178l159 178v279h369v-391l-285 -279l324 -338v-393h-369v274l-198 226l-199 -226v-274h-369z" />
<glyph unicode="Y" d="M80 987v414h369v-279l217 -235l217 235v279h368v-414l-399 -395v-592h-369v592z" />
<glyph unicode="Z" d="M117 0v324l622 739h-596v338h1059v-322l-624 -735h634v-344h-1095z" />
<glyph unicode="[" d="M358 -348v1997h625v-349h-256v-1300h256v-348h-625z" />
<glyph unicode="\" d="M180 1556h365l604 -1742h-365z" />
<glyph unicode="]" d="M348 0h256v1300h-256v349h625v-1997h-625v348z" />
<glyph unicode="^" d="M63 815l480 639h245l480 -639h-408l-194 277l-195 -277h-408z" />
<glyph unicode="_" d="M57 0v344h1217v-344h-1217z" />
<glyph unicode="`" d="M381 1563h352l217 -277h-352z" />
<glyph unicode="a" d="M137 330v78q0 169 91.5 248t248.5 79h39q192 0 281 -67h6v82q0 92 -103 92h-100q-63 0 -63 -49v-27l-349 82v26q0 119 103.5 192t279.5 73h160q189 0 304.5 -99.5t115.5 -279.5v-760h-348v74h-6q-90 -74 -260 -74h-60q-159 0 -249.5 79t-90.5 251zM485 367 q0 -31 23 -47.5t59 -16.5h92q55 0 99.5 15.5t44.5 48.5v18q0 19 -14.5 33t-38.5 20t-45.5 8.5t-45.5 2.5h-92q-36 0 -59 -16.5t-23 -47.5v-18z" />
<glyph unicode="b" d="M174 0v1401h369v-357h6q38 42 105 68.5t155 26.5h94q157 0 246.5 -90.5t89.5 -268.5v-422q0 -180 -88.5 -269t-247.5 -89h-94q-88 0 -155.5 26t-104.5 68h-6v-94h-369zM543 504q0 -76 47.5 -118t114.5 -42h53q112 0 112 129v199q0 129 -112 129h-53q-67 0 -114.5 -42 t-47.5 -118v-137z" />
<glyph unicode="c" d="M147 348v443q0 178 108.5 263t301.5 85h215q193 0 301.5 -85t108.5 -263v-68l-369 -92v92q0 78 -92 78h-113q-92 0 -92 -78v-301q0 -78 92 -78h113q92 0 92 78v72l369 -103v-43q0 -178 -108.5 -263t-301.5 -85h-215q-193 0 -301.5 85t-108.5 263z" />
<glyph unicode="d" d="M92 358v422q0 178 89.5 268.5t246.5 90.5h94q88 0 155 -26.5t105 -68.5h6v357h369v-1401h-369v94h-6q-37 -42 -104.5 -68t-155.5 -26h-94q-159 0 -247.5 89t-88.5 269zM461 473q0 -129 112 -129h54q67 0 114 42t47 118v137q0 76 -47 118t-114 42h-54q-112 0 -112 -129 v-199z" />
<glyph unicode="e" d="M164 348v443q0 178 108 263t301 85h183q189 0 299 -97t110 -278v-322h-653v-57q0 -39 23.5 -60.5t68.5 -21.5h113q100 0 100 57v46l348 -62v-41q0 -87 -32 -147.5t-92.5 -93.5t-134.5 -47.5t-171 -14.5h-162q-193 0 -301 85t-108 263zM512 719h305v39q0 40 -18 62t-74 22 h-121q-55 0 -73.5 -20.5t-18.5 -59.5v-43z" />
<glyph unicode="f" d="M111 520v332h264v201q0 178 108 263t301 85h406l-80 -338h-274q-93 0 -93 -78v-133h349v-332h-349v-520h-368v520h-264z" />
<glyph unicode="g" d="M113 -131l368 92v-47q0 -78 92 -78h144q92 0 92 78v180h-6q-37 -42 -104.5 -68t-155.5 -26h-94q-159 0 -247.5 89t-88.5 269v422q0 178 89.5 268.5t246.5 90.5h94q88 0 155 -26.5t105 -68.5h6v95h369v-1282q0 -119 -59 -199t-155 -115t-223 -35h-221q-191 0 -299 83 t-108 255v23zM481 473q0 -129 113 -129h53q67 0 114.5 42t47.5 118v137q0 76 -47.5 118t-114.5 42h-53q-113 0 -113 -129v-199z" />
<glyph unicode="h" d="M154 0v1401h368v-357h6q38 42 105 68.5t155 26.5h95q157 0 246.5 -90.5t89.5 -268.5v-780h-369v672q0 129 -113 129h-53q-67 0 -114.5 -42t-47.5 -118v-641h-368z" />
<glyph unicode="i" d="M152 0v344h401v457h-363v338h732v-795h340v-344h-1110zM553 1286v328h369v-328h-369z" />
<glyph unicode="j" d="M113 2l368 102v-190q0 -78 92 -78h103q92 0 92 78v887h-475v338h844v-1282q0 -119 -59 -199t-155 -115t-223 -35h-180q-191 0 -299 83t-108 255v156zM768 1286v328h369v-328h-369z" />
<glyph unicode="k" d="M98 0v1401h369v-629h4l313 367h490l-418 -408l313 -328v-403h-368v291l-187 194l-147 -155v-330h-369z" />
<glyph unicode="l" d="M131 0v344h401v719h-362v338h731v-1057h340v-344h-1110z" />
<glyph unicode="m" d="M43 0v1139h293v-113h6q45 113 188 113h80q79 0 114.5 -29t51.5 -84h4q45 113 189 113h75q131 0 187.5 -85t56.5 -268v-786h-323v739q0 72 -39 72h-56q-47 0 -47 -115v-696h-315v760q0 51 -35 51h-59q-47 0 -47 -115v-696h-324z" />
<glyph unicode="n" d="M133 0v1139h369v-95h6q38 42 105 68.5t155 26.5h94q157 0 246.5 -90t89.5 -269v-780h-369v672q0 129 -112 129h-53q-67 0 -114.5 -42t-47.5 -118v-641h-369z" />
<glyph unicode="o" d="M143 348v443q0 178 108.5 263t301.5 85h225q193 0 301.5 -85t108.5 -263v-443q0 -178 -108.5 -263t-301.5 -85h-225q-193 0 -301.5 85t-108.5 263zM512 422q0 -78 92 -78h123q92 0 92 78v301q0 78 -92 78h-123q-92 0 -92 -78v-301z" />
<glyph unicode="p" d="M154 -412v1551h368v-95h6q38 42 105 68.5t155 26.5h95q157 0 246.5 -90.5t89.5 -268.5v-422q0 -180 -88.5 -269t-247.5 -89h-95q-88 0 -155.5 26t-104.5 68h-6v-506h-368zM522 504q0 -76 47.5 -118t114.5 -42h53q113 0 113 129v199q0 129 -113 129h-53q-67 0 -114.5 -42 t-47.5 -118v-137z" />
<glyph unicode="q" d="M113 358v422q0 178 89.5 268.5t246.5 90.5h94q88 0 155 -26.5t105 -68.5h6v95h369v-1551h-369v506h-6q-37 -42 -104.5 -68t-155.5 -26h-94q-159 0 -247.5 89t-88.5 269zM481 473q0 -129 113 -129h53q67 0 114.5 42t47.5 118v137q0 76 -47.5 118t-114.5 42h-53 q-113 0 -113 -129v-199z" />
<glyph unicode="r" d="M199 0v1139h368v-95h6q37 42 105 68.5t156 26.5h84q157 0 246 -90.5t89 -268.5v-88l-368 -92v86q0 65 -22 90t-77 25h-55q-69 0 -116.5 -42t-47.5 -118v-641h-368z" />
<glyph unicode="s" d="M176 270v43l348 78v-41q0 -25 16.5 -36t67.5 -11h117q82 0 82 53v21q0 59 -113 59h-139q-203 0 -291 73t-88 241v65q0 88 32 152.5t90 101t130 53.5t162 17h184q381 0 381 -271v-22l-348 -84v33q0 25 -16.5 36t-67.5 11h-117q-82 0 -82 -45v-23q0 -27 24.5 -39t88.5 -12 h119q399 0 399 -338v-61q0 -88 -32 -152.5t-90 -101t-130 -53.5t-162 -17h-184q-381 0 -381 270z" />
<glyph unicode="t" d="M70 807v332h305v262h368v-262h400v-332h-400v-385q0 -78 93 -78h284l60 -344h-396q-409 0 -409 342v465h-305z" />
<glyph unicode="u" d="M133 358v781h369v-666q0 -129 112 -129h54q67 0 114 42t47 118v635h369v-1139h-369v94h-6q-37 -42 -104.5 -68t-155.5 -26h-94q-159 0 -247.5 89t-88.5 269z" />
<glyph unicode="v" d="M115 725v414h368v-355l179 -407h8l178 407v355h369v-414l-351 -725h-401z" />
<glyph unicode="w" d="M43 770v369h348v-346l51 -238h15l104 363h209l104 -363h15l51 238v346h348v-369l-219 -770h-303l-94 324h-13l-94 -324h-303z" />
<glyph unicode="x" d="M127 0v330l297 272l-258 229v308h369v-203l131 -135l131 135v203h368v-308l-258 -229l297 -272v-330h-368v219l-170 166l-170 -166v-219h-369z" />
<glyph unicode="y" d="M133 -131l369 92v-47q0 -78 92 -78h143q92 0 92 78v180h-6q-37 -42 -104.5 -68t-155.5 -26h-94q-159 0 -247.5 89t-88.5 269v781h369v-666q0 -129 112 -129h54q67 0 114 42t47 118v635h369v-1282q0 -90 -33 -158t-93 -109t-137.5 -61.5t-172.5 -20.5h-221 q-191 0 -299.5 83t-108.5 255v23z" />
<glyph unicode="z" d="M147 0v301l529 506v4h-502v328h997v-297l-522 -504v-4h533v-334h-1035z" />
<glyph unicode="{" d="M299 543v327h59q93 0 93 78v352q0 178 108 263.5t301 85.5h178v-349h-127q-92 0 -92 -77v-291q0 -98 -28.5 -149t-108.5 -72v-9q80 -21 108.5 -72t28.5 -149v-403q0 -78 92 -78h129v-348h-180q-193 0 -301 85t-108 263v465q0 78 -93 78h-59z" />
<glyph unicode="|" d="M481 -186v1742h369v-1742h-369z" />
<glyph unicode="}" d="M289 1300v349h180q193 0 301.5 -85.5t108.5 -263.5v-352q0 -78 92 -78h59v-327h-59q-92 0 -92 -78v-465q0 -178 -108.5 -263t-301.5 -85h-178v348h127q92 0 92 78v403q0 98 28.5 149t108.5 72v9q-80 21 -108.5 72t-28.5 149v291q0 77 -92 77h-129z" />
<glyph unicode="~" d="M117 829q0 91 23.5 168.5t70 138t123 94.5t174.5 34q73 0 133 -21t98 -42t58 -21q40 0 57.5 23t17.5 71h342q0 -91 -23.5 -168.5t-70 -137.5t-123 -94t-174.5 -34q-57 0 -107.5 13t-79 29t-56.5 29t-45 13q-40 0 -58 -23.5t-18 -71.5h-342z" />
<glyph unicode="&#xa0;" />
<glyph unicode="&#xa1;" d="M481 -264v946h369v-946h-369zM481 780v359h369v-359h-369z" />
<glyph unicode="&#xa2;" d="M143 348v443q0 89 31.5 157.5t84.5 109t116.5 61t134.5 20.5h2v143h307v-143h2q71 0 135 -20.5t117 -61t84 -109t31 -157.5v-68l-369 -92v92q0 78 -92 78h-123q-92 0 -92 -78v-301q0 -78 92 -78h123q92 0 92 78v72l369 -103v-43q0 -89 -30 -157.5t-82.5 -109t-116.5 -61 t-138 -20.5h-2v-143h-307v143h-2q-71 0 -135 20.5t-117 61t-84 109t-31 157.5z" />
<glyph unicode="&#xa3;" d="M39 522v332h156v199q0 178 108 263t301 85h266q193 0 301.5 -85t108.5 -263v-58l-369 -92v82q0 78 -92 78h-164q-92 0 -92 -78v-131h287l-92 -332h-195v-178h656v-344h-1024v522h-156z" />
<glyph unicode="&#xa4;" d="M102 377l166 166q-32 71 -32 172t32 172l-166 166l226 225l170 -170q88 31 168 31t168 -31l170 170l225 -225l-166 -166q33 -84 33 -172t-33 -172l166 -166l-225 -225l-170 170q-79 -31 -168 -31t-168 31l-170 -170zM553 715q0 -53 30.5 -83t82.5 -30t82 30t30 83 t-30 82.5t-82 29.5q-53 0 -83 -30t-30 -82z" />
<glyph unicode="&#xa5;" d="M80 987v414h369v-275l217 -239l217 239v275h368v-414l-313 -272v-4h240l-82 -236h-246v-74h219l-82 -235h-137v-166h-369v166h-137l-82 235h219v74h-245l-82 236h239v4z" />
<glyph unicode="&#xa6;" d="M481 -186v749h369v-749h-369zM481 840v716h369v-716h-369z" />
<glyph unicode="&#xa7;" d="M156 121v35l368 92v-41q0 -36 22.5 -51t69.5 -15h144q47 0 69.5 15t22.5 51v22q0 38 -22 53t-70 15h-203q-190 0 -295.5 82t-105.5 246v47q0 192 141 262q-141 70 -141 237v48q0 169 117.5 253t312.5 84h225q187 0 298.5 -81.5t111.5 -225.5v-26l-369 -93v44 q0 36 -22.5 50.5t-69.5 14.5h-144q-47 0 -69.5 -14.5t-22.5 -50.5v-25q0 -38 22 -53t70 -15h203q190 0 296 -81.5t106 -245.5v-47q0 -192 -142 -263q142 -71 142 -237v-55q0 -114 -57 -191.5t-151.5 -112t-221.5 -34.5h-226q-187 0 -298 81.5t-111 225.5zM524 672 q0 -36 22.5 -52t69.5 -16h144q47 0 69.5 15.5t22.5 52.5v35q0 36 -22.5 51.5t-69.5 15.5h-144q-48 0 -70 -15t-22 -52v-35z" />
<glyph unicode="&#xa8;" d="M287 1286v277h317v-277h-317zM727 1286v277h317v-277h-317z" />
<glyph unicode="&#xa9;" d="M31 348v705q0 178 108 263t301 85h451q193 0 301 -85t108 -263v-705q0 -178 -108 -263t-301 -85h-451q-193 0 -301 85t-108 263zM328 436q0 -68 40 -108.5t103 -40.5h389q63 0 103.5 40.5t40.5 108.5v529q0 68 -40.5 108.5t-103.5 40.5h-389q-63 0 -103 -40.5t-40 -108.5 v-529zM399 606v199q0 125 50 175t186 50h70q134 0 181.5 -47t47.5 -166v-35l-205 -51v35q0 39 -45 39h-22q-48 0 -48 -39v-141q0 -37 48 -37h22q45 0 45 37v63l205 -53v-47q0 -125 -52 -175.5t-188 -50.5h-59q-137 0 -186.5 52.5t-49.5 191.5z" />
<glyph unicode="&#xaa;" d="M317 965v34q0 109 48 159t159 50h47q102 0 170 -43h9v39q0 30 -11.5 43t-38.5 13h-51q-39 0 -39 -25v-8l-256 51v14q0 70 60 116t151 46h209q115 0 177.5 -54.5t62.5 -162.5v-469h-264v53h-9q-59 -67 -180 -67h-37q-111 0 -159 51t-48 160zM565 979q0 -31 49 -31h45 q38 0 62 12t24 25v8q0 13 -24 25t-62 12h-45q-24 0 -36.5 -9.5t-12.5 -23.5v-18z" />
<glyph unicode="&#xab;" d="M94 172l248 449l-248 448h367l256 -448l-256 -449h-367zM627 172l247 449l-247 448h366l256 -448l-256 -449h-366z" />
<glyph unicode="&#xac;" d="M160 473v338h1011v-682h-378v344h-633z" />
<glyph unicode="&#xad;" d="M315 473v338h701v-338h-701z" />
<glyph unicode="&#xae;" d="M117 909v555q0 136 83.5 201.5t229.5 65.5h471q146 0 229.5 -65.5t83.5 -201.5v-555q0 -133 -84 -199.5t-229 -66.5h-471q-145 0 -229 66.5t-84 199.5zM362 948q0 -36 25.5 -58t67.5 -22h422q40 0 66 22.5t26 57.5v477q0 34 -26 57t-66 23h-422q-42 0 -67.5 -23 t-25.5 -57v-477zM438 930v512h320q73 0 109 -30t36 -99v-74q0 -38 -20.5 -70t-48.5 -43v-4l69 -82v-110h-174v76l-61 84h-56v-160h-174zM612 1223h86q13 0 22 7.5t9 18.5v23q0 12 -8.5 19t-22.5 7h-86v-75z" />
<glyph unicode="&#xaf;" d="M330 1294v260h671v-260h-671z" />
<glyph unicode="&#xb0;" d="M236 1253q0 185 121.5 304.5t308.5 119.5t308.5 -119.5t121.5 -304.5t-121.5 -304.5t-308.5 -119.5t-308.5 119.5t-121.5 304.5zM553 1253q0 -52 30 -82t83 -30q52 0 82 29.5t30 82.5t-30 83t-82 30t-82.5 -30t-30.5 -83z" />
<glyph unicode="&#xb1;" d="M205 61v338h921v-338h-921zM205 735v338h276v266h369v-266h276v-338h-276v-266h-369v266h-276z" />
<glyph unicode="&#xb2;" d="M354 1233v57q0 82 59.5 123t153.5 41h211q88 0 140.5 -48.5t52.5 -133.5v-64q0 -63 -16.5 -98t-63.5 -72l-139 -104h225v-217h-596v184l301 234q35 22 35 55v8q0 43 -49 43h-33q-23 0 -33 -7t-10 -24v-34z" />
<glyph unicode="&#xb3;" d="M352 881v63l238 43v-22q0 -17 10 -24t33 -7h47q27 0 36 7.5t9 25.5v8q0 18 -11 24.5t-34 6.5h-57v165h57q26 0 35.5 7t9.5 24v6q0 19 -9 26t-36 7h-47q-23 0 -33 -7t-10 -24v-20l-238 43v57q0 82 59.5 123t153.5 41h221q88 0 140.5 -48.5t52.5 -133.5v-68q0 -35 -20 -70 t-62 -47q41 -11 61.5 -45.5t20.5 -68.5v-72q0 -86 -52.5 -135t-140.5 -49h-221q-94 0 -153.5 41t-59.5 123z" />
<glyph unicode="&#xb4;" d="M381 1286l217 277h352l-217 -277h-352z" />
<glyph unicode="&#xb5;" d="M147 -348v1487h369v-635q0 -76 47.5 -118t114.5 -42h53q113 0 113 129v666h368v-781q0 -180 -88 -269t-247 -89h-95q-88 0 -155.5 26t-104.5 68h-6v-442h-369z" />
<glyph unicode="&#xb7;" d="M471 473v369h389v-369h-389z" />
<glyph unicode="&#xb8;" d="M395 -348l94 231h111q21 0 35 11t14 32v33h287v-68q0 -117 -62.5 -178t-211.5 -61h-267z" />
<glyph unicode="&#xb9;" d="M399 717v217h140v307h-138v213h392v-520h139v-217h-533z" />
<glyph unicode="&#xba;" d="M309 942v287q0 115 70 170t194 55h185q124 0 194 -55t70 -170v-287q0 -115 -70 -170t-194 -55h-185q-124 0 -194 55t-70 170zM567 985q0 -51 60 -51h78q59 0 59 51v205q0 51 -59 51h-78q-60 0 -60 -51v-205z" />
<glyph unicode="&#xbb;" d="M82 621l256 448h367l-248 -448l248 -449h-367zM614 621l256 448h367l-248 -448l248 -449h-367z" />
<glyph unicode="&#xbc;" d="M0 717v217h119v307h-117v213h371v-520h119v-217h-492zM35 80l1081 1397l170 -136l-1081 -1394zM621 57v209l348 424h280v-418h82v-215h-82v-104h-237v104h-391zM901 272h111v129h-11z" />
<glyph unicode="&#xbd;" d="M0 717v217h119v307h-117v213h371v-520h119v-217h-492zM35 80l1081 1397l170 -136l-1081 -1394zM729 449v77q0 82 59.5 123t153.5 41h191q87 0 139.5 -48.5t52.5 -133.5v-64q0 -63 -16.5 -98t-63.5 -72l-139 -104h225v-217h-596v184l301 234q35 22 35 55v8q0 43 -49 43 h-33q-23 0 -33 -7t-10 -24v-34z" />
<glyph unicode="&#xbe;" d="M-6 881v63l207 43v-22q0 -17 10 -24t33 -7h67q27 0 36 7.5t9 25.5v18q0 18 -11 24.5t-34 6.5h-78v145h78q26 0 35.5 7t9.5 24v16q0 19 -9 26t-36 7h-67q-23 0 -33 -7t-10 -24v-20l-207 43v57q0 82 59.5 123t153.5 41h190q88 0 140.5 -48.5t52.5 -133.5v-68q0 -35 -20 -70 t-62 -47q41 -11 61.5 -45.5t20.5 -68.5v-72q0 -86 -52.5 -135t-140.5 -49h-190q-94 0 -153.5 41t-59.5 123zM82 80l1081 1397l170 -136l-1081 -1394zM621 57v209l348 424h280v-418h82v-215h-82v-104h-237v104h-391zM901 272h111v129h-11z" />
<glyph unicode="&#xbf;" d="M143 10v137q0 85 26 152.5t69 107t92.5 60t101.5 20.5h41q43 0 62.5 17t19.5 55v37h369v-139q0 -139 -74 -220t-199 -81h-47q-92 0 -92 -66v-22q0 -78 92 -78h164q92 0 92 78v51l369 -92v-27q0 -178 -108.5 -263t-301.5 -85h-246q-194 0 -312 90.5t-118 267.5zM555 694 v359h369v-359h-369z" />
<glyph unicode="&#xc0;" d="M70 0v375l405 1026h381l406 -1026v-375h-369v319v7h-455v-7v-319h-368zM319 1788h353l217 -277h-352zM547 653h235l-110 326h-13z" />
<glyph unicode="&#xc1;" d="M70 0v375l405 1026h381l406 -1026v-375h-369v319v7h-455v-7v-319h-368zM442 1511l217 277h353l-217 -277h-353zM547 653h235l-110 326h-13z" />
<glyph unicode="&#xc2;" d="M70 0v375l405 1026h381l406 -1026v-375h-369v319v7h-455v-7v-319h-368zM281 1501l239 297h291l240 -297h-326l-47 84h-25l-47 -84h-325zM547 653h235l-110 326h-13z" />
<glyph unicode="&#xc3;" d="M70 0v375l405 1026h381l406 -1026v-375h-369v319v7h-455v-7v-319h-368zM262 1491q0 89 29 158.5t95.5 114t162.5 44.5q40 0 74 -9t52.5 -19.5t38 -19.5t34.5 -9q29 0 41 13t12 44h266q0 -89 -29 -158.5t-95.5 -114t-162.5 -44.5q-52 0 -91 14.5t-64 28.5t-43 14 q-29 0 -41.5 -13t-12.5 -44h-266zM547 653h235l-110 326h-13z" />
<glyph unicode="&#xc4;" d="M70 0v375l405 1026h381l406 -1026v-375h-369v319v7h-455v-7v-319h-368zM287 1511v277h317v-277h-317zM547 653h235l-110 326h-13zM727 1511v277h317v-277h-317z" />
<glyph unicode="&#xc5;" d="M70 0v375l405 1026h381l406 -1026v-375h-369v319v7h-455v-7v-319h-368zM428 1671q0 101 67 165.5t169 64.5t168.5 -64.5t66.5 -165.5t-66.5 -165t-168.5 -64t-169 64t-67 165zM547 653h235l-110 326h-13zM602 1671q0 -28 17 -44.5t45 -16.5q29 0 45 16.5t16 44.5 q0 29 -16 45.5t-45 16.5q-28 0 -45 -16.5t-17 -45.5z" />
<glyph unicode="&#xc6;" d="M8 0v399l520 1002h779v-338h-308v-178h218v-332h-218v-209h308v-344h-676v334h-254v-15v-319h-369zM500 621h131v251h-19z" />
<glyph unicode="&#xc7;" d="M123 348v705q0 178 108 263t301 85h267q193 0 301 -85t108 -263v-129l-368 -93v154q0 78 -92 78h-164q-92 0 -92 -78v-563q0 -78 92 -78h164q92 0 92 78v178l368 -102v-150q0 -178 -108 -263t-301 -85h-267q-193 0 -301 85t-108 263zM307 -348h266q150 0 212.5 61 t62.5 178v68h-287v-33q0 -21 -14 -32t-35 -11h-111z" />
<glyph unicode="&#xc8;" d="M158 0v1401h1003v-338h-635v-178h504v-332h-504v-209h635v-344h-1003zM319 1788h353l217 -277h-352z" />
<glyph unicode="&#xc9;" d="M158 0v1401h1003v-338h-635v-178h504v-332h-504v-209h635v-344h-1003zM442 1511l217 277h353l-217 -277h-353z" />
<glyph unicode="&#xca;" d="M158 0v1401h1003v-338h-635v-178h504v-332h-504v-209h635v-344h-1003zM281 1501l239 297h291l240 -297h-326l-47 84h-25l-47 -84h-325z" />
<glyph unicode="&#xcb;" d="M158 0v1401h1003v-338h-635v-178h504v-332h-504v-209h635v-344h-1003zM287 1511v277h317v-277h-317zM727 1511v277h317v-277h-317z" />
<glyph unicode="&#xcc;" d="M133 0v344h348v719h-327v338h1024v-338h-328v-719h348v-344h-1065zM319 1788h353l217 -277h-352z" />
<glyph unicode="&#xcd;" d="M133 0v344h348v719h-327v338h1024v-338h-328v-719h348v-344h-1065zM442 1511l217 277h353l-217 -277h-353z" />
<glyph unicode="&#xce;" d="M133 0v344h348v719h-327v338h1024v-338h-328v-719h348v-344h-1065zM281 1501l239 297h291l240 -297h-326l-47 84h-25l-47 -84h-325z" />
<glyph unicode="&#xcf;" d="M133 0v344h348v719h-327v338h1024v-338h-328v-719h348v-344h-1065zM287 1511v277h317v-277h-317zM727 1511v277h317v-277h-317z" />
<glyph unicode="&#xd0;" d="M45 543v327h115v531h665q400 0 400 -348v-705q0 -348 -400 -348h-665v543h-115zM528 344h236q92 0 92 78v563q0 78 -92 78h-236v-193h193v-327h-193v-199z" />
<glyph unicode="&#xd1;" d="M102 0v1401h355l387 -719h16v719h369v-1401h-359l-383 688h-16v-688h-369zM262 1491q0 89 29 158.5t95.5 114t162.5 44.5q40 0 74 -9t52.5 -19.5t38 -19.5t34.5 -9q29 0 41 13t12 44h266q0 -89 -29 -158.5t-95.5 -114t-162.5 -44.5q-52 0 -91 14.5t-64 28.5t-43 14 q-29 0 -41.5 -13t-12.5 -44h-266z" />
<glyph unicode="&#xd2;" d="M102 348v705q0 178 108.5 263t301.5 85h307q193 0 301.5 -85t108.5 -263v-705q0 -178 -108.5 -263t-301.5 -85h-307q-193 0 -301.5 85t-108.5 263zM319 1788h353l217 -277h-352zM471 422q0 -78 92 -78h205q92 0 92 78v563q0 78 -92 78h-205q-92 0 -92 -78v-563z" />
<glyph unicode="&#xd3;" d="M102 348v705q0 178 108.5 263t301.5 85h307q193 0 301.5 -85t108.5 -263v-705q0 -178 -108.5 -263t-301.5 -85h-307q-193 0 -301.5 85t-108.5 263zM442 1511l217 277h353l-217 -277h-353zM471 422q0 -78 92 -78h205q92 0 92 78v563q0 78 -92 78h-205q-92 0 -92 -78v-563z " />
<glyph unicode="&#xd4;" d="M102 348v705q0 178 108.5 263t301.5 85h307q193 0 301.5 -85t108.5 -263v-705q0 -178 -108.5 -263t-301.5 -85h-307q-193 0 -301.5 85t-108.5 263zM281 1501l239 297h291l240 -297h-326l-47 84h-25l-47 -84h-325zM471 422q0 -78 92 -78h205q92 0 92 78v563q0 78 -92 78 h-205q-92 0 -92 -78v-563z" />
<glyph unicode="&#xd5;" d="M102 348v705q0 178 108.5 263t301.5 85h307q193 0 301.5 -85t108.5 -263v-705q0 -178 -108.5 -263t-301.5 -85h-307q-193 0 -301.5 85t-108.5 263zM262 1491q0 89 29 158.5t95.5 114t162.5 44.5q40 0 74 -9t52.5 -19.5t38 -19.5t34.5 -9q29 0 41 13t12 44h266 q0 -89 -29 -158.5t-95.5 -114t-162.5 -44.5q-52 0 -91 14.5t-64 28.5t-43 14q-29 0 -41.5 -13t-12.5 -44h-266zM471 422q0 -78 92 -78h205q92 0 92 78v563q0 78 -92 78h-205q-92 0 -92 -78v-563z" />
<glyph unicode="&#xd6;" d="M102 348v705q0 178 108.5 263t301.5 85h307q193 0 301.5 -85t108.5 -263v-705q0 -178 -108.5 -263t-301.5 -85h-307q-193 0 -301.5 85t-108.5 263zM287 1511v277h317v-277h-317zM471 422q0 -78 92 -78h205q92 0 92 78v563q0 78 -92 78h-205q-92 0 -92 -78v-563zM727 1511 v277h317v-277h-317z" />
<glyph unicode="&#xd7;" d="M176 391l256 256l-256 258l232 232l256 -256l258 256l231 -232l-256 -258l256 -256l-231 -231l-258 256l-256 -256z" />
<glyph unicode="&#xd8;" d="M-8 -168l166 285q-76 82 -76 231v705q0 178 109.5 263t300.5 85h348q23 0 63 -4l101 172h335l-165 -285q75 -87 75 -231v-705q0 -92 -29.5 -159.5t-84.5 -108.5t-128.5 -60.5t-166.5 -19.5h-348q-46 0 -66 2l-98 -170h-336zM461 637l254 436h-53h-109q-92 0 -92 -78v-286 v-72zM623 338h77h78q92 0 92 78v332v16z" />
<glyph unicode="&#xd9;" d="M123 348v1053h369v-979q0 -78 92 -78h164q92 0 92 78v979h368v-1053q0 -178 -108 -263t-301 -85h-267q-193 0 -301 85t-108 263zM319 1788h353l217 -277h-352z" />
<glyph unicode="&#xda;" d="M123 348v1053h369v-979q0 -78 92 -78h164q92 0 92 78v979h368v-1053q0 -178 -108 -263t-301 -85h-267q-193 0 -301 85t-108 263zM442 1511l217 277h353l-217 -277h-353z" />
<glyph unicode="&#xdb;" d="M123 348v1053h369v-979q0 -78 92 -78h164q92 0 92 78v979h368v-1053q0 -178 -108 -263t-301 -85h-267q-193 0 -301 85t-108 263zM281 1501l239 297h291l240 -297h-326l-47 84h-25l-47 -84h-325z" />
<glyph unicode="&#xdc;" d="M123 348v1053h369v-979q0 -78 92 -78h164q92 0 92 78v979h368v-1053q0 -178 -108 -263t-301 -85h-267q-193 0 -301 85t-108 263zM287 1511v277h317v-277h-317zM727 1511v277h317v-277h-317z" />
<glyph unicode="&#xdd;" d="M78 987v414h368v-279l218 -235l217 235v279h368v-414l-399 -395v-592h-369v592zM442 1511l217 277h353l-217 -277h-353z" />
<glyph unicode="&#xde;" d="M174 0v1401h369v-207h266q193 0 301.5 -85t108.5 -263v-234q0 -178 -108.5 -263t-301.5 -85h-266v-264h-369zM543 596h215q44 0 68 28.5t24 69.5v84q0 78 -92 78h-215v-260z" />
<glyph unicode="&#xdf;" d="M70 543v327h106v183q0 178 108.5 263t301.5 85h266q193 0 301.5 -85t108.5 -263v-101q0 -84 -43.5 -151t-135.5 -94q61 -18 103.5 -63t59 -91.5t16.5 -91.5v-113q0 -178 -108.5 -263t-301.5 -85h-121l-90 344h160q92 0 92 78v43q0 78 -92 78h-113v327h113q45 0 68.5 22.5 t23.5 61.5v31q0 78 -92 78h-164q-92 0 -92 -78v-985h-369v543h-106z" />
<glyph unicode="&#xe0;" d="M137 330v78q0 169 91.5 248t248.5 79h39q192 0 281 -67h6v82q0 92 -103 92h-100q-63 0 -63 -49v-27l-349 82v26q0 119 103.5 192t279.5 73h160q189 0 304.5 -99.5t115.5 -279.5v-760h-348v74h-6q-90 -74 -260 -74h-60q-159 0 -249.5 79t-90.5 251zM319 1522h353l217 -277 h-352zM485 367q0 -31 23 -47.5t59 -16.5h92q55 0 99.5 15.5t44.5 48.5v18q0 19 -14.5 33t-38.5 20t-45.5 8.5t-45.5 2.5h-92q-36 0 -59 -16.5t-23 -47.5v-18z" />
<glyph unicode="&#xe1;" d="M137 330v78q0 169 91.5 248t248.5 79h39q192 0 281 -67h6v82q0 92 -103 92h-100q-63 0 -63 -49v-27l-349 82v26q0 119 103.5 192t279.5 73h160q189 0 304.5 -99.5t115.5 -279.5v-760h-348v74h-6q-90 -74 -260 -74h-60q-159 0 -249.5 79t-90.5 251zM442 1245l217 277h353 l-217 -277h-353zM485 367q0 -31 23 -47.5t59 -16.5h92q55 0 99.5 15.5t44.5 48.5v18q0 19 -14.5 33t-38.5 20t-45.5 8.5t-45.5 2.5h-92q-36 0 -59 -16.5t-23 -47.5v-18z" />
<glyph unicode="&#xe2;" d="M137 330v78q0 169 91.5 248t248.5 79h39q192 0 281 -67h6v82q0 92 -103 92h-100q-63 0 -63 -49v-27l-349 82v26q0 119 103.5 192t279.5 73h160q189 0 304.5 -99.5t115.5 -279.5v-760h-348v74h-6q-90 -74 -260 -74h-60q-159 0 -249.5 79t-90.5 251zM281 1235l239 297h291 l240 -297h-326l-47 84h-25l-47 -84h-325zM485 367q0 -31 23 -47.5t59 -16.5h92q55 0 99.5 15.5t44.5 48.5v18q0 19 -14.5 33t-38.5 20t-45.5 8.5t-45.5 2.5h-92q-36 0 -59 -16.5t-23 -47.5v-18z" />
<glyph unicode="&#xe3;" d="M137 330v78q0 169 91.5 248t248.5 79h39q192 0 281 -67h6v82q0 92 -103 92h-100q-63 0 -63 -49v-27l-349 82v26q0 119 103.5 192t279.5 73h160q189 0 304.5 -99.5t115.5 -279.5v-760h-348v74h-6q-90 -74 -260 -74h-60q-159 0 -249.5 79t-90.5 251zM262 1225 q0 89 29 158.5t95.5 114t162.5 44.5q40 0 74 -9t52.5 -19.5t38 -19.5t34.5 -9q29 0 41 13t12 44h266q0 -89 -29 -158.5t-95.5 -114t-162.5 -44.5q-52 0 -91 14.5t-64 28.5t-43 14q-29 0 -41.5 -13t-12.5 -44h-266zM485 367q0 -31 23 -47.5t59 -16.5h92q55 0 99.5 15.5 t44.5 48.5v18q0 19 -14.5 33t-38.5 20t-45.5 8.5t-45.5 2.5h-92q-36 0 -59 -16.5t-23 -47.5v-18z" />
<glyph unicode="&#xe4;" d="M137 330v78q0 169 91.5 248t248.5 79h39q192 0 281 -67h6v82q0 92 -103 92h-100q-63 0 -63 -49v-27l-349 82v26q0 119 103.5 192t279.5 73h160q189 0 304.5 -99.5t115.5 -279.5v-760h-348v74h-6q-90 -74 -260 -74h-60q-159 0 -249.5 79t-90.5 251zM287 1245v277h317v-277 h-317zM485 367q0 -31 23 -47.5t59 -16.5h92q55 0 99.5 15.5t44.5 48.5v18q0 19 -14.5 33t-38.5 20t-45.5 8.5t-45.5 2.5h-92q-36 0 -59 -16.5t-23 -47.5v-18zM727 1245v277h317v-277h-317z" />
<glyph unicode="&#xe5;" d="M137 330v78q0 169 91.5 248t248.5 79h39q192 0 281 -67h6v82q0 92 -103 92h-100q-63 0 -63 -49v-27l-349 82v26q0 119 103.5 192t279.5 73h160q189 0 304.5 -99.5t115.5 -279.5v-760h-348v74h-6q-90 -74 -260 -74h-60q-159 0 -249.5 79t-90.5 251zM428 1425 q0 101 67 165.5t169 64.5t168.5 -64.5t66.5 -165.5t-66.5 -165t-168.5 -64t-169 64t-67 165zM485 367q0 -31 23 -47.5t59 -16.5h92q55 0 99.5 15.5t44.5 48.5v18q0 19 -14.5 33t-38.5 20t-45.5 8.5t-45.5 2.5h-92q-36 0 -59 -16.5t-23 -47.5v-18zM602 1425q0 -28 17 -44.5 t45 -16.5q29 0 45 16.5t16 44.5q0 29 -16 45.5t-45 16.5q-28 0 -45 -16.5t-17 -45.5z" />
<glyph unicode="&#xe6;" d="M25 336v94q0 175 79.5 241t282.5 64h117v39q0 38 -14 53t-58 15h-35q-53 0 -53 -43v-23l-299 84v14q0 114 72.5 189.5t222.5 75.5h117q158 0 219 -101h8q26 43 82 72t141 29h74q176 0 252 -102.5t76 -295.5v-292h-447v-68q0 -41 9.5 -59.5t35.5 -18.5h62q29 0 40 17 t11 53v30l289 -86v-8q0 -56 -6 -98t-24.5 -83.5t-49 -68t-83 -43t-124.5 -16.5h-104q-86 0 -147 29t-87 71h-8q-61 -100 -219 -100h-101q-172 0 -251.5 77.5t-79.5 258.5zM350 362q0 -33 12 -46t48 -13h41q65 0 65 72v74h-94q-35 0 -53.5 -15t-18.5 -39v-33zM862 735h158v33 q0 39 -12 56.5t-47 17.5h-33q-66 0 -66 -72v-35z" />
<glyph unicode="&#xe7;" d="M143 348v443q0 178 108.5 263t301.5 85h215q193 0 301.5 -85t108.5 -263v-68l-369 -92v92q0 78 -92 78h-113q-92 0 -92 -78v-301q0 -78 92 -78h113q92 0 92 78v72l369 -103v-43q0 -178 -108.5 -263t-301.5 -85h-215q-193 0 -301.5 85t-108.5 263zM307 -348h266 q150 0 212.5 61t62.5 178v68h-287v-33q0 -21 -14 -32t-35 -11h-111z" />
<glyph unicode="&#xe8;" d="M160 348v443q0 178 108 263t301 85h183q189 0 299 -97t110 -278v-322h-653v-57q0 -39 23.5 -60.5t68.5 -21.5h113q100 0 100 57v46l348 -62v-41q0 -87 -32 -147.5t-92.5 -93.5t-134.5 -47.5t-171 -14.5h-162q-193 0 -301 85t-108 263zM319 1522h353l217 -277h-352z M508 719h305v39q0 40 -18 62t-74 22h-121q-55 0 -73.5 -20.5t-18.5 -59.5v-43z" />
<glyph unicode="&#xe9;" d="M160 348v443q0 178 108 263t301 85h183q189 0 299 -97t110 -278v-322h-653v-57q0 -39 23.5 -60.5t68.5 -21.5h113q100 0 100 57v46l348 -62v-41q0 -87 -32 -147.5t-92.5 -93.5t-134.5 -47.5t-171 -14.5h-162q-193 0 -301 85t-108 263zM442 1245l217 277h353l-217 -277 h-353zM508 719h305v39q0 40 -18 62t-74 22h-121q-55 0 -73.5 -20.5t-18.5 -59.5v-43z" />
<glyph unicode="&#xea;" d="M160 348v443q0 178 108 263t301 85h183q189 0 299 -97t110 -278v-322h-653v-57q0 -39 23.5 -60.5t68.5 -21.5h113q100 0 100 57v46l348 -62v-41q0 -87 -32 -147.5t-92.5 -93.5t-134.5 -47.5t-171 -14.5h-162q-193 0 -301 85t-108 263zM281 1235l239 297h291l240 -297 h-326l-47 84h-25l-47 -84h-325zM508 719h305v39q0 40 -18 62t-74 22h-121q-55 0 -73.5 -20.5t-18.5 -59.5v-43z" />
<glyph unicode="&#xeb;" d="M160 348v443q0 178 108 263t301 85h183q189 0 299 -97t110 -278v-322h-653v-57q0 -39 23.5 -60.5t68.5 -21.5h113q100 0 100 57v46l348 -62v-41q0 -87 -32 -147.5t-92.5 -93.5t-134.5 -47.5t-171 -14.5h-162q-193 0 -301 85t-108 263zM287 1245v277h317v-277h-317z M508 719h305v39q0 40 -18 62t-74 22h-121q-55 0 -73.5 -20.5t-18.5 -59.5v-43zM727 1245v277h317v-277h-317z" />
<glyph unicode="&#xec;" d="M111 0v344h401v457h-362v338h731v-795h340v-344h-1110zM319 1522h353l217 -277h-352z" />
<glyph unicode="&#xed;" d="M111 0v344h401v457h-362v338h731v-795h340v-344h-1110zM442 1245l217 277h353l-217 -277h-353z" />
<glyph unicode="&#xee;" d="M111 0v344h401v457h-362v338h731v-795h340v-344h-1110zM281 1235l239 297h291l240 -297h-326l-47 84h-25l-47 -84h-325z" />
<glyph unicode="&#xef;" d="M111 0v344h401v457h-362v338h731v-795h340v-344h-1110zM287 1245v277h317v-277h-317zM727 1245v277h317v-277h-317z" />
<glyph unicode="&#xf0;" d="M154 348v279q0 178 108 263t301 85h88q35 0 51 -4l3 2l-48 90h-204l-134 254h211l-69 137h366l66 -137h160l123 -254h-162l116 -242q48 -98 48 -194v-279q0 -179 -109 -263.5t-301 -84.5h-205q-193 0 -301 84.5t-108 263.5zM522 422q0 -78 92 -78h103q92 0 92 78v147 q0 78 -92 78h-103q-92 0 -92 -78v-147z" />
<glyph unicode="&#xf1;" d="M133 0v1139h369v-95h6q38 42 105 68.5t155 26.5h94q157 0 246.5 -90t89.5 -269v-780h-369v672q0 129 -112 129h-53q-67 0 -114.5 -42t-47.5 -118v-641h-369zM262 1225q0 89 29 158.5t95.5 114t162.5 44.5q40 0 74 -9t52.5 -19.5t38 -19.5t34.5 -9q29 0 41 13t12 44h266 q0 -89 -29 -158.5t-95.5 -114t-162.5 -44.5q-52 0 -91 14.5t-64 28.5t-43 14q-29 0 -41.5 -13t-12.5 -44h-266z" />
<glyph unicode="&#xf2;" d="M143 348v443q0 178 108.5 263t301.5 85h225q193 0 301.5 -85t108.5 -263v-443q0 -178 -108.5 -263t-301.5 -85h-225q-193 0 -301.5 85t-108.5 263zM319 1522h353l217 -277h-352zM512 422q0 -78 92 -78h123q92 0 92 78v301q0 78 -92 78h-123q-92 0 -92 -78v-301z" />
<glyph unicode="&#xf3;" d="M143 348v443q0 178 108.5 263t301.5 85h225q193 0 301.5 -85t108.5 -263v-443q0 -178 -108.5 -263t-301.5 -85h-225q-193 0 -301.5 85t-108.5 263zM442 1245l217 277h353l-217 -277h-353zM512 422q0 -78 92 -78h123q92 0 92 78v301q0 78 -92 78h-123q-92 0 -92 -78v-301z " />
<glyph unicode="&#xf4;" d="M143 348v443q0 178 108.5 263t301.5 85h225q193 0 301.5 -85t108.5 -263v-443q0 -178 -108.5 -263t-301.5 -85h-225q-193 0 -301.5 85t-108.5 263zM281 1235l239 297h291l240 -297h-326l-47 84h-25l-47 -84h-325zM512 422q0 -78 92 -78h123q92 0 92 78v301q0 78 -92 78 h-123q-92 0 -92 -78v-301z" />
<glyph unicode="&#xf5;" d="M143 348v443q0 178 108.5 263t301.5 85h225q193 0 301.5 -85t108.5 -263v-443q0 -178 -108.5 -263t-301.5 -85h-225q-193 0 -301.5 85t-108.5 263zM262 1225q0 89 29 158.5t95.5 114t162.5 44.5q40 0 74 -9t52.5 -19.5t38 -19.5t34.5 -9q29 0 41 13t12 44h266 q0 -89 -29 -158.5t-95.5 -114t-162.5 -44.5q-52 0 -91 14.5t-64 28.5t-43 14q-29 0 -41.5 -13t-12.5 -44h-266zM512 422q0 -78 92 -78h123q92 0 92 78v301q0 78 -92 78h-123q-92 0 -92 -78v-301z" />
<glyph unicode="&#xf6;" d="M143 348v443q0 178 108.5 263t301.5 85h225q193 0 301.5 -85t108.5 -263v-443q0 -178 -108.5 -263t-301.5 -85h-225q-193 0 -301.5 85t-108.5 263zM287 1245v277h317v-277h-317zM512 422q0 -78 92 -78h123q92 0 92 78v301q0 78 -92 78h-123q-92 0 -92 -78v-301zM727 1245 v277h317v-277h-317z" />
<glyph unicode="&#xf7;" d="M119 473v338h1093v-338h-1093zM471 35v358h389v-358h-389zM471 891v358h389v-358h-389z" />
<glyph unicode="&#xf8;" d="M-20 -168l208 297q-65 80 -65 219v443q0 179 108 263.5t301 84.5h267q51 0 94 -6l123 174h336l-209 -297q65 -87 65 -219v-443q0 -179 -108.5 -263.5t-300.5 -84.5h-267q-50 0 -96 6l-121 -174h-335zM471 530l211 301h-39h-80q-92 0 -92 -77v-168v-56zM655 317h56h57 q92 0 92 78v142v69z" />
<glyph unicode="&#xf9;" d="M133 358v781h369v-666q0 -129 112 -129h54q67 0 114 42t47 118v635h369v-1139h-369v94h-6q-37 -42 -104.5 -68t-155.5 -26h-94q-159 0 -247.5 89t-88.5 269zM319 1522h353l217 -277h-352z" />
<glyph unicode="&#xfa;" d="M133 358v781h369v-666q0 -129 112 -129h54q67 0 114 42t47 118v635h369v-1139h-369v94h-6q-37 -42 -104.5 -68t-155.5 -26h-94q-159 0 -247.5 89t-88.5 269zM442 1245l217 277h353l-217 -277h-353z" />
<glyph unicode="&#xfb;" d="M133 358v781h369v-666q0 -129 112 -129h54q67 0 114 42t47 118v635h369v-1139h-369v94h-6q-37 -42 -104.5 -68t-155.5 -26h-94q-159 0 -247.5 89t-88.5 269zM281 1235l239 297h291l240 -297h-326l-47 84h-25l-47 -84h-325z" />
<glyph unicode="&#xfc;" d="M133 358v781h369v-666q0 -129 112 -129h54q67 0 114 42t47 118v635h369v-1139h-369v94h-6q-37 -42 -104.5 -68t-155.5 -26h-94q-159 0 -247.5 89t-88.5 269zM287 1245v277h317v-277h-317zM727 1245v277h317v-277h-317z" />
<glyph unicode="&#xfd;" d="M133 -131v-23q0 -172 108.5 -255t299.5 -83h221q95 0 172.5 20.5t137.5 61.5t93 109t33 158v1282h-369v-635q0 -76 -47 -118t-114 -42h-54q-112 0 -112 129v666h-369v-781q0 -180 88.5 -269t247.5 -89h94q88 0 155.5 26t104.5 68h6v-180q0 -78 -92 -78h-143q-92 0 -92 78 v47zM442 1245l217 277h353l-217 -277h-353z" />
<glyph unicode="&#xfe;" d="M184 -348v1749h369v-357h6q38 42 105 68.5t155 26.5h94q157 0 246.5 -90.5t89.5 -268.5v-422q0 -180 -88.5 -269t-247.5 -89h-94q-88 0 -155.5 26t-104.5 68h-6v-442h-369zM553 504q0 -76 47.5 -118t114.5 -42h53q113 0 113 129v199q0 129 -113 129h-53q-67 0 -114.5 -42 t-47.5 -118v-137z" />
<glyph unicode="&#xff;" d="M133 -131v-23q0 -172 108.5 -255t299.5 -83h221q95 0 172.5 20.5t137.5 61.5t93 109t33 158v1282h-369v-635q0 -76 -47 -118t-114 -42h-54q-112 0 -112 129v666h-369v-781q0 -180 88.5 -269t247.5 -89h94q88 0 155.5 26t104.5 68h6v-180q0 -78 -92 -78h-143q-92 0 -92 78 v47zM287 1245v277h317v-277h-317zM727 1245v277h317v-277h-317z" />
<glyph unicode="&#x152;" d="M29 348v705q0 171 106 259.5t279 88.5h30q162 0 222 -80h6v80h635v-338h-308v-178h218v-332h-218v-209h308v-344h-635v80h-6q-60 -80 -222 -80h-30q-173 0 -279 88.5t-106 259.5zM397 422q0 -78 92 -78h31q66 0 98.5 48t32.5 130v357q0 82 -31 133t-90 51h-41 q-92 0 -92 -78v-563z" />
<glyph unicode="&#x153;" d="M25 338v453q0 186 77 267t260 81h84q86 0 145 -29t85 -72h8q26 43 82 72t141 29h74q176 0 252 -102.5t76 -295.5v-292h-447v-68q0 -41 9.5 -59.5t35.5 -18.5h62q29 0 40 17t11 53v30l289 -86v-8q0 -56 -6 -98t-24.5 -83.5t-49 -68t-83 -43t-124.5 -16.5h-104 q-86 0 -147 29t-87 71h-8q-26 -43 -85 -71.5t-145 -28.5h-79q-185 0 -263.5 77t-78.5 261zM328 375q0 -38 16.5 -55t54.5 -17h31q38 0 60 28.5t22 74.5v333q0 46 -22 74.5t-60 28.5h-31q-38 0 -54.5 -17t-16.5 -55v-395zM862 735h158v33q0 39 -12 56.5t-47 17.5h-33 q-66 0 -66 -72v-35z" />
<glyph unicode="&#x178;" d="M80 987v414h369v-279l217 -235l217 235v279h368v-414l-399 -395v-592h-369v592zM287 1511v277h317v-277h-317zM727 1511v277h317v-277h-317z" />
<glyph unicode="&#x2c6;" d="M281 1276l239 297h291l240 -297h-326l-47 84h-25l-47 -84h-325z" />
<glyph unicode="&#x2dc;" d="M262 1266q0 89 29 158.5t95.5 114t162.5 44.5q52 0 91.5 -14.5t64.5 -28.5t43 -14q29 0 41 13t12 44h266q0 -89 -29 -158.5t-95.5 -114t-162.5 -44.5q-52 0 -91 14t-64 28.5t-43 14.5q-29 0 -41.5 -13t-12.5 -44h-266z" />
<glyph unicode="&#x2000;" horiz-adv-x="950" />
<glyph unicode="&#x2001;" horiz-adv-x="1901" />
<glyph unicode="&#x2002;" horiz-adv-x="950" />
<glyph unicode="&#x2003;" horiz-adv-x="1901" />
<glyph unicode="&#x2004;" horiz-adv-x="633" />
<glyph unicode="&#x2005;" horiz-adv-x="475" />
<glyph unicode="&#x2006;" horiz-adv-x="316" />
<glyph unicode="&#x2007;" horiz-adv-x="316" />
<glyph unicode="&#x2008;" horiz-adv-x="237" />
<glyph unicode="&#x2009;" horiz-adv-x="380" />
<glyph unicode="&#x200a;" horiz-adv-x="105" />
<glyph unicode="&#x2010;" d="M315 473v338h701v-338h-701z" />
<glyph unicode="&#x2011;" d="M315 473v338h701v-338h-701z" />
<glyph unicode="&#x2012;" d="M315 473v338h701v-338h-701z" />
<glyph unicode="&#x2013;" d="M221 473v338h889v-338h-889z" />
<glyph unicode="&#x2014;" d="M152 473v338h1028v-338h-1028z" />
<glyph unicode="&#x2018;" d="M455 1032v391q0 142 74 229t216 87h70l62 -154h-62q-68 0 -110.5 -43.5t-42.5 -109.5v-31h182v-369h-389z" />
<glyph unicode="&#x2019;" d="M438 1016h62q68 0 110.5 43.5t42.5 109.5v31h-182v369h389v-391q0 -141 -74.5 -228.5t-216.5 -87.5h-69z" />
<glyph unicode="&#x201a;" d="M438 -184h62q68 0 110.5 43.5t42.5 109.5v31h-182v369h389v-392q0 -141 -74.5 -228t-216.5 -87h-69z" />
<glyph unicode="&#x201c;" d="M229 1032v391q0 141 74.5 228.5t216.5 87.5h70l61 -154h-61q-68 0 -111 -44t-43 -109v-31h182v-369h-389zM713 1032v391q0 141 74.5 228.5t216.5 87.5h69l62 -154h-62q-68 0 -110.5 -43.5t-42.5 -109.5v-31h182v-369h-389z" />
<glyph unicode="&#x201d;" d="M197 1016h61q68 0 111 44t43 109v31h-183v369h389v-391q0 -142 -74 -229t-216 -87h-70zM680 1016h61q68 0 111 44t43 109v31h-182v369h389v-391q0 -141 -74.5 -228.5t-216.5 -87.5h-70z" />
<glyph unicode="&#x201e;" d="M197 -184h61q68 0 111 44t43 109v31h-183v369h389v-392q0 -141 -74 -228t-216 -87h-70zM680 -184h61q68 0 111 44t43 109v31h-182v369h389v-392q0 -141 -74.5 -228t-216.5 -87h-70z" />
<glyph unicode="&#x2022;" d="M379 510v289q0 73 31.5 105t105.5 32h299q73 0 105 -32t32 -105v-289q0 -74 -32 -105.5t-105 -31.5h-299q-74 0 -105.5 31.5t-31.5 105.5z" />
<glyph unicode="&#x2026;" d="M0 0v369h389v-369h-389zM471 0v369h389v-369h-389zM942 0v369h389v-369h-389z" />
<glyph unicode="&#x202f;" horiz-adv-x="380" />
<glyph unicode="&#x2039;" d="M360 172l248 449l-248 448h367l256 -448l-256 -449h-367z" />
<glyph unicode="&#x203a;" d="M348 621l256 448h367l-248 -448l248 -449h-367z" />
<glyph unicode="&#x205f;" horiz-adv-x="475" />
<glyph unicode="&#x20ac;" d="M33 459v211h139v49h-139v211h139v123q0 178 108.5 263t301.5 85h266q193 0 301 -85t108 -263v-47l-368 -93v72q0 78 -92 78h-164q-92 0 -92 -78v-55h274l-51 -211h-223v-49h213l-52 -211h-161v-37q0 -78 92 -78h164q92 0 92 78v76l368 -103v-47q0 -178 -108 -263 t-301 -85h-266q-193 0 -301.5 85t-108.5 263v111h-139z" />
<glyph unicode="&#x2122;" d="M6 1464v260h823l115 -194h8l113 194h262v-753h-250v321h-12l-82 -159h-72l-82 159h-12v-321h-250v493h-127v-493h-250v493h-184z" />
<glyph unicode="&#x25fc;" horiz-adv-x="1136" d="M0 0v1137h1137v-1137h-1137z" />
</font>
</defs>
</svg>
