<?xml version="1.0" encoding="UTF-8"?>
<svg width="481px" height="390px" viewBox="0 0 481 390" version="1.1" xmlns="http://www.w3.org/2000/svg" xmlns:xlink="http://www.w3.org/1999/xlink">
    <!-- Generator: Sketch 50.2 (55047) - http://www.bohemiancoding.com/sketch -->
    <title>help4papers-verde</title>
    <desc>Created with Sketch.</desc>
    <defs></defs>
    <g id="Page-1" stroke="none" stroke-width="1" fill="none" fill-rule="evenodd">
        <g id="Card-/-Help4Papers" transform="translate(-80.000000, -125.000000)">
            <g id="help4papers-verde" transform="translate(80.000000, 125.000000)">
                <path d="M339.0276,102.440041 C347.00924,106.660083 351,113.900242 351,124.160735 C351,131.607868 348.0485,141.040761 342.145413,152.459697 C335.577188,165.202568 328.884351,171.573908 322.066701,171.573908 C320.736428,171.573908 319.260678,170.932637 317.639407,169.650075 C316.018137,168.367513 314.417676,167.105657 312.837976,165.864468 L312.837976,186.964571 C312.837976,188.040268 313.045828,189.281438 313.461539,190.688119 C314.043533,192.674021 314.417667,194.039308 314.583951,194.784021 C314.750235,195.528735 314.438457,196.873335 313.648607,198.817864 C312.858758,200.762394 311.715571,201.817388 310.219014,201.98288 C308.722456,202.148372 305.479964,201.114063 300.491439,198.879924 C295.253488,196.563038 292.010995,194.494421 290.763864,192.674011 C290.015586,191.515568 290.015586,189.77793 290.763864,187.461044 C291.345859,185.72338 291.636852,184.358093 291.636852,183.365142 L291.636852,106.660062 C291.636852,106.163586 291.345859,105.253395 290.763864,103.92946 C290.18187,102.605526 289.932447,101.653962 290.015589,101.07474 C290.514442,97.1029365 292.010977,95.1170643 294.505239,95.1170643 C294.92095,95.1170643 296.604551,95.5928462 299.556095,96.5444242 C302.507639,97.4960022 304.856368,98.0131564 306.602351,98.0959023 C309.096614,98.1786483 312.276751,97.5166909 316.142857,96.1100103 C320.008964,94.7033297 322.814967,94 324.560951,94 C325.558656,94 326.556346,94.124117 327.554051,94.3723548 C329.466319,94.8688303 331.461699,96.1100004 333.540251,98.0959023 C336.034513,100.412788 337.863611,101.86082 339.0276,102.440041 Z M328.676463,111.997147 C326.764195,111.997147 324.103689,113.031455 320.694863,115.100103 C317.286038,117.168751 314.667102,119.444229 312.837976,121.926607 L312.837976,151.839106 C317.327648,150.432425 321.567831,145.343628 325.558651,136.572561 C329.216902,128.628953 331.046001,121.885262 331.046001,116.341286 C331.046001,113.445178 330.256163,111.997147 328.676463,111.997147 Z" id="P" fill="#474853"></path>
                <path d="M281,159.710955 C281,161.529659 279.218829,163.100334 275.656433,164.423028 C272.094037,165.001706 268.076046,165.704377 263.602339,166.53106 L263.602339,195.54751 C263.602339,195.878184 263.685184,196.374186 263.850877,197.035533 C264.01657,197.69688 264.057993,198.27555 263.975146,198.77156 C263.809453,200.507596 263.001713,202.016271 261.551901,203.29763 C260.102088,204.57899 258.714432,205.136993 257.388889,204.971656 C252.335257,204.310309 246.701785,200.383621 240.488304,193.191474 C239.825533,192.36479 239.576997,190.918115 239.74269,188.851406 C239.74269,188.438065 240.032648,187.942062 240.612573,187.363383 C241.192498,186.784705 241.482456,186.247368 241.482456,185.751358 L241.482456,169.507106 C234.606203,171.739152 229.42838,173.351161 225.94883,174.343181 C219.735349,176.079217 215.468823,177.029889 213.149123,177.195226 C211.160809,177.360562 208.054115,175.955221 203.828947,172.97916 C200.100859,170.333773 197.698348,168.225761 196.621345,166.655062 C196.207113,166.076384 196,165.45638 196,164.795033 C196,163.803013 196.911297,162.02567 198.733918,159.462951 C199.645229,158.636267 200.929329,157.230926 202.586257,155.246885 C202.75195,155.081549 209.172451,144.913493 221.847953,124.742412 C234.274916,104.984674 240.943953,94.8579517 241.855263,94.3619415 C244.589195,92.7085743 246.618902,91.9232366 247.944444,92.005905 C249.849912,92.0885733 253.246564,93.8452497 258.134503,97.2759867 C263.022442,100.706724 265.632065,103.248738 265.96345,104.902105 C266.21199,105.811457 265.383538,107.5888 263.47807,110.234188 L263.47807,143.96271 C266.294848,143.4667 267.786062,143.218699 267.951754,143.218699 C268.945911,143.218699 269.815786,143.508034 270.561404,144.086712 C272.052639,145.409406 274.165191,148.158088 276.899123,152.33284 C279.633055,156.507592 281,158.966939 281,159.710955 Z M241.730994,149.418795 L241.730994,132.30653 L228.434211,153.882864 L241.730994,149.418795 Z" id="4" fill="#29C3A6"></path>
                <path d="M198.99557,150.278639 C198.912869,151.444679 197.941148,152.881384 196.08038,154.588798 C194.219611,156.296212 192.875742,157.149907 192.048734,157.149907 C190.890922,157.149907 190.187976,157.19155 189.939873,157.274839 L189.939873,188.757737 C189.939873,188.507871 190.353371,190.048685 191.18038,193.380226 C191.924687,198.71069 191.30444,201.833962 189.31962,202.750136 C188.906116,202.916713 188.285869,203 187.458861,203 C184.564332,203 180.84285,201.958909 176.294304,199.876697 C171.414955,197.711196 168.437769,195.545727 167.362658,193.380226 L166.990506,190.007058 C166.825105,189.424039 167.114553,188.63281 167.858861,187.633348 C168.603168,186.633885 168.975317,186.009231 168.975317,185.759366 L168.975317,160.523074 C167.404001,160.689651 164.302766,161.314306 159.671519,162.397056 C155.040272,163.479807 151.980387,164.31268 150.491772,164.895699 L150.491772,190.256922 C150.491772,190.839942 150.760546,191.527062 151.298101,192.318303 C151.835657,193.109543 152.14578,193.713376 152.228481,194.129818 C151.897678,195.462435 151.608229,196.753387 151.360127,198.002715 C151.112024,198.918888 150.657177,199.501899 149.99557,199.751765 C148.672356,200.251496 144.97155,199.481088 138.893038,197.44052 C132.814527,195.399952 129.609918,193.755028 129.279114,192.505701 C129.031012,191.589527 128.948312,190.59008 129.031013,189.50733 C129.279116,187.841559 129.403165,186.675538 129.403165,186.00923 L129.403165,106.052664 C129.403165,104.720048 129.775313,102.429648 130.519621,99.1813967 C130.685022,98.3485117 132.090915,97.1824901 134.737342,95.683297 C134.902744,95.6000085 135.357592,95.5583648 136.101899,95.5583648 C139.16183,95.5583648 142.387114,96.0580884 145.777848,97.0575504 C150.160993,98.3901665 152.476581,100.139199 152.724684,102.3047 C152.807385,103.054297 152.455911,104.47018 151.670253,106.552393 C150.884595,108.634605 150.491772,110.050489 150.491772,110.800085 L150.491772,141.283526 C156.115429,139.867621 162.276549,138.410094 168.975317,136.910901 L168.975317,102.054836 C168.975317,101.888259 168.789242,101.263604 168.417089,100.180854 C168.044935,99.0981032 167.94156,98.223587 168.106962,97.557279 C168.520466,96.0580859 169.88501,95.1002824 172.200633,94.6838399 C173.937351,94.4339744 175.674042,94.2257562 177.41076,94.0591792 C179.230178,93.8093137 181.89724,94.3506809 185.412025,95.683297 C188.926811,97.0159131 190.890926,98.4317964 191.30443,99.9309895 C191.469832,100.597298 191.304433,101.471814 190.808228,102.554564 C190.229322,103.970469 189.939873,105.136491 189.939873,106.052664 L189.939873,140.533933 C190.353378,141.033664 192.296818,142.82434 195.770253,145.906015 C198.003176,147.904939 199.07827,149.362466 198.99557,150.278639 Z" id="H" fill="#474853"></path>
                <path d="M1.4751841e-14,141.057998 C0.844628381,136.151078 1.41157072,131.209439 2.5917364,126.360384 C7.27768838,107.23034 16.9851296,90.8777972 29.9900927,76.3884957 C49.995058,53.9601681 74.6975456,38.33672 101.980199,26.4860453 C129.517399,14.5196414 158.350466,7.33285529 187.981881,2.94671691 C205.603374,0.331235972 223.30586,-0.0622434605 241.019915,0.00719408645 C253.446366,0.00719408645 265.861246,0.238652576 278.241415,1.16448654 C296.87725,2.80353826 315.337924,6.04042002 333.419946,10.8394514 C363.178634,18.4544357 391.271205,29.9926415 416.841461,47.1668614 C435.61998,59.7813491 452.061308,74.814578 464.279494,94.0834973 C476.254704,113.005229 482.294376,133.581889 480.767103,156.033362 C479.40974,175.817215 472.495483,194.815757 460.819988,210.842733 C444.424942,233.838133 422.892703,250.769322 398.132364,263.893018 C393.145586,266.531645 387.938972,268.718928 383.091037,271.565867 C381.277341,272.308383 380.407528,274.379845 381.147235,276.195037 C384.930707,290.499172 389.454675,304.571848 393.79352,318.713962 C397.48443,330.73823 401.487737,342.669915 404.102614,355.006653 C405.364541,361.514829 405.753642,368.162202 405.259639,374.773208 C404.854681,382.098869 396.963769,389.436103 389.535667,389.945312 C382.77864,390.408229 377.074506,387.885331 371.74062,384.15885 C364.624915,379.147773 358.481111,373.025696 352.348878,366.903619 C333.408376,348.039752 315.567047,328.111176 296.695967,309.166299 C293.62985,306.099474 290.40175,303.217816 287.081088,300.428741 C285.006262,298.682021 282.269972,297.93328 279.595135,298.380333 C272.456289,299.155719 265.282733,299.676501 258.109177,300.023689 C250.357108,300.405595 242.60504,300.764356 234.82983,300.579189 C218.827064,300.261531 202.856303,299.013406 186.99841,296.841134 C164.558627,293.836906 142.481416,288.563518 121.105826,281.101957 C93.0016839,271.114523 66.8413446,257.562629 44.2446429,237.796074 C26.2529013,222.126334 12.1719049,203.690665 4.55867921,180.729983 C2.47402954,173.85918 0.9494801,166.830699 0,159.713552 L1.4751841e-14,141.057998 Z M366.69599,337.797714 L367.228222,337.462099 C364.555494,328.724541 361.836484,319.998556 359.221607,311.237853 C355.18359,297.697531 350.798464,284.261366 349.329042,270.084533 C348.357141,260.826193 351.851357,253.234355 360.066236,248.859789 C367.13566,245.098589 374.448059,241.811878 381.563764,238.143261 C398.84972,229.23211 414.677824,218.307269 427.578655,203.609655 C442.04147,187.141383 451.633209,168.809871 449.943952,145.860761 C449.578307,138.523255 448.014959,131.295009 445.315851,124.462424 C437.216675,105.216651 424.026588,90.1255571 407.376995,77.9045489 C381.459631,58.878661 352.163754,47.3520282 321.21333,39.713898 C301.277786,34.7722593 281.087697,31.4739758 260.457938,31.1846527 C240.78851,30.9069025 221.119082,29.9463498 201.449654,32.2377888 C179.842968,34.6408885 158.527007,39.1764221 137.813269,45.7781105 C113.145492,53.7750013 89.9008564,64.5956857 69.5487835,80.9598009 C55.7570434,92.0003709 44.1983619,104.973619 36.7355494,121.245151 C31.3502792,132.707057 29.2552647,145.440316 30.6843078,158.023905 C32.2462918,171.760967 37.8115829,183.947256 45.9454699,194.999399 C59.366962,213.238328 77.0463067,226.38517 96.773586,236.939677 C127.261199,253.245928 159.993442,262.400111 194.114114,267.029281 C204.076101,268.383313 214.072799,269.181845 224.104207,269.679481 C233.175284,270.130825 242.246362,270.119252 251.305869,269.79521 C264.033146,269.332293 276.760423,267.827813 289.4877,267.908823 C292.854119,267.840651 296.146056,268.904257 298.836463,270.929356 C300.398447,272.086649 302.064564,273.174504 303.533986,274.459098 C320.970355,289.584911 336.752178,306.40037 352.730696,323.065381 C357.416648,327.902864 362.044749,332.844503 366.69599,337.751423 L366.69599,337.797714 Z" id="Balloon" fill="#474853" fill-rule="nonzero"></path>
            </g>
        </g>
    </g>
</svg>