<svg xmlns="http://www.w3.org/2000/svg" xmlns:xlink="http://www.w3.org/1999/xlink" width="160" height="223" viewBox="0 0 160 223"><defs><path id="a" d="M0 222.58h174.705V.25H0z"/><path id="c" d="M2.646 5.178L33.861.79l-2.9 45.129a104.372 104.372 0 0 1-3.208-.185C16.326 44.9 6.335 42.303.263 38.981V8.332a38.843 38.843 0 0 1 2.383-3.154z"/><path id="e" d="M.04 7.446A31.809 31.809 0 0 1 20.047.37c1.45 0 2.92.1 4.397.302 7.817 1.074 14.567 4.883 19.4 10.314H.041v-3.54z"/><path id="g" d="M23.862.372c2.135 3.502 3.622 7.228 4.314 10.894H.313V.372h23.55z"/><path id="i" d="M.13 9.25C1.243 6.2 2.918 3.2 5.046.416V9.25H.13z"/><path id="k" d="M13.987 4.457c.293-1.485.531-2.97.715-4.455H.376v4.455h13.61z"/><path id="m" d="M3.973 20.166A63.457 63.457 0 0 1 15.675.062l3.582 38.307H.323a63.403 63.403 0 0 1 3.65-18.203z"/><path id="o" d="M5.414.363h1.69l.636 9.09L.307 8.189A63.23 63.23 0 0 1 5.414.363z"/><path id="q" d="M5.443.348h5.363l.61 11.677L.15 10.578A63.598 63.598 0 0 1 5.443.348z"/><path id="s" d="M1.781 7.081A64.38 64.38 0 0 0 .43 11.308l12.061 1.108L11.977.32h-7.33a64.192 64.192 0 0 0-2.866 6.762z"/><path id="u" d="M3.06.202h7.55l.538 10.914-10.71-1.2A63.88 63.88 0 0 1 3.06.203z"/><path id="w" d="M1.52.338h4.542l.66 8.857L.198 7.908C.482 5.385.921 2.858 1.52.338z"/><path id="y" d="M.267.114a63.502 63.502 0 0 0 6.561 26.345H21.16V.114H.267z"/><path id="A" d="M29.61.207C18.129 7.552 8.91 18.594 3.974 32.379-.342 44.43-.789 56.916 1.991 68.495h27.62V.207z"/><path id="C" d="M.23.187h5.418V7.35H.229z"/><path id="E" d="M70.827 6.106c-12.752 8.707-28.602 12.75-44.949 10.178A62.522 62.522 0 0 1 .254 6.124V.397h70.573v5.709z"/><path id="G" d="M7.452 1.734c-2.328.17-4.683.209-7.058.11V.127h7.058v1.608z"/></defs><g fill="none" fill-rule="evenodd"><path fill="#F3DFDB" d="M113.058 43L111 42.819 114.942 2l2.058.181zm-6.174 3L105 45.82 107.116 22l1.884.18z"/><path fill="#401B46" d="M114.506 40.404a1.825 1.825 0 0 0-1.664-1.971 1.824 1.824 0 0 0-1.97 1.667l-.38 4.545 3.634.304.38-4.545z"/><path fill="#F3DFDB" d="M60.02 146.434l-.81 1.796-54.48-24.602.809-1.797z"/><path fill="#FFF7F9" d="M50.906 113.428c-24.946 24.97-24.946 65.454 0 90.425 24.944 24.969 65.387 24.97 90.332 0 24.945-24.971 24.945-65.455 0-90.425s-65.388-24.97-90.332 0"/><path fill="#F3DFDB" d="M107.397 59.873c16.408 1.305 28.907 14.112 27.918 28.604l-.298 4.375-.244 3.552-.041.614-.047-.003c-1.26 5.673-14.518 9.2-30.364 7.94-15.847-1.26-28.483-6.849-28.958-12.66l-.048-.004.042-.614.242-3.553.299-4.374c.989-14.492 15.092-25.182 31.5-23.877"/><path fill="#CEB6C6" d="M108.82 52.248c18.315 1.353 32.231 15.083 31.082 30.667l-.347 4.704-.282 3.82-.048.66-.053-.003c-1.424 6.103-16.238 9.936-33.926 8.63-17.69-1.307-31.78-7.276-32.293-13.522l-.054-.004.05-.66.28-3.821.347-4.704c1.15-15.583 16.929-27.12 35.244-25.767"/><path fill="#FFF7F9" d="M108.82 42.492c19.114 1.412 33.677 21.175 32.529 36.758l-.347 4.704-.283 3.82-.048.661-.055-.004c-1.467 6.1-16.91 9.887-35.37 8.524-18.459-1.364-33.18-7.38-33.734-13.629l-.056-.004.048-.66.282-3.821.347-4.704c1.149-15.583 17.574-33.057 36.687-31.645"/><mask id="b" fill="#fff"><use xlink:href="#a"/></mask><path fill="#F3DFDB" d="M1.719 127.702H9.74v-11.095H1.72z" mask="url(#b)"/><path fill="#F9802D" d="M.114 111.176c-.773 3.006 2.514 5.62 5.615 5.62 3.1 0 6.388-2.614 5.615-5.62-.725-2.819-5.615-10.195-5.615-10.195S.84 108.357.114 111.176" mask="url(#b)"/><path fill="#FFDE00" d="M2.33 113.394c-.468 1.82 1.523 3.402 3.4 3.402s3.867-1.582 3.399-3.402c-.439-1.707-3.399-6.173-3.399-6.173s-2.96 4.466-3.4 6.173" mask="url(#b)"/><path fill="#CEB6C6" d="M105.26 69.987c0 6.543-5.298 11.846-11.834 11.846S81.59 76.53 81.59 69.987c0-6.542 5.299-11.846 11.835-11.846 6.536 0 11.834 5.304 11.834 11.846" mask="url(#b)"/><path fill="#401B46" d="M101.258 68.673c0 5.195-4.206 9.406-9.396 9.406-5.189 0-9.395-4.211-9.395-9.406 0-5.194 4.206-9.405 9.395-9.405 5.19 0 9.396 4.21 9.396 9.405" mask="url(#b)"/><path fill="#5B2E67" d="M94.811 61.763c-.243 1.026-3.126 1.17-5.584 2.684-2.457 1.516-3.882 4.03-4.906 3.785-1.025-.244-.927-4.67 2.907-7.034 3.833-2.364 7.827-.46 7.583.565" mask="url(#b)"/><path fill="#FF4D46" d="M88.73 67.093a1.579 1.579 0 1 1-3.159.002 1.579 1.579 0 0 1 3.158-.002" mask="url(#b)"/><g transform="translate(77 51)"><mask id="d" fill="#fff"><use xlink:href="#c"/></mask><path stroke="#F3DFDB" stroke-width="2" d="M27.95 50.252l2.965-30.502c.628-7.368-5.208-13.868-13.032-14.52-7.825-.65-14.676 4.795-15.303 12.163L.262 44.611" mask="url(#d)"/></g><g transform="translate(87 42)"><mask id="f" fill="#fff"><use xlink:href="#e"/></mask><path fill="#CEB6C6" d="M24.334-7.92l-.41 1.943 3.814.35.41-1.942c8.986 1.213 15.55 4.94 15.633 8.88L39.217.89l-.342 1.623 4.566.419c-1.708 3.774-9.564 6.178-18.71 5.727l.408-1.94-3.814-.351-.409 1.941C11.931 7.098 5.366 3.37 5.283-.57l4.565.42.342-1.623-4.565-.418c1.706-3.775 9.563-6.18 18.71-5.729m2.38-2.084C13.245-11.241 1.346-7.598.14-1.868c-1.207 5.73 8.736 11.377 22.207 12.613C35.82 11.982 47.718 8.34 48.925 2.61c1.205-5.73-8.736-11.377-22.21-12.613" mask="url(#f)"/></g><g transform="translate(113.484 61.333)"><mask id="h" fill="#fff"><use xlink:href="#g"/></mask><path fill="#F9802D" d="M33.45 4.881C22.573 9.979 12.414 11.884.313 11.094l.646-5.127c10.897.712 20.047-1.003 29.842-5.595l2.649 4.509" mask="url(#h)"/></g><g transform="translate(74 58)"><mask id="j" fill="#fff"><use xlink:href="#i"/></mask><path fill="#F9802D" d="M-25.112-7.309C-16.713 1.003-7.845 6.079 3.816 9.251l1.23-5.03c-10.5-2.855-18.488-7.427-26.05-14.912l-4.108 3.382" mask="url(#j)"/></g><path fill="#401B46" d="M117.97 2.122c0 1.033-.835 1.87-1.865 1.87a1.868 1.868 0 0 1-1.866-1.87c0-1.033.835-1.871 1.866-1.871 1.03 0 1.865.838 1.865 1.87"/><path fill="#F3DFDB" d="M84.755 154.973l-28.35-7.885.47-1.7 28.35 7.884z"/><g transform="translate(145.096 166.5)"><mask id="l" fill="#fff"><use xlink:href="#k"/></mask><path fill="#F3DFDB" d="M29.951 1.752L.54 4.457l-.163-1.75L29.788.001z" mask="url(#l)"/></g><g transform="translate(32 117.213)"><mask id="n" fill="#fff"><use xlink:href="#m"/></mask><path stroke="#CEB6C6" stroke-width="2" d="M14.17 24.393C10.364 34.706.545 40.607-7.765 37.573c-8.31-3.035-11.963-13.855-8.16-24.168C-12.12 3.09-2.3-2.81 6.01.225c8.31 3.035 11.963 13.854 8.16 24.168z" mask="url(#n)"/></g><g transform="translate(39.89 119.83)"><mask id="p" fill="#fff"><use xlink:href="#o"/></mask><path stroke="#CEB6C6" stroke-width="2" d="M-15.199.363L7.104 8.188" mask="url(#p)"/></g><g transform="translate(36.822 124.191)"><mask id="r" fill="#fff"><use xlink:href="#q"/></mask><path stroke="#CEB6C6" stroke-width="2" d="M-17.471.348l28.277 10.23" mask="url(#r)"/></g><g transform="translate(34.192 130.298)"><mask id="t" fill="#fff"><use xlink:href="#s"/></mask><path stroke="#CEB6C6" stroke-width="2" d="M-18.116.32l30.093 10.988" mask="url(#t)"/></g><g transform="translate(32.877 137.277)"><mask id="v" fill="#fff"><use xlink:href="#u"/></mask><path stroke="#CEB6C6" stroke-width="2" d="M-18.315.202L10.61 9.917" mask="url(#v)"/></g><g transform="translate(32.438 143.82)"><mask id="x" fill="#fff"><use xlink:href="#w"/></mask><path stroke="#CEB6C6" stroke-width="2" d="M-17.2.338l23.262 7.57" mask="url(#x)"/></g><g transform="translate(32 160.394)"><mask id="z" fill="#fff"><use xlink:href="#y"/></mask><path stroke="#F3DFDB" stroke-width="2" d="M-4.14 23.302c1.985 3.15 6.16 4.103 9.326 2.128l12.8-7.986c3.167-1.974 4.125-6.129 2.14-9.278L15.343.114-8.92 15.25l4.781 8.051z" mask="url(#z)"/></g><g transform="translate(32 105)"><mask id="B" fill="#fff"><use xlink:href="#A"/></mask><path fill="#F9802D" d="M-14.774 29.224l4.222 1.497 1.95-5.446-4.221-1.496C-7.36 11.127 2.99 3.196 11.83 4.889l-2.333 6.518 3.525 1.25 2.334-6.518c7.924 4.25 10.901 16.907 7.093 30.145l-4.218-1.495-1.95 5.445 4.22 1.496C15.038 54.38 4.686 62.312-4.153 60.62l2.333-6.517-3.525-1.25-2.334 6.516c-7.923-4.248-10.902-16.906-7.095-30.144m-3.937-4.463c-6.887 19.233-2.375 38.405 10.078 42.82C3.821 71.997 19.5 59.984 26.387 40.75 33.274 21.513 28.762 2.342 16.31-2.073 3.856-6.488-11.823 5.525-18.71 24.761" mask="url(#B)"/></g><g transform="translate(37.26 135.532)"><mask id="D" fill="#fff"><use xlink:href="#C"/></mask><path fill="#CEB6C6" d="M.533 2.916c-.687 1.92-.169 3.858 1.16 4.33 1.329.47 2.963-.704 3.65-2.625.69-1.92.17-3.859-1.16-4.33C2.856-.178 1.22.995.534 2.917" mask="url(#D)"/></g><path d="M119.205 131.326l5.587-28.977 1.732.335-5.588 28.978zm.237-16.679a2.357 2.357 0 1 1-2.356-2.358 2.357 2.357 0 0 1 2.356 2.358M72.91 142.95a2.357 2.357 0 0 1-2.355 2.36 2.357 2.357 0 0 1-2.356-2.36 2.357 2.357 0 0 1 2.356-2.358 2.357 2.357 0 0 1 2.355 2.359m-3.128 12.456a2.357 2.357 0 0 1-2.356 2.358 2.357 2.357 0 0 1-2.355-2.358 2.357 2.357 0 0 1 2.355-2.359 2.357 2.357 0 0 1 2.356 2.359m29.333 47.248a2.357 2.357 0 0 1-2.356 2.359 2.357 2.357 0 0 1-2.355-2.359 2.357 2.357 0 0 1 2.355-2.358 2.357 2.357 0 0 1 2.356 2.358m11.636 2.492a2.357 2.357 0 0 1-2.356 2.359 2.357 2.357 0 0 1-2.355-2.359 2.357 2.357 0 0 1 2.355-2.358 2.357 2.357 0 0 1 2.356 2.358m42.615-28.867a2.357 2.357 0 0 1-2.356 2.358 2.357 2.357 0 0 1-2.356-2.359 2.357 2.357 0 0 1 2.356-2.358 2.357 2.357 0 0 1 2.356 2.358m2.355-13.986a2.357 2.357 0 0 1-2.355 2.358 2.357 2.357 0 0 1-2.356-2.358 2.357 2.357 0 0 1 2.356-2.359 2.357 2.357 0 0 1 2.355 2.359m-24.485-45.288a2.357 2.357 0 0 1-2.356 2.359 2.357 2.357 0 0 1-2.356-2.359 2.357 2.357 0 0 1 2.356-2.358 2.357 2.357 0 0 1 2.356 2.358M99.785 214.45l5.587-28.978 1.732.335-5.588 28.978z" fill="#F3DFDB"/><g transform="translate(61 206)"><mask id="F" fill="#fff"><use xlink:href="#E"/></mask><path fill="#F9802D" d="M34.015 36.654l1.018-3.557-5.45-1.3-1.019 3.556C15.806 31.563 7.11 23.49 7.85 16.122l6.525 1.557.849-2.97-6.525-1.558c3.3-6.756 15.21-9.912 28.366-7.518L36.05 9.187l5.45 1.3 1.017-3.555c12.757 3.79 21.455 11.864 20.714 19.232l-6.523-1.557-.85 2.97 6.523 1.557c-3.299 6.757-15.21 9.914-28.366 7.52m-3.908 3.489c19.252 4.594 37.292-.19 40.294-10.682C73.403 18.968 60.228 6.737 40.976 2.144 21.722-2.45 3.68 2.331.68 12.824c-3 10.494 10.172 22.724 29.427 27.319" mask="url(#F)"/></g><g transform="translate(93.669 221.151)"><mask id="H" fill="#fff"><use xlink:href="#G"/></mask><path fill="#CEB6C6" d="M3.343 4.345c1.923.458 3.74-.077 4.06-1.197.32-1.12-.978-2.398-2.9-2.857C2.58-.17.762.368.442 1.487c-.321 1.12.977 2.4 2.9 2.858" mask="url(#H)"/></g><path fill="#F3DFDB" d="M102.964 91.551a2.347 2.347 0 0 1-2.336 2.358 2.347 2.347 0 0 1-2.337-2.358 2.347 2.347 0 0 1 2.337-2.357 2.347 2.347 0 0 1 2.336 2.357"/><path fill="#CEB6C6" d="M118.872 86.589c0 3-2.412 5.434-5.385 5.434-2.975 0-5.385-2.433-5.385-5.434 0-3.001 2.41-5.435 5.385-5.435 2.973 0 5.385 2.434 5.385 5.435"/><path fill="#401B46" d="M117.05 85.986c0 2.383-1.914 4.315-4.275 4.315-2.361 0-4.275-1.932-4.275-4.315 0-2.383 1.914-4.315 4.275-4.315 2.361 0 4.275 1.932 4.275 4.315"/><path fill="#F9802D" d="M131.417 92.427a2.347 2.347 0 0 1-2.337 2.358 2.347 2.347 0 0 1-2.336-2.358 2.347 2.347 0 0 1 2.336-2.358 2.347 2.347 0 0 1 2.337 2.358m6.164-2.796a2.347 2.347 0 0 1-2.336 2.358 2.347 2.347 0 0 1-2.337-2.358 2.347 2.347 0 0 1 2.337-2.357 2.347 2.347 0 0 1 2.336 2.357"/><path stroke="#F3DFDB" stroke-width="2" d="M102.139 118.076a6.657 6.657 0 0 0-9.382-1.316l-11.93 9.102c-2.952 2.25-3.536 6.49-1.305 9.467l5.413 7.637 22.618-17.254-5.414-7.636zm18.696 86.965a6.657 6.657 0 0 0 9.382 1.316l11.931-9.102c2.951-2.251 3.536-6.49 1.305-9.467l-5.414-7.638-22.617 17.255 5.413 7.636z"/><path fill="#F9802D" d="M107.838 192.22l1.47-7.014-5.229-1.204-1.469 7.015c-12.14-4.241-19.701-17.597-18.011-31.81l6.257 1.442 1.228-5.86-6.257-1.442c4.147-13.646 16.35-22.446 29.065-20.957l-1.47 7.014 5.229 1.205 1.47-7.014c12.14 4.24 19.701 17.596 18.011 31.809l-6.259-1.442-1.228 5.859 6.259 1.443c-4.145 13.646-16.35 22.446-29.066 20.956m11.379-67.391c-18.466-4.257-36.952 9.071-41.288 29.77-4.336 20.697 7.118 40.928 25.585 45.184 18.466 4.256 36.951-9.071 41.288-29.77 4.336-20.698-7.12-40.928-25.585-45.184"/><path fill="#CEB6C6" d="M108.467 161.637c-.433 2.067-2.38 3.374-4.351 2.92-1.97-.454-3.216-2.497-2.783-4.564.433-2.067 2.38-3.374 4.351-2.92 1.97.454 3.217 2.498 2.783 4.564m12.932 2.981c-.434 2.067-2.382 3.374-4.352 2.92-1.97-.454-3.217-2.498-2.783-4.564.433-2.068 2.38-3.374 4.351-2.92 1.97.454 3.216 2.497 2.784 4.564"/><path stroke="#CEB6C6" stroke-width="2" d="M126.793 166.05c-2.422 10.756-11.313 17.886-19.859 15.926-8.545-1.96-13.508-12.269-11.085-23.024 2.423-10.756 11.314-17.886 19.86-15.926 8.544 1.96 13.508 12.268 11.084 23.025zm-23.81-18.579l22.893 4.943m-27.585.066l29.065 6.576m-31.506-.104l30.943 7.099m-31.558-.074l29.636 5.98m-28.122.585l23.802 4.567"/></g></svg>