<svg xmlns="http://www.w3.org/2000/svg" xmlns:xlink="http://www.w3.org/1999/xlink" width="195" height="234" viewBox="0 0 195 234"><defs><circle id="a" cx="130" cy="130" r="130"/><path id="c" d="M0 233.515h194.548V.288H0z"/><path id="e" d="M.268 14.078a7.761 7.761 0 0 0 5.307 2.09 7.76 7.76 0 0 0 5.305-2.09V2.576A7.76 7.76 0 0 0 5.575.486a7.76 7.76 0 0 0-5.307 2.09v11.502z"/><path id="g" d="M.17 14.078a7.76 7.76 0 0 0 5.306 2.09 7.76 7.76 0 0 0 5.307-2.09V2.576A7.76 7.76 0 0 0 5.476.486 7.76 7.76 0 0 0 .17 2.576v11.502z"/><path id="i" d="M0 233.515h194.548V.288H0z"/></defs><g fill="none" fill-rule="evenodd" transform="translate(-33 -13)"><mask id="b" fill="#fff"><use xlink:href="#a"/></mask><g mask="url(#b)"><g transform="translate(33 13.3)"><path fill="#EC1D56" d="M144.073 138.103h38c5.9 0 10.683-4.805 10.683-10.73 0-5.927-4.783-10.731-10.683-10.731h-38v21.461z"/><path fill="#E4A023" d="M144.073 138.103h-12.186c-5.9 0-10.683-4.805-10.683-10.73 0-5.927 4.783-10.731 10.683-10.731h12.185v21.461zM3.13 155.822c-4.173 4.19-4.173 10.984 0 15.175a10.649 10.649 0 0 0 15.107 0l35.487-35.645c4.17-4.19 4.17-10.986 0-15.176a10.65 10.65 0 0 0-15.108 0L3.129 155.822z"/><path fill="#FFDE00" d="M129.154 207.748c0 6.01-17.598 13.823-39.304 13.823-21.707 0-39.304-7.814-39.304-13.823 0-6.01 17.597-10.882 39.304-10.882 21.706 0 39.304 4.872 39.304 10.882"/><path fill="#481C01" d="M54.422 182.037v23.054h.002c.054 4.999 15.893 11.774 35.426 11.774 19.532 0 35.371-6.775 35.425-11.774h.003v-23.054H54.422z"/><mask id="d" fill="#fff"><use xlink:href="#c"/></mask><path fill="#E4A023" d="M54.422 182.573h70.856V139.86H54.422z" mask="url(#d)"/><path fill="#AA6428" d="M110.618 164.91c-5.312 0-9.695-2.53-11.801-3.745a25.5 25.5 0 0 0-.521-.298l-.22-.123c-1.954-1.09-5.222-2.913-8.197-2.913-1.988 0-5.278 1.17-8.382 2.983-.186.108-.39.242-.615.389-2 1.296-5.724 3.708-11.801 3.708-10.354 0-16.535-3.142-16.535-8.407v-33.65c0-2.79 2.369-5.05 5.291-5.05h64.025c2.922 0 5.291 2.26 5.291 5.05v33.834c0 .441-.059.868-.17 1.276-1.057 4.38-7.007 6.947-16.365 6.947" mask="url(#d)"/><path fill="#FFDE00" d="M126.06 186.02a3.1 3.1 0 0 0 3.094-3.107 3.1 3.1 0 0 0-3.094-3.107H53.64a3.1 3.1 0 0 0-3.094 3.107 3.1 3.1 0 0 0 3.093 3.108h72.42z" mask="url(#d)"/><path fill="#FFDE00" d="M104.492 182.914c0 8.123-6.556 14.707-14.642 14.707-8.087 0-14.642-6.584-14.642-14.707 0-8.123 6.555-14.708 14.642-14.708 8.086 0 14.642 6.585 14.642 14.708" mask="url(#d)"/><path fill="#E4A023" d="M100.533 182.914c0 5.926-4.783 10.73-10.683 10.73-5.9 0-10.683-4.804-10.683-10.73s4.783-10.73 10.683-10.73c5.9 0 10.683 4.804 10.683 10.73" mask="url(#d)"/><path fill="#FFDE00" d="M96.876 182.914c0 3.898-3.146 7.058-7.026 7.058-3.881 0-7.027-3.16-7.027-7.058 0-3.898 3.146-7.058 7.027-7.058 3.88 0 7.026 3.16 7.026 7.058" mask="url(#d)"/><path fill="#C16017" d="M94.866 182.969c0 2.783-2.246 5.038-5.016 5.038s-5.017-2.255-5.017-5.038c0-2.782 2.247-5.038 5.017-5.038 2.77 0 5.016 2.256 5.016 5.038" mask="url(#d)"/><path fill="#CA6817" d="M92.87 183.06a3.028 3.028 0 0 1-3.112 2.943 3.03 3.03 0 0 1-2.929-3.126 3.027 3.027 0 0 1 3.11-2.941 3.029 3.029 0 0 1 2.931 3.124" mask="url(#d)"/><path fill="#E4A023" d="M110.618 160.793c-5.312 0-9.695-2.53-11.801-3.745-.192-.112-.365-.213-.521-.298l-.22-.123c-1.954-1.09-5.222-2.914-8.197-2.914-1.988 0-5.278 1.171-8.382 2.984-.186.108-.39.242-.615.388-2 1.296-5.724 3.708-11.801 3.708-10.354 0-16.535-3.142-16.535-8.407v-33.649c0-2.79 2.369-5.051 5.291-5.051h64.025c2.922 0 5.291 2.261 5.291 5.051v33.834c0 .441-.059.867-.17 1.275-1.057 4.381-7.007 6.947-16.365 6.947" mask="url(#d)"/><path fill="#FFDE00" d="M52.571 116.896a3.1 3.1 0 0 0-3.093-3.108 3.1 3.1 0 0 0-3.094 3.108l.001 37.45a3.1 3.1 0 0 0 3.093 3.108 3.1 3.1 0 0 0 3.094-3.107v-37.451zm80.795 0a3.1 3.1 0 0 0-3.093-3.108 3.1 3.1 0 0 0-3.094 3.108v37.45a3.1 3.1 0 0 0 3.094 3.108 3.1 3.1 0 0 0 3.094-3.107l-.001-37.451z" mask="url(#d)"/><path fill="#F0F156" d="M75.57 127.372c-2.864 0-5.185-1.904-5.185-4.254v-12.455c0-2.349 2.321-4.254 5.185-4.254h28.56c2.863 0 5.185 1.905 5.185 4.254v12.455c0 2.35-2.322 4.254-5.186 4.254H75.57z" mask="url(#d)"/><path fill="#ECA525" d="M75.388 119.393c-2.899 0-5.25-1.928-5.25-4.308v-6.58c0-2.38 2.351-4.31 5.25-4.31h28.922c2.9 0 5.251 1.93 5.251 4.31v6.58c0 2.38-2.35 4.308-5.251 4.308H75.388z" mask="url(#d)"/><path fill="#CA6817" d="M82.532 113.351a3.849 3.849 0 0 1-3.84-3.856v-6.172c0-2.13 1.72-3.856 3.84-3.856h14.635c2.12 0 3.84 1.726 3.84 3.856v6.172c0 2.13-1.72 3.856-3.84 3.856H82.532zM62.57 61.853c-6.118 6.25-10.954.002-10.954.002-.67-5.04-1.064-10.577-1.064-16.754 0-20.337 17.594-36.823 39.298-36.823s39.298 16.486 39.298 36.823c0 6.324-.318 11.855-.862 16.753 0 0-4.506 6.053-10.432-.001H62.57z" mask="url(#d)"/><path fill="#CA6817" d="M83.408 6.758c0-3.573 2.884-6.47 6.442-6.47 3.556 0 6.441 2.897 6.441 6.47v7.598H83.408V6.758z" mask="url(#d)"/><path fill="#C16017" d="M92.954 7.182c0 2.266-1.39 4.101-3.104 4.101-1.715 0-3.105-1.835-3.105-4.1 0-2.266 1.39-4.101 3.105-4.101 1.714 0 3.104 1.835 3.104 4.1" mask="url(#d)"/><path fill="#E8A61F" d="M92.346 7.182c0 1.822-1.117 3.299-2.497 3.299-1.379 0-2.497-1.477-2.497-3.299 0-1.822 1.118-3.298 2.497-3.298 1.38 0 2.497 1.476 2.497 3.298" mask="url(#d)"/><path fill="#FFDE00" d="M54.422 44.06c0-18.03 15.86-32.645 35.428-32.645 19.566 0 35.428 14.616 35.428 32.645 0 28.528-7.432 38.834-11.248 49.703-2.312 6.586-10.826 12.646-24.18 12.646-13.356 0-21.866-6.06-24.182-12.646-4.5-12.798-11.246-25.88-11.246-49.703" mask="url(#d)"/><path fill="#E4A023" d="M58.52 44.06c0-18.03 11.763-28.528 31.33-28.528 19.566 0 31.328 10.499 31.328 28.528 0 11.762-5.947 20.427-7.7 27.31-2.498 9.812-3.31 28.848-7.397 31.186-4.088 2.338-9.555 3.853-16.231 3.853-6.622 0-12.05-1.49-16.126-3.793-4.144-2.345-4.315-21.681-6.561-29.496-2.26-7.864-8.642-17.111-8.642-29.06" mask="url(#d)"/><path fill="#C16017" d="M114.493 58.912c0 5.847-4.72 10.588-10.54 10.588-5.821 0-10.54-4.74-10.54-10.588 0-5.847 4.719-10.588 10.54-10.588 5.82 0 10.54 4.74 10.54 10.588" mask="url(#d)"/><path fill="#FFF686" d="M111.759 58.912c0 4.33-3.496 7.841-7.806 7.841-4.312 0-7.807-3.51-7.807-7.841 0-4.33 3.495-7.841 7.807-7.841 4.31 0 7.806 3.51 7.806 7.841" mask="url(#d)"/></g><g transform="translate(131.378 63.885)"><mask id="f" fill="#fff"><use xlink:href="#e"/></mask><path fill="#D5A134" d="M4.801 17.297h1.546V-.643H4.8zm4.534 0h1.545V-.643H9.335zm-9.067 0h1.545V-.643H.268z" mask="url(#f)"/></g><path fill="#250101" d="M140.713 72.212a3.77 3.77 0 0 1-3.761 3.778 3.77 3.77 0 0 1-3.761-3.778 3.77 3.77 0 0 1 3.76-3.778 3.77 3.77 0 0 1 3.762 3.778"/><path fill="#C16017" d="M119.287 72.212c0 5.847-4.72 10.588-10.54 10.588-5.82 0-10.541-4.74-10.541-10.588 0-5.847 4.72-10.588 10.54-10.588 5.822 0 10.541 4.74 10.541 10.588"/><path fill="#FFF686" d="M116.553 72.212c0 4.33-3.495 7.841-7.807 7.841-4.31 0-7.805-3.51-7.805-7.841 0-4.33 3.495-7.841 7.805-7.841 4.312 0 7.807 3.51 7.807 7.841"/><g transform="translate(103.27 63.885)"><mask id="h" fill="#fff"><use xlink:href="#g"/></mask><path fill="#D5A134" d="M4.704 17.297h1.545V-.643H4.704zm4.534 0h1.545V-.643H9.238zm-9.068 0h1.546V-.643H.17z" mask="url(#h)"/></g><g transform="translate(33 13.3)"><path fill="#250101" d="M79.508 58.912a3.77 3.77 0 0 1-3.762 3.778 3.77 3.77 0 0 1-3.76-3.778 3.77 3.77 0 0 1 3.76-3.778 3.77 3.77 0 0 1 3.762 3.778zm5.07 31.812a3.62 3.62 0 0 1-3.61-3.627 3.619 3.619 0 0 1 3.61-3.627h10.999a3.62 3.62 0 0 1 3.611 3.627 3.619 3.619 0 0 1-3.611 3.627H84.578z"/><mask id="j" fill="#fff"><use xlink:href="#i"/></mask><path fill="#250101" d="M69.36 87.98h41.434v-1.765H69.361z" mask="url(#j)"/><path fill="#A45E2A" d="M85.05 77.291l4.8-4.175 4.8 4.175z" mask="url(#j)"/><path fill="#E4A023" d="M38.616 207.35a10.65 10.65 0 0 0 15.108 0c4.171-4.191 4.172-10.986 0-15.176l-35.487-35.645a10.65 10.65 0 0 0-15.108 0c-4.172 4.19-4.172 10.984 0 15.175l35.487 35.645z" mask="url(#j)"/><path fill="#EC1D56" d="M171.39 127.373c0 5.926 4.783 10.73 10.684 10.73 5.899 0 10.682-4.803 10.682-10.73v-50.41c0-5.926-4.783-10.73-10.682-10.731-5.9 0-10.684 4.805-10.684 10.731v50.41z" mask="url(#j)"/><path fill="#EC1D56" d="M173.509 77.373c-2.198 0-3.98-2.047-3.98-4.572V53.208c0-2.525 1.782-4.572 3.98-4.572h17.059c2.198 0 3.98 2.047 3.98 4.572V72.8c0 2.525-1.782 4.572-3.98 4.572h-17.06z" mask="url(#j)"/><path fill="#EC1D56" d="M169.529 35.542a2.641 2.641 0 0 1 2.635-2.647 2.641 2.641 0 0 1 2.635 2.647v17.513h-5.27V35.542zm6.582 0a2.641 2.641 0 0 1 2.636-2.647 2.641 2.641 0 0 1 2.635 2.647v17.513h-5.27V35.542zm13.166.443a2.641 2.641 0 0 1 2.636-2.647 2.641 2.641 0 0 1 2.635 2.647v17.07h-5.27v-17.07zm-6.582 0a2.641 2.641 0 0 1 2.635-2.647 2.641 2.641 0 0 1 2.635 2.647v17.07h-5.27v-17.07zM160.6 61.175a2.655 2.655 0 0 1 0-3.743 2.626 2.626 0 0 1 3.726 0l10.26 10.304-3.727 3.743L160.6 61.175z" mask="url(#j)"/><path fill="#4C021B" d="M181.382 72.953c-1.878 0-10.027-6.714-10.027-8.462v-8.27c0-1.748 1.522-3.166 3.399-3.166h14.569c1.877 0 3.399 1.418 3.399 3.166v13.567c0 1.748-1.522 3.165-3.4 3.165h-7.94z" mask="url(#j)"/><path fill="#7B1837" d="M181.605 69.567c-1.238 0-6.614-4.429-6.614-5.582V58.53c0-1.154 1.004-2.089 2.242-2.089h9.61c1.239 0 2.243.935 2.243 2.089v8.949c0 1.153-1.004 2.088-2.243 2.088h-5.238z" mask="url(#j)"/><path fill="#F27A86" d="M171.586 77.292c-1.136 0-2.057 1.39-2.057 3.107 0 1.716.921 3.107 2.057 3.107h20.904c1.137 0 2.058-1.391 2.058-3.107 0-1.716-.921-3.107-2.058-3.107h-20.904zm0 33.388c-1.136 0-2.057 1.392-2.057 3.108 0 1.717.921 3.108 2.057 3.108l20.904-.001c1.137 0 2.058-1.391 2.058-3.107 0-1.716-.921-3.107-2.058-3.107h-20.904z" mask="url(#j)"/><path fill="#F27A86" d="M170.3 116.874c0-1.141-1.385-2.067-3.093-2.067-1.71 0-3.094.926-3.094 2.067v20.997c0 1.141 1.385 2.067 3.094 2.067 1.708 0 3.093-.926 3.093-2.067v-20.997z" mask="url(#j)"/><path fill="#FFDE00" d="M147.166 116.874c0-1.141-1.385-2.067-3.093-2.067-1.709 0-3.094.926-3.094 2.067l.001 20.997c0 1.141 1.385 2.067 3.093 2.067 1.709 0 3.094-.926 3.094-2.067v-20.997zM28.494 130.905c-.803-.807-2.434-.477-3.643.735-1.208 1.214-1.536 2.853-.732 3.66L38.9 150.146c.803.807 2.434.478 3.642-.735 1.209-1.214 1.537-2.852.733-3.66l-14.781-14.846zm-13.798 13.448c-.803-.807-2.434-.477-3.643.736-1.208 1.214-1.536 2.852-.732 3.659l14.781 14.847c.804.807 2.434.477 3.642-.736 1.21-1.214 1.537-2.852.733-3.659l-14.781-14.847z" mask="url(#j)"/><path fill="#FFDE00" d="M4.7 173.68c-.802.807-.475 2.445.733 3.66 1.208 1.213 2.84 1.542 3.643.735l14.78-14.847c.804-.808.476-2.445-.732-3.659s-2.84-1.543-3.642-.735L4.701 173.68zm24.752 23.647c-.803.806-.476 2.444.732 3.658 1.209 1.214 2.84 1.543 3.643.736l14.781-14.847c.803-.808.475-2.445-.733-3.66-1.208-1.213-2.839-1.543-3.642-.735l-14.781 14.848zm30.102-60.059a5.12 5.12 0 0 1 2.545-4.43 5.072 5.072 0 0 1 5.091 0l11.457 6.645a5.118 5.118 0 0 1 2.545 4.428 5.12 5.12 0 0 1-2.545 4.43l-11.457 6.643a5.072 5.072 0 0 1-5.09 0 5.117 5.117 0 0 1-2.546-4.429v-13.287zm60.592 13.38a5.12 5.12 0 0 1-2.546 4.43 5.072 5.072 0 0 1-5.09 0l-11.457-6.645a5.118 5.118 0 0 1-2.546-4.429c0-1.827.97-3.515 2.546-4.429l11.456-6.643a5.072 5.072 0 0 1 5.091 0 5.117 5.117 0 0 1 2.546 4.429v13.287z" mask="url(#j)"/><path fill="#E4A023" d="M46.895 188.531c1.555-1.56 4.256-1.38 6.033.406l13.792 13.855c1.779 1.785 1.959 4.498.405 6.059l-12.062 12.117c-1.555 1.56-4.255 1.379-6.033-.406l-13.793-13.855c-1.777-1.785-1.958-4.498-.403-6.059l12.061-12.117z" mask="url(#j)"/><path fill="#E4A023" d="M79.158 215.283a2.656 2.656 0 0 1 0 3.744 2.628 2.628 0 0 1-3.728 0l-12.328-12.384 3.726-3.743 12.33 12.383zm-4.655 4.676a2.655 2.655 0 0 1 0 3.743 2.627 2.627 0 0 1-3.727 0l-12.329-12.383 3.727-3.744 12.329 12.384zm-9.623 9.038a2.654 2.654 0 0 1 0 3.742 2.626 2.626 0 0 1-3.726 0L49.137 220.67l3.727-3.744 12.016 12.07zm4.655-4.677a2.655 2.655 0 0 1 0 3.744 2.627 2.627 0 0 1-3.726 0l-12.017-12.07 3.727-3.743 12.016 12.07zm-2.109-33.504a2.64 2.64 0 0 1 2.634 2.647 2.64 2.64 0 0 1-2.634 2.647H52.919v-5.294h14.507z" mask="url(#j)"/></g></g></g></svg>