<?xml version="1.0" encoding="utf-8"?>
<!-- Generator: Adobe Illustrator 16.0.0, SVG Export Plug-In . SVG Version: 6.00 Build 0)  -->
<!DOCTYPE svg PUBLIC "-//W3C//DTD SVG 1.1//EN" "http://www.w3.org/Graphics/SVG/1.1/DTD/svg11.dtd">
<svg version="1.1" xmlns="http://www.w3.org/2000/svg" xmlns:xlink="http://www.w3.org/1999/xlink" x="0px" y="0px"
	 width="305.663px" height="40px" viewBox="0 0 305.663 40" enable-background="new 0 0 305.663 40" xml:space="preserve">
<g id="Logo__x2B__tipo">
</g>
<g id="Camada_4" display="none">
</g>
<g id="Objetos" display="none">
	<polygon display="inline" points="-65.755,-822.39 -90.755,-822.39 -115.629,-1247.328 -90.629,-1247.328 	"/>
	<polygon display="inline" fill="#FEEE00" points="-92.333,-847.328 -117.333,-847.328 -142.208,-1247.328 -117.208,-1247.328 	"/>
	<polygon display="inline" points="234.495,-847.327 259.495,-847.327 284.37,-1247.328 259.37,-1247.328 	"/>
	<polygon display="inline" fill="#FEEE00" points="259.314,-847.327 284.314,-847.327 309.189,-1247.328 284.189,-1247.328 	"/>
	<rect x="-90.629" y="-1247.328" display="inline" width="353.5" height="25"/>
	<rect x="-165.297" y="-1134.828" display="inline" fill="#FEEE00" width="499.667" height="25"/>
	<rect x="-115.464" y="-997.328" display="inline" fill="#FEEE00" width="399.833" height="25"/>
	<rect x="75.232" y="-835.498" display="inline" fill="#FFFFFF" width="20.138" height="24.002"/>
	<polygon display="inline" fill="#FEEE00" points="59.407,-972.328 34.407,-972.328 47.037,-1109.828 72.037,-1109.828 	"/>
	<polygon display="inline" fill="#FEEE00" points="109.37,-972.328 134.37,-972.328 121.74,-1109.828 96.74,-1109.828 	"/>
	<circle display="inline" cx="93.646" cy="-798.037" r="12.417"/>
	<circle display="inline" cx="93.646" cy="-798.037" r="12.417"/>
	<circle display="inline" cx="81.255" cy="-810.427" r="12.391"/>
	<circle display="inline" cx="106.037" cy="-810.427" r="12.391"/>
	<g display="inline">
		<circle cx="79.349" cy="-798.037" r="7.583"/>
		<polygon points="84.537,-797.328 -90.63,-822.39 -90.755,-847.328 84.537,-822.39 		"/>
		<circle fill="#FFFFFF" cx="69.49" cy="-783.621" r="15.763"/>
	</g>
	<g display="inline">
		<circle cx="108.339" cy="-798.033" r="7.583"/>
		<polygon points="103.151,-797.324 278.318,-822.386 278.443,-847.324 103.151,-822.386 		"/>
		<circle fill="#FFFFFF" cx="118.198" cy="-783.617" r="15.763"/>
	</g>
	<rect x="-165.297" y="-1147.328" display="inline" fill="#FFFFFF" width="499.667" height="12.5"/>
	<rect x="-165.463" y="-972.328" display="inline" fill="#FFFFFF" width="499.667" height="12.5"/>
</g>
<g id="fatiado" display="none">
</g>
<g id="Camada_6">
	<g>
		<polygon points="-84.775,-1147.328 -89.166,-1222.328 83.87,-1222.328 93.646,-1222.328 113.495,-1222.328 276.458,-1222.328 
			272.067,-1147.328 297.067,-1147.328 302.92,-1247.328 277.92,-1247.328 113.495,-1247.328 93.646,-1247.328 83.87,-1247.328 
			-90.629,-1247.328 -115.629,-1247.328 -109.775,-1147.328 		"/>
		<path d="M254.309-843.951l-148.698,21.155c-0.906,0.031-1.786,0.159-2.634,0.375l-0.222,0.031v0.025
			c-5.239,1.438-9.097,6.217-9.108,11.911c0,0,0,0-0.001,0c0,0-0.001,0-0.001,0c-0.012-5.694-3.868-10.474-9.108-11.911v-0.025
			l-0.222-0.031c-0.847-0.216-1.727-0.344-2.633-0.375l-148.698-21.155L-73.8-959.828h-25l8.045,137.438h0.125l161.181,23.061
			c5.487,0.366,10.207,3.526,12.732,8.085c2.218,3.379,6.02,5.624,10.363,5.624s8.146-2.245,10.363-5.624
			c2.525-4.559,7.245-7.719,12.731-8.085l161.182-23.061h0.125l8.045-137.438h-25L254.309-843.951z"/>
		<path d="M321.74-1134.828h-25H106.37H93.646h-6.61h-196.484h-25h-30.084v25h31.639l8.551,137.5h25h40.977h93.537h25l2.296-25
			l10.333-112.5h14.235h6.61h12.724h8.121l10.334,112.5l2.296,25h25h93.537h40.977h25l8.551-137.5h31.64v-25H321.74z
			 M37.468-997.328h-138.365l-6.996-112.5H47.801L37.468-997.328z M288.189-997.328H149.825l-10.334-112.5h155.694L288.189-997.328z
			"/>
	</g>
	<g>
		<g>
			<polygon fill="#F7DF1E" points="-47.266,-636.476 -50.72,-695.479 85.408,-695.479 93.097,-695.479 108.711,-695.479 
				236.917,-695.479 233.46,-636.476 253.127,-636.476 257.734,-715.146 238.067,-715.146 108.711,-715.146 93.097,-715.146 
				85.408,-715.146 -51.871,-715.146 -71.538,-715.146 -66.933,-636.476 			"/>
			<path fill="#F7DF1E" d="M219.49-397.813l-116.982,16.642c-0.709,0.027-1.404,0.128-2.07,0.297l-0.173,0.024v0.021
				c-4.122,1.128-7.158,4.888-7.168,9.367l0,0l0,0c-0.01-4.479-3.046-8.239-7.166-9.367v-0.021l-0.174-0.024
				c-0.666-0.169-1.361-0.27-2.071-0.297l-116.982-16.642l-5.336-91.161H-58.3l6.331,108.124h0.095l126.8,18.142
				c4.318,0.288,8.032,2.773,10.019,6.358c1.744,2.661,4.735,4.426,8.152,4.426c3.418,0,6.41-1.765,8.151-4.426
				c1.99-3.585,5.705-6.07,10.019-6.358l126.8-18.142h0.096l6.331-108.124h-19.667L219.49-397.813z"/>
			<path fill="#424242" d="M272.537-626.644H252.87H103.107h-10.01h-5.2H-66.675h-19.667h-23.667v19.667h24.889l6.727,108.171
				h19.667h32.235h73.589h19.666l1.808-19.667l8.126-88.504h11.199h5.2h10.01h6.389l8.129,88.504l1.805,19.667h19.668h73.586h32.235
				h19.667l6.728-108.171h24.888v-19.667H272.537z M48.904-518.473H-59.95l-5.502-88.504H57.03L48.904-518.473z M246.146-518.473
				H137.293l-8.129-88.504h122.485L246.146-518.473z"/>
		</g>
		<g>
			<path fill="#424242" d="M-100.396-314.9l-4.736,1.226v0.264l4.736,1.229l26.931,11.754v5.526l-36.273-16.623v-4.254
				l36.273-16.579v5.526L-100.396-314.9z"/>
			<path fill="#424242" d="M-59.073-289.55v-32.608h-5.933v-3.249h5.933v-5.235c0-3.602,0.901-6.383,2.699-8.354
				c1.802-1.962,4.326-2.946,7.575-2.946c0.729,0,1.466,0.055,2.22,0.166c0.75,0.108,1.511,0.264,2.285,0.465l-0.496,3.278
				c-0.53-0.131-1.078-0.236-1.641-0.313c-0.563-0.079-1.222-0.117-1.972-0.117c-2.165,0-3.822,0.685-4.969,2.055
				c-1.151,1.37-1.725,3.292-1.725,5.766v5.235h8.55v3.249h-8.55v32.608H-59.073z"/>
			<path fill="#424242" d="M-23.15-321.992l-2.951-0.199c-2.495,0-4.545,0.701-6.146,2.104c-1.601,1.402-2.746,3.33-3.431,5.784
				v24.753h-3.975v-35.857h3.478l0.497,5.967v0.397c1.039-2.21,2.431-3.934,4.177-5.171c1.744-1.236,3.821-1.856,6.23-1.856
				c0.508,0,0.999,0.041,1.475,0.117c0.475,0.079,0.867,0.16,1.176,0.25L-23.15-321.992z"/>
			<path fill="#424242" d="M-19.439-308.007c0-5.282,1.446-9.612,4.34-12.991c2.895-3.381,6.728-5.072,11.5-5.072
				c4.794,0,8.638,1.691,11.534,5.072c2.894,3.379,4.341,7.709,4.341,12.991v1.093c0,5.304-1.442,9.639-4.325,13.007
				c-2.883,3.371-6.71,5.054-11.482,5.054c-4.818,0-8.673-1.683-11.568-5.054c-2.894-3.368-4.34-7.703-4.34-13.007V-308.007z
				 M-15.462-306.934c0,4.151,1.048,7.639,3.148,10.463c2.099,2.825,5.026,4.238,8.783,4.238c3.689,0,6.588-1.413,8.697-4.238
				c2.112-2.824,3.166-6.312,3.166-10.463v-1.09c0-4.083-1.06-7.549-3.18-10.395c-2.122-2.849-5.037-4.271-8.75-4.271
				c-3.71,0-6.616,1.422-8.715,4.271c-2.1,2.846-3.148,6.312-3.148,10.395V-306.934z"/>
			<path fill="#424242" d="M24.074-325.407l0.364,6.264c1.148-2.208,2.7-3.915,4.655-5.122c1.958-1.201,4.271-1.805,6.944-1.805
				c3.889,0,6.848,1.19,8.882,3.564c2.032,2.375,3.049,6.08,3.049,11.117v21.839h-3.977v-21.85c0-4.115-0.768-7.029-2.304-8.731
				c-1.535-1.707-3.719-2.558-6.544-2.558c-2.785,0-5.055,0.736-6.811,2.21c-1.756,1.471-3.02,3.425-3.793,5.858v25.07H20.56
				v-35.857H24.074z"/>
			<path fill="#424242" d="M64.57-334.587v9.18h7.887v3.249H64.57v23.363c0,2.344,0.425,4.005,1.276,4.988
				c0.851,0.981,1.981,1.474,3.397,1.474c0.641,0,1.264-0.027,1.872-0.084c0.608-0.055,1.309-0.149,2.104-0.28l0.598,2.949
				c-0.663,0.285-1.472,0.509-2.419,0.663c-0.951,0.155-1.901,0.231-2.85,0.231c-2.52,0-4.481-0.797-5.882-2.387
				c-1.404-1.59-2.105-4.107-2.105-7.555v-23.363h-6.198v-3.249h6.198v-9.18H64.57z"/>
			<path fill="#424242" d="M85.316-335.68h-3.944v-5.566h3.944V-335.68z M85.316-289.55h-3.944v-35.857h3.944V-289.55z"/>
			<path fill="#424242" d="M99.798-325.407l0.364,6.264c1.147-2.208,2.701-3.915,4.656-5.122c1.956-1.201,4.268-1.805,6.943-1.805
				c3.889,0,6.849,1.19,8.881,3.564c2.032,2.375,3.05,6.08,3.05,11.117v21.839h-3.979v-21.85c0-4.115-0.768-7.029-2.302-8.731
				c-1.536-1.707-3.717-2.558-6.545-2.558c-2.782,0-5.052,0.736-6.811,2.21c-1.754,1.471-3.02,3.425-3.793,5.858v25.07h-3.977
				v-35.857H99.798z"/>
			<path fill="#424242" d="M145.497-302.904l0.63,3.313h0.197l0.663-3.313l5.9-22.503h10.106l-12.196,35.857h-9.245l-12.194-35.857
				h10.106L145.497-302.904z"/>
			<path fill="#424242" d="M187.684-289.55c-0.355-0.815-0.658-1.677-0.911-2.585c-0.256-0.905-0.438-1.832-0.548-2.783
				c-0.994,1.745-2.302,3.193-3.927,4.341c-1.624,1.147-3.562,1.724-5.817,1.724c-3.755,0-6.649-0.965-8.683-2.9
				c-2.032-1.93-3.048-4.566-3.048-7.902c0-3.515,1.354-6.235,4.06-8.168c2.708-1.936,6.656-2.9,11.848-2.9h5.401v-2.85
				c0-1.726-0.453-3.061-1.357-4.012c-0.907-0.949-2.243-1.425-4.011-1.425c-1.57,0-2.778,0.381-3.629,1.145
				c-0.851,0.761-1.276,1.815-1.276,3.164l-9.345-0.032l-0.033-0.199c-0.155-3.027,1.161-5.64,3.944-7.836
				c2.783-2.199,6.439-3.301,10.97-3.301c4.285,0,7.766,1.09,10.438,3.268c2.672,2.175,4.009,5.273,4.009,9.294v14.815
				c0,1.677,0.126,3.256,0.382,4.734c0.253,1.482,0.657,2.952,1.208,4.409H187.684z M178.836-296.011
				c1.702,0,3.214-0.422,4.54-1.259c1.327-0.84,2.219-1.813,2.684-2.92v-5.069h-5.401c-2.055,0-3.611,0.514-4.673,1.542
				c-1.061,1.027-1.59,2.27-1.59,3.729c0,1.193,0.397,2.153,1.193,2.882C176.384-296.378,177.464-296.011,178.836-296.011z"/>
			<path fill="#424242" d="M213.268-289.55h-9.677v-51.696h9.677V-289.55z"/>
			<path fill="#424242" d="M237.094-288.854c-5.167,0-9.301-1.655-12.393-4.972c-3.093-3.313-4.64-7.521-4.64-12.627v-1.323
				c0-5.325,1.464-9.71,4.392-13.157c2.927-3.446,6.854-5.159,11.781-5.138c4.838,0,8.594,1.46,11.267,4.377
				c2.672,2.916,4.011,6.858,4.011,11.83v5.268h-21.41l-0.065,0.199c0.175,2.354,0.967,4.292,2.368,5.809
				c1.404,1.52,3.31,2.278,5.718,2.278c2.144,0,3.921-0.215,5.334-0.645c1.414-0.433,2.962-1.112,4.639-2.042l2.619,5.98
				c-1.458,1.199-3.37,2.194-5.733,2.982C242.619-289.248,239.989-288.854,237.094-288.854z M236.233-318.611
				c-1.79,0-3.204,0.686-4.242,2.053c-1.039,1.37-1.679,3.172-1.922,5.404l0.101,0.163h11.863v-0.859
				c0-2.058-0.479-3.697-1.44-4.923C239.63-317.999,238.177-318.611,236.233-318.611z"/>
			<path fill="#424242" d="M258.872-326.965v-5.393l37.064,16.579v4.254l-37.064,16.623v-5.437l27.72-12.019l4.738-1.185v-0.264
				l-4.738-1.272L258.872-326.965z"/>
		</g>
	</g>
	<g>
		<path fill="#FFFFFF" d="M7.04,20.375l-3.569,0.924v0.198l3.569,0.926l20.291,8.856v4.165L0,22.919v-3.205L27.331,7.222v4.164
			L7.04,20.375z"/>
		<path fill="#FFFFFF" d="M38.175,39.477v-24.57h-4.47v-2.447h4.47V8.514c0-2.714,0.679-4.81,2.034-6.295
			C41.566,0.741,43.468,0,45.916,0c0.549,0,1.104,0.041,1.673,0.125c0.564,0.081,1.139,0.199,1.722,0.351l-0.374,2.469
			c-0.4-0.099-0.813-0.178-1.236-0.235c-0.424-0.059-0.921-0.088-1.486-0.088c-1.631,0-2.88,0.517-3.743,1.548
			c-0.868,1.033-1.3,2.481-1.3,4.345v3.945h6.442v2.447h-6.442v24.57H38.175z"/>
		<path fill="#FFFFFF" d="M65.242,15.031l-2.224-0.15c-1.881,0-3.425,0.528-4.632,1.587c-1.206,1.057-2.068,2.509-2.584,4.357
			v18.651h-2.996V12.459h2.621l0.375,4.495v0.299c0.781-1.664,1.831-2.964,3.146-3.896c1.314-0.931,2.879-1.399,4.694-1.399
			c0.383,0,0.753,0.031,1.111,0.089c0.357,0.061,0.653,0.12,0.886,0.188L65.242,15.031z"/>
		<path fill="#FFFFFF" d="M68.038,25.569c0-3.98,1.09-7.243,3.271-9.789c2.181-2.548,5.069-3.822,8.664-3.822
			c3.612,0,6.509,1.274,8.69,3.822c2.181,2.546,3.271,5.809,3.271,9.789v0.822c0,3.997-1.087,7.263-3.259,9.802
			C86.504,38.733,83.619,40,80.024,40c-3.63,0-6.535-1.267-8.716-3.807c-2.181-2.539-3.271-5.805-3.271-9.802V25.569z
			 M71.034,26.377c0,3.129,0.79,5.756,2.372,7.884c1.582,2.129,3.787,3.193,6.618,3.193c2.779,0,4.964-1.064,6.554-3.193
			c1.59-2.128,2.385-4.755,2.385-7.884v-0.821c0-3.075-0.799-5.688-2.397-7.831c-1.598-2.146-3.795-3.218-6.593-3.218
			c-2.796,0-4.984,1.071-6.566,3.218c-1.582,2.144-2.372,4.756-2.372,7.831V26.377z"/>
		<path fill="#FFFFFF" d="M100.823,12.459l0.274,4.719c0.865-1.664,2.035-2.95,3.507-3.859c1.476-0.905,3.219-1.36,5.232-1.36
			c2.931,0,5.16,0.898,6.692,2.687c1.531,1.789,2.297,4.581,2.297,8.376v16.456h-2.996V23.013c0-3.101-0.578-5.296-1.735-6.579
			c-1.156-1.286-2.802-1.927-4.931-1.927c-2.099,0-3.809,0.555-5.133,1.665c-1.322,1.107-2.275,2.581-2.857,4.415v18.89h-2.998
			V12.459H100.823z"/>
		<path fill="#FFFFFF" d="M131.336,5.542v6.917h5.943v2.447h-5.943V32.51c0,1.766,0.32,3.018,0.962,3.758
			c0.641,0.74,1.493,1.111,2.56,1.111c0.482,0,0.953-0.021,1.41-0.063c0.458-0.041,0.986-0.113,1.586-0.212l0.45,2.223
			c-0.499,0.215-1.108,0.384-1.823,0.5c-0.717,0.116-1.433,0.174-2.147,0.174c-1.898,0-3.376-0.601-4.432-1.798
			c-1.058-1.198-1.587-3.096-1.587-5.692V14.906h-4.67v-2.447h4.67V5.542H131.336z"/>
		<path fill="#FFFFFF" d="M146.968,4.718h-2.972V0.523h2.972V4.718z M146.968,39.477h-2.972V12.459h2.972V39.477z"/>
		<path fill="#FFFFFF" d="M157.879,12.459l0.275,4.719c0.863-1.664,2.034-2.95,3.508-3.859c1.474-0.905,3.216-1.36,5.231-1.36
			c2.93,0,5.16,0.898,6.691,2.687c1.531,1.789,2.298,4.581,2.298,8.376v16.456h-2.998V23.013c0-3.101-0.578-5.296-1.734-6.579
			c-1.157-1.286-2.801-1.927-4.932-1.927c-2.097,0-3.808,0.555-5.132,1.665c-1.322,1.107-2.276,2.581-2.858,4.415v18.89h-2.997
			V12.459H157.879z"/>
		<path fill="#FFFFFF" d="M192.312,29.413l0.476,2.497h0.148l0.5-2.497l4.445-16.954h7.615l-9.189,27.018h-6.965l-9.188-27.018
			h7.614L192.312,29.413z"/>
		<path fill="#FFFFFF" d="M224.099,39.477c-0.268-0.615-0.496-1.265-0.686-1.949c-0.193-0.681-0.331-1.38-0.414-2.097
			c-0.748,1.315-1.734,2.406-2.958,3.271c-1.224,0.863-2.684,1.298-4.383,1.298c-2.829,0-5.01-0.727-6.542-2.186
			c-1.53-1.454-2.298-3.44-2.298-5.954c0-2.647,1.021-4.697,3.061-6.154c2.039-1.458,5.014-2.186,8.926-2.186h4.069v-2.146
			c0-1.3-0.341-2.307-1.022-3.023c-0.683-0.715-1.689-1.072-3.021-1.072c-1.184,0-2.094,0.287-2.734,0.862
			c-0.642,0.572-0.962,1.367-0.962,2.384l-7.042-0.024l-0.024-0.15c-0.117-2.281,0.875-4.249,2.972-5.904
			c2.098-1.657,4.853-2.487,8.266-2.487c3.229,0,5.852,0.821,7.865,2.462c2.014,1.64,3.021,3.974,3.021,7.004v11.162
			c0,1.265,0.095,2.453,0.287,3.567c0.191,1.117,0.495,2.225,0.91,3.323H224.099z M217.432,34.608c1.282,0,2.422-0.318,3.421-0.949
			c0.999-0.633,1.671-1.366,2.021-2.2V27.64h-4.069c-1.548,0-2.721,0.388-3.521,1.161c-0.799,0.774-1.198,1.71-1.198,2.81
			c0,0.899,0.299,1.623,0.898,2.172S216.398,34.608,217.432,34.608z"/>
		<path fill="#FFFFFF" d="M243.375,39.477h-7.291V0.523h7.291V39.477z"/>
		<path fill="#FFFFFF" d="M261.328,40c-3.895,0-7.008-1.246-9.339-3.745c-2.33-2.497-3.495-5.667-3.495-9.514v-0.998
			c0-4.012,1.102-7.315,3.308-9.913s5.165-3.888,8.877-3.872c3.646,0,6.475,1.102,8.489,3.298c2.014,2.197,3.023,5.169,3.023,8.914
			v3.969H256.06l-0.05,0.15c0.132,1.773,0.729,3.234,1.784,4.376c1.059,1.146,2.493,1.718,4.309,1.718
			c1.615,0,2.954-0.162,4.02-0.485c1.064-0.327,2.231-0.839,3.495-1.54l1.974,4.507c-1.1,0.903-2.539,1.654-4.32,2.247
			C265.49,39.703,263.509,40,261.328,40z M260.679,17.578c-1.349,0-2.413,0.517-3.196,1.547c-0.782,1.033-1.265,2.39-1.448,4.072
			l0.076,0.123h8.938v-0.647c0-1.551-0.361-2.785-1.086-3.71C263.238,18.041,262.143,17.578,260.679,17.578z"/>
		<path fill="#FFFFFF" d="M277.736,11.284V7.222l27.927,12.492v3.205l-27.927,12.525v-4.098l20.886-9.055l3.57-0.894V21.2
			l-3.57-0.958L277.736,11.284z"/>
	</g>
</g>
<g id="grid" display="none">
</g>
<g id="Camada_2" display="none">
	<rect x="-115.63" y="-1147.328" display="inline" fill="none" width="25" height="25"/>
</g>
</svg>
