<svg xmlns="http://www.w3.org/2000/svg" width="192" height="90" viewBox="0 0 192 90"><path fill="none" stroke="#FFF" stroke-width="2" d="M67.254 12.818c.126-.663.046-1.246-.238-1.747-.269-.502-.651-.752-1.15-.752h-5.91l-1.233 4.974h6.13c.516 0 1.014-.25 1.49-.752a3.333 3.333 0 0 0 .911-1.723zm-.825 21.306c-2.48 0-4.64-1.383-6.417-4.15l-3.51-5.8-2.616 9.95H42.813L53.527 1h16.556c2.135 0 3.869 1.108 5.242 3.325 1.404 2.216 1.948 4.829 1.589 7.838a13.87 13.87 0 0 1-2.346 6.236c-1.316 1.893-2.904 3.244-4.756 4.053.27.874.795 1.31 1.573 1.31h5.838l-1.192 10.362H66.43zm31.906-16.558c-.065-1.666-.629-3.122-1.68-4.368-1.006-1.23-2.147-1.844-3.436-1.844-1.313 0-2.464.615-3.467 1.844-1.02 1.23-1.567 2.686-1.625 4.368-.06 1.683.408 3.139 1.416 4.368 1.025 1.23 2.263 1.845 3.7 1.845 1.422 0 2.65-.615 3.672-1.845 1.015-1.245 1.484-2.701 1.42-4.368zm9.168-.016c.48 4.643-.622 8.59-3.41 11.842-2.802 3.155-6.341 4.732-10.522 4.732-4.182 0-7.727-1.577-10.54-4.732-2.801-3.251-3.917-7.199-3.455-11.842.451-4.61 2.17-8.558 5.062-11.842C87.312 2.569 90.238 1 93.508 1c3.271 0 6.204 1.57 8.89 4.708 2.903 3.284 4.637 7.231 5.105 11.842zm23.714 16.574l-11.755-13.25 2.542 13.25h-11.073L107.145 1h8.72l10.38 13.25L123.123 1h8.721l10.447 33.124h-11.073zm23.518-22.786l10.754 22.786h-11.073l-9.106-22.786h-8.633L133.43 1h24.698l5.24 10.338h-8.634zM81.74 52.306l1.022-14.722h5.337l-.497 14.722H81.74zm17.575 0l-4.924-5.89.047 5.89h-5.862l.41-14.722h5.337l4.658 5.889-.217-5.89h5.337l1.077 14.723h-5.863zM29.451 89H2l5.204-33.124h14.672L20.14 77.934l14.994-22.058h14.672L29.45 89zm42.85-22.08l-4.24 9.658h6.507l-2.267-9.658zM77.948 89l-1.212-4.15H63.991L61.927 89h-17.73l17.76-33.124h22.715L95.679 89H77.95zm20.708 0l-1.542-33.124h14.201l3.049 22.762h24.307L141.56 89H98.656zm45.592 0l-9.434-33.124h37.86l5.232 10.337h-25.148l.689 1.869h15.259l4.038 8.712h-16.037l.7 1.844h26.998L190 89h-45.752zM32.941 11.338l-.831 1.868h9.555l-3.334 8.712H28.158L22.41 34.124H11.338L28.718 1h23.25l-3.324 10.338H32.94z"/></svg>