<svg xmlns="http://www.w3.org/2000/svg" width="32" height="32" viewBox="0 0 32 32"><path d="M25.333 0H6.667A6.667 6.667 0 0 0 0 6.667v18.666A6.667 6.667 0 0 0 6.667 32h18.666A6.667 6.667 0 0 0 32 25.333V6.667A6.667 6.667 0 0 0 25.333 0zm-.185 12.316c.279 6.156-4.312 13.02-12.44 13.02-2.472 0-4.772-.724-6.71-1.967a8.806 8.806 0 0 0 6.48-1.812 4.38 4.38 0 0 1-4.087-3.04 4.4 4.4 0 0 0 1.976-.074c-2.106-.423-3.558-2.319-3.511-4.347a4.36 4.36 0 0 0 1.981.548A4.385 4.385 0 0 1 7.483 8.8a12.427 12.427 0 0 0 9.021 4.573C15.865 10.636 17.944 8 20.769 8c1.258 0 2.396.53 3.194 1.383a8.778 8.778 0 0 0 2.781-1.062 4.395 4.395 0 0 1-1.924 2.422 8.771 8.771 0 0 0 2.513-.69 8.88 8.88 0 0 1-2.185 2.263z"/></svg>