<?xml version="1.0" encoding="UTF-8" standalone="no"?>
<svg width="50px" height="50px" viewBox="0 0 50 50" version="1.1" xmlns="http://www.w3.org/2000/svg" xmlns:xlink="http://www.w3.org/1999/xlink">
    <!-- Generator: Sketch 39.1 (31720) - http://www.bohemiancoding.com/sketch -->
    <title>ic_facebook</title>
    <desc>Created with Sketch.</desc>
    <defs></defs>
    <g id="Page-1" stroke="none" stroke-width="1" fill="none" fill-rule="evenodd">
        <g id="01_main" transform="translate(-880.000000, -710.000000)" fill="#FFFFFF">
            <g id="Group" transform="translate(488.000000, 221.000000)">
                <g id="ic_facebook" transform="translate(392.000000, 489.000000)">
                    <path d="M0,0 L0,50 L50,50 L50,0 L0,0 L0,0 Z M33.3333333,14.5833333 L29.3270833,14.5833333 C28.04375,14.5833333 27.0833333,15.1083333 27.0833333,16.4354167 L27.0833333,18.75 L33.3333333,18.75 L32.8354167,25 L27.0833333,25 L27.0833333,41.6666667 L20.8333333,41.6666667 L20.8333333,25 L16.6666667,25 L16.6666667,18.75 L20.8333333,18.75 L20.8333333,14.74375 C20.8333333,10.53125 23.05,8.33333333 28.04375,8.33333333 L33.3333333,8.33333333 L33.3333333,14.5833333 L33.3333333,14.5833333 Z" id="Shape"></path>
                </g>
            </g>
        </g>
    </g>
</svg>