<?xml version="1.0" encoding="UTF-8"?>
<svg width="72px" height="72px" viewBox="0 0 72 72" version="1.1" xmlns="http://www.w3.org/2000/svg" xmlns:xlink="http://www.w3.org/1999/xlink">
    <!-- Generator: sketchtool 50.2 (55047) - http://www.bohemiancoding.com/sketch -->
    <title>4AF53AB2-1F11-4E5E-8273-EEBFBA979DDD</title>
    <desc>Created with sketchtool.</desc>
    <defs></defs>
    <g id="Page-1" stroke="none" stroke-width="1" fill="none" fill-rule="evenodd">
        <g id="1366-x-768" transform="translate(-648.000000, -6586.000000)" fill="#FFFFFF" fill-rule="nonzero">
            <g id="org" transform="translate(0.000000, 5220.000000)">
                <g id="Group-18" transform="translate(186.000000, 1220.000000)">
                    <g id="Group-17" transform="translate(342.000000, 146.000000)">
                        <g id="ic_facebook_button" transform="translate(120.000000, 0.000000)">
                            <path d="M35.74944,0 C16.03728,0 0,16.03728 0,35.74944 C0,55.46016 16.03728,71.49888 35.74944,71.49888 C55.46016,71.49888 71.49888,55.46016 71.49888,35.74944 C71.49888,16.03728 55.46304,0 35.74944,0 Z M44.64,37.008 L38.82384,37.008 C38.82384,46.30032 38.82384,57.73824 38.82384,57.73824 L30.20544,57.73824 C30.20544,57.73824 30.20544,46.4112 30.20544,37.008 L26.10864,37.008 L26.10864,29.68128 L30.20544,29.68128 L30.20544,24.94224 C30.20544,21.54816 31.81824,16.24464 38.90304,16.24464 L45.28944,16.26912 L45.28944,23.38128 C45.28944,23.38128 41.40864,23.38128 40.65408,23.38128 C39.89952,23.38128 38.82672,23.75856 38.82672,25.37712 L38.82672,29.68272 L45.39312,29.68272 L44.64,37.008 Z" id="Shape"></path>
                        </g>
                    </g>
                </g>
            </g>
        </g>
    </g>
</svg>