<?xml version="1.0" encoding="UTF-8"?>
<svg width="72px" height="72px" viewBox="0 0 72 72" version="1.1" xmlns="http://www.w3.org/2000/svg" xmlns:xlink="http://www.w3.org/1999/xlink">
    <!-- Generator: sketchtool 50.2 (55047) - http://www.bohemiancoding.com/sketch -->
    <title>92048EC8-16FD-4D72-94BC-C4A970C43A90</title>
    <desc>Created with sketchtool.</desc>
    <defs></defs>
    <g id="Page-1" stroke="none" stroke-width="1" fill="none" fill-rule="evenodd">
        <g id="1366-x-768" transform="translate(-767.000000, -6586.000000)" fill="#FFFFFF" fill-rule="nonzero">
            <g id="org" transform="translate(0.000000, 5220.000000)">
                <g id="Group-18" transform="translate(186.000000, 1220.000000)">
                    <g id="Group-17" transform="translate(342.000000, 146.000000)">
                        <g id="ic_instagram_button" transform="translate(239.000000, 0.000000)">
                            <path d="M46.604,19.104 L25.2024,19.104 C21.7864,19.104 19.0072,21.8832 19.0072,25.2992 L19.0072,46.7008 C19.0072,50.1168 21.7864,52.8968 25.2024,52.8968 L46.604,52.8968 C50.02,52.8968 52.8,50.1176 52.8,46.7008 L52.8,25.2992 C52.8,21.8832 50.0208,19.104 46.604,19.104 Z M35.9032,47.1248 C29.7696,47.1248 24.7792,42.1344 24.7792,36 C24.7792,29.8664 29.7696,24.876 35.9032,24.876 C42.0376,24.876 47.028,29.8664 47.028,36 C47.028,42.1336 42.0368,47.1248 35.9032,47.1248 Z M47.3856,27.176 C45.9336,27.176 44.7528,25.9952 44.7528,24.544 C44.7528,23.0928 45.9336,21.912 47.3856,21.912 C48.8368,21.912 50.0176,23.0928 50.0176,24.544 C50.0176,25.9952 48.8368,27.176 47.3856,27.176 Z" id="Shape"></path>
                            <path d="M35.9032,29.5768 C32.3624,29.5768 29.4792,32.4584 29.4792,35.9992 C29.4792,39.5416 32.3624,42.424 35.9032,42.424 C39.4456,42.424 42.3264,39.5416 42.3264,35.9992 C42.3264,32.4592 39.4448,29.5768 35.9032,29.5768 Z" id="Shape"></path>
                            <path d="M35.9032,0 C16.0752,0 0,16.0752 0,35.9032 C0,55.7312 16.0752,71.8064 35.9032,71.8064 C55.7312,71.8064 71.8064,55.7312 71.8064,35.9032 C71.8064,16.0752 55.7312,0 35.9032,0 Z M57.5,46.7008 C57.5,52.7096 52.6128,57.5968 46.604,57.5968 L25.2024,57.5968 C19.1944,57.5968 14.3064,52.7096 14.3064,46.7008 L14.3064,25.2992 C14.3064,19.2912 19.1944,14.4032 25.2024,14.4032 L46.604,14.4032 C52.6128,14.4032 57.5,19.2912 57.5,25.2992 L57.5,46.7008 Z" id="Shape"></path>
                        </g>
                    </g>
                </g>
            </g>
        </g>
    </g>
</svg>