<?xml version="1.0" encoding="UTF-8"?>
<svg width="48px" height="48px" viewBox="0 0 48 48" version="1.1" xmlns="http://www.w3.org/2000/svg" xmlns:xlink="http://www.w3.org/1999/xlink">
    <!-- Generator: sketchtool 49.3 (51167) - http://www.bohemiancoding.com/sketch -->
    <title>7006A21B-A53F-42A0-B4B9-A3B552609BBB</title>
    <desc>Created with sketchtool.</desc>
    <defs>
        <polygon id="path-1" points="0 0 48 0 48 48 0 48"></polygon>
    </defs>
    <g id="Page-1" stroke="none" stroke-width="1" fill="none" fill-rule="evenodd">
        <g id="1366-x-768-Comportamentos-org" transform="translate(-232.000000, -1619.000000)">
            <g id="org" transform="translate(0.000000, 1437.000000)">
                <g id="avatar/org_standard" transform="translate(186.000000, 136.000000)">
                    <g id="ic_linkedin" transform="translate(46.000000, 46.000000)">
                        <mask id="mask-2" fill="white">
                            <use xlink:href="#path-1"></use>
                        </mask>
                        <g id="Clip-2"></g>
                        <path d="M42.9625131,41.5481466 C42.9625131,42.1897382 42.4423037,42.7099476 41.800712,42.7099476 L36.0289005,42.7099476 C35.3873089,42.7099476 34.8670995,42.1897382 34.8670995,41.5481466 L34.8670995,30.9720628 C34.8670995,29.3943455 35.3298848,24.0584293 30.744,24.0584293 C27.1868482,24.0584293 26.4653403,27.7107016 26.3204607,29.3497382 L26.3204607,41.5481466 C26.3204607,42.1897382 25.800377,42.7099476 25.1586597,42.7099476 L19.5763351,42.7099476 C18.9347435,42.7099476 18.414534,42.1897382 18.414534,41.5481466 L18.414534,18.7970262 C18.414534,18.1554346 18.9347435,17.6352251 19.5763351,17.6352251 L25.1586597,17.6352251 C25.8002513,17.6352251 26.3204607,18.1554346 26.3204607,18.7970262 L26.3204607,20.7641466 C27.6394555,18.784712 29.5996649,17.2568796 33.7732775,17.2568796 C43.0154136,17.2568796 42.9625131,25.8913508 42.9625131,30.6355602 L42.9625131,41.5481466 Z M10.9002723,15.5097801 C8.07819895,15.5097801 5.79040838,13.2219895 5.79040838,10.3999162 C5.79040838,7.57784293 8.07819895,5.29005236 10.9002723,5.29005236 C13.7223455,5.29005236 16.0101361,7.57784293 16.0101361,10.3999162 C16.0101361,13.2219895 13.7224712,15.5097801 10.9002723,15.5097801 Z M14.8532356,41.4463665 C14.8532356,42.1442513 14.2875393,42.7099476 13.5896545,42.7099476 L8.21089005,42.7099476 C7.51300524,42.7099476 6.9473089,42.1442513 6.9473089,41.4463665 L6.9473089,18.8988063 C6.9473089,18.2009215 7.51300524,17.6352251 8.21089005,17.6352251 L13.5896545,17.6352251 C14.2875393,17.6352251 14.8532356,18.2009215 14.8532356,18.8988063 L14.8532356,41.4463665 Z M43.6580105,0 L4.34198953,0 C1.944,0 0,1.944 0,4.34198953 L0,43.6578848 C0,46.056 1.944,48 4.34198953,48 L43.6578848,48 C46.056,48 48,46.056 48,43.6578848 L48,4.34198953 C48,1.944 46.056,0 43.6580105,0 Z" id="Fill-1" fill="#4A4A4A" mask="url(#mask-2)"></path>
                    </g>
                </g>
            </g>
        </g>
    </g>
</svg>