<?xml version="1.0" encoding="UTF-8"?>
<svg width="72px" height="72px" viewBox="0 0 72 72" version="1.1" xmlns="http://www.w3.org/2000/svg" xmlns:xlink="http://www.w3.org/1999/xlink">
    <!-- Generator: sketchtool 50.2 (55047) - http://www.bohemiancoding.com/sketch -->
    <title>88A055BB-24DC-4D34-9B7E-50224DEF3CB5</title>
    <desc>Created with sketchtool.</desc>
    <defs></defs>
    <g id="Page-1" stroke="none" stroke-width="1" fill="none" fill-rule="evenodd">
        <g id="1366-x-768" transform="translate(-528.000000, -6586.000000)" fill="#FFFFFF" fill-rule="nonzero">
            <g id="org" transform="translate(0.000000, 5220.000000)">
                <g id="Group-18" transform="translate(186.000000, 1220.000000)">
                    <g id="Group-17" transform="translate(342.000000, 146.000000)">
                        <g id="ic_twitter_button">
                            <path d="M35.74944,0 C16.03728,0 0,16.03728 0,35.74944 C0,55.46016 16.03728,71.49888 35.74944,71.49888 C55.46016,71.49888 71.49888,55.46016 71.49888,35.74944 C71.49888,16.03728 55.46304,0 35.74944,0 Z M51.69744,27.56736 C51.71328,27.9216 51.72192,28.27872 51.72192,28.63584 C51.72192,39.50928 43.44768,52.04304 28.30896,52.04304 C23.66208,52.04304 19.33632,50.68512 15.696,48.34944 C16.33968,48.42576 16.99488,48.46464 17.65872,48.46464 C21.51504,48.46464 25.06176,47.14848 27.8784,44.9424 C24.2784,44.87616 21.23856,42.49728 20.19168,39.22704 C20.6928,39.32208 21.20976,39.37536 21.73824,39.37536 C22.48848,39.37536 23.21712,39.27744 23.90688,39.0888 C20.14272,38.33424 17.30736,35.00928 17.30736,31.02048 C17.30736,30.98592 17.30736,30.94992 17.3088,30.9168 C18.4176,31.53168 19.68624,31.9032 21.03408,31.94496 C18.828,30.47184 17.37504,27.95184 17.37504,25.09776 C17.37504,23.58864 17.77968,22.17456 18.48816,20.9592 C22.54464,25.93872 28.60992,29.21328 35.44704,29.55888 C35.30592,28.95552 35.23536,28.32912 35.23536,27.68256 C35.23536,23.13936 38.91888,19.4544 43.46208,19.4544 C45.82944,19.4544 47.96496,20.45376 49.46832,22.05216 C51.34464,21.68352 53.10144,21.00096 54.69552,20.05488 C54.07632,21.97728 52.776,23.58864 51.07248,24.60816 C52.73856,24.40944 54.32832,23.9688 55.79856,23.3136 C54.70128,24.96096 53.30592,26.41104 51.69744,27.56736 Z" id="Shape"></path>
                        </g>
                    </g>
                </g>
            </g>
        </g>
    </g>
</svg>