<?xml version="1.0" encoding="utf-8"?>
<!-- Generator: Adobe Illustrator 16.0.0, SVG Export Plug-In . SVG Version: 6.00 Build 0)  -->
<!DOCTYPE svg PUBLIC "-//W3C//DTD SVG 1.1//EN" "http://www.w3.org/Graphics/SVG/1.1/DTD/svg11.dtd">
<svg version="1.1" id="Capa_1" xmlns="http://www.w3.org/2000/svg" xmlns:xlink="http://www.w3.org/1999/xlink" x="0px" y="0px"
	 width="49.652px" height="49.652px" viewBox="0 0 49.652 49.652" enable-background="new 0 0 49.652 49.652" xml:space="preserve">
<g>
	<g>
		<path fill="#FFFFFF" d="M24.826,0C11.137,0,0,11.137,0,24.826s11.138,24.826,24.826,24.826s24.826-11.138,24.826-24.826
			S38.516,0,24.826,0z M35.901,19.144c0.011,0.246,0.017,0.494,0.017,0.741c0,7.552-5.746,16.256-16.259,16.256
			c-3.227,0-6.23-0.943-8.759-2.565c0.447,0.053,0.901,0.08,1.363,0.08c2.678,0,5.141-0.914,7.097-2.446
			c-2.5-0.046-4.611-1.697-5.338-3.969c0.348,0.066,0.707,0.103,1.074,0.103c0.521,0,1.026-0.067,1.506-0.198
			c-2.614-0.524-4.583-2.833-4.583-5.604c0-0.023,0-0.049,0.001-0.071c0.77,0.427,1.65,0.685,2.587,0.714
			c-1.532-1.023-2.541-2.773-2.541-4.755c0-1.049,0.281-2.03,0.772-2.874c2.817,3.458,7.029,5.731,11.777,5.972
			c-0.098-0.419-0.146-0.854-0.146-1.303c0-3.155,2.558-5.715,5.713-5.715c1.644,0,3.127,0.694,4.171,1.805
			c1.303-0.256,2.522-0.73,3.63-1.388c-0.43,1.336-1.333,2.454-2.517,3.162c1.157-0.138,2.262-0.443,3.282-0.898
			C37.987,17.334,37.018,18.341,35.901,19.144z"/>
	</g>
</g>
</svg>
