<?xml version="1.0" ?>
<svg width="35px" height="35px" viewBox="0 0 35 35" version="1.1" xmlns="http://www.w3.org/2000/svg" xmlns:xlink="http://www.w3.org/1999/xlink">
    <!-- Generator: Sketch 3.6.1 (26313) - http://www.bohemiancoding.com/sketch -->
    <g id="Page-1" stroke="none" stroke-width="1" fill="none" fill-rule="evenodd">
        <g id="we-do-best" transform="translate(-1340.000000, -63.000000)" fill="#ffffff">
            <g id="nav-bar" transform="translate(0.000000, 50.000000)">
                <g id="youtube" transform="translate(1340.000000, 13.000000)">
                    <path d="M17.5,0 C7.835625,0 0,7.835625 0,17.5 C0,27.164375 7.835625,35 17.5,35 C27.164375,35 35,27.164375 35,17.5 C35,7.835625 27.164375,0 17.5,0 L17.5,0 Z M23.9764583,24.6341667 C20.9110417,24.8441667 14.083125,24.8441667 11.0220833,24.6341667 C7.70291667,24.4066667 7.31645833,22.7820833 7.29166667,17.5 C7.31645833,12.2077083 7.70729167,10.5933333 11.0220833,10.3658333 C14.083125,10.1558333 20.9125,10.1558333 23.9764583,10.3658333 C27.2970833,10.5933333 27.6820833,12.2179167 27.7083333,17.5 C27.6820833,22.7922917 27.2927083,24.4066667 23.9764583,24.6341667 L23.9764583,24.6341667 Z M14.5833333,14.0845833 L21.7539583,17.4941667 L14.5833333,20.9154167 L14.5833333,14.0845833 L14.5833333,14.0845833 Z" id="Shape"></path>
                </g>
            </g>
        </g>
    </g>
</svg>
