<?xml version="1.0" encoding="UTF-8" standalone="no"?>
<svg width="50px" height="50px" viewBox="0 0 50 50" version="1.1" xmlns="http://www.w3.org/2000/svg" xmlns:xlink="http://www.w3.org/1999/xlink">
    <!-- Generator: Sketch 39.1 (31720) - http://www.bohemiancoding.com/sketch -->
    <title>ic_twitter</title>
    <desc>Created with Sketch.</desc>
    <defs></defs>
    <g id="Page-1" stroke="none" stroke-width="1" fill="none" fill-rule="evenodd">
        <g id="01_main" transform="translate(-990.000000, -710.000000)" fill="#FFFFFF">
            <g id="Group" transform="translate(488.000000, 221.000000)">
                <g id="ic_twitter" transform="translate(502.000000, 489.000000)">
                    <path d="M0,0 L0,50 L50,50 L50,0 L0,0 L0,0 Z M39.2958333,19.24375 C39.7291667,28.8625 32.55625,39.5875 19.8583333,39.5875 C15.9958333,39.5875 12.4020833,38.45625 9.375,36.5145833 C13.0041667,36.9416667 16.625,35.9354167 19.5,33.6833333 C16.50625,33.6270833 13.98125,31.65 13.1125,28.9333333 C14.1854167,29.1375 15.2395833,29.0770833 16.2,28.8166667 C12.9104167,28.15625 10.6416667,25.19375 10.7145833,22.025 C11.6354167,22.5375 12.6916667,22.8458333 13.8104167,22.88125 C10.7666667,20.8458333 9.90416667,16.825 11.69375,13.75 C15.0666667,17.8875 20.10625,20.6104167 25.7895833,20.8958333 C24.7916667,16.61875 28.0375,12.5 32.4520833,12.5 C34.41875,12.5 36.1958333,13.3291667 37.44375,14.6604167 C39.0020833,14.3541667 40.4666667,13.7854167 41.7875,13.0020833 C41.2770833,14.6 40.1916667,15.9395833 38.78125,16.7854167 C40.1645833,16.61875 41.4833333,16.2520833 42.7083333,15.7083333 C41.7916667,17.075 40.63125,18.2791667 39.2958333,19.24375 L39.2958333,19.24375 Z" id="Shape"></path>
                </g>
            </g>
        </g>
    </g>
</svg>