<?xml version="1.0" encoding="UTF-8"?>
<svg width="158px" height="158px" viewBox="0 0 158 158" version="1.1" xmlns="http://www.w3.org/2000/svg" xmlns:xlink="http://www.w3.org/1999/xlink">
    <!-- Generator: sketchtool 49.3 (51167) - http://www.bohemiancoding.com/sketch -->
    <title>38736847-DC59-46AD-9BF1-F8D0251EDC4E</title>
    <desc>Created with sketchtool.</desc>
    <defs>
        <rect id="path-1" x="0" y="0" width="158" height="158"></rect>
        <polygon id="path-3" points="0 0.23250371 234.941354 0.23250371 234.941354 222.520702 0 222.520702"></polygon>
    </defs>
    <g id="Symbols" stroke="none" stroke-width="1" fill="none" fill-rule="evenodd">
        <g id="lightningtalks/avatar/empty">
            <g id="il_lightningtalks_standard">
                <g id="portal">
                    <mask id="mask-2" fill="white">
                        <use xlink:href="#path-1"></use>
                    </mask>
                    <use id="Mask" fill="#212121" xlink:href="#path-1"></use>
                    <g mask="url(#mask-2)">
                        <g transform="translate(-38.207143, -32.938522)">
                            <g id="Group-3" stroke-width="1" fill="none">
                                <mask id="mask-4" fill="white">
                                    <use xlink:href="#path-3"></use>
                                </mask>
                                <g id="Clip-2"></g>
                                <path d="M22.6368558,43.3125107 C22.6368558,43.3125107 29.2088462,35.5838555 36.1459471,32.6856098 C36.1459471,32.6856098 46.7341539,27.533173 52.2108125,19.4824906 C52.2108125,19.4824906 55.1316971,16.5842449 59.5130241,13.3639719 C59.5130241,13.3639719 66.450125,7.24545321 79.9592164,2.09301643 C79.9592164,2.09301643 103.326293,-2.09333846 133.630471,2.09301643 C133.630471,2.09301643 136.551356,0.160852636 141.662904,1.77098913 C141.662904,1.77098913 148.965115,4.02518022 153.346442,4.34720752 C153.346442,4.34720752 166.125313,8.21153511 175.618188,16.5842449 C175.618188,16.5842449 181.825067,20.5203845 189.492389,21.7724267 C189.492389,21.7724267 198.255043,26.5670911 203.001481,31.7195279 C203.001481,31.7195279 208.113029,39.1261558 209.573471,39.4481831 C209.573471,39.4481831 213.224577,44.2785926 214.685019,48.1429202 C214.685019,48.1429202 218.701236,52.329275 220.891899,56.5156299 C220.891899,56.5156299 220.161678,61.990094 225.638337,69.3967219 C225.638337,69.3967219 228.559221,73.2610495 225.638337,80.0236227 C225.638337,80.0236227 224.218422,81.3117319 226.93667,83.8879503 C226.93667,83.8879503 228.559221,85.8201141 228.924332,89.0403871 C228.924332,89.0403871 228.194111,92.5826874 230.749885,95.1589058 C230.749885,95.1589058 233.670769,101.277424 232.575438,106.751889 C232.575438,106.751889 231.480106,112.226353 234.766101,116.09068 C234.766101,116.09068 234.40099,130.903936 234.766101,135.090291 C234.766101,135.090291 235.861433,137.022455 232.575438,138.954618 C232.575438,138.954618 231.845216,142.496919 230.019664,145.395164 C230.019664,145.395164 228.194111,153.445847 224.543005,158.276256 C224.543005,158.276256 221.987231,161.174502 220.891899,163.428693 C220.891899,163.428693 219.431457,171.479376 212.859466,175.021676 C212.859466,175.021676 204.827034,181.462222 202.63637,185.004522 C202.63637,185.004522 201.175928,185.970604 198.985264,187.258713 C198.985264,187.258713 195.334159,196.919532 185.476173,200.139805 C185.476173,200.139805 184.015731,206.580351 178.539072,209.478597 C178.539072,209.478597 166.855534,219.461443 161.013764,219.78347 C161.013764,219.78347 132.90025,222.520702 125.598039,222.520702 C125.598039,222.520702 101.50074,221.393607 92.0078654,220.427525 C92.0078654,220.427525 65.7199039,212.054815 59.1479135,209.478597 C59.1479135,209.478597 43.8132692,203.038051 42.3528269,199.817778 C42.3528269,199.817778 40.5272741,195.631423 36.8761683,191.767095 C36.8761683,191.767095 32.1297308,186.614659 22.6368558,180.174113 C22.6368558,180.174113 17.8904183,181.140195 11.6835385,167.615048 C11.6835385,167.615048 9.492875,160.20842 9.85798558,157.954229 C9.85798558,157.954229 9.85798558,156.022065 7.66732212,154.411929 C7.66732212,154.411929 6.20687981,152.479765 7.66732212,147.649355 C7.66732212,147.649355 5.11154808,146.361246 5.11154808,142.496919 C5.11154808,142.496919 4.01621635,132.8361 2.19066346,130.259881 C2.19066346,130.259881 1.09533173,127.683663 2.19066346,123.175281 C2.19066346,123.175281 1.09533173,118.988926 0,117.700817 C0,117.700817 0,111.260271 1.82555289,107.395943 C1.82555289,107.395943 2.92088462,101.921479 2.19066346,100.311343 C2.19066346,100.311343 2.19066346,96.1249877 4.38132692,90.006469 C4.38132692,90.006469 3.65110577,87.7522779 2.55577404,85.4980868 C2.55577404,85.4980868 1.82555289,82.5998411 4.01621635,80.9897046 C4.01621635,80.9897046 5.11154808,77.7694316 4.38132692,74.871186 C4.38132692,74.871186 4.01621635,71.3288857 6.93710096,68.1086127 C6.93710096,68.1086127 6.57199039,65.210367 11.3184279,60.7019848 C11.3184279,60.7019848 13.5090914,54.2614388 16.429976,50.3971112 L22.6368558,43.3125107 Z" id="Fill-1" fill="#78EC21" mask="url(#mask-4)"></path>
                            </g>
                            <path d="M52.9352492,91.4047089 C52.5269747,89.0016992 49.2622422,91.4047089 49.2622422,91.4047089 C48.5821506,92.7262512 41.3729597,97.7723454 41.3729597,97.7723454 C41.5090512,101.256499 39.6041361,105.5814 39.6041361,105.5814 C37.2913123,109.666549 39.6041361,122.282269 39.6041361,122.282269 C42.3245026,127.568438 44.3651434,139.703039 44.3651434,139.703039 C46.5415098,152.798586 55.2477071,161.328834 55.2477071,161.328834 C57.1522564,163.852043 62.3211724,163.010973 62.3211724,163.010973 C65.3137219,162.891098 70.7551867,165.654058 70.7551867,165.654058 C73.7484679,166.975923 72.11537,164.332516 72.11537,164.332516 C53.2074322,138.982169 57.5605309,132.974483 57.7983252,123.663588 C58.0002674,115.767938 56.1999818,107.744335 56.1999818,107.744335 C55.3834328,103.17839 58.9203483,99.3342856 58.9203483,99.3342856 C60.5527146,95.9703305 57.5601651,93.5673207 57.5601651,93.5673207 C57.5601651,93.5673207 56.7439819,93.8077187 56.3357074,97.6521465 C56.3357074,97.6521465 53.3555964,103.013601 52.7991577,106.993415 C52.335276,110.312134 51.4781191,116.382827 52.4933177,121.050553 C53.0263427,123.501707 53.5904639,126.494079 53.8875239,130.331722 C54.1505609,133.739297 56.2720517,142.776514 54.6396855,143.977857 C54.6396855,143.977857 53.4701034,145.76824 51.8465173,143.066994 C49.7250265,139.535666 46.9497843,129.490329 46.8140586,123.603165 C46.8140586,123.603165 45.2819318,113.153288 46.6779671,108.525305 C47.9887624,104.179402 52.9352492,91.4047089 52.9352492,91.4047089" id="Fill-4" fill="#71CE20"></path>
                            <path d="M40.2177031,80.4462828 C40.2177031,80.4462828 39.3799081,86.0184656 37.0760659,89.2536252 C37.0760659,89.2536252 34.3531384,93.0546718 40.2177031,90.3454392 C40.2177031,90.3454392 43.77805,88.3548445 41.4742078,92.3092864 C41.4742078,92.3092864 32.0489206,111.181749 32.4680059,119.270131 C32.4680059,119.270131 33.7248861,126.123616 31.6302109,128.088753 C31.6302109,128.088753 29.954621,130.413852 30.1641636,133.469513 C30.1641636,133.469513 28.2790311,133.672537 28.4885737,128.088753 C28.4885737,128.088753 30.3733307,118.19153 29.7450784,114.23741 C29.7450784,114.23741 28.2790311,112.08053 26.1847315,114.95637 L23.8805137,116.39429 L23.8805137,111.181749 C23.8805137,111.181749 33.9344287,99.8582069 32.0489206,89.6129442 C32.0489206,89.6129442 31.2115012,88.1750238 33.9344287,85.4790038 C33.9344287,85.4790038 39.3799081,77.3909438 40.2177031,80.4462828" id="Fill-6" fill="#71CE20"></path>
                            <path d="M83.6314313,53.3873729 C83.6314313,53.3873729 88.3735957,53.2009641 88.1676878,56.3685777 C88.1676878,56.3685777 87.7547632,60.6539762 80.1261926,61.0267939 C80.1261926,61.0267939 71.0540493,63.2626975 68.7861059,65.8710847 C68.7861059,65.8710847 64.6624044,66.4299771 61.7756285,63.8215899 C61.7756285,63.8215899 59.5076851,61.3992774 68.9920137,56.182503 C68.9920137,56.182503 76.0024911,49.2883832 83.6314313,53.3873729" id="Fill-8" fill="#71CE20"></path>
                            <path d="M94.7382862,82.7458076 C86.0573419,86.0453875 78.4548097,92.6971057 78.4548097,92.6971057 C77.2333391,95.2150789 75.0162989,95.5749275 75.0162989,95.5749275 C70.4920769,97.3732034 66.2419286,107.204552 66.2419286,107.204552 C63.9347469,114.158724 61.8687938,114.278351 61.8687938,114.278351 C59.9382353,114.278351 60.9494976,110.844311 60.9494976,110.844311 C61.7640547,108.968971 62.4424872,103.847577 62.4424872,103.847577 C63.3920739,94.7356031 66.5134476,90.8988299 66.5134476,90.8988299 C68.1418318,88.8606549 68.4133508,86.7025304 68.4133508,86.7025304 C68.0060722,83.1056562 69.4986969,83.1056562 69.4986969,83.1056562 C71.127081,82.5059085 72.6562002,80.9472093 72.6562002,80.9472093 C73.7784057,79.2685605 77.7763771,77.3506576 77.7763771,77.3506576 C84.8329517,76.1514846 86.0536924,72.5549328 86.0536924,72.5549328 C87.546682,68.9580587 93.7886996,69.0776858 93.7886996,69.0776858 C101.523707,68.2380389 117.535299,70.0366373 117.535299,70.0366373 C119.706357,70.0366373 120.927827,70.8759616 120.927827,70.8759616 C125.405701,73.5138843 150.238742,77.110436 150.238742,77.110436 C154.716616,78.6691353 156.20924,80.9472093 156.20924,80.9472093 C157.701865,83.3449105 163.536969,88.0210081 163.536969,88.0210081 C166.115305,90.5386588 166.657978,87.6611595 166.657978,87.6611595 C167.47217,81.7862112 163.40121,75.4317873 163.40121,75.4317873 C158.651817,68.5978876 151.460212,65.6604135 151.460212,65.6604135 C147.287432,64.0420619 148.813997,61.1645626 148.813997,61.1645626 C149.119456,58.5566273 143.318292,56.6683893 143.318292,56.6683893 C141.384449,54.869791 143.725205,55.0497153 143.725205,55.0497153 C146.778699,53.7009278 141.710344,52.6300879 140.672076,52.5320646 C137.33283,52.2160685 134.31948,52.5946189 132.225062,52.3521403 C126.226827,51.6579162 110.649519,51.1832771 110.649519,51.1832771 C106.781833,51.362879 106.883653,50.2839779 106.883653,50.2839779 C106.883653,49.0248301 108.715676,48.7552661 108.715676,48.7552661 L121.538745,48.6653039 C124.18496,47.7663272 122.352937,46.8670281 122.352937,46.8670281 C118.281977,43.1801918 108.206578,45.0684298 108.206578,45.0684298 C105.560727,47.0469524 96.2991556,46.2250401 96.2991556,46.2250401 C91.4143681,46.0328628 87.1397685,47.855967 87.1397685,47.855967 C83.0684431,49.2947166 80.320773,46.5971416 80.320773,46.5971416 C77.2676439,45.3383163 73.5021425,47.6763651 73.5021425,47.6763651 C70.6522877,49.2047545 63.9347469,50.134041 63.9347469,50.134041 C45.7513672,53.9704918 37.8806006,61.8839374 37.8806006,61.8839374 C35.1668703,65.0013359 40.5950607,64.9897278 40.5950607,64.9897278 C43.1730315,63.8992188 49.2796545,58.3125364 49.2796545,58.3125364 C53.4900239,55.3376587 59.0893735,53.4168537 61.4925357,53.0266953 C62.265124,52.9009417 62.6468564,53.3368874 62.5778818,53.6109656 C61.954191,56.0763802 56.1836822,58.766539 52.9437013,60.4900076 C51.6437676,61.1816522 49.6865681,61.6440383 49.6865681,61.6440383 C47.786665,62.6029898 49.1435301,64.9897278 49.1435301,64.9897278 C45.8871267,66.8966677 36.1171868,75.0722611 36.1171868,75.0722611 C29.7394097,81.1871084 27.4318631,87.3016333 27.4318631,87.3016333 C25.1250464,91.1384065 24.5823733,88.9799596 24.5823733,88.9799596 C23.6324217,86.9417846 22.8182297,91.9774085 22.8182297,91.9774085 C21.1898455,94.4953816 22.5470756,96.2936575 22.5470756,96.2936575 C23.3609027,97.3728809 25.260076,98.5717315 25.260076,98.5717315 C23.2244133,103.487406 23.8364259,110.441577 23.8364259,110.441577 C20.3771132,106.245278 18.3392609,107.923604 18.3392609,107.923604 C16.0324442,111.400851 22.1390672,114.278028 22.1390672,114.278028 C19.1541829,116.796001 21.3252401,124.349276 21.3252401,124.349276 C26.074633,132.14245 23.8364259,140.535371 23.8364259,140.535371 C19.2917671,140.89522 21.7321536,144.73167 21.7321536,144.73167 C26.4819115,147.130016 25.3958355,142.333969 25.3958355,142.333969 L27.4314982,140.89522 C29.7386798,146.769845 38.7553735,156.601516 38.7553735,156.601516 C40.9877414,158.879268 42.3581096,158.879268 42.3581096,158.879268 C43.0361772,158.039944 40.1866874,154.443392 40.1866874,154.443392 C36.116092,151.446265 35.7088135,146.530269 35.7088135,146.530269 C35.844573,143.533142 32.7622483,139.33652 32.7622483,139.33652 C30.6298753,136.339394 32.0451316,135.139898 32.0451316,135.139898 C32.8593237,134.300574 33.9924776,132.262399 33.9924776,132.262399 C33.7687664,129.265273 35.4387542,130.224224 35.4387542,130.224224 C35.4387542,130.224224 38.9670415,130.7037 43.0380019,149.647345 C43.0380019,149.647345 44.9371752,156.121718 50.9080387,160.437967 C50.9080387,160.437967 52.5360579,164.27474 49.0081355,163.555366 C49.0081355,163.555366 43.308791,161.756445 46.7013188,164.754216 C46.7013188,164.754216 47.6516353,167.152562 51.9933848,167.03229 C51.9933848,167.03229 56.7431427,168.47104 59.7280271,171.348539 C59.7280271,171.348539 62.3059978,176.864284 58.7780755,177.103538 C58.7780755,177.103538 54.4355961,176.624385 51.8576253,172.427763 C51.8576253,172.427763 45.0729347,171.348539 43.4445505,173.266765 C43.4445505,173.266765 38.4232736,173.986139 36.7952544,167.871615 C36.7952544,167.871615 32.9950832,157.440196 29.4671608,161.876717 C29.4671608,161.876717 24.7174029,165.953389 25.3958355,153.66372 C25.3958355,153.66372 24.9903817,149.767294 23.8364259,152.524844 C23.8364259,152.524844 21.7325186,159.478693 19.8326154,155.042817 C19.8326154,155.042817 18.7469043,152.644794 17.5257987,151.685842 C17.5257987,151.685842 16.8470012,149.767294 17.5257987,148.088645 C17.5257987,148.088645 19.8315206,147.130339 13.4541084,143.413193 C13.4541084,143.413193 12.9107055,123.98975 14.6752141,119.913722 C14.6752141,119.913722 16.0101825,109.842152 13.3752803,116.676374 C13.3752803,116.676374 13.9975114,110.801749 8.56932095,107.084925 C8.56932095,107.084925 7.48360987,107.20423 7.34785036,105.885752 C7.34785036,105.885752 8.29780194,103.607678 9.51890758,102.408827 C9.51890758,102.408827 16.8459064,92.0976804 17.3893093,84.9039321 C17.3893093,84.9039321 25.2604409,86.5825809 20.5106831,79.0293063 C20.5106831,79.0293063 18.6107799,76.9911314 21.0537211,75.9119079 C21.0537211,75.9119079 29.0595174,74.0900936 26.0742681,64.9897278 C26.0742681,64.9897278 32.9958131,61.9348837 31.7747074,58.3125364 C31.7747074,58.3125364 43.2752161,57.0282379 32.2834406,57.297802 C32.2834406,57.297802 40.8326399,50.8234284 38.1864244,46.5971416 C38.1864244,46.5971416 34.3191033,43.9895288 37.6776912,42.5507791 C37.6776912,42.5507791 39.8148085,45.4282784 42.5628436,40.8421429 C42.5628436,40.8421429 43.1733965,40.4826167 43.9875885,42.9103053 C43.9875885,42.9103053 44.4963217,46.6871038 52.230964,38.1445679 C52.230964,38.1445679 58.2361323,34.3677694 57.6252145,33.2888684 C57.6252145,33.2888684 57.0431274,31.7601566 55.7059693,32.7490954 C55.7059693,32.7490954 54.979364,34.1881676 50.8062191,34.097883 C50.8062191,34.097883 49.4832938,34.0082432 49.0763802,37.0656669 C49.0763802,37.0656669 46.4301648,39.5833176 45.4123334,35.8964813 C45.4123334,35.8964813 45.8196119,33.1989062 48.4654625,30.9508196 L54.8775444,25.8252336 C54.8775444,25.8252336 57.5233949,23.5771469 59.3554183,25.8252336 L68.1078919,26.3650065 C68.1078919,26.3650065 73.0948639,20.9695341 75.7407145,19.5307844 C75.7407145,19.5307844 78.2854753,22.3183216 80.7276866,23.3075829 C80.7276866,23.3075829 85.5493386,24.9262569 87.056926,18.8114096 C87.056926,18.8114096 87.546682,23.1276586 92.024556,22.8577721 C92.024556,22.8577721 95.6886028,22.2283594 96.5027948,18.8114096 C96.5027948,18.8114096 99.5559239,16.9231716 106.17128,17.1027734 C106.17128,17.1027734 109.224409,17.4626221 112.073534,18.5415231 C112.073534,18.5415231 114.618295,20.4300836 116.653592,20.4300836 C116.653592,20.4300836 122.96349,19.6207466 127.543548,20.3401214 C127.543548,20.3401214 132.021422,20.8795719 133.446167,22.2283594 C133.446167,22.2283594 133.039254,23.3075829 131.614144,23.2176207 C131.614144,23.2176207 125.202792,21.5089846 122.96349,22.7681324 C122.96349,22.7681324 121.029647,23.9369956 122.96349,25.1958209 C122.96349,25.1958209 126.525717,26.6345706 131.105411,26.3650065 C131.105411,26.3650065 131.512689,27.9833581 128.662834,27.7137941 C128.662834,27.7137941 125.711525,26.2750444 124.693694,27.8034338 C124.693694,27.8034338 121.199346,30.2311223 132.869554,32.6291459 C132.869554,32.6291459 143.72557,32.8151967 147.796531,35.5998318 C147.796531,35.5998318 148.881877,37.9046688 146.4393,38.1442455 C146.4393,38.1442455 142.639859,34.9733212 139.925764,35.5998318 C139.925764,35.5998318 138.840418,36.7058183 148.067685,41.501543 L157.566835,47.1881833 C157.566835,47.1881833 163.26618,46.5748929 163.537699,48.8339427 C163.537699,48.8339427 166.522948,54.4499676 162.451988,52.7716412 C162.451988,52.7716412 159.737893,51.7843146 158.652182,50.4797021 C158.652182,50.4797021 147.525012,40.7821682 142.368705,40.3026924 C142.368705,40.3026924 135.583649,40.3026924 142.368705,43.8992441 C142.368705,43.8992441 153.49551,48.7610701 154.92062,51.6356674 C154.92062,51.6356674 154.106428,52.7116665 148.610358,50.0140915 C148.610358,50.0140915 143.928845,47.1365921 141.282994,47.855967 C141.282994,47.855967 138.433139,48.3957399 135.38001,47.1365921 C135.38001,47.1365921 130.291219,46.0576911 130.291219,47.4964408 C130.291219,47.4964408 130.197793,50.1250125 138.636778,49.6545653 C138.636778,49.6545653 144.539397,52.5320646 149.221275,53.0715151 C149.221275,53.0715151 156.549004,55.0497153 157.566471,56.3085406 C157.566471,56.3085406 157.363196,57.2078398 156.141726,57.2078398 C156.141726,57.2078398 152.070765,60.804714 158.177388,60.2652634 C158.177388,60.2652634 160.009412,58.4669876 164.487286,61.5240888 C164.487286,61.5240888 167.540415,64.5815124 167.744054,62.4233879 C167.744054,62.4233879 166.522583,58.4669876 158.991215,56.6683893 C158.991215,56.6683893 160.823604,55.7690901 163.876733,55.7690901 L164.283646,54.5102648 C164.283646,54.5102648 164.283646,56.1289388 167.744054,57.2078398 C167.744054,57.2078398 175.682335,62.5201215 178.124912,64.9897278 C178.124912,64.9897278 180.567488,66.2969199 182.399511,64.9897278 C182.399511,64.9897278 183.518797,64.1317016 184.943542,64.1317016 C184.943542,64.1317016 184.332989,60.3552256 180.262029,60.0853391 C180.262029,60.0853391 173.952132,60.9846383 174.766324,55.5894882 C174.766324,55.5894882 176.801986,52.8915908 179.346017,55.3196018 C179.346017,55.3196018 180.771127,57.1182001 181.788593,58.5566273 C181.788593,58.5566273 183.213703,59.3659643 184.943542,57.7472903 C184.943542,57.7472903 187.284299,55.4992036 190.134153,58.5566273 C190.134153,58.5566273 196.240412,67.6386137 198.276074,69.9766625 C198.276074,69.9766625 201.532843,73.4835745 202.855768,69.2572876 C202.855768,69.2572876 204.382332,64.0420619 208.962391,70.6960373 C208.962391,70.6960373 213.949363,75.4620971 216.595213,77.4402973 C216.595213,77.4402973 217.081685,79.3285353 217.703551,80.6773228 C217.703551,80.6773228 218.325417,82.2959968 219.343249,78.5191983 C219.343249,78.5191983 220.462535,76.9008468 220.36108,81.576622 C220.36108,81.576622 219.458206,85.8029088 220.367649,89.4897451 C220.367649,89.4897451 222.803656,96.3236448 219.851982,101.179344 C219.851982,101.179344 215.068649,107.923604 216.290119,110.711142 C216.290119,110.711142 221.175272,107.923604 221.887644,101.629155 C221.887644,101.629155 222.294558,105.405954 221.887644,108.463055 C221.887644,108.463055 220.767993,109.63224 219.546888,110.351615 C219.546888,110.351615 215.882841,113.948489 218.834515,113.229115 C218.834515,113.229115 220.666174,112.419778 221.276727,111.520479 C221.276727,111.520479 221.989464,110.531217 222.905111,112.689664 C222.905111,112.689664 225.144413,119.074075 223.516029,121.861613 C223.516029,121.861613 222.701836,123.030798 223.312389,125.278563 C223.312389,125.278563 223.617483,130.674035 222.192738,130.763675 C222.192738,130.763675 220.055621,128.785475 219.241429,130.404149 C219.241429,130.404149 216.1883,134.360549 214.865375,138.407234 C214.865375,138.407234 213.033351,142.633198 210.387136,144.971247 C210.387136,144.971247 205.09507,150.636606 204.484152,154.32312 C204.484152,154.32312 185.927799,166.552492 171.815014,170.269316 C171.815014,170.269316 167.33714,170.629487 166.11567,173.027188 C166.11567,173.027188 163.808853,175.78506 160.280566,175.78506 C160.280566,175.78506 153.631635,173.866512 150.64602,174.945413 C150.64602,174.945413 148.882242,176.264858 146.168146,176.144586 C146.168146,176.144586 139.383091,173.746563 139.383091,177.103538 C139.383091,177.103538 139.247331,180.820684 143.047138,182.738587 C143.047138,182.738587 144.132484,182.978809 143.86133,185.136933 C143.86133,185.136933 142.504465,186.815259 139.111572,183.458284 C139.111572,183.458284 134.091025,179.141713 134.226784,174.945413 C134.226784,174.945413 135.176371,170.269316 129.612786,170.269316 C129.612786,170.269316 117.943308,170.749114 117.807183,165.953389 L120.928192,165.953389 L120.928192,163.195839 C120.928192,163.195839 120.928192,162.116616 125.677585,163.07589 C125.677585,163.07589 130.426978,165.353964 132.462641,163.555688 C132.462641,163.555688 133.005314,161.517513 127.305969,161.157664 L139.247331,160.43829 C139.247331,160.43829 139.790369,162.596092 142.911378,161.63714 C142.911378,161.63714 144.404003,159.359066 147.253493,159.479016 C147.253493,159.479016 150.374866,160.31834 152.410164,158.280165 C152.410164,158.280165 154.9885,156.482212 158.381028,156.721788 C158.381028,156.721788 162.723142,156.002091 164.351526,157.56079 C164.351526,157.56079 164.080372,159.359066 161.366277,159.479016 C161.366277,159.479016 155.860353,159.662809 154.846901,161.15444 C154.702383,161.367254 154.649101,161.607153 154.717346,161.877039 C155.260019,164.035164 156.617249,163.915214 161.366277,163.195839 C161.366277,163.195839 183.349463,158.040588 184.027895,152.765066 C184.027895,152.765066 185.859919,151.176057 187.081024,151.445943 C187.081024,151.445943 188.200675,153.064295 186.266832,154.503044 C186.266832,154.503044 185.045362,157.380544 188.607589,154.772931 C188.607589,154.772931 202.550674,146.500281 198.072435,144.701683 C198.072435,144.701683 196.240412,144.971247 196.851329,143.083009 C196.851329,143.083009 194.510573,140.925207 192.47491,144.791645 C192.47491,144.791645 190.846526,148.478159 185.55446,150.636606 C185.55446,150.636606 183.620617,151.445943 184.536629,149.916909 C184.536629,149.916909 201.532843,136.608636 202.652493,129.055361 C202.652493,129.055361 203.873599,126.357786 203.975419,123.30004 C203.975419,123.30004 204.585972,120.153299 210.081677,114.757826 C210.081677,114.757826 215.374108,105.76548 216.1883,99.3810685 C216.1883,99.3810685 216.493394,96.8634178 214.763555,98.5717315 C214.763555,98.5717315 209.267485,104.057166 208.351473,109.992089 C208.351473,109.992089 206.621634,101.989004 206.926728,92.4572066 C206.926728,92.4572066 206.519815,84.8139699 200.921925,80.767285 C200.921925,80.767285 198.785172,78.5191983 196.953149,76.1814719 C196.953149,76.1814719 192.47491,69.5271741 193.390922,72.4046735 C193.390922,72.4046735 198.072435,85.4433826 198.682988,89.4897451 C198.682988,89.4897451 199.090266,91.1084191 197.766976,91.3779832 C197.766976,91.3779832 196.138957,92.4572066 195.629859,97.6724323 C195.629859,97.6724323 194.510573,109.542278 191.660718,110.351615 C191.660718,110.351615 191.457079,109.362354 192.169816,107.564078 C192.169816,107.564078 196.240412,93.446468 193.085463,91.1980588 C193.085463,91.1980588 190.642887,89.4897451 190.541432,86.8821323 C190.541432,86.8821323 190.439612,85.083534 188.810863,85.083534 C188.810863,85.083534 188.30213,84.9935718 187.895217,83.5548222 C187.895217,83.5548222 185.655915,79.8683083 185.757734,82.2060346 C185.757734,82.2060346 185.45264,84.9036097 183.824256,83.0153716 C183.824256,83.0153716 182.094052,78.6091605 183.315158,77.260373 C183.315158,77.260373 184.740268,75.8216233 183.722437,75.0122863 C183.722437,75.0122863 178.939104,70.0666246 177.005261,67.5489739 C177.005261,67.5489739 170.797183,64.2216638 172.730661,67.3690496 C172.730661,67.3690496 174.053951,68.5379128 175.376877,69.5271741 C175.376877,69.5271741 176.903806,70.9659238 178.430371,75.1022485 C178.430371,75.1022485 179.956935,79.0586488 181.27986,82.6558454 C181.27986,82.6558454 187.182844,97.9423188 182.399511,111.700403 C182.399511,111.700403 180.465668,115.297277 178.837284,116.736027 C178.837284,116.736027 179.651476,105.226029 177.10708,103.78728 C177.10708,103.78728 171.509555,103.877242 170.899003,115.92669 C170.899003,115.92669 167.947693,128.785475 157.66829,133.191686 C157.66829,133.191686 145.557229,138.496874 141.486268,138.76676 C141.486268,138.76676 139.857884,138.857045 140.672076,136.159147 C140.672076,136.159147 140.672076,132.562273 135.888743,138.317272 C135.888743,138.317272 132.123242,139.845984 121.436925,139.126609 C121.436925,139.126609 104.237437,137.148408 102.609053,125.368525 C102.609053,125.368525 99.7595631,111.700403 112.989911,105.76548 C112.989911,105.76548 118.281977,103.967204 118.383796,106.844703 C118.383796,106.844703 119.281196,108.732941 115.728457,109.362354 C115.728457,109.362354 101.184308,113.409039 105.865821,122.580987 C105.865821,122.580987 107.596025,129.414887 112.684452,132.742197 C112.684452,132.742197 114.294589,131.393087 115.728457,133.101724 C115.728457,133.101724 118.180157,137.148408 126.627537,135.709659 C126.627537,135.709659 127.238089,134.180947 128.662834,135.259848 C128.662834,135.259848 140.061523,136.968484 145.557229,127.076838 C145.557229,127.076838 148.203444,117.185837 135.074551,118.804189 C135.074551,118.804189 131.919603,119.79345 131.715963,121.77165 C131.715963,121.77165 134.158905,122.041215 135.685104,125.548449 C135.685104,125.548449 137.212034,127.886175 139.857884,126.807274 C139.857884,126.807274 140.672076,128.965399 137.415308,128.965399 C137.415308,128.965399 129.782485,128.875437 128.154101,131.48305 C128.154101,131.48305 126.016984,132.562273 124.490054,131.033561 C124.490054,131.033561 120.622733,128.965399 122.96349,123.569926 C122.96349,123.569926 125.711525,119.34364 120.826372,118.804189 C120.826372,118.804189 119.706722,119.79345 118.078337,119.074075 C118.078337,119.074075 114.719749,117.545364 113.702283,120.422863 C113.702283,120.422863 112.582632,122.850874 110.954613,122.850874 C110.954613,122.850874 108.91895,122.850874 108.817496,124.73879 C108.817496,124.73879 105.357088,119.074075 113.295005,113.409039 C113.295005,113.409039 116.348134,111.430516 118.587436,114.128414 C118.587436,114.128414 121.131466,116.915951 124.18496,113.139152 C124.18496,113.139152 126.525717,106.754741 128.866474,104.686579 C128.866474,104.686579 130.291219,103.877242 131.919603,106.30493 C131.919603,106.30493 133.446167,114.937751 140.773896,108.642979 C140.773896,108.642979 150.849295,104.32673 142.707739,99.111182 C142.707739,99.111182 141.181174,101.539193 139.349151,99.2911063 C139.349151,99.2911063 137.618947,96.7734556 135.074551,97.0430197 C135.074551,97.0430197 128.968293,96.8634178 125.304246,94.8848952 C125.304246,94.8848952 114.007377,90.7485705 110.44588,81.1271336 C110.44588,81.1271336 108.715676,80.1378723 107.697845,80.9472093 C107.697845,80.9472093 103.525065,82.4759211 99.4541043,81.6665841 C99.4541043,81.6665841 96.9224815,81.9155117 94.7382862,82.7458076" id="Fill-10" fill="#71CE20"></path>
                            <path d="M92.7666108,138.493655 C92.7666108,138.493655 96.7269206,137.617885 98.801755,140.24488 C98.801755,140.24488 102.950748,145.849301 99.9331755,145.674085 C99.9331755,145.674085 94.8411071,144.623413 92.7666108,138.493655" id="Fill-12" fill="#71CE20"></path>
                            <path d="M82.5730487,122.511029 C82.5730487,122.511029 84.8740146,129.302955 86.9660745,136.45284 C86.9660745,136.45284 88.8484784,141.099897 91.3591004,144.317361 C91.3591004,144.317361 93.6600663,147.713324 92.8233173,150.037012 C92.8233173,150.037012 87.1884825,145.210816 89.6916033,150.037012 C89.6916033,150.037012 93.0325983,156.650119 109.349016,156.828938 C109.349016,156.828938 114.159854,157.543574 112.696012,159.152627 C112.696012,159.152627 103.701054,160.761039 95.5424702,157.186256 C95.5424702,157.186256 91.5811333,155.577845 89.6916033,155.935163 C89.6916033,155.935163 75.6052663,147.895348 73.7547422,141.012089 C73.7547422,141.012089 70.4400011,136.095201 72.113499,132.699238 C72.113499,132.699238 73.996653,127.158406 77.5525548,133.056556 C77.5525548,133.056556 76.9247118,137.739505 79.6284874,136.461492 C79.6284874,136.461492 80.2720828,124.477399 80.2720828,122.511029 C80.2720828,122.511029 81.6425358,119.702477 82.5730487,122.511029" id="Fill-14" fill="#71CE20"></path>
                            <path d="M80.2026128,56.4641342 C81.839577,54.4871283 77.6019314,54.1432443 77.6019314,54.1432443 C76.0613023,54.6590703 66.912398,53.7137163 66.912398,53.7137163 C64.2157477,56.2921922 59.4000915,58.1825734 59.4000915,58.1825734 C54.4884665,59.6437534 46.012809,70.1295993 46.012809,70.1295993 C43.7014992,75.6301083 35.4192444,85.5998013 35.4192444,85.5998013 C26.4630103,96.3432333 25.7886646,107.946048 25.7886646,107.946048 C25.1146852,110.954379 29.4482996,113.618499 29.4482996,113.618499 C31.6629081,115.423563 33.3009711,120.837774 33.3009711,120.837774 C34.3602909,123.67449 35.3232756,120.751803 35.3232756,120.751803 C42.2572052,90.6711092 50.1548521,89.1236313 57.7869364,82.6133718 C64.2589703,77.0925958 69.4160118,70.2152434 69.4160118,70.2152434 C72.4980024,66.4335004 78.0839732,65.9180013 78.0839732,65.9180013 C81.9359121,64.5431192 81.7432419,60.9329914 81.7432419,60.9329914 C81.7432419,60.9329914 80.9729273,60.5897612 77.6019314,63.0819393 C77.6019314,63.0819393 71.1943651,65.0344287 67.6101865,67.5295488 C64.6219669,69.6105044 59.1484481,73.4115337 56.1257969,77.3923502 C54.5382824,79.4824586 52.5390543,81.97954 49.6728103,84.9123603 C47.1278054,87.5163334 41.3854275,95.3217149 39.2667878,95.1497729 C39.2667878,95.1497729 37.0034624,95.6914228 38.0195596,92.7334323 C39.3481049,88.866699 45.435531,79.9270234 50.058517,75.6301083 C50.058517,75.6301083 57.3506813,67.1866455 62.0483911,64.7578833 C66.4603922,62.4772003 80.2026128,56.4641342 80.2026128,56.4641342" id="Fill-16" fill="#71E721"></path>
                            <path d="M77.8389602,38.6578039 C77.8389602,38.6578039 72.7303448,41.9937632 68.4977141,42.8587692 C68.4977141,42.8587692 63.5138165,43.8656975 69.8004037,45.4628726 C69.8004037,45.4628726 73.8983244,46.1947284 69.0813338,47.5537997 C69.0813338,47.5537997 47.188008,54.9675995 40.9121532,60.7751386 C40.9121532,60.7751386 36.2224709,66.2277152 33.1670718,66.3430075 C33.1670718,66.3430075 30.1113027,66.9526785 27.7760837,69.1767558 C27.7760837,69.1767558 26.2976051,68.2042898 30.9776652,64.4895576 C30.9776652,64.4895576 40.3281634,58.7979374 43.1015598,55.7088542 C43.1015598,55.7088542 43.8309919,53.3613389 40.0365386,54.1029068 L37.2631422,53.7319662 L41.4957729,50.1488176 C41.4957729,50.1488176 57.6972337,48.2953677 64.7028907,40.1403133 C64.7028907,40.1403133 65.2868805,38.6578039 69.3733287,38.4106146 C69.3733287,38.4106146 79.7360019,36.0630993 77.8389602,38.6578039" id="Fill-18" fill="#71E721"></path>
                            <path d="M132.229621,46.361545 C132.229621,46.361545 135.762601,49.2078838 133.112773,51.2777694 C133.112773,51.2777694 129.432352,53.9945353 123.69112,49.4663734 C123.69112,49.4663734 115.447126,45.3266022 111.767079,45.7146647 C111.767079,45.7146647 108.380793,43.5152062 108.380793,39.8927423 C108.380793,39.8927423 108.675301,36.7879139 119.569123,39.1169453 C119.569123,39.1169453 130.020996,38.7285547 132.229621,46.361545" id="Fill-20" fill="#71E721"></path>
                            <path d="M114.891659,75.3123061 C106.140653,72.2215045 95.475455,72.175065 95.475455,72.175065 C92.6059864,73.1928624 90.7565469,72.0618689 90.7565469,72.0618689 C86.1329483,70.5067933 75.2942291,74.8040524 75.2942291,74.8040524 C68.1205575,78.2802367 66.5686872,77.0737792 66.5686872,77.0737792 C65.2081633,75.8676442 68.6604018,74.071019 68.6604018,74.071019 C70.7306535,73.2534916 75.2942291,70.0556214 75.2942291,70.0556214 C83.2329224,64.204899 88.4934936,63.4418735 88.4934936,63.4418735 C91.267289,63.0177913 93.1803894,61.6610506 93.1803894,61.6610506 C95.7628384,58.8630754 96.8145161,59.7954113 96.8145161,59.7954113 C98.4405968,60.3891264 100.761854,60.2423908 100.761854,60.2423908 C102.892129,59.7563893 107.240349,60.8980251 107.240349,60.8980251 C113.170633,64.4593484 116.900069,62.6785255 116.900069,62.6785255 C120.821943,61.067658 125.126146,65.052741 125.126146,65.052741 C131.247412,69.2922734 141.098842,80.5693133 141.098842,80.5693133 C142.628885,81.9257314 142.820232,83.2824721 142.820232,83.2824721 C143.872273,87.9460866 158.506272,106.007152 158.506272,106.007152 C160.419009,109.907419 159.653987,112.451267 159.653987,112.451267 C158.793292,115.07961 159.175621,122.032623 159.175621,122.032623 C158.984275,125.424314 161.662397,123.728307 161.662397,123.728307 C166.922968,120.082167 169.122724,113.044337 169.122724,113.044337 C171.226807,105.243804 168.501394,98.6726259 168.501394,98.6726259 C166.851304,94.920385 170.223148,93.8393784 170.223148,93.8393784 C172.518577,92.1859415 169.936128,87.2256306 169.936128,87.2256306 C170.007792,84.7453139 171.51419,86.3352191 171.51419,86.3352191 C174.741979,87.2891623 172.024205,83.365031 171.370499,82.6468325 C169.268962,80.3367937 166.843301,78.7214112 165.560261,77.2411546 C161.886483,73.0022673 151.28531,62.9329748 151.28531,62.9329748 C148.415841,60.6435758 149.348564,59.9437595 149.348564,59.9437595 C150.352951,59.053348 151.859349,60.0072912 151.859349,60.0072912 L160.969403,67.9564949 C163.551488,68.9739698 162.977812,67.1934694 162.977812,67.1934694 C163.049476,62.0422409 154.441434,57.0822525 154.441434,57.0822525 C150.99829,56.8278032 145.126211,50.4594748 145.126211,50.4594748 C141.836217,47.2709569 137.369042,45.8897066 137.369042,45.8897066 C133.351859,44.363333 133.56685,40.7384781 133.56685,40.7384781 C132.419136,37.9405028 127.899941,37.2406865 127.899941,37.2406865 C124.671789,36.5411927 119.195862,33.0008317 119.195862,33.0008317 C103.318839,24.3518116 91.4582717,25.0303432 91.4582717,25.0303432 C87.0587593,25.5392419 90.8940544,28.9228698 90.8940544,28.9228698 C93.5809072,29.7626494 102.341735,29.6272011 102.341735,29.6272011 C107.682701,30.1541595 113.161902,32.2948879 115.167038,33.5206952 C115.81165,33.9141403 115.733074,34.461416 115.465698,34.6120217 C113.059317,35.9658598 106.846015,34.2627585 103.187152,33.456841 C101.719678,33.1337 99.9710043,32.2378061 99.9710043,32.2378061 C97.8669213,31.7289075 96.9196475,34.2646935 96.9196475,34.2646935 C93.102905,33.578422 79.694469,33.2556035 79.694469,33.2556035 C70.3210413,33.5948693 63.8170822,36.4773385 63.8170822,36.4773385 C59.1301864,37.7492627 60.4692475,35.8836234 60.4692475,35.8836234 C61.4256158,33.8486736 56.8347571,36.9014207 56.8347571,36.9014207 C53.6782688,37.6644462 53.2002666,39.7842124 53.2002666,39.7842124 C52.913247,41.0561366 53.295576,43.0904413 53.295576,43.0904413 C47.9393316,45.295024 42.8228159,50.5955681 42.8228159,50.5955681 C43.7318932,45.4665918 40.9570065,45.3801629 40.9570065,45.3801629 C36.5571304,46.3976378 38.5659039,52.2483601 38.5659039,52.2483601 C34.4534112,52.1638661 29.9578619,58.8624304 29.9578619,58.8624304 C27.0883933,67.3414951 18.8157531,71.8783687 18.8157531,71.8783687 C15.3253181,69.2932408 13.9848019,73.5314832 13.9848019,73.5314832 C15.4195362,78.1954203 18.4799875,74.1248758 18.4799875,74.1248758 L21.0624364,74.3793252 C18.002349,79.9755981 16.5145033,92.5629393 16.5145033,92.5629393 C16.2707731,95.5689244 17.2365996,96.4251513 17.2365996,96.4251513 C18.3843142,96.2551959 19.2450093,91.9314921 19.2450093,91.9314921 C18.7670071,87.2678776 22.4014975,83.5369214 22.4014975,83.5369214 C24.8882733,81.5019717 26.0632713,76.608095 26.0632713,76.608095 C26.9512496,73.1557754 28.9054566,73.1922174 28.9054566,73.1922174 C30.1492083,73.107401 32.5734145,72.3740451 32.5734145,72.3740451 C34.8070019,70.1143156 35.2187969,71.8361218 35.2187969,71.8361218 C35.2187969,71.8361218 37.3232436,74.3799702 25.0807111,90.3212696 C25.0807111,90.3212696 21.2545104,96.0865305 22.0195323,102.870234 C22.0195323,102.870234 20.1064319,106.600867 18.1936954,103.887386 C18.1936954,103.887386 15.6116102,99.0541386 15.6112464,103.293993 C15.6112464,103.293993 14.3678585,105.583715 17.523983,108.212057 C17.523983,108.212057 19.7241029,112.19714 19.5323927,116.097729 C19.5323927,116.097729 16.9495799,121.609186 14.2718215,119.573591 C14.2718215,119.573591 11.5936993,116.521489 13.1241068,111.942691 C13.1241068,111.942691 9.20296052,106.940133 6.52483832,107.279399 C6.52483832,107.279399 2.41198182,104.650412 6.1421455,99.308588 C6.1421455,99.308588 11.7854095,89.5569541 5.75945268,90.489935 C5.75945268,90.489935 -0.840543389,90.4051186 9.44159787,82.1376113 C9.44159787,82.1376113 12.2645031,79.1284012 9.25097901,80.3577559 C9.25097901,80.3577559 2.22063541,83.9610036 4.42039158,79.6366549 C4.42039158,79.6366549 5.56810627,77.2624393 5.47243306,75.8208823 C5.47243306,75.8208823 6.52447454,74.0403819 8.34190167,73.2770339 C8.34190167,73.2770339 10.7319129,74.0400594 9.20186919,67.4263115 C9.20186919,67.4263115 24.3138703,53.3503289 28.8094196,51.5698285 C28.8094196,51.5698285 37.7848759,45.2814791 30.4755158,48.468062 C30.4755158,48.468062 35.6003983,44.7022763 34.7397033,38.6819211 C34.7397033,38.6819211 33.879372,38.0878835 34.8353765,37.0704086 C34.8353765,37.0704086 37.3221523,36.0532563 39.1392156,35.9684398 C39.1392156,35.9684398 52.5290991,33.254636 58.6507291,28.5065275 C58.6507291,28.5065275 62.8599863,34.6120217 65.5377448,26.3022674 C65.5377448,26.3022674 65.8247644,23.6736025 68.4072134,24.4369506 C68.4072134,24.4369506 75.5037643,28.1508144 80.6588403,19.849445 C80.6588403,19.849445 87.9747484,22.0143606 90.0035297,18.6891045 C90.0035297,18.6891045 99.1346822,24.967134 91.1716158,18.2898544 C91.1716158,18.2898544 102.362471,19.0528799 103.868869,14.4105501 C103.868869,14.4105501 103.22353,10.149733 106.737974,11.2307396 C106.737974,11.2307396 105.948943,14.6011452 111.544552,13.0750942 C111.544552,13.0750942 112.261919,13.2021576 110.898485,15.428025 C110.898485,15.428025 108.244736,18.4169178 120.510914,17.2085253 C120.510914,17.2085253 127.756249,18.2898544 128.186597,17.1449936 C128.186597,17.1449936 128.995999,15.7002116 127.264424,15.5641183 C127.264424,15.5641183 125.604512,16.1275188 122.735043,13.4562845 C122.735043,13.4562845 121.873984,12.5661955 119.148207,14.4740818 C119.148207,14.4740818 115.274716,14.6014677 117.498481,11.357803 C117.498481,11.357803 119.937602,9.70468856 123.595738,9.76789777 L132.204144,10.149733 C132.204144,10.149733 135.86228,10.2132647 135.360268,12.9477083 L141.098842,18.7984306 C141.098842,18.7984306 148.918216,18.0989368 151.930649,18.7348989 C151.930649,18.7348989 151.500665,22.2962221 152.433025,24.521767 C152.433025,24.521767 154.540381,28.6793854 160.480851,25.2970474 C160.480851,25.2970474 157.382931,28.6555206 160.754411,31.2629008 C160.754411,31.2629008 163.838871,33.1072553 167.138687,31.199369 C167.138687,31.199369 170.797187,31.7717994 175.316382,36.0326165 C175.316382,36.0326165 177.181464,38.1946297 178.328815,40.7381556 C178.328815,40.7381556 178.615834,43.6635167 180.050569,44.9354409 C180.050569,44.9354409 185.143803,48.3058466 187.797916,51.6762522 C187.797916,51.6762522 190.523692,54.8560627 190.452028,56.7004173 C190.452028,56.7004173 189.304314,57.2089935 188.371591,56.2550503 C188.371591,56.2550503 185.215467,51.0406126 182.633018,50.5317139 C182.633018,50.5317139 180.337588,50.1502011 180.696272,52.2486826 C180.696272,52.2486826 182.058978,55.4920248 185.502122,58.1629366 C185.502122,58.1629366 184.498099,59.5622467 182.704681,57.5905062 C182.704681,57.5905062 181.772322,54.7289993 179.835213,55.1740437 C179.835213,55.1740437 175.435701,54.707392 181.748677,63.6956779 C181.748677,63.6956779 189.251566,70.610637 189.899816,75.1236459 C189.899816,75.1236459 188.826312,77.4320722 186.913211,76.0753316 C186.913211,76.0753316 186.76479,71.4584789 184.352225,70.205582 C184.352225,70.205582 182.705045,70.3097482 185.382804,79.467022 L187.541453,89.4244083 C187.541453,89.4244083 192.04828,92.5519744 190.437114,94.3192525 C190.437114,94.3192525 188.06129,100.15643 186.530882,96.4254738 C186.530882,96.4254738 185.405358,94.031586 185.6811,92.4303934 C185.6811,92.4303934 185.57415,78.61918 182.322352,75.0578567 C182.322352,75.0578567 177.540147,70.8183244 179.453248,77.6017051 C179.453248,77.6017051 183.417683,87.9925261 182.128823,90.9159522 C182.128823,90.9159522 180.696272,91.1684666 178.974518,85.826643 C178.974518,85.826643 177.970131,80.8660096 175.531374,79.7214713 C175.531374,79.7214713 173.092253,78.3224837 171.944538,75.5241859 C171.944538,75.5241859 169.218761,71.5813499 168.071046,72.5988248 C168.071046,72.5988248 165.908032,74.3993199 172.231558,79.339636 C172.231558,79.339636 174.096639,85.0632949 176.965744,88.3701689 C176.965744,88.3701689 180.552944,94.3479546 180.26556,95.8743281 C180.26556,95.8743281 179.404865,96.3832268 178.54417,95.6198788 C178.54417,95.6198788 172.805233,95.6198788 177.539783,99.0541386 C177.539783,99.0541386 180.26556,98.9270752 180.983291,103.887064 C180.983291,103.887064 180.696272,107.957286 182.561354,106.558298 C182.561354,106.558298 184.856783,102.996975 180.983291,97.0191889 C180.983291,97.0191889 182.991701,97.5277651 185.143803,99.4356514 L186.434845,98.7996893 C186.434845,98.7996893 185.143803,99.9442276 186.721865,102.869911 C186.721865,102.869911 188.079115,111.586978 187.831019,114.859667 C187.831019,114.859667 188.509826,117.310637 190.843816,117.530579 C190.843816,117.530579 192.31711,117.623458 193.321497,118.513869 C193.321497,118.513869 195.903946,115.461445 193.249469,112.727001 C193.249469,112.727001 188.084935,109.420127 192.962813,106.113253 C192.962813,106.113253 196.549649,105.476969 196.405958,108.784165 C196.405958,108.784165 195.97561,110.946178 195.545262,112.599615 C195.545262,112.599615 195.903946,114.062135 198.414731,113.998603 C198.414731,113.998603 201.857875,113.871217 201.427164,117.814376 C201.427164,117.814376 198.486395,128.052978 198.055684,130.97834 C198.055684,130.97834 197.553672,135.493283 201.857875,133.33127 C201.857875,133.33127 207.094437,130.596827 205.014,138.164518 C205.014,138.164518 204.727344,144.651202 205.014,147.703627 C205.014,147.703627 203.850279,149.343196 203.212942,150.685425 C203.212942,150.685425 202.359887,152.218893 206.090414,150.183621 C206.090414,150.183621 208.170488,149.738577 204.36866,152.981919 C204.36866,152.981919 200.360571,155.406444 198.060413,158.582384 C198.060413,158.582384 194.32552,164.93749 188.371591,166.527395 C188.371591,166.527395 179.620221,168.307896 178.257151,171.042984 C178.257151,171.042984 183.924424,172.123668 189.447642,168.117301 C189.447642,168.117301 186.721865,171.042984 183.996088,172.950548 C183.996088,172.950548 182.274334,173.077612 180.8396,172.823162 C180.8396,172.823162 175.387682,173.077612 178.042159,174.413068 C178.042159,174.413068 179.978905,174.985498 181.126619,174.731049 C181.126619,174.731049 182.417662,174.476599 181.341611,176.575403 C181.341611,176.575403 177.826439,182.489657 174.455323,183.4436 C174.455323,183.4436 172.948561,183.761581 171.585854,185.733322 C171.585854,185.733322 167.497007,189.739367 166.420956,188.912487 C166.420956,188.912487 166.49262,186.178044 164.627902,186.814006 C164.627902,186.814006 159.319313,187.704417 155.158438,189.739367 C155.158438,189.739367 150.495915,191.583399 146.765751,191.583722 C146.765751,191.583722 138.516029,192.283216 135.144549,194.50876 C135.144549,194.50876 112.30921,191.562759 99.3969651,185.372771 C99.3969651,185.372771 95.9534572,182.829245 93.1800256,183.761904 C93.1800256,183.761904 89.3538249,184.27048 86.8670491,182.065897 C86.8670491,182.065897 83.7112885,176.554763 80.7461467,175.452472 C80.7461467,175.452472 78.4499897,175.283162 76.6332902,173.502016 C76.6332902,173.502016 73.7638216,167.566155 71.0860631,169.940693 C71.0860631,169.940693 68.0248843,172.484541 69.1729628,176.215498 C69.1729628,176.215498 69.7466383,177.06334 67.8335379,178.42008 C67.8335379,178.42008 65.5384723,178.759346 65.8251282,174.265042 C65.8251282,174.265042 65.729455,168.075376 69.1729628,165.192262 C69.1729628,165.192262 73.5728389,162.478781 69.650965,159.002274 C69.650965,159.002274 61.0432868,152.049583 64.7734505,148.573076 L66.9728429,150.523209 L69.172599,148.573076 C69.172599,148.573076 70.0332941,147.81005 72.6161069,151.455868 C72.6161069,151.455868 74.1461506,156.034988 77.0156192,156.034988 C77.0156192,156.034988 79.024029,154.932697 75.2942291,151.116924 L84.2846002,158.069938 C84.2846002,158.069938 82.9462666,159.934932 85.9106809,161.207179 C85.9106809,161.207179 88.7805133,160.528648 90.6932498,162.393964 C90.6932498,162.393964 92.2236573,164.938135 95.2841086,164.768502 C95.2841086,164.768502 98.5359062,165.107768 100.735662,167.397167 C100.735662,167.397167 104.370517,169.60175 104.274843,171.721516 C104.274843,171.721516 102.649126,172.823485 100.640353,171.212617 C100.640353,171.212617 96.6129839,167.902196 94.7086142,168.323698 C94.4368732,168.384005 94.2080578,168.520421 94.0407207,168.753908 C92.7016596,170.618902 93.7540648,171.382573 97.6752111,173.841605 C97.6752111,173.841605 117.282762,183.931859 121.969294,180.624985 C121.969294,180.624985 124.528097,180.645303 125.1738,181.599246 C125.1738,181.599246 124.671425,183.4436 122.16064,183.252683 C122.16064,183.252683 119.004516,184.524607 123.595374,184.906442 C123.595374,184.906442 140.022427,187.767949 138.301401,183.69805 C138.301401,183.69805 136.794639,182.744107 138.731385,181.790163 C138.731385,181.790163 138.803049,178.801271 134.283854,180.264112 C134.283854,180.264112 130.195007,181.853695 124.743089,180.073195 C124.743089,180.073195 122.734679,179.437233 124.599761,178.928334 C124.599761,178.928334 147.196099,180.136726 154.010723,175.494397 C154.010723,175.494397 157.023519,174.349858 159.534668,172.251054 C159.534668,172.251054 162.475437,170.4067 170.653132,170.025187 C170.653132,170.025187 181.556967,166.972762 187.223876,162.966395 C187.223876,162.966395 189.447642,161.376489 186.865556,161.503553 C186.865556,161.503553 178.615834,161.94892 173.235581,165.573775 C173.235581,165.573775 178.400842,158.832641 186.219853,152.282425 C186.219853,152.282425 192.030091,146.62262 191.312724,140.262999 C191.312724,140.262999 191.599743,137.337638 192.173782,134.539663 C192.173782,134.539663 194.32552,127.035504 192.675794,129.643206 C192.675794,129.643206 185.57415,141.789373 182.776345,145.032393 C182.776345,145.032393 181.772322,146.431703 180.624244,145.796063 C180.624244,145.796063 178.615834,145.541614 174.096639,148.912019 C174.096639,148.912019 163.838507,156.606774 161.184394,155.398381 C161.184394,155.398381 161.830098,154.572146 163.766843,153.744944 C163.766843,153.744944 177.898467,146.304639 177.46812,142.743316 C177.46812,142.743316 177.109436,140.00855 179.118209,138.100986 C179.118209,138.100986 180.480916,136.76553 179.333201,135.747733 C179.333201,135.747733 179.046182,135.366543 179.907241,134.094296 C179.907241,134.094296 181.269947,130.088251 179.476529,131.805219 C179.476529,131.805219 177.109436,133.522188 177.46812,131.168935 C177.46812,131.168935 179.763549,126.971972 181.700295,126.781377 C181.700295,126.781377 183.852396,126.653668 183.780732,125.445598 C183.780732,125.445598 184.354408,118.958914 185.000475,115.970021 C185.000475,115.970021 183.278721,109.738108 182.130642,113.172046 C182.130642,113.172046 182.130642,114.82516 182.274334,116.351856 C182.274334,116.351856 182.20267,118.322952 179.978905,122.202256 C179.978905,122.202256 177.898467,125.954174 175.961721,129.324903 C175.961721,129.324903 167.927355,143.824323 153.580739,150.565456 C153.580739,150.565456 149.3482,151.900912 147.052771,151.900912 C147.052771,151.900912 156.808528,144.269367 156.163188,141.661987 C156.163188,141.661987 152.146005,138.22805 142.102865,146.368171 C142.102865,146.368171 129.764659,153.618203 119.004516,150.311329 C119.004516,150.311329 106.235962,146.495557 103.151138,144.142626 C103.151138,144.142626 101.931759,143.188683 104.657536,141.789695 C104.657536,141.789695 107.527005,139.245524 99.564666,140.326853 C99.564666,140.326853 95.6908106,139.054929 88.7324948,131.868751 C88.7324948,131.868751 78.1877069,119.722584 86.4374292,110.374071 C86.4374292,110.374071 95.3324908,98.9270752 109.392087,102.996975 C109.392087,102.996975 114.556985,105.031924 112.333219,107.130728 C112.333219,107.130728 111.459428,109.027005 108.45318,107.251987 C108.45318,107.251987 94.9738073,101.025557 90.956624,110.437602 C90.956624,110.437602 86.724085,116.352179 87.656444,121.884275 C87.656444,121.884275 89.8674773,121.936519 89.5153417,124.041128 C89.5153417,124.041128 88.0151276,128.434814 95.1167714,132.695631 C95.1167714,132.695631 96.7668614,131.996137 96.9101893,133.649574 C96.9101893,133.649574 103.581486,141.98029 115.346016,138.418967 C115.346016,138.418967 125.101773,133.077144 114.556985,126.018029 C114.556985,126.018029 111.544188,124.746104 109.822434,126.018029 C109.822434,126.018029 111.329196,127.73532 109.607079,131.169257 C109.607079,131.169257 108.818411,133.776637 111.543824,134.667049 C111.543824,134.667049 110.396473,136.701676 108.101044,134.667049 C108.101044,134.667049 102.792454,129.834124 99.564666,130.660359 C99.564666,130.660359 97.1972089,130.088251 97.3409006,128.052978 C97.3409006,128.052978 96.2648499,124.173997 102.218779,121.820743 C102.218779,121.820743 107.527005,120.549142 104.514208,117.114882 C104.514208,117.114882 102.936146,117.114882 102.362107,115.588831 C102.362107,115.588831 101.214392,112.40902 98.2015957,113.808008 C98.2015957,113.808008 95.475455,114.825483 94.3281041,113.80833 C94.3281041,113.80833 92.8933698,112.536406 91.3153075,113.808008 C91.3153075,113.808008 93.3953813,107.639627 103.509822,108.593248 C103.509822,108.593248 107.239985,109.101824 106.665946,112.40902 C106.665946,112.40902 106.235962,115.970021 111.400496,115.206995 C111.400496,115.206995 118.143457,112.154571 121.443273,112.154571 C121.443273,112.154571 123.093363,112.472552 122.304332,115.206995 C122.304332,115.206995 116.49373,122.26611 126.680199,122.392851 C126.680199,122.392851 137.224986,125.636516 135.646924,116.860432 C135.646924,116.860432 132.634128,117.623458 133.136139,114.889014 C133.136139,114.889014 133.92517,112.027185 131.91676,110.628197 C131.91676,110.628197 127.756249,106.685361 126.751862,102.996975 C126.751862,102.996975 122.088976,93.0128212 127.254238,83.9826109 C127.254238,83.9826109 126.82389,82.201788 125.46082,82.1382563 C125.46082,82.1382563 121.300309,80.6118827 119.076543,77.4959264 C119.076543,77.4959264 117.093598,76.0901664 114.891659,75.3123061" id="Fill-22" fill="#71E721"></path>
                            <path d="M68.2950052,113.124342 C68.2950052,113.124342 71.1108365,115.18092 70.6777795,118.522614 C70.6777795,118.522614 69.5947253,125.463808 67.9701439,123.278817 C67.9701439,123.278817 65.6958397,119.037247 68.2950052,113.124342" id="Fill-24" fill="#71E721"></path>
                            <path d="M74.8528785,94.4242547 C74.8528785,94.4242547 70.9266704,100.591987 66.5646676,106.885788 C66.5646676,106.885788 64.0925834,111.291128 63.2202566,115.067409 C63.2202566,115.067409 62.0570313,118.843369 59.584947,119.976381 C59.584947,119.976381 59.5941643,113.187247 57.4085543,118.092071 C57.4085543,118.092071 54.3502487,124.759286 65.5467072,134.703299 C65.5467072,134.703299 68.3093213,138.101377 65.9828706,138.353512 C65.9828706,138.353512 58.4217217,134.073919 55.6591076,126.647107 C55.6591076,126.647107 54.2138324,123.130941 52.6100194,122.245596 C52.6100194,122.245596 49.3588876,108.107844 53.6722229,102.147245 C53.6722229,102.147245 55.3682091,96.6899589 59.2940485,95.3054506 C59.2940485,95.3054506 65.1105438,92.5364338 62.7840932,98.8299148 C62.7840932,98.8299148 58.5382286,101.749893 61.4571683,102.476617 C61.4571683,102.476617 71.654101,94.4242547 73.2534898,93.0397464 C73.2534898,93.0397464 76.4906113,91.8863085 74.8528785,94.4242547" id="Fill-26" fill="#71E721"></path>
                            <path d="M107.632508,160.843431 C105.182984,161.175712 107.632508,163.833962 107.632508,163.833962 C108.979801,164.387875 114.123544,170.257955 114.123544,170.257955 C117.674932,170.146973 122.083855,171.698062 122.083855,171.698062 C126.247715,173.581099 139.107441,171.698062 139.107441,171.698062 C144.496247,169.483075 156.86548,167.821337 156.86548,167.821337 C170.214596,166.049281 178.910094,158.960394 178.910094,158.960394 C181.481966,157.409637 180.624798,153.200963 180.624798,153.200963 C180.50245,150.764345 183.319017,146.333707 183.319017,146.333707 C184.66631,143.896757 181.971724,145.226214 181.971724,145.226214 C156.130659,160.6218 150.007033,157.077356 140.515724,156.883636 C132.467603,156.719489 124.288316,158.185181 124.288316,158.185181 C119.634331,158.849744 115.715533,155.969863 115.715533,155.969863 C112.286493,154.640738 109.836969,157.077688 109.836969,157.077688 C109.836969,157.077688 110.082032,157.742251 114.000829,158.074532 C114.000829,158.074532 119.466057,160.501182 123.523,160.954081 C126.905747,161.331885 133.094037,162.029675 137.852,161.203292 C140.350757,160.769 143.400997,160.31012 147.312813,160.068219 C150.78631,159.853565 159.998387,158.126368 161.222965,159.455493 C161.222965,159.455493 163.048259,160.407811 160.294519,161.729625 C156.695001,163.457155 146.455278,165.717 140.454367,165.827649 C140.454367,165.827649 129.802041,167.075033 125.084494,165.938299 C120.654261,164.871012 107.632508,160.843431 107.632508,160.843431" id="Fill-28" fill="#459223"></path>
                            <path d="M96.2178069,172.438187 C96.2178069,172.438187 101.839179,173.069184 105.103202,174.804426 C105.103202,174.804426 108.938066,176.855167 106.204629,172.438187 C106.204629,172.438187 104.196529,169.756449 108.18589,171.491691 C108.18589,171.491691 127.226023,178.590409 135.38608,178.27491 C135.38608,178.27491 142.300006,177.328414 144.283081,178.905907 C144.283081,178.905907 146.628825,180.167901 149.711513,180.010152 C149.711513,180.010152 149.916059,181.429895 144.283081,181.272146 C144.283081,181.272146 134.298073,179.852403 130.308711,180.325651 C130.308711,180.325651 128.132696,181.429895 131.03405,183.007388 L132.484727,184.74263 L127.226023,184.74263 C127.226023,184.74263 115.801944,177.170665 105.465871,178.590409 C105.465871,178.590409 104.015195,179.221406 101.295176,177.170665 C101.295176,177.170665 93.1351187,173.069184 96.2178069,172.438187" id="Fill-30" fill="#459223"></path>
                            <path d="M67.5130104,137.079196 C67.5130104,137.079196 67.3151013,133.311839 70.6795556,133.475637 C70.6795556,133.475637 75.2314644,133.803233 75.6272825,139.863765 C75.6272825,139.863765 78.0021915,147.070884 80.7729185,148.872663 C80.7729185,148.872663 81.3666458,152.148627 78.5959187,154.441801 C78.5959187,154.441801 76.0231007,156.24358 70.4816465,148.708865 C70.4816465,148.708865 63.1590107,143.139728 67.5130104,137.079196" id="Fill-32" fill="#459223"></path>
                            <path d="M98.7262301,126.418818 C102.07246,133.263329 108.817808,139.257894 108.817808,139.257894 C111.371068,140.220824 111.73582,141.968864 111.73582,141.968864 C113.559577,145.536201 123.529328,148.8872 123.529328,148.8872 C130.581068,150.706176 130.702895,152.335134 130.702895,152.335134 C130.702895,153.857206 127.220613,153.0599 127.220613,153.0599 C125.318799,152.417946 120.125103,151.882877 120.125103,151.882877 C110.88449,151.134038 106.994051,148.673109 106.994051,148.673109 C104.927005,147.389201 102.738496,147.175109 102.738496,147.175109 C99.0909815,147.496086 99.0909815,146.319385 99.0909815,146.319385 C98.4829409,145.035478 96.9024729,143.829567 96.9024729,143.829567 C95.2001779,142.944634 93.2549584,139.792641 93.2549584,139.792641 C92.0392419,134.228828 88.3917275,133.266218 88.3917275,133.266218 C84.744213,132.089196 84.8656752,127.167657 84.8656752,127.167657 C84.0143454,121.069097 85.8381026,108.444434 85.8381026,108.444434 C85.8381026,106.732664 86.6894325,105.769734 86.6894325,105.769734 C89.3641548,102.238988 93.0116692,82.6590772 93.0116692,82.6590772 C94.592502,79.1283315 96.9024729,77.9516303 96.9024729,77.9516303 C99.333906,76.774608 104.075675,72.1740464 104.075675,72.1740464 C106.628935,70.1409788 103.710923,69.7131167 103.710923,69.7131167 C97.753438,69.0711629 91.3093742,72.2809317 91.3093742,72.2809317 C84.3790968,76.025769 81.4005365,81.6961466 81.4005365,81.6961466 C79.759155,84.9861596 76.8411435,83.7824963 76.8411435,83.7824963 C74.1966955,83.5417636 72.2817504,88.1156842 72.2817504,88.1156842 C70.4579932,89.6403244 70.6403689,87.7947073 70.6403689,87.7947073 C69.272551,85.3873807 68.1863212,89.3835429 68.0871088,90.2020339 C67.7664923,92.8350073 68.1502108,95.2108782 67.9047331,96.8623042 C67.2003981,101.591578 66.7192909,113.873758 66.7192909,113.873758 C66.9016666,116.923038 65.8074123,116.842794 65.8074123,116.842794 C64.5307823,116.842794 64.2572187,115.398398 64.2572187,115.398398 L64.1660308,105.287947 C63.2541522,103.201598 62.3422736,104.645994 62.3422736,104.645994 C58.6035713,107.855762 60.5185164,115.799619 60.5185164,115.799619 C62.5246493,117.885969 61.6911923,125.188193 61.6911923,125.188193 C61.4960503,129.039916 63.3453401,132.410173 63.3453401,132.410173 C64.8043458,135.619942 62.06871,137.786536 62.06871,137.786536 C60.79208,140.193862 63.1629643,143.162898 63.1629643,143.162898 C64.713158,145.409737 65.655311,150.706176 65.655311,150.706176 C69.5457499,165.04325 77.5706464,171.248697 77.5706464,171.248697 C80.7319471,173.388649 80.7199103,169.108744 80.7199103,169.108744 C79.6143487,167.075997 73.9490293,162.261344 73.9490293,162.261344 C70.9318053,158.94148 68.9843974,154.526443 68.5886421,152.631716 C68.4609791,152.022823 68.9034226,151.721426 69.1813632,151.775992 C71.6810048,152.267729 74.4093456,156.817576 76.1572345,159.372231 C76.8582868,160.39711 77.3273572,161.940367 77.3273572,161.940367 C78.2997845,163.438366 80.7199103,162.368229 80.7199103,162.368229 C82.6538225,164.936044 90.9446228,172.639168 90.9446228,172.639168 C97.1453973,177.667913 103.346172,179.48721 103.346172,179.48721 C107.236976,181.306186 105.048467,181.734048 105.048467,181.734048 C102.98142,182.482887 108.087941,183.124841 108.087941,183.124841 C110.641201,184.408749 112.464958,183.338933 112.464958,183.338933 C113.559212,182.696979 114.774929,181.199622 114.774929,181.199622 C119.759987,182.804506 126.812091,182.322078 126.812091,182.322078 C122.556536,185.049419 124.258831,186.656229 124.258831,186.656229 C127.784883,188.475205 130.70253,183.660231 130.70253,183.660231 C133.25579,186.013954 140.915935,184.302184 140.915935,184.302184 C148.81864,180.557347 157.32975,182.322078 157.32975,182.322078 C157.694502,185.905464 161.584941,183.981207 161.584941,183.981207 C164.016739,180.23637 159.153508,181.092416 159.153508,181.092416 L157.694502,179.487531 C163.651987,177.668555 173.621738,170.559238 173.621738,170.559238 C175.932074,168.799001 175.932074,167.718593 175.932074,167.718593 C175.080744,167.183845 171.43323,169.430362 171.43323,169.430362 C168.393756,172.640131 163.408698,172.961108 163.408698,172.961108 C160.369224,172.854223 156.113669,175.284339 156.113669,175.284339 C153.074195,176.965937 151.858479,175.8499 151.858479,175.8499 C151.007149,175.207946 148.940467,174.314668 148.940467,174.314668 C145.900629,174.491205 146.873421,173.174237 146.873421,173.174237 C146.873421,173.174237 147.359634,170.39233 166.569999,167.182561 C166.569999,167.182561 173.135525,165.684883 177.512542,160.977115 C177.512542,160.977115 181.403346,159.693529 180.673843,162.475114 C180.673843,162.475114 178.849721,166.968791 181.889559,164.29409 C181.889559,164.29409 184.321357,163.54493 184.19953,160.121391 C184.19953,160.121391 185.658536,156.376554 188.576547,154.02283 C188.576547,154.02283 194.169646,151.990405 194.412571,154.77199 C194.412571,154.77199 193.926357,158.195851 189.670802,160.228597 C189.670802,160.228597 188.576547,165.577998 190.522132,166.861905 C190.522132,166.861905 191.251635,170.820834 185.05086,172.104742 C185.05086,172.104742 174.472703,175.10074 178.971548,177.882326 C178.971548,177.882326 183.105276,181.627484 170.643178,181.092416 C170.643178,181.092416 166.691461,181.412108 169.48801,182.322078 C169.48801,182.322078 176.53975,183.980886 172.04127,185.478886 C172.04127,185.478886 169.609472,186.334931 168.637045,187.297862 C168.637045,187.297862 166.691461,187.83293 164.989531,187.297862 C164.989531,187.297862 164.017103,185.479849 160.247762,190.508272 C160.247762,190.508272 140.551184,190.936455 136.417091,189.545342 C136.417091,189.545342 126.204051,188.492858 133.134328,190.570221 C133.134328,190.570221 127.177207,190.079768 123.407866,194.359674 C123.407866,194.359674 123.529328,195.215398 122.191785,195.322605 C122.191785,195.322605 119.881814,194.573766 118.666097,193.610835 C118.666097,193.610835 108.209768,187.833572 100.914739,187.405389 C100.914739,187.405389 102.617034,181.199301 94.9572534,184.944138 C94.9572534,184.944138 92.890207,186.442137 91.7959527,184.516276 C91.7959527,184.516276 89.9484866,178.203945 80.7199103,180.557668 C80.7199103,180.557668 77.6224411,175.100098 73.9490293,176.063029 C73.9490293,176.063029 72.6465019,166.995432 72.9200655,175.661808 C72.9200655,175.661808 66.3545395,168.921293 62.06871,171.007643 C62.06871,171.007643 59.4242621,174.056923 57.9652563,171.408864 C57.9652563,171.408864 60.8832678,169.723735 56.2326869,167.557141 C56.2326869,167.557141 55.8679355,167.075676 58.3300077,166.433722 C58.3300077,166.433722 62.1598979,166.032501 53.4970511,159.93394 C53.4970511,159.93394 49.6671609,155.199531 48.5729066,155.680997 C48.5729066,155.680997 47.022713,156.139994 48.0257794,157.194403 C48.0257794,157.194403 49.4847852,157.767347 49.3935974,161.05736 C49.3935974,161.05736 49.3024095,162.100534 52.4027968,162.421511 C52.4027968,162.421511 54.9560569,164.507861 51.2173546,165.310303 C51.2173546,165.310303 48.4817187,164.989326 46.2020222,162.902977 L41.0043141,157.847591 C41.0043141,157.847591 38.7246176,155.761241 41.0043141,154.316845 L41.5514413,147.415842 C41.5514413,147.415842 36.0801697,143.483875 34.6211639,141.397526 C34.6211639,141.397526 37.4479876,139.39142 38.451054,137.465559 C38.451054,137.465559 40.0924355,133.663909 33.891661,132.475331 C33.891661,132.475331 38.2686783,132.089196 37.9951147,128.55845 C37.9951147,128.55845 37.3567997,125.669658 33.891661,125.027705 C33.891661,125.027705 31.9767159,122.620378 32.1590916,117.404504 C32.1590916,117.404504 32.5238431,114.997177 33.6180974,112.75066 C33.6180974,112.75066 35.5330425,110.744554 35.5330425,109.13967 C35.5330425,109.13967 34.7123517,104.164528 35.4418546,100.553538 C35.4418546,100.553538 35.9889818,97.0227927 37.3567997,95.8993736 C37.3567997,95.8993736 38.451054,96.2203505 38.3598662,97.3437695 C38.3598662,97.3437695 36.6272968,102.399155 37.9039269,104.164528 C37.9039269,104.164528 39.0893691,105.689168 40.3659991,104.164528 C40.3659991,104.164528 41.8250049,101.355981 41.5514413,97.7449906 C41.5514413,97.7449906 43.1928228,97.4240138 42.9192592,99.6708519 C42.9192592,99.6708519 41.4602535,101.997934 43.0104471,102.800377 C43.0104471,102.800377 45.4721546,105.555642 47.9039525,96.3538768 C47.9039525,96.3538768 48.092529,87.7947073 50.9160699,84.5849385 C50.9160699,84.5849385 53.2537619,83.7288932 53.4966863,85.6547544 C53.4966863,85.6547544 50.2810376,88.6504317 50.9160699,90.7903846 C50.9160699,90.7903846 52.0380453,91.6464299 56.9012763,84.3708469 L62.6679966,76.8814933 C62.6679966,76.8814933 62.0457307,72.387817 64.3367345,72.1737254 C64.3367345,72.1737254 70.0319635,69.820002 68.3300333,73.0297708 C68.3300333,73.0297708 67.3287906,75.1694027 66.0054724,76.025448 C66.0054724,76.025448 56.1717734,84.7987091 55.685195,88.8645233 C55.685195,88.8645233 55.685195,94.2142449 59.3327094,88.8645233 C59.3327094,88.8645233 64.26269,80.0912622 67.1777835,78.9678431 C67.1777835,78.9678431 68.2694846,79.6097968 65.5338487,83.9429847 C65.5338487,83.9429847 62.6158372,87.6342189 63.3453401,89.7205686 C63.3453401,89.7205686 63.8924672,91.9674068 62.6158372,94.3747334 C62.6158372,94.3747334 61.5215829,98.3869444 62.9805886,98.3869444 C62.9805886,98.3869444 65.6458274,98.4607691 65.1690973,91.8069183 C65.1690973,91.8069183 68.0871088,87.1527536 68.634236,83.4615194 C68.634236,83.4615194 70.6403689,77.6839355 71.916999,76.8814933 C71.916999,76.8814933 72.8288776,77.0419818 72.8288776,78.0049124 C72.8288776,78.0049124 76.476392,81.2146812 75.9292649,76.400028 C75.9292649,76.400028 74.1055077,74.9556321 77.2058949,71.4248864 C77.2058949,71.4248864 80.3062822,69.0175597 78.1177735,68.8570713 C78.1177735,68.8570713 74.1055077,69.820002 72.2817504,75.7580743 C72.2817504,75.7580743 71.3698718,74.3136783 71.3698718,71.9063517 L70.0932418,71.5853748 C70.0932418,71.5853748 71.7346233,71.5853748 72.8288776,68.8570713 C72.8288776,68.8570713 78.2158917,62.5980221 80.7199103,60.6721608 C80.7199103,60.6721608 82.0457818,58.7462995 80.7199103,57.3019036 C80.7199103,57.3019036 79.8503429,56.4192171 79.8503429,55.2957981 C79.8503429,55.2957981 76.0204527,55.7772634 75.7468892,58.9870322 C75.7468892,58.9870322 76.6587678,63.9621739 71.1874961,63.3202201 C71.1874961,63.3202201 68.4518603,61.7153357 70.9139325,59.7092302 C70.9139325,59.7092302 72.7376897,58.5858111 74.1966955,57.7833689 C74.1966955,57.7833689 75.0173863,56.6599498 73.3760048,55.2957981 C73.3760048,55.2957981 71.0963082,53.450181 74.1966955,51.2033428 C74.1966955,51.2033428 83.4066695,46.3886896 85.7775539,44.7838052 C85.7775539,44.7838052 89.3338804,42.2159901 85.048051,41.1728153 C85.048051,41.1728153 79.759155,39.969152 86.5070567,36.3581621 C86.5070567,36.3581621 91.3400134,32.4261953 93.3461463,30.3398455 C93.3461463,30.3398455 95.2610914,29.9565991 96.6289093,29.4661465 C96.6289093,29.4661465 98.2702908,28.9756938 94.4404006,28.1732516 C94.4404006,28.1732516 92.7990191,27.2905651 97.5407879,27.3708094 C97.5407879,27.3708094 101.826617,28.0827361 105.56532,27.3656737 C105.56532,27.3656737 112.495597,25.4449481 117.419742,27.7720305 C117.419742,27.7720305 124.258831,31.5435088 127.085655,30.5805782 C127.085655,30.5805782 124.258831,26.7288556 117.875681,26.1671461 C117.875681,26.1671461 121.705571,25.8461692 124.805958,26.1671461 C124.805958,26.1671461 125.991401,27.0498325 126.720903,28.0127631 C126.720903,28.0127631 130.368418,30.9015551 129.638915,28.5744727 C129.638915,28.5744727 128.818224,27.1300767 127.906346,26.6486114 C127.906346,26.6486114 126.903279,26.0869018 129.091788,25.3647039 C129.091788,25.3647039 135.566126,23.599331 138.39295,24.8832385 C138.39295,24.8832385 139.578392,25.5251923 141.858088,25.043727 C141.858088,25.043727 147.32936,24.8029943 147.420548,25.9264134 C147.420548,25.9264134 145.414415,27.611542 147.055796,28.2534958 C147.055796,28.2534958 151.068062,30.6608224 155.171516,31.7039973 C155.171516,31.7039973 159.457345,33.1483932 161.82823,35.234743 C161.82823,35.234743 167.573065,39.4074424 171.311767,39.8889077 C171.311767,39.8889077 183.713316,54.5199969 187.482293,65.6473025 C187.482293,65.6473025 187.847045,69.1780482 190.278842,70.1409788 C190.278842,70.1409788 193.075392,71.9596338 193.075392,74.7415405 C193.075392,74.7415405 191.129808,79.9840559 192.224062,82.3381003 C192.224062,82.3381003 193.56197,83.7288932 193.440143,85.868846 C193.440143,85.868846 191.008345,91.2182467 194.412571,91.2182467 C194.412571,91.2182467 198.181912,91.325453 200.127131,88.3294548 C200.127131,88.3294548 200.370421,87.4737304 202.558929,87.687501 C202.558929,87.687501 204.26086,88.757638 200.856634,91.4323383 C200.856634,91.4323383 196.479617,95.3909462 192.224062,95.2840609 C192.224062,95.2840609 187.482293,94.5352218 187.482293,98.9216919 C187.482293,98.9216919 187.968872,108.122815 183.105276,108.230021 L183.105276,105.769413 L180.309091,105.769413 C180.309091,105.769413 179.214837,105.769413 180.187264,102.024575 C180.187264,102.024575 182.4976,98.2797381 180.673843,96.6748537 C180.673843,96.6748537 178.606796,96.2469915 178.242045,100.740668 L177.512542,91.325453 C177.512542,91.325453 179.701051,90.8972699 178.728258,88.4366611 C178.728258,88.4366611 176.418288,87.2596389 176.53975,85.0128007 C176.53975,85.0128007 177.39108,82.5518709 175.324033,80.9469865 C175.324033,80.9469865 173.500641,78.9142399 173.743565,76.2395396 C173.743565,76.2395396 173.014062,72.8156792 174.59453,71.5317717 C174.59453,71.5317717 176.418288,71.7455423 176.53975,73.8854951 C176.53975,73.8854951 176.726138,78.2267075 178.239127,79.0259399 C178.454695,79.1398867 178.697984,79.1816137 178.971548,79.1283315 C181.160056,78.7001484 181.038594,77.6303324 180.309091,73.8854951 C180.309091,73.8854951 175.081109,56.5527435 169.731299,56.017996 C169.731299,56.017996 168.120192,54.5736001 168.393756,53.6106694 C168.393756,53.6106694 170.035137,52.727983 171.494143,54.2526232 C171.494143,54.2526232 174.412155,55.2155538 171.767707,52.4070061 C171.767707,52.4070061 163.378423,41.4135479 161.554666,44.9442936 C161.554666,44.9442936 161.82823,46.3886896 159.913285,45.9072243 C159.913285,45.9072243 157.724776,47.7528413 161.645854,49.3577258 C161.645854,49.3577258 165.384556,50.6416333 167.573065,54.8143327 C167.573065,54.8143327 168.393756,56.3389729 166.843562,55.6167749 C166.843562,55.6167749 153.347759,42.2159901 145.687978,41.3333037 C145.687978,41.3333037 142.952343,40.3703731 139.851955,40.2901289 C139.851955,40.2901289 136.66038,39.8086635 131.189109,35.4754756 C131.189109,35.4754756 122.070322,31.3027762 115.595984,30.6608224 C115.595984,30.6608224 113.042724,30.4200897 114.775294,31.7842415 C114.775294,31.7842415 120.337753,36.1174294 126.356152,36.8396274 C126.356152,36.8396274 118.240432,38.2037791 108.574519,37.9630465 C108.574519,37.9630465 100.823551,38.2840233 96.7200972,42.6974555 C96.7200972,42.6974555 94.4404006,44.3825841 92.0695163,45.8269801 C92.0695163,45.8269801 85.3216146,49.3577258 88.2396261,48.6355278 C88.2396261,48.6355278 101.461866,44.9442936 105.56532,44.4628283 C105.56532,44.4628283 107.206701,44.1418514 107.480265,45.1850263 C107.480265,45.1850263 108.574519,46.4689338 113.863415,46.8701549 C113.863415,46.8701549 125.900213,47.7528413 126.720903,49.9996795 C126.720903,49.9996795 125.717837,50.160168 123.89408,49.5984584 C123.89408,49.5984584 109.577586,46.3886896 107.297889,48.8762604 C107.297889,48.8762604 105.56532,50.8021217 102.920872,50.8823659 C102.920872,50.8823659 101.097114,50.9626102 101.097114,52.2465177 C101.097114,52.2465177 101.005927,52.6477388 99.5469209,52.9687157 C99.5469209,52.9687157 95.8082186,54.7340885 98.1791029,54.6538443 C98.1791029,54.6538443 100.914739,54.894577 98.9997937,56.1784845 C98.9997937,56.1784845 94.5315885,57.5426362 93.1637706,56.5797056 C93.1637706,56.5797056 91.7047648,55.4562865 90.8840741,56.2587287 C90.8840741,56.2587287 85.8687417,60.0302071 83.3154816,61.5548473 C83.3154816,61.5548473 79.9415308,66.4497447 83.1331059,64.9251045 C83.1331059,64.9251045 84.3185481,63.8819296 85.3216146,62.8387548 C85.3216146,62.8387548 86.7806203,61.6350915 90.9752619,60.4314282 C90.9752619,60.4314282 94.9875278,59.2277649 98.6350422,58.18459 C98.6350422,58.18459 114.136979,53.5304252 128.088721,57.3019036 C128.088721,57.3019036 131.736236,58.8265438 133.195242,60.1104513 C133.195242,60.1104513 121.523195,59.4684975 120.06419,61.474603 C120.06419,61.474603 120.155377,65.8880352 132.374551,66.3695005 C132.374551,66.3695005 145.414415,68.6965829 149.88262,76.8012491 C149.88262,76.8012491 155.262704,86.3503114 155.536267,89.5600802 C155.536267,89.5600802 155.627455,90.8439877 152.891819,90.2020339 C152.891819,90.2020339 149.244305,90.2020339 155.080328,93.9735123 C155.080328,93.9735123 156.630522,96.9425484 155.901019,105.368192 C155.901019,105.368192 153.894886,118.929144 141.949276,120.213051 C141.949276,120.213051 128.088721,122.45989 122.070322,112.028462 C122.070322,112.028462 120.246565,107.855762 123.164577,107.775518 C123.164577,107.775518 125.079522,107.067764 125.717837,109.868929 C125.717837,109.868929 129.821291,121.33647 139.122452,117.645236 C139.122452,117.645236 146.05273,116.281085 149.426681,112.269195 C149.426681,112.269195 148.058863,110.999731 149.791432,109.868929 C149.791432,109.868929 153.894886,107.936007 152.43588,101.275736 C152.43588,101.275736 150.885687,100.794271 151.979941,99.6708519 C151.979941,99.6708519 153.71251,90.6834993 143.681846,86.3503114 C143.681846,86.3503114 133.651181,84.2639616 135.292562,94.6154661 C135.292562,94.6154661 136.295629,97.1030369 138.301762,97.2635253 C138.301762,97.2635253 138.575325,95.337664 142.131652,94.1340007 C142.131652,94.1340007 144.502536,92.9303374 143.408282,90.8439877 C143.408282,90.8439877 145.596791,90.2020339 145.596791,92.769849 C145.596791,92.769849 145.505603,98.7881655 148.150051,100.072073 C148.150051,100.072073 149.244305,101.757202 147.694111,102.960865 C147.694111,102.960865 145.596791,106.010145 140.125519,104.164528 C140.125519,104.164528 135.839689,101.997934 135.292562,105.849657 C135.292562,105.849657 136.295629,106.732343 135.566126,108.016251 C135.566126,108.016251 134.015932,110.66431 136.933944,111.466752 C136.933944,111.466752 139.396016,112.349439 139.396016,113.633025 C139.396016,113.633025 139.396016,115.23791 141.310961,115.318154 C141.310961,115.318154 135.566126,118.046457 129.821291,111.787729 C129.821291,111.787729 127.815158,109.380403 130.550794,107.61503 C130.550794,107.61503 133.377617,105.608924 129.547727,103.201598 C129.547727,103.201598 123.073389,101.355981 120.976068,99.5103635 C120.976068,99.5103635 120.155377,98.3869444 122.61745,97.1030369 C122.61745,97.1030369 131.371484,95.8993736 124.988334,90.1217897 C124.988334,90.1217897 120.611317,82.1776119 115.322421,88.5971495 C115.322421,88.5971495 117.784493,89.8008128 115.504797,91.2452088 C115.504797,91.2452088 112.951536,92.6093605 113.2251,94.6154661 C113.2251,94.6154661 113.042724,99.4301193 111.036591,102.318911 C111.036591,102.318911 106.84195,111.22602 97.0848486,114.034246 C97.0848486,114.034246 96.0817821,115.398398 96.9024729,116.20084 C96.9024729,116.20084 98.4526665,119.490853 97.6319758,122.700622 C97.6319758,122.700622 97.8843838,124.696777 98.7262301,126.418818" id="Fill-34" fill="#48981D"></path>
                            <path d="M154.445409,130.21507 C154.445409,130.21507 153.566962,127.095691 156.202303,125.461731 C156.202303,125.461731 161.824364,122.193811 161.648674,124.57048 C161.648674,124.57048 160.594538,128.58111 154.445409,130.21507" id="Fill-36" fill="#48981D"></path>
                            <path d="M139.030974,138.911249 C139.030974,138.911249 145.880876,137.144183 153.091299,135.537759 C153.091299,135.537759 157.778074,134.091978 161.022764,132.16427 C161.022764,132.16427 164.447715,130.397204 166.791103,131.039773 C166.791103,131.039773 161.924067,135.367157 166.791103,133.444268 C166.791103,133.444268 173.460744,130.879131 173.641005,118.349026 C173.641005,118.349026 174.362047,114.654573 175.984392,115.778748 C175.984392,115.778748 177.606737,122.68637 174.001526,128.951422 C174.001526,128.951422 172.379181,131.993668 172.739702,133.444268 C172.739702,133.444268 164.631581,144.261925 157.689746,145.682967 C157.689746,145.682967 152.730778,148.228506 149.305827,146.943367 C149.305827,146.943367 143.717749,145.497586 149.666348,142.766666 C149.666348,142.766666 154.389175,143.248593 153.099951,141.172451 C153.099951,141.172451 141.01384,140.678315 139.030974,140.678315 C139.030974,140.678315 136.19872,139.626108 139.030974,138.911249" id="Fill-38" fill="#48981D"></path>
                            <path d="M54.4806395,36.8107986 L60.6197655,33.8279307 L57.5502025,31.7399232 C57.5502025,31.7399232 52.0249891,32.6347836 49.1600636,31.7399232 C49.1600636,31.7399232 42.2023875,32.6347836 46.2951382,36.8107986 C46.2951382,36.8107986 51.4110765,41.8816739 54.4806395,36.8107986" id="Fill-44" fill="#FFFFFF"></path>
                            <path d="M26.88019,79.0573349 C26.88019,79.0573349 32.8638838,76.9686755 36.853013,79.0573349 C36.853013,79.0573349 38.4486647,80.2757195 38.4486647,83.0605986 C38.4486647,83.0605986 38.8475776,86.8898074 41.4405116,87.0638623 C41.4405116,87.0638623 44.232902,89.8487414 39.445947,90.8930711 C39.445947,90.8930711 34.260079,92.6336205 32.0660579,87.0638623 C32.0660579,87.0638623 31.4676886,84.801148 29.2736675,83.2346535 C29.2736675,83.2346535 25.6834512,81.3200491 26.88019,79.0573349" id="Fill-54" fill="#FFFFFF"></path>
                            <path d="M20.6652994,132.420403 C20.6652994,132.420403 28.4952037,126.233747 31.2265657,128.137334 C31.2265657,128.137334 32.3191105,129.723656 29.4056577,131.309978 C29.4056577,131.309978 25.782415,134.32399 26.0460825,135.434415 C26.0460825,135.434415 28.3131129,134.006725 29.5877485,134.165358 C29.5877485,134.165358 33.3814282,131.944507 34.853086,130.516817 C34.853086,130.516817 40.877378,133.054932 37.5997436,136.544841 C37.5997436,136.544841 34.2401684,139.876117 27.7260522,137.496634 C27.7260522,137.496634 25.9459325,136.227576 23.0324798,136.227576 C23.0324798,136.227576 18.8443914,135.117151 20.6652994,132.420403" id="Fill-64" fill="#FFFFFF"></path>
                            <path d="M45.1826492,150.768196 C45.1826492,150.768196 44.011847,147.817183 47.6915112,148.145074 C47.6915112,148.145074 52.5419777,148.472964 49.5313433,152.243702 C49.5313433,152.243702 47.0224814,154.702879 45.1826492,150.768196" id="Fill-68" fill="#FFFFFF"></path>
                            <path d="M45.9240648,138.760434 C45.9240648,139.434381 45.1015671,139.9812 44.0872556,139.9812 C43.0726372,139.9812 42.2501396,139.434381 42.2501396,138.760434 C42.2501396,138.086487 43.0726372,137.539667 44.0872556,137.539667 C45.1015671,137.539667 45.9240648,138.086487 45.9240648,138.760434" id="Fill-72" fill="#FFFFFF"></path>
                            <path d="M90.0111669,33.7745337 C90.0111669,33.9993175 89.8056208,34.1814558 89.5520115,34.1814558 C89.2984023,34.1814558 89.0926857,33.9993175 89.0926857,33.7745337 C89.0926857,33.5497499 89.2984023,33.3676116 89.5520115,33.3676116 C89.8056208,33.3676116 90.0111669,33.5497499 90.0111669,33.7745337" id="Fill-74" fill="#FFFFFF"></path>
                            <path d="M93.6850921,36.2160663 C93.6850921,36.440933 93.4795193,36.6229884 93.2258515,36.6229884 C92.9721836,36.6229884 92.7666108,36.440933 92.7666108,36.2160663 C92.7666108,35.9913417 92.9721836,35.8091442 93.2258515,35.8091442 C93.4795193,35.8091442 93.6850921,35.9913417 93.6850921,36.2160663" id="Fill-76" fill="#FFFFFF"></path>
                            <path d="M94.6035734,38.6575988 C94.6035734,39.3318489 94.3979867,39.8783651 94.1443328,39.8783651 C93.8906789,39.8783651 93.6850921,39.3318489 93.6850921,38.6575988 C93.6850921,37.9833487 93.8906789,37.4368325 94.1443328,37.4368325 C94.3979867,37.4368325 94.6035734,37.9833487 94.6035734,38.6575988" id="Fill-78" fill="#FFFFFF"></path>
                            <path d="M91.8481295,41.0991314 C91.8481295,41.77337 91.2312343,42.3198977 90.4704076,42.3198977 C89.7095809,42.3198977 89.0926857,41.77337 89.0926857,41.0991314 C89.0926857,40.4248928 89.7095809,39.8783651 90.4704076,39.8783651 C91.2312343,39.8783651 91.8481295,40.4248928 91.8481295,41.0991314" id="Fill-80" fill="#FFFFFF"></path>
                            <path d="M67.9676159,54.9344825 C67.9676159,55.1592515 67.7620969,55.3414046 67.5083752,55.3414046 C67.2546535,55.3414046 67.0491346,55.1592515 67.0491346,54.9344825 C67.0491346,54.7097136 67.2546535,54.5275604 67.5083752,54.5275604 C67.7620969,54.5275604 67.9676159,54.7097136 67.9676159,54.9344825" id="Fill-82" fill="#FFFFFF"></path>
                            <path d="M74.3969849,59.8175477 C74.3969849,60.4917863 73.7800897,61.0383139 73.019263,61.0383139 C72.2584363,61.0383139 71.641541,60.4917863 71.641541,59.8175477 C71.641541,59.143309 72.2584363,58.5967814 73.019263,58.5967814 C73.7800897,58.5967814 74.3969849,59.143309 74.3969849,59.8175477" id="Fill-84" fill="#FFFFFF"></path>
                            <path d="M109.299274,34.5883779 C109.299274,35.2626402 108.682422,35.8091442 107.921552,35.8091442 C107.160682,35.8091442 106.54383,35.2626402 106.54383,34.5883779 C106.54383,33.9144295 107.160682,33.3676116 107.921552,33.3676116 C108.682422,33.3676116 109.299274,33.9144295 109.299274,34.5883779" id="Fill-90" fill="#FFFFFF"></path>
                            <path d="M121.239531,38.6575988 C121.239531,38.8823678 120.622735,39.0645209 119.861809,39.0645209 C119.100883,39.0645209 118.484087,38.8823678 118.484087,38.6575988 C118.484087,38.4328299 119.100883,38.2506767 119.861809,38.2506767 C120.622735,38.2506767 121.239531,38.4328299 121.239531,38.6575988" id="Fill-92" fill="#FFFFFF"></path>
                            <path d="M136.853713,48.4237291 C136.853713,49.0979408 136.648126,49.6444953 136.394472,49.6444953 C136.140818,49.6444953 135.935232,49.0979408 135.935232,48.4237291 C135.935232,47.7495173 136.140818,47.2029628 136.394472,47.2029628 C136.648126,47.2029628 136.853713,47.7495173 136.853713,48.4237291" id="Fill-94" fill="#FFFFFF"></path>
                            <path d="M195.636516,32.9606895 C195.636516,33.634818 195.019587,34.1814558 194.258794,34.1814558 C193.498001,34.1814558 192.881072,33.634818 192.881072,32.9606895 C192.881072,32.2865611 193.498001,31.7399232 194.258794,31.7399232 C195.019587,31.7399232 195.636516,32.2865611 195.636516,32.9606895" id="Fill-96" fill="#FFFFFF"></path>
                            <path d="M189.207147,138.760434 C189.207147,138.98519 189.001574,139.167356 188.747906,139.167356 C188.494238,139.167356 188.288666,138.98519 188.288666,138.760434 C188.288666,138.535677 188.494238,138.353512 188.747906,138.353512 C189.001574,138.353512 189.207147,138.535677 189.207147,138.760434" id="Fill-104" fill="#FFFFFF"></path>
                            <path d="M192.881072,145.271187 C192.881072,145.945399 192.26422,146.491953 191.50335,146.491953 C190.74248,146.491953 190.125628,145.945399 190.125628,145.271187 C190.125628,144.596975 190.74248,144.050421 191.50335,144.050421 C192.26422,144.050421 192.881072,144.596975 192.881072,145.271187" id="Fill-106" fill="#FFFFFF"></path>
                            <path d="M175.429927,145.271187 C175.429927,145.945399 174.813132,146.491953 174.052205,146.491953 C173.291279,146.491953 172.674484,145.945399 172.674484,145.271187 C172.674484,144.596975 173.291279,144.050421 174.052205,144.050421 C174.813132,144.050421 175.429927,144.596975 175.429927,145.271187" id="Fill-108" fill="#FFFFFF"></path>
                            <path d="M175.429927,153.409629 C175.429927,154.083868 174.813014,154.630395 174.052205,154.630395 C173.291397,154.630395 172.674484,154.083868 172.674484,153.409629 C172.674484,152.73539 173.291397,152.188863 174.052205,152.188863 C174.813014,152.188863 175.429927,152.73539 175.429927,153.409629" id="Fill-110" fill="#FFFFFF"></path>
                            <path d="M165.326633,152.595785 C165.326633,153.269997 164.710062,153.816551 163.948911,153.816551 C163.18776,153.816551 162.571189,153.269997 162.571189,152.595785 C162.571189,151.921573 163.18776,151.375019 163.948911,151.375019 C164.710062,151.375019 165.326633,151.921573 165.326633,152.595785" id="Fill-112" fill="#FFFFFF"></path>
                            <path d="M165.326633,162.361915 C165.326633,162.586672 164.710062,162.768837 163.948911,162.768837 C163.18776,162.768837 162.571189,162.586672 162.571189,162.361915 C162.571189,162.137158 163.18776,161.954993 163.948911,161.954993 C164.710062,161.954993 165.326633,162.137158 165.326633,162.361915" id="Fill-114" fill="#FFFFFF"></path>
                            <path d="M129.505863,168.872669 C129.505863,169.09729 129.30029,169.279591 129.046622,169.279591 C128.792954,169.279591 128.587381,169.09729 128.587381,168.872669 C128.587381,168.648048 128.792954,168.465746 129.046622,168.465746 C129.30029,168.465746 129.505863,168.648048 129.505863,168.872669" id="Fill-116" fill="#FFFFFF"></path>
                            <path d="M103.788386,176.197266 C103.788386,176.871478 103.5828,177.418032 103.329146,177.418032 C103.075492,177.418032 102.869905,176.871478 102.869905,176.197266 C102.869905,175.523054 103.075492,174.9765 103.329146,174.9765 C103.5828,174.9765 103.788386,175.523054 103.788386,176.197266" id="Fill-118" fill="#FFFFFF"></path>
                            <path d="M79.9078727,177.01111 C79.9078727,177.685299 79.2910207,178.231877 78.5301508,178.231877 C77.7692808,178.231877 77.1524288,177.685299 77.1524288,177.01111 C77.1524288,176.336922 77.7692808,175.790344 78.5301508,175.790344 C79.2910207,175.790344 79.9078727,176.336922 79.9078727,177.01111" id="Fill-120" fill="#FFFFFF"></path>
                            <path d="M41.3316583,168.872829 C41.3316583,169.546977 40.715019,170.093435 39.9539363,170.093435 C39.1928537,170.093435 38.5762144,169.546977 38.5762144,168.872829 C38.5762144,168.19836 39.1928537,167.651902 39.9539363,167.651902 C40.715019,167.651902 41.3316583,168.19836 41.3316583,168.872829" id="Fill-128" fill="#FFFFFF"></path>
                            <path d="M56.9458403,162.361915 C56.9458403,162.586678 56.7402675,162.768837 56.4865997,162.768837 C56.2329318,162.768837 56.027359,162.586678 56.027359,162.361915 C56.027359,162.137153 56.2329318,161.954993 56.4865997,161.954993 C56.7402675,161.954993 56.9458403,162.137153 56.9458403,162.361915" id="Fill-130" fill="#FFFFFF"></path>
                            <path d="M45.9240648,162.097732 C45.9240648,162.176601 45.7185087,162.240471 45.4648241,162.240471 C45.2111396,162.240471 45.0055835,162.176601 45.0055835,162.097732 C45.0055835,162.018863 45.2111396,161.954993 45.4648241,161.954993 C45.7185087,161.954993 45.9240648,162.018863 45.9240648,162.097732" id="Fill-132" fill="#FFFFFF"></path>
                            <path d="M69.8045784,153.409629 C69.8045784,154.083868 69.1877829,154.630395 68.4268565,154.630395 C67.6659301,154.630395 67.0491346,154.083868 67.0491346,153.409629 C67.0491346,152.73539 67.6659301,152.188863 68.4268565,152.188863 C69.1877829,152.188863 69.8045784,152.73539 69.8045784,153.409629" id="Fill-134" fill="#FFFFFF"></path>
                            <path d="M67.0491346,133.877369 C67.0491346,134.55132 66.8435417,135.098135 66.5898939,135.098135 C66.3362461,135.098135 66.1306533,134.55132 66.1306533,133.877369 C66.1306533,133.203093 66.3362461,132.656602 66.5898939,132.656602 C66.8435417,132.656602 67.0491346,133.203093 67.0491346,133.877369" id="Fill-136" fill="#FFFFFF"></path>
                            <path d="M169.000558,185.963396 C169.000558,186.188165 168.794986,186.370319 168.541318,186.370319 C168.28765,186.370319 168.082077,186.188165 168.082077,185.963396 C168.082077,185.738627 168.28765,185.556474 168.541318,185.556474 C168.794986,185.556474 169.000558,185.738627 169.000558,185.963396" id="Fill-140" fill="#FFFFFF"></path>
                            <path d="M191.962591,161.548071 C191.962591,162.222508 191.345705,162.768837 190.584869,162.768837 C189.824032,162.768837 189.207147,162.222508 189.207147,161.548071 C189.207147,160.873633 189.824032,160.327305 190.584869,160.327305 C191.345705,160.327305 191.962591,160.873633 191.962591,161.548071" id="Fill-144" fill="#FFFFFF"></path>
                            <path d="M122.011124,147.551238 C122.011124,147.551238 127.749946,148.370828 131.401924,147.551238 C131.401924,147.551238 135.575613,146.804755 137.488554,147.915464 C137.488554,147.915464 137.31465,148.534747 135.575613,150.337845 C135.575613,150.337845 135.053902,150.993518 137.488554,151.485272 C137.488554,151.485272 140.792724,153.616207 136.445131,153.698166 C132.097539,153.780125 127.92385,154.435797 123.054546,151.485272 C123.054546,151.485272 119.92428,151.485272 119.402568,149.354337 C119.402568,149.354337 119.596993,147.303066 122.011124,147.551238" id="Fill-150" fill="#FFFFFF"></path>
                            <path d="M111.636078,189.625695 C111.636078,189.625695 106.09271,188.850645 104.706868,188.629202 C104.706868,188.629202 106.686642,187.079102 113.02192,187.189824 C113.02192,187.189824 119.951131,187.63271 111.636078,189.625695" id="Fill-154" fill="#FFFFFF"></path>
                            <path d="M64.4504886,182.301098 C64.4504886,182.301098 68.5079989,183.352835 71.5994353,183.803579 C71.5994353,183.803579 75.0773013,186.357798 68.7978211,186.357798 C68.7978211,186.357798 65.802992,185.306061 64.4504886,187.184163 C64.4504886,187.184163 61.5522669,187.184163 61.5522669,184.74263 C61.5522669,184.74263 61.1658374,182.90209 64.4504886,182.301098" id="Fill-160" fill="#FFFFFF"></path>
                            <path d="M184.16493,34.1814558 C186.891975,34.8767025 186.564717,35.8038139 186.237458,37.0782011 C186.237458,37.0782011 185.9102,38.8489944 184.16493,39.0645209 C184.16493,39.0645209 181.32858,38.4690421 181.32858,37.1943073 C181.32858,37.1943073 180.456109,35.8038139 181.32858,34.1814558 L184.16493,34.1814558 Z" id="Fill-168" fill="#FFFFFF"></path>
                        </g>
                    </g>
                </g>
                <rect id="3" fill-opacity="0.2" fill="#424242" x="0" y="0" width="158" height="158"></rect>
                <text id="?" font-family="Roboto, Roboto-Regular, Helvetica, Arial" font-size="72" font-weight="normal" fill="#FFFFFF">
                    <tspan x="64" y="104">?</tspan>
                </text>
            </g>
        </g>
    </g>
</svg>
