<?xml version="1.0" encoding="UTF-8"?>
<svg width="158px" height="159px" viewBox="0 0 158 159" version="1.1" xmlns="http://www.w3.org/2000/svg" xmlns:xlink="http://www.w3.org/1999/xlink">
    <!-- Generator: sketchtool 49.3 (51167) - http://www.bohemiancoding.com/sketch -->
    <title>28D3E2A6-515E-40DF-A45E-3F67FEF445DA</title>
    <desc>Created with sketchtool.</desc>
    <defs>
        <rect id="path-1" x="0" y="0" width="158" height="158"></rect>
        <polygon id="path-3" points="0 0.237847941 240.341616 0.237847941 240.341616 227.635468 0 227.635468"></polygon>
    </defs>
    <g id="Page-1" stroke="none" stroke-width="1" fill="none" fill-rule="evenodd">
        <g id="1366-x-768-Comportamentos-LT" transform="translate(-186.000000, -1172.000000)">
            <g id="lightningtalks/section/empty" transform="translate(0.000000, 994.000000)">
                <g id="call4paper/avatar/group" transform="translate(186.000000, 178.000000)">
                    <g id="call4paper/avatar/empty">
                        <g id="il_lightningtalks_hover">
                            <g id="portal">
                                <mask id="mask-2" fill="white">
                                    <use xlink:href="#path-1"></use>
                                </mask>
                                <use id="Mask" fill="#212121" xlink:href="#path-1"></use>
                                <g mask="url(#mask-2)">
                                    <g transform="translate(-40.907948, -35.500000)">
                                        <g id="Group-3" stroke-width="1" fill="none">
                                            <mask id="mask-4" fill="white">
                                                <use xlink:href="#path-3"></use>
                                            </mask>
                                            <g id="Clip-2"></g>
                                            <path d="M23.1571769,44.3080735 C23.1571769,44.3080735 29.8802282,36.4017708 36.9767824,33.4369073 C36.9767824,33.4369073 47.8083652,28.1660388 53.410908,19.9303068 C53.410908,19.9303068 56.3989308,16.9654432 60.880965,13.6711504 C60.880965,13.6711504 67.9775192,7.4119941 81.7971248,2.14112561 C81.7971248,2.14112561 105.701307,-2.14145504 136.702044,2.14112561 C136.702044,2.14112561 139.690067,0.164549926 144.919107,1.81169633 C144.919107,1.81169633 152.389164,4.11770129 156.871198,4.44713058 C156.871198,4.44713058 169.943798,8.40028194 179.654872,16.9654432 C179.654872,16.9654432 186.004421,20.9920573 193.847981,22.2728784 C193.847981,22.2728784 202.812049,27.1777509 207.667586,32.4486194 C207.667586,32.4486194 212.896626,40.0254929 214.390638,40.3549222 C214.390638,40.3549222 218.125666,45.2963614 219.619677,49.2495128 C219.619677,49.2495128 223.728209,53.5320934 225.969226,57.8146741 C225.969226,57.8146741 225.22222,63.4149718 230.824763,70.9918453 C230.824763,70.9918453 233.812786,74.9449967 230.824763,81.8630116 C230.824763,81.8630116 229.37221,83.1807287 232.152939,85.8161629 C232.152939,85.8161629 233.812786,87.7927386 234.186289,91.0870314 C234.186289,91.0870314 233.439283,94.7107535 236.053803,97.3461878 C236.053803,97.3461878 239.041826,103.605344 237.921317,109.205642 C237.921317,109.205642 236.800809,114.80594 240.162334,118.759091 C240.162334,118.759091 239.788832,133.912838 240.162334,138.195419 C240.162334,138.195419 241.282843,140.171994 237.921317,142.14857 C237.921317,142.14857 237.174312,145.772292 235.306797,148.737156 C235.306797,148.737156 233.439283,156.972888 229.704255,161.914327 C229.704255,161.914327 227.089735,164.87919 225.969226,167.185195 C225.969226,167.185195 224.475215,175.420927 217.752163,179.044649 C217.752163,179.044649 209.5351,185.633235 207.294083,189.256957 C207.294083,189.256957 205.800072,190.245245 203.559055,191.562962 C203.559055,191.562962 199.824026,201.44584 189.739449,204.740133 C189.739449,204.740133 188.245438,211.328719 182.642895,214.293582 C182.642895,214.293582 170.690804,224.50589 164.714758,224.835319 C164.714758,224.835319 135.955038,227.635468 128.484981,227.635468 C128.484981,227.635468 103.833793,226.482466 94.1227189,225.494178 C94.1227189,225.494178 67.2305135,216.929017 60.5074622,214.293582 C60.5074622,214.293582 44.8203423,207.704997 43.3263309,204.410704 C43.3263309,204.410704 41.4588167,200.128123 37.7237881,196.174972 C37.7237881,196.174972 32.8682511,190.904103 23.1571769,184.315518 C23.1571769,184.315518 18.3016398,185.303806 11.9520913,171.467776 C11.9520913,171.467776 9.71107417,163.890902 10.084577,161.584897 C10.084577,161.584897 10.084577,159.608322 7.84355991,157.961175 C7.84355991,157.961175 6.3495485,155.9846 7.84355991,151.043161 C7.84355991,151.043161 5.22903994,149.725443 5.22903994,145.772292 C5.22903994,145.772292 4.10853138,135.889414 2.24101712,133.253979 C2.24101712,133.253979 1.12050856,130.618545 2.24101712,126.006535 C2.24101712,126.006535 1.12050856,121.723955 0,120.406237 C0,120.406237 0,113.817652 1.86751426,109.8645 C1.86751426,109.8645 2.98802282,104.264203 2.24101712,102.617056 C2.24101712,102.617056 2.24101712,98.3344756 4.48203423,92.0753193 C4.48203423,92.0753193 3.73502853,89.7693143 2.61451997,87.4633093 C2.61451997,87.4633093 1.86751426,84.4984458 4.10853138,82.8512994 C4.10853138,82.8512994 5.22903994,79.5570066 4.48203423,76.5921431 C4.48203423,76.5921431 4.10853138,72.968421 7.0965542,69.6741282 C7.0965542,69.6741282 6.72305135,66.7092646 11.5785884,62.0972547 C11.5785884,62.0972547 13.8196056,55.5086691 16.8076284,51.5555177 L23.1571769,44.3080735 Z" id="Fill-1" fill="#78EC21" mask="url(#mask-4)"></path>
                                        </g>
                                        <path d="M54.1519963,93.5056985 C53.7343374,91.0474543 50.3945631,93.5056985 50.3945631,93.5056985 C49.6988391,94.8576172 42.3239409,100.019699 42.3239409,100.019699 C42.4631605,103.583938 40.5144598,108.008249 40.5144598,108.008249 C38.1484745,112.187297 40.5144598,125.092997 40.5144598,125.092997 C43.2973556,130.500672 45.3849016,142.914194 45.3849016,142.914194 C47.6112931,156.310749 56.5176073,165.03707 56.5176073,165.03707 C58.4659338,167.618276 63.7536602,166.757874 63.7536602,166.757874 C66.8149952,166.635243 72.3815352,169.461711 72.3815352,169.461711 C75.4436187,170.813961 73.7729831,168.109793 73.7729831,168.109793 C54.4304355,142.176754 58.8835927,136.030978 59.1268528,126.506066 C59.3334368,118.428931 57.4917706,110.2209 57.4917706,110.2209 C56.6564527,105.550005 60.2746663,101.617541 60.2746663,101.617541 C61.9445534,98.1762635 58.8832184,95.7180192 58.8832184,95.7180192 C58.8832184,95.7180192 58.0482749,95.9639428 57.6306159,99.896737 C57.6306159,99.896737 54.5820053,105.381428 54.0127766,109.45272 C53.5382323,112.847721 52.6613731,119.057953 53.6999067,123.832969 C54.2451836,126.340464 54.8222715,129.401618 55.1261595,133.327471 C55.3952426,136.813372 57.5654971,146.058314 55.8956099,147.287271 C55.8956099,147.287271 54.6991444,149.118806 53.0382392,146.355471 C50.8679847,142.742973 48.028952,132.466738 47.8901066,126.444255 C47.8901066,126.444255 46.3227629,115.754181 47.750887,111.019821 C49.0918116,106.574025 54.1519963,93.5056985 54.1519963,93.5056985" id="Fill-4" fill="#71CE20"></path>
                                        <path d="M41.1421301,82.2953867 C41.1421301,82.2953867 40.2850779,87.9956494 37.9282805,91.3051709 C37.9282805,91.3051709 35.142765,95.1935868 41.1421301,92.4220809 C41.1421301,92.4220809 44.7843136,90.3857312 42.4275162,94.4310683 C42.4275162,94.4310683 32.7855834,113.737325 33.2143016,122.011623 C33.2143016,122.011623 34.5000719,129.02264 32.3572494,131.032946 C32.3572494,131.032946 30.6431451,133.411489 30.8575042,136.537387 C30.8575042,136.537387 28.9290408,136.745077 29.1433999,131.032946 C29.1433999,131.032946 31.0714791,120.90823 30.4287861,116.863222 C30.4287861,116.863222 28.9290408,114.656765 26.7866025,117.598708 L24.429421,119.06968 L24.429421,113.737325 C24.429421,113.737325 34.714431,102.153505 32.7855834,91.672749 C32.7855834,91.672749 31.9289154,90.2017773 34.714431,87.4437877 C34.714431,87.4437877 40.2850779,79.169819 41.1421301,82.2953867" id="Fill-6" fill="#71CE20"></path>
                                        <path d="M85.5537477,54.6145122 C85.5537477,54.6145122 90.4049134,54.4238187 90.1942727,57.6642418 C90.1942727,57.6642418 89.7718567,62.0481426 81.9679391,62.4295297 C81.9679391,62.4295297 72.6872674,64.7168269 70.367194,67.3851694 C70.367194,67.3851694 66.1487068,67.9569082 63.1955767,65.2885657 C63.1955767,65.2885657 60.8755033,62.810575 70.5778347,57.47389 C70.5778347,57.47389 77.7494519,50.421305 85.5537477,54.6145122" id="Fill-8" fill="#71CE20"></path>
                                        <path d="M96.9159,84.6477674 C88.0354192,88.02319 80.2581385,94.8278018 80.2581385,94.8278018 C79.0085917,97.403652 76.7405915,97.771772 76.7405915,97.771772 C72.1123777,99.6113822 67.7645373,109.66871 67.7645373,109.66871 C65.4043237,116.782727 63.2908835,116.905104 63.2908835,116.905104 C61.31595,116.905104 62.3504568,113.392131 62.3504568,113.392131 C63.1837368,111.473685 63.8777636,106.234573 63.8777636,106.234573 C64.849177,96.9131553 68.0422973,92.9881916 68.0422973,92.9881916 C69.7081108,90.903168 69.9858708,88.6954378 69.9858708,88.6954378 C69.5692308,85.0158874 71.0961643,85.0158874 71.0961643,85.0158874 C72.7619778,84.4023541 74.3262446,82.8078273 74.3262446,82.8078273 C75.4742447,81.0905938 79.5641117,79.1286068 79.5641117,79.1286068 C86.7828858,77.9018701 88.0316859,74.2226495 88.0316859,74.2226495 C89.5589927,70.5430992 95.9444866,70.665476 95.9444866,70.665476 C103.857287,69.8065294 120.236916,71.6464695 120.236916,71.6464695 C122.457876,71.6464695 123.707423,72.5050862 123.707423,72.5050862 C128.288223,75.2036431 153.692065,78.8828636 153.692065,78.8828636 C158.272866,80.4773904 159.799799,82.8078273 159.799799,82.8078273 C161.326733,85.260641 167.29596,90.0442214 167.29596,90.0442214 C169.93356,92.6197417 170.488707,89.6761014 170.488707,89.6761014 C171.321614,83.6661142 167.15708,77.1656301 167.15708,77.1656301 C162.29852,70.1746493 154.941612,67.1696557 154.941612,67.1696557 C150.672918,65.5141054 152.234572,62.5704651 152.234572,62.5704651 C152.547052,59.9025849 146.612545,57.9709447 146.612545,57.9709447 C144.634251,56.1310046 147.028811,56.3150645 147.028811,56.3150645 C150.152492,54.9352744 144.967638,53.8398206 143.905504,53.7395442 C140.489504,53.4162847 137.406891,53.8035364 135.26433,53.5554842 C129.128223,52.845303 113.192862,52.359754 113.192862,52.359754 C109.236275,52.5434842 109.340435,51.439784 109.340435,51.439784 C109.340435,50.151694 111.214568,49.8759338 111.214568,49.8759338 L124.332383,49.7839038 C127.039423,48.8642636 125.165289,47.9442936 125.165289,47.9442936 C121.000756,44.1727132 110.693768,46.1043535 110.693768,46.1043535 C107.987101,48.1283536 98.5126469,47.2875491 98.5126469,47.2875491 C93.5155797,47.0909546 89.142726,48.9559638 89.142726,48.9559638 C84.9778189,50.4277839 82.166992,47.6682036 82.166992,47.6682036 C79.043685,46.3804434 75.1916313,48.7722336 75.1916313,48.7722336 C72.276271,50.3357539 65.4043237,51.2864007 65.4043237,51.2864007 C46.8029886,55.2110345 38.7513079,63.3063752 38.7513079,63.3063752 C35.9752009,66.4954288 41.5281615,66.483554 41.5281615,66.483554 C44.1653884,65.3679789 50.4123756,59.6528835 50.4123756,59.6528835 C54.7195227,56.6096265 60.4475766,54.6446707 62.9059768,54.2455442 C63.6963236,54.1169002 64.0868303,54.5628663 64.0162703,54.8432444 C63.3782435,57.365328 57.4750963,60.1173216 54.1606427,61.8804051 C52.8308292,62.5879475 50.8286423,63.0609619 50.8286423,63.0609619 C48.8850688,64.0419554 50.2731223,66.483554 50.2731223,66.483554 C46.9418686,68.4343259 36.947361,76.79784 36.947361,76.79784 C30.4229871,83.0532406 28.0624002,89.3083113 28.0624002,89.3083113 C25.70256,93.233275 25.1474132,91.0252149 25.1474132,91.0252149 C24.1756265,88.9401914 23.3427197,94.0915619 23.3427197,94.0915619 C21.6769063,96.6674121 23.0653331,98.5070223 23.0653331,98.5070223 C23.8978665,99.6110524 25.8406933,100.837459 25.8406933,100.837459 C23.7582398,105.866123 24.3843198,112.98014 24.3843198,112.98014 C20.8454928,108.687387 18.7607993,110.40429 18.7607993,110.40429 C16.4009591,113.961464 22.6479463,116.904774 22.6479463,116.904774 C19.5944527,119.480624 21.8154129,127.207515 21.8154129,127.207515 C26.6739734,135.17982 24.3843198,143.765657 24.3843198,143.765657 C19.7351994,144.133777 22.2316796,148.058411 22.2316796,148.058411 C27.0906134,150.511884 25.9795733,145.605597 25.9795733,145.605597 L28.0620269,144.133777 C30.4222404,150.143434 39.646188,160.201092 39.646188,160.201092 C41.9298682,162.531199 43.331735,162.531199 43.331735,162.531199 C44.0253884,161.672582 41.1104014,157.993362 41.1104014,157.993362 C36.946241,154.927345 36.529601,149.898351 36.529601,149.898351 C36.668481,146.832334 33.5153074,142.53925 33.5153074,142.53925 C31.3339205,139.473233 32.7817073,138.246166 32.7817073,138.246166 C33.6146141,137.38755 34.7738142,135.302526 34.7738142,135.302526 C34.5449608,132.236509 36.2533343,133.217503 36.2533343,133.217503 C36.2533343,133.217503 39.8627213,133.707999 44.027255,153.087075 C44.027255,153.087075 45.9700819,159.710265 52.0781891,164.125726 C52.0781891,164.125726 53.7436293,168.050689 50.1346156,167.314779 C50.1346156,167.314779 44.3042684,165.474509 47.7747754,168.541186 C47.7747754,168.541186 48.7469355,170.99466 53.1884826,170.871623 C53.1884826,170.871623 58.0474164,172.343443 61.10091,175.287084 C61.10091,175.287084 63.7381369,180.929611 60.1291232,181.174364 C60.1291232,181.174364 55.6868295,180.684197 53.0496026,176.391114 C53.0496026,176.391114 46.1089619,175.287084 44.4431484,177.249401 C44.4431484,177.249401 39.3064546,177.985311 37.6410144,171.73024 C37.6410144,171.73024 33.7534941,161.059049 30.1444804,165.597546 C30.1444804,165.597546 25.2855466,169.767923 25.9795733,157.195768 C25.9795733,157.195768 25.5648,153.209781 24.3843198,156.030715 C24.3843198,156.030715 22.232053,163.144402 20.2884795,158.606565 C20.2884795,158.606565 19.1778127,156.153422 17.9286392,155.172428 C17.9286392,155.172428 17.2342392,153.209781 17.9286392,151.492548 C17.9286392,151.492548 20.2873595,150.512214 13.7633588,146.709627 C13.7633588,146.709627 13.2074655,126.839725 15.0125323,122.670008 C15.0125323,122.670008 16.3781858,112.366937 13.6827188,119.358248 C13.6827188,119.358248 14.3192522,113.34859 8.7662917,109.546333 C8.7662917,109.546333 7.65562493,109.66838 7.51674491,108.319597 C7.51674491,108.319597 8.48853167,105.98916 9.73770512,104.762753 C9.73770512,104.762753 17.2331192,94.2145984 17.7890126,86.8554976 C17.7890126,86.8554976 25.8410666,88.5727311 20.9821329,80.8458402 C20.9821329,80.8458402 19.0385593,78.7608167 21.5376529,77.6567866 C21.5376529,77.6567866 29.727467,75.7930968 26.6736001,66.483554 C26.6736001,66.483554 33.7542407,63.3584925 32.5050673,59.6528835 C32.5050673,59.6528835 44.2699217,58.3390646 33.025494,58.6148248 C33.025494,58.6148248 41.7712015,51.9916341 39.0641612,47.6682036 C39.0641612,47.6682036 35.1079475,45.0006533 38.5437345,43.5288331 C38.5437345,43.5288331 40.7299747,46.4724734 43.541175,41.780923 C43.541175,41.780923 44.1657617,41.4131329 44.9986685,43.8966232 C44.9986685,43.8966232 45.5190952,47.7602336 53.4315226,39.0213427 C53.4315226,39.0213427 59.5747232,35.1577323 58.9497631,34.0540321 C58.9497631,34.0540321 58.3542964,32.490182 56.9864029,33.5018522 C56.9864029,33.5018522 56.2430962,34.9740022 51.9740291,34.8816423 C51.9740291,34.8816423 50.6206957,34.7899422 50.204429,37.9176425 C50.204429,37.9176425 47.4973887,40.4931628 46.4561619,36.7215825 C46.4561619,36.7215825 46.872802,33.9620021 49.5794689,31.6622419 L56.1389362,26.4188414 C56.1389362,26.4188414 58.8456031,24.1190812 60.7197366,26.4188414 L69.6733908,26.9710213 C69.6733908,26.9710213 74.7749913,21.4515308 77.4816582,19.9797107 C77.4816582,19.9797107 80.0849118,22.831321 82.5832587,23.843321 C82.5832587,23.843321 87.5157392,25.4992012 89.0579793,19.2438006 C89.0579793,19.2438006 89.5589927,23.6592611 94.1397931,23.3831711 C94.1397931,23.3831711 97.8880601,22.739291 98.7209669,19.2438006 C98.7209669,19.2438006 101.844274,17.3121603 108.611688,17.4958905 C108.611688,17.4958905 111.734995,17.8640104 114.649608,18.9677106 C114.649608,18.9677106 117.252862,20.8996807 119.334942,20.8996807 C119.334942,20.8996807 125.789876,20.0717407 130.47521,20.8076507 C130.47521,20.8076507 135.05601,21.3595008 136.513504,22.739291 C136.513504,22.739291 136.097237,23.843321 134.63937,23.7512911 C134.63937,23.7512911 128.08065,22.0033809 125.789876,23.2914709 C125.789876,23.2914709 123.811583,24.4872011 125.789876,25.7749613 C125.789876,25.7749613 129.433983,27.2467815 134.118944,26.9710213 C134.118944,26.9710213 134.535584,28.6265716 131.620223,28.3508115 C131.620223,28.3508115 128.601076,26.8789913 127.55985,28.4425116 C127.55985,28.4425116 123.985183,30.926002 135.923637,33.3791455 C135.923637,33.3791455 147.029185,33.5694728 151.193719,36.4181144 C151.193719,36.4181144 152.304012,38.7759294 149.805292,39.0210128 C149.805292,39.0210128 145.918518,35.777203 143.142038,36.4181144 C143.142038,36.4181144 142.031744,37.5495225 151.471105,42.4554797 L161.188599,48.2728308 C161.188599,48.2728308 167.018947,47.6454435 167.296707,49.9564188 C167.296707,49.9564188 170.350574,55.7015313 166.18604,53.9846277 C166.18604,53.9846277 163.40956,52.9746067 162.298893,51.6400069 C162.298893,51.6400069 150.915958,41.7195697 145.641131,41.2290729 C145.641131,41.2290729 138.700117,41.2290729 145.641131,44.9082934 C145.641131,44.9082934 157.023692,49.8818713 158.481559,52.8225429 C158.481559,52.8225429 157.648652,53.9232743 152.026252,51.163694 C152.026252,51.163694 147.237131,48.2200537 144.530465,48.9559638 C144.530465,48.9559638 141.615104,49.5081437 138.491797,48.2200537 C138.491797,48.2200537 133.286037,47.1163535 133.286037,48.5881737 C133.286037,48.5881737 133.190463,51.2771647 141.823424,50.7959039 C141.823424,50.7959039 147.861718,53.7395442 152.651212,54.2913943 C152.651212,54.2913943 160.147373,56.3150645 161.188226,57.6028247 C161.188226,57.6028247 160.980279,58.5227948 159.730733,58.5227948 C159.730733,58.5227948 155.566199,62.2023452 161.813186,61.6504951 C161.813186,61.6504951 163.68732,59.8108848 168.26812,62.9382552 C168.26812,62.9382552 171.391427,66.0659555 171.599747,63.8582253 C171.599747,63.8582253 170.3502,59.8108848 162.64572,57.9709447 C162.64572,57.9709447 164.520226,57.0509746 167.643533,57.0509746 L168.0598,55.7632144 C168.0598,55.7632144 168.0598,57.4190946 171.599747,58.5227948 C171.599747,58.5227948 179.720495,63.9571823 182.219215,66.483554 C182.219215,66.483554 184.717935,67.8207926 186.592069,66.483554 C186.592069,66.483554 187.737082,65.6058056 189.194575,65.6058056 C189.194575,65.6058056 188.569989,61.742525 184.405455,61.4664351 C184.405455,61.4664351 177.950521,62.3864051 178.783428,56.8672445 C178.783428,56.8672445 180.865881,54.1073343 183.468388,56.5911545 C183.468388,56.5911545 184.926255,58.4310946 185.967108,59.9025849 C185.967108,59.9025849 187.424975,60.730525 189.194575,59.0746449 C189.194575,59.0746449 191.589136,56.7748846 194.504496,59.9025849 C194.504496,59.9025849 200.75111,69.1933259 202.833563,71.5851162 C202.833563,71.5851162 206.16519,75.1726366 207.518524,70.8492061 C207.518524,70.8492061 209.080177,65.5141054 213.765511,72.3210262 C213.765511,72.3210262 218.867112,77.1966367 221.573779,79.2203069 C221.573779,79.2203069 222.071432,81.1519472 222.707592,82.5317373 C222.707592,82.5317373 223.343752,84.1876175 224.384979,80.3240071 C224.384979,80.3240071 225.529992,78.6684568 225.426206,83.4517074 C225.426206,83.4517074 224.502579,87.7751378 225.432926,91.5467182 C225.432926,91.5467182 227.924926,98.537699 224.905405,103.50501 C224.905405,103.50501 220.012125,110.40429 221.261672,113.255901 C221.261672,113.255901 226.259112,110.40429 226.987859,103.96516 C226.987859,103.96516 227.404126,107.82877 226.987859,110.95614 C226.987859,110.95614 225.842472,112.1522 224.593299,112.88811 C224.593299,112.88811 220.845032,116.567661 223.864552,115.831751 C223.864552,115.831751 225.738312,115.003811 226.362899,114.083841 C226.362899,114.083841 227.092019,113.071841 228.028712,115.279901 C228.028712,115.279901 230.319486,121.811061 228.653673,124.662672 C228.653673,124.662672 227.820766,125.858732 228.445352,128.158162 C228.445352,128.158162 228.757459,133.677653 227.299966,133.769353 C227.299966,133.769353 225.113726,131.745682 224.280819,133.401563 C224.280819,133.401563 221.157512,137.448903 219.804178,141.588603 C219.804178,141.588603 217.930045,145.911704 215.223005,148.303494 C215.223005,148.303494 209.809297,154.099075 209.184337,157.870325 C209.184337,157.870325 190.201456,170.380797 175.764281,174.183054 C175.764281,174.183054 171.18348,174.551503 169.933934,177.004317 C169.933934,177.004317 167.574093,179.825581 163.964706,179.825581 C163.964706,179.825581 157.162946,177.862934 154.108705,178.966634 C154.108705,178.966634 152.304385,180.316407 149.527905,180.193371 C149.527905,180.193371 142.586891,177.740227 142.586891,181.174364 C142.586891,181.174364 142.448011,184.976951 146.335158,186.938938 C146.335158,186.938938 147.445451,187.184681 147.168065,189.392412 C147.168065,189.392412 145.780011,191.109315 142.309131,187.675178 C142.309131,187.675178 137.173184,183.259388 137.312064,178.966634 C137.312064,178.966634 138.283477,174.183054 132.59201,174.183054 C132.59201,174.183054 120.654302,174.67388 120.515049,169.767923 L123.707796,169.767923 L123.707796,166.946989 C123.707796,166.946989 123.707796,165.842959 128.566356,166.824283 C128.566356,166.824283 133.424917,169.15472 135.50737,167.315109 C135.50737,167.315109 136.062517,165.230086 130.23217,164.861966 L142.448011,164.126056 C142.448011,164.126056 143.003531,166.333456 146.196278,165.352463 C146.196278,165.352463 147.723212,163.022026 150.638198,163.144732 C150.638198,163.144732 153.831319,164.003349 155.913399,161.918325 C155.913399,161.918325 158.550999,160.079045 162.021506,160.324128 C162.021506,160.324128 166.463427,159.587889 168.12924,161.182415 C168.12924,161.182415 167.851853,163.022026 165.075373,163.144732 C165.075373,163.144732 159.442893,163.332751 158.406146,164.858667 C158.258306,165.076373 158.203799,165.321786 158.273613,165.597876 C158.828759,167.805606 160.217186,167.682899 165.075373,166.946989 C165.075373,166.946989 187.563855,161.673242 188.257882,156.276458 C188.257882,156.276458 190.132016,154.650925 191.381189,154.927015 C191.381189,154.927015 192.526576,156.582565 190.548282,158.054385 C190.548282,158.054385 189.298735,160.998026 192.942842,158.330475 C192.942842,158.330475 207.206417,149.867674 202.625243,148.027734 C202.625243,148.027734 200.75111,148.303494 201.37607,146.371854 C201.37607,146.371854 198.98151,144.164454 196.899056,148.119764 C196.899056,148.119764 195.233243,151.891015 189.819536,154.099075 C189.819536,154.099075 187.841242,154.927015 188.778309,153.362835 C188.778309,153.362835 206.16519,139.748663 207.310577,132.021772 C207.310577,132.021772 208.559751,129.262192 208.663911,126.134162 C208.663911,126.134162 209.288497,122.915091 214.910525,117.395601 C214.910525,117.395601 220.324605,108.19656 221.157512,101.665399 C221.157512,101.665399 221.469618,99.089879 219.700018,100.837459 C219.700018,100.837459 214.077618,106.44898 213.140551,112.52032 C213.140551,112.52032 211.370951,104.333279 211.683058,94.5823885 C211.683058,94.5823885 211.266791,86.7634676 205.54023,82.6237673 C205.54023,82.6237673 203.354363,80.3240071 201.48023,77.9325467 C201.48023,77.9325467 196.899056,71.1252961 197.836123,74.0689364 C197.836123,74.0689364 202.625243,87.4073477 203.24983,91.5467182 C203.24983,91.5467182 203.66647,93.2025984 202.312763,93.4783585 C202.312763,93.4783585 200.647323,94.5823885 200.126523,99.9174892 C200.126523,99.9174892 198.98151,112.06017 196.066149,112.88811 C196.066149,112.88811 195.857829,111.87611 196.586949,110.0365 C196.586949,110.0365 200.75111,95.5943886 197.523643,93.2942985 C197.523643,93.2942985 195.024923,91.5467182 194.921136,88.8791679 C194.921136,88.8791679 194.816976,87.0392278 193.150789,87.0392278 C193.150789,87.0392278 192.630362,86.9471978 192.214096,85.4753776 C192.214096,85.4753776 189.923322,81.7041271 190.027482,84.0955875 C190.027482,84.0955875 189.715375,86.8551678 188.049562,84.9235275 C188.049562,84.9235275 186.279589,80.4160371 187.528762,79.0362469 C187.528762,79.0362469 188.986629,77.5644268 187.945402,76.7364867 C187.945402,76.7364867 183.052122,71.6771462 181.073828,69.1016258 C181.073828,69.1016258 174.723054,65.6978356 176.700974,68.9175658 C176.700974,68.9175658 178.054681,70.113296 179.408015,71.1252961 C179.408015,71.1252961 180.970041,72.5971162 182.531695,76.8285167 C182.531695,76.8285167 184.093348,80.8758572 185.446682,84.5557374 C185.446682,84.5557374 191.485349,100.193579 186.592069,114.267901 C186.592069,114.267901 184.613775,117.947451 182.947962,119.419271 C182.947962,119.419271 183.780868,107.64471 181.177988,106.17289 C181.177988,106.17289 175.451801,106.26492 174.827214,118.591331 C174.827214,118.591331 171.808067,131.745682 161.292386,136.253173 C161.292386,136.253173 148.902945,141.680304 144.738411,141.956394 C144.738411,141.956394 143.072598,142.048753 143.905504,139.288843 C143.905504,139.288843 143.905504,135.609293 139.012224,141.496573 C139.012224,141.496573 135.16017,143.060424 124.228223,142.324513 C124.228223,142.324513 106.633394,140.300843 104.967581,128.250192 C104.967581,128.250192 102.052594,114.267901 115.587048,108.19656 C115.587048,108.19656 121.000756,106.35695 121.104916,109.30059 C121.104916,109.30059 122.022942,111.23223 118.388542,111.87611 C118.388542,111.87611 103.510087,116.015811 108.299208,125.398582 C108.299208,125.398582 110.069181,132.389563 115.274568,135.793353 C115.274568,135.793353 116.921715,134.413233 118.388542,136.161143 C118.388542,136.161143 120.896596,140.300843 129.538143,138.829023 C129.538143,138.829023 130.16273,137.265173 131.620223,138.368873 C131.620223,138.368873 143.280918,140.116783 148.902945,129.997772 C148.902945,129.997772 151.609985,119.879421 138.179317,121.534971 C138.179317,121.534971 134.95185,122.546971 134.74353,124.570642 C134.74353,124.570642 137.242624,124.846402 138.803904,128.434252 C138.803904,128.434252 140.365931,130.825712 143.072598,129.722012 C143.072598,129.722012 143.905504,131.929742 140.573878,131.929742 C140.573878,131.929742 132.76561,131.837712 131.099797,134.505263 C131.099797,134.505263 128.913556,135.609293 127.35153,134.045443 C127.35153,134.045443 123.395316,131.929742 125.789876,126.410252 C125.789876,126.410252 128.601076,122.086821 123.603636,121.534971 C123.603636,121.534971 122.458249,122.546971 120.792436,121.811061 C120.792436,121.811061 117.356649,120.247211 116.315795,123.190852 C116.315795,123.190852 115.170408,125.674672 113.504968,125.674672 C113.504968,125.674672 111.422515,125.674672 111.318728,127.605982 C111.318728,127.605982 107.778781,121.811061 115.899155,116.015811 C115.899155,116.015811 119.022462,113.991811 121.313236,116.751721 C121.313236,116.751721 123.915743,119.603331 127.039423,115.739721 C127.039423,115.739721 129.433983,109.20856 131.828543,107.09286 C131.828543,107.09286 133.286037,106.26492 134.95185,108.74841 C134.95185,108.74841 136.513504,117.579661 144.009665,111.1402 C144.009665,111.1402 154.316652,106.72474 145.987958,101.389309 C145.987958,101.389309 144.426305,103.87313 142.552171,101.573369 C142.552171,101.573369 140.782198,98.997849 138.179317,99.2736091 C138.179317,99.2736091 131.932703,99.089879 128.184436,97.0658789 C128.184436,97.0658789 116.627902,92.8344784 112.984542,82.9918873 C112.984542,82.9918873 111.214568,81.9798872 110.173341,82.8078273 C110.173341,82.8078273 105.904648,84.3716774 101.740114,83.5437374 C101.740114,83.5437374 99.1503003,83.7983867 96.9159,84.6477674" id="Fill-10" fill="#71CE20"></path>
                                        <path d="M94.8989045,141.677011 C94.8989045,141.677011 98.9502443,140.781111 101.07277,143.468489 C101.07277,143.468489 105.317129,149.201731 102.230197,149.022487 C102.230197,149.022487 97.0210843,147.947665 94.8989045,141.677011" id="Fill-12" fill="#71CE20"></path>
                                        <path d="M84.4710375,125.327015 C84.4710375,125.327015 86.8248924,132.275057 88.9650396,139.589287 C88.9650396,139.589287 90.8907116,144.343158 93.4590417,147.634578 C93.4590417,147.634578 95.8128966,151.108599 94.9569145,153.485699 C94.9569145,153.485699 89.1925597,148.54857 91.7532162,153.485699 C91.7532162,153.485699 95.1710059,160.250812 111.862466,160.433741 C111.862466,160.433741 116.783883,161.164804 115.286394,162.810841 C115.286394,162.810841 106.084682,164.456223 97.7385686,160.799273 C97.7385686,160.799273 93.6861781,159.153891 91.7532162,159.519422 C91.7532162,159.519422 77.3430967,151.294807 75.4500372,144.253333 C75.4500372,144.253333 72.0591048,139.223428 73.7710691,135.749406 C73.7710691,135.749406 75.6975085,130.081215 79.3351448,136.114938 C79.3351448,136.114938 78.6928704,140.905526 81.4587938,139.598138 C81.4587938,139.598138 82.1171826,127.338584 82.1171826,125.327015 C82.1171826,125.327015 83.5191363,122.453907 84.4710375,125.327015" id="Fill-14" fill="#71CE20"></path>
                                        <path d="M82.0461158,57.7619947 C83.7207065,55.7395462 79.3856562,55.3877578 79.3856562,55.3877578 C77.8096149,55.9154403 68.4504178,54.9483568 68.4504178,54.9483568 C65.6917835,57.5861005 60.7654367,59.5199332 60.7654367,59.5199332 C55.7409151,61.0146992 47.0704398,71.7415683 47.0704398,71.7415683 C44.7060032,77.3685097 36.2333761,87.5673618 36.2333761,87.5673618 C27.0712778,98.5577377 26.3814318,110.42725 26.3814318,110.42725 C25.6919606,113.504729 30.1251856,116.230086 30.1251856,116.230086 C32.3906981,118.07664 34.066413,123.6153 34.066413,123.6153 C35.1500819,126.517219 36.1352014,123.527353 36.1352014,123.527353 C43.2285113,92.7552366 51.3076901,91.1721891 59.1152023,84.5122875 C65.7359996,78.8646133 71.0115786,71.829181 71.0115786,71.829181 C74.1644106,67.9605125 79.878778,67.4331644 79.878778,67.4331644 C83.819256,66.0266798 83.6221571,62.3335711 83.6221571,62.3335711 C83.6221571,62.3335711 82.8341365,61.9824515 79.3856562,64.5319138 C79.3856562,64.5319138 72.8308084,66.5292823 69.1642454,69.0817542 C66.1073398,71.2105418 60.5080091,75.0989399 57.4158805,79.1712577 C55.791876,81.3094085 53.7466946,83.8638867 50.8145683,86.8641196 C48.211065,89.5279464 42.3366952,97.5127391 40.1693574,97.336845 C40.1693574,97.336845 37.8540082,97.890945 38.893461,94.8649634 C40.2525437,90.909351 46.4798927,81.7641919 51.2091407,77.3685097 C51.2091407,77.3685097 58.6689196,68.730969 63.4746089,66.2463803 C67.9880224,63.9132746 82.0461158,57.7619947 82.0461158,57.7619947" id="Fill-16" fill="#71E721"></path>
                                        <path d="M79.6281333,39.5463757 C79.6281333,39.5463757 74.4020935,42.9590139 70.0721733,43.8439025 C70.0721733,43.8439025 64.9737179,44.8739757 71.4048059,46.5078628 C71.4048059,46.5078628 75.5969198,47.2565407 70.6692079,48.6468511 C70.6692079,48.6468511 48.2726514,56.2310613 41.8525425,62.17209 C41.8525425,62.17209 37.0550651,67.7499972 33.929436,67.8679396 C33.929436,67.8679396 30.8034282,68.4916242 28.4145329,70.7668232 C28.4145329,70.7668232 26.9020706,69.7720045 31.6897046,65.971887 C31.6897046,65.971887 41.2551293,60.1494417 44.0922738,56.9893541 C44.0922738,56.9893541 44.8384724,54.5878798 40.9568014,55.3464931 L38.1196569,54.9670262 L42.449577,51.3015169 C42.449577,51.3015169 59.0234377,49.4054644 66.1901237,41.0629614 C66.1901237,41.0629614 66.7875369,39.5463757 70.9679145,39.2935046 C70.9679145,39.2935046 81.5687796,36.8920303 79.6281333,39.5463757" id="Fill-18" fill="#71E721"></path>
                                        <path d="M135.268995,47.4271917 C135.268995,47.4271917 138.883183,50.3389552 136.172446,52.4564183 C136.172446,52.4564183 132.407429,55.2356306 126.534231,50.6033864 C126.534231,50.6033864 118.100745,46.3684601 114.336109,46.7654425 C114.336109,46.7654425 110.871987,44.5154282 110.871987,40.8096999 C110.871987,40.8096999 111.173265,37.6335052 122.317488,40.0160707 C122.317488,40.0160707 133.009603,39.6187527 135.268995,47.4271917" id="Fill-20" fill="#71E721"></path>
                                        <path d="M117.53251,77.0434026 C108.580357,73.8815571 97.670013,73.8340503 97.670013,73.8340503 C94.734588,74.8752423 92.8426381,73.7182523 92.8426381,73.7182523 C88.1127635,72.1274323 77.0249101,76.5234664 77.0249101,76.5234664 C69.6863476,80.0795528 68.0988066,78.8453642 68.0988066,78.8453642 C66.7070103,77.6115054 70.2386005,75.7735838 70.2386005,75.7735838 C72.3564381,74.9372651 77.0249101,71.66589 77.0249101,71.66589 C85.1460789,65.6806854 90.5275673,64.9001213 90.5275673,64.9001213 C93.36512,64.4662913 95.322194,63.0783652 95.322194,63.0783652 C97.9640021,60.2160769 99.0398532,61.1698431 99.0398532,61.1698431 C100.70331,61.7772051 103.077923,61.6270966 103.077923,61.6270966 C105.257164,61.1299242 109.70533,62.2978011 109.70533,62.2978011 C115.771924,65.9409834 119.587084,64.1192273 119.587084,64.1192273 C123.599104,62.4713331 128.002242,66.5480155 128.002242,66.5480155 C134.264209,70.884996 144.342079,82.4212451 144.342079,82.4212451 C145.907292,83.8088413 146.103037,85.1967674 146.103037,85.1967674 C147.17926,89.9675778 162.14963,108.443787 162.14963,108.443787 C164.106332,112.433704 163.323725,115.036024 163.323725,115.036024 C162.443247,117.72478 162.834364,124.837613 162.834364,124.837613 C162.638619,128.307263 165.3783,126.572273 165.3783,126.572273 C170.759788,122.842325 173.010107,115.642726 173.010107,115.642726 C175.162553,107.662893 172.374495,100.940673 172.374495,100.940673 C170.686477,97.1021844 174.135824,95.9963303 174.135824,95.9963303 C176.484016,94.3048882 173.842207,89.2305617 173.842207,89.2305617 C173.915519,86.6932335 175.456542,88.3196836 175.456542,88.3196836 C178.758523,89.2955537 175.97828,85.281224 175.309548,84.5465173 C173.159706,82.1833809 170.67829,80.530868 169.365759,79.0165868 C165.607537,74.6802662 154.762689,64.3795253 154.762689,64.3795253 C151.827264,62.0375031 152.781426,61.3216011 152.781426,61.3216011 C153.8089,60.4107231 155.349923,61.3865932 155.349923,61.3865932 L164.669377,69.5185139 C167.310812,70.559376 166.723951,68.7379498 166.723951,68.7379498 C166.797262,63.4683174 157.991359,58.3943208 157.991359,58.3943208 C154.469072,58.1340228 148.46202,51.6193147 148.46202,51.6193147 C145.096403,48.3575069 140.526548,46.9445078 140.526548,46.9445078 C136.417027,45.3830497 136.636961,41.6748753 136.636961,41.6748753 C135.462865,38.812587 130.839794,38.096685 130.839794,38.096685 C127.537441,37.3811129 121.935647,33.7593747 121.935647,33.7593747 C105.693682,24.911552 93.5604925,25.60568 93.5604925,25.60568 C89.0598548,26.126276 92.9833063,29.5876786 92.9833063,29.5876786 C95.731918,30.4467609 104.694119,30.3081993 104.694119,30.3081993 C110.15785,30.8472702 115.762993,33.0372044 117.814218,34.2911876 C118.473647,34.6936763 118.393265,35.2535314 118.119743,35.4075988 C115.65805,36.7925557 109.301932,35.0503076 105.558968,34.2258657 C104.057763,33.8952971 102.268895,32.9788106 102.268895,32.9788106 C100.116449,32.4582146 99.1474011,35.0522871 99.1474011,35.0522871 C95.2429286,34.3502413 81.526292,34.0200026 81.526292,34.0200026 C71.9374107,34.3670666 65.2839544,37.315791 65.2839544,37.315791 C60.4893277,38.6169511 61.8591678,36.708429 61.8591678,36.708429 C62.8375188,34.6267048 58.1411365,37.749621 58.1411365,37.749621 C54.9120946,38.5301851 54.4231052,40.6986753 54.4231052,40.6986753 C54.1294883,41.9998354 54.5206054,44.0808998 54.5206054,44.0808998 C49.0412446,46.336156 43.8071229,51.7585362 43.8071229,51.7585362 C44.7370959,46.5116675 41.8984268,46.4232519 41.8984268,46.4232519 C37.397417,47.464114 39.4523633,53.4493186 39.4523633,53.4493186 C35.2453426,53.3628825 30.6464605,60.2154171 30.6464605,60.2154171 C27.7110355,68.8893779 19.248244,73.5305342 19.248244,73.5305342 C15.6775793,70.8859857 14.3062506,75.2216465 14.3062506,75.2216465 C15.7739631,79.9927868 18.9047606,75.8286786 18.9047606,75.8286786 L21.5465686,76.0889766 C18.4161433,81.8138831 16.8940986,94.6905515 16.8940986,94.6905515 C16.6447661,97.7656309 17.6327927,98.6415387 17.6327927,98.6415387 C18.8068882,98.4676768 19.6873669,94.0445902 19.6873669,94.0445902 C19.1983775,89.2737797 22.9164088,85.4570654 22.9164088,85.4570654 C25.4603446,83.3753412 26.6623505,78.3689759 26.6623505,78.3689759 C27.5707395,74.8373028 29.5698651,74.8745825 29.5698651,74.8745825 C30.8422051,74.7878165 33.3221331,74.037604 33.3221331,74.037604 C35.6070608,71.7259334 36.0283211,73.4873162 36.0283211,73.4873162 C36.0283211,73.4873162 38.1811397,76.0896364 25.6572056,92.3973558 C25.6572056,92.3973558 21.7430575,98.2951345 22.5256638,105.234765 C22.5256638,105.234765 20.5685898,109.051149 18.6118879,106.275297 C18.6118879,106.275297 15.970452,101.330955 15.9700798,105.668265 C15.9700798,105.668265 14.698112,108.010617 17.9267817,110.699374 C17.9267817,110.699374 20.1774727,114.776056 19.9813559,118.766302 C19.9813559,118.766302 17.3391757,124.404443 14.5998675,122.322059 C14.5998675,122.322059 11.8601871,119.199802 13.4257719,114.515758 C13.4257719,114.515758 9.41449584,109.398213 6.67481547,109.745277 C6.67481547,109.745277 2.4674226,107.055861 6.28332623,101.591253 C6.28332623,101.591253 12.0563039,91.615472 5.891837,92.569898 C5.891837,92.569898 -0.85986376,92.483132 9.6586184,84.0255913 C9.6586184,84.0255913 12.5464097,80.9472128 9.46361806,82.204825 C9.46361806,82.204825 2.27167798,85.8908954 4.52199681,81.467149 C4.52199681,81.467149 5.69609238,79.0383608 5.59822007,77.5636687 C5.59822007,77.5636687 6.67444333,75.7422425 8.53364506,74.9613485 C8.53364506,74.9613485 10.9785921,75.7419126 9.41337942,68.9761439 C9.41337942,68.9761439 24.8727386,54.5766168 29.4716207,52.7551906 C29.4716207,52.7551906 38.6533829,46.3222999 31.176013,49.5821282 C31.176013,49.5821282 36.4186939,45.7297838 35.5382153,39.5710472 C35.5382153,39.5710472 34.6581088,38.9633553 35.6360876,37.9224932 C35.6360876,37.9224932 38.1800233,36.881961 40.0388529,36.795195 C40.0388529,36.795195 53.7365105,34.0190129 59.9988497,29.1617664 C59.9988497,29.1617664 64.3048592,35.4075988 67.0441674,26.9068401 C67.0441674,26.9068401 67.3377843,24.2177539 69.9795924,24.9986479 C69.9795924,24.9986479 77.2392616,28.797877 82.51283,20.3056959 C82.51283,20.3056959 89.9968984,22.5203733 92.0723124,19.1186842 C92.0723124,19.1186842 101.41335,25.5410178 93.2672477,18.7102572 C93.2672477,18.7102572 104.715331,19.4908213 106.256354,14.7417849 C106.256354,14.7417849 105.596181,10.3830305 109.191407,11.4888846 C109.191407,11.4888846 108.38424,14.9367609 114.108467,13.3756327 C114.108467,13.3756327 114.842324,13.5056168 113.44755,15.782647 C113.44755,15.782647 110.732803,18.8402412 123.280926,17.6040732 C123.280926,17.6040732 130.6928,18.7102572 131.133039,17.5390811 C131.133039,17.5390811 131.961046,16.0610899 130.189669,15.9218684 C130.189669,15.9218684 128.491603,16.498219 125.556178,13.7655849 C125.556178,13.7655849 124.675327,12.8550367 121.886897,14.8067769 C121.886897,14.8067769 117.924371,14.9370908 120.199251,11.6188686 C120.199251,11.6188686 122.694437,9.92775639 126.436657,9.9924185 L135.242932,10.3830305 C135.242932,10.3830305 138.985152,10.4480225 138.471602,13.2453188 L144.342079,19.2305233 C144.342079,19.2305233 152.341187,18.5149512 155.422862,19.1655313 C155.422862,19.1655313 154.982995,22.8087136 155.936785,25.0854139 C155.936785,25.0854139 158.092581,29.3385975 164.169595,25.8785145 C164.169595,25.8785145 161.000467,29.3141842 164.449443,31.9814964 C164.449443,31.9814964 167.604802,33.8682446 170.980466,31.9165044 C170.980466,31.9165044 174.723058,32.5020925 179.346129,36.8608468 C179.346129,36.8608468 181.254081,39.0725551 182.427805,41.6745454 C182.427805,41.6745454 182.721422,44.6671477 184.189134,45.9683078 C184.189134,45.9683078 189.399439,49.4161841 192.114558,52.8640605 C192.114558,52.8640605 194.902989,56.1169607 194.829677,58.0037089 C194.829677,58.0037089 193.655582,58.523975 192.70142,57.5481049 C192.70142,57.5481049 189.47275,52.2138103 186.830942,51.6932143 C186.830942,51.6932143 184.482751,51.3029322 184.849679,53.4496485 C184.849679,53.4496485 186.243708,56.7675408 189.765995,59.499845 C189.765995,59.499845 188.738894,60.9313191 186.904253,58.914257 C186.904253,58.914257 185.950463,55.9869767 183.968828,56.4422507 C183.968828,56.4422507 179.468191,55.9648728 185.926274,65.1597595 C185.926274,65.1597595 193.601622,72.2336629 194.264772,76.850406 C194.264772,76.850406 193.166592,79.2118928 191.209518,77.8239667 C191.209518,77.8239667 191.057686,73.100993 188.589667,71.8192975 C188.589667,71.8192975 186.904625,71.9258581 189.643934,81.293617 L191.852201,91.4798795 C191.852201,91.4798795 196.462619,94.6793346 194.81442,96.4872345 C194.81442,96.4872345 192.383986,102.458583 190.818401,98.6418686 C190.818401,98.6418686 189.667006,96.1929559 189.949087,94.554959 C189.949087,94.554959 189.839678,80.4262869 186.513136,76.7831046 C186.513136,76.7831046 181.621009,72.4461242 183.578083,79.3854248 C183.578083,79.3854248 187.633644,90.0150847 186.315159,93.0057075 C186.315159,93.0057075 184.849679,93.2640261 183.08835,87.7994175 C183.08835,87.7994175 182.060876,82.7247612 179.566063,81.553915 C179.566063,81.553915 177.070877,80.1227708 175.896782,77.2601526 C175.896782,77.2601526 173.108351,73.2266883 171.934256,74.2675504 C171.934256,74.2675504 169.721523,76.1094309 176.190399,81.163303 C176.190399,81.163303 178.09835,87.0185235 181.033403,90.4014078 C181.033403,90.4014078 184.703057,96.5165964 184.409068,98.0780545 C184.409068,98.0780545 183.528589,98.5986505 182.64811,97.8177565 C182.64811,97.8177565 176.77726,97.8177565 181.620637,101.330955 C181.620637,101.330955 184.409068,101.200971 185.143296,106.274967 C185.143296,106.274967 184.849679,110.438746 186.757631,109.007601 C186.757631,109.007601 189.105822,105.364419 185.143296,99.2492306 C185.143296,99.2492306 187.19787,99.7694967 189.399439,101.721237 L190.720157,101.070657 C190.720157,101.070657 189.399439,102.241503 191.013774,105.234435 C191.013774,105.234435 192.402221,114.151869 192.148423,117.499783 C192.148423,117.499783 192.842832,120.007089 195.23047,120.232087 C195.23047,120.232087 196.737629,120.327101 197.765102,121.237979 C197.765102,121.237979 200.406911,118.115392 197.691419,115.318096 C197.691419,115.318096 192.408175,111.935212 197.398174,108.552327 C197.398174,108.552327 201.067456,107.901417 200.920461,111.284632 C200.920461,111.284632 200.480222,113.49634 200.039982,115.187782 C200.039982,115.187782 200.406911,116.683918 202.975407,116.618926 C202.975407,116.618926 206.497694,116.488612 206.057083,120.522407 C206.057083,120.522407 203.048719,130.99635 202.608107,133.988952 C202.608107,133.988952 202.094557,138.607674 206.497694,136.395966 C206.497694,136.395966 211.854621,133.59867 209.726364,141.340308 C209.726364,141.340308 209.433119,147.976093 209.726364,151.098679 C209.726364,151.098679 208.535894,152.775935 207.883908,154.149016 C207.883908,154.149016 207.011245,155.717732 210.82752,153.635678 C210.82752,153.635678 212.955406,153.180404 209.066191,156.498296 C209.066191,156.498296 204.965974,158.97855 202.612945,162.227491 C202.612945,162.227491 198.792203,168.728673 192.70142,170.355123 C192.70142,170.355123 183.748895,172.176549 182.354493,174.974505 C182.354493,174.974505 188.152032,176.08003 193.802204,171.981573 C193.802204,171.981573 191.013774,174.974505 188.225343,176.925916 C188.225343,176.925916 186.464014,177.0559 184.996301,176.795602 C184.996301,176.795602 179.419068,177.0559 182.13456,178.422052 C182.13456,178.422052 184.115823,179.00764 185.289918,178.747342 C185.289918,178.747342 186.610636,178.487044 185.509852,180.63409 C185.509852,180.63409 181.913882,186.684287 178.465279,187.660157 C178.465279,187.660157 176.923883,187.985447 175.529854,190.002509 C175.529854,190.002509 171.347022,194.100635 170.246237,193.254749 C170.246237,193.254749 170.319549,190.457453 168.411969,191.108033 C168.411969,191.108033 162.981358,192.018911 158.724843,194.100635 C158.724843,194.100635 153.95515,195.987053 150.139246,195.987383 C150.139246,195.987383 141.699899,196.702955 138.250924,198.979656 C138.250924,198.979656 114.890702,195.965939 101.681661,189.633671 C101.681661,189.633671 98.1590024,187.03168 95.3218219,187.985777 C95.3218219,187.985777 91.4076738,188.506043 88.863738,186.250786 C88.863738,186.250786 85.6354404,180.612976 82.6021431,179.485348 C82.6021431,179.485348 80.2532077,179.312146 78.3947502,177.49006 C78.3947502,177.49006 75.4593253,171.417759 72.720017,173.846877 C72.720017,173.846877 69.5884753,176.449198 70.762943,180.265912 C70.762943,180.265912 71.3498047,181.133242 69.3927307,182.521168 C69.3927307,182.521168 67.0449117,182.868232 67.3381565,178.270624 C67.3381565,178.270624 67.2402841,171.938685 70.762943,168.989301 C70.762943,168.989301 75.2639528,166.213449 71.2519324,162.657032 C71.2519324,162.657032 62.4464017,155.54453 66.2623053,151.988113 L68.512252,153.983072 L70.7625708,151.988113 C70.7625708,151.988113 71.6430495,151.207549 74.2852297,154.937168 C74.2852297,154.937168 75.8504424,159.621542 78.7858673,159.621542 C78.7858673,159.621542 80.8404416,158.493914 77.0249101,154.590434 L86.22193,161.703266 C86.22193,161.703266 84.8528341,163.611128 87.8853871,164.912618 C87.8853871,164.912618 90.8211842,164.21849 92.7778861,166.126683 C92.7778861,166.126683 94.3434709,168.729333 97.4742684,168.555801 C97.4742684,168.555801 100.80081,168.902865 103.051129,171.244887 C103.051129,171.244887 106.769533,173.500143 106.67166,175.668633 C106.67166,175.668633 105.008575,176.795932 102.953629,175.148037 C102.953629,175.148037 98.8336887,171.761524 96.885546,172.192715 C96.6075589,172.254408 96.373484,172.393959 96.2023005,172.632813 C94.8324603,174.540675 95.9090557,175.321899 99.9203318,177.837454 C99.9203318,177.837454 119.978573,188.159638 124.772828,184.776754 C124.772828,184.776754 127.390447,184.797538 128.050992,185.773408 C128.050992,185.773408 127.537069,187.660157 124.968572,187.464851 C124.968572,187.464851 121.739903,188.766011 126.436285,189.156623 C126.436285,189.156623 143.240923,192.083903 141.480338,187.920455 C141.480338,187.920455 139.938942,186.944585 141.920205,185.968714 C141.920205,185.968714 141.993516,182.91112 137.370445,184.407586 C137.370445,184.407586 133.187613,186.033706 127.61038,184.21228 C127.61038,184.21228 125.555806,183.5617 127.463758,183.041104 C127.463758,183.041104 150.579485,184.277272 157.550748,179.528236 C157.550748,179.528236 160.632795,178.35739 163.201664,176.210344 C163.201664,176.210344 166.210028,174.323595 174.575692,173.933313 C174.575692,173.933313 185.730158,170.810727 191.527324,166.712271 C191.527324,166.712271 193.802204,165.085821 191.160768,165.215805 C191.160768,165.215805 182.721422,165.671409 177.2175,169.379583 C177.2175,169.379583 182.501488,162.4835 190.500223,155.782724 C190.500223,155.782724 196.444012,149.992825 195.710156,143.487025 C195.710156,143.487025 196.003773,140.494422 196.591007,137.632134 C196.591007,137.632134 198.792203,129.955487 197.104557,132.62313 C197.104557,132.62313 189.839678,145.048483 186.977564,148.366045 C186.977564,148.366045 185.950463,149.797519 184.775996,149.147269 C184.775996,149.147269 182.721422,148.886971 178.09835,152.334847 C178.09835,152.334847 167.604429,160.20647 164.88931,158.970302 C164.88931,158.970302 165.549855,158.125076 167.531118,157.27886 C167.531118,157.27886 181.987565,149.667535 181.547326,146.024353 C181.547326,146.024353 181.180398,143.226727 183.235344,141.275316 C183.235344,141.275316 184.629373,139.909164 183.455278,138.867972 C183.455278,138.867972 183.161661,138.47802 184.042512,137.17653 C184.042512,137.17653 185.436541,133.078404 183.6019,134.834838 C183.6019,134.834838 181.180398,136.591272 181.547326,134.183928 C181.547326,134.183928 183.895517,129.890495 185.87678,129.695519 C185.87678,129.695519 188.078349,129.564875 188.005038,128.329037 C188.005038,128.329037 188.591899,121.693253 189.252817,118.635658 C189.252817,118.635658 187.491487,112.260502 186.317019,115.77337 C186.317019,115.77337 186.317019,117.464482 186.464014,119.02627 C186.464014,119.02627 186.390703,121.042673 184.115823,125.011145 C184.115823,125.011145 181.987565,128.849303 180.006302,132.29751 C180.006302,132.29751 171.787261,147.130207 157.11088,154.02629 C157.11088,154.02629 152.781054,155.392442 150.432863,155.392442 C150.432863,155.392442 160.412861,147.585481 159.752689,144.918169 C159.752689,144.918169 155.643168,141.4053 145.369181,149.732527 C145.369181,149.732527 132.747374,157.149206 121.739903,153.766321 C121.739903,153.766321 108.677857,149.862841 105.522126,147.455827 C105.522126,147.455827 104.274719,146.479957 107.06315,145.048813 C107.06315,145.048813 109.998575,142.446163 101.853217,143.552347 C101.853217,143.552347 97.8903187,142.251186 90.772062,134.89983 C90.772062,134.89983 79.9848962,122.474477 88.424243,112.911082 C88.424243,112.911082 97.5237628,101.200971 111.906526,105.364419 C111.906526,105.364419 117.190143,107.446143 114.915263,109.593189 C114.915263,109.593189 114.021387,111.533053 110.946038,109.717235 C110.946038,109.717235 97.1568346,103.347687 93.0473141,112.976074 C93.0473141,112.976074 88.7174878,119.0266 89.6712776,124.685855 C89.6712776,124.685855 91.9331327,124.7393 91.5729031,126.892285 C91.5729031,126.892285 90.0382058,131.386961 97.3030849,135.745716 C97.3030849,135.745716 98.9911031,135.030144 99.1377255,136.721586 C99.1377255,136.721586 105.962365,145.243789 117.99731,141.600606 C117.99731,141.600606 127.977308,136.135998 117.190143,128.914625 C117.190143,128.914625 114.108095,127.613465 112.346766,128.914625 C112.346766,128.914625 113.888162,130.671389 112.12646,134.184258 C112.12646,134.184258 111.319665,136.85157 114.107723,137.762448 C114.107723,137.762448 112.934,139.843842 110.585809,137.762448 C110.585809,137.762448 105.155198,132.818436 101.853217,133.663662 C101.853217,133.663662 99.4313424,133.078404 99.578337,130.99635 C99.578337,130.99635 98.4775526,127.028207 104.568336,124.620863 C104.568336,124.620863 109.998575,123.320033 106.916527,119.806834 C106.916527,119.806834 105.302192,119.806834 104.714959,118.245706 C104.714959,118.245706 103.540863,114.992806 100.458816,116.42395 C100.458816,116.42395 97.670013,117.464812 96.4962896,116.42428 C96.4962896,116.42428 95.0285771,115.12312 93.4142422,116.42395 C93.4142422,116.42395 95.5421276,110.113786 105.889054,111.089326 C105.889054,111.089326 109.704958,111.609592 109.117724,114.992806 C109.117724,114.992806 108.677857,118.635658 113.961101,117.855094 C113.961101,117.855094 120.859052,114.732508 124.234716,114.732508 C124.234716,114.732508 125.922734,115.057798 125.115567,117.855094 C125.115567,117.855094 119.171406,125.076467 129.592015,125.206121 C129.592015,125.206121 140.379181,128.524343 138.764846,119.546536 C138.764846,119.546536 135.682799,120.327101 136.19635,117.529804 C136.19635,117.529804 137.003517,114.602194 134.948943,113.17105 C134.948943,113.17105 130.6928,109.137586 129.665327,105.364419 C129.665327,105.364419 124.895261,95.1507742 130.179249,85.9129993 C130.179249,85.9129993 129.73901,84.0912432 128.344609,84.0262512 C128.344609,84.0262512 124.088466,82.4647931 121.813586,79.2772147 C121.813586,79.2772147 119.785061,77.8391425 117.53251,77.0434026" id="Fill-22" fill="#71E721"></path>
                                        <path d="M69.864805,115.72457 C69.864805,115.72457 72.7453598,117.828419 72.3023488,121.246924 C72.3023488,121.246924 71.1943999,128.347666 69.5324766,126.112451 C69.5324766,126.112451 67.2058963,121.773387 69.864805,115.72457" id="Fill-24" fill="#71E721"></path>
                                        <path d="M76.5734148,96.5946503 C76.5734148,96.5946503 72.5569606,102.904152 68.0946947,109.342619 C68.0946947,109.342619 65.5657882,113.849219 64.6734104,117.712299 C64.6734104,117.712299 63.4834477,121.575052 60.9545412,122.734107 C60.9545412,122.734107 60.9639703,115.788921 58.7281228,120.806485 C58.7281228,120.806485 55.5995203,127.62695 67.0533358,137.799532 C67.0533358,137.799532 69.8794502,141.275716 67.4995247,141.533646 C67.4995247,141.533646 59.7645784,137.155685 56.9384641,129.558163 C56.9384641,129.558163 55.4599684,125.961176 53.8192908,125.055481 C53.8192908,125.055481 50.4934299,110.592765 54.9059097,104.495158 C54.9059097,104.495158 56.6408791,98.9124331 60.6569562,97.496101 C60.6569562,97.496101 66.607147,94.6634368 64.2272215,101.101577 C64.2272215,101.101577 59.8837633,104.088673 62.8697965,104.8321 C62.8697965,104.8321 73.3011116,96.5946503 74.9372632,95.1783182 C74.9372632,95.1783182 78.2487918,93.998368 76.5734148,96.5946503" id="Fill-26" fill="#71E721"></path>
                                        <path d="M110.106502,164.54051 C107.600675,164.880429 110.106502,167.59978 110.106502,167.59978 C111.484764,168.166424 116.746739,174.171432 116.746739,174.171432 C120.379757,174.057899 124.890022,175.64464 124.890022,175.64464 C129.149591,177.57096 142.304905,175.64464 142.304905,175.64464 C147.817576,173.378741 160.471123,171.678806 160.471123,171.678806 C174.127076,169.866019 183.022445,162.614189 183.022445,162.614189 C185.653433,161.027788 184.776562,156.722375 184.776562,156.722375 C184.651402,154.22975 187.53271,149.697271 187.53271,149.697271 C188.910971,147.204306 186.154448,148.564322 186.154448,148.564322 C159.719412,164.313784 153.45503,160.687869 143.745558,160.489696 C135.512447,160.321776 127.145154,161.821158 127.145154,161.821158 C122.384194,162.500996 118.375321,159.554919 118.375321,159.554919 C114.867463,158.195244 112.361635,160.688209 112.361635,160.688209 C112.361635,160.688209 112.61233,161.368047 116.621204,161.707966 C116.621204,161.707966 122.212052,164.190393 126.362247,164.653703 C129.822748,165.04019 136.15328,165.75402 141.020607,164.908642 C143.576799,164.464368 146.697151,163.99494 150.698883,163.747479 C154.25222,163.527891 163.676041,161.760993 164.928767,163.120668 C164.928767,163.120668 166.796017,164.094876 163.978981,165.447073 C160.296726,167.214312 149.821636,169.5261 143.682791,169.639293 C143.682791,169.639293 132.785616,170.915349 127.959633,169.752486 C123.427569,168.660667 110.106502,164.54051 110.106502,164.54051" id="Fill-28" fill="#459223"></path>
                                        <path d="M98.4294283,176.401778 C98.4294283,176.401778 104.180011,177.047278 107.51906,178.822406 C107.51906,178.822406 111.44207,180.920284 108.645803,176.401778 C108.645803,176.401778 106.591546,173.658399 110.672605,175.433526 C110.672605,175.433526 130.150386,182.695411 138.498007,182.372661 C138.498007,182.372661 145.570853,181.40441 147.59951,183.018162 C147.59951,183.018162 149.999173,184.309164 153.152718,184.147789 C153.152718,184.147789 153.361965,185.600166 147.59951,185.43879 C147.59951,185.43879 137.384991,183.986413 133.303932,184.470539 C133.303932,184.470539 131.0779,185.600166 134.045943,187.213918 L135.529964,188.989045 L130.150386,188.989045 C130.150386,188.989045 118.463718,181.243034 107.890065,182.695411 C107.890065,182.695411 106.406043,183.340912 103.623503,181.243034 C103.623503,181.243034 95.2758828,177.047278 98.4294283,176.401778" id="Fill-30" fill="#459223"></path>
                                        <path d="M69.0648356,140.23004 C69.0648356,140.23004 68.8623775,136.376088 72.3041657,136.543651 C72.3041657,136.543651 76.9607027,136.878777 77.365619,143.078614 C77.365619,143.078614 79.7951165,150.451392 82.6295304,152.294587 C82.6295304,152.294587 83.2369047,155.64585 80.4024909,157.991734 C80.4024909,157.991734 77.7705352,159.834929 72.1017076,152.127024 C72.1017076,152.127024 64.6107567,146.429877 69.0648356,140.23004" id="Fill-32" fill="#459223"></path>
                                        <path d="M100.995509,129.324627 C104.418654,136.326463 111.319048,142.458816 111.319048,142.458816 C113.930996,143.44388 114.304132,145.2321 114.304132,145.2321 C116.169809,148.881434 126.368721,152.309458 126.368721,152.309458 C133.582549,154.170244 133.707176,155.836644 133.707176,155.836644 C133.707176,157.393702 130.144852,156.578069 130.144852,156.578069 C128.199323,155.92136 122.886247,155.373992 122.886247,155.373992 C113.433234,154.607941 109.453371,152.090445 109.453371,152.090445 C107.338812,150.777026 105.099999,150.558014 105.099999,150.558014 C101.368645,150.886368 101.368645,149.68262 101.368645,149.68262 C100.746628,148.369201 99.1298318,147.135572 99.1298318,147.135572 C97.3884085,146.230298 95.3984771,143.005855 95.3984771,143.005855 C94.1548166,137.314154 90.423462,136.329419 90.423462,136.329419 C86.6921073,135.125342 86.8163614,130.090679 86.8163614,130.090679 C85.9454632,123.851939 87.8111406,110.937091 87.8111406,110.937091 C87.8111406,109.185976 88.6820387,108.200912 88.6820387,108.200912 C91.4182411,104.58901 95.1495958,84.5590435 95.1495958,84.5590435 C96.7667649,80.9471416 99.1298318,79.7433932 99.1298318,79.7433932 C101.617153,78.5393164 106.467914,73.8330082 106.467914,73.8330082 C109.079862,71.7532094 106.094778,71.3155126 106.094778,71.3155126 C100.000357,70.6588031 93.4081725,73.9423503 93.4081725,73.9423503 C86.3185987,77.7732648 83.2715745,83.5739793 83.2715745,83.5739793 C81.5924649,86.9396152 78.6073812,85.708285 78.6073812,85.708285 C75.9021491,85.4620189 73.9431879,90.1410737 73.9431879,90.1410737 C72.0775106,91.7007586 72.2640783,89.812719 72.2640783,89.812719 C70.8648203,87.3500586 69.7536229,91.4380748 69.6521301,92.2753794 C69.324144,94.9688731 69.7166825,97.3993548 69.4655623,99.0887398 C68.7450377,103.926718 68.2528721,116.491212 68.2528721,116.491212 C68.4394398,119.610581 67.3200334,119.528493 67.3200334,119.528493 C66.0140593,119.528493 65.7342077,118.050896 65.7342077,118.050896 L65.6409238,107.708051 C64.7080851,105.573745 63.7752465,107.051342 63.7752465,107.051342 C59.950608,110.334889 61.9095692,118.46134 61.9095692,118.46134 C63.9618142,120.595646 63.1091997,128.065715 63.1091997,128.065715 C62.9095722,132.005972 64.801369,135.453697 64.801369,135.453697 C66.2939109,138.737244 63.4953949,140.953638 63.4953949,140.953638 C62.1894208,143.416299 64.6148013,146.45358 64.6148013,146.45358 C66.200627,148.752063 67.1644359,154.170244 67.1644359,154.170244 C71.1442988,168.836864 79.3536521,175.184946 79.3536521,175.184946 C82.5876172,177.374087 82.5753037,172.995805 82.5753037,172.995805 C81.4443301,170.916335 75.6487901,165.991014 75.6487901,165.991014 C72.5622135,162.594841 70.5700433,158.078322 70.1651913,156.140044 C70.0345939,155.517155 70.4872072,155.20883 70.7715364,155.26465 C73.3286338,155.76769 76.1196871,160.422118 77.9077522,163.035493 C78.6249186,164.08393 79.1047708,165.662659 79.1047708,165.662659 C80.0995499,167.195091 82.5753037,166.100356 82.5753037,166.100356 C84.553668,168.727194 93.0350371,176.607379 93.0350371,176.607379 C99.37834,181.751712 105.721643,183.612827 105.721643,183.612827 C109.701879,185.473613 107.463066,185.91131 107.463066,185.91131 C105.348507,186.677361 110.572404,187.334071 110.572404,187.334071 C113.184352,188.647489 115.050029,187.553083 115.050029,187.553083 C116.169436,186.896374 117.413096,185.364599 117.413096,185.364599 C122.512739,187.006373 129.72694,186.512855 129.72694,186.512855 C125.373568,189.302885 127.114992,190.946629 127.114992,190.946629 C130.722092,192.807415 133.706803,187.881766 133.706803,187.881766 C136.318751,190.289591 144.154969,188.538476 144.154969,188.538476 C152.239322,184.707561 160.946065,186.512855 160.946065,186.512855 C161.3192,190.178607 165.299063,188.210121 165.299063,188.210121 C167.786757,184.379206 162.811742,185.254928 162.811742,185.254928 L161.3192,183.613155 C167.413622,181.752369 177.612533,174.47964 177.612533,174.47964 C179.975973,172.678943 179.975973,171.573701 179.975973,171.573701 C179.105075,171.026662 175.373721,173.324816 175.373721,173.324816 C172.264383,176.608364 167.16474,176.936718 167.16474,176.936718 C164.055403,176.827376 159.702031,179.31335 159.702031,179.31335 C156.592693,181.0336 155.349033,179.891911 155.349033,179.891911 C154.478135,179.235201 152.363949,178.32139 152.363949,178.32139 C149.254238,178.501985 150.24939,177.154746 150.24939,177.154746 C150.24939,177.154746 150.74678,174.308896 170.398705,171.025348 C170.398705,171.025348 177.115144,169.493245 181.592769,164.677267 C181.592769,164.677267 185.573005,163.364176 184.826734,166.209698 C184.826734,166.209698 182.960684,170.806664 186.070395,168.070484 C186.070395,168.070484 188.558089,167.304104 188.433462,163.801873 C188.433462,163.801873 189.926004,159.970958 192.911087,157.563133 C192.911087,157.563133 198.632747,155.483991 198.881255,158.329513 C198.881255,158.329513 198.383865,161.832073 194.030494,163.911543 C194.030494,163.911543 192.911087,169.383903 194.901392,170.697322 C194.901392,170.697322 195.647663,174.747249 189.30436,176.060668 C189.30436,176.060668 178.483058,179.125531 183.085311,181.971053 C183.085311,181.971053 187.314055,185.802296 174.565509,185.254928 C174.565509,185.254928 170.52296,185.58197 173.383789,186.512855 C173.383789,186.512855 180.597617,188.209793 175.995737,189.742224 C175.995737,189.742224 173.508043,190.617946 172.513264,191.60301 C172.513264,191.60301 170.52296,192.150378 168.78191,191.60301 C168.78191,191.60301 167.78713,189.743209 163.931148,194.887214 C163.931148,194.887214 143.781833,195.325239 139.552716,193.90215 C139.552716,193.90215 129.104923,192.825475 136.194497,194.950587 C136.194497,194.950587 130.100448,194.448861 126.244467,198.827142 C126.244467,198.827142 126.368721,199.702536 125.000433,199.812207 C125.000433,199.812207 122.637366,199.046155 121.393706,198.061091 C121.393706,198.061091 110.697031,192.151034 103.234322,191.713009 C103.234322,191.713009 104.975745,185.364271 97.1399003,189.195185 C97.1399003,189.195185 95.0253416,190.727617 93.9059352,188.757488 C93.9059352,188.757488 92.0160041,182.300064 82.5753037,184.707889 C82.5753037,184.707889 79.4066374,179.124874 75.6487901,180.109938 C75.6487901,180.109938 74.3163234,170.833918 74.596175,179.699495 C74.596175,179.699495 67.8797366,172.804046 63.4953949,174.938352 C63.4953949,174.938352 60.7901628,178.057721 59.2976209,175.348795 C59.2976209,175.348795 62.2827046,173.624933 57.5252275,171.408538 C57.5252275,171.408538 57.152092,170.916006 59.6707564,170.259297 C59.6707564,170.259297 63.5886788,169.848853 54.7267115,163.610114 C54.7267115,163.610114 50.8087891,158.766882 49.6893827,159.259414 C49.6893827,159.259414 48.103557,159.728961 49.1296795,160.807606 C49.1296795,160.807606 50.6222214,161.393719 50.5289375,164.759355 C50.5289375,164.759355 50.4356536,165.826508 53.6073051,166.154863 C53.6073051,166.154863 56.2192533,168.289168 52.3946148,169.110055 C52.3946148,169.110055 49.5960988,168.781701 47.2640022,166.647395 L41.9468218,161.475808 C41.9468218,161.475808 39.6147252,159.341502 41.9468218,157.863906 L42.506525,150.80428 C42.506525,150.80428 36.909493,146.781934 35.4169512,144.647629 C35.4169512,144.647629 38.308751,142.595412 39.3348736,140.625283 C39.3348736,140.625283 41.0139831,136.73625 34.6706802,135.520353 C34.6706802,135.520353 39.1483058,135.125342 38.8684542,131.51344 C38.8684542,131.51344 38.2154672,128.558247 34.6706802,127.901538 C34.6706802,127.901538 32.7117191,125.438878 32.8982868,120.103113 C32.8982868,120.103113 33.2714223,117.640453 34.3908286,115.342298 C34.3908286,115.342298 36.3497898,113.290081 36.3497898,111.648308 C36.3497898,111.648308 35.510235,106.55881 36.256506,102.864819 C36.256506,102.864819 36.8162092,99.2529171 38.2154672,98.1036756 C38.2154672,98.1036756 39.3348736,98.4320303 39.2415897,99.5812719 C39.2415897,99.5812719 37.4691962,104.752859 38.7751704,106.55881 C38.7751704,106.55881 39.9878606,108.118495 41.2938347,106.55881 C41.2938347,106.55881 42.7863766,103.685706 42.506525,99.9917153 C42.506525,99.9917153 44.1856346,99.6633605 43.905783,101.961844 C43.905783,101.961844 42.4132411,104.342415 43.9990669,105.163302 C43.9990669,105.163302 46.5173581,107.981899 49.0050523,98.5686259 C49.0050523,98.5686259 49.1979633,89.812719 52.0864049,86.5291718 C52.0864049,86.5291718 54.4778301,85.6534497 54.7263383,87.6235781 C54.7263383,87.6235781 51.4367761,90.6881127 52.0864049,92.8772536 C52.0864049,92.8772536 53.2341696,93.7529756 58.2091848,86.3101592 L64.1084565,78.6486585 C64.1084565,78.6486585 63.4718874,74.0516925 65.8155512,73.8326799 C65.8155512,73.8326799 71.6416883,71.4248547 69.9006383,74.7084019 C69.9006383,74.7084019 68.8763814,76.8972145 67.522646,77.7729365 C67.522646,77.7729365 57.4629138,86.747856 56.9651511,90.9071253 C56.9651511,90.9071253 56.9651511,96.3798134 60.6965058,90.9071253 C60.6965058,90.9071253 65.7398047,81.9322057 68.7219033,80.7829642 C68.7219033,80.7829642 69.8386978,81.4396736 67.0401818,85.8724623 C67.0401818,85.8724623 64.0550981,89.6485416 64.801369,91.7828473 C64.801369,91.7828473 65.3610722,94.0813303 64.0550981,96.5439907 C64.0550981,96.5439907 62.9356917,100.648425 64.4282335,100.648425 C64.4282335,100.648425 67.1547344,100.723946 66.6670463,93.917153 C66.6670463,93.917153 69.6521301,89.1560095 70.2118332,85.3799303 C70.2118332,85.3799303 72.2640783,79.4695453 73.5700524,78.6486585 C73.5700524,78.6486585 74.5028911,78.8128359 74.5028911,79.7979 C74.5028911,79.7979 78.2342457,83.0814472 77.6745425,78.1561264 C77.6745425,78.1561264 75.8088652,76.6785302 78.9805167,73.0666283 C78.9805167,73.0666283 82.1521681,70.6039679 79.9133553,70.4397905 C79.9133553,70.4397905 75.8088652,71.4248547 73.9431879,77.499417 C73.9431879,77.499417 73.0103492,76.0218208 73.0103492,73.5591604 L71.7043751,73.2308057 C71.7043751,73.2308057 73.3834847,73.2308057 74.5028911,70.4397905 C74.5028911,70.4397905 80.0137288,64.0368735 82.5753037,62.0667452 C82.5753037,62.0667452 83.9316511,60.0966169 82.5753037,58.6190207 C82.5753037,58.6190207 81.6857488,57.7160452 81.6857488,56.5668037 C81.6857488,56.5668037 77.7678264,57.0593357 77.4879748,60.3428829 C77.4879748,60.3428829 78.4208135,65.4323811 72.8237815,64.7756716 C72.8237815,64.7756716 70.0252655,63.133898 72.5439299,61.0816811 C72.5439299,61.0816811 74.4096072,59.9324395 75.9021491,59.1115527 C75.9021491,59.1115527 76.7417039,57.9623112 75.0625943,56.5668037 C75.0625943,56.5668037 72.7304976,54.678764 75.9021491,52.380281 C75.9021491,52.380281 85.3238196,47.4549602 87.7492001,45.8131866 C87.7492001,45.8131866 91.3872709,43.1863489 87.0029292,42.119196 C87.0029292,42.119196 81.5924649,40.8878658 88.495471,37.1938752 C88.495471,37.1938752 93.4395159,33.1715299 95.491761,31.0372243 C95.491761,31.0372243 97.4507222,30.6451687 98.8499802,30.1434427 C98.8499802,30.1434427 100.52909,29.6417167 96.6111674,28.8208299 C96.6111674,28.8208299 94.9320578,27.9178544 99.7828188,27.9999431 C99.7828188,27.9999431 104.167161,28.7282339 107.991799,27.9946894 C107.991799,27.9946894 115.081373,26.0298148 120.118702,28.4103865 C120.118702,28.4103865 127.114992,32.2685545 130.006791,31.2834903 C130.006791,31.2834903 127.114992,27.3432337 120.585121,26.7686129 C120.585121,26.7686129 124.503043,26.4402582 127.674695,26.7686129 C127.674695,26.7686129 128.887385,27.6715884 129.633656,28.6566525 C129.633656,28.6566525 133.365011,31.611845 132.61874,29.2312733 C132.61874,29.2312733 131.779185,27.7536771 130.846346,27.261145 C130.846346,27.261145 129.820224,26.6865242 132.059036,25.9477261 C132.059036,25.9477261 138.682191,24.1417752 141.573991,25.455194 C141.573991,25.455194 142.786681,26.1119035 145.118778,25.6193714 C145.118778,25.6193714 150.71581,25.3731054 150.809094,26.5223469 C150.809094,26.5223469 148.756849,28.2462091 150.435958,28.9029186 C150.435958,28.9029186 154.540448,31.365579 158.738222,32.4327318 C158.738222,32.4327318 163.122564,33.9103281 165.547944,36.0446337 C165.547944,36.0446337 171.424828,40.3132451 175.249467,40.8057772 C175.249467,40.8057772 187.936072,55.7731703 191.791681,67.1562434 C191.791681,67.1562434 192.164817,70.7681453 194.652511,71.7532094 C194.652511,71.7532094 197.51334,73.6136673 197.51334,76.4595176 C197.51334,76.4595176 195.523036,81.8225352 196.642442,84.2306887 C196.642442,84.2306887 198.011103,85.6534497 197.886476,87.8425907 C197.886476,87.8425907 195.398782,93.3149504 198.881255,93.3149504 C198.881255,93.3149504 202.737237,93.4246209 204.727168,90.3597579 C204.727168,90.3597579 204.97605,89.4843643 207.214862,89.7030485 C207.214862,89.7030485 208.955912,90.7977831 205.473439,93.533963 C205.473439,93.533963 200.995814,97.5835618 196.642442,97.4742196 C196.642442,97.4742196 191.791681,96.7081681 191.791681,101.195464 C191.791681,101.195464 192.289444,110.60808 187.314055,110.717751 L187.314055,108.200583 L184.453599,108.200583 C184.453599,108.200583 183.334193,108.200583 184.328972,104.369669 C184.328972,104.369669 186.692412,100.538754 184.826734,98.8969806 C184.826734,98.8969806 182.712176,98.4592838 182.33904,103.05625 L181.592769,93.4246209 C181.592769,93.4246209 183.831582,92.9865957 182.83643,90.4694284 C182.83643,90.4694284 180.473363,89.2653517 180.597617,86.9668686 C180.597617,86.9668686 181.468515,84.449373 179.353957,82.8075994 C179.353957,82.8075994 177.488652,80.728129 177.737161,77.9919491 C177.737161,77.9919491 176.99089,74.4893893 178.607686,73.1759704 C178.607686,73.1759704 180.473363,73.3946547 180.597617,75.5837956 C180.597617,75.5837956 180.788289,80.0247932 182.336055,80.8423964 C182.556578,80.9589623 182.80546,81.0016484 183.085311,80.9471416 C185.324124,80.5091164 185.19987,79.4147101 184.453599,75.5837956 C184.453599,75.5837956 179.105448,57.8526407 173.632671,57.3056018 C173.632671,57.3056018 171.984531,55.8280055 172.264383,54.8429414 C172.264383,54.8429414 173.943492,53.9399659 175.436034,55.4996508 C175.436034,55.4996508 178.421118,56.484715 175.715886,53.6116112 C175.715886,53.6116112 167.13377,42.3654621 165.268093,45.977364 C165.268093,45.977364 165.547944,47.4549602 163.588983,46.9624281 C163.588983,46.9624281 161.35017,48.8504678 165.361377,50.4922414 C165.361377,50.4922414 169.186015,51.8056602 171.424828,56.0742716 C171.424828,56.0742716 172.264383,57.6339565 170.678557,56.8951584 C170.678557,56.8951584 156.872545,43.1863489 149.0367,42.2833734 C149.0367,42.2833734 146.238184,41.2983092 143.066533,41.2162205 C143.066533,41.2162205 139.801597,40.7236885 134.204565,36.2908998 C134.204565,36.2908998 124.876179,32.0222884 118.253024,31.365579 C118.253024,31.365579 115.641076,31.1193129 117.41347,32.5148205 C117.41347,32.5148205 123.103785,36.9476092 129.260521,37.6864073 C129.260521,37.6864073 120.958256,39.0819149 111.070167,38.8356488 C111.070167,38.8356488 103.141038,39.1640036 98.943264,43.6788809 C98.943264,43.6788809 96.6111674,45.4027432 94.1857868,46.8803395 C94.1857868,46.8803395 87.2827808,50.4922414 90.2678645,49.7534432 C90.2678645,49.7534432 103.794025,45.977364 107.991799,45.4848319 C107.991799,45.4848319 109.670909,45.1564772 109.95076,46.22363 C109.95076,46.22363 111.070167,47.5370489 116.480631,47.9474923 C116.480631,47.9474923 128.794101,48.8504678 129.633656,51.1489508 C129.633656,51.1489508 128.607533,51.3131282 126.741856,50.7385074 C126.741856,50.7385074 112.096289,47.4549602 109.764192,49.9997093 C109.764192,49.9997093 107.991799,51.9698376 105.286567,52.0519263 C105.286567,52.0519263 103.42089,52.134015 103.42089,53.4474338 C103.42089,53.4474338 103.327606,53.8578772 101.835064,54.186232 C101.835064,54.186232 98.0104254,55.9921829 100.435806,55.9100942 C100.435806,55.9100942 103.234322,56.1563603 101.275361,57.4697791 C101.275361,57.4697791 96.7044512,58.8652867 95.3051932,57.8802225 C95.3051932,57.8802225 93.8126514,56.730981 92.9730966,57.5518678 C92.9730966,57.5518678 87.8424839,61.4100358 85.2305357,62.9697207 C85.2305357,62.9697207 81.7790326,67.9771302 85.043968,66.4174452 C85.043968,66.4174452 86.2566582,65.3502924 87.2827808,64.2831396 C87.2827808,64.2831396 88.7753226,63.0518094 93.0663805,61.8204792 C93.0663805,61.8204792 97.1708706,60.589149 100.902225,59.5219961 C100.902225,59.5219961 116.760482,54.7608527 131.032914,58.6190207 C131.032914,58.6190207 134.764269,60.1787056 136.25681,61.4921245 C136.25681,61.4921245 124.316476,60.835415 122.823934,62.887632 C122.823934,62.887632 122.917218,67.4025094 135.417256,67.8950415 C135.417256,67.8950415 148.756849,70.2756132 153.327758,78.5665698 C153.327758,78.5665698 158.831506,88.3351227 159.111358,91.6186699 C159.111358,91.6186699 159.204642,92.9320888 156.406126,92.2753794 C156.406126,92.2753794 152.674771,92.2753794 158.644938,96.1335473 C158.644938,96.1335473 160.230764,99.1708285 159.484493,107.79014 C159.484493,107.79014 157.432248,121.662798 145.212062,122.976217 C145.212062,122.976217 131.032914,125.2747 124.876179,114.6035 C124.876179,114.6035 123.010501,110.334889 125.995585,110.2528 C125.995585,110.2528 127.954546,109.528778 128.607533,112.39433 C128.607533,112.39433 132.805307,124.125459 142.320262,120.349379 C142.320262,120.349379 149.409836,118.953872 152.861339,114.849766 C152.861339,114.849766 151.462081,113.551123 153.234474,112.39433 C153.234474,112.39433 157.432248,110.416978 155.939706,103.603617 C155.939706,103.603617 154.353881,103.111085 155.473287,101.961844 C155.473287,101.961844 157.24568,92.7679114 146.984455,88.3351227 C146.984455,88.3351227 136.72323,86.2008171 138.402339,96.7902568 C138.402339,96.7902568 139.428462,99.3350058 141.480707,99.4991832 C141.480707,99.4991832 141.760559,97.5290549 145.398629,96.2977247 C145.398629,96.2977247 147.82401,95.0663945 146.704603,92.9320888 C146.704603,92.9320888 148.943416,92.2753794 148.943416,94.9022171 C148.943416,94.9022171 148.850132,101.058868 151.555365,102.372287 C151.555365,102.372287 152.674771,104.096149 151.088945,105.327479 C151.088945,105.327479 148.943416,108.446849 143.346384,106.55881 C143.346384,106.55881 138.962043,104.342415 138.402339,108.282672 C138.402339,108.282672 139.428462,109.185647 138.682191,110.499066 C138.682191,110.499066 137.096365,113.207993 140.081449,114.02888 C140.081449,114.02888 142.600113,114.931855 142.600113,116.244946 C142.600113,116.244946 142.600113,117.886719 144.559075,117.968808 C144.559075,117.968808 138.682191,120.759823 132.805307,114.357234 C132.805307,114.357234 130.753062,111.894574 133.551578,110.088623 C133.551578,110.088623 136.443378,108.036406 132.525456,105.573745 C132.525456,105.573745 125.902301,103.685706 123.756772,101.797666 C123.756772,101.797666 122.917218,100.648425 125.435882,99.3350058 C125.435882,99.3350058 134.391133,98.1036756 127.861263,92.1932907 C127.861263,92.1932907 123.383637,84.0665114 117.973173,90.6336058 C117.973173,90.6336058 120.491837,91.864936 118.15974,93.3425322 C118.15974,93.3425322 115.547792,94.7380398 115.827644,96.7902568 C115.827644,96.7902568 115.641076,101.715578 113.588831,104.67077 C113.588831,104.67077 109.297773,113.782613 99.3163995,116.655389 C99.3163995,116.655389 98.290277,118.050896 99.1298318,118.871783 C99.1298318,118.871783 100.715657,122.237419 99.8761027,125.520966 C99.8761027,125.520966 100.134312,127.563004 100.995509,129.324627" id="Fill-34" fill="#48981D"></path>
                                        <path d="M157.995425,133.208138 C157.995425,133.208138 157.096787,130.017059 159.792703,128.345541 C159.792703,128.345541 165.54399,125.002506 165.364262,127.433804 C165.364262,127.433804 164.285896,131.53662 157.995425,133.208138" id="Fill-36" fill="#48981D"></path>
                                        <path d="M142.226681,142.104204 C142.226681,142.104204 149.234031,140.296521 156.61019,138.653172 C156.61019,138.653172 161.404693,137.174159 164.723965,135.202141 C164.723965,135.202141 168.22764,133.394458 170.624892,134.051797 C170.624892,134.051797 165.645985,138.478649 170.624892,136.511561 C170.624892,136.511561 177.447839,133.887463 177.632243,121.069346 C177.632243,121.069346 178.369859,117.289974 180.029494,118.439989 C180.029494,118.439989 181.68913,125.506387 178.001051,131.915445 C178.001051,131.915445 176.341415,135.027618 176.710223,136.511561 C176.710223,136.511561 168.415732,147.577868 161.314335,149.031574 C161.314335,149.031574 156.241382,151.635624 152.737707,150.320945 C152.737707,150.320945 147.021184,148.841932 153.106515,146.04824 C153.106515,146.04824 157.937899,146.541244 156.619042,144.417381 C156.619042,144.417381 144.255124,143.911887 142.226681,143.911887 C142.226681,143.911887 139.329325,142.835494 142.226681,142.104204" id="Fill-38" fill="#48981D"></path>
                                        <path d="M55.7329082,37.6569159 L62.0131455,34.6054851 L58.8730269,32.4694836 C58.8730269,32.4694836 53.2208133,33.3849128 50.2900359,32.4694836 C50.2900359,32.4694836 43.1724336,33.3849128 47.3592585,37.6569159 C47.3592585,37.6569159 52.5927896,42.8443481 55.7329082,37.6569159" id="Fill-44" fill="#FFFFFF"></path>
                                        <path d="M27.4980465,80.874513 C27.4980465,80.874513 33.619279,78.7378446 37.7001006,80.874513 C37.7001006,80.874513 39.3324293,82.1209029 39.3324293,84.969794 C39.3324293,84.969794 39.7405114,88.8870194 42.3930455,89.0650751 C42.3930455,89.0650751 45.2496206,91.9139662 40.3526347,92.9823004 C40.3526347,92.9823004 35.0475666,94.7628574 32.8031147,89.0650751 C32.8031147,89.0650751 32.1909914,86.750351 29.9465395,85.1478497 C29.9465395,85.1478497 26.2738,83.1892371 27.4980465,80.874513" id="Fill-54" fill="#FFFFFF"></path>
                                        <path d="M46.2211983,154.233689 C46.2211983,154.233689 45.0234845,151.214846 48.7877279,151.550273 C48.7877279,151.550273 53.7496851,151.8857 50.6698496,155.74311 C50.6698496,155.74311 48.10332,158.258813 46.2211983,154.233689" id="Fill-68" fill="#FFFFFF"></path>
                                        <path d="M46.9796557,141.949922 C46.9796557,142.63936 46.1382525,143.198748 45.1006265,143.198748 C44.0626865,143.198748 43.2212833,142.63936 43.2212833,141.949922 C43.2212833,141.260484 44.0626865,140.701095 45.1006265,140.701095 C46.1382525,140.701095 46.9796557,141.260484 46.9796557,141.949922" id="Fill-72" fill="#FFFFFF"></path>
                                        <path d="M95.8384977,37.0485133 C95.8384977,37.2785488 95.6281996,37.4647887 95.3687011,37.4647887 C95.1092026,37.4647887 94.8989045,37.2785488 94.8989045,37.0485133 C94.8989045,36.8186233 95.1092026,36.6322379 95.3687011,36.6322379 C95.6281996,36.6322379 95.8384977,36.8186233 95.8384977,37.0485133" id="Fill-76" fill="#FFFFFF"></path>
                                        <path d="M96.7780908,39.5461659 C96.7780908,40.235914 96.5677785,40.7949922 96.3082942,40.7949922 C96.0488099,40.7949922 95.8384977,40.235914 95.8384977,39.5461659 C95.8384977,38.8564178 96.0488099,38.2973396 96.3082942,38.2973396 C96.5677785,38.2973396 96.7780908,38.8564178 96.7780908,39.5461659" id="Fill-78" fill="#FFFFFF"></path>
                                        <path d="M93.9593114,42.0438185 C93.9593114,42.7335548 93.3282365,43.2926448 92.5499218,43.2926448 C91.771607,43.2926448 91.1405321,42.7335548 91.1405321,42.0438185 C91.1405321,41.3540821 91.771607,40.7949922 92.5499218,40.7949922 C93.3282365,40.7949922 93.9593114,41.3540821 93.9593114,42.0438185" id="Fill-80" fill="#FFFFFF"></path>
                                        <path d="M69.5298905,56.1971831 C69.5298905,56.4271185 69.3196475,56.6134585 69.0600939,56.6134585 C68.8005403,56.6134585 68.5902973,56.4271185 68.5902973,56.1971831 C68.5902973,55.9672477 68.8005403,55.7809077 69.0600939,55.7809077 C69.3196475,55.7809077 69.5298905,55.9672477 69.5298905,56.1971831" id="Fill-82" fill="#FFFFFF"></path>
                                        <path d="M76.1070423,61.1924883 C76.1070423,61.8822246 75.4759673,62.4413146 74.6976526,62.4413146 C73.9193379,62.4413146 73.2882629,61.8822246 73.2882629,61.1924883 C73.2882629,60.5027519 73.9193379,59.943662 74.6976526,59.943662 C75.4759673,59.943662 76.1070423,60.5027519 76.1070423,61.1924883" id="Fill-84" fill="#FFFFFF"></path>
                                        <path d="M111.811581,35.3834116 C111.811581,36.0731722 111.18055,36.6322379 110.402191,36.6322379 C109.623832,36.6322379 108.992801,36.0731722 108.992801,35.3834116 C108.992801,34.6939721 109.623832,34.1345853 110.402191,34.1345853 C111.18055,34.1345853 111.811581,34.6939721 111.811581,35.3834116" id="Fill-90" fill="#FFFFFF"></path>
                                        <path d="M124.026291,39.5461659 C124.026291,39.7761013 123.395318,39.9624413 122.616901,39.9624413 C121.838485,39.9624413 121.207512,39.7761013 121.207512,39.5461659 C121.207512,39.3162305 121.838485,39.1298905 122.616901,39.1298905 C123.395318,39.1298905 124.026291,39.3162305 124.026291,39.5461659" id="Fill-92" fill="#FFFFFF"></path>
                                        <path d="M139.999374,49.5367762 C139.999374,50.2264851 139.789062,50.7856025 139.529577,50.7856025 C139.270093,50.7856025 139.059781,50.2264851 139.059781,49.5367762 C139.059781,48.8470673 139.270093,48.2879499 139.529577,48.2879499 C139.789062,48.2879499 139.999374,48.8470673 139.999374,49.5367762" id="Fill-94" fill="#FFFFFF"></path>
                                        <path d="M193.556182,141.949922 C193.556182,142.179845 193.345884,142.366197 193.086385,142.366197 C192.826886,142.366197 192.616588,142.179845 192.616588,141.949922 C192.616588,141.719999 192.826886,141.533646 193.086385,141.533646 C193.345884,141.533646 193.556182,141.719999 193.556182,141.949922" id="Fill-104" fill="#FFFFFF"></path>
                                        <path d="M197.314554,148.610329 C197.314554,149.300038 196.683523,149.859155 195.905164,149.859155 C195.126805,149.859155 194.495775,149.300038 194.495775,148.610329 C194.495775,147.92062 195.126805,147.361502 195.905164,147.361502 C196.683523,147.361502 197.314554,147.92062 197.314554,148.610329" id="Fill-106" fill="#FFFFFF"></path>
                                        <path d="M179.462285,148.610329 C179.462285,149.300038 178.831312,149.859155 178.052895,149.859155 C177.274478,149.859155 176.643505,149.300038 176.643505,148.610329 C176.643505,147.92062 177.274478,147.361502 178.052895,147.361502 C178.831312,147.361502 179.462285,147.92062 179.462285,148.610329" id="Fill-108" fill="#FFFFFF"></path>
                                        <path d="M179.462285,156.935837 C179.462285,157.625574 178.831191,158.184664 178.052895,158.184664 C177.274599,158.184664 176.643505,157.625574 176.643505,156.935837 C176.643505,156.246101 177.274599,155.687011 178.052895,155.687011 C178.831191,155.687011 179.462285,156.246101 179.462285,156.935837" id="Fill-110" fill="#FFFFFF"></path>
                                        <path d="M169.126761,156.103286 C169.126761,156.792995 168.496017,157.352113 167.717371,157.352113 C166.938725,157.352113 166.307981,156.792995 166.307981,156.103286 C166.307981,155.413577 166.938725,154.85446 167.717371,154.85446 C168.496017,154.85446 169.126761,155.413577 169.126761,156.103286" id="Fill-112" fill="#FFFFFF"></path>
                                        <path d="M169.126761,166.093897 C169.126761,166.32382 168.496017,166.510172 167.717371,166.510172 C166.938725,166.510172 166.307981,166.32382 166.307981,166.093897 C166.307981,165.863974 166.938725,165.677621 167.717371,165.677621 C168.496017,165.677621 169.126761,165.863974 169.126761,166.093897" id="Fill-114" fill="#FFFFFF"></path>
                                        <path d="M132.482629,172.754304 C132.482629,172.984088 132.272331,173.170579 132.012833,173.170579 C131.753334,173.170579 131.543036,172.984088 131.543036,172.754304 C131.543036,172.52452 131.753334,172.338028 132.012833,172.338028 C132.272331,172.338028 132.482629,172.52452 132.482629,172.754304" id="Fill-116" fill="#FFFFFF"></path>
                                        <path d="M106.174022,180.247261 C106.174022,180.93697 105.96371,181.496088 105.704225,181.496088 C105.444741,181.496088 105.234429,180.93697 105.234429,180.247261 C105.234429,179.557552 105.444741,178.998435 105.704225,178.998435 C105.96371,178.998435 106.174022,179.557552 106.174022,180.247261" id="Fill-118" fill="#FFFFFF"></path>
                                        <path d="M81.7446009,181.079812 C81.7446009,181.769497 81.1135702,182.328638 80.3352113,182.328638 C79.5568523,182.328638 78.9258216,181.769497 78.9258216,181.079812 C78.9258216,180.390127 79.5568523,179.830986 80.3352113,179.830986 C81.1135702,179.830986 81.7446009,180.390127 81.7446009,181.079812" id="Fill-120" fill="#FFFFFF"></path>
                                        <path d="M42.2816901,172.754468 C42.2816901,173.444111 41.650877,174.00313 40.8723005,174.00313 C40.0937239,174.00313 39.4629108,173.444111 39.4629108,172.754468 C39.4629108,172.064496 40.0937239,171.505477 40.8723005,171.505477 C41.650877,171.505477 42.2816901,172.064496 42.2816901,172.754468" id="Fill-128" fill="#FFFFFF"></path>
                                        <path d="M58.2547731,166.093897 C58.2547731,166.323826 58.0444751,166.510172 57.7849765,166.510172 C57.525478,166.510172 57.31518,166.323826 57.31518,166.093897 C57.31518,165.863968 57.525478,165.677621 57.7849765,165.677621 C58.0444751,165.677621 58.2547731,165.863968 58.2547731,166.093897" id="Fill-130" fill="#FFFFFF"></path>
                                        <path d="M46.9796557,165.823641 C46.9796557,165.904323 46.7693748,165.969661 46.5098592,165.969661 C46.2503435,165.969661 46.0400626,165.904323 46.0400626,165.823641 C46.0400626,165.742959 46.2503435,165.677621 46.5098592,165.677621 C46.7693748,165.677621 46.9796557,165.742959 46.9796557,165.823641" id="Fill-132" fill="#FFFFFF"></path>
                                        <path d="M71.4090767,156.935837 C71.4090767,157.625574 70.7781038,158.184664 69.999687,158.184664 C69.2212703,158.184664 68.5902973,157.625574 68.5902973,156.935837 C68.5902973,156.246101 69.2212703,155.687011 69.999687,155.687011 C70.7781038,155.687011 71.4090767,156.246101 71.4090767,156.935837" id="Fill-134" fill="#FFFFFF"></path>
                                        <path d="M68.5902973,136.954617 C68.5902973,137.644059 68.3799788,138.203443 68.1205008,138.203443 C67.8610227,138.203443 67.6507042,137.644059 67.6507042,136.954617 C67.6507042,136.264842 67.8610227,135.70579 68.1205008,135.70579 C68.3799788,135.70579 68.5902973,136.264842 68.5902973,136.954617" id="Fill-136" fill="#FFFFFF"></path>
                                        <path d="M172.885133,190.237872 C172.885133,190.467807 172.674835,190.654147 172.415336,190.654147 C172.155838,190.654147 171.94554,190.467807 171.94554,190.237872 C171.94554,190.007936 172.155838,189.821596 172.415336,189.821596 C172.674835,189.821596 172.885133,190.007936 172.885133,190.237872" id="Fill-140" fill="#FFFFFF"></path>
                                        <path d="M196.374961,165.261346 C196.374961,165.951286 195.743896,166.510172 194.965571,166.510172 C194.187246,166.510172 193.556182,165.951286 193.556182,165.261346 C193.556182,164.571406 194.187246,164.01252 194.965571,164.01252 C195.743896,164.01252 196.374961,164.571406 196.374961,165.261346" id="Fill-144" fill="#FFFFFF"></path>
                                        <path d="M124.81562,150.942788 C124.81562,150.942788 130.686352,151.781217 134.422273,150.942788 C134.422273,150.942788 138.691896,150.179147 140.648807,151.315386 C140.648807,151.315386 140.470906,151.948903 138.691896,153.793447 C138.691896,153.793447 138.158193,154.46419 140.648807,154.967248 C140.648807,154.967248 144.028925,157.147163 139.581401,157.231006 C135.133876,157.314849 130.864253,157.985592 125.883025,154.967248 C125.883025,154.967248 122.680808,154.967248 122.147105,152.787332 C122.147105,152.787332 122.345998,150.688912 124.81562,150.942788" id="Fill-150" fill="#FFFFFF"></path>
                                        <path d="M114.202097,193.984351 C114.202097,193.984351 108.531312,193.191486 107.113615,192.964953 C107.113615,192.964953 109.138896,191.379223 115.619794,191.492489 C115.619794,191.492489 122.708276,191.945555 114.202097,193.984351" id="Fill-154" fill="#FFFFFF"></path>
                                        <path d="M65.93192,186.491393 C65.93192,186.491393 70.0826945,187.567305 73.2451894,188.02841 C73.2451894,188.02841 76.8029961,190.641339 70.3791784,190.641339 C70.3791784,190.641339 67.3155115,189.565427 65.93192,191.486698 C65.93192,191.486698 62.967081,191.486698 62.967081,188.989045 C62.967081,188.989045 62.5717692,187.1062 65.93192,186.491393" id="Fill-160" fill="#FFFFFF"></path>
                                        <path d="M188.398066,34.9671362 C191.187794,35.6783635 190.853014,36.6267851 190.518233,37.9304648 C190.518233,37.9304648 190.183452,39.7419608 188.398066,39.9624413 C188.398066,39.9624413 185.496522,39.3532751 185.496522,38.0492398 C185.496522,38.0492398 184.603996,36.6267851 185.496522,34.9671362 L188.398066,34.9671362 Z" id="Fill-168" fill="#FFFFFF"></path>
                                    </g>
                                </g>
                            </g>
                            <rect id="3" fill-opacity="0.2" fill="#424242" x="0" y="0" width="158" height="158"></rect>
                            <path d="M41.0562856,92.7855043 C41.0562856,92.7855043 40.511815,87.6155722 45.2804286,86.527552 C45.2804286,86.527552 42.2453732,82.3101477 41.0378913,79.5896893 C41.0378913,79.5896893 38.7026359,77.2769323 41.0378913,70.6112787 C41.0378913,70.6112787 43.3727379,65.7139638 42.9639762,62.3131867 C42.9639762,62.3131867 42.316089,59.4568278 44.7518998,55.647533 C44.7518998,55.647533 55.2264174,40.6833793 64.9005797,37.9625127 C64.9005797,37.9625127 80.2974052,31.2968591 95.8303484,37.9625127 C95.8303484,37.9625127 98.8277977,40.6833793 101.553012,41.3632898 C101.553012,41.3632898 103.869464,42.0436085 106.730796,45.5806942 C106.730796,45.5806942 118.039596,55.919334 117.222073,71.8356074 C117.222073,71.8356074 118.532971,76.4607132 117.264584,79.5896893 C117.264584,79.5896893 116.81372,82.1742472 116.949837,83.670785 C116.949837,83.670785 116.81372,85.4395319 115.723552,86.2557511 C115.723552,86.2557511 119.572861,88.9766176 118.397671,93.1597407 C118.397671,93.1597407 117.375767,98.7545149 111.142152,99.1964976 C111.142152,99.1964976 107.548728,107.206056 99.5096122,111.014943 C99.5096122,111.014943 104.959631,114.95973 106.049799,124.21035 C106.049799,124.21035 108.094016,153.810812 108.366251,158.028216 L52.2293769,158.028216 C52.2293769,158.028216 50.8665655,123.530439 61.2221335,110.198724 C61.2221335,110.198724 55.0902997,107.884742 49.5041628,99.1789488 C49.5041628,99.1789488 42.0103353,99.8596756 41.0562856,92.7855043 Z" id="Fill-1" fill="#000000"></path>
                        </g>
                    </g>
                </g>
            </g>
        </g>
    </g>
</svg>