<?xml version="1.0" encoding="UTF-8"?>
<svg width="125px" height="280px" viewBox="0 0 125 280" version="1.1" xmlns="http://www.w3.org/2000/svg" xmlns:xlink="http://www.w3.org/1999/xlink">
    <!-- Generator: sketchtool 49.3 (51167) - http://www.bohemiancoding.com/sketch -->
    <title>359F7BBA-9435-48E6-B694-ADD290E65136</title>
    <desc>Created with sketchtool.</desc>
    <defs>
        <polygon id="path-1" points="0 0.890629032 124.755734 0.890629032 124.755734 279.999877 0 279.999877"></polygon>
    </defs>
    <g id="Symbols" stroke="none" stroke-width="1" fill="none" fill-rule="evenodd">
        <g id="lightningtalks/description/standard" transform="translate(-51.000000, -67.000000)">
            <g id="il_lookatme_standard" transform="translate(51.000000, 67.000000)">
                <g id="Group-3">
                    <mask id="mask-2" fill="white">
                        <use xlink:href="#path-1"></use>
                    </mask>
                    <g id="Clip-2"></g>
                    <path d="M113.410092,107.509714 C108.047706,111.563429 102.522477,115.378286 96.7220183,118.785143 C92.1451835,121.474286 87.5477064,124.130286 82.9284404,126.747429 C81.4639908,127.577143 80.1383028,128.507429 79.2369266,130.144 C76.0522936,117.874286 73.2220183,105.721143 72.6555046,93.1725714 C72.5454128,90.7257143 73.1555046,88.3428571 73.3045872,85.9177143 C73.3894495,84.568 74.0626147,84.3017143 75.2438073,84.8068571 C79.2678899,86.5291429 83.3412844,88.1382857 87.3206422,89.9565714 C95.4674312,93.68 102.752982,98.8274286 110.077523,103.899429 C111.157798,104.648 112.241514,105.392 113.342431,106.110857 C114.043119,106.568 114.169266,106.937143 113.410092,107.509714 M37.631422,127.587429 C28.3630734,122.038857 19.8940367,115.534857 12.6612385,107.517714 C11.7965596,106.558857 10.1600917,105.769143 10.2965596,104.572571 C10.4181193,103.510857 12.0488532,102.888 13.0649083,102.152 C22.9754587,94.9645714 33.3263761,88.488 44.3481651,83.1142857 C44.6772936,82.9542857 45.0052752,82.6742857 45.4983945,82.8022857 C42.2587156,97.6274286 39.7094037,112.574857 37.631422,127.587429 M122.446789,102.512 C117.317202,98.9634286 112.257569,95.304 106.829817,92.2171429 C97.859633,87.1154286 88.8963303,81.9885714 79.1348624,78.464 C78.7094037,78.3108571 78.2747706,77.9931429 78.2380734,77.6011429 C78.2013761,77.208 78.7495413,77.0822857 79.0924312,76.912 C85.218578,73.8582857 90.2770642,69.4434286 94.7610092,64.3851429 C97.2105505,61.6228571 99.946789,58.9451429 101.570642,55.6411429 C105.736927,47.1668571 107.938761,38.2697143 106.226606,28.7142857 C105.45367,24.3942857 104.106193,20.2582857 101.661239,16.6765714 C98.3298165,11.7954286 93.6130734,8.38857143 88.2690367,5.88114286 C82.1520642,3.01142857 75.6956422,1.39542857 68.9582569,0.981714286 C65.3940367,0.762285714 61.8401376,0.860571429 58.4227064,2.16914286 C52.8126147,4.31542857 48.5018349,8.10171429 44.946789,12.7954286 C42.2896789,16.3005714 40.0706422,20.0605714 38.9490826,24.3771429 C38.0786697,27.7314286 37.4811927,31.12 37.3619266,34.5908571 C37.3263761,35.5954286 37.5614679,36.736 36.9066514,37.5622857 C35.8275229,38.9245714 35.9766055,40.3268571 36.3137615,41.8457143 C36.7690367,43.8834286 37.8057339,45.744 37.9926606,47.8685714 C38.1761468,49.952 38.6566514,52 39.2896789,53.9942857 C41.1555046,59.872 43.9238532,65.3177143 47.3504587,70.4411429 C48.7529817,72.5394286 48.7369266,72.5737143 46.4204128,73.6594286 C37.4215596,77.8788571 28.5522936,82.3074286 20.1623853,87.6925714 C13.8665138,91.7337143 8.00756881,96.336 1.99610092,100.747429 C-0.182798165,102.346286 -0.66559633,104.548571 0.98233945,106.665143 C4.72201835,111.469714 8.20022936,116.468571 12.1360092,121.132571 C16.4559633,126.251429 21.2575688,130.896 25.9422018,135.659429 C26.571789,136.300571 26.9204128,136.72 26.0477064,137.459429 C25.2415138,138.144 24.8642202,139.094857 25.0350917,140.209143 C25.218578,141.409143 25.3481651,142.617143 25.5190367,143.819429 C25.9961009,147.190857 27.7094037,149.906286 30.0454128,152.296 C30.3298165,152.587429 30.6016055,152.817143 31.0305046,152.834286 C32.8366972,152.910857 34.7059633,153.196571 36.4020642,152.521143 C37.6073394,152.041143 37.7827982,152.450286 38.0970183,153.429714 C39.712844,158.451429 42.4915138,162.729143 46.5729358,166.118857 C47.1428899,166.592 47.2518349,167.072 47.1887615,167.761143 C47.0029817,169.797714 46.859633,171.838857 46.7575688,173.881143 C46.3860092,181.420571 46.2552752,188.979429 45.6268349,196.497143 C44.7151376,207.387429 44.718578,218.281143 44.778211,229.187429 C44.8172018,236.284571 44.9525229,243.381714 44.4720183,250.476571 C44.1692661,254.953143 41.990367,258.172571 38.3286697,260.496 C33.8389908,263.345143 29.115367,265.796571 24.4456422,268.338286 C23.6772936,268.756571 22.9123853,269.185143 22.3825688,269.933714 C21.4811927,271.206857 21.691055,272.294857 23.0052752,273.124571 C24.4341743,274.026286 26.0522936,274.149714 27.6543578,274.165714 C33.0293578,274.217143 38.4077982,274.248 43.7827982,274.177143 C48.1337156,274.12 52.4444954,273.553143 56.7288991,272.803429 C57.4961009,272.669714 57.946789,272.433143 57.9559633,271.526857 C57.984633,268.699429 57.8252294,265.886857 57.5075688,263.077714 C56.8963303,257.668571 55.9834862,252.298286 55.6142202,246.857143 C55.1256881,239.658286 55.6738532,232.438857 55.0855505,226.358857 C54.8894495,220.966857 54.5018349,216.68 54.6245413,212.408 C54.9284404,201.796571 55.8194954,191.214857 56.5018349,180.621714 C56.7059633,177.464 56.9364679,174.307429 57.1830275,171.153143 C57.2231651,170.627429 57.0981651,169.974857 58.0981651,170.067429 C59.5522936,170.201143 61.0247706,170.185143 62.4892202,170.162286 C63.2174312,170.150857 63.4915138,170.373714 63.5832569,171.125714 C63.8997706,173.731429 64.3183486,176.324571 64.6727064,178.925714 C65.3504587,183.889143 65.718578,188.891429 66.6199541,193.825143 C67.859633,200.618286 69.3080275,207.397714 69.6245413,214.306286 C70.2667431,228.269714 70.6577982,242.241143 70.7139908,256.222857 C70.7243119,258.936 70.1876147,261.386286 68.9204128,263.766857 C67.712844,266.037714 66.4284404,268.28 65.7151376,270.793143 C65.2575688,272.404571 65.4938073,273.896 66.587844,275.016 C69.3401376,277.837714 72.5947248,279.869714 76.6830275,279.993143 C80.9272936,280.121143 84.675,278.405714 88.2896789,276.445714 C92.0075688,274.428571 92.7094037,271.981714 90.7678899,268.206857 C89.3630734,265.478857 87.8229358,262.827429 85.7919725,260.498286 C85.2644495,259.893714 84.9949541,259.232 84.859633,258.421714 C84.2277523,254.637714 83.4811927,250.874286 82.9800459,247.066286 C81.9181193,239.014857 80.675,230.987429 79.6887615,222.928 C78.2288991,211.002286 76.5866972,199.104 74.8355505,187.218286 C73.9433486,181.158857 72.9926606,175.097143 72.609633,168.970286 C72.5477064,167.986286 72.8676606,167.465143 73.7071101,166.890286 C77.6279817,164.204571 81.0144495,161.057143 82.2288991,156.192 C82.691055,154.339429 82.903211,152.442286 82.9743119,150.568 C83.0213303,149.290286 83.4502294,149.390857 84.3733945,149.516571 C89.8883028,150.270857 94.087844,148.328 96.093578,143.897143 C97.071789,141.739429 97.6004587,139.390857 97.7770642,137 C97.8458716,136.082286 97.9857798,135.133714 97.5087156,134.281143 C97.087844,133.531429 97.2701835,133.032 97.9754587,132.596571 C98.387156,132.342857 98.7208716,131.968 99.1119266,131.677714 C107.798853,125.228571 115.63945,117.853714 123.121101,110.068571 C125.367661,107.730286 125.442202,104.585143 122.446789,102.512" id="Fill-1" fill="#09181E" mask="url(#mask-2)"></path>
                </g>
                <path d="M32.9204376,134.583878 C31.2331392,135.929998 30.9429376,137.702351 30.844292,139.947788 C29.581399,138.48054 28.4722096,137.310399 27.5098416,136.031699 C26.8284988,135.128954 26.0703042,134.331338 25.2536105,133.557719 C16.2986554,125.067338 8.48156585,115.611362 1.43643536,105.512036 C0.56927179,104.268761 1.00514766,102.760376 2.64771146,101.48739 C5.42469956,99.3367979 8.24986342,97.2479128 11.0371749,95.1110336 C22.5683857,86.2675531 35.4014889,79.6820799 48.5247937,73.5914027 C49.1556667,73.2977246 49.796863,73.2954392 50.811995,73.421138 C47.4832798,69.4307731 45.3061945,65.2130078 43.1417267,60.9826725 C40.9738178,56.745481 39.7774532,52.2248958 39.0880811,47.5077635 C39.5973677,48.2676697 40.100919,49.0321468 40.6193819,49.7863395 C40.8384669,50.1051573 41.1057276,50.5279623 41.5450446,50.2582813 C42.0623604,49.9417489 41.6150141,49.5657953 41.4291934,49.2789735 C40.3693268,47.6437467 39.2371966,46.0530858 38.3883857,44.2921602 C37.7494834,42.9700376 37.2241383,41.6022063 37.1392572,40.1223889 C37.0291412,38.2357645 38.233535,37.2016063 40.100919,37.585559 C42.2057406,38.0197911 43.809305,39.2356411 45.1387264,40.8754388 C45.4128694,41.2125401 45.7065121,41.9381649 46.2284161,41.5427851 C46.7319674,41.1588324 46.1641818,40.6434674 45.8762743,40.3155079 C43.9974199,38.1752005 41.9212743,36.3879924 38.7646154,36.8130828 C38.2232116,36.8862167 38.0993311,36.6622443 38.1142427,36.1583065 C38.507678,23.2878943 43.4537221,12.7623357 54.2508262,5.32325343 C57.6334523,2.99211245 61.5219239,1.9568116 65.61801,2.00137753 C78.664463,2.14193162 90.366583,5.72091865 99.6105926,15.4477187 C100.458256,16.34018 101.192363,17.3000616 101.747531,18.3924982 C104.17926,23.1781935 105.655503,28.2415689 106.084496,33.5883378 C106.398786,37.4895708 105.090011,41.1839722 104.508461,44.9720763 C103.051718,54.4783321 96.9425734,61.109514 90.4973458,67.5132954 C87.0195152,70.9688691 83.0220746,73.7582393 78.6988742,76.0939511 C77.7491237,76.6070307 76.9565178,76.7978643 76.0193847,76.1042355 C75.3942469,75.6402928 74.6245819,75.4048932 73.829682,75.3489002 C73.6025677,75.3317594 73.3146602,75.2837653 73.2389555,75.6060113 C73.1689859,75.9076884 73.3995413,76.0848094 73.6232144,76.1396597 C75.7096834,76.653882 77.2673661,77.8674466 78.5899053,79.532384 C79.048722,80.1094557 80.0225604,79.6946497 80.7692846,80.0180384 C91.9357361,84.8585841 102.712193,90.4178983 112.942659,97.0182268 C116.185346,99.1116829 119.315623,101.350264 122.371342,103.697403 C124.316725,105.190933 124.534663,106.97357 122.942569,108.846482 C118.571193,113.989847 113.548297,118.48415 108.505901,122.946457 C103.829412,127.085375 98.9063089,130.927186 93.717092,134.423898 C92.8086349,135.036394 92.260349,135.276364 91.8474139,133.969097 C91.6007999,133.190907 91.080043,132.502992 90.4835813,131.914493 C90.2197617,131.655097 89.9008841,131.190011 89.5246544,131.511114 C89.101396,131.872213 89.5865946,132.2036 89.8274734,132.465282 C91.2004824,133.954242 91.8256201,135.787158 92.2511726,137.701208 C92.4427286,138.55596 92.4828751,139.434708 92.2431433,140.306601 C92.1639975,140.591137 91.822179,140.994516 92.3486712,141.153353 C92.8717222,141.309905 93.003632,140.829965 93.1103069,140.472295 C93.4234493,139.415282 93.4257434,138.287421 93.0621311,137.3024 C92.6377257,136.152827 93.0667193,135.574613 93.9545296,135.059248 C94.1655853,134.936977 94.3663176,134.797566 94.5659029,134.657012 C96.5273443,133.280039 96.6133724,133.273183 96.7831346,135.647747 C97.0308956,139.146744 96.2153489,142.434338 94.1862321,145.320839 C92.2718194,148.046217 86.8291062,149.569458 83.6758884,148.378748 C82.1090294,147.786821 81.4001576,146.430417 80.8748124,144.998593 C79.8952388,142.336065 79.4238046,139.546694 79.0888684,136.743612 C78.4602895,131.499687 79.5281854,129.658771 84.1530578,127.10023 C93.0770427,122.164839 101.965469,117.158599 110.122083,110.994788 C112.571017,109.142445 114.932776,107.172403 117.316329,105.234356 C117.624883,104.984101 118.202992,104.625288 117.830204,104.202483 C117.443651,103.76368 117.06398,104.333896 116.748543,104.584151 C114.714838,106.201094 114.725162,106.196523 112.632958,104.619575 C101.045542,95.8812242 88.6746964,88.5381302 74.928548,83.6495904 C74.5156129,83.50218 74.0866193,83.3970501 73.6759784,83.2416407 C72.7640802,82.8953977 72.3534392,82.7079923 72.5748183,84.1375302 C72.7732565,85.4139442 72.1733537,86.8012016 72.0024444,88.1484639 C71.3440425,93.3752477 72.0976489,98.5323258 72.7491686,103.706545 C73.8205056,112.228922 75.9161509,120.523898 78.1138829,128.800592 C78.445378,130.051866 78.501583,131.218579 78.1253534,132.505277 C77.4600691,134.77814 78.1792643,137.052145 78.5749937,139.285012 C79.1404853,142.482332 79.6233899,145.747072 81.8715917,148.357036 C82.1388525,148.667855 82.1239409,149.076947 82.1388525,149.470042 C82.4164366,156.438325 79.6428896,161.905079 73.7516831,165.615478 C71.9611509,166.743339 71.4105709,167.82892 71.6720964,169.912091 C72.4612611,176.189031 73.2905723,182.459115 74.1451184,188.726913 C75.6248023,199.569004 77.1583971,210.403096 78.5474647,221.258899 C80.1269412,233.604805 81.6249778,245.979278 84.0509711,258.208627 C84.2448211,259.186792 84.5900807,260.03583 85.1945717,260.84373 C87.0653968,263.34285 88.7894006,265.945958 90.1314395,268.767324 C91.7246805,272.115482 91.1809827,273.813559 87.9142077,275.609908 C84.9949865,277.214282 81.9186205,278.495267 78.5876112,278.905502 C73.9742092,279.474575 70.3529984,277.416543 67.2536915,274.263789 C66.3635871,273.3599 66.3555579,272.213756 66.689347,270.984193 C67.4922762,268.034843 69.1153403,265.468302 70.4344384,262.762351 C71.331425,260.92372 71.7799183,259.046238 71.7397719,256.99849 C71.4943049,244.388617 71.1628099,231.782173 70.7590512,219.174585 C70.4608203,209.831738 68.5773777,200.732289 67.2330448,191.543708 C66.4289685,186.055242 65.7648313,180.546208 65.0364598,175.046315 C64.8196689,173.406517 64.5673197,171.77129 64.3929694,170.126922 C64.3149706,169.391013 64.0087104,169.089336 63.2746037,169.13733 C60.7809349,169.298453 58.2930013,169.300738 55.8165382,168.895074 C55.5504245,168.851651 55.181077,168.76709 55.0480202,169.100763 C54.905787,169.455005 55.2040179,169.669835 55.4930724,169.70526 C56.4542934,169.822959 56.2994427,170.484592 56.2558552,171.12337 C55.8463612,177.096348 55.4368673,183.070468 55.0399909,189.044588 C54.6293499,195.260964 54.2290324,201.479625 53.8298618,207.696001 C53.3572806,215.055093 54.219856,222.385618 54.2932667,229.734425 C54.3357072,234.017325 54.5651156,238.299083 54.6327911,242.581983 C54.7394659,249.368574 55.9794181,256.037466 56.6687902,262.762351 C56.9326098,265.328891 57.1390773,267.897717 57.2147821,270.480256 C57.2434581,271.492702 56.855758,271.875512 55.9358305,271.98407 C52.7849068,272.358881 49.6443065,273.006801 46.4876475,273.085648 C40.1422125,273.243343 33.7910423,273.75528 27.437578,273.233059 C26.1173329,273.125644 24.8074112,272.987375 23.6156348,272.347454 C22.6073851,271.804664 22.4445052,271.106464 23.2554637,270.245999 C23.9368065,269.521517 24.7902056,269.049575 25.6619573,268.608487 C30.3636815,266.227066 34.9805246,263.694807 39.4012235,260.822019 C42.6484988,258.711422 44.4654129,255.760929 45.1387264,251.911118 C46.3339439,245.077675 45.951979,238.219093 45.7845109,231.363938 C45.5310147,221.037212 45.4679274,210.733341 46.6688801,200.439754 C47.1185205,196.584229 47.0038163,192.658999 47.0623154,188.764622 C47.1701374,181.459238 47.8537743,174.18585 48.2621211,166.896463 C48.2999735,166.210833 48.0751533,165.808597 47.5612786,165.431501 C42.32618,161.580548 39.5365745,156.196069 38.2645051,150.027687 C37.5579274,146.599539 37.7311307,143.03655 37.8928636,139.545552 C38.8437612,118.942379 42.7540266,98.8054349 47.7516875,78.8501825 C47.8216571,78.5690743 47.9099793,78.2891089 47.9432435,78.0034298 C47.9627432,77.8274515 47.9593021,77.5623414 47.7138352,77.5497715 C47.5578375,77.5417725 47.3387525,77.6549014 47.2401069,77.7840283 C47.0967267,77.9714338 46.9613758,78.2182605 46.9521994,78.445661 C46.8592891,80.5962528 45.3440469,81.3995823 43.6475721,82.2383359 C31.7986307,88.0924709 20.571386,94.9384834 10.2583335,103.222033 C10.0013962,103.428865 9.81672246,103.747682 9.41066968,103.728256 C9.06770419,103.712258 8.61118157,103.264313 8.40930222,103.840242 C8.26248087,104.259619 8.7190035,104.508731 8.96102931,104.795553 C16.1197169,113.299647 24.5332682,120.363918 33.893129,126.33461 C37.6921313,128.759454 37.7311307,128.736599 37.3376954,133.161196 C36.8261148,138.896489 36.7859683,144.628353 37.3939005,150.355647 C37.4684582,151.04699 37.1839918,151.368093 36.6058828,151.531502 C32.822939,152.598798 30.1044501,152.218274 28.2806537,148.630145 C27.189817,146.482982 26.4430928,144.230688 26.0072169,141.87555 C25.8833364,141.216203 25.8787482,140.515718 25.9429826,139.844943 C26.0347459,138.878205 26.5543558,137.898898 27.3607262,137.60522 C28.0214222,137.362964 28.4148576,138.453115 28.8633509,138.992477 C30.1078912,140.492863 31.2480507,142.034388 31.6472212,144.039854 C31.8812178,145.221423 32.5155318,146.307003 33.3104318,147.257743 C33.5891629,147.590274 33.9367166,148.133064 34.3404753,147.858812 C34.8600852,147.506855 34.2991818,147.100048 34.0628912,146.783516 C32.2241832,144.320963 31.6001925,141.538449 31.8169834,138.525106 C31.8789237,137.680639 32.1737134,136.924161 32.6050011,136.201964 C32.8424387,135.805442 33.259962,135.444343 32.9204376,134.583878" id="Fill-4" fill="#64C6EC"></path>
                <path d="M86,44.7474839 C85.0304115,46.249937 83.6587157,47.2319687 82.3742374,48.2661535 C76.4366407,53.0464843 69.7831795,56.1446002 61.9301923,55.9947987 C53.0985551,55.8261334 46.6795622,51.6594338 42.3628546,44.222624 C42.1612345,43.8764162 41.7387386,43.3637624 42.2257983,43.099668 C42.9020183,42.732377 43.0798517,43.4680686 43.3154526,43.8830741 C46.2819856,49.1183574 50.5760393,52.803473 56.5057072,54.423548 C61.9573771,55.913795 67.2991753,55.2413529 72.4959884,53.1851893 C76.9848659,51.4097647 80.8518929,48.7188868 84.3417318,45.4665309 C84.7540335,45.0814857 85.0915771,44.4445521 86,44.7474839" id="Fill-6" fill="#092638"></path>
                <path d="M62.9999332,31.4354358 C62.9892499,33.4015855 61.6655905,34.9828219 60.0160909,34.9998818 C58.359113,35.0158754 56.9809689,33.4069167 57.0001988,31.4770192 C57.0183604,29.5823078 58.4264177,28.0032038 60.0994206,28.0000051 C61.7393052,27.9968064 63.0106165,29.5034059 62.9999332,31.4354358" id="Fill-8" fill="#0B1317"></path>
                <path d="M72.9978478,31.6093881 C72.9322906,33.6169399 71.5748057,35.0667755 69.8251083,34.9976277 C68.2415642,34.9352814 66.9711121,33.398161 67.0004997,31.5810489 C67.0355389,29.5326886 68.4913595,27.9014819 70.191324,28.0046368 C71.8144284,28.1032573 73.0588837,29.7015905 72.9978478,31.6093881" id="Fill-10" fill="#0C141C"></path>
                <path d="M83,43.8164918 C85.521931,42.0545373 87.2170891,39.3146278 90.4048186,39.0143478 C91.9116258,38.8718024 92.8730915,39.7995159 92.985883,41.4352827 C93.0844387,42.8677471 92.6562689,44.1822026 92.035368,45.4195433 C90.9917726,47.5016408 89.651415,49.3278576 87.8018529,50.6726916 C87.5532735,50.8537944 87.2138039,51.1996422 86.9455134,50.8491208 C86.5994733,50.3969481 87.0506395,50.1258782 87.336451,49.9249125 C89.2276255,48.5940994 90.4957089,46.719978 91.395851,44.5560921 C91.9839,43.1458274 92.6989764,41.4212618 91.4276078,40.2738883 C90.1058663,39.0797785 88.7107555,40.3486662 87.5335624,41.1747284 C86.5271992,41.8792766 85.6347225,42.7707695 84.6842075,43.5676216 C84.2987452,43.8912697 83.9472298,44.3819998 83,43.8164918" id="Fill-12" fill="#0C2639"></path>
                <path d="M58.9201352,72.9945376 C55.2531293,73.0988329 52.2772868,71.7082288 49.9316227,68.9415994 C49.3533945,68.2597547 49.0394346,67.4803435 49.0010367,66.5932726 C48.9897432,66.3409453 49.0687978,66.098711 49.3330662,66.0190877 C49.6391206,65.9271284 49.7193045,66.1861845 49.8322397,66.3958966 C52.4975104,71.3134766 55.9646211,72.9407078 61.5684656,71.952706 C62.7113698,71.7508441 63.8057119,71.4222578 64.880855,71.0095623 C65.2501531,70.868259 65.7481974,70.4723854 65.9661623,71.0084409 C66.1491173,71.4570229 65.5460433,71.5377676 65.2140139,71.6824353 C63.2048967,72.5549273 61.085103,72.91155 58.9201352,72.9945376" id="Fill-14" fill="#124D68"></path>
                <path d="M61.2748952,21.2343924 C59.7985349,20.8254951 58.4560992,21.2522259 57.1168522,21.7553861 C56.7533423,21.8916852 56.2580335,22.2661892 56.0497062,21.684052 C55.8222468,21.0484142 56.4302224,20.9070198 56.7660971,20.7592563 C58.2190738,20.1185232 59.7220065,19.8089841 61.267455,20.1248923 C61.5725057,20.1873096 62.0805692,20.2229767 61.9891603,20.8433286 C61.9179464,21.3286553 61.5406189,21.2777024 61.2748952,21.2343924" id="Fill-16" fill="#0C2439"></path>
                <path d="M69.2163711,23 C70.9146875,23.022862 72.3235315,23.4307195 73.575967,24.1705327 C73.8490983,24.3305665 74.154912,24.5774757 73.9109614,24.8481614 C73.6565057,25.1343933 73.2911634,24.9560699 73.0063598,24.8006085 C71.8916572,24.1943092 70.6777403,23.8257743 69.3109165,23.7471291 C68.8335203,23.7196947 67.9884474,23.9903804 68.0001197,23.3758507 C68.0106247,22.7713803 68.8708716,23.1271125 69.2163711,23" id="Fill-18" fill="#0A1F30"></path>
                <path d="M61,31.3871921 C60.9487316,32.3994536 60.614089,33.0568767 59.9205677,32.9961167 C59.310008,32.9426479 58.9520615,32.292516 59.0051942,31.4759017 C59.0601912,30.6605026 59.3267867,29.9471802 60.0883551,30.0030794 C60.7921301,30.0541178 60.9403423,30.7540729 61,31.3871921" id="Fill-20" fill="#E1E3E4"></path>
                <path d="M69.9337877,32 C69.3043999,31.8420091 68.966164,31.3288449 69.0026781,30.4923505 C69.0401531,29.6240129 69.3745454,28.9308126 70.1096319,29.0055215 C70.7707294,29.0716572 71.0426633,29.7746554 70.9946185,30.5793067 C70.9475345,31.3631375 70.6765614,31.9644827 69.9337877,32" id="Fill-22" fill="#E6E6E8"></path>
            </g>
        </g>
    </g>
</svg>