<?xml version="1.0" encoding="UTF-8"?>
<svg width="125px" height="280px" viewBox="0 0 125 280" version="1.1" xmlns="http://www.w3.org/2000/svg" xmlns:xlink="http://www.w3.org/1999/xlink">
    <!-- Generator: sketchtool 49.3 (51167) - http://www.bohemiancoding.com/sketch -->
    <title>71B797C5-3D3C-46B7-84AC-D1D10E8A16C2</title>
    <desc>Created with sketchtool.</desc>
    <defs>
        <polygon id="path-1" points="0 0.890629032 124.755734 0.890629032 124.755734 279.999877 0 279.999877"></polygon>
    </defs>
    <g id="Page-1" stroke="none" stroke-width="1" fill="none" fill-rule="evenodd">
        <g id="1366-x-768-Comportamentos-LT" transform="translate(-1005.000000, -1239.000000)">
            <g id="lightningtalks/section/empty" transform="translate(0.000000, 994.000000)">
                <g id="call4paper/description/standard" transform="translate(954.000000, 178.000000)">
                    <g id="il_lookatme_hover" transform="translate(51.000000, 67.000000)">
                        <g id="Group-3">
                            <mask id="mask-2" fill="white">
                                <use xlink:href="#path-1"></use>
                            </mask>
                            <g id="Clip-2"></g>
                            <path d="M113.410092,107.509714 C108.047706,111.563429 102.522477,115.378286 96.7220183,118.785143 C92.1451835,121.474286 87.5477064,124.130286 82.9284404,126.747429 C81.4639908,127.577143 80.1383028,128.507429 79.2369266,130.144 C76.0522936,117.874286 73.2220183,105.721143 72.6555046,93.1725714 C72.5454128,90.7257143 73.1555046,88.3428571 73.3045872,85.9177143 C73.3894495,84.568 74.0626147,84.3017143 75.2438073,84.8068571 C79.2678899,86.5291429 83.3412844,88.1382857 87.3206422,89.9565714 C95.4674312,93.68 102.752982,98.8274286 110.077523,103.899429 C111.157798,104.648 112.241514,105.392 113.342431,106.110857 C114.043119,106.568 114.169266,106.937143 113.410092,107.509714 M37.631422,127.587429 C28.3630734,122.038857 19.8940367,115.534857 12.6612385,107.517714 C11.7965596,106.558857 10.1600917,105.769143 10.2965596,104.572571 C10.4181193,103.510857 12.0488532,102.888 13.0649083,102.152 C22.9754587,94.9645714 33.3263761,88.488 44.3481651,83.1142857 C44.6772936,82.9542857 45.0052752,82.6742857 45.4983945,82.8022857 C42.2587156,97.6274286 39.7094037,112.574857 37.631422,127.587429 M122.446789,102.512 C117.317202,98.9634286 112.257569,95.304 106.829817,92.2171429 C97.859633,87.1154286 88.8963303,81.9885714 79.1348624,78.464 C78.7094037,78.3108571 78.2747706,77.9931429 78.2380734,77.6011429 C78.2380734,77.6011429 79.1738532,77.3771429 79.5155963,77.2068571 C85.6417431,74.1531429 90.8951835,69.8834286 95.3802752,64.8262857 C97.8298165,62.0628571 100.493807,58.9382857 102.117661,55.6354286 C106.283945,47.16 108.368807,38.2891429 106.656651,28.7337143 C105.883716,24.4137143 104.106193,20.2582857 101.661239,16.6765714 C98.3298165,11.7954286 93.6130734,8.38857143 88.2690367,5.88114286 C82.1520642,3.01142857 75.6956422,1.39542857 68.9582569,0.981714286 C65.3940367,0.762285714 61.8401376,0.860571429 58.4227064,2.16914286 C52.8126147,4.31542857 48.5018349,8.10171429 44.946789,12.7954286 C42.2896789,16.3005714 40.0706422,20.0605714 38.9490826,24.3771429 C38.0786697,27.7314286 37.4811927,31.12 37.3619266,34.5908571 C37.3263761,35.5954286 37.5614679,36.736 36.9066514,37.5622857 C35.8275229,38.9245714 35.6188073,39.8422857 35.5557339,41.3977143 C35.4662844,43.6148571 37.8057339,45.744 37.9926606,47.8685714 C38.1761468,49.952 38.6566514,52 39.2896789,53.9942857 C41.1555046,59.872 43.9238532,65.3177143 47.3504587,70.4411429 C48.7529817,72.5394286 48.7369266,72.5737143 46.4204128,73.6594286 C37.4215596,77.8788571 28.5522936,82.3074286 20.1623853,87.6925714 C13.8665138,91.7337143 8.00756881,96.336 1.99610092,100.747429 C-0.182798165,102.346286 -0.66559633,104.548571 0.98233945,106.665143 C4.72201835,111.469714 8.20022936,116.468571 12.1360092,121.132571 C16.4559633,126.251429 21.2575688,130.896 25.9422018,135.659429 C26.571789,136.300571 26.9204128,136.72 26.0477064,137.459429 C25.2415138,138.144 24.8642202,139.094857 25.0350917,140.209143 C25.218578,141.409143 25.3481651,142.617143 25.5190367,143.819429 C25.9961009,147.190857 27.7094037,149.906286 30.0454128,152.296 C30.3298165,152.587429 30.6016055,152.817143 31.0305046,152.834286 C32.8366972,152.910857 34.7059633,153.196571 36.4020642,152.521143 C37.6073394,152.041143 37.7827982,152.450286 38.0970183,153.429714 C39.712844,158.451429 42.4915138,162.729143 46.5729358,166.118857 C47.1428899,166.592 47.2518349,167.072 47.1887615,167.761143 C47.0029817,169.797714 46.859633,171.838857 46.7575688,173.881143 C46.3860092,181.420571 46.2552752,188.979429 45.6268349,196.497143 C44.7151376,207.387429 44.718578,218.281143 44.778211,229.187429 C44.8172018,236.284571 44.9525229,243.381714 44.4720183,250.476571 C44.1692661,254.953143 41.990367,258.172571 38.3286697,260.496 C33.8389908,263.345143 29.115367,265.796571 24.4456422,268.338286 C23.6772936,268.756571 22.9123853,269.185143 22.3825688,269.933714 C21.4811927,271.206857 21.691055,272.294857 23.0052752,273.124571 C24.4341743,274.026286 26.0522936,274.149714 27.6543578,274.165714 C33.0293578,274.217143 38.4077982,274.248 43.7827982,274.177143 C48.1337156,274.12 52.4444954,273.553143 56.7288991,272.803429 C57.4961009,272.669714 57.946789,272.433143 57.9559633,271.526857 C57.984633,268.699429 57.8252294,265.886857 57.5075688,263.077714 C56.8963303,257.668571 55.9834862,252.298286 55.6142202,246.857143 C55.1256881,239.658286 55.6738532,232.438857 55.0855505,226.358857 C54.8894495,220.966857 54.5018349,216.68 54.6245413,212.408 C54.9284404,201.796571 55.8194954,191.214857 56.5018349,180.621714 C56.7059633,177.464 56.9364679,174.307429 57.1830275,171.153143 C57.2231651,170.627429 57.0981651,169.974857 58.0981651,170.067429 C59.5522936,170.201143 61.0247706,170.185143 62.4892202,170.162286 C63.2174312,170.150857 63.4915138,170.373714 63.5832569,171.125714 C63.8997706,173.731429 64.3183486,176.324571 64.6727064,178.925714 C65.3504587,183.889143 65.718578,188.891429 66.6199541,193.825143 C67.859633,200.618286 69.3080275,207.397714 69.6245413,214.306286 C70.2667431,228.269714 70.6577982,242.241143 70.7139908,256.222857 C70.7243119,258.936 70.1876147,261.386286 68.9204128,263.766857 C67.712844,266.037714 66.4284404,268.28 65.7151376,270.793143 C65.2575688,272.404571 65.4938073,273.896 66.587844,275.016 C69.3401376,277.837714 72.5947248,279.869714 76.6830275,279.993143 C80.9272936,280.121143 84.675,278.405714 88.2896789,276.445714 C92.0075688,274.428571 92.7094037,271.981714 90.7678899,268.206857 C89.3630734,265.478857 87.8229358,262.827429 85.7919725,260.498286 C85.2644495,259.893714 84.9949541,259.232 84.859633,258.421714 C84.2277523,254.637714 83.4811927,250.874286 82.9800459,247.066286 C81.9181193,239.014857 80.675,230.987429 79.6887615,222.928 C78.2288991,211.002286 76.5866972,199.104 74.8355505,187.218286 C73.9433486,181.158857 72.9926606,175.097143 72.609633,168.970286 C72.5477064,167.986286 72.8676606,167.465143 73.7071101,166.890286 C77.6279817,164.204571 81.0144495,161.057143 82.2288991,156.192 C82.691055,154.339429 82.903211,152.442286 82.9743119,150.568 C83.0213303,149.290286 83.4502294,149.390857 84.3733945,149.516571 C89.8883028,150.270857 94.087844,148.328 96.093578,143.897143 C97.071789,141.739429 97.6004587,139.390857 97.7770642,137 C97.8458716,136.082286 97.9857798,135.133714 97.5087156,134.281143 C97.087844,133.531429 97.2701835,133.032 97.9754587,132.596571 C98.387156,132.342857 98.7208716,131.968 99.1119266,131.677714 C107.798853,125.228571 115.63945,117.853714 123.121101,110.068571 C125.367661,107.730286 125.442202,104.585143 122.446789,102.512" id="Fill-1" fill="#09181E" mask="url(#mask-2)"></path>
                        </g>
                        <path d="M39.0880811,48.3440532 C39.7774532,53.0434569 40.9749648,57.5488591 43.1417267,61.7701059 C45.3061945,65.9856469 47.4832798,70.1886347 50.811995,74.1633854 C49.796863,74.037855 49.1556667,74.0401373 48.5247937,74.3322809 C35.4014889,80.4011079 22.5683857,86.9640683 11.0371749,95.775165 C8.24986342,97.904618 5.42469956,99.985 2.64771146,102.128147 C1.00514766,103.397146 0.56927179,104.900088 1.43643536,106.138275 C8.48156585,116.201252 16.2986554,125.622884 25.2536105,134.082495 C26.0703042,134.852796 26.8284988,135.647061 27.5098416,136.548598 C28.4722096,137.822162 29.581399,138.987312 30.844292,140.449172 C30.9429376,138.212447 31.2331392,136.447033 32.9204376,135.104998 C33.259962,135.96317 32.8424387,136.322643 32.6050011,136.717494 C32.1737134,137.437582 31.8789237,138.190765 31.8169834,139.031819 C31.6001925,142.03542 32.2241832,144.807361 34.0628912,147.260911 C34.2991818,147.575878 34.8600852,147.980999 34.3404753,148.332484 C33.9367166,148.605228 33.5891629,148.064306 33.3104318,147.733362 C32.5166789,146.786177 31.8812178,145.704333 31.6472212,144.52777 C31.2480507,142.528412 30.1078912,140.992376 28.8633509,139.498564 C28.4148576,138.959924 28.0225693,137.874656 27.3607262,138.115446 C26.5543558,138.40759 26.0347459,139.383304 25.9429826,140.347606 C25.8787482,141.016341 25.8833364,141.713606 26.0072169,142.370929 C26.4430928,144.717207 27.189817,146.96192 28.2806537,149.100502 C30.1044501,152.675838 32.822939,153.055853 36.6058828,151.991126 C37.1839918,151.829078 37.4684582,151.508405 37.3939005,150.82027 C36.7859683,145.113199 36.8261148,139.402704 37.3376954,133.688786 C37.7311307,129.279244 37.6921313,129.302067 33.893129,126.886177 C24.5332682,120.936033 16.1197169,113.897198 8.96102931,105.425033 C8.7190035,105.138596 8.26248087,104.890958 8.40930222,104.473284 C8.61118157,103.898127 9.06770419,104.345472 9.41066968,104.361448 C9.81672246,104.380848 10.0013962,104.062457 10.2583335,103.857044 C20.571386,95.602846 31.7997778,88.7819775 43.6475721,82.9482349 C45.3440469,82.1128868 46.8592891,81.3129154 46.9521994,79.1697682 C46.9613758,78.9438134 47.0967267,78.6973172 47.2401069,78.5113039 C47.3387525,78.3823499 47.5578375,78.2682313 47.7149822,78.2762196 C47.9593021,78.2899138 47.9627432,78.554669 47.9432435,78.7292704 C47.9099793,79.0134257 47.8216571,79.2930163 47.7516875,79.5726068 C42.7540266,99.4566309 38.8437612,119.519821 37.8928636,140.048615 C37.7311307,143.52695 37.5579274,147.078321 38.2645051,150.49389 C39.5365745,156.639177 42.32618,162.003892 47.5612786,165.840559 C48.0751533,166.218292 48.2999735,166.617707 48.2621211,167.301277 C47.8537743,174.563785 47.1701374,181.810315 47.0623154,189.089941 C47.0038163,192.971114 47.1185205,196.881958 46.6688801,200.72319 C45.4679274,210.979028 45.5310147,221.246278 45.7845109,231.535211 C45.951979,238.36635 46.3339439,245.199772 45.1387264,252.009228 C44.4654129,255.844754 42.6484988,258.783308 39.4012235,260.887655 C34.9805246,263.749749 30.3648285,266.272912 25.6619573,268.645437 C24.7902056,269.084794 23.9368065,269.556104 23.2554637,270.277333 C22.4445052,271.135505 22.6073851,271.830487 23.6156348,272.371409 C24.8074112,273.009332 26.1173329,273.146275 27.437578,273.253546 C33.7910423,273.773927 40.1422125,273.263817 46.4876475,273.106333 C49.6443065,273.028732 52.7849068,272.382821 55.9358305,272.009653 C56.855758,271.900099 57.2434581,271.518943 57.2147821,270.511276 C57.1390773,267.937902 56.9326098,265.378222 56.6687902,262.820824 C55.9794181,256.11978 54.740613,249.475795 54.6327911,242.713127 C54.5651156,238.446233 54.3357072,234.179339 54.2932667,229.911303 C54.219856,222.589454 53.3572806,215.285864 53.8310089,207.953744 C54.2290324,201.759387 54.6293499,195.562747 55.0399909,189.369531 C55.4368673,183.415964 55.8463612,177.464679 56.2558552,171.512253 C56.2994427,170.875472 56.4542934,170.217007 55.4930724,170.099465 C55.2040179,170.06523 54.905787,169.850687 55.0480202,169.496919 C55.181077,169.164834 55.5515715,169.249282 55.8165382,169.292647 C58.2930013,169.696627 60.7809349,169.694344 63.2746037,169.533437 C64.0087104,169.485507 64.3149706,169.78678 64.3941164,170.520563 C64.5673197,172.158165 64.8196689,173.787778 65.0364598,175.421956 C65.7648313,180.901931 66.4289685,186.391036 67.2330448,191.859599 C68.5773777,201.015334 70.4608203,210.082056 70.7590512,219.39071 C71.1628099,231.951744 71.4943049,244.512778 71.7397719,257.078376 C71.7799183,259.118817 71.331425,260.988079 70.4344384,262.820824 C69.1153403,265.516305 67.4922762,268.073703 66.689347,271.013398 C66.3555579,272.237891 66.3635871,273.380218 67.2536915,274.280613 C70.3529984,277.421157 73.9742092,279.473009 78.5876112,278.90584 C81.9186205,278.496154 84.9949865,277.220308 87.9142077,275.621507 C91.1809827,273.832127 91.7246805,272.14089 90.1314395,268.804062 C88.7894006,265.99218 87.0653968,263.398264 85.1945717,260.909338 C84.5900807,260.10366 84.2448211,259.258041 84.0509711,258.282327 C81.6249778,246.099026 80.1269412,233.768512 78.5474647,221.467669 C77.1583971,210.650367 75.6259494,199.855889 74.1451184,189.052281 C73.2905723,182.807712 72.4612611,176.559719 71.6720964,170.30602 C71.4105709,168.230203 71.9611509,167.147217 73.7516831,166.025431 C79.6428896,162.327989 82.4164366,156.881108 82.1388525,149.938133 C82.1239409,149.545565 82.1388525,149.138162 81.8715917,148.8289 C79.6233899,146.228137 79.1404853,142.975757 78.5749937,139.788425 C78.1792643,137.565395 77.4600691,135.298999 78.1253534,133.033745 C78.501583,131.752193 78.446525,130.590466 78.1138829,129.34315 C75.9161509,121.095799 73.8205056,112.830189 72.7491686,104.338624 C72.0976489,99.1838875 71.3440425,94.0462683 72.0024444,88.8378956 C72.1733537,87.4947198 72.7732565,86.1138847 72.5748183,84.8414624 C72.3534392,83.4161211 72.7640802,83.6032756 73.6759784,83.9479138 C74.0866193,84.1031151 74.5156129,84.2081042 74.928548,84.3553172 C88.6746964,89.2247577 101.045542,96.5431832 112.632958,105.249291 C114.725162,106.820704 114.714838,106.825269 116.748543,105.213914 C117.06398,104.963994 117.443651,104.396825 117.830204,104.832758 C118.202992,105.254997 117.624883,105.612188 117.316329,105.862108 C114.932776,107.792994 112.571017,109.755834 110.122083,111.601132 C101.965469,117.742995 93.0770427,122.731119 84.1530578,127.64963 C79.5281854,130.197898 78.4602895,132.031784 79.0888684,137.257275 C79.4238046,140.049757 79.8952388,142.828544 80.8748124,145.482943 C81.4001576,146.909425 82.1090294,148.26059 83.6758884,148.850583 C86.8291062,150.036275 92.2718194,148.518498 94.1862321,145.803616 C96.2153489,142.926686 97.0308956,139.651483 96.7831346,136.166301 C96.6133724,133.799481 96.5273443,133.806328 94.5659029,135.178034 C94.3663176,135.3184 94.1655853,135.456483 93.9545296,135.57859 C93.0667193,136.093265 92.6377257,136.668423 93.0621311,137.814173 C93.4257434,138.795593 93.4234493,139.91852 93.1103069,140.971835 C93.003632,141.329026 92.8717222,141.807183 92.3486712,141.65084 C91.822179,141.493357 92.1639975,141.090518 92.2431433,140.807504 C92.4828751,139.939062 92.4427286,139.063772 92.2511726,138.211306 C91.8256201,136.304384 91.2004824,134.477346 89.8274734,132.993804 C89.5865946,132.732472 89.102543,132.403811 89.5246544,132.044337 C89.9008841,131.723664 90.2197617,132.186985 90.4835813,132.446035 C91.080043,133.031463 91.6007999,133.717316 91.8474139,134.493322 C92.260349,135.795415 92.8086349,135.555766 93.717092,134.946373 C98.9063089,131.461191 103.829412,127.633653 108.507048,123.509407 C113.548297,119.064488 118.571193,114.585333 122.942569,109.460267 C124.534663,107.594428 124.316725,105.818743 122.371342,104.330636 C119.315623,101.992346 116.185346,99.7601864 112.942659,97.6763808 C102.712193,91.098585 91.9357361,85.5592684 80.7692846,80.7366165 C80.0237075,80.4148021 79.7449763,80.1922708 79.0177518,79.7711732 C77.1767498,78.7053055 75.7096834,77.3849534 73.6232144,76.8725609 C73.3995413,76.817784 73.1689859,76.6409001 73.2389555,76.3407682 C73.3146602,76.020095 73.6025677,76.0668836 73.829682,76.0840014 C74.6245819,76.1399195 75.3942469,76.3750038 76.0193847,76.8371841 C76.9565178,77.5287428 77.7491237,77.3381647 78.6988742,76.8269134 C83.0220746,74.4988941 87.0195152,71.7201063 90.4973458,68.2760071 C96.9425734,61.8956364 103.051718,55.2881697 104.508461,45.8174675 C105.090011,42.0424243 106.398786,38.3609584 106.084496,34.4740791 C105.655503,29.1481642 104.17926,24.1018399 101.747531,19.333965 C101.192363,18.2452736 100.458256,17.2889598 99.6105926,16.3999759 C90.366583,6.70902478 78.664463,3.14167748 65.61801,3.00131161 C61.5219239,2.95794654 57.6334523,3.98843746 54.2508262,6.31075088 C43.5305739,14.2191695 39.3014309,21.3356052 38.2255057,37.3829621 C38.1933886,37.861119 37.2757552,38.6382666 37.0601113,39.4633441 C36.8192325,40.3854223 36.8960843,41.0324748 36.8960843,41.0324748 C36.9809654,42.5080282 37.5877505,43.9516284 38.2255057,45.2696982 C38.2255057,45.2696982 38.6797343,46.0525518 38.7760858,46.8582291 C38.8242615,47.2644913 39.0880811,48.3440532 39.0880811,48.3440532" id="Fill-4" fill="#64C6EC"></path>
                        <path d="M64.5911668,31.6740985 C63.6808412,33.5183746 61.5956304,34.4542267 59.8916259,33.782783 C58.1780011,33.109145 57.4973614,31.021306 58.3992692,29.2132353 C59.2855439,27.4391756 61.4561353,26.5406259 63.1781779,27.2351094 C64.8665493,27.914233 65.4858593,29.8605422 64.5911668,31.6740985" id="Fill-6" fill="#0B1317"></path>
                        <path d="M71.6123911,35.8403869 C70.7714216,37.6940086 69.0076762,38.4877539 67.4926222,37.6928465 C66.1193659,36.9734786 65.5979867,35.0036423 66.334244,33.3127208 C67.1632152,31.4091268 69.0851196,30.4863835 70.5445452,31.2917502 C71.9374351,32.0610904 72.4108213,34.0785746 71.6123911,35.8403869" id="Fill-8" fill="#0C141C"></path>
                        <path d="M58.9201352,72.9945376 C55.2531293,73.0988329 52.2772868,71.7082288 49.9316227,68.9415994 C49.3533945,68.2597547 49.0394346,67.4803435 49.0010367,66.5932726 C48.9897432,66.3409453 49.0687978,66.098711 49.3330662,66.0190877 C49.6391206,65.9271284 49.7193045,66.1861845 49.8322397,66.3958966 C52.4975104,71.3134766 55.9646211,72.9407078 61.5684656,71.952706 C62.7113698,71.7508441 63.8057119,71.4222578 64.880855,71.0095623 C65.2501531,70.868259 65.7481974,70.4723854 65.9661623,71.0084409 C66.1491173,71.4570229 65.5460433,71.5377676 65.2140139,71.6824353 C63.2048967,72.5549273 61.085103,72.91155 58.9201352,72.9945376" id="Fill-10" fill="#124D68"></path>
                        <path d="M62.3354085,26.125174 C60.7723316,26.0440267 59.4750765,26.7769699 58.1931997,27.5858251 C57.8460933,27.8057081 57.401226,28.2952094 57.0969587,27.7546638 C56.766329,27.1630739 57.3616822,26.8842937 57.6802292,26.6591755 C59.0554733,25.6854081 60.5328721,25.034921 62.1530679,25.0061268 C62.4738117,24.9995826 62.9944712,24.9223618 62.9999634,25.5689224 C63.0043572,26.0741297 62.6122149,26.1081592 62.3354085,26.125174" id="Fill-12" fill="#0C2439"></path>
                        <path d="M73.3911352,28.5337893 C74.7153906,29.5235827 75.5143504,30.7163824 75.9352827,32.1363298 C76.0268906,32.4435828 76.0790723,32.8539849 75.6790126,32.9746914 C75.2569207,33.1019819 75.1061735,32.7234024 75.0006506,32.4128575 C74.5855162,31.1981111 73.9094733,30.1545485 72.8901909,29.3008243 C72.5353553,29.00235 71.6598625,28.7784943 72.1410937,28.1991031 C72.6142077,27.6284905 73.0200653,28.4580734 73.3911352,28.5337893" id="Fill-14" fill="#0A1F30"></path>
                        <path d="M63.8581303,30.9296209 C63.3431409,31.8326728 62.6176546,32.2591479 61.7438937,31.8351167 C60.9760432,31.4611873 60.7986432,30.6730026 61.2302282,29.9508055 C61.6604892,29.2298303 62.3224293,28.7165938 63.2848902,29.1723967 C64.1771854,29.5939839 64.0580362,30.316181 63.8581303,30.9296209" id="Fill-16" fill="#E1E3E4"></path>
                        <path d="M69.7376012,34.869368 C68.9994961,34.3912063 68.7957413,33.7362243 69.2153952,32.9778897 C69.6539403,32.1909152 70.390696,31.7239604 71.3001711,32.1784631 C72.1219371,32.5881381 72.1556713,33.3838291 71.7333187,34.1072978 C71.3231103,34.810843 70.7077979,35.2267441 69.7376012,34.869368" id="Fill-18" fill="#E6E6E8"></path>
                        <path d="M39.1113659,41.2800537 C40.3467523,34.5526294 73.5582115,33.0481011 77.7868556,57.3469307 C78.8562079,63.4962261 75.8362455,66.3439175 70.2015367,61.6875415 C64.749117,57.1809218 64.1291016,53.7225962 57.2973219,50.3780389 C47.0206254,45.3455309 37.8817849,47.9761337 39.1113659,41.2800537" id="Fill-20" fill="#6C1C2A"></path>
                        <path d="M52,47.2195154 C54.7710769,43.3814677 65.0011513,43.6644788 65,55 C65,55 61.8455544,51.8045267 58.8833688,50.0391871 C55.8083599,48.2042547 52,47.2195154 52,47.2195154" id="Fill-22" fill="#B1404A"></path>
                        <path d="M73.4218212,47.0462917 L70.9413205,44.6079976 L69.0287956,42.7618438 L66.7614275,41.2478085 L65.9757845,40.7904068 C65.7558498,40.9062346 65.5472519,41.0409731 65.3647288,41.2088053 C65.3953383,41.0338816 65.4157446,40.8530484 65.4157446,40.6686694 C65.4157446,40.5953905 65.4010067,40.5256574 65.3953383,40.4535605 L64.983811,40.2136314 L61.8718484,38.6995962 L60.7370307,38.3982074 C60.5272991,38.5802226 60.3368402,38.7835123 60.1849265,39.0210775 C60.2030655,38.8875209 60.2234718,38.7539643 60.2234718,38.6156801 C60.2234718,38.4915788 60.2030655,38.3733872 60.1894613,38.2528317 L59.7824687,38.1452773 L56.3814167,37.3321186 L54.8577453,37.226928 C54.7987938,37.3439378 54.7443769,37.4621294 54.7001633,37.5862307 C54.6956285,37.4585837 54.6718212,37.3368463 54.6514148,37.212745 L51.5632596,37 L49.0850263,37 C49.0340105,37.2222003 49,37.4526741 49,37.6914213 C49,39.3354673 50.2787956,40.6686694 51.85575,40.6686694 C53.0846635,40.6686694 54.1219844,39.8555107 54.5244422,38.7208707 C54.5788591,40.3152763 55.8270452,41.5917463 57.3688554,41.5917463 C58.3619626,41.5917463 59.2337656,41.0634295 59.7461908,40.26209 C59.7280519,40.3968285 59.7065119,40.5292032 59.7065119,40.6686694 C59.7065119,42.3127155 60.9841738,43.6447355 62.5611282,43.6447355 C63.2821513,43.6447355 63.9328859,43.3563479 64.4351079,42.8977642 C64.4044985,43.0738698 64.3829585,43.2535211 64.3829585,43.4379001 C64.3829585,45.0819462 65.6606204,46.4151482 67.2375748,46.4151482 C67.79308,46.4151482 68.3077725,46.2425884 68.7465083,45.9565646 C68.7453746,45.979021 68.7397061,46.0002955 68.7397061,46.0239338 C68.7397061,47.6679799 70.0185017,49 71.5954562,49 C72.607836,49 73.4921096,48.4456811 74,47.6147937 L73.4218212,47.0462917 Z" id="Fill-24" fill="#E1E3E4"></path>
                        <path d="M40.2585091,40.9357458 C39.6421179,44.2835593 41.7272087,44.8501834 46.9254801,45.9141903 C50.0617898,46.5581338 53.96483,47.356716 58.0575291,49.3566336 C62.3607033,51.460413 64.3000806,53.6657462 66.3527907,56.0003297 C67.6457089,57.4693978 68.981416,58.9880889 71.0248744,60.6741128 C73.3250662,62.5701686 75.3222663,63.2637349 76.5064776,62.5782467 C77.7149746,61.8777563 78.1382376,59.7555125 77.6409613,56.9016198 C75.1141042,42.4048139 61.8692093,37.2036434 51.2945723,37.1540205 C51.2448447,37.1540205 51.1939606,37.1540205 51.1442329,37.1540205 C44.7629067,37.1540205 40.6019767,39.0673866 40.2585091,40.9357458 M75.4436942,64 C74.2178505,64 72.5363629,63.4172196 70.2882117,61.5627087 C68.1742095,59.8189836 66.8061216,58.264518 65.484292,56.7608292 C63.4234867,54.4193216 61.6448568,52.3951696 57.5486883,50.394098 C53.5878253,48.4588056 49.7645805,47.6752257 46.6918759,47.0451304 C41.9897243,46.0815233 38.2751864,45.3210238 39.120556,40.7268681 C39.6351791,37.9352924 44.568622,36 51.14192,36 C51.195117,36 51.2471576,36 51.3003546,36 C62.3202273,36.0519309 76.1306293,41.5058319 78.7800709,56.7042822 C79.3721765,60.1040267 78.7557853,62.6082512 77.0870187,63.5764745 C76.6683815,63.8188188 76.12716,64 75.4436942,64" id="Fill-26" fill="#000000"></path>
                        <path d="M82.9107825,59 C82.9107825,59 84.422551,66 75,66" id="Stroke-28" stroke="#000000" stroke-linecap="round"></path>
                    </g>
                </g>
            </g>
        </g>
    </g>
</svg>