<?xml version="1.0" encoding="UTF-8"?>
<svg width="225px" height="225px" viewBox="0 0 225 225" version="1.1" xmlns="http://www.w3.org/2000/svg" xmlns:xlink="http://www.w3.org/1999/xlink">
    <!-- Generator: sketchtool 49.3 (51167) - http://www.bohemiancoding.com/sketch -->
    <title>366227C1-94C0-4C55-95C7-F469755EED00</title>
    <desc>Created with sketchtool.</desc>
    <defs>
        <rect id="path-1" x="0" y="0" width="225" height="225"></rect>
        <polygon id="path-3" points="0 0.357107223 319.741615 0.357107223 319.741615 341.774117 0 341.774117"></polygon>
    </defs>
    <g id="Page-1" stroke="none" stroke-width="1" fill="none" fill-rule="evenodd">
        <g id="1366-x-768-Compertamentos" transform="translate(-699.000000, -582.000000)">
            <g id="speaker/section/empty" transform="translate(0.000000, 147.000000)">
                <g id="Group" transform="translate(186.000000, 178.000000)">
                    <g id="avatar_palestra">
                        <g transform="translate(513.000000, 257.000000)">
                            <g id="il_speaker_empty">
                                <g id="portal">
                                    <mask id="mask-2" fill="white">
                                        <use xlink:href="#path-1"></use>
                                    </mask>
                                    <use id="Mask" fill="#212121" xlink:href="#path-1"></use>
                                    <g mask="url(#mask-2)">
                                        <g transform="translate(-47.500000, -58.750000)">
                                            <g id="Group-3" stroke-width="1" fill="none">
                                                <mask id="mask-4" fill="white">
                                                    <use xlink:href="#path-3"></use>
                                                </mask>
                                                <g id="Clip-2"></g>
                                                <path d="M30.8074534,66.5245747 C30.8074534,66.5245747 39.7515528,54.6539745 49.1925466,50.2024994 C49.1925466,50.2024994 63.6024845,42.2887659 71.0559006,29.9235574 C71.0559006,29.9235574 75.0310559,25.4720823 80.9937888,20.5259989 C80.9937888,20.5259989 90.4347826,11.1284404 108.819876,3.21470692 C108.819876,3.21470692 140.621118,-3.21520153 181.863354,3.21470692 C181.863354,3.21470692 185.838509,0.247056867 192.795031,2.72009858 C192.795031,2.72009858 202.732919,6.18235697 208.695652,6.67696531 C208.695652,6.67696531 226.086957,12.6122654 239.006211,25.4720823 C239.006211,25.4720823 247.453416,31.5176801 257.888199,33.4407173 C257.888199,33.4407173 269.813665,40.8049409 276.273292,48.7186744 C276.273292,48.7186744 283.229814,60.0946663 285.217391,60.5892746 C285.217391,60.5892746 290.186335,68.0083997 292.173913,73.9436998 C292.173913,73.9436998 297.639752,80.3736083 300.621118,86.8035167 C300.621118,86.8035167 299.627329,95.2118586 307.080745,106.58785 C307.080745,106.58785 311.055901,112.523151 307.080745,122.909926 C307.080745,122.909926 305.148323,124.888359 308.847702,128.845226 C308.847702,128.845226 311.055901,131.812876 311.552795,136.758959 C311.552795,136.758959 310.559006,142.199651 314.037267,146.156518 C314.037267,146.156518 318.012422,155.554076 316.521739,163.962418 C316.521739,163.962418 315.031056,172.37076 319.503106,178.30606 C319.503106,178.30606 319.006211,201.058044 319.503106,207.487952 C319.503106,207.487952 320.993789,210.455602 316.521739,213.423252 C316.521739,213.423252 315.52795,218.863944 313.043478,223.315419 C313.043478,223.315419 310.559006,235.680628 305.590062,243.099753 C305.590062,243.099753 302.111801,247.551228 300.621118,251.013486 C300.621118,251.013486 298.63354,263.378695 289.689441,268.819387 C289.689441,268.819387 278.757764,278.711553 275.776398,284.152245 C275.776398,284.152245 273.78882,285.63607 270.807453,287.614504 C270.807453,287.614504 265.838509,302.452754 252.42236,307.398837 C252.42236,307.398837 250.434783,317.291004 242.981366,321.742479 C242.981366,321.742479 227.080745,337.075338 219.130435,337.569946 C219.130435,337.569946 180.869565,341.774117 170.931677,341.774117 C170.931677,341.774117 138.136646,340.042988 125.217391,338.559163 C125.217391,338.559163 89.4409938,325.699346 80.4968944,321.742479 C80.4968944,321.742479 59.6273292,311.850312 57.6397516,306.904229 C57.6397516,306.904229 55.1552795,300.474321 50.1863354,294.53902 C50.1863354,294.53902 43.7267081,286.625287 30.8074534,276.73312 C30.8074534,276.73312 24.3478261,278.216945 15.9006211,257.443395 C15.9006211,257.443395 12.9192547,246.067403 13.4161491,242.605145 C13.4161491,242.605145 13.4161491,239.637494 10.4347826,237.164453 C10.4347826,237.164453 8.44720497,234.196803 10.4347826,226.777678 C10.4347826,226.777678 6.95652174,224.799244 6.95652174,218.863944 C6.95652174,218.863944 5.46583851,204.025694 2.98136646,200.068827 C2.98136646,200.068827 1.49068323,196.11196 2.98136646,189.187444 C2.98136646,189.187444 1.49068323,182.757535 0,180.779102 C0,180.779102 0,170.886935 2.48447205,164.951635 C2.48447205,164.951635 3.97515528,156.543293 2.98136646,154.070251 C2.98136646,154.070251 2.98136646,147.640343 5.96273292,138.242784 C5.96273292,138.242784 4.9689441,134.780526 3.47826087,131.318268 C3.47826087,131.318268 2.48447205,126.866792 5.46583851,124.393751 C5.46583851,124.393751 6.95652174,119.447667 5.96273292,114.996192 C5.96273292,114.996192 5.46583851,109.5555 9.44099379,104.609417 C9.44099379,104.609417 8.94409938,100.157942 15.4037267,93.2334252 C15.4037267,93.2334252 18.3850932,83.3412583 22.3602484,77.4059582 L30.8074534,66.5245747 Z" id="Fill-1" fill="#78EC21" mask="url(#mask-4)"></path>
                                            </g>
                                            <path d="M72.0418172,140.39037 C71.4861792,136.699538 67.0430667,140.39037 67.0430667,140.39037 C66.1175013,142.420154 56.3062088,150.170553 56.3062088,150.170553 C56.4914215,155.521937 53.898942,162.164641 53.898942,162.164641 C50.7513225,168.439105 53.898942,187.815849 53.898942,187.815849 C57.6012038,195.934984 60.378398,214.572767 60.378398,214.572767 C63.340307,234.686487 75.1889388,247.78827 75.1889388,247.78827 C77.7809204,251.663718 84.8155165,250.371902 84.8155165,250.371902 C88.8882036,250.187782 96.293723,254.43147 96.293723,254.43147 C100.367406,256.46175 98.1448539,252.401686 98.1448539,252.401686 C72.4122425,213.465567 78.3365584,204.238239 78.6601827,189.937444 C78.9350144,177.810354 76.4849296,165.486737 76.4849296,165.486737 C75.3736536,158.473809 80.1871914,152.569569 80.1871914,152.569569 C82.4087476,147.402802 78.3360605,143.71197 78.3360605,143.71197 C78.3360605,143.71197 77.2252824,144.081202 76.6696444,149.985937 C76.6696444,149.985937 72.6138853,158.220706 71.8566045,164.333383 C71.2252882,169.430672 70.0587471,178.754774 71.4403739,185.92403 C72.1657901,189.688808 72.9335265,194.284854 73.3378079,200.179168 C73.6957862,205.412933 76.5830127,219.29338 74.3614564,221.138548 C74.3614564,221.138548 72.7697228,223.888433 70.5601158,219.739535 C67.6728893,214.315695 63.895945,198.886856 63.7112303,189.84464 C63.7112303,189.84464 61.6260941,173.794459 63.5260176,166.686245 C65.3099342,160.011283 72.0418172,140.39037 72.0418172,140.39037" id="Fill-4" fill="#71CE20"></path>
                                            <path d="M54.7339713,123.559098 C54.7339713,123.559098 53.5937808,132.117528 50.4583845,137.086476 C50.4583845,137.086476 46.7526375,142.924582 54.7339713,138.763416 C54.7339713,138.763416 59.5793979,135.70602 56.4440016,141.779729 C56.4440016,141.779729 43.6167301,170.766331 44.1870809,183.189444 C44.1870809,183.189444 45.8976223,193.715853 43.0468904,196.734146 C43.0468904,196.734146 40.7665093,200.305314 41.0516847,204.998567 C41.0516847,204.998567 38.4861282,205.310395 38.7713036,196.734146 C38.7713036,196.734146 41.336349,181.532798 40.4813339,175.459584 C40.4813339,175.459584 38.4861282,172.146787 35.6359073,176.56385 L32.5,178.772381 L32.5,170.766331 C32.5,170.766331 46.1827977,153.374271 43.6167301,137.638361 C43.6167301,137.638361 42.4770506,135.42983 46.1827977,131.288958 C46.1827977,131.288958 53.5937808,118.86634 54.7339713,123.559098" id="Fill-6" fill="#71CE20"></path>
                                            <path d="M113.817548,81.9987625 C113.817548,81.9987625 120.27136,81.7124534 119.991131,86.5776563 C119.991131,86.5776563 119.429165,93.1596878 109.047121,93.7323061 C109.047121,93.7323061 96.7004577,97.1664764 93.6139177,101.172752 C93.6139177,101.172752 88.0017981,102.031166 84.0730628,98.0248907 C84.0730628,98.0248907 80.9865228,94.3044113 93.8941463,86.2918602 C93.8941463,86.2918602 103.435001,75.7030401 113.817548,81.9987625" id="Fill-8" fill="#71CE20"></path>
                                            <path d="M128.933336,127.090985 C117.119072,132.158878 106.772465,142.375389 106.772465,142.375389 C105.110114,146.242795 102.09285,146.795494 102.09285,146.795494 C95.9356457,149.557503 90.1514393,164.657673 90.1514393,164.657673 C87.0114983,175.338728 84.1998555,175.522466 84.1998555,175.522466 C81.5724768,175.522466 82.9487464,170.248054 82.9487464,170.248054 C84.0573115,167.367681 84.980619,159.501626 84.980619,159.501626 C86.2729516,145.506359 90.520961,139.61338 90.520961,139.61338 C92.7370978,136.482905 93.1066195,133.168197 93.1066195,133.168197 C92.5523369,127.643684 94.5837129,127.643684 94.5837129,127.643684 C96.7998497,126.722519 98.8808925,124.328481 98.8808925,124.328481 C100.408149,121.75021 105.849158,118.804464 105.849158,118.804464 C115.452748,116.962629 117.114106,111.438612 117.114106,111.438612 C119.145978,105.914099 127.641004,106.097836 127.641004,106.097836 C138.167902,104.808206 159.958755,107.57071 159.958755,107.57071 C162.913438,107.57071 164.575789,108.859845 164.575789,108.859845 C170.669917,112.911485 204.466251,118.435502 204.466251,118.435502 C210.560379,120.829541 212.591755,124.328481 212.591755,124.328481 C214.623131,128.01116 222.564371,135.193274 222.564371,135.193274 C226.073337,139.060186 226.811883,134.640575 226.811883,134.640575 C227.919952,125.617122 222.37961,115.857231 222.37961,115.857231 C215.91596,105.360904 206.128602,100.849178 206.128602,100.849178 C200.44969,98.3635182 202.527256,93.9439079 202.527256,93.9439079 C202.942968,89.9383265 195.047918,87.038143 195.047918,87.038143 C192.41607,84.2756389 195.601704,84.5519883 195.601704,84.5519883 C199.757333,82.4803579 192.859595,80.8356329 191.446572,80.6850769 C186.902051,80.199732 182.801056,80.7811554 179.950673,80.4087275 C171.787422,79.3424544 150.587605,78.6134465 150.587605,78.6134465 C145.323908,78.8893007 145.462479,77.2321945 145.462479,77.2321945 C145.462479,75.2982435 147.955757,74.8842146 147.955757,74.8842146 L165.407213,74.7460398 C169.008559,73.3652831 166.515281,71.984031 166.515281,71.984031 C160.974939,66.3213434 147.262903,69.2215269 147.262903,69.2215269 C143.662054,72.2603805 131.057589,70.9979884 131.057589,70.9979884 C124.409676,70.7028195 118.592192,73.5029625 118.592192,73.5029625 C113.051354,75.7127677 109.311933,71.5695068 109.311933,71.5695068 C105.156801,69.6360511 100.032171,73.2271083 100.032171,73.2271083 C96.1536834,75.574593 87.0114983,77.0019032 87.0114983,77.0019032 C62.2649686,82.8943869 51.5533097,95.0488105 51.5533097,95.0488105 C47.8600795,99.8368868 55.2475333,99.8190578 55.2475333,99.8190578 C58.7560026,98.1441225 67.0667639,89.5634223 67.0667639,89.5634223 C72.7968334,84.9942465 80.4172249,82.0440427 83.6877898,81.4447903 C84.7392379,81.2516429 85.2587536,81.9212207 85.1648832,82.3421832 C84.316076,86.1288641 76.4627468,90.2607342 72.05332,92.9078451 C70.2841853,93.9701562 67.6205498,94.6803446 67.6205498,94.6803446 C65.0348913,96.1532178 66.8815064,99.8190578 66.8815064,99.8190578 C62.4497295,102.747966 49.1534054,115.305028 49.1534054,115.305028 C40.4736191,124.696947 37.3331815,134.088372 37.3331815,134.088372 C34.1937371,139.98135 33.4551904,136.666147 33.4551904,136.666147 C32.1623612,133.535673 31.0542928,141.269991 31.0542928,141.269991 C28.838156,145.137397 30.6852678,147.899406 30.6852678,147.899406 C31.7928395,149.557008 34.3775046,151.398347 34.3775046,151.398347 C31.6070853,158.948432 32.4399991,169.629487 32.4399991,169.629487 C27.7320743,163.184305 24.958675,165.76208 24.958675,165.76208 C21.8192306,171.102856 30.1299919,175.521971 30.1299919,175.521971 C26.0677367,179.389377 29.0224202,190.990607 29.0224202,190.990607 C35.4860697,202.960302 32.4399991,215.851163 32.4399991,215.851163 C26.2549809,216.403862 29.5762061,222.296345 29.5762061,222.296345 C36.0403522,225.980014 34.5622655,218.613667 34.5622655,218.613667 L37.3326848,216.403862 C40.4726258,225.42682 52.7438252,240.527485 52.7438252,240.527485 C55.781949,244.025931 57.6469409,244.025931 57.6469409,244.025931 C58.5697518,242.736795 54.6917607,237.212778 54.6917607,237.212778 C49.1519154,232.60943 48.5976329,225.058849 48.5976329,225.058849 C48.7823937,220.455501 44.5875279,214.009823 44.5875279,214.009823 C41.6854913,209.406475 43.6115735,207.564146 43.6115735,207.564146 C44.7196419,206.27501 46.2617989,203.144535 46.2617989,203.144535 C45.9573408,198.541187 48.2300979,200.014061 48.2300979,200.014061 C48.2300979,200.014061 53.0318931,200.750497 58.5722351,229.84643 C58.5722351,229.84643 61.1569002,239.790553 69.2829007,246.419969 C69.2829007,246.419969 71.4985408,252.312948 66.6972422,251.208045 C66.6972422,251.208045 58.9407635,248.445046 63.5577979,253.049384 C63.5577979,253.049384 64.8511238,256.733053 70.7599941,256.548325 C70.7599941,256.548325 77.2241403,258.75813 81.2863955,263.177741 C81.2863955,263.177741 84.7948648,271.649486 79.9935663,272.016961 C79.9935663,272.016961 74.0837026,271.28102 70.5752332,264.835342 C70.5752332,264.835342 61.3416611,263.177741 59.1255243,266.123982 C59.1255243,266.123982 52.2918564,267.228885 50.0762163,257.837461 C50.0762163,257.837461 44.9044027,241.81563 40.1031041,248.629774 C40.1031041,248.629774 33.6389579,254.891219 34.5622655,236.015263 C34.5622655,236.015263 34.0104663,230.030663 32.4399991,234.266041 C32.4399991,234.266041 29.5767027,244.9466 26.9910442,238.133447 C26.9910442,238.133447 25.5134542,234.450274 23.8515999,232.9774 C23.8515999,232.9774 22.9277957,230.030663 23.8515999,227.452392 C23.8515999,227.452392 26.9895542,225.980509 18.3102646,220.271268 C18.3102646,220.271268 17.5707246,190.438403 19.9721189,184.177949 C19.9721189,184.177949 21.7889338,168.708818 18.2029841,179.20564 C18.2029841,179.20564 19.0498047,170.182681 11.6623509,164.473935 C11.6623509,164.473935 10.1847608,164.657178 10,162.632101 C10,162.632101 11.2928292,159.13316 12.9546835,157.291821 C12.9546835,157.291821 22.9263057,141.454719 23.6658457,130.405693 C23.6658457,130.405693 34.3780013,132.983964 27.9138551,121.382735 C27.9138551,121.382735 25.3281967,118.25226 28.6528985,116.594658 C28.6528985,116.594658 39.5483249,113.796496 35.485573,99.8190578 C35.485573,99.8190578 44.905396,95.12706 43.2435418,89.5634223 C43.2435418,89.5634223 58.8950699,87.5908419 43.9358983,88.0048708 C43.9358983,88.0048708 55.5708647,78.0607476 51.9695183,71.5695068 C51.9695183,71.5695068 46.7063176,67.5644207 51.2771618,65.3546155 C51.2771618,65.3546155 54.1856551,69.7742258 57.9255722,62.7302862 C57.9255722,62.7302862 58.7564993,62.1780825 59.8645677,65.9068192 C59.8645677,65.9068192 60.5569242,71.7076816 71.0833256,58.5870253 C71.0833256,58.5870253 79.2560129,52.7861629 78.4245891,51.1290567 C78.4245891,51.1290567 77.6324021,48.7810768 75.8126072,50.3000083 C75.8126072,50.3000083 74.8237393,52.5103087 69.14433,52.3716387 C69.14433,52.3716387 67.3439052,52.2339593 66.7901193,56.9299191 C66.7901193,56.9299191 63.1887729,60.7968305 61.8035632,55.1341428 C61.8035632,55.1341428 62.3578457,50.990882 65.9586955,47.5379995 L74.6851687,39.6655067 C74.6851687,39.6655067 78.2860185,36.2126242 80.7792965,39.6655067 L92.6909076,40.4945551 C92.6909076,40.4945551 99.4778885,32.2075381 103.078738,29.9977329 C103.078738,29.9977329 106.542011,34.2791685 109.865719,35.7985953 C109.865719,35.7985953 116.427709,38.2847499 118.479449,28.8928303 C118.479449,28.8928303 119.145978,35.5222458 125.240106,35.1077216 C125.240106,35.1077216 130.226662,34.1409938 131.334731,28.8928303 C131.334731,28.8928303 135.489863,25.9926468 144.492981,26.268501 C144.492981,26.268501 148.648113,26.8211999 152.525607,28.4783061 C152.525607,28.4783061 155.98888,31.3789849 158.758803,31.3789849 C158.758803,31.3789849 167.346208,30.1359076 173.579404,31.2408102 C173.579404,31.2408102 179.673531,32.0693633 181.612527,34.1409938 C181.612527,34.1409938 181.058741,35.7985953 179.119249,35.6604205 C179.119249,35.6604205 170.393769,33.0360912 167.346208,34.9700421 C167.346208,34.9700421 164.71436,36.7653231 167.346208,38.6987788 C167.346208,38.6987788 172.194194,40.908584 178.426892,40.4945551 C178.426892,40.4945551 178.981175,42.9802144 175.102687,42.5661855 C175.102687,42.5661855 171.086126,40.3563803 169.700916,42.703865 C169.700916,42.703865 164.945311,46.4326017 180.82779,50.1157753 C180.82779,50.1157753 195.602201,50.4015345 201.142543,54.6785129 C201.142543,54.6785129 202.619636,58.2185594 199.295431,58.5865301 C199.295431,58.5865301 194.124611,53.7162423 190.430884,54.6785129 C190.430884,54.6785129 188.95379,56.3772201 201.511568,63.7430723 L214.439363,72.4772999 C214.439363,72.4772999 222.195842,71.5353346 222.565364,75.0050556 C222.565364,75.0050556 226.628116,83.6308235 221.087774,81.0530476 C221.087774,81.0530476 217.394047,79.5365924 215.916457,77.5328112 C215.916457,77.5328112 200.773021,62.6381697 193.755586,61.901733 C193.755586,61.901733 184.521517,61.901733 193.755586,67.4257507 C193.755586,67.4257507 208.898525,74.8931291 210.838017,79.3082821 C210.838017,79.3082821 209.729949,80.9609311 202.250114,76.8176703 C202.250114,76.8176703 195.878845,72.3980599 192.277996,73.5029625 C192.277996,73.5029625 188.399508,74.3320109 184.244376,72.3980599 C184.244376,72.3980599 177.318824,70.7409537 177.318824,72.9507589 C177.318824,72.9507589 177.191677,76.9880362 188.676649,76.2654666 C188.676649,76.2654666 196.709773,80.6850769 203.081538,81.5136301 C203.081538,81.5136301 213.054154,84.5519883 214.438867,86.4854441 C214.438867,86.4854441 214.162222,87.8666961 212.499871,87.8666961 C212.499871,87.8666961 206.959529,93.391209 215.270291,92.5626559 C215.270291,92.5626559 217.763569,89.800647 223.857696,94.4961116 C223.857696,94.4961116 228.012829,99.1920714 228.28997,95.8773636 C228.28997,95.8773636 226.627619,89.800647 216.377862,87.038143 C216.377862,87.038143 218.871637,85.6568909 223.026769,85.6568909 L223.580555,83.7234352 C223.580555,83.7234352 223.580555,86.2095898 228.28997,87.8666961 C228.28997,87.8666961 239.093513,96.0259386 242.417718,99.8190578 C242.417718,99.8190578 245.741923,101.826801 248.235201,99.8190578 C248.235201,99.8190578 249.758485,98.5011977 251.69748,98.5011977 C251.69748,98.5011977 250.866553,92.7008306 245.326211,92.2863064 C245.326211,92.2863064 236.738805,93.6675585 237.846874,85.3810367 C237.846874,85.3810367 240.617293,81.2372806 244.079572,84.9665125 C244.079572,84.9665125 246.019064,87.7290166 247.403777,89.9383265 C247.403777,89.9383265 249.343269,91.1814038 251.69748,88.6952492 C251.69748,88.6952492 254.883115,85.2423667 258.761602,89.9383265 C258.761602,89.9383265 267.071867,103.887536 269.842286,107.478593 C269.842286,107.478593 274.27456,112.864931 276.074985,106.373691 C276.074985,106.373691 278.152551,98.3635182 284.385746,108.583496 C284.385746,108.583496 291.172727,115.903785 294.773577,118.942143 C294.773577,118.942143 295.435637,121.842327 296.28196,123.913957 C296.28196,123.913957 297.128284,126.400112 298.513494,120.599249 C298.513494,120.599249 300.036778,118.11359 299.898704,125.295209 C299.898704,125.295209 298.669945,131.78645 299.907644,137.449138 C299.907644,137.449138 303.222909,147.945464 299.20585,155.403433 C299.20585,155.403433 292.696011,165.76208 294.358362,170.043516 C294.358362,170.043516 301.006772,165.76208 301.97627,156.094307 C301.97627,156.094307 302.530056,161.895169 301.97627,166.590634 C301.97627,166.590634 300.45249,168.38641 298.790635,169.491312 C298.790635,169.491312 293.804079,175.015825 297.821138,173.910923 C297.821138,173.910923 300.313919,172.667845 301.144846,171.286593 C301.144846,171.286593 302.11484,169.767167 303.360983,173.08237 C303.360983,173.08237 306.408543,182.888318 304.192407,187.169754 C304.192407,187.169754 303.084338,188.96553 303.915265,192.417917 C303.915265,192.417917 304.330481,200.704934 302.391485,200.842614 C302.391485,200.842614 299.482992,197.804255 298.374923,200.29041 C298.374923,200.29041 294.219791,206.367127 292.419366,212.582513 C292.419366,212.582513 289.926088,219.073259 286.324742,222.664316 C286.324742,222.664316 279.122545,231.365857 278.291122,237.028049 C278.291122,237.028049 253.036996,255.811393 233.830312,261.520139 C233.830312,261.520139 227.736184,262.073333 226.073833,265.756012 C226.073833,265.756012 222.934389,269.991884 218.132594,269.991884 C218.132594,269.991884 209.083782,267.045147 205.020534,268.702254 C205.020534,268.702254 202.620133,270.728816 198.926406,270.544088 C198.926406,270.544088 189.692337,266.860914 189.692337,272.016961 C189.692337,272.016961 189.507576,277.726202 194.678893,280.671949 C194.678893,280.671949 196.155987,281.04091 195.786962,284.355618 C195.786962,284.355618 193.940347,286.933394 189.322815,281.777347 C189.322815,281.777347 182.490141,275.147436 182.674902,268.702254 C182.674902,268.702254 183.967234,261.520139 176.395516,261.520139 C176.395516,261.520139 160.514031,262.257071 160.328773,254.891219 L164.576286,254.891219 L164.576286,250.655842 C164.576286,250.655842 164.576286,248.99824 171.039935,250.471609 C171.039935,250.471609 177.503585,253.970549 180.274004,251.20854 C180.274004,251.20854 181.012551,248.078066 173.256072,247.525367 L189.507576,246.420464 C189.507576,246.420464 190.24662,249.734677 194.494132,248.261803 C194.494132,248.261803 196.525508,244.762863 200.403499,244.947096 C200.403499,244.947096 204.651509,246.236231 207.421431,243.105756 C207.421431,243.105756 210.930397,240.344243 215.547432,240.712214 C215.547432,240.712214 221.456799,239.606816 223.672936,242.000854 C223.672936,242.000854 223.303911,244.762863 219.610184,244.947096 C219.610184,244.947096 212.11694,245.229388 210.73769,247.520414 C210.541009,247.847279 210.468495,248.215745 210.561372,248.630269 C211.299919,251.944977 213.147031,251.760744 219.610184,250.655842 C219.610184,250.655842 249.52803,242.737786 250.451338,234.635002 C250.451338,234.635002 252.944616,232.19441 254.60647,232.608934 C254.60647,232.608934 256.13025,235.094594 253.498402,237.304399 C253.498402,237.304399 251.836051,241.724009 256.684036,237.718923 C256.684036,237.718923 275.65977,225.012791 269.565145,222.250287 C269.565145,222.250287 267.071867,222.664316 267.903291,219.764132 C267.903291,219.764132 264.717656,216.44992 261.947237,222.388462 C261.947237,222.388462 259.7311,228.050654 252.528904,231.365857 C252.528904,231.365857 249.897055,232.608934 251.143694,230.260459 C251.143694,230.260459 274.27456,209.820009 275.79834,198.21878 C275.79834,198.21878 277.460195,194.075519 277.598765,189.379064 C277.598765,189.379064 278.429692,184.54592 285.90903,176.258903 C285.90903,176.258903 293.111723,162.447373 294.219791,152.641424 C294.219791,152.641424 294.635006,148.774513 292.280796,151.398347 C292.280796,151.398347 284.800961,159.823539 283.554322,168.939109 C283.554322,168.939109 281.200112,156.647006 281.615327,142.006923 C281.615327,142.006923 281.061541,130.267518 273.443136,124.052132 C273.443136,124.052132 270.53514,120.599249 268.041862,117.008687 C268.041862,117.008687 261.947237,106.788215 263.193876,111.207825 C263.193876,111.207825 269.565145,131.234246 270.396072,137.449138 C270.396072,137.449138 270.950355,139.935292 269.149433,140.349321 C269.149433,140.349321 266.933793,142.006923 266.24094,150.017095 C266.24094,150.017095 264.717656,168.248235 260.839169,169.491312 C260.839169,169.491312 260.562027,167.971886 261.532022,165.209877 C261.532022,165.209877 267.071867,143.526349 262.778164,140.072972 C262.778164,140.072972 259.453959,137.449138 259.315885,133.444051 C259.315885,133.444051 259.177314,130.681547 256.960681,130.681547 C256.960681,130.681547 256.268324,130.543373 255.714539,128.333567 C255.714539,128.333567 252.666978,122.671375 252.805549,126.261937 C252.805549,126.261937 252.390333,130.405198 250.174197,127.505014 C250.174197,127.505014 247.819489,120.737424 249.481343,118.665794 C249.481343,118.665794 251.420836,116.455988 250.035626,115.212911 C250.035626,115.212911 243.525786,107.616768 240.893938,103.749856 C240.893938,103.749856 232.445102,98.6393725 235.076454,103.473507 C235.076454,103.473507 236.877376,105.268788 238.677801,106.788215 C238.677801,106.788215 240.755864,108.99802 242.83343,115.351086 C242.83343,115.351086 244.910996,121.427802 246.711421,126.952811 C246.711421,126.952811 254.745041,150.431619 248.235201,171.562943 C248.235201,171.562943 245.603352,177.087456 243.387216,179.297261 C243.387216,179.297261 244.495284,161.61882 241.032508,159.409014 C241.032508,159.409014 233.4146,159.547189 232.583673,178.054184 C232.583673,178.054184 228.567111,197.804255 214.577437,204.571846 C214.577437,204.571846 198.094982,212.720193 192.55464,213.134717 C192.55464,213.134717 190.338503,213.273387 191.446572,209.129631 C191.446572,209.129631 191.446572,203.605118 184.936732,212.444338 C184.936732,212.444338 179.812102,214.792318 165.268642,213.687416 C165.268642,213.687416 141.861132,210.649057 139.644995,192.556092 C139.644995,192.556092 135.767004,171.562943 153.772743,162.447373 C153.772743,162.447373 160.974939,159.685364 161.11351,164.104974 C161.11351,164.104974 162.334819,167.005158 157.499747,167.971886 C157.499747,167.971886 137.706,174.187272 144.077269,188.274656 C144.077269,188.274656 146.431976,198.770983 153.357031,203.881467 C153.357031,203.881467 155.548335,201.809342 157.499747,204.433671 C157.499747,204.433671 160.836369,210.649057 172.332765,208.439252 C172.332765,208.439252 173.163692,206.091272 175.102687,207.748379 C175.102687,207.748379 190.615645,210.372708 198.094982,195.179926 C198.094982,195.179926 201.696329,179.988135 183.828664,182.473794 C183.828664,182.473794 179.534961,183.993221 179.257819,187.031579 C179.257819,187.031579 182.582521,187.445608 184.659591,192.832441 C184.659591,192.832441 186.737654,196.423003 190.338503,194.765897 C190.338503,194.765897 191.446572,198.080605 187.014298,198.080605 C187.014298,198.080605 176.626467,197.94243 174.410331,201.947516 C174.410331,201.947516 171.501837,203.605118 169.423775,201.257138 C169.423775,201.257138 164.160574,198.080605 167.346208,189.793588 C167.346208,189.793588 171.086126,183.302347 164.437715,182.473794 C164.437715,182.473794 162.913935,183.993221 160.697798,182.888318 C160.697798,182.888318 156.126954,180.540338 154.742241,184.959949 C154.742241,184.959949 153.218461,188.68918 151.00282,188.68918 C151.00282,188.68918 148.232401,188.68918 148.094327,191.588869 C148.094327,191.588869 143.384912,182.888318 154.187958,174.187272 C154.187958,174.187272 158.343091,171.148419 161.390651,175.292175 C161.390651,175.292175 164.85293,179.57361 169.008559,173.772748 C169.008559,173.772748 172.194194,163.9668 175.379828,160.790266 C175.379828,160.790266 177.318824,159.547189 179.534961,163.275926 C179.534961,163.275926 181.612527,176.535252 191.585142,166.866983 C191.585142,166.866983 205.297178,160.237568 194.216991,152.2269 C194.216991,152.2269 192.139425,155.956132 189.646147,152.50325 C189.646147,152.50325 187.29144,148.636338 183.828664,149.050367 C183.828664,149.050367 175.518399,148.774513 170.531843,145.735659 C170.531843,145.735659 155.157456,139.382593 150.310464,124.604831 C150.310464,124.604831 147.955757,123.085404 146.570547,124.328481 C146.570547,124.328481 140.891634,126.676461 135.351292,125.433384 C135.351292,125.433384 131.9059,125.815717 128.933336,127.090985" id="Fill-10" fill="#71CE20"></path>
                                            <path d="M126.25,212.715249 C126.25,212.715249 131.639753,211.370137 134.463483,215.404991 C134.463483,215.404991 140.110022,224.012938 136.003281,223.743819 C136.003281,223.743819 129.07327,222.13007 126.25,212.715249" id="Fill-12" fill="#71CE20"></path>
                                            <path d="M112.377151,188.167205 C112.377151,188.167205 115.508632,198.599064 118.355805,209.580719 C118.355805,209.580719 120.917648,216.718229 124.33446,221.659998 C124.33446,221.659998 127.465941,226.875928 126.327174,230.444929 C126.327174,230.444929 118.658489,223.032275 122.065092,230.444929 C122.065092,230.444929 126.611994,240.602135 148.817695,240.876788 C148.817695,240.876788 155.364968,241.974412 153.372764,244.445789 C153.372764,244.445789 141.131146,246.916181 130.027784,241.4256 C130.027784,241.4256 124.636634,238.955207 122.065092,239.504019 C122.065092,239.504019 102.894401,227.155502 100.375945,216.583364 C100.375945,216.583364 95.8647735,209.031415 98.1423075,203.815486 C98.1423075,203.815486 100.705171,195.305207 105.544548,204.364298 C105.544548,204.364298 104.69009,211.556935 108.369773,209.594009 C108.369773,209.594009 109.245669,191.187394 109.245669,188.167205 C109.245669,188.167205 111.110776,183.853493 112.377151,188.167205" id="Fill-14" fill="#71CE20"></path>
                                            <path d="M109.151124,86.7244234 C111.378938,83.6878994 105.611747,83.159721 105.611747,83.159721 C103.51504,83.9519887 91.0639094,82.5 91.0639094,82.5 C87.3939242,86.4603342 80.8400942,89.3638095 80.8400942,89.3638095 C74.1556562,91.6080658 62.6207758,107.713492 62.6207758,107.713492 C59.4752166,116.161837 48.2035462,131.474493 48.2035462,131.474493 C36.0146288,147.975551 35.0968832,165.796553 35.0968832,165.796553 C34.1796362,170.41711 40.0774351,174.508987 40.0774351,174.508987 C43.0913893,177.281421 45.3206985,185.59722 45.3206985,185.59722 C46.7623716,189.95419 48.0729382,185.465175 48.0729382,185.465175 C57.5096159,139.263619 68.2578572,136.886816 78.6446832,126.887574 C87.4527476,118.408101 94.4711832,107.845034 94.4711832,107.845034 C98.6655945,102.036578 106.267778,101.244812 106.267778,101.244812 C111.510044,99.1331024 111.247831,93.5882329 111.247831,93.5882329 C111.247831,93.5882329 110.199478,93.0610586 105.611747,96.8888461 C105.611747,96.8888461 96.8914193,99.8877148 92.0135593,103.720021 C87.9467649,106.916203 80.497622,112.754282 76.3839683,118.8685 C74.2234527,122.078741 71.5026187,125.914059 67.6018262,130.418638 C64.1382215,134.418134 56.3231768,146.40658 53.4398305,146.14249 C53.4398305,146.14249 50.3595753,146.974422 51.742425,142.431183 C53.5504984,136.492188 61.8351337,122.761557 68.1267507,116.161837 C68.1267507,116.161837 78.0509652,103.193349 84.4442769,99.4629629 C90.4487557,95.9600152 109.151124,86.7244234 109.151124,86.7244234" id="Fill-16" fill="#71E721"></path>
                                            <path d="M105.93433,59.375315 C105.93433,59.375315 98.9817991,64.4990834 93.2214331,65.8276638 C93.2214331,65.8276638 86.4386362,67.3742257 94.9943184,69.8273598 C94.9943184,69.8273598 100.571352,70.9514321 94.0157059,73.0388577 C94.0157059,73.0388577 64.2201538,84.425865 55.6790778,93.3457837 C55.6790778,93.3457837 49.296691,101.720508 45.1384693,101.897588 C45.1384693,101.897588 40.979744,102.833994 37.8016458,106.25 C37.8016458,106.25 35.7895218,104.75637 42.1588134,99.050836 C42.1588134,99.050836 54.8843014,90.3089597 58.6587337,85.5643733 C58.6587337,85.5643733 59.6514487,81.9587763 54.4874169,83.0977658 L50.7129845,82.5280305 L56.4733505,77.024599 C56.4733505,77.024599 78.522603,74.1778471 88.0568976,61.6523315 C88.0568976,61.6523315 88.851674,59.375315 94.4130941,58.9956519 C94.4130941,58.9956519 108.516094,55.3900549 105.93433,59.375315" id="Fill-18" fill="#71E721"></path>
                                            <path d="M179.956878,71.2076491 C179.956878,71.2076491 184.76506,75.5793993 181.158797,78.7585792 C181.158797,78.7585792 176.149957,82.9313157 168.336471,75.9764189 C168.336471,75.9764189 157.116872,69.6180592 152.108539,70.2140924 C152.108539,70.2140924 147.5,66.8358989 147.5,61.2720823 C147.5,61.2720823 147.900809,56.5033125 162.726671,60.0805196 C162.726671,60.0805196 176.951066,59.4839825 179.956878,71.2076491" id="Fill-20" fill="#71E721"></path>
                                            <path d="M156.360913,115.673718 C144.451299,110.926492 129.93658,110.855165 129.93658,110.855165 C126.031399,112.418421 123.514419,110.681305 123.514419,110.681305 C117.221968,108.292832 102.471097,114.89308 102.471097,114.89308 C92.7081448,120.232223 90.5961389,118.3792 90.5961389,118.3792 C88.7445444,116.526673 93.4428416,113.767199 93.4428416,113.767199 C96.2603347,112.511542 102.471097,107.599868 102.471097,107.599868 C113.275201,98.6136231 120.434534,97.4416765 120.434534,97.4416765 C124.20951,96.7903199 126.813129,94.7064741 126.813129,94.7064741 C130.327693,90.4090065 131.758965,91.8410004 131.758965,91.8410004 C133.971967,92.7528996 137.131065,92.5275253 137.131065,92.5275253 C140.030246,91.7810656 145.947922,93.5345275 145.947922,93.5345275 C154.018695,99.0044371 159.094243,96.2692347 159.094243,96.2692347 C164.431686,93.7950702 170.289458,99.915841 170.289458,99.915841 C178.620148,106.427426 192.027375,123.748063 192.027375,123.748063 C194.109676,125.831414 194.370088,127.915259 194.370088,127.915259 C195.801855,135.078201 215.717883,162.818562 215.717883,162.818562 C218.321007,168.809062 217.279856,172.716211 217.279856,172.716211 C216.1085,176.753136 216.628828,187.432412 216.628828,187.432412 C216.368416,192.641779 220.013186,190.036848 220.013186,190.036848 C227.172519,184.436667 230.166261,173.62712 230.166261,173.62712 C233.029796,161.646121 229.320666,151.553313 229.320666,151.553313 C227.074989,145.790169 231.663874,144.129829 231.663874,144.129829 C234.787821,141.590281 231.273257,133.971637 231.273257,133.971637 C231.370787,130.162068 233.420908,132.604036 233.420908,132.604036 C237.813742,134.069217 234.115009,128.042063 233.225352,126.938967 C230.365282,123.390931 227.064097,120.909832 225.317954,118.636276 C220.318154,112.125682 205.89057,96.6600486 205.89057,96.6600486 C201.985389,93.1437136 203.254771,92.0688513 203.254771,92.0688513 C204.621683,90.7012501 206.671804,92.166431 206.671804,92.166431 L219.070061,104.375776 C222.58413,105.938537 221.803391,103.20383 221.803391,103.20383 C221.900921,95.2919521 210.185873,87.673804 210.185873,87.673804 C205.499953,87.2829901 197.508392,77.5017437 197.508392,77.5017437 C193.0309,72.6044336 186.951333,70.4829428 186.951333,70.4829428 C181.484178,68.1385543 181.77677,62.5710651 181.77677,62.5710651 C180.214796,58.2735975 174.064433,57.1987353 174.064433,57.1987353 C169.671105,56.1243684 162.218684,50.6866551 162.218684,50.6866551 C140.610973,37.4024476 124.469426,38.4446182 124.469426,38.4446182 C118.481944,39.2262461 123.701559,44.4232298 123.701559,44.4232298 C127.35821,45.7130645 139.281192,45.5050266 139.281192,45.5050266 C146.549938,46.3143929 154.006813,49.6023817 156.735687,51.4851242 C157.612967,52.0894247 157.50603,52.9299967 157.142147,53.1613149 C153.867201,55.2407028 145.411256,52.6248745 140.431755,51.3870493 C138.434607,50.8907304 136.054763,49.5147086 136.054763,49.5147086 C133.191228,48.7330806 131.902043,52.6278464 131.902043,52.6278464 C126.707677,51.573788 108.45957,51.0779644 108.45957,51.0779644 C95.7028761,51.5990497 86.8513634,56.0262934 86.8513634,56.0262934 C80.4727689,57.9798679 82.2951538,55.1143941 82.2951538,55.1143941 C83.5967158,51.988873 77.3488221,56.67765 77.3488221,56.67765 C73.0530239,57.8495965 72.4024905,61.1053889 72.4024905,61.1053889 C72.0118734,63.0589634 72.5322011,66.1834939 72.5322011,66.1834939 C65.2426618,69.5695576 58.2793794,77.7107722 58.2793794,77.7107722 C59.5165812,69.8330722 55.7401206,69.7003242 55.7401206,69.7003242 C49.7521433,71.2630848 52.485968,80.2493293 52.485968,80.2493293 C46.8891029,80.1195533 40.7709199,90.4080158 40.7709199,90.4080158 C36.8657389,103.431185 25.6071534,110.399463 25.6071534,110.399463 C20.8568729,106.428912 19.0325078,112.938515 19.0325078,112.938515 C20.9850983,120.101952 25.1501957,113.849919 25.1501957,113.849919 L28.6647596,114.240733 C24.5001573,122.836164 22.4752853,142.16932 22.4752853,142.16932 C22.1435825,146.786274 23.4580166,148.10137 23.4580166,148.10137 C25.01999,147.840332 26.1913463,141.199467 26.1913463,141.199467 C25.5408128,134.036525 30.4871445,128.306073 30.4871445,128.306073 C33.8715027,125.180552 35.470607,117.663946 35.470607,117.663946 C36.6790942,112.361458 39.3386572,112.41743 39.3386572,112.41743 C41.0313314,112.287159 44.330536,111.160782 44.330536,111.160782 C47.3703195,107.690017 47.9307486,110.334575 47.9307486,110.334575 C47.9307486,110.334575 50.7947791,114.241724 34.1333993,138.726293 C34.1333993,138.726293 28.9261612,147.581276 29.9673118,158.000505 C29.9673118,158.000505 27.3636927,163.730462 24.7605687,159.56277 C24.7605687,159.56277 21.2464999,152.139286 21.2460048,158.651366 C21.2460048,158.651366 19.5538257,162.168196 23.8491288,166.205121 C23.8491288,166.205121 26.843365,172.325892 26.5824585,178.316887 C26.5824585,178.316887 23.0673995,186.782046 19.4231249,183.655535 C19.4231249,183.655535 15.7783552,178.967748 17.8611515,171.935078 C17.8611515,171.935078 12.5246978,164.251547 8.87992814,164.772632 C8.87992814,164.772632 3.28256796,160.734717 8.35910531,152.5301 C8.35910531,152.5301 16.0392617,137.552365 7.83828248,138.98535 C7.83828248,138.98535 -1.14393101,138.855078 12.8494694,126.156844 C12.8494694,126.156844 16.6912804,121.534937 12.5900482,123.423128 C12.5900482,123.423128 3.02215655,128.95743 6.01589766,122.315574 C6.01589766,122.315574 7.57787107,118.668967 7.44766536,116.45485 C7.44766536,116.45485 8.87943306,113.720143 11.3528464,112.547701 C11.3528464,112.547701 14.6055137,113.719648 12.5232126,103.561457 C12.5232126,103.561457 33.0897734,81.9418659 39.2079564,79.2071588 C39.2079564,79.2071588 51.423034,69.5487538 41.475417,74.4430919 C41.475417,74.4430919 48.4500862,68.6591443 47.2787299,59.4123571 C47.2787299,59.4123571 46.1078687,58.4999625 47.4089356,56.937202 C47.4089356,56.937202 50.7932939,55.3749368 53.2662121,55.2446654 C53.2662121,55.2446654 71.4890702,51.0764785 79.8202552,43.7837611 C79.8202552,43.7837611 85.5488112,53.1613149 89.1930858,40.3981927 C89.1930858,40.3981927 89.5837029,36.3607724 93.0982668,37.5332143 C93.0982668,37.5332143 102.756263,43.237414 109.772024,30.4871703 C109.772024,30.4871703 119.728552,33.8123087 122.489606,28.7049794 C122.489606,28.7049794 134.916577,38.3475338 124.079304,28.091763 C124.079304,28.091763 139.309411,29.2637096 141.359532,22.1334599 C141.359532,22.1334599 140.481262,15.5891834 145.264218,17.2495236 C145.264218,17.2495236 144.190392,22.4261988 151.805693,20.0823057 C151.805693,20.0823057 152.781989,20.277465 150.926434,23.6962204 C150.926434,23.6962204 147.314834,28.2869224 164.008394,26.4309275 C164.008394,26.4309275 173.868877,28.091763 174.454555,26.3333479 C174.454555,26.3333479 175.556106,24.1142774 173.199531,23.9052489 C173.199531,23.9052489 170.940487,24.7705873 167.035305,20.6677837 C167.035305,20.6677837 165.863454,19.3006778 162.153829,22.2310395 C162.153829,22.2310395 156.882231,22.4266942 159.908647,17.4446829 C159.908647,17.4446829 163.22815,14.9056305 168.206662,15.0027148 L179.922205,15.5891834 C179.922205,15.5891834 184.900717,15.6867631 184.217508,19.8866511 L192.027375,28.8728956 C192.027375,28.8728956 202.669092,27.7985287 206.768839,28.775316 C206.768839,28.775316 206.183656,34.2452255 207.452543,37.6634856 C207.452543,37.6634856 210.320534,44.049257 218.40517,38.8542546 C218.40517,38.8542546 214.18908,44.0126027 218.777469,48.0173314 C218.777469,48.0173314 222.975242,50.8501135 227.466101,47.9197517 C227.466101,47.9197517 232.445108,48.7989593 238.595471,55.3432358 C238.595471,55.3432358 241.13374,58.6639161 242.695218,62.5705698 C242.695218,62.5705698 243.085835,67.0636921 245.038426,69.0172666 C245.038426,69.0172666 251.970023,74.1939418 255.582118,79.3706171 C255.582118,79.3706171 259.291742,84.2545533 259.194212,87.0873354 C259.194212,87.0873354 257.632239,87.868468 256.362857,86.4032872 C256.362857,86.4032872 252.067554,78.3943252 248.55299,77.6126972 C248.55299,77.6126972 245.429043,77.0267239 245.91719,80.2498247 C245.91719,80.2498247 247.771755,85.2313406 252.457676,89.3336489 C252.457676,89.3336489 251.091258,91.4828781 248.65052,88.4544413 C248.65052,88.4544413 247.381633,84.059394 244.745339,84.742947 C244.745339,84.742947 238.757857,84.026207 247.349453,97.8314999 C247.349453,97.8314999 257.560452,108.452328 258.442682,115.383951 C258.442682,115.383951 256.981705,118.92951 254.378086,116.845664 C254.378086,116.845664 254.176094,109.754545 250.892732,107.830195 C250.892732,107.830195 248.651015,107.990186 252.29529,122.055031 L255.233087,137.348785 C255.233087,137.348785 261.366617,142.152478 259.173914,144.866877 C259.173914,144.866877 255.940555,153.832318 253.857758,148.101866 C253.857758,148.101866 252.325985,144.425044 252.701254,141.96574 C252.701254,141.96574 252.555701,120.752813 248.130192,115.282904 C248.130192,115.282904 241.621887,108.771319 244.225506,119.190053 C244.225506,119.190053 249.620874,135.149528 247.866811,139.639678 C247.866811,139.639678 245.91719,140.02752 243.573983,131.822904 C243.573983,131.822904 242.20707,124.203765 238.888063,122.445845 C238.888063,122.445845 235.56856,120.297111 234.006586,115.999148 C234.006586,115.999148 230.296961,109.943266 228.734988,111.506026 C228.734988,111.506026 225.79125,114.271444 234.397203,121.859377 C234.397203,121.859377 236.935472,130.650462 240.840158,135.729557 C240.840158,135.729557 245.722129,144.910961 245.331017,147.25535 C245.331017,147.25535 244.159661,148.036978 242.988305,146.864536 C242.988305,146.864536 235.177943,146.864536 241.621392,152.139286 C241.621392,152.139286 245.331017,151.944127 246.307808,159.562275 C246.307808,159.562275 245.91719,165.813812 248.455459,163.665078 C248.455459,163.665078 251.579406,158.195169 246.307808,149.013765 C246.307808,149.013765 249.041137,149.794897 251.970023,152.725259 L253.727058,151.748472 C253.727058,151.748472 251.970023,153.506392 254.117675,158.000009 C254.117675,158.000009 255.964813,171.388731 255.62717,176.415322 C255.62717,176.415322 256.550987,180.179817 259.727412,180.51763 C259.727412,180.51763 261.732481,180.660285 263.099393,182.027886 C263.099393,182.027886 266.613957,177.339605 263.001367,173.139717 C263.001367,173.139717 255.972735,168.060621 262.611245,162.981525 C262.611245,162.981525 267.492722,162.004243 267.297166,167.083834 C267.297166,167.083834 266.711487,170.404514 266.125809,172.944062 C266.125809,172.944062 266.613957,175.190375 270.03099,175.092796 C270.03099,175.092796 274.716911,174.897141 274.130737,180.953519 C274.130737,180.953519 270.128521,196.6792 269.542348,201.172322 C269.542348,201.172322 268.859139,208.106917 274.716911,204.786237 C274.716911,204.786237 281.843569,200.586349 279.012214,212.209721 C279.012214,212.209721 278.622092,222.172752 279.012214,226.861034 C279.012214,226.861034 277.428457,229.379283 276.561079,231.440839 C276.561079,231.440839 275.400119,233.796124 280.477152,230.670108 C280.477152,230.670108 283.308012,229.986555 278.133944,234.968071 C278.133944,234.968071 272.679167,238.691949 269.548784,243.569941 C269.548784,243.569941 264.46581,253.330879 256.362857,255.772847 C256.362857,255.772847 244.452748,258.507554 242.597688,262.708433 C242.597688,262.708433 250.310519,264.368278 257.8273,258.214815 C257.8273,258.214815 254.117675,262.708433 250.40805,265.638299 C250.40805,265.638299 248.064842,265.833458 246.112251,265.442644 C246.112251,265.442644 238.692506,265.833458 242.305096,267.884613 C242.305096,267.884613 244.940895,268.76382 246.502869,268.373006 C246.502869,268.373006 248.259903,267.982192 246.79546,271.205788 C246.79546,271.205788 242.011514,280.289613 237.42362,281.754793 C237.42362,281.754793 235.373004,282.243187 233.518439,285.271624 C233.518439,285.271624 227.953754,291.424591 226.489311,290.154569 C226.489311,290.154569 226.586841,285.954681 224.049068,286.931469 C224.049068,286.931469 216.824384,288.29907 211.161673,291.424591 C211.161673,291.424591 204.816249,294.256878 199.739712,294.257373 C199.739712,294.257373 188.512316,295.33174 183.923926,298.75 C183.923926,298.75 152.846349,294.225177 135.273529,284.717847 C135.273529,284.717847 130.587114,280.811193 126.812634,282.243682 C126.812634,282.243682 121.605395,283.024815 118.221037,279.638751 C118.221037,279.638751 113.926229,271.174087 109.890842,269.481055 C109.890842,269.481055 106.765905,269.221008 104.293482,266.48531 C104.293482,266.48531 100.388301,257.368299 96.7440266,261.015401 C96.7440266,261.015401 92.5779391,264.92255 94.1404076,270.653002 C94.1404076,270.653002 94.9211467,271.95522 92.3175277,274.039066 C92.3175277,274.039066 89.1940759,274.560151 89.584198,267.657257 C89.584198,267.657257 89.4539923,258.150422 94.1404076,253.722188 C94.1404076,253.722188 100.128385,249.554496 94.790941,244.214858 C94.790941,244.214858 83.076388,233.536077 88.1529254,228.196439 L91.1461714,231.191689 L94.1399125,228.196439 C94.1399125,228.196439 95.3112688,227.024492 98.8263278,232.624178 C98.8263278,232.624178 100.908629,239.657343 104.81381,239.657343 C104.81381,239.657343 107.54714,237.964311 102.471097,232.103588 L114.706473,242.782864 C114.706473,242.782864 112.885079,245.647347 116.919475,247.601417 C116.919475,247.601417 120.825151,246.559247 123.428275,249.424225 C123.428275,249.424225 125.511072,253.331869 129.676169,253.071327 C129.676169,253.071327 134.101678,253.592412 137.095419,257.108747 C137.095419,257.108747 142.042246,260.494811 141.91204,263.750603 C141.91204,263.750603 139.699533,265.44314 136.965708,262.968975 C136.965708,262.968975 131.484692,257.884431 128.892954,258.531825 C128.523131,258.624452 128.211726,258.833975 127.98399,259.192593 C126.161605,262.057076 127.593868,263.230013 132.930322,267.006891 C132.930322,267.006891 159.615065,282.50472 165.993165,277.425625 C165.993165,277.425625 169.475549,277.45683 170.354313,278.922011 C170.354313,278.922011 169.67061,281.754793 166.253576,281.461559 C166.253576,281.461559 161.958273,283.415134 168.206167,284.001602 C168.206167,284.001602 190.562437,288.39665 188.22022,282.145607 C188.22022,282.145607 186.169603,280.680427 188.805403,279.215246 C188.805403,279.215246 188.902933,274.624544 182.75257,276.871352 C182.75257,276.871352 177.187885,279.312825 169.76814,276.578118 C169.76814,276.578118 167.03481,275.601331 169.573079,274.819703 C169.573079,274.819703 200.32539,276.675698 209.5997,269.545448 C209.5997,269.545448 213.699942,267.787528 217.11747,264.563932 C217.11747,264.563932 221.119687,261.73115 232.249057,261.145177 C232.249057,261.145177 247.088547,256.456895 254.800883,250.303433 C254.800883,250.303433 257.8273,247.861465 254.313231,248.056624 C254.313231,248.056624 243.085835,248.740672 235.763621,254.308161 C235.763621,254.308161 242.793244,243.954316 253.434466,233.893704 C253.434466,233.893704 261.341864,225.200694 260.365568,215.432821 C260.365568,215.432821 260.756185,210.939699 261.53742,206.642231 C261.53742,206.642231 264.46581,195.116439 262.220628,199.121663 C262.220628,199.121663 252.555701,217.77721 248.748051,222.75823 C248.748051,222.75823 247.381633,224.90746 245.819165,223.931168 C245.819165,223.931168 243.085835,223.540354 236.935472,228.717029 C236.935472,228.717029 222.974747,240.53556 219.362652,238.679565 C219.362652,238.679565 220.241417,237.410534 222.877216,236.140018 C222.877216,236.140018 242.10954,224.7123 241.523862,219.242391 C241.523862,219.242391 241.035714,215.042007 243.769539,212.112141 C243.769539,212.112141 245.624104,210.060987 244.06213,208.497731 C244.06213,208.497731 243.671513,207.912253 244.843365,205.958183 C244.843365,205.958183 246.69793,199.805216 244.257191,202.442343 C244.257191,202.442343 241.035714,205.079471 241.523862,201.465061 C241.523862,201.465061 244.647809,195.018859 247.283608,194.72612 C247.283608,194.72612 250.212494,194.52997 250.114963,192.674471 C250.114963,192.674471 250.895702,182.711439 251.774962,178.120737 C251.774962,178.120737 249.431754,168.549015 247.869286,173.823269 C247.869286,173.823269 247.869286,176.362322 248.064842,178.707206 C248.064842,178.707206 247.967312,181.734652 244.940895,187.692955 C244.940895,187.692955 242.10954,193.455604 239.473741,198.632774 C239.473741,198.632774 228.539432,220.902731 209.014517,231.256577 C209.014517,231.256577 203.254276,233.307731 200.130329,233.307731 C200.130329,233.307731 213.40735,221.586284 212.529081,217.581555 C212.529081,217.581555 207.061926,212.3073 193.393792,224.80988 C193.393792,224.80988 176.602207,235.945354 161.958273,230.866258 C161.958273,230.866258 144.581009,225.005535 140.382742,221.39162 C140.382742,221.39162 138.723238,219.926439 142.432863,217.777705 C142.432863,217.777705 146.338044,213.870061 135.50176,215.530896 C135.50176,215.530896 130.229667,213.577322 120.759801,202.539923 C120.759801,202.539923 106.408954,183.884376 117.636349,169.525802 C117.636349,169.525802 129.742014,151.944127 148.876313,158.195169 C148.876313,158.195169 155.90544,161.32069 152.879024,164.544286 C152.879024,164.544286 151.689845,167.456816 147.598514,164.730529 C147.598514,164.730529 129.253867,155.167227 123.786712,169.623381 C123.786712,169.623381 118.026471,178.707701 119.295358,187.204561 C119.295358,187.204561 122.304447,187.284805 121.82521,190.517316 C121.82521,190.517316 119.783506,197.265668 129.448433,203.809945 C129.448433,203.809945 131.69411,202.735578 131.889171,205.275126 C131.889171,205.275126 140.96842,218.070444 156.979266,212.600535 C156.979266,212.600535 170.256288,204.395918 155.90544,193.553678 C155.90544,193.553678 151.805198,191.600104 149.461991,193.553678 C149.461991,193.553678 151.512607,196.191301 149.168904,201.465556 C149.168904,201.465556 148.095573,205.470285 151.804703,206.837886 C151.804703,206.837886 150.243225,209.962912 147.119278,206.837886 C147.119278,206.837886 139.894594,199.414897 135.50176,200.683928 C135.50176,200.683928 132.279788,199.805216 132.475344,196.6792 C132.475344,196.6792 131.010901,190.721392 139.113855,187.106982 C139.113855,187.106982 146.338044,185.153903 142.237802,179.879152 C142.237802,179.879152 140.09015,179.879152 139.308916,177.535259 C139.308916,177.535259 137.746943,172.651323 133.6467,174.800057 C133.6467,174.800057 129.93658,176.362817 128.375102,174.800552 C128.375102,174.800552 126.422512,172.846978 124.27486,174.800057 C124.27486,174.800057 127.10572,165.325914 140.870889,166.790599 C140.870889,166.790599 145.947427,167.571732 145.166192,172.651323 C145.166192,172.651323 144.581009,178.120737 151.609642,176.948791 C151.609642,176.948791 160.786422,172.260509 165.277281,172.260509 C165.277281,172.260509 167.522958,172.748903 166.449132,176.948791 C166.449132,176.948791 158.54124,187.79103 172.404434,187.985694 C172.404434,187.985694 186.755282,192.967705 184.60763,179.488338 C184.60763,179.488338 180.507388,180.660285 181.190597,176.460397 C181.190597,176.460397 182.264422,172.064854 179.531093,169.91612 C179.531093,169.91612 173.868877,163.860238 172.501965,158.195169 C172.501965,158.195169 166.156046,142.860302 173.185669,128.990617 C173.185669,128.990617 172.59999,126.255414 170.74493,126.157835 C170.74493,126.157835 165.082715,123.813446 162.056299,119.027585 C162.056299,119.027585 159.357624,116.868449 156.360913,115.673718" id="Fill-22" fill="#71E721"></path>
                                            <path d="M92.945558,173.75 C92.945558,173.75 96.7777417,176.90874 96.1883762,182.041317 C96.1883762,182.041317 94.7144019,192.70244 92.5034405,189.346466 C92.5034405,189.346466 89.4082439,182.831753 92.945558,173.75" id="Fill-24" fill="#71E721"></path>
                                            <path d="M101.870445,145.028152 C101.870445,145.028152 96.5271024,154.501299 90.5906685,164.168076 C90.5906685,164.168076 87.2263046,170.93433 86.0391182,176.734396 C86.0391182,176.734396 84.4560357,182.533972 81.0916718,184.274188 C81.0916718,184.274188 81.104216,173.846618 78.129727,181.380037 C78.129727,181.380037 73.9675497,191.62035 89.2052832,206.893564 C89.2052832,206.893564 92.9650413,212.112741 89.7988764,212.5 C89.7988764,212.5 79.5085893,205.926886 75.7488311,194.519893 C75.7488311,194.519893 73.7818951,189.119341 71.5991981,187.759522 C71.5991981,187.759522 67.1745955,166.045058 73.0447958,156.890052 C73.0447958,156.890052 75.3529351,148.508094 80.6957757,146.381599 C80.6957757,146.381599 88.6116899,142.128609 85.445525,151.794896 C85.445525,151.794896 79.6671485,156.279751 83.6396569,157.39594 C83.6396569,157.39594 97.5170934,145.028152 99.6937691,142.901657 C99.6937691,142.901657 104.099305,141.130068 101.870445,145.028152" id="Fill-26" fill="#71E721"></path>
                                            <path d="M146.481627,247.042729 C143.147966,247.553087 146.481627,251.635947 146.481627,251.635947 C148.315215,252.486713 155.315553,261.50269 155.315553,261.50269 C160.148786,261.33223 166.149076,263.714579 166.149076,263.714579 C171.815849,266.606776 189.317193,263.714579 189.317193,263.714579 C196.651047,260.312536 213.484859,257.760238 213.484859,257.760238 C231.652235,255.038501 243.486306,244.150533 243.486306,244.150533 C246.986475,241.768695 245.819918,235.304506 245.819918,235.304506 C245.65341,231.562054 249.486595,224.756946 249.486595,224.756946 C251.320184,221.013984 247.653007,223.055925 247.653007,223.055925 C212.484811,246.702321 204.150909,241.258337 191.233786,240.960799 C180.280757,240.708682 169.14922,242.959869 169.14922,242.959869 C162.815415,243.980584 157.482158,239.557315 157.482158,239.557315 C152.815433,237.515885 149.481772,241.258847 149.481772,241.258847 C149.481772,241.258847 149.815288,242.279562 155.148545,242.78992 C155.148545,242.78992 162.586404,246.517061 168.10767,247.212679 C172.711392,247.792955 181.133298,248.864706 187.608611,247.595447 C191.009275,246.928409 195.160475,246.223606 200.484232,245.852065 C205.21146,245.522374 217.748564,242.869536 219.415145,244.910966 C219.415145,244.910966 221.899265,246.373651 218.151584,248.403853 C213.252848,251.057202 199.317175,254.528144 191.150282,254.698093 C191.150282,254.698093 176.653082,256.613975 170.232773,254.868042 C164.203482,253.228773 146.481627,247.042729 146.481627,247.042729" id="Fill-28" fill="#459223"></path>
                                            <path d="M130.946878,264.851353 C130.946878,264.851353 138.597242,265.820514 143.039388,268.485708 C143.039388,268.485708 148.258417,271.635483 144.538366,264.851353 C144.538366,264.851353 141.805459,260.732417 147.234749,263.397611 C147.234749,263.397611 173.14727,274.300677 184.252636,273.816096 C184.252636,273.816096 193.66209,272.362354 196.360941,274.785257 C196.360941,274.785257 199.553363,276.72358 203.748724,276.48129 C203.748724,276.48129 204.027098,278.661903 196.360941,278.419612 C196.360941,278.419612 182.771921,276.238999 177.342631,276.96587 C177.342631,276.96587 174.3812,278.661903 178.329774,281.084806 L180.304062,283.75 L173.14727,283.75 C173.14727,283.75 157.599757,272.120063 143.53296,274.300677 C143.53296,274.300677 141.558673,275.269838 137.856884,272.120063 C137.856884,272.120063 126.751518,265.820514 130.946878,264.851353" id="Fill-30" fill="#459223"></path>
                                            <path d="M91.8813082,210.542753 C91.8813082,210.542753 91.6119654,204.756391 96.1907934,205.007972 C96.1907934,205.007972 102.385678,205.511134 102.924364,214.819629 C102.924364,214.819629 106.156478,225.889191 109.927277,228.656581 C109.927277,228.656581 110.735306,233.6882 106.964506,237.210334 C106.964506,237.210334 103.46305,239.977724 95.9214506,228.405 C95.9214506,228.405 85.9557661,219.851248 91.8813082,210.542753" id="Fill-32" fill="#459223"></path>
                                            <path d="M134.360698,194.16926 C138.914723,204.681885 148.094753,213.889059 148.094753,213.889059 C151.569592,215.368044 152.065998,218.052895 152.065998,218.052895 C154.548026,223.532041 168.116282,228.678909 168.116282,228.678909 C177.713292,231.472711 177.879092,233.974661 177.879092,233.974661 C177.879092,236.312443 173.139907,235.087843 173.139907,235.087843 C170.551648,234.101853 163.483328,233.280031 163.483328,233.280031 C150.907387,232.129873 145.612725,228.350081 145.612725,228.350081 C142.799594,226.378101 139.82116,226.049273 139.82116,226.049273 C134.857103,226.542268 134.857103,224.734949 134.857103,224.734949 C134.029595,222.762969 131.878669,220.910787 131.878669,220.910787 C129.561944,219.551599 126.914613,214.710389 126.914613,214.710389 C125.260093,206.164814 120.296036,204.686322 120.296036,204.686322 C115.33198,202.878509 115.497283,195.319417 115.497283,195.319417 C114.338672,185.952512 116.8207,166.562033 116.8207,166.562033 C116.8207,163.932891 117.979311,162.453906 117.979311,162.453906 C121.619454,157.030961 126.58351,126.957774 126.58351,126.957774 C128.734932,121.53483 131.878669,119.72751 131.878669,119.72751 C135.187709,117.919697 141.640983,110.8536 141.640983,110.8536 C145.115822,107.73097 141.144577,107.073808 141.144577,107.073808 C133.036784,106.087818 124.266785,111.017768 124.266785,111.017768 C114.835078,116.76954 110.781429,125.478789 110.781429,125.478789 C108.547604,130.531988 104.576359,128.683257 104.576359,128.683257 C100.977418,128.313511 98.371288,135.338689 98.371288,135.338689 C95.8892598,137.680415 96.1374626,134.845694 96.1374626,134.845694 C94.2759414,131.148232 92.7976454,137.286019 92.662623,138.543157 C92.2262825,142.587194 92.7485012,146.236343 92.4144202,148.772802 C91.4558609,156.036591 90.8011019,174.901044 90.8011019,174.901044 C91.0493047,179.584496 89.5600877,179.461247 89.5600877,179.461247 C87.822668,179.461247 87.4503637,177.24277 87.4503637,177.24277 L87.3262623,161.713921 C86.0852482,158.509453 84.8442341,160.727931 84.8442341,160.727931 C79.7560761,165.657881 82.3622058,177.859014 82.3622058,177.859014 C85.0924369,181.063481 83.95815,192.279117 83.95815,192.279117 C83.692573,198.195057 86.2093496,203.371504 86.2093496,203.371504 C88.1949722,208.301454 84.4719298,211.62917 84.4719298,211.62917 C82.73451,215.326632 85.9611468,219.886836 85.9611468,219.886836 C88.0708708,223.337801 89.3530866,231.472711 89.3530866,231.472711 C94.6477492,253.493318 105.56917,263.02439 105.56917,263.02439 C109.871518,266.311188 109.855136,259.737593 109.855136,259.737593 C108.350531,256.615455 100.640358,249.220531 100.640358,249.220531 C96.5340907,244.121483 93.8837809,237.340337 93.3451808,234.430188 C93.1714388,233.494977 93.7735789,233.032054 94.15184,233.115863 C97.5537079,233.871132 101.266822,240.859336 103.645598,244.783083 C104.59969,246.357216 105.238067,248.727536 105.238067,248.727536 C106.561485,251.028343 109.855136,249.384698 109.855136,249.384698 C112.487079,253.328658 123.77038,265.160044 123.77038,265.160044 C132.209276,272.883797 140.648172,275.678092 140.648172,275.678092 C145.943331,278.471895 142.964897,279.129057 142.964897,279.129057 C140.151766,280.279215 147.101445,281.265205 147.101445,281.265205 C150.576285,283.237185 153.058313,281.594032 153.058313,281.594032 C154.54753,280.608042 156.20205,278.308221 156.20205,278.308221 C162.986426,280.773196 172.583933,280.032224 172.583933,280.032224 C166.792368,284.221203 169.109093,286.689135 169.109093,286.689135 C173.907847,289.482938 177.878595,282.08752 177.878595,282.08752 C181.353435,285.702652 191.77845,283.07351 191.77845,283.07351 C202.533575,277.321738 214.116704,280.032224 214.116704,280.032224 C214.61311,285.53602 219.907773,282.580515 219.907773,282.580515 C223.217309,276.828743 216.598732,278.14356 216.598732,278.14356 L214.61311,275.678585 C222.720903,272.884783 236.289159,261.965437 236.289159,261.965437 C239.433392,259.261852 239.433392,257.602431 239.433392,257.602431 C238.274782,256.781102 233.310725,260.231574 233.310725,260.231574 C229.174177,265.161523 222.389801,265.654518 222.389801,265.654518 C218.253253,265.490351 212.461688,269.222816 212.461688,269.222816 C208.32514,271.805617 206.670619,270.091473 206.670619,270.091473 C205.512009,269.105483 202.699374,267.733478 202.699374,267.733478 C198.56233,268.004625 199.886243,265.981867 199.886243,265.981867 C199.886243,265.981867 200.547952,261.70908 226.692149,256.77913 C226.692149,256.77913 235.62745,254.478815 241.584318,247.248058 C241.584318,247.248058 246.879477,245.276571 245.886666,249.548865 C245.886666,249.548865 243.404141,256.450795 247.541186,252.342668 C247.541186,252.342668 250.850722,251.192018 250.684923,245.933733 C250.684923,245.933733 252.670545,240.181961 256.641791,236.566828 C256.641791,236.566828 264.253675,233.445184 264.584281,237.717479 C264.584281,237.717479 263.922572,242.976256 258.131008,246.098393 C258.131008,246.098393 256.641791,254.314648 259.289618,256.286628 C259.289618,256.286628 260.28243,262.367228 251.843534,264.339208 C251.843534,264.339208 237.447273,268.940823 243.569941,273.213118 C243.569941,273.213118 249.195706,278.965383 232.23551,278.14356 C232.23551,278.14356 226.857452,278.634583 230.663394,280.032224 C230.663394,280.032224 240.260404,282.580022 234.138233,284.88083 C234.138233,284.88083 230.828697,286.195647 229.505279,287.674632 C229.505279,287.674632 226.857452,288.496455 224.541223,287.674632 C224.541223,287.674632 223.217805,284.882309 218.087949,292.605568 C218.087949,292.605568 191.282044,293.263224 185.655783,291.126583 C185.655783,291.126583 171.756424,289.510053 181.188132,292.700716 C181.188132,292.700716 173.080835,291.94742 167.950979,298.521015 C167.950979,298.521015 168.116282,299.83534 166.295962,300 C166.295962,300 163.152225,298.849843 161.497705,297.370858 C161.497705,297.370858 147.267245,288.497441 137.339132,287.839786 C137.339132,287.839786 139.655857,278.307728 129.231338,284.0595 C129.231338,284.0595 126.418207,286.360308 124.92899,283.402338 C124.92899,283.402338 122.414696,273.707098 109.855136,277.322231 C109.855136,277.322231 105.63966,268.939837 100.640358,270.418822 C100.640358,270.418822 98.8676937,256.491714 99.2399979,269.802578 C99.2399979,269.802578 90.3046962,259.449684 84.4719298,262.654151 C84.4719298,262.654151 80.8729889,267.337603 78.8873663,263.270395 C78.8873663,263.270395 82.8586115,260.682171 76.5294394,257.354455 C76.5294394,257.354455 76.0330338,256.614962 79.3837719,255.628972 C79.3837719,255.628972 84.5960312,255.012729 72.806397,245.645824 C72.806397,245.645824 67.5941377,238.374148 66.1049208,239.11364 C66.1049208,239.11364 63.9951968,239.818623 65.3603123,241.438112 C65.3603123,241.438112 67.3459349,242.318108 67.2218335,247.371306 C67.2218335,247.371306 67.0977321,248.97354 71.3171801,249.466535 C71.3171801,249.466535 74.7920196,252.671002 69.7038617,253.90349 C69.7038617,253.90349 65.9808194,253.410495 62.878284,250.206028 L55.8045035,242.441357 C55.8045035,242.441357 52.7019682,239.236889 55.8045035,237.018412 L56.549112,226.41902 C56.549112,226.41902 49.1030273,220.379831 47.1174047,217.175364 C47.1174047,217.175364 50.9645484,214.094145 52.329664,211.136175 C52.329664,211.136175 54.5634894,205.297142 46.1245934,203.471582 C46.1245934,203.471582 52.0814612,202.878509 51.7091569,197.455564 C51.7091569,197.455564 50.840447,193.018609 46.1245934,192.032619 C46.1245934,192.032619 43.5184637,188.335157 43.7666665,180.323988 C43.7666665,180.323988 44.2630722,176.626526 45.7522891,173.176054 C45.7522891,173.176054 48.3584188,170.094836 48.3584188,167.629861 C48.3584188,167.629861 47.2415061,159.988438 48.2343174,154.442245 C48.2343174,154.442245 48.9789258,149.0193 50.840447,147.293817 C50.840447,147.293817 52.329664,147.786812 52.2055626,149.512295 C52.2055626,149.512295 49.8476357,157.276966 51.5850555,159.988438 C51.5850555,159.988438 53.1983739,162.330165 54.9357936,159.988438 C54.9357936,159.988438 56.9214162,155.674732 56.549112,150.128539 C56.549112,150.128539 58.7829374,149.635544 58.4106332,153.086509 C58.4106332,153.086509 56.4250106,156.660722 58.5347346,157.89321 C58.5347346,157.89321 61.8849763,162.125079 65.1945128,147.991898 C65.1945128,147.991898 65.4511545,134.845694 69.2938307,129.915744 C69.2938307,129.915744 72.4752945,128.600927 72.8059006,131.558897 C72.8059006,131.558897 68.4295884,136.160019 69.2938307,139.446816 C69.2938307,139.446816 70.8207744,140.761634 77.439351,129.586917 L85.2875243,118.083865 C85.2875243,118.083865 84.4406563,111.181935 87.5585802,110.853107 C87.5585802,110.853107 95.309458,107.237975 92.9932292,112.167925 C92.9932292,112.167925 91.6305957,115.454229 89.829636,116.769047 C89.829636,116.769047 76.4465397,130.244079 75.7843345,136.488846 C75.7843345,136.488846 75.7843345,144.705594 80.748391,136.488846 C80.748391,136.488846 87.4578098,123.013815 91.4250838,121.288332 C91.4250838,121.288332 92.9108259,122.274322 89.1877835,128.929754 C89.1877835,128.929754 85.2165383,134.599197 86.2093496,137.803664 C86.2093496,137.803664 86.9539581,141.254629 85.2165383,144.952091 C85.2165383,144.952091 83.7273213,151.114529 85.7129439,151.114529 C85.7129439,151.114529 89.34018,151.227917 88.6913778,141.008131 C88.6913778,141.008131 92.662623,133.859704 93.4072315,128.190262 C93.4072315,128.190262 96.1374626,119.316352 97.8748824,118.083865 C97.8748824,118.083865 99.1158965,118.330362 99.1158965,119.809347 C99.1158965,119.809347 104.079953,124.739297 103.335345,117.344372 C103.335345,117.344372 100.853316,115.125895 105.072764,109.70295 C105.072764,109.70295 109.292212,106.005488 106.313778,105.75899 C106.313778,105.75899 100.853316,107.237975 98.371288,116.358382 C98.371288,116.358382 97.1302739,114.139905 97.1302739,110.442442 L95.3928541,109.949447 C95.3928541,109.949447 97.6266795,109.949447 99.1158965,105.75899 C99.1158965,105.75899 106.447312,96.1455878 109.855136,93.1876179 C109.855136,93.1876179 111.659571,90.229648 109.855136,88.0111706 C109.855136,88.0111706 108.671705,86.6554344 108.671705,84.9299519 C108.671705,84.9299519 103.459446,85.6694444 103.087142,90.5993943 C103.087142,90.5993943 104.328156,98.2408165 96.8820711,97.2548266 C96.8820711,97.2548266 93.1590287,94.7898516 96.5097668,91.708633 C96.5097668,91.708633 98.9917951,89.9831505 100.977418,88.7506631 C100.977418,88.7506631 102.09433,87.0251806 99.860505,84.9299519 C99.860505,84.9299519 96.7579697,82.0952308 100.977418,78.6442659 C100.977418,78.6442659 113.51166,71.2493411 116.738297,68.7843662 C116.738297,68.7843662 121.578252,64.8404063 115.745486,63.2381726 C115.745486,63.2381726 108.547604,61.3894414 117.731108,55.8432478 C117.731108,55.8432478 124.308483,49.8040593 127.038714,46.5995919 C127.038714,46.5995919 129.644844,46.0109559 131.506365,45.2576595 C131.506365,45.2576595 133.740191,44.5043632 128.527931,43.2718757 C128.527931,43.2718757 126.294106,41.9161395 132.747379,42.0393883 C132.747379,42.0393883 138.580146,43.1328511 143.668304,42.0315003 C143.668304,42.0315003 153.100011,39.0814184 159.801487,42.655632 C159.801487,42.655632 169.109093,48.4483231 172.956237,46.9693381 C172.956237,46.9693381 169.109093,41.0533983 160.421994,40.1906571 C160.421994,40.1906571 165.634254,39.6976621 169.853702,40.1906571 C169.853702,40.1906571 171.46702,41.5463933 172.459831,43.0253782 C172.459831,43.0253782 177.423888,47.4623331 176.431077,43.8881195 C176.431077,43.8881195 175.314164,41.669642 174.07315,40.9301495 C174.07315,40.9301495 172.708034,40.0674083 175.686468,38.9581696 C175.686468,38.9581696 184.497668,36.2466972 188.344812,38.2186771 C188.344812,38.2186771 189.95813,39.2046671 193.060666,38.4651746 C193.060666,38.4651746 200.506751,38.0954284 200.630852,39.8209108 C200.630852,39.8209108 197.900621,42.4091345 200.134446,43.3951245 C200.134446,43.3951245 205.594908,47.0925869 211.179472,48.6948206 C211.179472,48.6948206 217.012238,50.913298 220.238875,54.1177654 C220.238875,54.1177654 228.057264,60.5267002 233.145422,61.2661927 C233.145422,61.2661927 250.023214,83.7383831 255.152574,100.82904 C255.152574,100.82904 255.648979,106.251985 258.958516,107.73097 C258.958516,107.73097 262.764458,110.52428 262.764458,114.797067 C262.764458,114.797067 260.11663,122.849154 261.605847,126.464779 C261.605847,126.464779 263.426663,128.600927 263.260864,131.887724 C263.260864,131.887724 259.951327,140.103979 264.584281,140.103979 C264.584281,140.103979 269.714137,140.268639 272.361468,135.667024 C272.361468,135.667024 272.692571,134.352699 275.671005,134.681034 C275.671005,134.681034 277.987234,136.324679 273.35428,140.432806 C273.35428,140.432806 267.397412,146.512913 261.605847,146.348746 C261.605847,146.348746 255.152574,145.198589 255.152574,151.935858 C255.152574,151.935858 255.814779,166.068053 249.195706,166.232713 L249.195706,162.453413 L245.39026,162.453413 C245.39026,162.453413 243.901043,162.453413 245.224461,156.701641 C245.224461,156.701641 248.368694,150.949868 245.886666,148.484893 C245.886666,148.484893 243.073535,147.827731 242.577129,154.729661 L241.584318,140.268639 C241.584318,140.268639 244.562752,139.610984 243.238838,135.831684 C243.238838,135.831684 240.095101,134.023871 240.260404,130.572907 C240.260404,130.572907 241.419015,126.793114 238.605884,124.328139 C238.605884,124.328139 236.124352,121.206002 236.454958,117.097875 C236.454958,117.097875 235.462147,111.839097 237.613073,109.867117 C237.613073,109.867117 240.095101,110.195452 240.260404,113.482249 C240.260404,113.482249 240.514067,120.150007 242.573158,121.377564 C242.866534,121.552577 243.197636,121.616667 243.569941,121.53483 C246.548375,120.877174 246.383071,119.234022 245.39026,113.482249 C245.39026,113.482249 238.275278,86.8605203 230.994496,86.0391906 C230.994496,86.0391906 228.801873,83.8207132 229.174177,82.3417283 C229.174177,82.3417283 231.408002,80.9859921 233.393625,83.3277182 C233.393625,83.3277182 237.36487,84.8067032 233.765929,80.4929971 C233.765929,80.4929971 222.348599,63.6079188 219.866571,69.0308637 C219.866571,69.0308637 220.238875,71.2493411 217.632745,70.5098486 C217.632745,70.5098486 214.654312,73.3445698 219.990672,75.8095447 C219.990672,75.8095447 225.07883,77.7815247 228.057264,84.1904595 C228.057264,84.1904595 229.174177,86.5321856 227.064453,85.4229469 C227.064453,85.4229469 208.697444,64.8404063 198.272925,63.4846701 C198.272925,63.4846701 194.549883,62.0056851 190.330435,61.8824364 C190.330435,61.8824364 185.986885,61.1429439 178.540801,54.4875116 C178.540801,54.4875116 166.130659,48.0785768 157.319459,47.0925869 C157.319459,47.0925869 153.844619,46.7228406 156.202546,48.8180693 C156.202546,48.8180693 163.772732,55.4735016 171.963426,56.5827403 C171.963426,56.5827403 160.9184,58.677969 147.76365,58.3082228 C147.76365,58.3082228 137.21503,58.8012177 131.630467,65.5798988 C131.630467,65.5798988 128.527931,68.1681225 125.301295,70.3865999 C125.301295,70.3865999 116.11779,75.8095447 120.089035,74.700306 C120.089035,74.700306 138.08374,69.0308637 143.668304,68.2913712 C143.668304,68.2913712 145.902129,67.7983762 146.274433,69.4006099 C146.274433,69.4006099 147.76365,71.3725899 154.961532,71.9888336 C154.961532,71.9888336 171.342919,73.3445698 172.459831,76.7955347 C172.459831,76.7955347 171.094716,77.0420322 168.612688,76.179291 C168.612688,76.179291 149.128766,71.2493411 146.02623,75.0700522 C146.02623,75.0700522 143.668304,78.0280221 140.069363,78.1512709 C140.069363,78.1512709 137.587334,78.2745196 137.587334,80.2464996 C137.587334,80.2464996 137.463233,80.8627433 135.47761,81.3557383 C135.47761,81.3557383 130.389452,84.0672107 133.616089,83.943962 C133.616089,83.943962 137.339132,84.3137082 134.733002,86.2856881 C134.733002,86.2856881 128.652033,88.3809168 126.790511,86.9019319 C126.790511,86.9019319 124.804889,85.1764494 123.687976,86.4089369 C123.687976,86.4089369 116.862398,92.201628 113.387559,94.5433541 C113.387559,94.5433541 108.795807,102.061528 113.139356,99.7198015 C113.139356,99.7198015 114.752674,98.1175678 116.11779,96.5153341 C116.11779,96.5153341 118.103413,94.6666029 123.812078,92.8178717 C123.812078,92.8178717 129.27254,90.9691405 134.236596,89.3669068 C134.236596,89.3669068 155.333836,82.2184795 174.321352,88.0111706 C174.321352,88.0111706 179.285409,90.3528968 181.271032,92.3248767 C181.271032,92.3248767 165.386051,91.3388867 163.400428,94.4201054 C163.400428,94.4201054 163.52453,101.198786 180.154119,101.938279 C180.154119,101.938279 197.900621,105.512493 203.98159,117.960616 C203.98159,117.960616 211.303573,132.627217 211.675878,137.557167 C211.675878,137.557167 211.799979,139.529146 208.076937,138.543157 C208.076937,138.543157 203.11288,138.543157 211.055371,144.335848 C211.055371,144.335848 213.165095,148.896051 212.172283,161.83717 C212.172283,161.83717 209.442052,182.665715 193.184767,184.637695 C193.184767,184.637695 174.321352,188.088659 166.130659,172.066815 C166.130659,172.066815 163.648631,165.657881 167.619876,165.534632 C167.619876,165.534632 170.226006,164.447578 171.094716,168.749945 C171.094716,168.749945 176.679279,186.363177 189.337623,180.693735 C189.337623,180.693735 198.769331,178.598506 203.361083,172.436562 C203.361083,172.436562 201.499562,170.486767 203.857489,168.749945 C203.857489,168.749945 209.442052,165.781129 207.45643,155.551483 C207.45643,155.551483 205.346706,154.811991 206.835923,153.086509 C206.835923,153.086509 209.193849,139.282649 195.542694,132.627217 C195.542694,132.627217 181.891539,129.422749 184.125364,145.321838 C184.125364,145.321838 185.49048,149.142549 188.220711,149.389046 C188.220711,149.389046 188.593015,146.431076 193.43297,144.582345 C193.43297,144.582345 196.659607,142.733614 195.17039,139.529146 C195.17039,139.529146 198.148824,138.543157 198.148824,142.487116 C198.148824,142.487116 198.024722,151.730772 201.623663,153.702752 C201.623663,153.702752 203.11288,156.290976 201.003156,158.139707 C201.003156,158.139707 198.148824,162.82316 190.702739,159.988438 C190.702739,159.988438 184.869973,156.660722 184.125364,162.576662 C184.125364,162.576662 185.49048,163.932398 184.497668,165.904378 C184.497668,165.904378 182.387944,169.971587 186.35919,171.204074 C186.35919,171.204074 189.709928,172.55981 189.709928,174.531297 C189.709928,174.531297 189.709928,176.996272 192.316057,177.119521 C192.316057,177.119521 184.497668,181.309978 176.679279,171.697069 C176.679279,171.697069 173.949048,167.999607 177.672091,165.288134 C177.672091,165.288134 181.519234,162.206916 176.306975,158.509453 C176.306975,158.509453 167.495775,155.674732 164.641442,152.840011 C164.641442,152.840011 163.52453,151.114529 166.875268,149.142549 C166.875268,149.142549 178.789003,147.293817 170.101904,138.419908 C170.101904,138.419908 164.145037,126.218282 156.947155,136.078182 C156.947155,136.078182 160.297893,137.926913 157.195358,140.14539 C157.195358,140.14539 153.720518,142.240619 154.092822,145.321838 C154.092822,145.321838 153.844619,152.716762 151.114388,157.153717 C151.114388,157.153717 145.405723,170.834328 132.126872,175.147541 C132.126872,175.147541 130.761757,177.24277 131.878669,178.475257 C131.878669,178.475257 133.988393,183.528456 132.871481,188.458406 C132.871481,188.458406 133.214993,191.524342 134.360698,194.16926" id="Fill-34" fill="#48981D"></path>
                                            <path d="M210.191282,200 C210.191282,200 208.995767,195.208883 212.582314,192.69925 C212.582314,192.69925 220.233614,187.679984 219.994511,191.330359 C219.994511,191.330359 218.559892,197.490367 210.191282,200" id="Fill-36" fill="#48981D"></path>
                                            <path d="M189.213126,213.356641 C189.213126,213.356641 198.535447,210.642568 208.348417,208.175228 C208.348417,208.175228 214.726847,205.954623 219.142683,202.993816 C219.142683,202.993816 223.803844,200.279743 226.993059,201.266679 C226.993059,201.266679 220.369304,207.913197 226.993059,204.959792 C226.993059,204.959792 236.070055,201.019945 236.315379,181.7747 C236.315379,181.7747 237.296676,176.100314 239.504595,177.826957 C239.504595,177.826957 241.712513,188.436516 236.806028,198.059138 C236.806028,198.059138 234.59811,202.731785 235.088758,204.959792 C235.088758,204.959792 224.054074,221.574854 214.606638,223.757462 C214.606638,223.757462 207.857768,227.667207 203.196608,225.693336 C203.196608,225.693336 195.591556,223.472731 203.687256,219.278254 C203.687256,219.278254 210.114751,220.018456 208.360192,216.829667 C208.360192,216.829667 191.911693,216.070714 189.213126,216.070714 C189.213126,216.070714 185.358592,214.454606 189.213126,213.356641" id="Fill-38" fill="#48981D"></path>
                                            <path d="M74.1450041,56.5384615 L82.5,51.9570136 L78.322502,48.75 C78.322502,48.75 70.8030057,50.1244344 66.9040076,48.75 C66.9040076,48.75 57.4350122,50.1244344 63.0050095,56.5384615 C63.0050095,56.5384615 69.9675061,64.3269231 74.1450041,56.5384615" id="Fill-44" fill="#FFFFFF"></path>
                                            <path d="M36.5823862,121.425784 C36.5823862,121.425784 44.7258479,118.21777 50.1548224,121.425784 C50.1548224,121.425784 52.3264122,123.297126 52.3264122,127.574479 C52.3264122,127.574479 52.8693096,133.45584 56.398143,133.723174 C56.398143,133.723174 60.1984252,138.000527 53.6836558,139.604535 C53.6836558,139.604535 46.625989,142.27788 43.640053,133.723174 C43.640053,133.723174 42.8257068,130.247825 39.8397709,127.841814 C39.8397709,127.841814 34.9536938,124.901134 36.5823862,121.425784" id="Fill-54" fill="#FFFFFF"></path>
                                            <path d="M28.124279,203.387217 C28.124279,203.387217 38.7803266,193.885005 42.4975525,196.808763 C42.4975525,196.808763 43.9844429,199.245227 40.0194019,201.681692 C40.0194019,201.681692 35.0883778,206.310975 35.4472141,208.0165 C35.4472141,208.0165 38.5325116,205.823682 40.267217,206.067328 C40.267217,206.067328 45.430196,202.656278 47.4330373,200.46346 C47.4330373,200.46346 55.6317507,204.361803 51.1710797,209.722025 C51.1710797,209.722025 46.5988918,214.838601 37.7335558,211.183904 C37.7335558,211.183904 35.3109158,209.234732 31.3458748,209.234732 C31.3458748,209.234732 25.6461284,207.529207 28.124279,203.387217" id="Fill-64" fill="#FFFFFF"></path>
                                            <path d="M61.4909763,231.567968 C61.4909763,231.567968 59.897582,227.035448 64.9053925,227.539061 C64.9053925,227.539061 71.5065973,228.042675 67.4092978,233.834228 C67.4092978,233.834228 63.9948815,237.611329 61.4909763,231.567968" id="Fill-68" fill="#FFFFFF"></path>
                                            <path d="M46.5774901,228.092666 C46.5774901,228.092666 51.1828194,225.629946 49.709114,230.744827 C49.709114,230.744827 48.0511955,231.881467 46.5774901,230.744827 C46.5774901,230.744827 45.8406374,229.418746 46.5774901,228.092666" id="Fill-70" fill="#FFFFFF"></path>
                                            <path d="M62.5,213.125 C62.5,214.160129 61.3806282,215 60.0002088,215 C58.6193718,215 57.5,214.160129 57.5,213.125 C57.5,212.089871 58.6193718,211.25 60.0002088,211.25 C61.3806282,211.25 62.5,212.089871 62.5,213.125" id="Fill-72" fill="#FFFFFF"></path>
                                            <path d="M128.75,59.375 C128.75,60.4105946 128.470208,61.25 128.125,61.25 C127.779792,61.25 127.5,60.4105946 127.5,59.375 C127.5,58.3394054 127.779792,57.5 128.125,57.5 C128.470208,57.5 128.75,58.3394054 128.75,59.375" id="Fill-78" fill="#FFFFFF"></path>
                                            <path d="M125,63.125 C125,64.1605769 124.160441,65 123.125,65 C122.089559,65 121.25,64.1605769 121.25,63.125 C121.25,62.0894231 122.089559,61.25 123.125,61.25 C124.160441,61.25 125,62.0894231 125,63.125" id="Fill-80" fill="#FFFFFF"></path>
                                            <path d="M92.5,84.375 C92.5,84.7202273 92.2203006,85 91.875,85 C91.5296994,85 91.25,84.7202273 91.25,84.375 C91.25,84.0297727 91.5296994,83.75 91.875,83.75 C92.2203006,83.75 92.5,84.0297727 92.5,84.375" id="Fill-82" fill="#FFFFFF"></path>
                                            <path d="M101.25,91.875 C101.25,92.9105769 100.410441,93.75 99.375,93.75 C98.3395588,93.75 97.5,92.9105769 97.5,91.875 C97.5,90.8394231 98.3395588,90 99.375,90 C100.410441,90 101.25,90.8394231 101.25,91.875" id="Fill-84" fill="#FFFFFF"></path>
                                            <path d="M165,59.375 C165,59.7202273 164.160577,60 163.125,60 C162.089423,60 161.25,59.7202273 161.25,59.375 C161.25,59.0297727 162.089423,58.75 163.125,58.75 C164.160577,58.75 165,59.0297727 165,59.375" id="Fill-92" fill="#FFFFFF"></path>
                                            <path d="M186.25,74.375 C186.25,75.4105357 185.970208,76.25 185.625,76.25 C185.279792,76.25 185,75.4105357 185,74.375 C185,73.3394643 185.279792,72.5 185.625,72.5 C185.970208,72.5 186.25,73.3394643 186.25,74.375" id="Fill-94" fill="#FFFFFF"></path>
                                            <path d="M257.5,213.125 C257.5,213.470208 257.220227,213.75 256.875,213.75 C256.529773,213.75 256.25,213.470208 256.25,213.125 C256.25,212.779792 256.529773,212.5 256.875,212.5 C257.220227,212.5 257.5,212.779792 257.5,213.125" id="Fill-104" fill="#FFFFFF"></path>
                                            <path d="M262.5,223.125 C262.5,224.160536 261.6605,225 260.625,225 C259.5895,225 258.75,224.160536 258.75,223.125 C258.75,222.089464 259.5895,221.25 260.625,221.25 C261.6605,221.25 262.5,222.089464 262.5,223.125" id="Fill-106" fill="#FFFFFF"></path>
                                            <path d="M238.75,223.125 C238.75,224.160536 237.910577,225 236.875,225 C235.839423,225 235,224.160536 235,223.125 C235,222.089464 235.839423,221.25 236.875,221.25 C237.910577,221.25 238.75,222.089464 238.75,223.125" id="Fill-108" fill="#FFFFFF"></path>
                                            <path d="M238.75,235.625 C238.75,236.660577 237.910417,237.5 236.875,237.5 C235.839583,237.5 235,236.660577 235,235.625 C235,234.589423 235.839583,233.75 236.875,233.75 C237.910417,233.75 238.75,234.589423 238.75,235.625" id="Fill-110" fill="#FFFFFF"></path>
                                            <path d="M225,234.375 C225,235.410536 224.160882,236.25 223.125,236.25 C222.089118,236.25 221.25,235.410536 221.25,234.375 C221.25,233.339464 222.089118,232.5 223.125,232.5 C224.160882,232.5 225,233.339464 225,234.375" id="Fill-112" fill="#FFFFFF"></path>
                                            <path d="M225,249.375 C225,249.720208 224.160882,250 223.125,250 C222.089118,250 221.25,249.720208 221.25,249.375 C221.25,249.029792 222.089118,248.75 223.125,248.75 C224.160882,248.75 225,249.029792 225,249.375" id="Fill-114" fill="#FFFFFF"></path>
                                            <path d="M176.25,259.375 C176.25,259.72 175.970227,260 175.625,260 C175.279773,260 175,259.72 175,259.375 C175,259.03 175.279773,258.75 175.625,258.75 C175.970227,258.75 176.25,259.03 176.25,259.375" id="Fill-116" fill="#FFFFFF"></path>
                                            <path d="M141.25,270.625 C141.25,271.660536 140.970208,272.5 140.625,272.5 C140.279792,272.5 140,271.660536 140,270.625 C140,269.589464 140.279792,268.75 140.625,268.75 C140.970208,268.75 141.25,269.589464 141.25,270.625" id="Fill-118" fill="#FFFFFF"></path>
                                            <path d="M108.75,271.875 C108.75,272.9105 107.9105,273.75 106.875,273.75 C105.8395,273.75 105,272.9105 105,271.875 C105,270.8395 105.8395,270 106.875,270 C107.9105,270 108.75,270.8395 108.75,271.875" id="Fill-120" fill="#FFFFFF"></path>
                                            <path d="M50,243.125 C50,244.160536 49.7202083,245 49.375,245 C49.0297917,245 48.75,244.160536 48.75,243.125 C48.75,242.089464 49.0297917,241.25 49.375,241.25 C49.7202083,241.25 50,242.089464 50,243.125" id="Fill-124" fill="#FFFFFF"></path>
                                            <path d="M51.25,249.375 C51.25,249.720227 50.4104621,250 49.375,250 C48.3395379,250 47.5,249.720227 47.5,249.375 C47.5,249.029773 48.3395379,248.75 49.375,248.75 C50.4104621,248.75 51.25,249.029773 51.25,249.375" id="Fill-126" fill="#FFFFFF"></path>
                                            <path d="M56.25,259.375247 C56.25,260.410684 55.4107895,261.25 54.375,261.25 C53.3392105,261.25 52.5,260.410684 52.5,259.375247 C52.5,258.339316 53.3392105,257.5 54.375,257.5 C55.4107895,257.5 56.25,258.339316 56.25,259.375247" id="Fill-128" fill="#FFFFFF"></path>
                                            <path d="M77.5,249.375 C77.5,249.720217 77.2202273,250 76.875,250 C76.5297727,250 76.25,249.720217 76.25,249.375 C76.25,249.029783 76.5297727,248.75 76.875,248.75 C77.2202273,248.75 77.5,249.029783 77.5,249.375" id="Fill-130" fill="#FFFFFF"></path>
                                            <path d="M62.5,248.969236 C62.5,249.090373 62.22025,249.188472 61.875,249.188472 C61.52975,249.188472 61.25,249.090373 61.25,248.969236 C61.25,248.848099 61.52975,248.75 61.875,248.75 C62.22025,248.75 62.5,248.848099 62.5,248.969236" id="Fill-132" fill="#FFFFFF"></path>
                                            <path d="M95,235.625 C95,236.660577 94.1605769,237.5 93.125,237.5 C92.0894231,237.5 91.25,236.660577 91.25,235.625 C91.25,234.589423 92.0894231,233.75 93.125,233.75 C94.1605769,233.75 95,234.589423 95,235.625" id="Fill-134" fill="#FFFFFF"></path>
                                            <path d="M91.25,205.625 C91.25,206.660135 90.9702,207.5 90.625,207.5 C90.2798,207.5 90,206.660135 90,205.625 C90,204.589366 90.2798,203.75 90.625,203.75 C90.9702,203.75 91.25,204.589366 91.25,205.625" id="Fill-136" fill="#FFFFFF"></path>
                                            <path d="M275,256.875 C275,257.910455 274.160577,258.75 273.125,258.75 C272.089423,258.75 271.25,257.910455 271.25,256.875 C271.25,255.839545 272.089423,255 273.125,255 C274.160577,255 275,255.839545 275,256.875" id="Fill-142" fill="#FFFFFF"></path>
                                            <path d="M261.25,248.125 C261.25,249.160882 260.410455,250 259.375,250 C258.339545,250 257.5,249.160882 257.5,248.125 C257.5,247.089118 258.339545,246.25 259.375,246.25 C260.410455,246.25 261.25,247.089118 261.25,248.125" id="Fill-144" fill="#FFFFFF"></path>
                                            <path d="M275,235.625 C275,236.660577 274.160517,237.5 273.125,237.5 C272.089483,237.5 271.25,236.660577 271.25,235.625 C271.25,234.589423 272.089483,233.75 273.125,233.75 C274.160517,233.75 275,234.589423 275,235.625" id="Fill-148" fill="#FFFFFF"></path>
                                            <path d="M166.050093,226.626977 C166.050093,226.626977 173.860299,227.885803 178.83043,226.626977 C178.83043,226.626977 184.51058,225.480439 187.113981,227.186399 C187.113981,227.186399 186.877309,228.137568 184.51058,230.906984 C184.51058,230.906984 183.800561,231.914045 187.113981,232.66934 C187.113981,232.66934 191.610767,235.942287 185.693944,236.06817 C179.777122,236.194052 174.096972,237.201113 167.470131,232.66934 C167.470131,232.66934 163.210019,232.66934 162.5,229.396394 C162.5,229.396394 162.7646,226.245805 166.050093,226.626977" id="Fill-150" fill="#FFFFFF"></path>
                                            <path d="M87.7133929,280 C87.7133929,280 93.2354301,281.615385 97.4426966,282.307692 C97.4426966,282.307692 102.175871,286.230769 93.6298613,286.230769 C93.6298613,286.230769 89.554072,284.615385 87.7133929,287.5 C87.7133929,287.5 83.7690806,287.5 83.7690806,283.75 C83.7690806,283.75 83.2431723,280.923077 87.7133929,280" id="Fill-160" fill="#FFFFFF"></path>
                                            <path d="M250.637834,52.5 C254.349185,53.5678437 253.903805,54.9918132 253.458425,56.9491706 C253.458425,56.9491706 253.013045,59.6689685 250.637834,60 C250.637834,60 246.777726,59.0853919 246.777726,57.1275005 C246.777726,57.1275005 245.590343,54.9918132 246.777726,52.5 L250.637834,52.5 Z" id="Fill-168" fill="#FFFFFF"></path>
                                        </g>
                                    </g>
                                </g>
                                <rect id="1" fill-opacity="0.3" fill="#424242" x="0" y="0" width="225" height="225"></rect>
                                <text id="?" font-family="Roboto, Roboto-Regular, Helvetica, Arial" font-size="144" font-weight="normal" fill="#FFFFFF">
                                    <tspan x="79" y="162">?</tspan>
                                </text>
                            </g>
                        </g>
                    </g>
                </g>
            </g>
        </g>
    </g>
</svg>
