<?xml version="1.0" encoding="UTF-8"?>
<svg width="224px" height="340px" viewBox="0 0 224 340" version="1.1" xmlns="http://www.w3.org/2000/svg" xmlns:xlink="http://www.w3.org/1999/xlink">
    <!-- Generator: sketchtool 49.3 (51167) - http://www.bohemiancoding.com/sketch -->
    <title>C8FCCBED-5145-4EE1-AFB0-D8CCE3187157</title>
    <desc>Created with sketchtool.</desc>
    <defs>
        <path d="M98.1457689,4.84809649 C98.1457689,4.84809649 73.43836,12.2049912 60.8215156,26.3944211 C60.8215156,26.3944211 51.3603689,29.5465263 45.0509556,38.4804649 C45.0509556,38.4804649 25.6023822,40.5818684 18.76768,54.2459474 C18.76768,54.2459474 7.72967556,55.2966491 7.20339556,62.128193 C7.20339556,62.128193 6.67711556,66.8573421 13.5108267,66.8573421 C13.5108267,66.8573421 -1.73444444,104.693509 1.42026222,164.60036 C1.42026222,164.60036 -0.681884444,199.809772 14.0361156,218.202009 C14.0361156,218.202009 24.0245333,233.967491 28.2298178,272.85436 C28.2298178,272.85436 28.2298178,313.843623 40.3203822,322.252211 C40.3203822,322.252211 57.7649289,341.695149 83.7379867,338.016702 C83.7379867,338.016702 118.121613,333.812904 133.892173,320.149816 C133.892173,320.149816 145.981747,310.691518 153.867027,298.603491 C153.867027,298.603491 176.996587,250.783675 185.933436,237.119596 C185.933436,237.119596 209.589276,203.488219 214.32084,191.926535 C214.32084,191.926535 216.948276,173.18043 220.628271,169.678421 C220.628271,169.678421 222.205129,163.024307 220.628271,153.039667 C220.628271,153.039667 229.56512,121.509693 212.742991,77.8926842 C212.742991,77.8926842 196.447142,54.7712982 191.190289,47.4134123 C191.190289,47.4134123 174.980667,19.5152982 166.48288,15.3580877 C166.48288,15.3580877 151.2386,7.47485088 142.302742,4.84809649 C142.302742,4.84809649 131.086338,0.87822807 118.004662,0.877236842 C111.461347,0.877236842 104.455182,1.87044737 98.1457689,4.84809649 Z" id="path-1"></path>
        <path d="M122.998429,2.47182663 C122.998429,2.47182663 122.124675,5.09820433 126.31434,6.14835913 C126.31434,6.14835913 138.358885,9.1403096 139.930257,28.1332508 C139.930257,28.1332508 142.336791,42.2231579 140.435906,48.0029721 C140.435906,48.0029721 137.971979,53.846192 140.435906,59.9430341 C140.435906,59.9430341 141.987487,62.0126316 140.435906,65.1650774 C140.435906,65.1650774 139.580953,67.3466254 143.247157,69.3686687 C143.247157,69.3686687 144.435581,70.444582 146.149445,72.4834675 C146.149445,72.4834675 150.621126,66.0240248 151.464204,57.5980186 C151.973812,52.524582 149.332759,45.2349226 148.782581,42.4579567 C148.309586,40.0693498 144.295068,33.8179567 144.295068,33.8179567 L151.510712,35.919257 L154.733607,47.34613 C154.733607,47.34613 159.344812,59.5120743 162.231267,62.6357895 C163.802639,64.33387 166.624775,66.3143034 169.788298,67.970774 C171.794073,69.0209288 177.811398,72.1704025 177.811398,72.1704025 L174.669644,78.4743034 C174.669644,78.4743034 168.130838,73.3612384 165.653058,72.1704025 C163.476094,71.1242105 158.687764,68.7048916 156.390079,69.4449536 C155.006717,69.8927554 153.513518,72.756904 152.764445,74.006192 C152.095524,75.1227245 150.701277,78.785387 150.701277,78.785387 C155.665743,86.799257 160.741037,99.5546749 157.56267,115.601238 C157.56267,115.601238 157.212377,148.990217 110.079141,158.739814 C110.079141,158.739814 108.508759,159.20644 108.160445,160.782663 C108.160445,160.782663 108.858063,164.460186 113.047728,162.79678 C113.047728,162.79678 115.316717,163.058328 114.268806,165.862043 C114.268806,165.862043 112.524267,168.838142 115.141571,172.515666 C115.141571,172.515666 119.505393,176.718266 118.109168,179.170279 C118.109168,179.170279 117.237393,181.972012 112.872581,178.294489 C112.872581,178.294489 106.413927,172.515666 104.143948,176.193189 C104.143948,176.193189 103.567052,178.960248 109.554691,181.271579 C109.554691,181.271579 122.298832,188.276904 120.379147,193.355294 C120.379147,193.355294 119.999168,203.688421 104.129105,205.789721 C104.129105,205.789721 102.398419,208.592446 105.541162,208.941176 C105.541162,208.941176 113.920492,212.444334 120.553304,208.941176 C120.553304,208.941176 122.648136,207.715666 123.695058,209.642601 C123.695058,209.642601 124.117586,210.868111 121.201445,212.093622 C121.201445,212.093622 115.141571,218.047802 112.000806,226.979071 C112.000806,226.979071 108.749215,234.68483 103.654131,236.261053 C103.654131,236.261053 98.9073613,237.486563 99.7811152,244.490898 C99.7811152,244.490898 99.9542827,246.417833 96.8125288,248.694489 C96.8125288,248.694489 94.3674031,250.620433 96.8125288,255.523467 C96.8125288,255.523467 98.4798848,260.253127 95.7260262,264.979814 C95.7260262,264.979814 91.2266387,273.735728 90.0035812,280.040619 C90.0035812,280.040619 82.1487016,300.530526 71.8496859,304.908483 C71.8496859,304.908483 62.0731414,310.512941 57.5351623,314.015108 C57.5351623,314.015108 50.2037435,317.167554 40.0778953,314.015108 C40.0778953,314.015108 21.9230105,311.738452 15.8136597,301.23096 C15.8136597,301.23096 9.84086387,293.768916 0.373052356,250.269721 C0.373052356,250.269721 0.189,297.709969 14.5737801,306.380681 C22.2772618,311.024149 30.567534,318.53969 40.3806911,319.65226 C47.6992461,320.481486 67.2988429,319.126192 78.1064764,315.322848 C80.5882147,314.44904 85.3330052,314.179567 88.092801,312.000991 C92.4595916,308.554303 94.4683351,304.554799 99.7811152,300.443344 C99.7811152,300.443344 113.134806,288.622167 119.157079,278.114675 C119.157079,278.114675 131.201623,263.142043 135.392277,251.583406 C135.392277,251.583406 145.604215,226.62935 153.983545,214.020557 C153.983545,214.020557 181.216366,187.488297 184.357131,150.713065 C184.357131,150.713065 175.716565,150.449536 162.362874,160.957028 C162.362874,160.957028 157.125298,163.613127 158.434445,158.739814 C158.434445,158.739814 158.965822,150.517895 169.959487,143.391703 C169.959487,143.391703 177.214712,140.73065 169.657681,120.240743 C169.657681,120.240743 171.789126,111.449164 177.811398,127.928669 C177.811398,127.928669 187.499874,145.342415 186.976414,132.003467 C186.976414,132.003467 194.419649,94.9052632 175.45533,59.9430341 C175.45533,59.9430341 159.248827,45.3765944 151.510712,31.1905882 C151.510712,31.1905882 140.628864,8.24965944 128.408183,1.59603715 C128.408183,1.59603715 126.900141,0.649907121 125.430691,0.649907121 C124.450068,0.650897833 123.486267,1.07095975 122.998429,2.47182663 Z" id="path-3"></path>
        <path d="M18.7787206,6.55566667 C18.7787206,6.55566667 -5.26639706,15.4858889 1.99719118,45.9557361 C1.99719118,45.9557361 9.78002941,71.6981667 30.5313088,70.1223611 C30.5313088,70.1223611 62.1789559,71.6981667 65.8097647,43.3297222 C65.8097647,43.3297222 71.5175735,18.1128889 53.3595882,6.55566667 C53.3595882,6.55566667 48.2143824,0.485166667 37.9692941,0.485166667 C32.84675,0.485166667 26.44825,2.00180556 18.7787206,6.55566667 Z" id="path-5"></path>
        <path d="M2.31328125,21.4647761 C2.31328125,21.4647761 -7.58559375,61.3622687 23.932125,64.5115522 C23.932125,64.5115522 50.2415156,71.860209 59.0979375,45.0878507 C59.0979375,45.0878507 72.1222031,20.9397313 45.5529375,5.19134328 C45.5529375,5.19134328 36.8559844,0.324089552 26.9974687,0.323104478 C17.7000469,0.322119403 7.37001563,4.64856716 2.31328125,21.4647761 Z" id="path-7"></path>
        <path d="M17.011,1.32 C11.211,2.018 4.121,3.597 0.033,7.345 C0.033,7.345 14.252,7.57 20.719,6.359 L37.672,3.597 C37.672,3.597 32.579,0.935 23.283,0.935 C21.368,0.935 19.276,1.047 17.011,1.32 Z" id="path-9"></path>
        <path d="M56.937479,3.317 C45.6164202,5.134 33.2452605,4.997 25.0983025,3.934 C13.5521513,2.427 0.380773109,1.464 0.380773109,1.464 C-0.939042017,3.34 5.90694118,3.934 5.90694118,3.934 C17.7366891,4.701 26.149395,7.741 26.149395,7.741 C39.0332101,9.246 56.937479,7.741 56.937479,7.741 C66.9535966,5.923 78.9955462,3.934 78.9955462,3.934 C90.5635126,2.656 106.862387,6.235 106.862387,6.235 C117.379261,10.837 117.642034,6.235 117.642034,6.235 C117.116487,3.423 112.92005,2.611 112.92005,2.611 C106.471697,0.78 98.6688235,0.148 90.9611429,0.148 C73.7093445,0.148 56.937479,3.317 56.937479,3.317 Z" id="path-11"></path>
        <path d="M5.151,64.5141844 C10.558,93.0811348 20.761,110.181986 20.761,110.181986 C26.793,122.125674 32.857,139.691206 32.857,139.691206 C33.956,118.964255 29.985,114.748369 29.985,114.748369 C29.275,110.533475 32.81,99.6432624 32.81,99.6432624 C19.737,96.6129078 16.984,89.631773 16.984,89.631773 C18.007,73.8236879 31.758,72.5934752 31.758,72.5934752 C36.725,69.0805674 23.244,58.1903546 23.244,58.1903546 C11.537,49.7605674 8.354,38.6042553 7.989,30.7900709 C7.627,23.0384397 5.151,0.227375887 5.151,0.227375887 C-2.655,32.5465248 2.161,48.7170213 5.151,64.5141844 Z" id="path-13"></path>
    </defs>
    <g id="Page-1" stroke="none" stroke-width="1" fill="none" fill-rule="evenodd">
        <g id="1366-x-768-Compertamentos" transform="translate(-956.000000, -427.000000)">
            <g id="speaker/section/empty" transform="translate(0.000000, 147.000000)">
                <g id="SHOW-ME-WHAT-YOU-GOT" transform="translate(954.000000, 178.000000)">
                    <g id="il_showme_standard" transform="translate(2.000000, 102.000000)">
                        <g id="Group-3">
                            <mask id="mask-2" fill="white">
                                <use xlink:href="#path-1"></use>
                            </mask>
                            <g id="Clip-2"></g>
                            <polygon id="Fill-1" fill="#E7C94E" mask="url(#mask-2)" points="-3.55808889 343.029342 227.550191 343.029342 227.550191 -3.67349123 -3.55808889 -3.67349123"></polygon>
                        </g>
                        <path d="M166.485626,15.4976877 C166.485626,15.4976877 151.241974,7.605165 142.306485,4.9753165 C142.306485,4.9753165 117.074827,-3.96914562 98.1513312,4.9753165 C98.1513312,4.9753165 73.4449405,12.3408771 60.8296071,26.5460286 C60.8296071,26.5460286 51.3678593,29.7028392 45.058706,38.6473014 C45.058706,38.6473014 25.6099431,40.7511802 18.7765136,54.430362 C18.7765136,54.430362 7.73797296,55.4832938 7.21270571,62.3228847 C7.21270571,62.3228847 6.6864474,67.0576044 13.5198769,67.0576044 C13.5198769,67.0576044 -1.72476595,104.938339 1.42981071,164.915756 C1.42981071,164.915756 -0.672249323,200.166642 14.0461352,218.580544 C14.0461352,218.580544 24.0331503,234.363605 28.2382614,273.297271 C28.2382614,273.297271 28.2382614,314.334817 40.3283276,322.752317 C40.3283276,322.752317 57.7721553,342.21915 83.7441427,338.53637 C83.7441427,338.53637 118.125361,334.32762 133.895271,320.648438 C133.895271,320.648438 145.985338,311.178006 153.870293,299.076733 C153.870293,299.076733 176.998899,251.200589 185.93538,237.521408 C185.93538,237.521408 209.589254,203.849423 214.321615,192.27412 C214.321615,192.27412 216.948942,173.505933 220.628786,170.000791 C220.628786,170.000791 222.205579,163.337847 220.628786,153.341445 C220.628786,153.341445 229.564275,121.774332 212.743831,78.1059453 C212.743831,78.1059453 196.447662,54.9563317 191.192017,47.5907711 C191.192017,47.5907711 174.983063,19.6588027 166.485626,15.4976877 Z" id="Stroke-4" stroke="#966A10" stroke-width="2"></path>
                        <g id="Group-8" transform="translate(30.000000, 14.000000)">
                            <mask id="mask-4" fill="white">
                                <use xlink:href="#path-3"></use>
                            </mask>
                            <g id="Clip-7"></g>
                            <polygon id="Fill-6" fill="#F49E41" mask="url(#mask-4)" points="-4.16888482 324.434427 192.958115 324.434427 192.958115 -3.8974613 -4.16888482 -3.8974613"></polygon>
                        </g>
                        <g id="Group-13" transform="translate(27.000000, 191.000000)" stroke-linecap="round" stroke-linejoin="round" stroke-width="2">
                            <path d="M108.08621,19.0327 C108.08621,19.0327 45.1784722,-3.0133 0.617956349,15.2687" id="Stroke-9" stroke="#966A10"></path>
                            <path d="M108.499901,0.6723 C108.499901,0.6723 127.737996,6.9923 123.996925,18.0533 C123.996925,18.0533 122.39375,29.6403 102.621925,29.1133" id="Stroke-11" stroke="#CC8327"></path>
                        </g>
                        <g id="Group-16" transform="translate(93.000000, 71.000000)">
                            <mask id="mask-6" fill="white">
                                <use xlink:href="#path-5"></use>
                            </mask>
                            <g id="Clip-15"></g>
                            <polygon id="Fill-14" fill="#FFFFFF" mask="url(#mask-6)" points="-3.89191176 74.7176389 71.1835588 74.7176389 71.1835588 -4.04206944 -3.89191176 -4.04206944"></polygon>
                        </g>
                        <path d="M146.704913,78.0960424 C146.704913,78.0960424 135.137059,64.379947 112.140212,78.0960424 C112.140212,78.0960424 88.1063365,87.06483 95.3665288,117.662883 C95.3665288,117.662883 103.145728,143.512638 123.887306,141.930202 C123.887306,141.930202 155.520157,143.512638 159.150253,115.02483 C159.150253,115.02483 164.854408,89.7018932 146.704913,78.0960424 Z" id="Stroke-17" stroke="#966A10" stroke-width="2"></path>
                        <g id="Group-21" transform="translate(13.000000, 73.000000)">
                            <mask id="mask-8" fill="white">
                                <use xlink:href="#path-7"></use>
                            </mask>
                            <g id="Clip-20"></g>
                            <polygon id="Fill-19" fill="#FFFFFF" mask="url(#mask-8)" points="-3.67959375 69.9570448 66.8075625 69.9570448 66.8075625 -4.19838806 -3.67959375 -4.19838806"></polygon>
                        </g>
                        <g id="Group-42" transform="translate(13.000000, 23.000000)" stroke-width="2">
                            <path d="M45.837464,55.9345625 C45.837464,55.9345625 12.8105114,37.3935863 2.32683365,72.3562292 C2.32683365,72.3562292 -7.63285829,112.617146 24.0816536,115.79611 C24.0816536,115.79611 50.5553171,123.211705 59.4670374,96.1944851 C59.4670374,96.1944851 72.5726251,71.8264018 45.837464,55.9345625 Z" id="Stroke-22" stroke="#966A10"></path>
                            <path d="M71.3918246,96.6506536 C71.3918246,96.6506536 60.2524218,118.339779 57.0688863,140.029898 C57.0688863,140.029898 53.4911232,147.435552 61.9105545,149.55188 C61.9105545,149.55188 80.4095308,151.668207 89.9591469,149.55188" id="Stroke-24" stroke="#966A10" stroke-linecap="round" stroke-linejoin="round"></path>
                            <path d="M176.15877,91.1751411 C176.15877,91.1751411 181.256983,138.682665 138.153457,145.016736" id="Stroke-26" stroke="#CC8327" stroke-linecap="round" stroke-linejoin="round"></path>
                            <path d="M149.065436,10.8694137 C149.065436,10.8694137 132.528683,-3.67549107 96.4647919,2.25102083 C96.4647919,2.25102083 78.3045739,2.7888006 64.1262517,3.3275744 C64.1262517,3.3275744 53.3404649,2.31563393 49.9489199,3.86634821" id="Stroke-28" stroke="#966A10" stroke-linecap="round" stroke-linejoin="round"></path>
                            <path d="M160.886912,25.4704821 C160.886912,25.4704821 177.254287,48.1089226 160.886912,66.5365774" id="Stroke-30" stroke="#CC8327"></path>
                            <path d="M191.803955,69.2008238 C191.803955,69.2008238 178.881614,58.9810202 174.746188,60.2583714 C174.746188,60.2583714 171.644865,58.9810202 167.251903,72.0119905" id="Stroke-32" stroke="#CC8327"></path>
                            <path d="M168.161103,26.3830179 C168.161103,26.3830179 173.003762,50.892256 182.455316,56.6279107 L194.531752,62.8854405" id="Stroke-34" stroke="#CC8327"></path>
                            <path d="M184.638128,112.164258 C184.638128,112.164258 196.781919,133.315603 180.891976,140.453859" id="Stroke-36" stroke="#CC8327" stroke-linecap="round" stroke-linejoin="round"></path>
                            <path d="M208.171726,132.240839 C208.171726,132.240839 193.488238,126.469398 192.71365,105.776309" id="Stroke-38" stroke="#CC8327" stroke-linecap="round" stroke-linejoin="round"></path>
                            <path d="M196.35025,142.279328 C196.35025,142.279328 178.106828,147.635257 176.345682,166.918786" id="Stroke-40" stroke="#CC8327" stroke-linecap="round" stroke-linejoin="round"></path>
                        </g>
                        <g id="Group-45" transform="translate(78.000000, 33.000000)">
                            <mask id="mask-10" fill="white">
                                <use xlink:href="#path-9"></use>
                            </mask>
                            <g id="Clip-44"></g>
                            <polygon id="Fill-43" fill="#F49E41" mask="url(#mask-10)" points="-4.557 11.951 42.262 11.951 42.262 -3.655 -4.557 -3.655"></polygon>
                        </g>
                        <path d="M165,47 C165,47 148.227019,35.8165496 127.781022,36.3247975 C127.781022,36.3247975 117.819745,34.8000538 101.043796,38.357789 C101.043796,38.357789 84.7932698,41.4082748 73.2606704,38.8660369 C73.2606704,38.8660369 55.6446372,35.5110017 46,37.8495411" id="Stroke-46" stroke="#966A10" stroke-width="2" stroke-linecap="round" stroke-linejoin="round"></path>
                        <g id="Group-50" transform="translate(32.000000, 64.000000)">
                            <mask id="mask-12" fill="white">
                                <use xlink:href="#path-11"></use>
                            </mask>
                            <g id="Clip-49"></g>
                            <polygon id="Fill-48" fill="#F49E41" mask="url(#mask-12)" points="-4.34021849 13 122.193462 13 122.193462 -4.442 -4.34021849 -4.442"></polygon>
                        </g>
                        <path d="M164.027541,61.3848859 C164.027541,61.3848859 149.863835,52.4993483 137.796877,53.0222017 C137.796877,53.0222017 118.910284,55.6136931 100.024681,57.1931461 C100.024681,57.1931461 71.1708517,61.3631003 57.5305891,57.1931461 C57.5305891,57.1931461 29.0267132,53.3707707 17.4851813,54.7640562 C17.4851813,54.7640562 8.04238019,57.2030487 8.04238019,63.1267404 C8.04238019,63.1267404 6.64256547,67.6571465 19.9328744,66.2628707 C19.9328744,66.2628707 36.7217287,64.7061934 47.9133068,66.5292487 C47.9133068,66.5292487 73.4430722,72.0231707 93.3795269,66.5292487 C93.3795269,66.5292487 115.063767,63.4753093 129.053983,64.5210162 C129.053983,64.5210162 151.087186,66.6114397 158.782202,71.1418458 C158.782202,71.1418458 164.027541,75.3226927 169.624817,71.1418458 C169.624817,71.1418458 172.164708,65.5667231 164.027541,61.3848859 Z" id="Stroke-51" stroke="#966A10" stroke-width="2" stroke-linecap="round" stroke-linejoin="round"></path>
                        <g id="Group-55" transform="translate(1.000000, 119.000000)">
                            <mask id="mask-14" fill="white">
                                <use xlink:href="#path-13"></use>
                            </mask>
                            <g id="Clip-54"></g>
                            <polygon id="Fill-53" fill="#F49E41" mask="url(#mask-14)" points="-3.672 144.248652 37.64 144.248652 37.64 -4.33007092 -3.672 -4.33007092"></polygon>
                        </g>
                        <g id="Group-90" transform="translate(18.000000, 104.000000)">
                            <path d="M9.65793365,87.9012365 C9.65793365,87.9012365 -14.7679221,105.062697 15.895376,113.382715" id="Stroke-56" stroke="#CC8327" stroke-width="2" stroke-linecap="round" stroke-linejoin="round"></path>
                            <path d="M99.0875846,0.991205217 L99.0875846,8.27134435" id="Stroke-58" stroke="#402C6D" stroke-linecap="square"></path>
                            <path d="M95.450001,4.6316713 L102.724376,4.6316713" id="Stroke-60" stroke="#402C6D" stroke-linecap="square"></path>
                            <path d="M96.5158529,2.0575513 L101.65892,7.20539478" id="Stroke-62" stroke="#402C6D" stroke-linecap="square"></path>
                            <path d="M96.7498808,6.97154609 L101.891958,1.82370261" id="Stroke-64" stroke="#402C6D" stroke-linecap="square"></path>
                            <path d="M95.9983769,5.87803826 L102.643858,2.91701217" id="Stroke-66" stroke="#402C6D" stroke-linecap="square"></path>
                            <path d="M95.4277173,3.23422957 L102.344563,5.48449043" id="Stroke-68" stroke="#402C6D" stroke-linecap="square"></path>
                            <path d="M97.3292558,0.710963478 L100.40341,7.30908522" id="Stroke-70" stroke="#402C6D" stroke-linecap="square"></path>
                            <path d="M100.841061,0.6156 L97.7669067,7.21372174" id="Stroke-72" stroke="#402C6D" stroke-linecap="square"></path>
                            <path d="M13.6214529,0.991205217 L13.6214529,8.27134435" id="Stroke-74" stroke="#402C6D" stroke-linecap="square"></path>
                            <path d="M9.98485962,4.6316713 L17.2592346,4.6316713" id="Stroke-76" stroke="#402C6D" stroke-linecap="square"></path>
                            <path d="M11.0507115,2.0575513 L16.1927885,7.20539478" id="Stroke-78" stroke="#402C6D" stroke-linecap="square"></path>
                            <path d="M11.283749,6.97154609 L16.4268163,1.82370261" id="Stroke-80" stroke="#402C6D" stroke-linecap="square"></path>
                            <path d="M10.5332356,5.87803826 L17.1787163,2.91701217" id="Stroke-82" stroke="#402C6D" stroke-linecap="square"></path>
                            <path d="M9.96158558,3.23422957 L16.8794221,5.48449043" id="Stroke-84" stroke="#402C6D" stroke-linecap="square"></path>
                            <path d="M11.8640154,0.710963478 L14.9381692,7.30908522" id="Stroke-86" stroke="#402C6D" stroke-linecap="square"></path>
                            <path d="M15.3758202,0.6156 L12.3016663,7.21372174" id="Stroke-88" stroke="#402C6D" stroke-linecap="square"></path>
                        </g>
                    </g>
                </g>
            </g>
        </g>
    </g>
</svg>