<?xml version="1.0" encoding="UTF-8"?>
<svg width="225px" height="341px" viewBox="0 0 225 341" version="1.1" xmlns="http://www.w3.org/2000/svg" xmlns:xlink="http://www.w3.org/1999/xlink">
    <!-- Generator: sketchtool 49.3 (51167) - http://www.bohemiancoding.com/sketch -->
    <title>9B414FE9-E1E3-49F0-A47E-1F6A5A9CFF18</title>
    <desc>Created with sketchtool.</desc>
    <defs>
        <polygon id="path-1" points="0 0.00261458213 224.482 0.00261458213 224.482 341 0 341"></polygon>
    </defs>
    <g id="Page-1" stroke="none" stroke-width="1" fill="none" fill-rule="evenodd">
        <g id="1366-x-768-Compertamentos" transform="translate(-955.000000, -1275.000000)">
            <g id="speaker/section/empty" transform="translate(0.000000, 994.000000)">
                <g id="SHOW-ME-WHAT-YOU-GOT" transform="translate(954.000000, 178.000000)">
                    <g id="il_showme_hover" transform="translate(1.000000, 102.000000)">
                        <path d="M11.6621,215.1332 C9.1991,230.0502 11.0661,243.8692 22.0561,255.2792 C24.0361,257.3342 28.3021,259.3892 28.0641,260.9052 C27.6191,263.7462 28.0371,266.3752 28.3001,268.9812 C29.4911,280.8292 30.1731,292.7382 32.2211,304.4912 C34.4351,312.1982 38.6131,318.5172 45.9661,322.0432 C52.3551,325.1072 58.2331,329.0812 64.7671,331.8992 C70.2951,334.2832 75.8501,335.7182 81.8731,335.5712 C84.6471,335.5042 87.2411,335.0112 89.7661,333.8902 C106.6681,326.3832 117.4641,313.5502 123.1511,296.0922 C125.8061,287.9442 127.3011,279.6292 127.8391,271.1102 C127.9131,269.9402 128.1741,268.7572 127.6801,267.6122 C127.2921,266.9722 126.6571,266.4542 126.0021,266.4082 C117.5081,265.8212 110.2101,261.0322 103.7361,260.1172 C107.6381,261.1682 113.1561,263.2342 118.7781,264.9372 C129.0461,268.0482 139.3421,268.6092 149.3741,263.7782 C159.5231,258.8892 165.1431,250.5462 167.1801,239.7582 C169.8551,225.5832 167.0241,212.5232 157.9351,201.1722 C153.5091,195.6422 148.4721,190.6462 141.8361,187.6492 C140.3291,186.9692 138.9051,186.1312 137.7291,185.4312 C139.4491,186.2182 141.1321,187.7812 143.4251,187.9852 C144.9541,187.4952 144.7541,186.2122 144.7231,185.0502 C144.6841,183.6152 144.2551,182.2662 143.6971,180.9462 C141.6891,176.2032 141.7191,176.2692 146.7271,174.7082 C149.2041,173.9362 151.5731,172.8322 153.8891,171.6312 C158.5211,168.8272 163.7051,167.0342 168.1511,163.9092 C177.6131,157.2602 185.5341,149.3562 188.1141,137.5592 C189.3951,131.6972 190.0161,125.7212 188.7461,119.7162 C188.4281,118.2102 188.6201,116.6602 188.6151,115.1292 C188.0651,107.8212 184.2781,101.7442 181.1281,95.4262 C180.5811,87.8532 185.4291,83.7102 192.5411,85.7052 C193.3551,85.9342 194.1351,86.0882 194.9561,85.7962 C196.4811,84.9192 196.8901,83.5292 196.7601,81.8902 C196.5591,80.7412 195.7381,80.0312 194.8351,79.4992 C189.8471,76.5582 187.5311,71.6982 185.6901,66.5872 C183.9901,61.8662 182.1521,57.1672 181.3871,52.1562 C181.2231,51.0822 180.7711,50.1412 179.8091,49.5232 C178.7041,49.1822 177.9781,49.6672 177.4581,50.5992 C177.0991,51.4452 176.6711,52.2732 176.6881,53.2282 C177.2691,56.9582 178.6651,60.4602 179.9731,63.9622 C183.2931,72.8592 180.7671,80.4962 175.2511,87.5762 C175.2211,87.6152 175.0321,87.5962 174.9871,87.5452 C174.9201,87.4662 174.9151,87.3342 174.8911,87.1882 C174.1911,82.2682 173.5581,77.3582 169.8881,73.5632 C164.7541,73.8232 160.0791,72.1452 155.3921,70.3212 C153.8101,69.7052 152.0631,69.1732 150.2571,69.3642 C143.5451,70.2632 136.9181,68.8212 130.2471,68.6082 C119.3611,68.2612 108.5331,68.2812 98.0811,71.8092 C88.0191,75.2052 77.9381,76.0462 67.4501,73.8462 C59.9671,72.2762 52.5131,70.3852 44.9301,69.4252 C38.5181,68.6122 32.0071,68.6812 25.5601,67.8862 C23.5701,67.6412 21.6121,67.5322 19.7341,66.8002 C17.6191,66.2102 15.7141,66.9822 13.8011,67.7122 C11.1521,70.8222 11.0661,74.8662 9.9721,78.5312 C9.5711,79.8712 9.2711,81.2532 8.7781,82.5752 C8.6361,82.9342 8.5501,83.3052 8.5041,83.6872 C8.5221,86.4242 7.5471,88.9802 7.0291,91.6172 C6.3811,94.9202 5.9631,98.2362 5.9581,101.6022 C5.9291,103.1052 6.2621,104.6722 5.1931,105.9942 C4.3931,107.2752 5.3051,108.8052 4.5961,110.0982 C2.1601,127.5102 0.4171,144.9802 1.1741,162.5882 C1.9061,179.6032 3.9491,196.4092 10.4291,212.3732 C11.2511,212.7662 11.8751,212.4262 11.9731,211.6342 C12.3121,208.8792 13.8791,206.4392 13.9721,203.6312 C9.1861,197.8632 7.8691,190.6922 6.6951,183.7162 C3.9231,167.2422 5.1921,150.5672 5.1961,133.9172 C8.4441,153.0972 13.9251,171.2262 28.9421,184.8772 C29.2531,186.3532 27.9341,186.6452 27.1411,187.1842 C17.2461,193.8902 12.7411,203.5572 11.6621,215.1332" id="Fill-1" fill="#E8C842"></path>
                        <path d="M179.7636,96.038 C183.5786,101.934 186.4896,108.2 187.5936,115.204 C190.8746,129.926 188.7616,143.328 178.3016,154.893 C171.4796,162.436 162.7676,166.947 153.7346,171.045 C149.6646,171.515 146.3086,174.29 141.9966,174.371 C140.0956,174.406 140.2616,176.684 141.1406,178.383 C142.6276,181.258 144.4806,184.077 143.4096,187.595 C143.3736,189.063 144.5926,189.538 145.5346,190.167 C157.9696,198.485 165.8016,209.988 167.4936,224.821 C168.7876,236.16 166.9296,247.239 158.9836,256.286 C154.2326,261.693 147.9636,264.598 141.0266,266.208 C137.4236,267.044 133.7806,266.865 130.1396,266.925 C129.1266,266.942 127.9646,266.598 127.2426,267.732 C125.7636,274.037 126.0016,280.562 124.5076,286.904 C120.7776,302.732 114.1086,316.827 100.4976,326.388 C93.7636,331.12 86.5526,335.797 77.4386,334.325 C73.0546,333.617 68.9356,332.301 64.8196,330.558 C58.2206,327.764 52.4296,323.538 45.8936,320.66 C39.5426,317.863 36.7016,311.799 33.3956,306.239 C33.0366,305.636 32.6136,305.073 32.2206,304.492 C32.7416,314.69 35.4506,323.356 45.9656,327.984 C53.0636,331.107 59.4256,335.831 66.8126,338.455 C79.5326,342.975 91.9816,340.978 104.2376,336.6 C110.2176,334.463 116.1656,332.164 121.5976,328.769 C130.8756,322.102 137.2666,312.829 143.7586,303.735 C153.8796,289.56 162.4576,274.484 168.9036,258.244 C170.2506,254.849 172.0096,251.627 173.4286,248.246 C176.3626,241.255 180.0766,234.723 184.8156,228.717 C196.6396,213.732 205.3166,196.993 211.2866,178.901 C212.5486,175.079 214.1576,171.109 213.3376,166.84 C208.3116,164.699 204.5176,167.531 200.9686,170.282 C195.3496,174.638 192.1336,180.78 189.7746,186.728 C190.1716,183.898 193.0796,181.537 193.5176,178.088 C190.3626,172.709 190.8266,170.067 196.0646,163.641 C196.4516,162.916 196.7816,162.14 197.4296,161.606 C204.0356,156.171 203.5346,149.309 201.5806,142.01 C201.0336,139.959 199.0916,138.191 200.1106,135.778 C200.9336,133.516 202.4566,132.263 204.9496,132.428 C207.3726,134.325 207.2226,137.445 208.4886,139.891 C209.4576,141.767 210.2086,143.772 211.3036,145.592 C212.0806,146.882 213.0816,147.89 214.7756,146.853 C216.2986,145.591 216.4886,143.829 216.5616,142.044 C217.2936,124.31 215.8866,106.807 210.9116,89.686 C210.5496,88.436 210.2376,87.181 209.3066,86.208 C205.8796,85.84 203.0336,83.976 199.9996,82.572 C198.7776,82.006 197.6266,80.936 196.0886,81.677 C195.7826,82.952 195.5846,84.269 194.6916,85.318 C196.1716,88.147 199.5236,88.64 201.4346,90.635 C198.4036,88.487 195.2366,86.22 191.4916,84.969 C187.1986,83.535 183.0506,85.901 181.1966,90.634 C180.5036,92.399 180.8986,94.416 179.7636,96.038" id="Fill-3" fill="#FB9E37"></path>
                        <path d="M208.1289,86.018 C210.6339,90.741 211.0959,96.06 212.2689,101.128 C215.3839,114.594 215.5469,128.338 215.2589,142.092 C215.2209,143.93 215.0029,145.591 213.7829,147.016 C213.8809,150.991 218.2069,154.883 221.4099,153.876 C222.4609,151.382 222.2969,148.85 221.6389,146.303 C222.0009,135.681 222.2519,125.067 221.0289,114.469 C219.1699,98.356 215.6949,82.65 206.6849,68.931 C201.0009,60.278 193.8439,52.63 188.0149,44.014 C184.1819,38.348 180.0159,32.907 175.9859,27.373 C172.6359,22.771 168.8309,18.596 164.3439,15.068 L164.3399,15.054 C154.0189,9.023 142.7569,5.766 131.1559,3.179 C117.3929,0.109 104.7019,3.402 92.1509,8.444 C84.9159,11.351 77.8769,14.676 71.1079,18.559 C66.8609,19.667 63.0579,23.287 62.7709,26.497 C67.4939,26.782 72.1779,25.867 76.8979,26.035 C81.3419,26.06 84.9129,23.031 89.3199,22.654 C97.1649,21.984 104.9559,21.414 112.7559,23.038 C114.0639,23.31 115.1379,23.957 116.3189,24.431 C118.7889,24.632 121.2899,24.464 123.7059,24.166 C133.1129,23.008 141.9229,24.696 150.2849,29.04 C152.0659,29.966 153.9879,30.57 155.6589,31.365 C150.5239,29.369 145.6139,26.397 140.0589,25.034 C132.9909,23.299 125.8419,23.768 118.7129,24.422 C109.0109,25.312 99.3619,27.452 89.5919,26.661 C82.2839,26.07 75.0219,25.911 67.7389,26.439 C64.8979,26.645 61.8229,26.21 59.4239,28.414 C54.3819,30.644 49.9639,33.722 46.4189,37.986 C45.8679,40.605 47.9689,39.766 49.0519,39.827 C53.9419,40.103 58.8579,39.526 63.7399,40.191 C71.6649,39.51 79.6569,39.365 87.3579,36.95 C95.4829,34.402 103.8839,34.854 112.2359,34.874 C115.0049,34.881 117.8639,34.133 120.4349,35.828 C134.5869,34.851 148.2569,36.047 156.4039,42.025 C148.6189,36.337 135.3649,34.908 121.5869,35.748 C112.9769,36.274 104.6909,38.827 96.1479,39.807 C87.3579,40.814 78.6259,41.258 69.7499,40.477 C60.8519,39.694 51.8639,39.147 42.9269,40.501 C33.1249,42.232 25.0799,46.872 19.0759,54.895 C20.4189,57.451 22.7829,56.569 24.7229,56.33 C33.4479,55.253 42.1769,55.47 50.7779,56.916 C64.2949,59.189 77.8399,60.873 91.5429,60.012 C102.2429,59.339 112.7059,56.844 123.2719,55.13 C138.6339,52.64 153.0419,55.168 166.0199,64.185 C166.5029,64.521 166.9519,64.909 167.4829,65.165 C169.3889,65.74 170.2909,64.705 170.9359,63.089 C172.2289,59.844 172.5229,56.477 172.4279,53.022 C172.1379,42.364 169.0199,32.65 162.8899,23.802 C165.7719,26.219 167.9329,29.181 170.0599,32.146 C172.1919,35.119 174.4479,37.991 176.7079,40.862 C178.6739,43.106 179.5679,46.11 181.8339,48.143 C183.2359,49.217 184.1219,50.677 184.8609,52.246 C186.6279,54.936 188.4059,57.618 190.3909,60.155 C191.3579,61.034 191.8849,62.247 192.7139,63.231 C196.5189,67.834 200.6089,72.23 203.1459,77.745 C204.5739,80.239 205.4289,82.999 206.7669,85.536 C207.1319,85.949 207.5399,86.241 208.1289,86.018" id="Fill-5" fill="#E8C842"></path>
                        <path d="M205.2138,131.4564 C200.4248,131.3594 199.9578,131.7104 199.6158,135.6674 C198.7408,136.5844 199.4008,137.3814 199.7768,138.2364 C201.6958,142.5984 202.6228,147.1124 202.5078,151.9344 C202.3808,157.2314 198.5978,159.9904 195.4358,163.2534 C191.0468,166.7584 189.4328,171.0534 190.8048,175.5284 C191.1888,176.7794 191.4858,178.0784 193.1278,178.2414 C196.1498,176.7134 197.5468,173.5614 199.9498,171.3844 C202.8318,168.7734 206.0838,167.1584 209.7758,166.3024 C210.8818,166.0464 212.1238,165.8424 213.0368,166.9354 C210.4938,181.1974 204.6728,194.2944 197.9468,206.9124 C193.5298,215.1974 188.2498,223.0944 182.1998,230.3594 C177.3658,236.1654 174.5648,243.0524 171.3988,249.7544 C166.4948,260.1364 162.5508,270.9484 156.7798,280.9494 C151.4118,290.2524 145.8138,299.4004 139.3028,307.9214 C134.3138,314.4524 129.3868,321.0964 123.1748,326.5954 C122.4808,327.2104 121.5288,327.6114 121.5978,328.7694 C136.0968,322.5604 146.9328,312.2344 155.1888,298.9754 C162.5908,287.0884 167.9468,274.2194 173.2708,261.3424 C178.7548,248.0774 185.2798,235.5104 194.6288,224.4214 C202.0288,215.6444 207.4588,205.4994 212.6458,195.2714 C213.1788,194.2194 212.8448,192.8864 213.8248,192.0204 C215.1308,191.1524 215.1458,189.4804 216.0978,188.3904 C216.7008,187.3684 216.9428,186.2514 216.9688,185.0804 C216.9608,184.4094 217.2678,183.8124 217.4368,183.1824 C217.5338,182.8594 217.5858,182.5284 217.6158,182.1934 C217.6688,181.5174 217.6708,180.8394 217.6808,180.1614 C217.5928,178.9214 217.8428,177.7414 218.3038,176.5954 C219.5398,172.3324 220.9618,168.1414 222.6028,164.0164 C223.7268,161.1914 224.0618,158.3414 221.8488,155.7744 C213.8918,151.4884 210.3838,143.9664 207.3728,136.0304 C206.7818,134.4734 207.1298,132.4054 205.2138,131.4564" id="Fill-7" fill="#E9C843"></path>
                        <path d="M168.4258,64.7582 C153.3198,52.9842 136.2868,51.1632 118.1138,54.8852 C104.3318,57.7082 90.4608,59.6952 76.3098,59.0552 C68.2618,58.6912 60.3898,57.1332 52.4568,55.9972 C42.8268,54.6192 33.2078,54.1612 23.5208,55.2622 C22.0738,55.4262 20.4708,56.0022 19.0768,54.8932 C18.0208,55.2662 18.2468,57.0992 16.7348,56.9472 C16.3938,57.3222 16.4218,57.6662 16.8168,57.9832 C18.1238,58.8392 19.5428,58.5502 20.9448,58.3592 C33.3648,56.6642 45.7498,57.3632 57.9748,59.6942 C78.0958,63.5302 97.9698,61.9502 117.7798,57.8052 C129.9348,55.2622 141.9318,55.0662 153.7048,59.5272 C158.3618,61.2912 162.8778,63.3742 166.3248,67.1682 C167.1968,68.1272 168.3428,69.1832 167.6538,70.5572 C166.8958,72.0672 165.3178,71.3832 164.1238,71.1692 C159.2178,70.2892 154.6548,68.2442 149.9168,66.7872 C131.7738,61.2052 113.5858,61.5422 95.3338,66.0432 C92.2358,66.8072 89.1478,67.6222 86.0098,68.1862 C80.0248,69.2612 74.0918,69.3132 68.0978,67.7942 C56.9438,64.9662 45.4688,64.3592 34.0548,63.4022 C28.2158,62.9122 22.5108,63.9182 16.8308,65.1022 C15.6698,65.3442 14.5288,65.6682 13.6738,66.5862 C13.3298,67.2082 13.3088,67.7862 13.9058,68.2792 C15.7628,68.1002 17.6198,67.9222 19.4768,67.7422 C32.8288,67.1772 46.0668,68.3582 59.2608,70.3032 C61.7238,70.6662 64.1238,71.2622 66.5248,71.8562 C75.4788,74.0682 84.3358,73.4512 93.1118,70.9732 C110.2518,66.1322 127.4808,65.2822 144.8268,69.7382 C146.8038,70.2462 148.8408,69.5982 150.7638,70.3252 C154.2938,70.7942 157.4928,72.3422 160.8328,73.4302 C163.7828,74.3922 166.7378,74.9882 169.8028,73.9972 C173.7028,71.4502 173.0858,67.3042 168.4258,64.7582" id="Fill-9" fill="#907219"></path>
                        <path d="M64.0244,39.2177 C59.0284,39.1427 54.0314,39.0817 49.0354,38.9807 C48.0734,38.9607 46.8494,39.4657 46.4204,37.9847 C45.6714,39.4057 44.3304,39.9997 42.9244,40.5007 C53.0814,40.2127 63.1704,41.0577 73.2844,41.8997 C87.6574,43.0957 101.6634,40.0577 115.7184,37.5387 C129.8484,35.0057 143.6694,35.7047 156.5084,43.1767 C159.3304,44.8197 161.5864,47.2017 164.4334,48.8497 C163.8874,46.5247 162.0754,45.2847 160.3604,44.0447 C151.1204,37.3657 140.6174,34.8397 129.3884,34.8097 C126.5564,34.8027 123.7254,34.8927 120.8944,34.9377 C112.0894,33.8687 103.8304,37.2627 95.2514,38.1267 C87.9794,38.8597 80.7324,39.4487 73.4394,39.1297 C70.2904,38.9907 67.1684,40.2467 64.0244,39.2177" id="Fill-11" fill="#966A10"></path>
                        <path d="M62.041,25.7265 C61.192,26.5545 60.508,27.6055 59.203,27.8115 C59.181,28.0465 59.252,28.2475 59.421,28.4145 C68.737,26.1635 78.114,26.9485 87.524,27.6365 C97.821,28.3895 108.003,26.8585 118.162,25.4285 C129.763,23.7945 140.927,24.5905 151.474,30.3295 C154.315,31.8745 157.396,33.2965 160.812,33.1905 C148.932,27.6555 137.327,21.0855 123.395,23.3405 C121.199,23.6965 118.921,23.5315 116.681,23.6075 C110.556,22.9095 104.549,24.3955 98.473,24.6665 C94.708,24.8345 90.984,25.1535 87.232,24.6075 C85.018,24.2855 82.809,24.0815 80.639,25.0405 C79.435,25.5735 78.116,25.4815 76.847,25.0815 C72.043,24.7945 67.343,26.3125 62.531,25.8915 C62.468,25.5395 62.305,25.4845 62.041,25.7265" id="Fill-13" fill="#957011"></path>
                        <path d="M13.5683,203.8178 C12.1563,206.5338 12.4333,209.8708 10.4253,212.3698 C10.8393,213.2928 11.2513,214.2138 11.6623,215.1338 C13.4663,209.2188 14.6223,203.0628 18.1293,197.7808 C20.8913,193.6198 24.3753,190.1918 28.5133,187.3958 C29.6413,186.6328 31.0503,186.0878 31.4213,184.5278 C28.0653,183.2428 26.3553,186.1968 23.9663,187.4098 C20.5333,190.5158 17.4753,193.9408 15.0993,197.9418 C14.5363,199.8858 12.4453,201.4358 13.5683,203.8178" id="Fill-15" fill="#94670D"></path>
                        <path d="M4.5957,110.0985 C5.2187,108.7905 5.3017,107.4045 5.1947,105.9925 C4.0877,107.2305 4.5877,108.7005 4.5957,110.0985" id="Fill-17" fill="#37534E"></path>
                        <path d="M46.8633,192.1737 C45.7653,190.5677 44.5963,191.6787 43.4673,192.1017 C27.3103,198.1427 21.0313,210.5897 22.6073,230.3407 C23.3863,240.1167 28.0283,247.8577 37.5303,251.8727 C42.2653,253.8737 47.1983,253.7437 52.1633,252.9407 C52.9503,252.8137 53.4143,252.3517 53.7143,251.6627 C54.5593,250.8997 54.5123,249.7787 54.8613,248.8157 C56.1753,245.1877 58.4153,244.7447 60.8953,247.6517 C61.4223,248.2687 61.9563,248.8667 62.5463,249.4187 C63.2893,249.7747 63.8663,249.6377 64.2233,248.8517 C66.4223,242.3997 68.1723,240.5617 75.6183,245.1587 C76.1773,245.7897 76.7353,246.3497 77.2503,245.1187 C77.2903,245.0097 77.3173,244.8937 77.3733,244.7937 C81.3963,237.6907 82.6553,237.4797 88.5573,242.9077 C88.7233,243.0607 88.9673,243.0947 89.2093,243.0987 C89.7183,243.6847 89.0783,244.7297 89.9643,245.0777 C90.0893,245.1277 90.5543,244.3097 90.8623,243.8927 C91.3323,243.8427 91.7733,243.7107 92.1743,243.4527 C97.0163,240.3307 97.0713,240.3347 101.3933,244.1017 C101.7533,244.4147 102.1533,244.6317 102.6323,244.6927 C103.7323,244.4757 101.6193,248.1087 104.2573,246.0497 C104.7263,245.9917 104.1763,246.2737 104.5953,246.0887 C110.0743,243.6717 114.4143,244.8457 117.4873,250.1097 C117.8093,249.9247 118.1323,249.7407 118.4543,249.5557 C124.9153,245.6597 126.4723,246.2207 132.0443,254.4477 C135.6003,255.5567 138.8873,254.3437 142.1903,253.2667 C144.2453,251.7747 142.7313,250.2287 142.0533,248.9457 C139.3013,243.7357 135.2553,239.6247 130.5113,236.1977 C122.0043,230.0517 112.2353,227.6097 101.9853,226.6947 C98.6763,226.3997 95.4153,225.9417 92.2933,224.7907 C91.3263,224.4337 90.1453,224.0087 90.1623,222.7217 C90.1773,221.5037 91.2593,221.0267 92.2093,220.5177 C96.1183,218.4227 100.3493,218.2507 104.6253,218.4757 C119.9263,219.2787 134.1463,223.2847 146.5313,232.6997 C148.1343,233.9187 149.5853,235.2967 150.9903,236.7327 C151.9923,237.7567 153.0163,238.8077 154.6723,238.0597 C154.8133,237.4897 154.9553,236.9217 155.0953,236.3527 C155.5663,235.0647 154.9163,233.6537 155.5273,232.3817 C155.5283,230.8097 155.5283,229.2377 155.5293,227.6667 C154.9133,226.4347 155.5703,225.0587 155.0933,223.8107 C153.6613,215.0217 148.8363,208.2587 142.2123,202.6737 C135.7353,197.2157 128.2403,193.6197 120.1293,191.2777 C119.0293,190.9607 117.8813,190.3527 116.8803,191.5207 C116.5403,191.5897 116.2013,191.6707 115.8763,191.7927 C109.5423,194.1747 108.6473,193.9147 104.5753,188.4927 C103.5653,187.9167 103.1793,188.6927 102.7353,189.3427 C102.1413,189.3437 101.6013,189.5117 101.0813,189.8027 C95.6103,192.8667 94.6043,192.7797 89.6533,188.8707 C89.3783,188.6527 89.0423,188.5467 88.6923,188.4947 C88.4503,188.0027 88.2083,187.5107 87.8973,186.8807 C87.6003,187.7757 87.3573,188.5077 87.1153,189.2407 C86.4783,189.2447 86.0443,189.6247 85.6063,190.0237 C80.6113,194.5707 78.7583,194.4957 74.4053,189.5737 C74.0193,189.1357 73.6663,188.6587 72.9893,188.7007 C71.9913,188.6567 72.8293,187.0137 71.6333,187.1427 C70.7373,188.0287 70.7873,189.2927 70.3423,190.3597 C69.5743,192.2027 68.3183,193.5627 66.2583,193.7887 C64.2973,194.0037 62.9733,192.8377 61.8823,191.3567 C61.2003,190.4317 60.9263,189.1857 59.7513,188.6497 C59.4013,189.1217 59.0513,189.5937 58.7013,190.0667 C57.8743,190.1487 57.5883,190.8367 57.1893,191.4037 C54.4143,195.3417 52.4953,195.6767 48.4523,192.9017 C47.9563,192.5607 47.4383,192.3177 46.8633,192.1737" id="Fill-19" fill="#5E0000"></path>
                        <path d="M154.6718,238.0595 C151.5268,236.5545 149.7408,233.4955 147.0208,231.4405 C136.9508,223.8355 125.4638,220.0175 113.2238,217.9685 C108.8988,217.2445 104.5418,217.2115 100.1748,217.1115 C96.7028,217.0325 93.7438,218.4955 90.7288,219.7685 C89.4808,220.2955 88.2588,221.3495 88.2908,222.9815 C88.3248,224.7285 89.8338,225.2795 91.1088,225.7985 C96.3348,227.9265 101.9778,227.7525 107.4358,228.5865 C118.8518,230.3315 129.0178,234.5325 136.7558,243.4175 C139.2348,246.2645 141.9688,249.1115 142.1898,253.2675 C149.4358,250.7285 153.5498,245.6215 154.6718,238.0595" id="Fill-21" fill="#A72E46"></path>
                        <path d="M150.7636,70.3251 C139.0526,65.9521 126.9316,64.9391 114.5526,65.7571 C105.3136,66.3681 96.4106,68.7071 87.4666,70.8131 C80.8786,72.3651 74.3596,72.2601 67.8266,70.7281 C55.0116,67.7221 41.9786,66.6221 28.8656,66.2621 C25.6686,66.1731 22.5056,66.6191 19.4756,67.7421 C23.9816,69.7551 28.9566,69.7811 33.6396,70.1061 C39.7236,70.5281 45.8396,70.7511 51.8046,71.9151 C56.8446,72.8991 61.8846,73.9761 66.8956,75.0961 C78.4186,77.6711 89.4636,76.7091 100.3676,72.3241 C102.9326,71.2921 105.7806,70.6721 108.5426,70.4701 C120.4096,69.6061 132.2846,69.4551 144.1166,71.0511 C146.4146,71.3601 148.5536,70.6071 150.7636,70.3251" id="Fill-23" fill="#F5A53A"></path>
                        <path d="M84,172.5922 C84.349,167.5992 84.437,162.5722 85.1,157.6212 C86.573,146.6202 87.701,135.6392 86.127,124.5542 C85.994,123.6212 86.173,122.4252 85.048,122.1722 C83.323,121.7822 84.361,123.9082 83.365,124.2942 C81.041,125.4322 80.937,127.9612 80.238,129.9042 C76.189,141.1522 71.796,152.2992 69.392,164.0772 C68.399,168.9422 69.106,170.6202 73.77,172.0092 C77.078,172.9962 80.492,174.2032 84,172.5922" id="Fill-25" fill="#E2DB5F"></path>
                        <path d="M13.5683,203.8178 C14.3543,201.9418 15.1393,200.0648 15.9253,198.1878 C16.1193,197.8228 15.9273,197.3018 15.6883,197.3738 C12.3113,198.3858 11.7033,196.0948 11.2633,193.6818 C10.7403,190.8048 9.8803,187.9858 9.5163,184.6698 C11.9023,185.5388 13.9953,186.7938 16.2923,185.1028 C18.2973,183.6258 19.4473,181.6638 20.4263,178.7848 C22.5693,181.2368 25.1313,182.8308 24.0353,186.3898 C23.8223,187.0818 23.7683,187.7868 24.4223,188.3278 C26.8863,187.3038 28.3773,184.4828 31.4223,184.5288 C25.9723,181.6708 22.7493,176.6368 19.4813,171.8048 C13.0733,162.3278 10.0613,151.5238 7.9413,140.4038 C7.4143,137.6368 6.4033,134.9758 6.5623,132.0838 C6.6083,131.2528 6.2733,130.3468 5.2003,130.3668 C4.1323,130.3868 3.8753,131.2908 3.8733,132.1318 C3.8383,145.9158 2.9783,159.7398 4.1993,173.4648 C4.8133,180.3808 5.1423,187.5748 8.0833,194.1258 C9.6033,197.5138 9.3223,201.9628 13.5683,203.8178" id="Fill-27" fill="#F9A338"></path>
                        <path d="M168.4258,64.7582 C171.9568,69.2532 172.1238,70.3742 169.8028,73.9972 C171.8198,78.5512 173.2998,83.2692 174.1298,88.1842 C174.7828,88.3692 175.2638,88.0932 175.6488,87.5942 C180.5778,81.1962 183.4338,74.2692 180.9258,66.0682 C179.5498,61.5712 178.2758,57.0282 176.1128,52.9622 C176.4248,53.3012 176.8888,53.6202 177.5398,53.4802 C177.7968,52.7292 178.0538,51.9782 178.3108,51.2262 C178.0308,47.6842 176.7698,44.2062 177.6108,40.5902 C172.4828,33.7102 168.2688,26.0312 160.9918,20.8272 C159.8068,22.4222 160.8018,23.1822 161.3858,23.9532 C169.0138,34.0262 171.8478,45.5172 171.0938,57.9272 C170.9518,60.2642 170.6378,63.0072 168.4258,64.7582" id="Fill-29" fill="#FAA037"></path>
                        <path d="M93.0625,105.6327 C93.2455,120.6227 99.3505,132.5127 111.5235,141.2877 C113.7145,142.8677 116.1795,143.6397 118.7815,143.8357 C131.4905,144.7897 143.2235,142.2377 153.0735,133.6477 C157.3325,129.9327 159.5135,125.1527 160.1175,119.4307 C160.7865,113.0817 161.6645,106.7507 161.0745,100.3747 C159.8785,87.4497 152.3555,79.5597 140.7645,74.6147 C131.6115,70.7097 123.2375,72.8867 114.8635,76.6987 C112.9315,77.5777 111.0305,78.5257 109.1395,79.4907 C98.4745,84.9417 92.9405,93.5497 93.0625,105.6327" id="Fill-31" fill="#8A7B2B"></path>
                        <path d="M44.7558,140.6415 C64.1018,141.5785 72.6678,126.0255 74.6328,111.8545 C75.5018,105.5815 76.6138,99.2695 72.8218,93.2985 C65.7348,82.1375 49.6748,69.6625 32.5758,75.1195 C23.5108,78.0125 17.7058,84.0325 14.6698,92.7775 C10.0298,106.1405 11.4208,118.9495 18.5688,131.2165 C22.2048,137.4565 28.4848,138.3815 34.5598,139.6525 C37.8818,140.3485 41.3528,140.3345 44.7558,140.6415" id="Fill-33" fill="#87792A"></path>
                        <path d="M127.2431,267.7318 C133.7121,267.6508 140.1151,267.6918 146.3871,265.3268 C158.7731,260.6558 165.5521,251.6288 167.6151,238.9088 C171.0331,217.8358 163.0201,201.6578 145.9121,189.5388 C145.0511,188.9288 144.2431,188.2438 143.4091,187.5938 C140.2131,186.5688 137.7631,183.8468 133.7371,183.2528 C134.8671,185.1998 136.5051,185.5388 137.8101,186.2378 C148.5891,192.0138 157.5881,199.6248 162.7601,210.9798 C168.5701,223.7358 168.6301,236.7108 162.7821,249.3998 C157.1811,261.5508 141.7051,268.1998 126.5581,265.9218 C117.7191,264.5918 109.7191,260.5048 101.0391,258.7328 C100.2441,258.5708 99.4821,258.1038 97.8541,259.2978 C108.1951,261.7398 117.3871,265.7868 127.2431,267.7318" id="Fill-35" fill="#95640B"></path>
                        <path d="M84,172.5922 C80.662,172.8202 77.417,172.2832 74.217,171.3952 C69.89,170.1942 69.195,169.2412 69.989,164.8462 C71.272,157.7492 73.554,150.9222 75.891,144.1202 C78.186,137.4392 80.34,130.7022 83.365,124.2952 C83.272,123.8432 83.335,123.1952 83.059,122.9792 C82.296,122.3822 82.031,123.2622 81.85,123.6892 C81.113,125.4192 80.447,127.1812 79.812,128.9522 C75.673,140.4702 71.121,151.8612 68.703,163.9222 C67.563,169.6062 68.648,171.7302 74.144,172.9762 C82.814,174.9412 91.668,174.9372 100.513,174.5292 C100.773,174.5172 101.02,174.1912 101.792,173.6422 C95.542,172.4682 89.657,174.0142 84,172.5922" id="Fill-37" fill="#897711"></path>
                        <path d="M153.7343,171.0453 C158.6443,170.3003 162.7103,167.6163 166.8143,165.1403 C177.6333,158.6163 185.5523,149.7393 188.6013,137.1503 C190.2103,130.5143 190.0553,123.8193 188.9553,117.1183 C188.8093,116.2333 188.4383,115.5643 187.5933,115.2033 C187.6403,116.7293 187.5403,118.2753 187.7553,119.7763 C190.4313,138.4863 183.2173,152.6073 167.7773,162.8983 C163.8513,165.5143 159.6153,167.5803 155.2813,169.4363 C154.5313,169.7573 153.6453,169.9273 153.7343,171.0453" id="Fill-39" fill="#94610A"></path>
                        <path d="M72.9892,188.7006 C73.9602,192.3076 76.2722,194.4646 80.0292,194.5586 C83.6512,194.6496 85.9502,192.6156 87.1142,189.2426 C86.9002,188.1396 87.0932,186.7806 85.3002,186.8046 C81.7692,186.8516 78.2392,186.8556 74.7102,186.8516 C73.4342,186.8506 73.2252,187.7716 72.9892,188.7006" id="Fill-41" fill="#F9F9F7"></path>
                        <path d="M208.1289,86.018 C207.8679,85.809 207.6079,85.599 207.3479,85.389 C204.7969,82.253 200.9909,81.002 197.6389,79.146 C193.2049,76.692 190.1689,73.303 188.3449,68.592 C186.0909,62.768 184.5219,56.737 182.6049,50.808 C181.7719,50.01 181.5459,47.314 179.6319,49.834 C181.0599,55.522 182.4939,61.201 184.5469,66.715 C186.8579,72.92 190.0249,78.398 196.0889,81.677 C199.3459,83.338 202.5929,85.02 205.8669,86.646 C206.7329,87.077 207.8849,88.04 208.1289,86.018" id="Fill-43" fill="#99600E"></path>
                        <path d="M132.0439,254.4481 C131.8109,250.0151 127.8809,245.9911 123.6139,245.8331 C120.9409,245.7351 119.1659,246.9111 118.4549,249.5531 C118.6029,250.9291 119.0929,251.6961 120.6469,252.2461 C124.3649,253.5641 128.1889,254.0161 132.0439,254.4481" id="Fill-45" fill="#F9F8F7"></path>
                        <path d="M59.7509,188.6493 C60.4499,193.2133 63.2119,195.7423 66.8189,195.1223 C70.1929,194.5413 72.1609,191.2833 71.6349,187.1453 C67.6369,187.3693 63.6429,187.6053 59.7509,188.6493" id="Fill-47" fill="#F8F8F6"></path>
                        <path d="M89.209,243.0985 C87.709,239.1905 85.124,237.3955 81.922,238.0355 C78.783,238.6615 77.047,241.2915 77.248,245.1175 C80.293,245.0215 83.336,244.8665 86.38,244.8515 C87.763,244.8455 88.98,244.8435 89.209,243.0985" id="Fill-49" fill="#F7F7F5"></path>
                        <path d="M177.54,53.4804 C176.096,52.4904 176.264,50.1924 173.698,49.0844 C175.251,52.8054 176.558,55.8874 177.825,58.9844 C179.719,63.6104 181.052,68.4224 180.996,73.4174 C180.931,79.2714 177.541,83.7794 174.129,88.1844 C173.974,89.0504 172.605,89.4474 173.183,90.6214 C174.296,91.1374 174.63,90.1374 175.093,89.5774 C181.845,81.4084 184.697,72.4814 180.505,62.1204 C179.364,59.3014 178.519,56.3634 177.54,53.4804" id="Fill-51" fill="#97630C"></path>
                        <path d="M88.6924,188.495 C89.6114,191.563 91.8774,193.048 94.8714,193.327 C98.2404,193.641 101.0614,192.542 102.7354,189.344 C102.3204,187.76 100.9594,188.164 99.8894,188.022 C97.1394,187.655 94.3834,187.33 91.6304,187.001 C90.3274,186.845 89.0264,186.729 88.6924,188.495" id="Fill-53" fill="#F9F9F7"></path>
                        <path d="M117.4873,250.1098 C117.6503,246.7678 115.5863,244.9668 112.8473,243.9168 C109.5923,242.6678 106.6433,243.3978 104.2583,246.0458 C104.3343,246.2708 104.3513,246.6288 104.4973,246.6928 C108.6483,248.5038 112.8003,250.3328 117.4873,250.1098" id="Fill-55" fill="#F8F8F7"></path>
                        <path d="M75.6181,245.1586 C74.3361,241.8096 71.8561,240.5106 68.4311,241.2336 C65.1761,241.9206 63.9591,244.2726 64.2221,248.8506 C68.0881,247.8256 72.0881,247.2176 75.6181,245.1586" id="Fill-57" fill="#FBF9F7"></path>
                        <path d="M46.8633,192.1737 C48.1153,195.0747 50.3433,196.6037 53.4603,196.1177 C56.7433,195.6067 58.4293,193.3647 58.7003,190.0677 C58.3743,189.5967 58.1343,188.8607 57.4553,188.9887 C53.8153,189.6757 50.0173,189.8667 46.8633,192.1737" id="Fill-59" fill="#F9F8F4"></path>
                        <path d="M102.6318,244.6928 C101.7488,241.7018 99.8198,239.8388 96.6558,239.7468 C93.7968,239.6628 91.8548,241.1908 90.8628,243.8898 C94.1898,245.8918 98.0208,245.6948 101.6578,246.2998 C102.4988,246.4398 102.3488,245.2728 102.6318,244.6928" id="Fill-61" fill="#FAF8F5"></path>
                        <path d="M179.7636,96.038 C181.4686,95.777 181.0746,94.349 181.2786,93.275 C182.6406,86.112 187.4196,83.677 193.9766,86.775 C197.6716,88.521 200.7206,91.274 204.2836,93.272 C202.2046,89.245 198.0806,87.723 194.6906,85.318 C185.2836,82.174 179.7146,86.173 179.7636,96.038" id="Fill-63" fill="#99620B"></path>
                        <path d="M62.5459,249.4188 C61.9159,245.8448 59.7529,243.7238 57.2499,244.2238 C54.6209,244.7498 53.1819,247.7738 53.7129,251.6608 C56.7659,251.3388 59.6559,250.3768 62.5459,249.4188" id="Fill-65" fill="#F8F7F5"></path>
                        <path d="M104.5752,188.4931 C104.0832,191.6971 106.1742,193.2341 108.6422,194.1051 C111.8822,195.2491 114.8142,194.5541 116.8802,191.5211 C113.0852,189.2651 108.6132,189.7611 104.5752,188.4931" id="Fill-67" fill="#F4F3F1"></path>
                        <path d="M179.6318,49.8344 C181.7518,48.2234 180.9518,51.0494 181.8508,51.2944 C183.1848,50.3154 183.4308,49.1154 182.5808,47.6944 C180.4018,45.6914 179.9938,42.4494 177.6108,40.5894 C176.1558,40.7964 176.2478,41.9404 176.1508,42.9804 C175.8668,45.9944 176.7428,48.7004 178.3118,51.2274 C178.4068,50.4364 178.7998,49.9264 179.6318,49.8344" id="Fill-69" fill="#F9A037"></path>
                        <path d="M155.5273,232.3817 C154.6943,233.6317 154.9593,235.0007 155.0953,236.3547 C155.7693,235.0867 155.7013,233.7397 155.5273,232.3817" id="Fill-71" fill="#A72E46"></path>
                        <path d="M155.0937,223.8109 C154.9787,225.1269 154.6797,226.4649 155.5297,227.6689 C155.6547,226.3509 155.8187,225.0309 155.0937,223.8109" id="Fill-73" fill="#A72E46"></path>
                        <path d="M213.0371,166.9359 C212.7271,164.5219 210.8921,165.5269 209.7581,165.6849 C204.0781,166.4739 199.8911,169.7809 196.3631,174.0679 C195.2461,175.4259 194.2051,176.8479 193.1291,178.2409 C191.0721,182.1409 188.8501,185.9689 187.6931,190.4469 C189.1981,190.6969 189.3941,189.8099 189.7291,188.9429 C192.0321,182.9829 195.0071,177.4429 199.5401,172.8129 C203.2721,169.0019 207.6931,166.9559 213.0371,166.9359" id="Fill-75" fill="#9B630B"></path>
                        <path d="M195.4355,163.2538 C200.4315,161.1888 202.6225,157.1658 203.2345,152.0518 C203.9385,146.1708 201.6635,140.9438 199.6165,135.6678 C199.1035,135.4528 198.6315,134.7328 198.0565,135.1718 C197.2635,135.7778 197.9575,136.4498 198.2735,137.0008 C200.1145,140.2108 201.2035,143.6958 201.6695,147.3178 C202.3315,152.4608 201.4055,157.1678 197.1025,160.6888 C196.3055,161.3398 195.4075,162.0218 195.4355,163.2538" id="Fill-77" fill="#9A660B"></path>
                        <path d="M220.9756,156.1078 C220.8976,155.3938 220.8196,154.6798 220.7426,153.9658 C217.4516,152.6218 215.5666,149.8698 213.7836,147.0158 C210.1396,142.6758 208.7046,137.3228 206.9586,132.1138 C206.4596,130.6258 206.4706,130.6218 205.2146,131.4558 C206.9096,136.4658 208.4436,141.5388 211.2106,146.1138 C213.6896,150.2118 216.7656,153.7088 220.9756,156.1078" id="Fill-79" fill="#93660C"></path>
                        <path d="M64.0244,39.2177 C70.0374,40.4617 76.1284,40.7687 82.2404,40.5897 C95.3394,40.2047 108.0884,37.3707 120.8944,34.9377 C118.4774,33.4357 115.8004,33.4447 113.0764,33.4647 C105.0854,33.5227 96.8824,32.5057 89.2474,35.1027 C82.6894,37.3337 75.8284,37.0427 69.2934,38.8887 C67.6374,39.3567 65.7864,39.1277 64.0244,39.2177" id="Fill-81" fill="#F7A139"></path>
                        <path d="M182.581,47.6942 C182.338,48.8942 182.095,50.0932 181.851,51.2942 C183.54,58.9782 185.701,66.5142 189.452,73.4772 C192.139,78.4662 197.537,80.0682 201.901,82.9252 C203.549,84.0042 205.522,84.5822 207.348,85.3882 C206.834,82.4692 205.739,79.8062 203.867,77.4852 C200.642,78.0142 198.025,76.6482 194.877,74.8652 C196.868,73.7562 198.683,72.9722 197.753,70.7142 C197.092,69.1102 196.908,67.0132 194.905,66.5322 C192.751,66.0152 192.73,68.5702 191.426,69.5562 C189.971,66.6132 191.533,64.5842 193.213,62.5842 C192.668,61.5212 192.342,60.2942 191.095,59.7572 C189.487,60.1862 188.768,59.0842 188.094,57.9722 C186.948,56.0802 186.008,54.0912 185.416,51.9502 C185.56,49.8052 184.148,48.6982 182.581,47.6942" id="Fill-83" fill="#FAA037"></path>
                        <path d="M76.8466,25.0814 C90.2066,26.8334 103.4966,26.6794 116.6806,23.6074 C113.7576,21.6834 110.5856,20.6044 107.0476,20.7284 C100.0176,20.9754 93.0056,20.3674 85.9526,21.8884 C82.6706,22.5964 80.3856,25.5924 76.8466,25.0814" id="Fill-85" fill="#F69F38"></path>
                        <path d="M193.2129,62.5839 C190.1379,63.3159 188.2419,68.4979 190.1549,70.9339 C190.6399,71.5509 191.2869,71.7819 192.0299,71.6709 C192.6819,71.5739 193.0049,71.1109 193.1589,70.4789 C193.4419,69.3249 192.7389,67.3319 194.5449,67.3549 C196.2309,67.3759 195.8579,69.5889 196.5839,70.7259 C196.8929,71.2079 197.0499,71.7859 197.3149,72.4129 C196.2269,73.5739 193.3369,71.4489 193.5849,74.2139 C193.7649,76.2159 195.2699,77.3739 197.5309,77.5859 C198.8759,77.7109 200.1729,78.5229 201.4549,79.1059 C203.1969,79.8989 203.8889,79.2519 203.8669,77.4849 C203.8829,74.5909 201.5519,72.9719 200.1669,70.8739 C198.1799,67.8589 195.9329,65.0099 193.2129,62.5839" id="Fill-87" fill="#F9A037"></path>
                        <path d="M185.416,51.9501 C184.252,55.6211 186.936,58.0261 188.525,60.6781 C189.091,61.6221 190.693,61.4151 191.095,59.7571 C189.479,56.9531 187.728,54.2481 185.416,51.9501" id="Fill-89" fill="#F9A037"></path>
                        <path d="M11.6689,58.5018 C11.6329,58.6118 11.6269,58.7498 11.5569,58.8288 C10.3209,60.2298 7.9729,61.0678 8.7959,63.5558 C9.5529,65.8428 11.5899,66.4868 13.7389,66.8208 C32.8259,62.6888 51.5659,65.6988 70.2249,69.7058 C78.3999,71.4608 86.2319,69.7998 93.9949,67.7378 C114.9259,62.1798 135.5619,62.6348 155.9699,70.1228 C158.9519,71.2168 161.8889,72.4928 165.1169,72.8278 C166.7989,73.0018 168.5839,73.4128 169.5339,71.6158 C170.4369,69.9108 169.4339,68.3438 168.3489,67.0928 C164.5979,62.7718 159.5939,60.3558 154.3889,58.3498 C143.3769,54.1068 132.0639,53.6278 120.5759,55.9128 C106.1909,58.7728 91.7779,61.1268 77.0059,60.5878 C68.4599,60.2768 60.1409,58.5118 51.7259,57.3838 C40.5239,55.8828 29.3719,55.6288 18.1959,57.4208 C17.7419,57.4938 17.2609,57.4008 16.7939,57.3848 C15.3729,57.7118 14.0549,58.5038 12.5249,58.3538 C12.2419,58.4028 11.9559,58.4528 11.6689,58.5018" id="Fill-91" fill="#E1D865"></path>
                        <path d="M24.4218,188.3275 C27.6818,183.9485 23.9938,181.2565 21.8738,178.2835 C20.5158,176.3785 19.1428,176.9355 18.8748,179.0555 C18.6338,180.9555 17.9458,182.3875 16.5258,183.5905 C14.7388,185.1035 13.0138,186.0615 11.0828,183.7745 C10.4968,183.0805 9.7288,182.2025 8.6878,182.8565 C7.7258,183.4615 8.0478,184.5425 8.2348,185.4475 C8.8738,188.5525 9.5638,191.6475 10.2308,194.7465 C11.0848,198.7115 12.2168,199.3965 15.9248,198.1875 C18.4458,194.6325 21.3328,191.3925 24.4218,188.3275" id="Fill-93" fill="#FA9F37"></path>
                        <path d="M16.5761,177.5106 C16.8081,173.1116 14.9421,169.5606 12.1581,166.3366 C10.8781,164.8536 9.5051,164.5696 7.7831,165.4486 C6.0971,166.3086 6.2511,167.6046 6.2761,169.2866 C6.3381,173.4456 8.8241,176.5296 10.3841,180.0236 C11.1361,181.7086 12.1551,183.2646 14.3291,182.7846 C16.5701,182.2896 16.6721,180.4356 16.5741,178.5746 C16.5551,178.2206 16.5711,177.8666 16.5761,177.5106" id="Fill-95" fill="#E8C842"></path>
                        <path d="M159.7353,106.3026 C160.2973,88.6856 151.7043,78.2716 134.0813,74.2996 C120.3633,71.2076 97.9163,84.9746 95.3293,98.3166 C92.4973,112.9256 96.8193,125.7066 107.6273,136.3836 C114.7123,143.3826 122.9433,143.4186 131.6743,141.8796 C139.4573,140.5076 146.7263,137.8456 152.5653,132.2086 C156.1923,128.7066 158.2163,124.4236 158.6913,119.3946 C159.1133,114.9276 159.8633,110.4886 159.7353,106.3026" id="Fill-97" fill="#F2F3BA"></path>
                        <path d="M43.623,139.0248 C60.518,138.9818 70.994,129.0398 73.115,112.4238 C73.204,111.7218 73.119,110.9688 73.34,110.3148 C80.04,90.4188 50.763,70.4958 33.931,76.1028 C25.726,78.8358 19.806,83.6398 16.686,91.6118 C11.613,104.5788 12.557,117.1448 19.178,129.4968 C22.594,135.8708 28.477,137.0368 34.51,138.1558 C37.977,138.7988 41.555,138.8408 43.623,139.0248" id="Fill-99" fill="#F2F3BA"></path>
                        <path d="M107.4043,109.3456 C107.4803,103.8936 106.5223,98.3046 109.9393,93.3256 C110.7453,92.1526 111.6013,91.0836 112.5493,90.0476 C113.0923,89.4516 113.8353,88.7156 113.2583,87.9036 C112.6943,87.1076 111.7133,87.3726 111.0163,87.8496 C106.2593,91.1086 102.2713,95.0676 101.7793,101.1376 C101.4073,105.7206 101.7103,110.3586 101.7153,114.9716 C101.7153,115.2066 101.6643,115.4786 101.7603,115.6726 C102.8153,117.8056 103.2683,121.2826 105.9833,121.0306 C108.7573,120.7726 107.0753,117.5696 107.3373,115.7046 C107.6293,113.6236 107.4043,111.4686 107.4043,109.3456" id="Fill-101" fill="#ECD7F0"></path>
                        <path d="M19.5341,108.3871 C19.0761,113.1081 19.3971,117.2461 21.8741,120.9711 C22.4431,121.8271 22.6311,123.1601 24.0741,122.7111 C25.4071,122.2961 25.8681,121.1171 25.5601,119.8791 C24.6901,116.3741 25.5661,112.7791 25.0071,109.3151 C24.1081,103.7601 26.5901,98.9801 28.2511,94.0881 C28.9141,92.1371 31.3271,90.7371 33.0461,89.2021 C33.9901,88.3601 35.7091,87.7371 34.5621,86.2561 C33.5731,84.9781 32.0811,85.9771 31.1321,86.7491 C24.1351,92.4491 17.5861,98.4301 19.5341,108.3871" id="Fill-103" fill="#ECD8EE"></path>
                        <path d="M36.3379,113.1195 L36.3379,121.1195" id="Stroke-105" stroke="#402C6D" stroke-linecap="square"></path>
                        <path d="M32.3379,117.1195 L40.3379,117.1195" id="Stroke-107" stroke="#402C6D" stroke-linecap="square"></path>
                        <path d="M33.5088,114.2909 L39.1658,119.9479" id="Stroke-109" stroke="#402C6D" stroke-linecap="square"></path>
                        <path d="M33.7666,119.6903 L39.4236,114.0333" id="Stroke-111" stroke="#402C6D" stroke-linecap="square"></path>
                        <path d="M32.9404,118.4887 L40.2494,115.2347" id="Stroke-113" stroke="#402C6D" stroke-linecap="square"></path>
                        <path d="M32.3125,115.5839 L39.9205,118.0559" id="Stroke-115" stroke="#402C6D" stroke-linecap="square"></path>
                        <path d="M34.4043,112.8109 L37.7853,120.0609" id="Stroke-117" stroke="#402C6D" stroke-linecap="square"></path>
                        <path d="M38.2666,112.7064 L34.8856,119.9564" id="Stroke-119" stroke="#402C6D" stroke-linecap="square"></path>
                        <path d="M117.3681,113.6107 L117.3681,121.6107" id="Stroke-121" stroke="#402C6D" stroke-linecap="square"></path>
                        <path d="M113.3681,117.6107 L121.3681,117.6107" id="Stroke-123" stroke="#402C6D" stroke-linecap="square"></path>
                        <path d="M114.54,114.7821 L120.196,120.4391" id="Stroke-125" stroke="#402C6D" stroke-linecap="square"></path>
                        <path d="M114.7968,120.182 L120.4538,114.525" id="Stroke-127" stroke="#402C6D" stroke-linecap="square"></path>
                        <path d="M113.9707,118.9804 L121.2797,115.7264" id="Stroke-129" stroke="#402C6D" stroke-linecap="square"></path>
                        <path d="M113.3427,116.0751 L120.9507,118.5471" id="Stroke-131" stroke="#402C6D" stroke-linecap="square"></path>
                        <path d="M115.4345,113.3026 L118.8155,120.5526" id="Stroke-133" stroke="#402C6D" stroke-linecap="square"></path>
                        <path d="M119.2968,113.1976 L115.9158,120.4476" id="Stroke-135" stroke="#402C6D" stroke-linecap="square"></path>
                        <g id="Group-139" transform="translate(0.000000, 0.998000)">
                            <mask id="mask-2" fill="white">
                                <use xlink:href="#path-1"></use>
                            </mask>
                            <g id="Clip-138"></g>
                            <path d="M59.9502,26.8813 L60.1932,26.9033 C60.1982,26.8513 60.1682,26.7563 60.1202,26.7103 L59.9502,26.8813 Z M9.4982,82.7493 C9.5012,84.7263 9.0292,86.5863 8.5742,88.3853 C8.3722,89.1823 8.1632,90.0063 8.0052,90.8113 C7.3002,94.3993 6.9562,97.6033 6.9522,100.6053 C6.9462,100.9173 6.9552,101.2133 6.9642,101.5083 C7.0032,102.8093 7.0462,104.2833 5.9682,105.6203 C5.4022,106.2553 5.4302,106.9123 5.5262,108.0213 C5.5572,108.3813 5.5882,108.7403 5.5902,109.0963 L5.5802,109.2383 C3.4372,124.5473 1.3582,142.7333 2.1672,161.5473 C2.7672,175.5173 4.3552,193.7633 11.3472,210.9973 L12.6902,214.0033 L12.6412,214.2973 C9.8762,231.0583 13.0952,243.5443 22.7712,253.5903 C23.4602,254.3043 24.4982,255.0543 25.5012,255.7793 C27.5332,257.2483 29.2882,258.5163 29.0482,260.0603 C28.6882,262.3523 28.9292,264.5713 29.1652,266.7183 C29.2082,267.1083 29.2502,267.4963 29.2892,267.8833 C29.6142,271.1153 29.9012,274.3523 30.1882,277.5883 C30.9392,286.0563 31.7182,294.8133 33.2002,303.3233 L33.2142,303.4433 C33.6482,311.9643 35.5532,321.3173 46.3662,326.0753 C49.4602,327.4373 52.4442,329.1143 55.3312,330.7363 C59.1062,332.8573 63.0122,335.0513 67.1452,336.5213 C77.9402,340.3563 89.6202,339.7673 103.9042,334.6653 C109.3092,332.7343 115.5402,330.3843 121.0702,326.9283 L121.2062,326.8573 C134.8122,321.0303 145.6512,311.4113 154.3452,297.4513 C161.8122,285.4583 167.1712,272.4983 172.3522,259.9643 C178.8042,244.3573 185.6412,232.5423 193.8692,222.7823 C201.2902,213.9813 206.7752,203.6513 211.7602,193.8243 C211.9002,193.5453 211.9612,193.1723 212.0252,192.7773 C212.1512,192.0013 212.3082,191.0343 213.1682,190.2773 L213.2742,190.1953 C213.7792,189.8593 214.0262,189.2713 214.3102,188.5903 C214.5492,188.0213 214.8172,187.3793 215.2832,186.8163 C215.7232,186.0403 215.9512,185.1363 215.9742,184.0583 C215.9682,183.4583 216.1512,182.9173 216.3132,182.4393 C216.3712,182.2703 216.4292,182.1003 216.4742,181.9283 C216.5532,181.6723 216.5972,181.4223 216.6252,181.1073 C216.6692,180.5513 216.6762,179.9843 216.6822,179.4173 L216.6862,179.1493 C216.5962,177.9283 216.8222,176.6173 217.3812,175.2273 C218.6122,170.9633 220.0682,166.7003 221.6782,162.6513 C222.8832,159.6243 222.7392,157.4273 221.2062,155.5583 C220.9622,155.4213 220.7242,155.2783 220.4872,155.1353 L219.9422,154.8073 L219.6502,152.1333 L220.6382,152.0243 C220.6502,152.0233 220.6632,152.0213 220.6772,152.0203 C221.3332,150.1603 221.3312,148.0893 220.6762,145.5533 L220.6412,145.4143 L220.6452,145.2713 C221.0122,134.5013 221.2412,123.9743 220.0422,113.5853 C218.5102,100.3093 215.5122,83.1843 205.8532,68.4793 C202.9232,64.0173 199.5252,59.7343 196.2392,55.5913 C193.1782,51.7323 190.0112,47.7403 187.1912,43.5723 C184.4852,39.5723 181.5582,35.6113 178.7272,31.7803 C177.5422,30.1763 176.3562,28.5723 175.1822,26.9603 C171.6262,22.0753 167.8802,18.1143 163.7282,14.8523 L163.7222,14.8473 C152.9582,8.5833 141.1132,5.4203 130.9392,3.1513 C116.5312,-0.0617 103.4342,3.9853 92.5232,8.3683 C84.9072,11.4273 78.0652,14.7163 71.6032,18.4233 L70.9132,18.8193 L70.2812,18.1293 C69.7832,18.4613 69.2782,18.7843 68.7732,19.1073 C67.3452,20.0213 65.9792,20.8953 64.7732,21.9703 L63.9232,24.8033 C63.8842,24.9343 63.8532,25.0313 63.8322,25.1293 L63.6462,25.9663 L62.3182,25.8723 C62.2952,25.8973 62.2712,25.9223 62.2492,25.9463 C61.6132,26.6293 60.8322,27.4673 59.6052,27.7473 L59.8682,28.3053 L59.6362,28.4103 C54.5292,30.6973 50.4742,33.6893 47.2452,37.5493 C46.2982,39.2423 44.6932,39.9273 43.2592,40.4393 L43.0972,40.4823 C33.3562,42.2033 25.5432,46.9163 19.8742,54.4913 L19.6922,54.7333 L19.4082,54.8333 C19.3322,54.8603 19.1672,55.1793 19.0782,55.3513 C18.8322,55.8283 18.4192,56.6263 17.5112,56.8763 L17.5202,57.2183 L16.7652,57.4243 C16.4212,57.5183 16.0812,57.6363 15.7402,57.7543 C14.8072,58.0753 13.7582,58.4383 12.5702,58.3573 L12.3812,58.3893 C12.3582,58.4223 12.3332,58.4533 12.3052,58.4853 C11.9322,58.9093 11.5022,59.2643 11.0862,59.6073 C9.8202,60.6503 9.3772,61.1483 9.7402,62.2463 C10.2212,63.7003 11.3412,64.4193 13.7342,64.8123 L14.9982,65.0203 L14.4832,66.1933 C14.4102,66.3603 14.4342,66.3973 14.4422,66.4093 L14.8372,67.0123 L14.3872,67.5753 C12.7882,69.5793 12.2642,72.0083 11.7102,74.5813 C11.4802,75.6463 11.2442,76.7473 10.9242,77.8183 C10.7882,78.2753 10.6622,78.7373 10.5382,79.2003 C10.2962,80.0943 10.0482,81.0183 9.7092,81.9243 C9.6052,82.1893 9.5382,82.4543 9.4982,82.7493 Z M81.7532,341.0003 C76.4042,341.0003 71.3622,340.1293 66.4792,338.3943 C62.1852,336.8683 58.2052,334.6323 54.3552,332.4693 C51.5112,330.8713 48.5692,329.2183 45.5662,327.8963 C33.7882,322.7133 31.7032,312.7153 31.2302,303.6053 C29.7402,295.0313 28.9612,286.2533 28.2082,277.7643 C27.9212,274.5353 27.6352,271.3063 27.3102,268.0833 C27.2722,267.7003 27.2292,267.3183 27.1882,266.9353 C26.9392,264.6583 26.6822,262.3053 27.0822,259.7533 C26.9862,259.3063 25.3282,258.1083 24.3372,257.3913 C23.2622,256.6153 22.1512,255.8123 21.3402,254.9703 C11.3872,244.6363 7.8832,231.3213 10.6332,214.2693 L9.5182,211.7783 C2.3982,194.2283 0.7882,175.7623 0.1802,161.6323 C-0.6338,142.6893 1.4492,124.4193 3.5992,109.0373 C3.5952,108.7573 3.5702,108.4753 3.5462,108.1933 C3.4452,107.0373 3.3202,105.5993 4.4522,104.3323 C5.0372,103.6073 5.0092,102.6613 4.9762,101.5673 C4.9672,101.2383 4.9572,100.9093 4.9642,100.5843 C4.9682,97.4703 5.3242,94.1433 6.0542,90.4273 C6.2222,89.5703 6.4382,88.7193 6.6452,87.8973 C7.0962,86.1203 7.5212,84.4423 7.5102,82.6953 L7.5162,82.5703 C7.5762,82.0803 7.6852,81.6363 7.8532,81.2123 C8.1512,80.4103 8.3782,79.5713 8.6182,78.6823 C8.7482,78.2023 8.8772,77.7223 9.0182,77.2493 C9.3152,76.2523 9.5352,75.2373 9.7662,74.1633 C10.3062,71.6523 10.8652,69.0613 12.4832,66.7983 C12.4702,66.7303 12.4592,66.6603 12.4512,66.5883 C10.5932,66.1583 8.6412,65.2563 7.8522,62.8703 C7.0272,60.3773 8.6412,59.0453 9.8202,58.0733 C10.1402,57.8093 10.4462,57.5573 10.6942,57.3003 C10.7042,57.2613 10.7142,57.2283 10.7232,57.1953 L10.9102,56.6263 L12.4882,56.3523 L12.6242,56.3663 C13.4362,56.4453 14.2392,56.1683 15.0922,55.8743 C15.3022,55.8013 15.5112,55.7293 15.7212,55.6623 C15.7922,55.5373 15.8822,55.4083 16.0002,55.2793 L16.3362,54.9113 L16.8332,54.9603 C17.0082,54.9793 17.0322,54.9783 17.3112,54.4393 C17.5342,54.0053 17.8302,53.4333 18.4322,53.0983 C24.3862,45.2453 32.5392,40.3473 42.6682,38.5383 C43.9872,38.0633 44.8822,37.5953 45.4262,36.7223 L45.4262,36.6273 L45.6552,36.3503 C48.9622,32.3743 53.0732,29.2693 58.2042,26.8783 C58.2052,26.8273 58.2072,26.7753 58.2122,26.7233 L58.2822,25.9523 L59.0472,25.8313 C59.7062,25.7273 60.1402,25.2923 60.7942,24.5913 C60.8532,24.5273 60.9122,24.4643 60.9712,24.4023 C60.8552,23.0963 61.6772,22.2533 62.2972,21.6163 L62.5122,21.3943 C64.0662,19.7573 65.9152,18.5753 67.7022,17.4323 C68.4292,16.9673 69.1572,16.5023 69.8642,16.0063 L70.5822,15.5023 L71.3072,16.3023 C77.6452,12.7113 84.3512,9.5083 91.7812,6.5233 C102.9752,2.0263 116.4342,-2.1207 131.3732,1.2103 C141.7322,3.5203 153.8102,6.7513 164.8422,13.1973 L165.1952,13.4033 L165.2192,13.4953 C169.4102,16.8323 173.1992,20.8573 176.7902,25.7893 C177.9612,27.3983 179.1432,28.9983 180.3262,30.5993 C183.1692,34.4463 186.1092,38.4233 188.8382,42.4583 C191.6162,46.5633 194.7582,50.5253 197.7972,54.3553 C201.1092,58.5323 204.5362,62.8513 207.5152,67.3873 C217.4042,82.4433 220.4602,99.8623 222.0162,113.3573 C223.2262,123.8373 223.0032,134.3983 222.6372,145.1963 C223.4242,148.3293 223.3242,150.8963 222.3262,153.2643 L222.1472,153.6893 L222.0142,153.7303 C222.1152,153.7883 222.2172,153.8453 222.3192,153.9013 L222.4812,153.9883 L222.6012,154.1273 C225.4282,157.4063 224.4832,160.9823 223.5252,163.3853 C221.9402,167.3763 220.5032,171.5773 219.2582,175.8743 C218.7832,177.0723 218.6012,178.0943 218.6722,179.0923 L218.6712,179.4423 C218.6632,180.0533 218.6542,180.6643 218.6072,181.2743 C218.5652,181.7383 218.4952,182.1163 218.3872,182.4723 C218.3402,182.6553 218.2682,182.8673 218.1962,183.0783 C218.0702,183.4523 217.9602,183.7763 217.9642,184.0703 C217.9292,185.5643 217.5992,186.8053 216.9552,187.8973 L216.8462,188.0473 C216.5532,188.3833 216.3542,188.8563 216.1442,189.3573 C215.7962,190.1923 215.4012,191.1363 214.4462,191.8033 C214.1662,192.0753 214.0922,192.4603 213.9872,193.0963 C213.9062,193.5993 213.8132,194.1693 213.5322,194.7233 C208.4962,204.6543 202.9472,215.1003 195.3892,224.0643 C187.2982,233.6633 180.5602,245.3123 174.1892,260.7243 C168.9762,273.3323 163.5872,286.3703 156.0322,298.5033 C147.1322,312.7963 136.0192,322.6593 122.0592,328.6553 C116.3772,332.1943 110.0552,334.5793 104.5722,336.5383 C96.2292,339.5183 88.7302,341.0003 81.7532,341.0003 Z" id="Fill-137" fill="#966A10" mask="url(#mask-2)"></path>
                        </g>
                    </g>
                </g>
            </g>
        </g>
    </g>
</svg>