<?xml version="1.0" encoding="utf-8"?>
<!-- Generator: Adobe Illustrator 16.0.4, SVG Export Plug-In . SVG Version: 6.00 Build 0)  -->
<!DOCTYPE svg PUBLIC "-//W3C//DTD SVG 1.1//EN" "http://www.w3.org/Graphics/SVG/1.1/DTD/svg11.dtd">
<svg version="1.1" id="Layer_1" xmlns="http://www.w3.org/2000/svg" xmlns:xlink="http://www.w3.org/1999/xlink" x="0px" y="0px"
	 width="250px" height="46px" viewBox="0 0 250 46" enable-background="new 0 0 250 46" xml:space="preserve">
<g>
	<path fill-rule="evenodd" clip-rule="evenodd" fill="#FFFFFF" d="M40.059,22.974c0-2.861,0.023-5.723-0.016-8.583
		c-0.011-0.766,0.184-1.022,0.993-1.014c3.854,0.043,7.71,0.043,11.564,0c0.812-0.009,1.036,0.252,0.988,1.017
		c-0.057,0.911-0.067,1.831,0.003,2.74c0.06,0.773-0.244,0.924-0.947,0.91c-2.105-0.042-4.215,0.05-6.317-0.039
		c-1.27-0.054-0.905,0.771-0.933,1.407c-0.029,0.645-0.225,1.337,0.925,1.268c1.703-0.103,3.417,0.004,5.125-0.042
		c0.705-0.019,1.023,0.139,0.951,0.913c-0.103,1.099,0.444,2.529-0.206,3.223c-0.661,0.705-2.103,0.171-3.202,0.218
		c-0.913,0.039-1.83,0.048-2.741-0.005c-0.705-0.04-0.858,0.254-0.873,0.901c-0.046,2.06-0.071,2.06,1.961,2.06
		c1.868,0,3.736,0.024,5.604-0.013c0.664-0.014,0.925,0.173,0.89,0.87c-0.053,1.03-0.037,2.066-0.004,3.099
		c0.017,0.521-0.168,0.686-0.681,0.684c-4.133-0.015-8.266-0.023-12.398,0.006c-0.761,0.006-0.689-0.425-0.688-0.915
		C40.062,28.775,40.059,25.875,40.059,22.974z"/>
	<path fill-rule="evenodd" clip-rule="evenodd" fill="#FFFFFF" d="M106.13,22.943c0-2.82,0.024-5.64-0.016-8.46
		c-0.011-0.778,0.12-1.121,1.019-1.108c3.812,0.05,7.626,0.042,11.439,0.003c0.781-0.008,1.061,0.208,1.011,0.998
		c-0.06,0.949-0.048,1.907-0.002,2.858c0.03,0.627-0.183,0.817-0.808,0.807c-2.104-0.035-4.211,0.017-6.315-0.029
		c-0.758-0.017-1.039,0.162-1.021,0.981c0.038,1.658-0.014,1.659,1.605,1.659c1.51,0,3.02,0.027,4.528-0.013
		c0.645-0.017,0.943,0.128,0.898,0.846c-0.059,0.91-0.054,1.829-0.001,2.739c0.038,0.666-0.251,0.795-0.837,0.785
		c-1.708-0.029-3.417,0.034-5.124-0.029c-0.849-0.031-1.165,0.252-1.052,1.075c0.032,0.234,0.035,0.481,0,0.714
		c-0.141,0.927,0.204,1.235,1.166,1.2c2.063-0.074,4.131,0.01,6.195-0.039c0.796-0.019,1.175,0.159,1.082,1.036
		c-0.124,1.172,0.495,2.745-0.25,3.417c-0.645,0.582-2.188,0.188-3.334,0.191c-3.019,0.011-6.039-0.043-9.056,0.03
		c-0.988,0.023-1.163-0.309-1.146-1.2C106.165,28.585,106.13,25.764,106.13,22.943z"/>
	<path fill-rule="evenodd" clip-rule="evenodd" fill="#FFFFFF" d="M129.097,32.818c-2.578-0.057-5.014-0.693-7.351-1.777
		c-0.638-0.296-0.815-0.58-0.435-1.251c0.586-1.032,1.105-2.109,1.566-3.203c0.277-0.658,0.558-0.55,1.057-0.275
		c1.678,0.925,3.425,1.684,5.387,1.717c0.585,0.01,1.343,0.064,1.512-0.649c0.19-0.808-0.567-1.056-1.153-1.269
		c-1.38-0.5-2.794-0.906-4.165-1.428c-2.254-0.857-3.769-2.289-3.731-4.933c0.038-2.726,1.323-4.79,3.75-5.832
		c2.837-1.219,5.604-0.692,8.339,0.359c2.354,0.905,2.354,0.925,1.214,3.139c-0.381,0.738-0.641,1.773-1.252,2.078
		c-0.453,0.226-1.383-0.519-2.104-0.819c-1.071-0.444-2.161-0.805-3.349-0.677c-0.497,0.053-0.964,0.17-1.057,0.762
		c-0.082,0.521,0.238,0.838,0.671,1.001c0.926,0.35,1.872,0.646,2.805,0.979c0.821,0.294,1.66,0.557,2.448,0.923
		c2.575,1.196,3.572,2.926,3.351,5.7c-0.206,2.57-1.715,4.347-4.317,5.066C131.242,32.717,130.184,32.882,129.097,32.818z"/>
	<path fill-rule="evenodd" clip-rule="evenodd" fill="#FFFFFF" d="M64.014,25.433c1.068-3.637,2.165-7.274,3.189-10.932
		c0.245-0.874,0.623-1.204,1.546-1.127c1.144,0.094,2.303,0.064,3.452,0.009c0.85-0.042,0.891,0.24,0.626,0.95
		c-1.852,4.971-3.67,9.954-5.5,14.933c-0.014,0.037-0.039,0.069-0.052,0.106c-1.271,3.447-1.27,3.433-4.962,3.222
		c-0.543-0.03-0.715-0.255-0.906-0.712c-2.403-5.75-4.542-11.6-6.74-17.428c-0.363-0.962-0.13-1.126,0.792-1.074
		c1.188,0.067,2.387,0.089,3.571-0.007c0.956-0.078,1.275,0.335,1.515,1.178c0.996,3.503,2.061,6.986,3.099,10.478
		C63.688,25.18,63.702,25.345,64.014,25.433z"/>
	<path fill-rule="evenodd" clip-rule="evenodd" fill="#FFFFFF" d="M145.764,13.396c2.382,0,4.764,0.027,7.145-0.017
		c0.719-0.013,0.992,0.161,0.943,0.916c-0.064,0.988-0.059,1.986-0.001,2.975c0.038,0.667-0.23,0.789-0.821,0.769
		c-1.189-0.04-2.385,0.046-3.57-0.031c-0.879-0.057-1.145,0.187-1.133,1.102c0.054,4.127-0.005,8.256,0.046,12.384
		c0.012,0.883-0.192,1.181-1.099,1.103c-1.024-0.087-2.066-0.078-3.093-0.002c-0.899,0.066-1.199-0.168-1.185-1.139
		c0.062-4.087-0.002-8.177,0.048-12.265c0.011-0.921-0.202-1.26-1.168-1.186c-1.185,0.09-2.382-0.016-3.57,0.036
		c-0.649,0.029-0.831-0.198-0.777-0.809c0.111-1.252-0.524-2.888,0.271-3.649c0.629-0.603,2.256-0.176,3.44-0.185
		C142.747,13.387,144.256,13.396,145.764,13.396z"/>
	<path fill-rule="evenodd" clip-rule="evenodd" fill="#FFFFFF" d="M16.525,14.357c0,1.846-0.025,3.427,0.013,5.007
		c0.014,0.562-0.35,0.755-0.708,0.987c-1.027,0.666-2.062,1.32-3.222,2.06c1.174,0.7,2.223,1.329,3.275,1.949
		c0.31,0.184,0.639,0.332,0.639,0.773c-0.003,1.73-0.001,3.461-0.001,5.394c-1.974-1.157-3.771-2.21-5.567-3.265
		c-1.503-0.883-2.95-1.887-4.523-2.616c-1.32-0.612-1.497-1.544-1.368-2.768c0.042-0.392,0.162-0.65,0.508-0.859
		C9.159,18.847,12.74,16.662,16.525,14.357z"/>
	<path fill-rule="evenodd" clip-rule="evenodd" fill="#FFFFFF" d="M229.886,31.51c0-1.864,0.027-3.489-0.015-5.113
		c-0.014-0.569,0.221-0.846,0.683-1.102c1.064-0.591,2.101-1.233,3.247-1.914c-1.085-0.702-2.015-1.386-3.021-1.927
		c-0.744-0.4-0.944-0.915-0.911-1.711c0.06-1.412,0.017-2.827,0.017-4.422c3.797,2.308,7.448,4.511,11.077,6.75
		c0.675,0.416,0.616,2.521-0.063,2.926C237.302,27.144,233.688,29.265,229.886,31.51z"/>
	<path fill-rule="evenodd" clip-rule="evenodd" fill="#FFFFFF" d="M30.345,13.589c-2.982-0.501-6.029-0.126-9.046-0.189
		c-0.719-0.015-0.555,0.527-0.557,0.93c-0.008,2.901-0.004,5.802-0.004,8.703c0,2.861,0.031,5.723-0.02,8.584
		c-0.014,0.802,0.23,0.997,1.001,0.979c2.224-0.05,4.451-0.006,6.676-0.021c5.142-0.033,8.636-3.07,9.379-8.136
		C38.567,19.04,35.514,14.458,30.345,13.589z M31.947,25.495c-0.857,1.947-3.271,3.025-5.401,2.455
		c-0.541-0.145-0.391-0.519-0.395-0.836c-0.016-1.386-0.007-2.772-0.007-4.158c0-1.346,0.044-2.695-0.018-4.038
		c-0.035-0.761,0.238-0.901,0.945-0.908C31.451,17.965,33.73,21.44,31.947,25.495z"/>
	<path fill-rule="evenodd" clip-rule="evenodd" fill="#FFFFFF" d="M172.165,32.055c-0.853-2.001-2.393-3.582-3.362-5.52
		c-0.35-0.697-0.409-1.038,0.196-1.671c1.344-1.402,2.368-3.008,2.23-5.124c-0.064-0.985-0.497-1.76-0.938-2.585
		c-1.314-2.458-3.277-3.792-6.117-3.764c-2.462,0.025-4.925,0.05-7.385-0.018c-0.899-0.025-1.117,0.221-1.107,1.109
		c0.047,4.604,0.017,9.211,0.024,13.816c0.003,1.383,0.042,2.766,0.065,4.148c1.443,0.295,2.907,0.016,4.353,0.146
		c0.802,0.072,0.906-0.275,0.88-0.951c-0.047-1.229-0.048-2.462,0.006-3.69c0.019-0.436-0.377-1.156,0.432-1.254
		c0.704-0.086,1.444-0.235,1.912,0.711c0.772,1.56,1.728,3.029,2.568,4.557c0.237,0.432,0.49,0.639,1.006,0.624
		c1.743-0.049,3.489-0.05,5.233-0.069C172.302,32.365,172.304,32.21,172.165,32.055z M165.494,20.807
		c-0.208,0.819-0.685,1.316-1.592,1.278c-0.316-0.013-0.633-0.001-0.949-0.001c-1.963,0-1.963,0-1.963-1.989
		c0-2.07,0-2.07,2.251-2.068C165.107,18.029,165.94,19.052,165.494,20.807z"/>
	<path fill-rule="evenodd" clip-rule="evenodd" fill="#FFFFFF" d="M209.138,21.919c-0.311-4.664-3.662-8.145-8.307-8.436
		c-2.533-0.159-5.084-0.034-7.625-0.105c-0.819-0.023-1.084,0.183-1.068,1.038c0.055,2.9,0.021,5.802,0.021,8.703
		c0,2.782,0.05,5.565-0.027,8.345c-0.027,0.987,0.31,1.16,1.192,1.135c2.104-0.061,4.212-0.011,6.318-0.025
		c0.594-0.004,1.196-0.023,1.779-0.125C206.687,31.534,209.521,27.656,209.138,21.919z M203.614,24.612
		c-0.603,2.511-3.163,3.978-5.76,3.343c-0.559-0.137-0.397-0.511-0.401-0.824c-0.017-1.392-0.007-2.783-0.007-4.174
		c0-1.392,0.019-2.783-0.01-4.174c-0.011-0.533,0.102-0.741,0.709-0.773C202.351,17.79,204.604,20.488,203.614,24.612z"/>
	<path fill-rule="evenodd" clip-rule="evenodd" fill="#F6931E" d="M99.883,26.564c-0.228,0.253-0.435,0.473-0.631,0.701
		c-0.65,0.753-1.286,1.525-2.167,2.02c-0.926,0.519-1.332,0.302-1.33-0.759c0.001-0.828,0.101-1.661,0.208-2.485
		c0.169-1.295,0.569-2.558,0.581-3.876c0.005-0.646-0.153-1.26-0.938-1.255c-0.793,0.004-1.462-0.097-2.002-0.771
		c-0.299-0.374-0.824-0.235-1.244-0.165c-0.792,0.134-1.518,0.457-2.167,0.937c-2.354,1.741-3.696,4.09-4.159,6.96
		c-0.141,0.874-1.01,1.765-1.711,1.626c-0.903-0.179-0.746-1.005-0.837-1.63c-0.056-0.383,0.016-0.792,0.079-1.183
		c0.234-1.447,0.522-2.888,0.724-4.339c0.131-0.942,0.026-1.944-0.973-2.335c-0.985-0.386-1.882,0.044-2.486,0.913
		c-0.36,0.519-0.635,1.098-0.944,1.651c-0.498,0.893-0.993,1.788-1.489,2.681c-0.019-1.23,0.172-2.364,0.267-3.505
		c0.067-0.805,0.047-1.678-1.038-1.829c-1.039-0.144-1.668,0.407-1.907,1.383c-0.216,0.884-0.4,1.779-0.54,2.679
		c-0.342,2.196-0.69,4.396-0.556,6.631c0.052,0.86,0.265,1.694,1.271,1.923c0.999,0.228,1.527-0.351,1.935-1.182
		c0.98-1.994,2-3.968,3.005-5.949c0.03-0.209,0.198-0.485,0.333-0.361c0.258,0.237,0.109,0.571-0.084,0.84
		c-0.123,1.542-0.315,3.083-0.016,4.627c0.368,1.899,1.207,2.428,3.037,1.837c0.561-0.182,1.121-0.425,1.613-0.744
		c0.532-0.345,0.88-0.464,1.377,0.112c0.63,0.729,1.534,0.932,2.497,0.859c1.509-0.113,2.625-1.007,3.74-1.896
		c1.434,2.087,2.428,2.433,4.217,1.491C100.395,30.674,100.937,29.412,99.883,26.564z M91.733,28.877
		c-0.317,0.596-0.721,1.256-1.54,1.04c-0.828-0.217-0.819-0.983-0.793-1.662c0.074-1.953,0.862-3.604,2.251-4.955
		c0.415-0.403,0.902-0.773,1.693-0.713C92.851,24.725,92.777,26.92,91.733,28.877z"/>
	<path fill-rule="evenodd" clip-rule="evenodd" fill="#FFFFFF" d="M190.315,31.778c-1.936-5.615-3.908-11.22-5.783-16.855
		c-0.402-1.208-0.962-1.732-2.247-1.547c-0.778,0.112-1.589,0.061-2.38,0.008c-0.632-0.042-0.904,0.205-1.089,0.797
		c-0.424,1.36-0.93,2.695-1.397,4.042c-1.521,4.376-3.028,8.757-4.591,13.12c-0.081,0.229,0.202,1.106-0.663,0.713
		c-0.001,0.154-0.002,0.31-0.003,0.465c1.151,0.02,2.302,0.052,3.453,0.056c2.253,0.009,2.34,0.024,2.878-2.138
		c0.309-1.24,0.785-1.824,2.137-1.646c1.094,0.143,2.472-0.313,3.249,0.206c0.705,0.472,0.782,1.897,1.105,2.912
		c0.112,0.352,0.147,0.68,0.646,0.674c1.614-0.019,3.228-0.007,4.929-0.007C190.451,32.221,190.391,31.997,190.315,31.778z
		 M182.439,25.256c-2.686,0.146-2.688,0.169-1.918-2.395c0.304-1.011,0.624-2.018,1.021-3.296c0.519,1.833,0.933,3.381,1.404,4.911
		C183.114,25.021,183.103,25.22,182.439,25.256z"/>
	<path fill-rule="evenodd" clip-rule="evenodd" fill="#FFFFFF" d="M226.688,31.346c-1.654-4.787-3.308-9.575-4.968-14.361
		c-0.402-1.158-0.514-2.684-1.325-3.358c-0.88-0.731-2.443-0.125-3.699-0.242c-0.794-0.074-1.157,0.173-1.43,0.977
		c-1.82,5.356-3.713,10.688-5.578,16.029c-0.763,2.187-0.759,2.197,1.571,2.185c1.026-0.006,2.295,0.302,3.006-0.186
		c0.649-0.445,0.689-1.773,1.005-2.71c0.108-0.32,0.063-0.821,0.523-0.833c1.507-0.038,3.084-0.276,4.497,0.09
		c0.849,0.22,0.698,1.711,1.072,2.602c0.061,0.146,0.128,0.296,0.148,0.45c0.058,0.433,0.286,0.6,0.722,0.596
		c1.579-0.015,3.158-0.006,4.846-0.006C226.924,32.086,226.814,31.713,226.688,31.346z M218.98,25.251
		c-2.725,0.191-2.727,0.204-1.965-2.34c0.313-1.046,0.643-2.088,1.036-3.362c0.522,1.847,0.945,3.442,1.437,5.016
		C219.665,25.134,219.502,25.214,218.98,25.251z"/>
</g>
</svg>
