<?xml version="1.0" encoding="iso-8859-1"?>
<!-- Generator: Adobe Illustrator 16.0.0, SVG Export Plug-In . SVG Version: 6.00 Build 0)  -->
<!DOCTYPE svg PUBLIC "-//W3C//DTD SVG 1.1//EN" "http://www.w3.org/Graphics/SVG/1.1/DTD/svg11.dtd">
<svg version="1.1" id="Layer_1" xmlns="http://www.w3.org/2000/svg" xmlns:xlink="http://www.w3.org/1999/xlink" x="0px" y="0px"
	 width="459.322px" height="120.04px" viewBox="0 0 459.322 120.04" style="enable-background:new 0 0 459.322 120.04;"
	 xml:space="preserve">
<g>
	<g>
		<g>
			<defs>
				<path id="SVGID_1_" d="M82.913,26.17l-8.372,7.208c4.825-2.965,7.325,1.744,7.325,1.744s-1.046,4.651,0.697-2.965
					c1.279-5.407,0.872-6.162,0.582-6.162C83.087,26.054,82.913,26.17,82.913,26.17"/>
			</defs>
			<clipPath id="SVGID_2_">
				<use xlink:href="#SVGID_1_"  style="overflow:visible;"/>
			</clipPath>
		</g>
		<g>
			<defs>
				<path id="SVGID_3_" d="M82.913,26.17l-8.372,7.208c4.825-2.965,7.325,1.744,7.325,1.744s-1.046,4.651,0.697-2.965
					c1.279-5.407,0.872-6.162,0.582-6.162C83.087,26.054,82.913,26.17,82.913,26.17"/>
			</defs>
			<defs>
				
					<rect id="SVGID_4_" x="71.219" y="24.659" transform="matrix(-0.7661 0.6427 -0.6427 -0.7661 161.0506 7.2182)" width="15.986" height="16.509"/>
			</defs>
			<clipPath id="SVGID_5_">
				<use xlink:href="#SVGID_3_"  style="overflow:visible;"/>
			</clipPath>
			<clipPath id="SVGID_6_" style="clip-path:url(#SVGID_5_);">
				<use xlink:href="#SVGID_4_"  style="overflow:visible;"/>
			</clipPath>
			
				<linearGradient id="SVGID_7_" gradientUnits="userSpaceOnUse" x1="-983.0342" y1="1200.7871" x2="-978.0963" y2="1200.7871" gradientTransform="matrix(-1.766 1.4819 -1.4819 -1.766 128.3906 3605.4531)">
				<stop  offset="0" style="stop-color:#FFFFFF"/>
				<stop  offset="0.9877" style="stop-color:#010202"/>
				<stop  offset="1" style="stop-color:#010202"/>
			</linearGradient>
			<polygon style="clip-path:url(#SVGID_6_);fill:url(#SVGID_7_);" points="101.922,34.89 77.216,55.644 56.521,30.937 
				81.169,10.184 			"/>
		</g>
	</g>
</g>
<g>
	<g>
		<g>
			<defs>
				<path id="SVGID_8_" d="M88.9,72.676c0,0-4.534,1.396,2.906-0.872c7.441-2.267,5.406-2.731,5.406-2.731l-10.405-3.663
					C91.749,68.142,88.9,72.676,88.9,72.676"/>
			</defs>
			<clipPath id="SVGID_10_">
				<use xlink:href="#SVGID_8_"  style="overflow:visible;"/>
			</clipPath>
		</g>
		<g>
			<defs>
				<path id="SVGID_11_" d="M88.9,72.676c0,0-4.534,1.396,2.906-0.872c7.441-2.267,5.406-2.731,5.406-2.731l-10.405-3.663
					C91.749,68.142,88.9,72.676,88.9,72.676"/>
			</defs>
			<defs>
				
					<rect id="SVGID_12_" x="83.307" y="63.196" transform="matrix(-0.9397 -0.3419 0.3419 -0.9397 154.1832 166.8232)" width="16.974" height="13.254"/>
			</defs>
			<clipPath id="SVGID_13_">
				<use xlink:href="#SVGID_11_"  style="overflow:visible;"/>
			</clipPath>
			<clipPath id="SVGID_14_" style="clip-path:url(#SVGID_13_);">
				<use xlink:href="#SVGID_12_"  style="overflow:visible;"/>
			</clipPath>
			
				<linearGradient id="SVGID_15_" gradientUnits="userSpaceOnUse" x1="-1434.4438" y1="1404.3955" x2="-1429.5055" y2="1404.3955" gradientTransform="matrix(-2.1664 -0.7885 0.7885 -2.1664 -4118.2754 1982.9375)">
				<stop  offset="0" style="stop-color:#FFFFFF"/>
				<stop  offset="0.9877" style="stop-color:#010202"/>
				<stop  offset="1" style="stop-color:#010202"/>
			</linearGradient>
			<polygon style="clip-path:url(#SVGID_14_);fill:url(#SVGID_15_);" points="99.655,85.523 75.704,76.804 83.959,54.073 
				107.91,62.794 			"/>
		</g>
	</g>
</g>
<g>
	<g>
		<g>
			<defs>
				<path id="SVGID_16_" d="M60.531,97.15c0,0-3.487-3.256,2.209,2.093c5.697,5.348,5.058,3.313,5.058,3.313l-2.034-10.871
					C65.88,97.324,60.531,97.15,60.531,97.15"/>
			</defs>
			<clipPath id="SVGID_17_">
				<use xlink:href="#SVGID_16_"  style="overflow:visible;"/>
			</clipPath>
		</g>
		<g>
			<defs>
				<path id="SVGID_18_" d="M60.531,97.15c0,0-3.487-3.256,2.209,2.093c5.697,5.348,5.058,3.313,5.058,3.313l-2.034-10.871
					C65.88,97.324,60.531,97.15,60.531,97.15"/>
			</defs>
			<defs>
				<polygon id="SVGID_20_" points="57.334,106.51 54.834,92.093 68.089,89.768 70.589,104.185 				"/>
			</defs>
			<clipPath id="SVGID_21_">
				<use xlink:href="#SVGID_18_"  style="overflow:visible;"/>
			</clipPath>
			<clipPath id="SVGID_22_" style="clip-path:url(#SVGID_21_);">
				<use xlink:href="#SVGID_20_"  style="overflow:visible;"/>
			</clipPath>
			
				<linearGradient id="SVGID_23_" gradientUnits="userSpaceOnUse" x1="-1483.7866" y1="1896.5205" x2="-1478.8489" y2="1896.5205" gradientTransform="matrix(-0.4004 -2.2704 2.2704 -0.4004 -4836.2969 -2505.9395)">
				<stop  offset="0" style="stop-color:#FFFFFF"/>
				<stop  offset="0.9877" style="stop-color:#010202"/>
				<stop  offset="1" style="stop-color:#010202"/>
			</linearGradient>
			<polygon style="clip-path:url(#SVGID_22_);fill:url(#SVGID_23_);" points="55.3,109.184 51.928,90.232 70.123,87.035 
				73.495,105.986 			"/>
		</g>
	</g>
</g>
<g>
	<g>
		<g>
			<defs>
				<path id="SVGID_24_" d="M24.257,87.616c-1.744,7.615-0.349,6.046-0.349,6.046l8.371-7.208c-4.825,2.964-7.325-1.744-7.325-1.744
					l0.291-1.396C25.245,83.256,25.013,84.187,24.257,87.616"/>
			</defs>
			<clipPath id="SVGID_25_">
				<use xlink:href="#SVGID_24_"  style="overflow:visible;"/>
			</clipPath>
		</g>
		<g>
			<defs>
				<path id="SVGID_26_" d="M24.257,87.616c-1.744,7.615-0.349,6.046-0.349,6.046l8.371-7.208c-4.825,2.964-7.325-1.744-7.325-1.744
					l0.291-1.396C25.245,83.256,25.013,84.187,24.257,87.616"/>
			</defs>
			<defs>
				<polygon id="SVGID_27_" points="16.583,88.197 28.21,78.432 38.15,90.29 26.523,100.057 				"/>
			</defs>
			<clipPath id="SVGID_28_">
				<use xlink:href="#SVGID_26_"  style="overflow:visible;"/>
			</clipPath>
			<clipPath id="SVGID_30_" style="clip-path:url(#SVGID_28_);">
				<use xlink:href="#SVGID_27_"  style="overflow:visible;"/>
			</clipPath>
			
				<linearGradient id="SVGID_31_" gradientUnits="userSpaceOnUse" x1="-1081.6899" y1="2186.9404" x2="-1076.7518" y2="2186.9404" gradientTransform="matrix(1.766 -1.4819 1.4819 1.766 -1307.6914 -5372.1831)">
				<stop  offset="0" style="stop-color:#FFFFFF"/>
				<stop  offset="0.9877" style="stop-color:#010202"/>
				<stop  offset="1" style="stop-color:#010202"/>
			</linearGradient>
			<polygon style="clip-path:url(#SVGID_30_);fill:url(#SVGID_31_);" points="5.944,87.325 29.256,67.793 48.789,91.104 
				25.535,110.637 			"/>
		</g>
	</g>
</g>
<g>
	<g>
		<g>
			<defs>
				<path id="SVGID_32_" d="M15.071,48.145c-7.44,2.267-5.406,2.731-5.406,2.731l10.406,3.663c-4.941-2.675-2.151-7.209-2.151-7.209
					l1.396-0.407C19.315,46.865,18.385,47.156,15.071,48.145"/>
			</defs>
			<clipPath id="SVGID_33_">
				<use xlink:href="#SVGID_32_"  style="overflow:visible;"/>
			</clipPath>
		</g>
		<g>
			<defs>
				<path id="SVGID_34_" d="M15.071,48.145c-7.44,2.267-5.406,2.731-5.406,2.731l10.406,3.663c-4.941-2.675-2.151-7.209-2.151-7.209
					l1.396-0.407C19.315,46.865,18.385,47.156,15.071,48.145"/>
			</defs>
			<defs>
				
					<rect id="SVGID_35_" x="6.643" y="45.003" transform="matrix(0.9397 0.342 -0.342 0.9397 18.1808 -1.6684)" width="14.359" height="11.452"/>
			</defs>
			<clipPath id="SVGID_36_">
				<use xlink:href="#SVGID_34_"  style="overflow:visible;"/>
			</clipPath>
			<clipPath id="SVGID_37_" style="clip-path:url(#SVGID_36_);">
				<use xlink:href="#SVGID_35_"  style="overflow:visible;"/>
			</clipPath>
			
				<linearGradient id="SVGID_38_" gradientUnits="userSpaceOnUse" x1="-630.4272" y1="1982.8613" x2="-625.4891" y2="1982.8613" gradientTransform="matrix(2.1663 0.7885 -0.7885 2.1663 2939.0889 -3749.0332)">
				<stop  offset="0" style="stop-color:#FFFFFF"/>
				<stop  offset="0.9877" style="stop-color:#010202"/>
				<stop  offset="1" style="stop-color:#010202"/>
			</linearGradient>
			<polygon style="clip-path:url(#SVGID_37_);fill:url(#SVGID_38_);" points="7.165,37.273 27.628,44.714 20.536,64.131 
				0.073,56.689 			"/>
		</g>
	</g>
</g>
<g>
	<g>
		<g>
			<defs>
				<path id="SVGID_40_" d="M39.196,17.333l2.035,10.871c-0.175-5.639,5.174-5.464,5.174-5.464s3.488,3.255-2.209-2.093
					c-3.256-3.023-4.418-3.663-4.884-3.663C39.08,16.985,39.196,17.333,39.196,17.333"/>
			</defs>
			<clipPath id="SVGID_41_">
				<use xlink:href="#SVGID_40_"  style="overflow:visible;"/>
			</clipPath>
		</g>
		<g>
			<defs>
				<path id="SVGID_42_" d="M39.196,17.333l2.035,10.871c-0.175-5.639,5.174-5.464,5.174-5.464s3.488,3.255-2.209-2.093
					c-3.256-3.023-4.418-3.663-4.884-3.663C39.08,16.985,39.196,17.333,39.196,17.333"/>
			</defs>
			<defs>
				
					<rect id="SVGID_43_" x="38.03" y="16.221" transform="matrix(0.1737 0.9848 -0.9848 0.1737 58.9937 -25.1963)" width="12.964" height="12.673"/>
			</defs>
			<clipPath id="SVGID_44_">
				<use xlink:href="#SVGID_42_"  style="overflow:visible;"/>
			</clipPath>
			<clipPath id="SVGID_45_" style="clip-path:url(#SVGID_44_);">
				<use xlink:href="#SVGID_43_"  style="overflow:visible;"/>
			</clipPath>
			
				<linearGradient id="SVGID_46_" gradientUnits="userSpaceOnUse" x1="-581.1191" y1="1489.0869" x2="-576.1813" y2="1489.0869" gradientTransform="matrix(0.4004 2.2706 -2.2706 0.4004 3657.1211 739.5566)">
				<stop  offset="0" style="stop-color:#FFFFFF"/>
				<stop  offset="0.9877" style="stop-color:#010202"/>
				<stop  offset="1" style="stop-color:#010202"/>
			</linearGradient>
			<polygon style="clip-path:url(#SVGID_45_);fill:url(#SVGID_46_);" points="51.463,12.625 54.428,29.6 37.627,32.564 
				34.604,15.59 			"/>
		</g>
	</g>
</g>
<g id="Brand">
	<g>
		<g>
			<g>
				<g>
					<defs>
						<path id="SVGID_47_" d="M83.959,24.717L66.52,40.063c-0.407,0.349-0.407,0.988,0,1.396l8.139,7.383
							c0.406,0.407,1.162,0.465,1.686,0.174l2.674-1.511c0.465-0.291,0.988-0.988,1.104-1.512l4.418-20.87
							c0.059-0.349,0-0.523-0.174-0.523C84.25,24.542,84.075,24.6,83.959,24.717"/>
					</defs>
					<clipPath id="SVGID_48_">
						<use xlink:href="#SVGID_47_"  style="overflow:visible;"/>
					</clipPath>
					
						<linearGradient id="SVGID_50_" gradientUnits="userSpaceOnUse" x1="-691.0552" y1="1877.293" x2="-686.1172" y2="1877.293" gradientTransform="matrix(2.7372 1.2763 -1.2763 2.7372 4356.752 -4222.4336)">
						<stop  offset="0" style="stop-color:#762A26"/>
						<stop  offset="1" style="stop-color:#B23E32"/>
					</linearGradient>
					<polygon style="clip-path:url(#SVGID_48_);fill:url(#SVGID_50_);" points="69.367,17.45 94.074,28.96 81.285,56.399 
						56.578,44.889 					"/>
				</g>
			</g>
			<g>
				<g>
					<defs>
						<path id="SVGID_51_" d="M38.499,15.764l4.534,22.788c0.116,0.582,0.64,0.872,1.163,0.698l10.464-3.372
							c0.523-0.174,0.988-0.755,0.988-1.337V31.46c0-0.581-0.349-1.337-0.756-1.744l-15.87-14.3
							c-0.175-0.117-0.291-0.233-0.407-0.233C38.499,15.241,38.441,15.416,38.499,15.764"/>
					</defs>
					<clipPath id="SVGID_52_">
						<use xlink:href="#SVGID_51_"  style="overflow:visible;"/>
					</clipPath>
					
						<linearGradient id="SVGID_53_" gradientUnits="userSpaceOnUse" x1="-1020.7349" y1="2061.9814" x2="-1015.7969" y2="2061.9814" gradientTransform="matrix(2.4738 -1.7322 1.7322 2.4738 -1007.5781 -6836.1758)">
						<stop  offset="0" style="stop-color:#762A26"/>
						<stop  offset="1" style="stop-color:#B23E32"/>
					</linearGradient>
					<polygon style="clip-path:url(#SVGID_52_);fill:url(#SVGID_53_);" points="27.047,23.205 50.01,7.103 67.042,31.46 
						44.08,47.505 					"/>
				</g>
			</g>
			<g>
				<g>
					<defs>
						<path id="SVGID_54_" d="M39.196,17.333l2.035,10.871c-0.175-5.639,5.174-5.464,5.174-5.464s3.488,3.255-2.209-2.093
							c-3.256-3.023-4.418-3.663-4.884-3.663C39.08,16.985,39.196,17.333,39.196,17.333"/>
					</defs>
					<clipPath id="SVGID_55_">
						<use xlink:href="#SVGID_54_"  style="overflow:visible;"/>
					</clipPath>
					
						<linearGradient id="SVGID_57_" gradientUnits="userSpaceOnUse" x1="-581.1201" y1="1489.0859" x2="-576.1828" y2="1489.0859" gradientTransform="matrix(0.4004 2.2706 -2.2706 0.4004 3657.1211 739.5547)">
						<stop  offset="0" style="stop-color:#C14F57"/>
						<stop  offset="0.9877" style="stop-color:#B23E32"/>
						<stop  offset="1" style="stop-color:#B23E32"/>
					</linearGradient>
					<polygon style="clip-path:url(#SVGID_55_);fill:url(#SVGID_57_);" points="49.66,15.125 51.87,27.855 39.43,30.065 
						37.162,17.333 					"/>
				</g>
			</g>
			<g>
				<g>
					<defs>
						<path id="SVGID_58_" d="M28.21,43.493L7.921,50.062c-0.522,0.175-0.522,0.465,0,0.64l21.975,7.44
							c0.523,0.175,1.104-0.116,1.221-0.697l2.325-10.755c0.116-0.581-0.174-1.221-0.697-1.511l-2.674-1.512
							c-0.291-0.175-0.814-0.291-1.222-0.291C28.675,43.377,28.442,43.436,28.21,43.493"/>
					</defs>
					<clipPath id="SVGID_59_">
						<use xlink:href="#SVGID_58_"  style="overflow:visible;"/>
					</clipPath>
					
						<linearGradient id="SVGID_60_" gradientUnits="userSpaceOnUse" x1="-1345.7358" y1="1868.4395" x2="-1340.7964" y2="1868.4395" gradientTransform="matrix(-0.2632 -3.0084 3.0084 -0.2632 -5954.0352 -3497.8184)">
						<stop  offset="0" style="stop-color:#212349"/>
						<stop  offset="0.4175" style="stop-color:#262F64"/>
						<stop  offset="1" style="stop-color:#2B3D8C"/>
					</linearGradient>
					<polygon style="clip-path:url(#SVGID_59_);fill:url(#SVGID_60_);" points="7.572,60.643 6.119,43.493 33.384,41.11 
						34.837,58.259 					"/>
				</g>
			</g>
			<g>
				<g>
					<defs>
						<path id="SVGID_61_" d="M15.071,48.145c-7.44,2.267-5.406,2.731-5.406,2.731l10.406,3.663
							c-4.941-2.675-2.151-7.209-2.151-7.209l1.396-0.407C19.315,46.865,18.385,47.156,15.071,48.145"/>
					</defs>
					<clipPath id="SVGID_62_">
						<use xlink:href="#SVGID_61_"  style="overflow:visible;"/>
					</clipPath>
					
						<linearGradient id="SVGID_63_" gradientUnits="userSpaceOnUse" x1="-630.4297" y1="1982.8662" x2="-625.491" y2="1982.8662" gradientTransform="matrix(2.1663 0.7885 -0.7885 2.1663 2939.084 -3749.0332)">
						<stop  offset="0" style="stop-color:#1B8FB4"/>
						<stop  offset="0.9877" style="stop-color:#2B3D8C"/>
						<stop  offset="1" style="stop-color:#2B3D8C"/>
					</linearGradient>
					<polygon style="clip-path:url(#SVGID_62_);fill:url(#SVGID_63_);" points="9.084,42.854 22.57,47.795 18.618,58.55 
						5.131,53.667 					"/>
				</g>
			</g>
			<g>
				<g>
					<defs>
						<path id="SVGID_64_" d="M30.535,70.816l-2.675,1.511c-0.465,0.291-0.988,0.988-1.104,1.512l-4.418,20.87
							c-0.116,0.522,0.116,0.697,0.582,0.349L40.359,79.71c0.407-0.349,0.407-0.988,0-1.395l-8.139-7.383
							c-0.232-0.233-0.64-0.35-0.988-0.35C31,70.642,30.709,70.699,30.535,70.816"/>
					</defs>
					<clipPath id="SVGID_65_">
						<use xlink:href="#SVGID_64_"  style="overflow:visible;"/>
					</clipPath>
					
						<linearGradient id="SVGID_66_" gradientUnits="userSpaceOnUse" x1="-1341.0439" y1="1490.9844" x2="-1336.1066" y2="1490.9844" gradientTransform="matrix(-2.7371 -1.2763 1.2763 -2.7371 -5535.9824 2455.3027)">
						<stop  offset="0" style="stop-color:#03434F"/>
						<stop  offset="1" style="stop-color:#045F88"/>
					</linearGradient>
					<polygon style="clip-path:url(#SVGID_65_);fill:url(#SVGID_66_);" points="37.453,102.557 12.746,90.988 25.535,63.549 
						50.3,75.06 					"/>
				</g>
			</g>
			<g>
				<g>
					<defs>
						<path id="SVGID_67_" d="M24.257,87.616c-1.744,7.615-0.349,6.046-0.349,6.046l8.371-7.208
							c-4.825,2.964-7.325-1.744-7.325-1.744l0.291-1.396C25.245,83.256,25.013,84.187,24.257,87.616"/>
					</defs>
					<clipPath id="SVGID_68_">
						<use xlink:href="#SVGID_67_"  style="overflow:visible;"/>
					</clipPath>
					
						<linearGradient id="SVGID_69_" gradientUnits="userSpaceOnUse" x1="-1081.6895" y1="2186.9453" x2="-1076.7506" y2="2186.9453" gradientTransform="matrix(1.766 -1.4819 1.4819 1.766 -1307.6914 -5372.1787)">
						<stop  offset="0" style="stop-color:#0778B8"/>
						<stop  offset="0.354" style="stop-color:#0F81B6"/>
						<stop  offset="0.9877" style="stop-color:#1B8FB4"/>
						<stop  offset="1" style="stop-color:#1B8FB4"/>
					</linearGradient>
					<polygon style="clip-path:url(#SVGID_68_);fill:url(#SVGID_69_);" points="16.583,88.197 28.21,78.432 38.15,90.29 
						26.523,100.057 					"/>
				</g>
			</g>
			<g>
				<g>
					<defs>
						<path id="SVGID_70_" d="M62.74,80.641l-10.464,3.371c-0.523,0.175-0.988,0.814-0.988,1.338v3.08
							c0,0.582,0.349,1.338,0.756,1.744l15.87,14.301c0.407,0.407,0.698,0.232,0.582-0.29l-4.535-22.788
							c-0.116-0.466-0.465-0.756-0.872-0.756C62.973,80.641,62.856,80.641,62.74,80.641"/>
					</defs>
					<clipPath id="SVGID_71_">
						<use xlink:href="#SVGID_70_"  style="overflow:visible;"/>
					</clipPath>
					
						<linearGradient id="SVGID_72_" gradientUnits="userSpaceOnUse" x1="-1011.3169" y1="1306.0039" x2="-1006.3788" y2="1306.0039" gradientTransform="matrix(-2.4741 1.7324 -1.7324 -2.4741 -171.5508 5070.1807)">
						<stop  offset="0" style="stop-color:#6CA041"/>
						<stop  offset="0.6201" style="stop-color:#568137"/>
						<stop  offset="1" style="stop-color:#486B32"/>
					</linearGradient>
					<polygon style="clip-path:url(#SVGID_71_);fill:url(#SVGID_72_);" points="80.006,96.859 56.985,112.962 39.952,88.604 
						62.915,72.502 					"/>
				</g>
			</g>
			<g>
				<g>
					<defs>
						<path id="SVGID_73_" d="M60.531,97.15c0,0-3.487-3.256,2.209,2.093c5.697,5.348,5.058,3.313,5.058,3.313l-2.034-10.871
							C65.88,97.324,60.531,97.15,60.531,97.15"/>
					</defs>
					<clipPath id="SVGID_74_">
						<use xlink:href="#SVGID_73_"  style="overflow:visible;"/>
					</clipPath>
					
						<linearGradient id="SVGID_75_" gradientUnits="userSpaceOnUse" x1="-1483.7822" y1="1896.5186" x2="-1478.8429" y2="1896.5186" gradientTransform="matrix(-0.4004 -2.2704 2.2704 -0.4004 -4836.2969 -2505.9395)">
						<stop  offset="0" style="stop-color:#699840"/>
						<stop  offset="0.5451" style="stop-color:#87AB3C"/>
						<stop  offset="0.9877" style="stop-color:#A1BC3A"/>
						<stop  offset="1" style="stop-color:#A1BC3A"/>
					</linearGradient>
					<polygon style="clip-path:url(#SVGID_74_);fill:url(#SVGID_75_);" points="57.334,106.51 54.834,92.093 68.089,89.768 
						70.589,104.185 					"/>
				</g>
			</g>
			<g>
				<g>
					<defs>
						<path id="SVGID_76_" d="M75.704,62.503l-2.325,10.755c-0.116,0.581,0.174,1.221,0.697,1.511l2.675,1.512
							c0.465,0.291,1.337,0.349,1.859,0.175l20.289-6.627c0.522-0.175,0.522-0.466,0-0.64l-21.975-7.441
							c-0.116-0.058-0.232-0.058-0.291-0.058C76.169,61.806,75.82,62.096,75.704,62.503"/>
					</defs>
					<clipPath id="SVGID_77_">
						<use xlink:href="#SVGID_76_"  style="overflow:visible;"/>
					</clipPath>
					
						<linearGradient id="SVGID_78_" gradientUnits="userSpaceOnUse" x1="-686.2705" y1="1498.6113" x2="-681.3317" y2="1498.6113" gradientTransform="matrix(0.2632 3.0085 -3.0085 0.2632 4774.8105 1731.2461)">
						<stop  offset="0" style="stop-color:#B2782A"/>
						<stop  offset="0.2069" style="stop-color:#B4812D"/>
						<stop  offset="0.5389" style="stop-color:#BD983B"/>
						<stop  offset="0.9524" style="stop-color:#CCBE4C"/>
						<stop  offset="1" style="stop-color:#CEC34F"/>
					</linearGradient>
					<polygon style="clip-path:url(#SVGID_77_);fill:url(#SVGID_78_);" points="99.248,59.538 100.76,76.571 73.495,78.954 
						71.983,61.922 					"/>
				</g>
			</g>
			<g>
				<g>
					<defs>
						<path id="SVGID_79_" d="M88.9,72.676c0,0-4.534,1.396,2.906-0.872c7.441-2.267,5.406-2.731,5.406-2.731l-10.405-3.663
							C91.749,68.142,88.9,72.676,88.9,72.676"/>
					</defs>
					<clipPath id="SVGID_80_">
						<use xlink:href="#SVGID_79_"  style="overflow:visible;"/>
					</clipPath>
					
						<linearGradient id="SVGID_81_" gradientUnits="userSpaceOnUse" x1="-1434.439" y1="1404.3926" x2="-1429.5021" y2="1404.3926" gradientTransform="matrix(-2.1664 -0.7885 0.7885 -2.1664 -4118.2783 1982.9375)">
						<stop  offset="0" style="stop-color:#D99728"/>
						<stop  offset="0.2301" style="stop-color:#D2872A"/>
						<stop  offset="0.6775" style="stop-color:#C05E2E"/>
						<stop  offset="0.9877" style="stop-color:#B23E32"/>
						<stop  offset="1" style="stop-color:#B23E32"/>
					</linearGradient>
					<polygon style="clip-path:url(#SVGID_80_);fill:url(#SVGID_81_);" points="97.504,78.896 81.575,73.083 86.052,60.701 
						102.038,66.514 					"/>
				</g>
			</g>
			<g>
				<g>
					<defs>
						<path id="SVGID_82_" d="M82.913,26.17l-8.372,7.208c4.825-2.965,7.325,1.744,7.325,1.744s-1.046,4.651,0.697-2.965
							c1.279-5.407,0.872-6.162,0.582-6.162C83.087,26.054,82.913,26.17,82.913,26.17"/>
					</defs>
					<clipPath id="SVGID_83_">
						<use xlink:href="#SVGID_82_"  style="overflow:visible;"/>
					</clipPath>
					
						<linearGradient id="SVGID_84_" gradientUnits="userSpaceOnUse" x1="-983.0352" y1="1200.7754" x2="-978.0981" y2="1200.7754" gradientTransform="matrix(-1.766 1.4819 -1.4819 -1.766 128.3906 3605.4482)">
						<stop  offset="0" style="stop-color:#C14F57"/>
						<stop  offset="0.9877" style="stop-color:#B23E32"/>
						<stop  offset="1" style="stop-color:#B23E32"/>
					</linearGradient>
					<polygon style="clip-path:url(#SVGID_83_);fill:url(#SVGID_84_);" points="90.645,34.134 78.378,44.365 67.798,31.75 
						80.006,21.461 					"/>
				</g>
			</g>
			<g>
				<g>
					<g>
						<path style="fill:#FFFFFF;" d="M137.15,29.425h-2.384c-1.976,0-2.848,1.279-2.848,3.023v3.721h4.999v6.743h-4.999v27.729
							h-8.371V42.912h-3.779v-6.743h3.779v-3.43c0-8.371,3.487-10.58,9.592-10.58c1.221,0,2.558,0.174,3.953,0.407v6.86H137.15z"/>
						<path style="fill:#FFFFFF;" d="M136.104,47.621c0-9.534,4.883-13.662,13.254-13.662s13.254,4.127,13.254,13.662v10.057
							c0,9.534-4.883,13.661-13.254,13.661s-13.254-4.127-13.254-13.661V47.621z M144.417,59.829c0,2.79,1.977,4.243,4.884,4.243
							c2.906,0,4.883-1.453,4.883-4.243V45.528c0-2.791-1.977-4.244-4.883-4.244c-2.907,0-4.884,1.453-4.884,4.244V59.829z"/>
						<path style="fill:#FFFFFF;" d="M182.436,47.098v-1.569c0-2.791-1.976-4.244-4.883-4.244c-2.906,0-4.883,1.453-4.883,4.244
							v14.301c0,2.79,1.977,4.243,4.883,4.243c2.907,0,4.883-1.453,4.883-4.243v-2.268h8.372v0.116
							c0,9.534-4.884,13.661-13.255,13.661s-13.254-4.127-13.254-13.661V47.621c0-9.534,4.883-13.661,13.254-13.661
							c8.139,0,13.08,3.953,13.196,13.138H182.436z"/>
						<path style="fill:#FFFFFF;" d="M218.304,34.599v36.042h-8.08v-4.128c-3.023,2.675-5.871,4.768-9.359,4.768
							c-5.116,0-7.731-2.559-7.731-9.302V34.541h8.371V61.05c0,2.383,0.813,3.953,3.022,3.953c1.744,0,3.662-1.687,5.406-3.256
							V34.483h8.371V34.599z"/>
						<path style="fill:#FFFFFF;" d="M237.255,45.645c-1.104-3.313-3.255-4.883-5.755-4.883c-1.918,0-3.372,1.395-3.372,3.255
							c0,5.581,16.336,5.697,16.336,16.452c0,7.149-5.058,10.929-11.976,10.929c-5.058,0-9.534-1.279-13.603-10.29l7.499-2.034
							c0.756,3.371,2.79,5.581,6.104,5.581c2.5,0,4.069-1.222,4.069-3.198c0-6.917-16.335-5.231-16.335-17.381
							c0-6.802,5.522-10.058,11.394-10.058c6.221,0,10.522,3.604,12.615,9.011L237.255,45.645z"/>
					</g>
					<g>
						<path style="fill:#FFFFFF;" d="M252.369,36.227v4.651h0.117c2.731-3.023,6.278-5.291,10.23-5.291
							c5.116,0,9.941,2.674,9.941,10.057v25.055h-4.768V45.761c0-4.593-2.209-6.104-5.639-6.104c-3.604,0-7.674,2.907-9.883,5.232
							v25.811h-4.767V36.227H252.369z"/>
						<path style="fill:#FFFFFF;" d="M304.515,63.316c-2.268,3.896-5.465,8.022-13.254,8.022c-7.674,0-14.999-5.29-14.999-17.904
							c0-11.162,5.581-17.905,14.068-17.905c7.15,0,13.139,4.65,13.139,15.638v3.197h-22.382c0,7.558,4.534,12.848,10.231,12.848
							c4.244,0,7.558-2.268,9.534-5.813L304.515,63.316z M298.701,50.295c0-6.336-3.022-10.58-8.196-10.58
							c-5.755,0-8.895,4.244-9.302,10.58H298.701z"/>
						<path style="fill:#FFFFFF;" d="M308.643,36.227V24.891h4.767v11.335h7.964v4.128h-7.964v24.532
							c0,1.569,1.104,2.383,3.895,2.383c1.57,0,2.965-0.116,4.244-0.349v3.896c-0.872,0.29-2.79,0.522-5.581,0.522
							c-5.174,0-7.383-1.337-7.383-5.696V40.296h-5.639v-4.127h5.697V36.227z"/>
						<path style="fill:#FFFFFF;" d="M320.036,36.227h4.825l6.976,26.509h0.116l6.744-26.509h4.824l6.918,26.625h0.116l6.686-26.625
							h4.825l-9.243,34.473h-4.825l-6.918-26.624h-0.116l-6.802,26.624h-4.824L320.036,36.227z"/>
						<path style="fill:#FFFFFF;" d="M374.855,71.339c-9.418,0-14.126-7.964-14.126-17.904c0-9.941,4.708-17.905,14.126-17.905
							s14.126,7.964,14.126,17.905C388.981,63.375,384.273,71.339,374.855,71.339z M374.855,39.656
							c-5.697,0-9.359,4.884-9.359,13.778c0,8.894,3.662,13.777,9.359,13.777s9.359-4.884,9.359-13.777
							C384.215,44.54,380.553,39.656,374.855,39.656z"/>
						<path style="fill:#FFFFFF;" d="M391.19,36.227h4.768v6.802h0.116c2.674-4.709,5.522-7.383,11.22-7.383v4.767
							c-5.988,0.116-9.069,4.069-11.336,11.162v19.067h-4.768V36.227z"/>
						<path style="fill:#FFFFFF;" d="M409.212,22.798h4.767v30.81h0.116l13.895-17.439h5.755l-10.173,12.73l11.452,21.742h-5.64
							l-9.127-17.614l-6.336,7.267v10.348h-4.767V22.798H409.212z"/>
						<path style="fill:#FFFFFF;" d="M437.232,61.922c2.267,3.255,5.58,5.29,9.882,5.29c5.174,0,7.441-2.791,7.441-5.697
							c0-8.778-20.404-4.128-19.998-16.685c0.175-5.987,4.768-9.359,11.395-9.301c4.534,0.058,9.476,2.5,11.801,6.046l-3.313,2.906
							c-2.674-3.255-5.174-4.825-8.895-4.825c-4.069,0-6.22,2.035-6.22,5.116c0,7.499,19.997,3.662,19.997,16.51
							c0,6.686-5.813,10.057-12.092,10.057c-5.348,0-10.58-2.325-13.777-6.568L437.232,61.922z"/>
					</g>
				</g>
			</g>
			<g>
				<g>
					<defs>
						<path id="SVGID_85_" d="M31.64,71.165l17.614,48.191c0.174,0.523,0.697,0.698,1.162,0.291l17.905-14.708
							c0.465-0.349,0.465-0.988,0.058-1.337l-36.333-32.67c-0.174-0.116-0.29-0.233-0.349-0.233
							C31.523,70.642,31.523,70.816,31.64,71.165"/>
					</defs>
					<clipPath id="SVGID_86_">
						<use xlink:href="#SVGID_85_"  style="overflow:visible;"/>
					</clipPath>
					
						<linearGradient id="SVGID_87_" gradientUnits="userSpaceOnUse" x1="-1104.1577" y1="1562.8301" x2="-1099.2213" y2="1562.8301" gradientTransform="matrix(-7.5198 0 0 -7.5198 -8234.4062 11847.5312)">
						<stop  offset="0" style="stop-color:#6CA041"/>
						<stop  offset="1" style="stop-color:#026278"/>
					</linearGradient>
					<rect x="31.523" y="70.642" style="clip-path:url(#SVGID_86_);fill:url(#SVGID_87_);" width="37.263" height="49.354"/>
				</g>
			</g>
			<g>
				<g>
					<defs>
						<path id="SVGID_88_" d="M98.376,69.072L51.87,84.187c-0.523,0.175-0.523,0.407,0.058,0.523l50.518,8.777
							c0.581,0.116,0.93-0.29,0.872-0.813L99.539,69.77c-0.059-0.465-0.407-0.756-0.872-0.756
							C98.551,69.072,98.492,69.072,98.376,69.072"/>
					</defs>
					<clipPath id="SVGID_89_">
						<use xlink:href="#SVGID_88_"  style="overflow:visible;"/>
					</clipPath>
					
						<linearGradient id="SVGID_90_" gradientUnits="userSpaceOnUse" x1="-952.7202" y1="1551.9551" x2="-947.7824" y2="1551.9551" gradientTransform="matrix(-3.76 6.5123 -6.5123 -3.76 6612.6641 12102.6094)">
						<stop  offset="0" style="stop-color:#D4CF2A"/>
						<stop  offset="1" style="stop-color:#A1BC3A"/>
					</linearGradient>
					<polygon style="clip-path:url(#SVGID_89_);fill:url(#SVGID_90_);" points="114.014,75.176 90.354,116.159 40.708,87.5 
						64.368,46.517 					"/>
				</g>
			</g>
			<g>
				<g>
					<defs>
						<path id="SVGID_91_" d="M83.494,25.124L73.379,72.908c-0.116,0.582,0.058,0.64,0.465,0.233l32.903-39.356
							c0.349-0.465,0.232-0.93-0.291-1.163l-21.684-8.139c-0.116-0.058-0.232-0.058-0.349-0.058
							C83.959,24.426,83.61,24.717,83.494,25.124"/>
					</defs>
					<clipPath id="SVGID_92_">
						<use xlink:href="#SVGID_91_"  style="overflow:visible;"/>
					</clipPath>
					
						<linearGradient id="SVGID_93_" gradientUnits="userSpaceOnUse" x1="-867.2603" y1="1676.6309" x2="-862.3214" y2="1676.6309" gradientTransform="matrix(3.7599 6.5122 -6.5122 3.7599 14257.418 -628.2422)">
						<stop  offset="0" style="stop-color:#C95C32"/>
						<stop  offset="0.1583" style="stop-color:#CE6A2B"/>
						<stop  offset="0.4559" style="stop-color:#DA8D21"/>
						<stop  offset="0.8579" style="stop-color:#EEC711"/>
						<stop  offset="1" style="stop-color:#F5DD09"/>
					</linearGradient>
					<polygon style="clip-path:url(#SVGID_92_);fill:url(#SVGID_93_);" points="98.608,9.776 128.372,61.282 81.691,88.256 
						51.986,36.75 					"/>
				</g>
			</g>
			<g>
				<g>
					<defs>
						<path id="SVGID_94_" d="M56.578,0.243L38.674,14.95c-0.466,0.349-0.466,0.988-0.059,1.337l36.333,32.671
							c0.407,0.407,0.581,0.232,0.407-0.291L57.683,0.475c-0.116-0.349-0.349-0.523-0.639-0.523
							C56.927,0.068,56.753,0.126,56.578,0.243"/>
					</defs>
					<clipPath id="SVGID_95_">
						<use xlink:href="#SVGID_94_"  style="overflow:visible;"/>
					</clipPath>
					
						<linearGradient id="SVGID_96_" gradientUnits="userSpaceOnUse" x1="-933.1104" y1="1813.7363" x2="-928.1729" y2="1813.7363" gradientTransform="matrix(7.5198 0 0 7.5198 7055.1328 -13614.25)">
						<stop  offset="0" style="stop-color:#BF2127"/>
						<stop  offset="0.2182" style="stop-color:#C02627"/>
						<stop  offset="0.445" style="stop-color:#C1322A"/>
						<stop  offset="0.6759" style="stop-color:#C2462E"/>
						<stop  offset="0.9081" style="stop-color:#C26335"/>
						<stop  offset="1" style="stop-color:#C37038"/>
					</linearGradient>
					<rect x="38.208" y="0.068" style="clip-path:url(#SVGID_95_);fill:url(#SVGID_96_);" width="37.38" height="49.354"/>
				</g>
			</g>
			<g>
				<g>
					<defs>
						<path id="SVGID_97_" d="M3.562,27.333L7.34,50.237c0.116,0.581,0.64,0.872,1.163,0.697L55.009,35.82
							c0.523-0.174,0.523-0.407-0.058-0.523L4.434,26.519c-0.059,0-0.116,0-0.175,0C3.735,26.46,3.445,26.81,3.562,27.333"/>
					</defs>
					<clipPath id="SVGID_98_">
						<use xlink:href="#SVGID_97_"  style="overflow:visible;"/>
					</clipPath>
					
						<linearGradient id="SVGID_99_" gradientUnits="userSpaceOnUse" x1="-959.5283" y1="1780.2715" x2="-954.5923" y2="1780.2715" gradientTransform="matrix(10.4959 0 0 10.4959 10074.6953 -18646.8672)">
						<stop  offset="0" style="stop-color:#353680"/>
						<stop  offset="0.5399" style="stop-color:#5C398A"/>
						<stop  offset="1" style="stop-color:#B12157"/>
					</linearGradient>
					<rect x="3.445" y="26.46" style="clip-path:url(#SVGID_98_);fill:url(#SVGID_99_);" width="52.028" height="24.59"/>
				</g>
			</g>
			<g>
				<g>
					<defs>
						<path id="SVGID_100_" d="M33.034,46.633L0.132,85.988c-0.35,0.407-0.233,0.931,0.29,1.163l21.684,8.139
							c0.523,0.174,1.047-0.116,1.163-0.64l10.173-47.785C33.5,46.517,33.5,46.4,33.384,46.4
							C33.325,46.342,33.209,46.458,33.034,46.633"/>
					</defs>
					<clipPath id="SVGID_101_">
						<use xlink:href="#SVGID_100_"  style="overflow:visible;"/>
					</clipPath>
					
						<linearGradient id="SVGID_102_" gradientUnits="userSpaceOnUse" x1="-1169.9922" y1="1699.332" x2="-1165.0543" y2="1699.332" gradientTransform="matrix(-3.76 -6.5123 6.5123 -3.76 -15437.0566 -1137.9141)">
						<stop  offset="0" style="stop-color:#026278"/>
						<stop  offset="1" style="stop-color:#2B3D8C"/>
					</linearGradient>
					<polygon style="clip-path:url(#SVGID_101_);fill:url(#SVGID_102_);" points="8.212,110.172 -21.494,58.666 25.129,31.75 
						54.834,83.256 					"/>
				</g>
			</g>
		</g>
		<g>
			<path style="fill:#FFFFFF;" d="M123.141,90.93c0-2.15,0.465-3.837,1.396-4.999c0.93-1.163,2.209-1.744,3.952-1.744
				c0.931,0,1.687,0.175,2.384,0.465c0.697,0.349,1.221,0.756,1.686,1.396c0.466,0.581,0.756,1.278,0.988,2.093
				c0.233,0.813,0.291,1.744,0.291,2.79c0,2.151-0.465,3.837-1.396,5c-0.93,1.162-2.267,1.743-3.953,1.743
				c-0.93,0-1.686-0.174-2.325-0.465c-0.639-0.349-1.221-0.756-1.627-1.395c-0.466-0.582-0.756-1.279-0.988-2.093
				C123.257,92.906,123.141,91.977,123.141,90.93z M124.769,90.93c0,0.698,0.058,1.396,0.232,2.035
				c0.116,0.639,0.349,1.221,0.64,1.686c0.29,0.465,0.697,0.872,1.162,1.163c0.465,0.29,0.988,0.465,1.628,0.465
				c1.163,0,2.034-0.465,2.732-1.337c0.64-0.872,0.988-2.209,0.988-4.069c0-0.698-0.059-1.396-0.232-2.035
				c-0.116-0.64-0.35-1.221-0.698-1.686c-0.29-0.465-0.697-0.872-1.162-1.163c-0.465-0.29-1.047-0.465-1.687-0.465
				c-1.162,0-2.034,0.465-2.674,1.337C125.117,87.791,124.769,89.128,124.769,90.93z"/>
			<path style="fill:#FFFFFF;" d="M145.231,88.953l-0.988-1.86h-0.059l0.175,1.86v8.546h-1.454V84.244h0.814l6.22,8.662l0.988,1.803
				h0.116l-0.232-1.803v-8.487h1.453v13.254h-0.813L145.231,88.953z"/>
			<path style="fill:#FFFFFF;" d="M169.589,97.44h-7.674V84.419h1.569v11.627h6.162v1.395H169.589z"/>
			<path style="fill:#FFFFFF;" d="M178.309,84.419h1.569V97.44h-1.569V84.419z"/>
			<path style="fill:#FFFFFF;" d="M189.877,84.419h7.092v1.396h-5.522v4.418h5.174v1.396h-5.174v5.812h-1.569V84.419z"/>
			<path style="fill:#FFFFFF;" d="M205.979,84.419h7.093v1.396h-5.522v4.243h5.058v1.396h-5.058v4.65h5.639v1.396h-7.209V84.419z"/>
			<path style="fill:#FFFFFF;" d="M241.673,87.441c0,0.291-0.058,0.64-0.174,0.931c-0.116,0.349-0.232,0.64-0.466,0.93
				c-0.174,0.291-0.465,0.523-0.755,0.756c-0.291,0.232-0.698,0.349-1.104,0.466v0.058c0.349,0.059,0.755,0.175,1.046,0.291
				c0.349,0.174,0.64,0.349,0.931,0.639c0.232,0.233,0.465,0.582,0.639,0.931c0.175,0.349,0.232,0.813,0.232,1.337
				c0,0.697-0.116,1.221-0.406,1.744c-0.291,0.465-0.64,0.872-1.104,1.221c-0.466,0.291-0.988,0.523-1.57,0.697
				c-0.581,0.175-1.162,0.232-1.802,0.232c-0.232,0-0.465,0-0.756,0c-0.29,0-0.581,0-0.871,0c-0.291,0-0.64-0.058-0.931-0.058
				c-0.291-0.059-0.581-0.059-0.813-0.116V84.71c0.465-0.059,0.988-0.116,1.627-0.175c0.582-0.058,1.279-0.058,1.977-0.058
				c0.466,0,0.988,0.058,1.453,0.116c0.523,0.058,0.931,0.232,1.396,0.465c0.407,0.232,0.756,0.523,0.988,0.93
				C241.557,86.221,241.673,86.744,241.673,87.441z M236.325,90.174c0.232,0,0.465,0,0.756,0c0.29,0,0.523-0.058,0.756-0.058
				c0.29-0.116,0.581-0.232,0.813-0.349s0.465-0.291,0.697-0.523c0.232-0.175,0.349-0.407,0.465-0.697
				c0.116-0.233,0.175-0.523,0.175-0.814c0-0.407-0.059-0.756-0.232-0.988c-0.175-0.291-0.349-0.465-0.64-0.64
				c-0.232-0.174-0.581-0.29-0.872-0.349c-0.349-0.058-0.697-0.116-1.046-0.116c-0.407,0-0.756,0-1.104,0s-0.581,0.059-0.756,0.059
				v4.418h0.988V90.174z M237.371,96.278c0.407,0,0.756-0.059,1.163-0.116c0.349-0.116,0.697-0.232,0.988-0.465
				c0.29-0.233,0.523-0.466,0.697-0.756c0.175-0.291,0.232-0.64,0.232-1.047c0-0.523-0.116-0.93-0.29-1.221
				c-0.233-0.291-0.466-0.523-0.814-0.697c-0.349-0.175-0.697-0.291-1.104-0.349c-0.406-0.059-0.813-0.117-1.221-0.117h-1.627v4.651
				c0.058,0,0.232,0.058,0.349,0.058c0.174,0,0.349,0,0.522,0.059c0.175,0,0.407,0,0.582,0
				C237.081,96.278,237.197,96.278,237.371,96.278z"/>
			<path style="fill:#FFFFFF;" d="M258.648,84.419h1.511v8.662c0,0.756-0.116,1.453-0.29,2.034
				c-0.233,0.582-0.523,1.047-0.872,1.396c-0.407,0.349-0.814,0.64-1.396,0.813c-0.523,0.175-1.104,0.232-1.744,0.232
				c-1.512,0-2.674-0.349-3.488-1.046c-0.755-0.697-1.162-1.744-1.162-3.14v-9.01h1.569v8.254c0,0.64,0.059,1.222,0.175,1.687
				s0.349,0.813,0.581,1.104s0.581,0.465,0.988,0.581s0.872,0.175,1.396,0.175c0.988,0,1.744-0.291,2.15-0.814
				c0.407-0.522,0.64-1.453,0.64-2.732v-8.196H258.648z"/>
			<path style="fill:#FFFFFF;" d="M275.681,94.127c0-0.523-0.174-0.93-0.465-1.278c-0.291-0.35-0.697-0.64-1.163-0.872
				c-0.465-0.232-0.988-0.466-1.511-0.698c-0.523-0.232-1.047-0.465-1.512-0.813c-0.465-0.291-0.872-0.697-1.163-1.163
				c-0.29-0.465-0.465-1.046-0.465-1.802c0-0.988,0.349-1.802,1.047-2.441c0.697-0.581,1.686-0.872,3.022-0.872
				c0.756,0,1.453,0.058,2.093,0.175c0.64,0.116,1.104,0.232,1.453,0.406l-0.465,1.396c-0.29-0.116-0.697-0.291-1.278-0.407
				c-0.523-0.116-1.163-0.174-1.86-0.174c-0.814,0-1.454,0.174-1.86,0.522c-0.407,0.349-0.64,0.814-0.64,1.279
				s0.174,0.872,0.465,1.221s0.697,0.64,1.163,0.872c0.465,0.232,0.988,0.523,1.511,0.756c0.523,0.232,1.047,0.523,1.512,0.872
				s0.872,0.697,1.163,1.162c0.29,0.466,0.465,1.047,0.465,1.687c0,0.581-0.116,1.046-0.291,1.511
				c-0.174,0.466-0.465,0.814-0.872,1.163c-0.406,0.349-0.872,0.581-1.395,0.756c-0.523,0.174-1.163,0.232-1.86,0.232
				c-0.931,0-1.687-0.059-2.325-0.232c-0.582-0.116-1.104-0.291-1.396-0.465l0.523-1.396c0.29,0.174,0.697,0.29,1.278,0.465
				c0.582,0.175,1.163,0.232,1.86,0.232c0.407,0,0.814-0.058,1.163-0.116c0.349-0.058,0.697-0.232,0.93-0.407
				c0.232-0.174,0.465-0.406,0.64-0.697C275.564,94.825,275.681,94.534,275.681,94.127z"/>
			<path style="fill:#FFFFFF;" d="M286.493,84.419h1.57V97.44h-1.57V84.419z"/>
			<path style="fill:#FFFFFF;" d="M300.388,88.953l-0.988-1.86h-0.059l0.175,1.86v8.546h-1.453V84.244h0.813l6.22,8.662l0.988,1.803
				h0.116l-0.232-1.803v-8.487h1.454v13.254h-0.814L300.388,88.953z"/>
			<path style="fill:#FFFFFF;" d="M317.014,84.419h7.092v1.396h-5.522v4.243h5.058v1.396h-5.058v4.65h5.639v1.396h-7.208V84.419z"/>
			<path style="fill:#FFFFFF;" d="M339.336,94.127c0-0.523-0.174-0.93-0.465-1.278c-0.29-0.35-0.697-0.64-1.162-0.872
				c-0.466-0.232-0.988-0.466-1.512-0.698s-1.047-0.465-1.512-0.813c-0.465-0.291-0.872-0.697-1.162-1.163
				c-0.291-0.465-0.466-1.046-0.466-1.802c0-0.988,0.35-1.802,1.047-2.441c0.697-0.581,1.686-0.872,3.022-0.872
				c0.756,0,1.454,0.058,2.093,0.175c0.64,0.116,1.104,0.232,1.454,0.406l-0.466,1.396c-0.29-0.116-0.697-0.291-1.278-0.407
				c-0.523-0.116-1.163-0.174-1.86-0.174c-0.814,0-1.453,0.174-1.86,0.522s-0.64,0.814-0.64,1.279s0.175,0.872,0.465,1.221
				c0.291,0.349,0.698,0.64,1.163,0.872s0.988,0.523,1.512,0.756c0.522,0.232,1.046,0.523,1.511,0.872
				c0.466,0.349,0.872,0.697,1.163,1.162c0.291,0.466,0.465,1.047,0.465,1.687c0,0.581-0.116,1.046-0.291,1.511
				c-0.174,0.466-0.465,0.814-0.871,1.163c-0.407,0.349-0.872,0.581-1.396,0.756c-0.523,0.174-1.163,0.232-1.86,0.232
				c-0.93,0-1.686-0.059-2.325-0.232c-0.581-0.116-1.104-0.291-1.396-0.465l0.523-1.396c0.291,0.174,0.697,0.29,1.279,0.465
				c0.581,0.175,1.162,0.232,1.859,0.232c0.407,0,0.814-0.058,1.163-0.116c0.349-0.058,0.697-0.232,0.93-0.407
				c0.233-0.174,0.466-0.406,0.64-0.697C339.278,94.825,339.336,94.534,339.336,94.127z"/>
			<path style="fill:#FFFFFF;" d="M355.672,94.127c0-0.523-0.175-0.93-0.465-1.278c-0.291-0.35-0.698-0.64-1.163-0.872
				s-0.988-0.466-1.512-0.698c-0.522-0.232-1.046-0.465-1.511-0.813c-0.466-0.291-0.872-0.697-1.163-1.163
				c-0.291-0.465-0.465-1.046-0.465-1.802c0-0.988,0.349-1.802,1.046-2.441c0.698-0.581,1.687-0.872,3.023-0.872
				c0.756,0,1.453,0.058,2.093,0.175c0.64,0.116,1.104,0.232,1.453,0.406l-0.465,1.396c-0.291-0.116-0.698-0.291-1.279-0.407
				s-1.162-0.174-1.86-0.174c-0.813,0-1.453,0.174-1.86,0.522c-0.406,0.349-0.64,0.814-0.64,1.279s0.175,0.872,0.466,1.221
				c0.29,0.349,0.697,0.64,1.162,0.872s0.988,0.523,1.512,0.756s1.046,0.523,1.512,0.872c0.465,0.349,0.872,0.697,1.162,1.162
				c0.291,0.466,0.465,1.047,0.465,1.687c0,0.581-0.116,1.046-0.29,1.511c-0.175,0.466-0.465,0.814-0.872,1.163
				s-0.872,0.581-1.396,0.756c-0.523,0.174-1.162,0.232-1.86,0.232c-0.93,0-1.686-0.059-2.325-0.232
				c-0.581-0.116-1.104-0.291-1.395-0.465l0.522-1.396c0.291,0.174,0.698,0.29,1.279,0.465s1.162,0.232,1.86,0.232
				c0.406,0,0.813-0.058,1.162-0.116c0.35-0.058,0.698-0.232,0.931-0.407c0.232-0.174,0.465-0.406,0.64-0.697
				C355.613,94.825,355.672,94.534,355.672,94.127z"/>
			<path style="fill:#FFFFFF;" d="M382.006,90.988h4.36v5.755c-0.175,0.175-0.466,0.291-0.698,0.407
				c-0.29,0.116-0.581,0.232-0.872,0.29c-0.29,0.116-0.64,0.175-0.988,0.175c-0.349,0.058-0.697,0.058-0.988,0.058
				c-0.813,0-1.569-0.116-2.267-0.406c-0.698-0.291-1.279-0.698-1.803-1.221c-0.522-0.523-0.93-1.279-1.162-2.093
				c-0.291-0.872-0.407-1.86-0.407-3.023c0-1.221,0.175-2.209,0.523-3.081s0.813-1.569,1.337-2.093
				c0.581-0.523,1.163-0.93,1.86-1.162s1.396-0.35,2.093-0.35c0.756,0,1.337,0.059,1.86,0.117c0.465,0.058,0.872,0.174,1.221,0.349
				l-0.407,1.395c-0.581-0.29-1.453-0.465-2.558-0.465c-0.523,0-1.047,0.116-1.569,0.291c-0.523,0.174-0.988,0.465-1.396,0.93
				c-0.407,0.407-0.756,0.988-0.988,1.628c-0.232,0.697-0.407,1.512-0.407,2.558c0,0.931,0.116,1.687,0.291,2.384
				c0.232,0.697,0.523,1.221,0.872,1.686s0.813,0.756,1.337,0.988s1.104,0.349,1.744,0.349c0.813,0,1.453-0.174,2.034-0.465v-3.604
				l-3.022-0.349V90.988L382.006,90.988z"/>
			<path style="fill:#FFFFFF;" d="M395.435,84.594c0.465-0.059,0.988-0.175,1.628-0.232c0.639-0.059,1.162-0.059,1.686-0.059
				c0.581,0,1.104,0.059,1.628,0.175s0.988,0.349,1.337,0.639c0.407,0.291,0.697,0.64,0.93,1.104c0.233,0.466,0.35,1.047,0.35,1.687
				c0,1.046-0.291,1.86-0.814,2.499c-0.581,0.64-1.278,1.047-2.093,1.279l0.872,0.697l3.256,5.174h-1.803l-3.604-5.639l-1.803-0.291
				v5.872h-1.569V84.594L395.435,84.594z M398.807,85.64c-0.175,0-0.35,0-0.523,0c-0.175,0-0.349,0-0.523,0s-0.291,0-0.465,0.059
				c-0.116,0-0.232,0.058-0.349,0.058v4.825h1.453c0.872,0,1.569-0.232,2.093-0.64c0.581-0.406,0.813-1.104,0.813-1.977
				c0-0.697-0.232-1.221-0.697-1.627C400.26,85.872,399.62,85.64,398.807,85.64z"/>
			<path style="fill:#FFFFFF;" d="M411.653,90.93c0-2.15,0.465-3.837,1.396-4.999c0.93-1.163,2.209-1.744,3.953-1.744
				c0.93,0,1.686,0.175,2.383,0.465c0.698,0.349,1.222,0.756,1.687,1.396c0.465,0.581,0.756,1.278,0.988,2.093
				c0.232,0.813,0.29,1.744,0.29,2.79c0,2.151-0.465,3.837-1.395,5c-0.931,1.162-2.268,1.743-3.953,1.743
				c-0.931,0-1.686-0.174-2.325-0.465c-0.64-0.349-1.221-0.756-1.628-1.395c-0.465-0.582-0.756-1.279-0.988-2.093
				C411.828,92.906,411.653,91.977,411.653,90.93z M413.281,90.93c0,0.698,0.059,1.396,0.232,2.035
				c0.116,0.639,0.349,1.221,0.64,1.686s0.697,0.872,1.163,1.163c0.465,0.29,0.988,0.465,1.627,0.465
				c1.163,0,2.035-0.465,2.732-1.337c0.64-0.872,0.988-2.209,0.988-4.069c0-0.698-0.058-1.396-0.232-2.035
				c-0.116-0.64-0.349-1.221-0.697-1.686c-0.291-0.465-0.698-0.872-1.163-1.163c-0.465-0.29-1.046-0.465-1.686-0.465
				c-1.163,0-2.035,0.465-2.675,1.337C413.63,87.791,413.281,89.128,413.281,90.93z"/>
			<path style="fill:#FFFFFF;" d="M438.859,84.419h1.512v8.662c0,0.756-0.116,1.453-0.291,2.034
				c-0.232,0.582-0.522,1.047-0.871,1.396c-0.407,0.349-0.814,0.64-1.396,0.813c-0.523,0.175-1.104,0.232-1.744,0.232
				c-1.512,0-2.674-0.349-3.488-1.046c-0.756-0.697-1.162-1.744-1.162-3.14v-9.01h1.569v8.254c0,0.64,0.059,1.222,0.175,1.687
				s0.349,0.813,0.581,1.104s0.581,0.465,0.988,0.581s0.872,0.175,1.396,0.175c0.988,0,1.743-0.291,2.15-0.814
				c0.407-0.522,0.64-1.453,0.64-2.732v-8.196H438.859z"/>
			<path style="fill:#FFFFFF;" d="M449.963,84.594c0.465-0.116,0.988-0.175,1.512-0.232c0.523-0.059,1.104-0.059,1.628-0.059
				c0.581,0,1.162,0.059,1.744,0.175c0.581,0.116,1.104,0.29,1.627,0.639c0.466,0.291,0.872,0.698,1.163,1.221
				c0.291,0.523,0.465,1.163,0.465,1.977c0,0.814-0.116,1.454-0.407,2.035c-0.29,0.523-0.639,0.988-1.162,1.337
				c-0.465,0.349-0.988,0.581-1.628,0.756c-0.581,0.174-1.221,0.232-1.86,0.232c-0.058,0-0.174,0-0.29,0c-0.117,0-0.291,0-0.466,0
				c-0.174,0-0.29,0-0.465,0s-0.232,0-0.291-0.059v4.941h-1.569V84.594z M453.16,85.64c-0.349,0-0.639,0-0.93,0
				s-0.523,0.059-0.697,0.116v5.406c0.058,0,0.174,0.059,0.29,0.059s0.291,0,0.407,0c0.174,0,0.291,0,0.407,0s0.232,0,0.29,0
				c0.407,0,0.814-0.059,1.279-0.116c0.406-0.059,0.813-0.232,1.104-0.465c0.349-0.233,0.581-0.523,0.813-0.872
				c0.232-0.407,0.291-0.872,0.291-1.454c0-0.522-0.116-0.93-0.291-1.278c-0.174-0.349-0.465-0.64-0.756-0.814
				c-0.29-0.232-0.697-0.349-1.046-0.465C453.975,85.698,453.567,85.64,453.16,85.64z"/>
		</g>
	</g>
</g>
</svg>
