<?xml version="1.0" encoding="UTF-8"?>
<!DOCTYPE svg PUBLIC "-//W3C//DTD SVG 1.1//EN" "http://www.w3.org/Graphics/SVG/1.1/DTD/svg11.dtd">
<!-- Creator: CorelDRAW -->
<svg xmlns="http://www.w3.org/2000/svg" xml:space="preserve" width="500mm" height="180mm" style="shape-rendering:geometricPrecision; text-rendering:geometricPrecision; image-rendering:optimizeQuality; fill-rule:evenodd; clip-rule:evenodd"
viewBox="0 0 500 180"
 xmlns:xlink="http://www.w3.org/1999/xlink">
 <defs>
  <style type="text/css">
   <![CDATA[
    .fil1 {fill:white}
    .fil0 {fill:white;fill-rule:nonzero}
   ]]>
  </style>
 </defs>
 <g id="Camada_x0020_1">
  <metadata id="CorelCorpID_0Corel-Layer"/>
  <g id="_103325008">
   <path id="_103324864" class="fil0" d="M54.2964 70.0434c0,8.744 3.1697,15.0835 13.2255,23.9368 7.8696,6.886 10.2742,11.0394 10.2742,16.6138 0,5.4651 -2.4046,7.4325 -6.2301,7.4325 -3.8255,0 -6.2301,-1.9674 -6.2301,-7.4325l0 -5.465 -11.3674 0 0 4.7c0,12.2416 6.1208,19.2551 17.9253,19.2551 11.8045,0 17.9255,-7.0135 17.9255,-19.2551 0,-8.7442 -3.1698,-15.0836 -13.2255,-23.9371 -7.8696,-6.886 -10.2742,-11.0393 -10.2742,-16.6137 0,-5.4651 2.1861,-7.5417 6.0115,-7.5417 3.8255,0 6.0116,2.0766 6.0116,7.5417l0 3.1698 11.3673 0 0 -2.4046c0,-12.2419 -6.0117,-19.2371 -17.7069,-19.2371 -11.695,0 -17.7067,6.9952 -17.7067,19.2371zm37.8183 -7.4326l12.5694 0 0 65.5806 12.0233 0 0 -65.5806 12.5695 0 0 -10.9301 -37.1622 0 0 10.9301zm41.8621 -10.9301l0 58.2575c0,12.2417 6.1209,19.2552 17.9255,19.2552 11.8045,0 17.9254,-7.0135 17.9254,-19.2552l0 -58.2575 -11.3674 0 0 59.0225c0,5.4652 -2.4046,7.4326 -6.2301,7.4326 -3.8255,0 -6.2303,-1.9674 -6.2303,-7.4326l0 -59.0225 -12.0231 0zm40.7694 76.5107l19.0183 0c12.0231,0 17.9253,-6.6674 17.9253,-18.909l0 -38.6926c0,-12.2417 -5.9022,-18.9091 -17.9253,-18.9091l-19.0183 0 0 76.5107zm18.7998 -65.5806c3.8254,0 6.1208,1.9674 6.1208,7.4326l0 39.7856c0,5.4649 -2.2954,7.4324 -6.1208,7.4324l-6.7768 0 0 -54.6506 6.7768 0zm23.609 65.5806l12.023 0 0 -76.5107 -12.023 0 0 76.5107zm29.6205 -58.9132c0,-5.4651 2.4046,-7.5417 6.2301,-7.5417 3.8257,0 6.2303,2.0766 6.2303,7.5417l0 41.3158c0,5.4651 -2.4046,7.5418 -6.2303,7.5418 -3.8255,0 -6.2301,-2.0767 -6.2301,-7.5418l0 -41.3158zm-12.0231 40.5508c0,12.2416 6.4487,19.2551 18.2532,19.2551 11.8045,0 18.2534,-7.0135 18.2534,-19.2551l0 -39.7856c0,-12.2419 -6.4489,-19.2371 -18.2534,-19.2371 -11.8045,0 -18.2532,6.9952 -18.2532,19.2371l0 39.7856zm75.6365 -58.1483l-17.7068 0 0 76.5107 12.0231 0 0 -28.7461 5.6837 0c12.023,0 17.9253,-6.6674 17.9253,-18.909l0 -9.9465c0,-12.2417 -5.9023,-18.9091 -17.9253,-18.9091zm0 10.9301c3.8255,0 5.9022,1.7489 5.9022,7.2138l0 11.4767c0,5.4651 -2.0767,7.2138 -5.9022,7.2138l-5.6837 0 0 -25.9043 5.6837 0zm23.4997 65.5806l31.8066 0 0 -10.93 -19.7835 0 0 -65.5807 -12.0231 0 0 76.5107zm65.9085 -76.5107l-17.5975 0 -12.2416 76.5107 11.0393 0 2.0768 -13.8812 14.7557 0 2.0768 13.8812 12.1323 0 -12.2418 -76.5107zm-9.5092 13.5534l0.2188 0 5.6835 38.6926 -11.586 0 5.6837 -38.6926zm31.0414 62.9573l12.0233 0 0 -25.3577 15.1927 -51.153 -11.4765 0 -9.072 34.8671 -0.2186 0 -9.072 -34.8671 -12.5697 0 15.1928 51.153 0 25.3577z"/>
   <path id="_103325056" class="fil1" d="M25.1556 25.9553l449.689 0 0 128.089 -449.689 0 0 -128.089zm437.814 11.0658l-425.94 0 0 105.958 425.94 0 0 -105.958z"/>
  </g>
 </g>
</svg>
