<?xml version="1.0" encoding="utf-8"?>
<!-- Generator: Adobe Illustrator 16.0.4, SVG Export Plug-In . SVG Version: 6.00 Build 0)  -->
<!DOCTYPE svg PUBLIC "-//W3C//DTD SVG 1.1//EN" "http://www.w3.org/Graphics/SVG/1.1/DTD/svg11.dtd">
<svg version="1.1" id="Layer_1" xmlns="http://www.w3.org/2000/svg" xmlns:xlink="http://www.w3.org/1999/xlink" x="0px" y="0px"
	 width="47.21px" height="64.014px" viewBox="0 0 47.21 64.014" enable-background="new 0 0 47.21 64.014" xml:space="preserve">
<g>
	<path fill-rule="evenodd" clip-rule="evenodd" fill="#BACFE0" d="M23.938,64.011c-4.993-0.243-9.887-0.904-14.087-3.937
		c-1.849-1.335-3.062-3.051-3.127-5.533c-0.052-1.932-0.545-3.85-0.819-5.778c-0.446-3.141-0.87-6.285-1.311-9.427
		C3.792,33.624,3,27.91,2.176,22.2C1.569,17.99,0.914,13.787,0.287,9.58c-0.102-0.678-0.169-1.361-0.26-2.041
		C-0.193,5.9,0.994,5.236,2.13,4.593C5.417,2.733,9.03,1.8,12.699,1.13c3.98-0.728,8.011-1.267,12.062-1.099
		c6.671,0.276,13.249,1.146,19.375,4.072c0.552,0.263,1.049,0.641,1.578,0.952c1.317,0.773,1.623,1.811,1.454,3.376
		c-0.347,3.194-0.94,6.352-1.233,9.551c-0.221,2.404-0.616,4.792-0.931,7.187c-0.411,3.146-0.815,6.292-1.229,9.438
		c-0.471,3.574-0.96,7.146-1.42,10.722c-0.413,3.219-0.828,6.438-1.182,9.663c-0.238,2.173-1.333,3.818-3.031,5.056
		c-2.812,2.048-6.04,3.054-9.455,3.523C27.112,63.788,25.542,64.046,23.938,64.011z"/>
	<path fill-rule="evenodd" clip-rule="evenodd" fill="#FEFEFE" d="M7.637,27.794c-0.59-2.605-0.914-5.256-1.285-7.896
		c-0.196-1.39-0.415-2.778-0.496-4.19c-0.116-2.036,0.841-3.952,2.688-4.851c2.236-1.088,4.674-1.492,7.088-1.928
		c3.536-0.638,7.114-0.816,10.697-0.651c4.499,0.207,8.897,0.979,13.086,2.71c1.883,0.779,3.17,3.172,2.882,5.188
		c-0.475,3.32-0.917,6.644-1.372,9.966c-1.059,1.304-2.58,1.675-4.108,1.979c-1.463,0.292-2.956,0.281-4.442,0.241
		c-1.373-0.037-2.641,0.283-3.87,0.909c-1.777,0.905-3.553,1.807-5.236,2.885c-1.428,0.914-3.006,1.43-4.689,1.61
		c-1.737,0.186-3.205-0.427-4.479-1.564c-0.541-0.482-1.056-0.998-1.545-1.531c-1.077-1.172-2.238-2.166-3.933-2.287
		C8.229,28.357,7.841,28.197,7.637,27.794z"/>
	<path fill-rule="evenodd" clip-rule="evenodd" fill="#F5D56E" d="M7.637,27.794c0.521,0.148,1.039,0.41,1.563,0.421
		c1.165,0.026,1.95,0.676,2.708,1.417c0.646,0.633,1.306,1.256,1.915,1.924c1.869,2.047,4.146,2.324,6.65,1.543
		c0.93-0.29,1.84-0.65,2.663-1.198c1.569-1.044,3.283-1.829,4.927-2.74c1.514-0.839,3.091-1.122,4.788-1.109
		c2.056,0.015,4.136,0.094,6.06-0.855c0.679-0.335,1.343-0.702,2.014-1.055c-0.777,6.055-1.562,12.109-2.327,18.166
		c-0.394,3.119-0.717,6.248-1.145,9.362c-0.188,1.374-0.84,2.547-2.18,3.154c-4.736,2.142-9.697,2.766-14.847,2.227
		c-2.409-0.252-4.67-0.935-6.841-1.978c-1.577-0.757-2.418-2.053-2.65-3.726c-0.961-6.943-1.933-13.885-2.793-20.841
		C7.949,30.943,7.485,29.397,7.637,27.794z"/>
	<path fill-rule="evenodd" clip-rule="evenodd" fill="#333332" d="M29.987,56.438c-2.49,0.026-4.397-0.737-5.81-2.589
		c-0.413-0.541-0.446-0.949,0.261-1.239c0.2-0.082,0.396-0.191,0.564-0.326c0.887-0.708,1.548-0.771,2.372,0.269
		c0.827,1.043,2.139,1.132,3.408,0.744c0.586-0.179,1.021-0.556,1.106-1.214c0.088-0.679-0.139-1.25-0.748-1.562
		c-1.097-0.56-2.23-1.046-3.337-1.587c-2.818-1.381-3.88-4.127-2.568-6.662c0.89-1.721,2.477-2.294,4.255-2.337
		c1.818-0.043,3.442,0.499,4.49,2.15c0.059,0.092,0.183,0.203,0.163,0.274c-0.26,0.963-1.286,1.02-1.895,1.579
		c-0.331,0.305-0.607,0.264-0.875-0.137c-0.436-0.649-1.075-0.961-1.861-0.921c-0.67,0.034-1.206,0.314-1.415,0.986
		c-0.205,0.659-0.004,1.255,0.562,1.629c0.539,0.357,1.146,0.615,1.731,0.9c0.715,0.351,1.466,0.637,2.153,1.035
		c2.359,1.365,3.175,3.182,2.585,5.642c-0.461,1.917-2.235,3.179-4.704,3.345C30.208,56.431,29.991,56.438,29.987,56.438z"/>
	<path fill-rule="evenodd" clip-rule="evenodd" fill="#333332" d="M21.793,40.264c0.262,0.117,0.2,0.358,0.2,0.562
		c-0.001,3.622,0.024,7.245-0.024,10.867c-0.025,1.842-0.669,3.403-2.457,4.268c-2.438,1.178-5.686,0.351-7.099-1.792
		c-0.333-0.505-0.437-0.893,0.246-1.175c0.264-0.109,0.509-0.279,0.74-0.451c0.784-0.584,1.434-0.892,2.095,0.259
		c0.439,0.765,1.338,0.808,2.151,0.519c0.767-0.273,0.944-0.941,0.945-1.67c0.006-3.405-0.002-6.811,0.014-10.216
		c0.001-0.378-0.161-0.795,0.148-1.14C19.768,40.408,20.781,40.479,21.793,40.264z"/>
	<path fill-rule="evenodd" clip-rule="evenodd" fill="#FEFEFE" d="M13.778,34.798c0.889-0.089,1.749,0.226,2.486,0.891
		c1.281,1.158,1.285,2.54,0.001,3.757c-0.284,0.269-0.686,0.426-0.194,0.905c0.56,0.546,0.487,1.217-0.02,1.75
		c-0.575,0.605-1.342,0.697-2.111,0.422c-0.657-0.234-1.121-0.657-1.077-1.448c0.017-0.294,0.366-0.606-0.266-0.827
		c-2.007-0.702-2.77-1.711-2.531-3.111C10.298,35.778,11.815,34.792,13.778,34.798z"/>
	<path fill-rule="evenodd" clip-rule="evenodd" fill="#2C2E31" d="M21.793,40.264c-1.01,0.371-2.023,0.325-3.04,0.031
		C19.765,40.086,20.778,40.15,21.793,40.264z"/>
</g>
</svg>
