<?xml version="1.0" encoding="UTF-8" standalone="no"?>
<svg width="93px" height="26px" viewBox="0 0 93 26" version="1.1" xmlns="http://www.w3.org/2000/svg" xmlns:xlink="http://www.w3.org/1999/xlink">
    <!-- Generator: Sketch 39.1 (31720) - http://www.bohemiancoding.com/sketch -->
    <title>Slice 1</title>
    <desc>Created with Sketch.</desc>
    <defs>
        <rect id="path-1" x="0" y="0" width="92.987" height="25.65"></rect>
        <rect id="path-3" x="0" y="0" width="92.987" height="25.65"></rect>
        <rect id="path-5" x="0" y="0" width="92.987" height="25.65"></rect>
        <rect id="path-7" x="0" y="0" width="92.987" height="25.65"></rect>
        <rect id="path-9" x="0" y="0" width="92.987" height="25.65"></rect>
        <rect id="path-11" x="0" y="0" width="92.987" height="25.65"></rect>
        <rect id="path-13" x="0" y="0" width="92.987" height="25.65"></rect>
        <rect id="path-15" x="0" y="0" width="92.987" height="25.65"></rect>
        <rect id="path-17" x="0" y="0" width="92.987" height="25.65"></rect>
        <rect id="path-19" x="0" y="0" width="92.987" height="25.65"></rect>
        <rect id="path-21" x="0" y="0" width="92.987" height="25.65"></rect>
        <rect id="path-23" x="0" y="0" width="92.987" height="25.65"></rect>
        <rect id="path-25" x="0" y="0" width="92.987" height="25.65"></rect>
        <rect id="path-27" x="0" y="0" width="92.987" height="25.65"></rect>
    </defs>
    <g id="Page-1" stroke="none" stroke-width="1" fill="none" fill-rule="evenodd">
        <g id="novatec">
            <g id="Group">
                <g id="Clipped">
                    <mask id="mask-2" fill="white">
                        <use xlink:href="#path-1"></use>
                    </mask>
                    <g id="SVGID_1_"></g>
                    <path d="M1.836,12.688 C1.917,13.363 1.917,14.038 1.917,14.713 L1.971,14.713 C2.754,13.336 4.536,12.363 6.21,12.363 C9.423,12.363 10.962,14.173 10.962,17.304 L10.962,25.324 L9.18,25.324 L9.18,18.33 C9.18,15.522 8.397,13.983 5.751,13.983 C5.373,13.983 1.917,14.226 1.917,18.843 L1.917,25.323 L0.135,25.323 L0.135,15.468 C0.135,14.793 0.054,13.605 0,12.687 L1.836,12.687 L1.836,12.688 Z" id="Shape" fill="#FFFFFF" mask="url(#mask-2)"></path>
                </g>
                <g id="Clipped">
                    <mask id="mask-4" fill="white">
                        <use xlink:href="#path-3"></use>
                    </mask>
                    <g id="SVGID_1_"></g>
                    <path d="M21.222,25.649 C17.307,25.649 14.526,22.813 14.526,19.006 C14.526,15.199 17.307,12.364 21.222,12.364 C25.164,12.364 27.945,15.199 27.945,19.006 C27.945,22.813 25.164,25.649 21.222,25.649 M21.222,13.985 C18.306,13.985 16.47,16.172 16.47,19.006 C16.47,21.84 18.306,24.027 21.222,24.027 C24.165,24.027 26.001,21.84 26.001,19.006 C26.001,16.172 24.165,13.985 21.222,13.985" id="Shape" fill="#FFFFFF" mask="url(#mask-4)"></path>
                </g>
                <g id="Clipped">
                    <mask id="mask-6" fill="white">
                        <use xlink:href="#path-5"></use>
                    </mask>
                    <g id="SVGID_1_"></g>
                    <polygon id="Shape" fill="#FFFFFF" mask="url(#mask-6)" points="36.774 25.325 34.776 25.325 29.646 12.688 31.779 12.688 35.802 23.327 35.856 23.327 39.879 12.688 41.904 12.688"></polygon>
                </g>
                <g id="Clipped">
                    <mask id="mask-8" fill="white">
                        <use xlink:href="#path-7"></use>
                    </mask>
                    <g id="SVGID_1_"></g>
                    <path d="M52.354,17.576 L52.354,17.252 C52.354,15.065 51.3,13.985 49.114,13.985 C47.628,13.985 46.332,14.497 45.252,15.469 L44.172,14.2 C45.333,13.012 47.144,12.364 49.519,12.364 C52.002,12.364 54.135,13.767 54.135,16.844 L54.135,22.488 C54.135,23.461 54.244,24.648 54.353,25.324 L52.624,25.324 C52.516,24.703 52.461,23.947 52.461,23.271 L52.408,23.271 C51.381,24.945 49.977,25.648 47.953,25.648 C45.711,25.648 43.605,24.406 43.605,21.949 C43.605,17.845 48.438,17.575 51.462,17.575 L52.354,17.575 L52.354,17.576 Z M51.436,19.034 C49.625,19.034 45.549,19.169 45.549,21.706 C45.549,23.381 47.088,24.028 48.52,24.028 C51.112,24.028 52.354,22.192 52.354,19.952 L52.354,19.034 L51.436,19.034 L51.436,19.034 Z" id="Shape" fill="#FFFFFF" mask="url(#mask-8)"></path>
                </g>
                <g id="Clipped">
                    <mask id="mask-10" fill="white">
                        <use xlink:href="#path-9"></use>
                    </mask>
                    <g id="SVGID_1_"></g>
                    <path d="M64.826,14.308 L61.18,14.308 L61.18,21.76 C61.18,23.651 61.909,24.028 63.016,24.028 C63.637,24.028 64.312,23.84 64.852,23.542 L64.933,25.189 C64.287,25.487 63.422,25.649 62.53,25.649 C61.18,25.649 59.398,25.054 59.398,22.274 L59.398,14.308 L56.725,14.308 L56.725,12.688 L59.398,12.688 L59.398,9.124 L61.18,9.124 L61.18,12.688 L64.826,12.688 L64.826,14.308 L64.826,14.308 Z" id="Shape" fill="#FFFFFF" mask="url(#mask-10)"></path>
                </g>
                <g id="Clipped">
                    <mask id="mask-12" fill="white">
                        <use xlink:href="#path-11"></use>
                    </mask>
                    <g id="SVGID_1_"></g>
                    <path d="M68.524,19.493 C68.74,22.03 70.658,24.028 73.169,24.028 C75.058,24.028 76.516,22.975 77.218,21.841 L78.595,22.975 C77.111,24.866 75.248,25.649 73.169,25.649 C69.416,25.649 66.634,22.813 66.634,19.006 C66.634,15.198 69.416,12.364 73.007,12.364 C76.84,12.391 79.054,15.226 79.054,18.682 L79.054,19.493 L68.524,19.493 L68.524,19.493 Z M77.11,18.035 C77.11,15.632 75.572,13.984 73.006,13.984 C70.684,13.984 68.578,15.956 68.578,18.035 L77.11,18.035 L77.11,18.035 Z" id="Shape" fill="#FFFFFF" mask="url(#mask-12)"></path>
                </g>
                <g id="Clipped">
                    <mask id="mask-14" fill="white">
                        <use xlink:href="#path-13"></use>
                    </mask>
                    <g id="SVGID_1_"></g>
                    <path d="M91.528,15.658 C90.934,14.74 89.773,13.984 88.371,13.984 C85.427,13.93 83.618,16.118 83.618,19.006 C83.618,21.894 85.427,24.082 88.371,24.027 C89.773,24.027 90.934,23.271 91.528,22.353 L92.986,23.46 C91.746,24.918 90.07,25.62 88.371,25.648 C84.239,25.701 81.674,22.812 81.674,19.005 C81.674,15.197 84.239,12.309 88.371,12.363 C90.07,12.39 91.746,13.092 92.986,14.55 L91.528,15.658 L91.528,15.658 Z" id="Shape" fill="#FFFFFF" mask="url(#mask-14)"></path>
                </g>
                <g id="Clipped">
                    <mask id="mask-16" fill="white">
                        <use xlink:href="#path-15"></use>
                    </mask>
                    <g id="SVGID_1_"></g>
                    <path d="M62.518,5.4 C62.597,6.34 63.308,7.08 64.239,7.08 C64.938,7.08 65.478,6.69 65.739,6.27 L66.249,6.69 C65.699,7.39 65.009,7.68 64.239,7.68 C62.847,7.68 61.818,6.63 61.818,5.22 C61.818,3.81 62.847,2.76 64.177,2.76 C65.597,2.77 66.418,3.82 66.418,5.1 L66.418,5.4 L62.518,5.4 L62.518,5.4 Z M65.698,4.86 C65.698,3.97 65.129,3.36 64.177,3.36 C63.318,3.36 62.539,4.09 62.539,4.86 L65.698,4.86 L65.698,4.86 Z" id="Shape" fill="#FFFFFF" mask="url(#mask-16)"></path>
                </g>
                <g id="Clipped">
                    <mask id="mask-18" fill="white">
                        <use xlink:href="#path-17"></use>
                    </mask>
                    <g id="SVGID_1_"></g>
                    <path d="M72.289,7.56 L71.629,7.56 L71.629,6.78 L71.608,6.78 C71.178,7.41 70.408,7.68 69.79,7.68 C68.328,7.68 67.3,6.63 67.3,5.22 C67.3,3.81 68.328,2.76 69.79,2.76 C70.408,2.76 71.179,3.03 71.608,3.66 L71.629,3.66 L71.629,0 L72.289,0 L72.289,7.56 L72.289,7.56 Z M69.789,7.08 C70.868,7.08 71.657,6.27 71.657,5.22 C71.657,4.17 70.868,3.36 69.789,3.36 C68.697,3.36 68.018,4.17 68.018,5.22 C68.018,6.27 68.697,7.08 69.789,7.08 L69.789,7.08 Z" id="Shape" fill="#FFFFFF" mask="url(#mask-18)"></path>
                </g>
                <g id="Clipped">
                    <mask id="mask-20" fill="white">
                        <use xlink:href="#path-19"></use>
                    </mask>
                    <g id="SVGID_1_"></g>
                    <path d="M74.208,1.56 C73.968,1.56 73.728,1.36 73.728,1.08 C73.728,0.8 73.968,0.6 74.208,0.6 C74.448,0.6 74.688,0.8 74.688,1.08 C74.688,1.36 74.448,1.56 74.208,1.56 L74.208,1.56 Z M74.538,7.56 L73.879,7.56 L73.879,2.88 L74.538,2.88 L74.538,7.56 L74.538,7.56 Z" id="Shape" fill="#FFFFFF" mask="url(#mask-20)"></path>
                </g>
                <g id="Clipped">
                    <mask id="mask-22" fill="white">
                        <use xlink:href="#path-21"></use>
                    </mask>
                    <g id="SVGID_1_"></g>
                    <path d="M78.548,3.48 L77.197,3.48 L77.197,6.24 C77.197,6.94 77.468,7.08 77.878,7.08 C78.108,7.08 78.358,7.01 78.559,6.9 L78.587,7.51 C78.348,7.62 78.027,7.68 77.697,7.68 C77.197,7.68 76.537,7.46 76.537,6.43 L76.537,3.48 L75.548,3.48 L75.548,2.88 L76.537,2.88 L76.537,1.56 L77.197,1.56 L77.197,2.88 L78.548,2.88 L78.548,3.48 L78.548,3.48 Z" id="Shape" fill="#FFFFFF" mask="url(#mask-22)"></path>
                </g>
                <g id="Clipped">
                    <mask id="mask-24" fill="white">
                        <use xlink:href="#path-23"></use>
                    </mask>
                    <g id="SVGID_1_"></g>
                    <path d="M81.687,7.68 C80.239,7.68 79.208,6.63 79.208,5.22 C79.208,3.81 80.238,2.76 81.687,2.76 C83.149,2.76 84.177,3.81 84.177,5.22 C84.177,6.63 83.148,7.68 81.687,7.68 M81.687,3.36 C80.608,3.36 79.927,4.17 79.927,5.22 C79.927,6.27 80.608,7.08 81.687,7.08 C82.778,7.08 83.458,6.27 83.458,5.22 C83.458,4.17 82.777,3.36 81.687,3.36" id="Shape" fill="#FFFFFF" mask="url(#mask-24)"></path>
                </g>
                <g id="Clipped">
                    <mask id="mask-26" fill="white">
                        <use xlink:href="#path-25"></use>
                    </mask>
                    <g id="SVGID_1_"></g>
                    <path d="M85.447,4.34 C85.447,3.92 85.426,3.56 85.408,2.88 L86.056,2.88 L86.056,3.75 L86.077,3.75 C86.265,3.25 86.757,2.76 87.577,2.76 C87.765,2.76 87.926,2.78 88.066,2.82 L87.935,3.47 C87.855,3.44 87.737,3.42 87.555,3.42 C86.555,3.42 86.105,4.29 86.105,4.92 L86.105,7.56 L85.446,7.56 L85.446,4.34 L85.447,4.34 Z" id="Shape" fill="#FFFFFF" mask="url(#mask-26)"></path>
                </g>
                <g id="Clipped">
                    <mask id="mask-28" fill="white">
                        <use xlink:href="#path-27"></use>
                    </mask>
                    <g id="SVGID_1_"></g>
                    <path d="M91.697,4.69 L91.697,4.57 C91.697,3.76 91.306,3.36 90.498,3.36 C89.947,3.36 89.467,3.55 89.067,3.91 L88.668,3.44 C89.097,3 89.767,2.76 90.647,2.76 C91.568,2.76 92.357,3.28 92.357,4.42 L92.357,6.51 C92.357,6.87 92.397,7.31 92.437,7.56 L91.796,7.56 C91.757,7.33 91.737,7.05 91.737,6.8 L91.716,6.8 C91.336,7.42 90.817,7.68 90.067,7.68 C89.237,7.68 88.457,7.22 88.457,6.31 C88.457,4.79 90.248,4.69 91.367,4.69 L91.697,4.69 L91.697,4.69 Z M91.356,5.23 C90.686,5.23 89.176,5.28 89.176,6.22 C89.176,6.84 89.747,7.08 90.277,7.08 C91.237,7.08 91.697,6.4 91.697,5.57 L91.697,5.23 L91.356,5.23 L91.356,5.23 Z" id="Shape" fill="#FFFFFF" mask="url(#mask-28)"></path>
                </g>
            </g>
        </g>
    </g>
</svg>