<?xml version="1.0" encoding="iso-8859-1"?>
<!-- Generator: Adobe Illustrator 16.0.0, SVG Export Plug-In . SVG Version: 6.00 Build 0)  -->
<!DOCTYPE svg PUBLIC "-//W3C//DTD SVG 1.1//EN" "http://www.w3.org/Graphics/SVG/1.1/DTD/svg11.dtd">
<svg version="1.1" id="Layer_1" xmlns="http://www.w3.org/2000/svg" xmlns:xlink="http://www.w3.org/1999/xlink" x="0px" y="0px"
	 width="142.221px" height="112.212px" viewBox="2.615 8.408 142.221 112.212"
	 style="enable-background:new 2.615 8.408 142.221 112.212;" xml:space="preserve">
<g>
	<path style="fill:#FFFFFF;" d="M19.081,100.602c-0.901,1.512-1.883,2.635-2.945,3.369c-1.262,0.838-2.794,1.256-4.597,1.256
		c-2.384,0-4.408-0.97-6.07-2.91c-1.903-2.246-2.854-5.33-2.854-9.252c0-4.086,0.972-7.24,2.915-9.467
		c1.623-1.839,3.586-2.758,5.89-2.758c3.286,0,5.79,1.501,7.513,4.503l-2.194,1.104c-1.062-2.206-2.745-3.311-5.048-3.311
		c-2.144,0-3.776,0.98-4.898,2.941c-0.981,1.757-1.472,4.086-1.472,6.984c0,2.9,0.571,5.26,1.712,7.078
		c1.182,1.879,2.774,2.817,4.778,2.817c2.204,0,3.967-1.153,5.289-3.462L19.081,100.602z"/>
	<path style="fill:#FFFFFF;" d="M35.367,99.223c0,2.043-0.822,3.594-2.464,4.656c-1.382,0.898-3.055,1.348-5.019,1.348
		c-2.644,0-5.108-0.785-7.392-2.358l1.292-1.991c0.741,0.572,1.652,1.053,2.734,1.439c1.202,0.43,2.344,0.644,3.426,0.644
		c1.302,0,2.354-0.245,3.155-0.735c1.042-0.633,1.562-1.623,1.562-2.972c0-1.226-0.671-2.379-2.013-3.462
		c-0.621-0.49-1.833-1.227-3.636-2.206c-4.147-2.246-6.22-4.585-6.22-7.017c0-1.775,0.761-3.195,2.284-4.258
		c1.402-0.98,3.155-1.471,5.259-1.471c2.143,0,4.287,0.674,6.43,2.021l-1.052,2.082c-1.823-1.184-3.586-1.775-5.289-1.775
		c-1.242,0-2.313,0.245-3.215,0.734c-1.122,0.594-1.683,1.461-1.683,2.604c0,1.042,0.621,2.043,1.863,3.003
		c0.46,0.348,1.677,1.077,3.651,2.19c1.973,1.112,3.39,2.089,4.252,2.926C34.676,95.995,35.367,97.525,35.367,99.223z"/>
	<path style="fill:#FFFFFF;" d="M51.864,99.223c0,2.043-0.822,3.594-2.464,4.656c-1.382,0.898-3.055,1.348-5.019,1.348
		c-2.644,0-5.108-0.785-7.392-2.358l1.292-1.991c0.741,0.572,1.652,1.053,2.734,1.439c1.202,0.43,2.344,0.644,3.426,0.644
		c1.302,0,2.354-0.245,3.155-0.735c1.042-0.633,1.562-1.623,1.562-2.972c0-1.226-0.671-2.379-2.013-3.462
		c-0.621-0.49-1.833-1.227-3.636-2.206c-4.147-2.246-6.22-4.585-6.22-7.017c0-1.775,0.761-3.195,2.284-4.258
		c1.402-0.98,3.155-1.471,5.259-1.471c2.143,0,4.287,0.674,6.43,2.021l-1.052,2.082c-1.823-1.184-3.586-1.775-5.289-1.775
		c-1.242,0-2.313,0.245-3.215,0.734c-1.122,0.594-1.683,1.461-1.683,2.604c0,1.042,0.621,2.043,1.863,3.003
		c0.46,0.348,1.677,1.077,3.651,2.19c1.973,1.112,3.39,2.089,4.252,2.926C51.173,95.995,51.864,97.525,51.864,99.223z"/>
</g>
<g>
	<path style="fill:#FFFFFF;" d="M68.482,104.98h-2.794v7.107h-2.554l0.03-7.107h-9.165v-1.531l7.723-15.686h2.645l-7.182,14.98
		h5.979v-7.262h2.524v7.262h2.794V104.98z"/>
</g>
<g>
	<path style="fill:#FFFFFF;" d="M87.954,104.98h-2.585V93.859H74.762v11.121h-2.614V81.084h2.614v10.447h10.607V81.084h2.585V104.98
		z"/>
	<path style="fill:#FFFFFF;" d="M107.305,83.29h-6.852v21.69h-2.584V83.29h-6.881v-2.206h16.316V83.29L107.305,83.29z"/>
</g>
<g>
	<path style="fill:#FFFFFF;" d="M128.82,104.98h-2.285v-21.17h-0.18l-6.281,21.323h-1.803l-6.279-21.538h-0.18v21.385h-2.285V81.084
		h3.787l5.77,20.252h0.18l5.799-20.252h3.758V104.98L128.82,104.98z"/>
	<path style="fill:#FFFFFF;" d="M144.836,104.98h-12.68l-0.031-23.896h2.615v21.691h10.096V104.98z"/>
</g>
<path style="fill:#747578;" d="M122.721,8.408c-0.363,2.642-0.693,5.288-1.1,7.923c-0.225,1.47-0.57,1.63-1.51,0.609
	c-0.979-1.062-1.531-0.789-2.367,0.183c-7.27,8.46-14.586,16.877-21.887,25.307c-1.691,1.952-3.377,3.909-5.066,5.864
	c-0.119-0.094-0.236-0.188-0.354-0.283c0.967-1.312,1.924-2.631,2.897-3.936c7.306-9.759,14.604-19.523,21.935-29.262
	c0.707-0.941,0.713-1.581-0.265-2.27c-0.465-0.329-1.248-0.627-1.067-1.328c0.166-0.661,0.996-0.553,1.545-0.754
	c2.086-0.762,4.297-1.121,6.328-2.053H122.721z"/>
<path style="fill:#747578;" d="M113.426,50.377c-0.021,14.021-13.436,24.007-26.582,19.721c-1.402-0.457-2.34-0.412-3.496,0.651
	c-2.391,2.203-6.865,2.563-9.684,1.035c-0.347-0.188-0.824-0.33-0.709-0.854c0.089-0.408,0.516-0.455,0.862-0.496
	c4.145-0.488,7.059-2.849,9.164-6.353c0.677-1.125,1.271-0.727,2.088-0.247c8.882,5.202,20.058,0.903,22.795-8.886
	c1.605-5.738,0.521-11.025-3.594-15.43c-0.971-1.039-0.938-1.664-0.002-2.647c2.174-2.285,2.181-2.366,4.271,0.082
	C111.812,40.793,113.385,45.305,113.426,50.377"/>
<path style="fill:#747578;" d="M61.203,54.082c0.594-0.859,1.043-1.505,1.488-2.154c3.754-5.482,7.462-10.997,11.292-16.423
	c0.902-1.278,0.193-1.77-0.575-2.472c-1.246-1.139-1.21-1.316,0.361-1.811c2.024-0.637,4.067-1.22,6.088-1.867
	c1.138-0.363,1.486,0.02,1.312,1.176c-0.326,2.132-0.576,4.276-0.905,6.408c-0.222,1.435-0.515,1.573-1.531,0.601
	c-0.92-0.878-1.453-0.771-2.293,0.185c-4.477,5.092-9.031,10.113-13.571,15.147C62.479,53.302,62.172,53.87,61.203,54.082"/>
<g>
	<g>
		<defs>
			<path id="SVGID_1_" d="M102.422,16.121c-2.545,1.275-5.34,1.818-7.971,2.844c-0.824,0.322-2.137,0.22-2.344,1.111
				c-0.217,0.934,1.002,1.404,1.678,1.969c0.771,0.645,1.004,1.226,0.205,2.003c-0.289,0.281-0.506,0.64-0.762,0.957
				c-9.652,11.933-19.283,23.884-28.972,35.786c-3.499,4.298-8.164,6.027-13.497,5.188c-11.434-1.799-15.453-12.833-13.159-20.294
				c2.08-6.766,8.283-12.05,15.186-11.683c3.023,0.16,4.441-0.497,5.921-3.095c5.207-9.143,17.147-10.666,24.735-3.407
				c0.777,0.744,1.074,2.386,2.272,2.167c1.072-0.197,1.576-1.636,2.392-2.472c0.104-0.11,0.197-0.233,0.301-0.346
				c0.459-0.513,0.389-0.992-0.039-1.501c-1.582-1.885-3.301-3.618-5.451-4.826c-8.912-5.011-21.284-3.689-28.206,6.817
				c-0.841,1.275-1.719,1.776-3.199,1.718c-3.64-0.141-6.987,0.953-9.993,3.012c-4.843,3.318-8.074,7.82-9.38,13.671
				c-0.585,3.298-0.533,6.405,0,8.64c0.095,0.29,0.206,0.577,0.282,0.873c2.003,7.732,6.802,12.979,14.232,15.208
				c4.7,1.41,9.68,1.299,14.391-0.61c1.729-0.699,3.445-1.547,4.664-3.053C76.133,53.928,86.533,41.041,96.941,28.16
				c1.576-1.953,1.576-1.953,3.531-0.463c0.282,0.215,0.561,0.438,0.848,0.646c0.6,0.435,1.063,0.384,1.162-0.445
				c0.467-3.917,1.307-7.797,1.151-11.777H102.422z"/>
		</defs>
		<clipPath id="SVGID_2_">
			<use xlink:href="#SVGID_1_"  style="overflow:visible;"/>
		</clipPath>
		
			<linearGradient id="SVGID_3_" gradientUnits="userSpaceOnUse" x1="-223.8418" y1="-7.4082" x2="-222.8423" y2="-7.4082" gradientTransform="matrix(0 -55.2927 55.2927 0 477.2974 -12305.4736)">
			<stop  offset="0" style="stop-color:#3B4387"/>
			<stop  offset="0.0765" style="stop-color:#3B4387"/>
			<stop  offset="0.4643" style="stop-color:#0094C6"/>
			<stop  offset="0.7041" style="stop-color:#009BCC"/>
			<stop  offset="0.8571" style="stop-color:#39468B"/>
			<stop  offset="0.9592" style="stop-color:#3D3980"/>
			<stop  offset="1" style="stop-color:#3D3980"/>
		</linearGradient>
		<rect x="31.555" y="15.51" style="clip-path:url(#SVGID_2_);fill:url(#SVGID_3_);" width="72.234" height="56.36"/>
	</g>
</g>
<g>
	<path style="fill:#FFFFFF;" d="M96.908,112.63c0.18-0.129,0.316-0.192,0.41-0.192c0.074,0,0.135,0.024,0.182,0.074
		c0.047,0.051,0.07,0.111,0.07,0.186c0,0.156-0.113,0.265-0.344,0.324l-0.455,0.912c-0.113,0.252-0.199,0.506-0.256,0.76
		c-0.058,0.252-0.086,0.513-0.086,0.777c0,0.334,0.077,0.868,0.235,1.604c0.604-0.41,1.17-0.959,1.69-1.647
		c-0.004-0.173-0.006-0.299-0.006-0.38c0-0.884,0.129-1.582,0.385-2.093c0.17-0.338,0.357-0.508,0.562-0.508
		c0.121,0,0.223,0.055,0.305,0.16c0.08,0.106,0.121,0.266,0.121,0.475c0,0.169-0.031,0.363-0.096,0.585
		c-0.105,0.362-0.232,0.692-0.377,0.995c0,1.014,0.074,1.816,0.227,2.413c0.474-0.33,0.933-0.744,1.377-1.243
		c0.326-0.365,0.576-0.747,0.744-1.143c0.17-0.396,0.254-0.722,0.254-0.976c0-0.124-0.043-0.284-0.133-0.481
		c-0.1-0.229-0.15-0.396-0.15-0.5c0-0.104,0.037-0.194,0.113-0.27c0.076-0.074,0.166-0.111,0.273-0.111
		c0.131,0,0.236,0.062,0.312,0.189c0.078,0.127,0.116,0.354,0.116,0.68c0,0.827-0.354,1.696-1.059,2.604
		c-0.707,0.909-1.568,1.61-2.587,2.104c-0.125-0.438-0.241-1.09-0.35-1.953c-0.535,0.547-0.867,0.873-0.996,0.981
		c-0.26,0.222-0.512,0.409-0.754,0.563c-0.24,0.154-0.5,0.291-0.775,0.408c-0.026-0.229-0.09-0.601-0.188-1.111
		c-0.137-0.719-0.207-1.233-0.207-1.543c0-0.418,0.101-0.83,0.3-1.233c0.198-0.403,0.498-0.759,0.896-1.063
		c-0.715,0.021-1.224,0.104-1.524,0.252c-0.205,0.102-0.31,0.223-0.31,0.362c0,0.052,0.022,0.138,0.069,0.253
		c0.045,0.108,0.066,0.189,0.066,0.241c0,0.072-0.027,0.136-0.078,0.188c-0.053,0.052-0.117,0.078-0.197,0.078
		c-0.104,0-0.19-0.047-0.262-0.14c-0.072-0.093-0.107-0.223-0.107-0.392c0-0.322,0.142-0.584,0.427-0.784
		C95.162,112.746,95.881,112.609,96.908,112.63z"/>
</g>
<g>
	<path style="fill:#FFFFFF;" d="M105.738,116.02l0.195,0.267c-0.968,0.937-1.795,1.405-2.484,1.405
		c-0.281,0-0.494-0.098-0.643-0.291c-0.149-0.192-0.222-0.502-0.222-0.928c0-0.861,0.256-1.718,0.769-2.57
		c0.576-0.969,1.264-1.453,2.063-1.453c0.281,0,0.494,0.072,0.644,0.215c0.148,0.143,0.223,0.339,0.223,0.588
		c0,0.262-0.09,0.52-0.268,0.771c-0.179,0.254-0.494,0.518-0.951,0.789c-0.23,0.133-0.719,0.373-1.469,0.719
		c-0.035,0.218-0.054,0.425-0.054,0.621c0,0.285,0.045,0.484,0.133,0.598c0.091,0.111,0.22,0.169,0.39,0.169
		c0.16,0,0.338-0.046,0.531-0.14C104.857,116.654,105.236,116.4,105.738,116.02z M103.668,115.145
		c0.635-0.289,1.111-0.601,1.432-0.935c0.217-0.233,0.324-0.465,0.324-0.692c0-0.174-0.043-0.312-0.133-0.414
		c-0.088-0.103-0.203-0.153-0.346-0.153c-0.146,0-0.287,0.057-0.426,0.169c-0.187,0.148-0.343,0.374-0.468,0.676
		C103.871,114.236,103.742,114.688,103.668,115.145z"/>
	<path style="fill:#FFFFFF;" d="M108.506,113.518c0.318-0.358,0.633-0.621,0.943-0.787c0.309-0.168,0.582-0.252,0.818-0.252
		c0.274,0,0.498,0.113,0.662,0.338c0.166,0.227,0.25,0.565,0.25,1.021c0,0.659-0.152,1.306-0.457,1.937
		c-0.304,0.631-0.679,1.111-1.127,1.441c-0.447,0.329-0.884,0.494-1.312,0.494c-0.361,0-0.652-0.107-0.869-0.325
		s-0.324-0.499-0.324-0.845c0-0.277,0.054-0.663,0.158-1.158l0.699-3.189c0.17-0.78,0.383-1.375,0.639-1.782
		c0.256-0.408,0.595-0.734,1.013-0.978c0.418-0.244,0.813-0.365,1.188-0.365c0.226,0,0.389,0.039,0.494,0.117
		c0.104,0.078,0.155,0.185,0.155,0.316c0,0.121-0.047,0.223-0.143,0.303c-0.094,0.079-0.229,0.119-0.402,0.119
		c-0.131,0-0.354-0.029-0.674-0.09c-0.143-0.027-0.27-0.042-0.379-0.042c-0.197,0-0.357,0.108-0.48,0.325
		c-0.09,0.169-0.215,0.598-0.373,1.285L108.506,113.518z M109.67,113.148c-0.193,0-0.422,0.117-0.689,0.354
		c-0.266,0.237-0.518,0.656-0.754,1.259c-0.235,0.602-0.354,1.19-0.354,1.771c0,0.217,0.067,0.397,0.205,0.546
		c0.137,0.146,0.295,0.22,0.478,0.22c0.438,0,0.827-0.353,1.17-1.06c0.344-0.704,0.516-1.407,0.516-2.106
		c0-0.317-0.064-0.577-0.195-0.778C109.953,113.217,109.828,113.148,109.67,113.148z"/>
	<path style="fill:#FFFFFF;" d="M117.459,116.02l0.195,0.267c-0.965,0.937-1.793,1.405-2.484,1.405
		c-0.279,0-0.494-0.098-0.641-0.291c-0.148-0.192-0.223-0.502-0.223-0.928c0-0.861,0.256-1.718,0.77-2.57
		c0.576-0.969,1.264-1.453,2.064-1.453c0.278,0,0.493,0.072,0.641,0.215c0.148,0.143,0.223,0.339,0.223,0.588
		c0,0.262-0.088,0.52-0.266,0.771c-0.178,0.254-0.496,0.518-0.953,0.789c-0.229,0.133-0.717,0.373-1.467,0.719
		c-0.035,0.218-0.053,0.425-0.053,0.621c0,0.285,0.043,0.484,0.133,0.598c0.088,0.111,0.217,0.169,0.387,0.169
		c0.162,0,0.34-0.046,0.533-0.14C116.578,116.654,116.959,116.4,117.459,116.02z M115.389,115.145
		c0.635-0.289,1.113-0.601,1.432-0.935c0.218-0.233,0.326-0.465,0.326-0.692c0-0.174-0.045-0.312-0.133-0.414
		c-0.09-0.103-0.205-0.153-0.346-0.153c-0.146,0-0.289,0.057-0.428,0.169c-0.184,0.148-0.34,0.374-0.467,0.676
		C115.592,114.236,115.465,114.688,115.389,115.145z"/>
	<path style="fill:#FFFFFF;" d="M118.984,113.68l-0.17-0.242c0.418-0.36,0.781-0.627,1.094-0.795
		c0.209-0.117,0.365-0.176,0.467-0.176c0.15,0,0.271,0.076,0.361,0.229c0.131,0.218,0.258,0.691,0.385,1.424
		c0.488-0.73,0.92-1.236,1.295-1.514c0.375-0.278,0.689-0.416,0.941-0.416c0.129,0,0.233,0.037,0.312,0.115
		c0.08,0.076,0.119,0.172,0.119,0.284c0,0.126-0.056,0.229-0.166,0.312c-0.078,0.057-0.293,0.097-0.646,0.121
		c-0.287,0.017-0.541,0.113-0.758,0.295c-0.346,0.291-0.682,0.719-1.006,1.279l0.379,1.803c0.162,0.793,0.332,1.379,0.51,1.762
		c0.178,0.382,0.396,0.676,0.65,0.881c0.146,0.115,0.307,0.175,0.484,0.175c0.252,0,0.436-0.155,0.551-0.471
		c0.074-0.205,0.195-0.308,0.361-0.308c0.078,0,0.146,0.033,0.207,0.1c0.059,0.066,0.088,0.15,0.088,0.251
		c0,0.196-0.109,0.378-0.328,0.543c-0.219,0.164-0.5,0.247-0.844,0.247c-0.377,0-0.74-0.122-1.084-0.365
		c-0.347-0.242-0.646-0.633-0.896-1.17s-0.481-1.391-0.694-2.561c-0.078,0.107-0.205,0.289-0.377,0.543
		c-0.498,0.716-0.884,1.176-1.154,1.381c-0.271,0.205-0.533,0.308-0.781,0.308c-0.174,0-0.316-0.049-0.432-0.147
		c-0.117-0.098-0.172-0.215-0.172-0.353c0-0.112,0.037-0.21,0.112-0.293c0.074-0.082,0.16-0.124,0.261-0.124
		c0.102,0,0.207,0.069,0.312,0.205c0.092,0.121,0.178,0.182,0.262,0.182c0.056,0,0.115-0.019,0.185-0.055
		c0.098-0.057,0.229-0.177,0.396-0.361c0.235-0.262,0.418-0.486,0.543-0.676l0.733-1.104l-0.241-1.129
		c-0.063-0.305-0.127-0.502-0.193-0.588c-0.063-0.086-0.137-0.129-0.215-0.129c-0.062,0-0.144,0.031-0.25,0.096
		C119.359,113.371,119.158,113.52,118.984,113.68z"/>
	<path style="fill:#FFFFFF;" d="M123.557,113.956l-0.229-0.241c0.358-0.438,0.717-0.762,1.069-0.971
		c0.355-0.209,0.664-0.312,0.924-0.312c0.099,0,0.177,0.024,0.232,0.074c0.059,0.051,0.086,0.124,0.086,0.221
		c0,0.116-0.012,0.235-0.037,0.358c-0.024,0.123-0.104,0.413-0.24,0.871c0.604-0.615,1.017-0.995,1.236-1.14
		c0.371-0.246,0.709-0.369,1.019-0.369c0.2,0,0.37,0.098,0.508,0.291c0.14,0.191,0.207,0.484,0.207,0.873
		c0,0.975-0.297,1.898-0.894,2.775c-0.594,0.877-1.252,1.314-1.973,1.314c-0.285,0-0.568-0.078-0.852-0.235l-0.506,1.99
		c-0.031,0.121-0.047,0.22-0.047,0.296c0,0.148,0.055,0.255,0.164,0.318c0.17,0.102,0.526,0.185,1.071,0.248l-0.078,0.302
		c-0.635-0.052-1.133-0.078-1.495-0.078c-0.375,0-0.859,0.026-1.455,0.078l0.075-0.302c0.302-0.032,0.519-0.116,0.654-0.254
		c0.136-0.137,0.246-0.379,0.328-0.729l1.069-4.578c0.201-0.854,0.304-1.326,0.304-1.424c0-0.104-0.052-0.156-0.148-0.156
		C124.377,113.18,124.047,113.438,123.557,113.956z M124.756,116.805c0.311,0.316,0.629,0.477,0.957,0.477
		c0.473,0,0.887-0.377,1.244-1.129c0.355-0.752,0.533-1.485,0.533-2.201c0-0.229-0.049-0.402-0.15-0.521
		c-0.1-0.117-0.234-0.178-0.404-0.178c-0.188,0-0.399,0.096-0.637,0.283c-0.367,0.294-0.646,0.585-0.838,0.875
		c-0.139,0.209-0.268,0.57-0.391,1.085L124.756,116.805z"/>
	<path style="fill:#FFFFFF;" d="M131.85,116.02l0.195,0.267c-0.967,0.937-1.795,1.405-2.484,1.405c-0.281,0-0.494-0.098-0.643-0.291
		c-0.148-0.192-0.221-0.502-0.221-0.928c0-0.861,0.256-1.718,0.768-2.57c0.576-0.969,1.264-1.453,2.064-1.453
		c0.281,0,0.494,0.072,0.643,0.215s0.223,0.339,0.223,0.588c0,0.262-0.09,0.52-0.268,0.771c-0.178,0.254-0.494,0.518-0.951,0.789
		c-0.23,0.133-0.719,0.373-1.469,0.719c-0.035,0.218-0.053,0.425-0.053,0.621c0,0.285,0.045,0.484,0.133,0.598
		c0.09,0.111,0.219,0.169,0.389,0.169c0.16,0,0.338-0.046,0.531-0.14C130.969,116.654,131.348,116.4,131.85,116.02z
		 M129.779,115.145c0.635-0.289,1.111-0.601,1.432-0.935c0.217-0.233,0.324-0.465,0.324-0.692c0-0.174-0.043-0.312-0.133-0.414
		c-0.088-0.103-0.203-0.153-0.346-0.153c-0.146,0-0.287,0.057-0.427,0.169c-0.187,0.148-0.342,0.374-0.467,0.676
		C129.982,114.236,129.854,114.688,129.779,115.145z"/>
	<path style="fill:#FFFFFF;" d="M133.914,117.533h-0.883l0.414-1.622c0.201-0.798,0.377-1.554,0.527-2.269
		c0.034-0.178,0.053-0.287,0.053-0.332c0-0.097-0.043-0.146-0.129-0.146c-0.062,0-0.15,0.042-0.273,0.124
		c-0.121,0.082-0.342,0.286-0.662,0.611l-0.184-0.211c0.379-0.414,0.756-0.725,1.133-0.933c0.377-0.207,0.664-0.312,0.865-0.312
		c0.072,0,0.129,0.019,0.17,0.053s0.062,0.077,0.062,0.13c0,0.054-0.026,0.19-0.077,0.418l-0.259,1.085
		c0.397-0.643,0.851-1.189,1.353-1.646c0.24-0.217,0.44-0.326,0.604-0.326c0.119,0,0.219,0.039,0.297,0.117
		c0.08,0.078,0.119,0.17,0.119,0.273c0,0.109-0.039,0.201-0.115,0.277c-0.078,0.076-0.27,0.167-0.576,0.271
		c-0.293,0.1-0.529,0.221-0.713,0.361s-0.385,0.355-0.604,0.646c-0.219,0.289-0.371,0.541-0.457,0.756
		c-0.088,0.217-0.221,0.716-0.398,1.5L133.914,117.533z"/>
	<path style="fill:#FFFFFF;" d="M138.059,111.532l0.939-0.368l-0.426,1.688h1.225l-0.094,0.43h-1.227l-0.517,2.021
		c-0.164,0.605-0.246,1.027-0.246,1.266c0,0.107,0.022,0.187,0.068,0.234c0.045,0.049,0.106,0.072,0.186,0.072
		c0.123,0,0.312-0.074,0.562-0.225c0.332-0.195,0.646-0.42,0.947-0.668l0.226,0.276c-0.863,0.663-1.44,1.069-1.734,1.218
		c-0.29,0.149-0.524,0.225-0.702,0.225c-0.146,0-0.263-0.055-0.347-0.163c-0.086-0.108-0.127-0.285-0.127-0.53
		c0-0.29,0.074-0.732,0.226-1.326l0.602-2.4h-0.959l0.107-0.43h0.959L138.059,111.532z"/>
	<path style="fill:#FFFFFF;" d="M142.824,112.461c0.352,0,0.623,0.068,0.814,0.208c0.19,0.14,0.286,0.299,0.286,0.479
		c0,0.107-0.041,0.203-0.12,0.283c-0.082,0.08-0.181,0.121-0.293,0.121c-0.076,0-0.142-0.019-0.195-0.053
		c-0.055-0.034-0.135-0.119-0.236-0.256c-0.193-0.262-0.385-0.393-0.574-0.393c-0.162,0-0.305,0.062-0.43,0.189
		c-0.123,0.126-0.186,0.284-0.186,0.473c0,0.164,0.039,0.324,0.116,0.479c0.08,0.155,0.279,0.405,0.599,0.75
		c0.438,0.474,0.658,0.924,0.658,1.35c0,0.427-0.179,0.798-0.533,1.117c-0.355,0.319-0.812,0.479-1.373,0.479
		c-0.469,0-0.818-0.099-1.047-0.293c-0.229-0.195-0.343-0.437-0.343-0.722c0-0.141,0.044-0.257,0.13-0.35
		c0.088-0.093,0.192-0.14,0.319-0.14c0.108,0,0.205,0.037,0.283,0.111c0.077,0.074,0.118,0.162,0.118,0.264
		c0,0.039-0.004,0.092-0.008,0.155c-0.004,0.054-0.004,0.097-0.004,0.134c0,0.133,0.055,0.244,0.164,0.338
		c0.105,0.092,0.252,0.139,0.437,0.139c0.213,0,0.399-0.037,0.562-0.111c0.161-0.074,0.286-0.188,0.377-0.338
		c0.092-0.15,0.137-0.3,0.137-0.447c0-0.146-0.043-0.289-0.127-0.435c-0.086-0.146-0.275-0.384-0.572-0.718
		c-0.41-0.465-0.615-0.914-0.615-1.344c0-0.394,0.156-0.738,0.469-1.033C141.947,112.607,142.344,112.461,142.824,112.461z"/>
</g>
</svg>
