<?xml version="1.0" encoding="utf-8"?>
<!-- Generator: Adobe Illustrator 16.0.0, SVG Export Plug-In . SVG Version: 6.00 Build 0)  -->
<!DOCTYPE svg PUBLIC "-//W3C//DTD SVG 1.1//EN" "http://www.w3.org/Graphics/SVG/1.1/DTD/svg11.dtd">
<svg version="1.1" xmlns="http://www.w3.org/2000/svg" xmlns:xlink="http://www.w3.org/1999/xlink" x="0px" y="0px"
	 width="240.94px" height="155.91px" viewBox="0 0 240.94 155.91" enable-background="new 0 0 240.94 155.91" xml:space="preserve">
<g id="Layer_2_copy" display="none">
	<g display="inline">
		<g>
			<path fill="#DC4637" d="M-36.411-315.954c0-1.116-0.913-2.03-2.03-2.03h-78.167c-1.117,0-2.03,0.914-2.03,2.03v36.156
				c0,1.117,0.913,2.03,2.03,2.03h78.167c1.117,0,2.03-0.913,2.03-2.03V-315.954z"/>
		</g>
		<path fill="#DC4637" d="M-116.644-299.173c-0.125-0.148-0.271-0.277-0.422-0.326c-1.435-0.43-1.099,2.459-1.429,3.155
			c-0.692,1.455-2.51,1.657-3.787,0.92c-1.985-1.136-2.408,0.262-1.751,2c0.394,1.035,0.99,2.023,1.704,2.875
			c0.841,1.02,1.93,1.838,2.613,2.983c0.697,1.173,1.15,2.469,1.342,3.819c0.099,0.666,0.099,1.317,0.114,1.989
			c0.014,0.493,0.105,1.072,0.675,1.181c0.815,0.15,1.427-1.095,1.592-1.743c0.08-0.319,0.133-0.678,0.163-1.018
			c0.049-0.57,0.162-1.043-0.072-1.563c-0.285-0.625-0.301-1.365-0.323-2.055c-0.043-1.728-0.082-3.458-0.114-5.193
			c-0.031-1.681-0.06-3.362-0.083-5.041c-0.007-0.203-0.062-0.472-0.013-0.66c0.022-0.103,0.108-0.181,0.127-0.262
			c0.043-0.196,0.056-0.304-0.016-0.505C-116.382-298.784-116.501-298.994-116.644-299.173z"/>
	</g>
	<g display="inline">
		<g>
			<g>
				<path fill="#414242" d="M-238.518-282.576c-0.55,0-0.983,0.186-1.303,0.556c-0.318,0.373-0.478,0.88-0.478,1.526
					c0,0.664,0.154,1.177,0.461,1.539c0.307,0.362,0.744,0.542,1.312,0.542c0.349,0,0.748-0.063,1.195-0.189v0.517
					c-0.347,0.132-0.775,0.198-1.284,0.198c-0.738,0-1.307-0.227-1.707-0.68c-0.401-0.453-0.601-1.099-0.601-1.933
					c0-0.524,0.097-0.981,0.29-1.375c0.192-0.395,0.471-0.695,0.835-0.909c0.364-0.214,0.793-0.319,1.286-0.319
					c0.526,0,0.984,0.097,1.376,0.292l-0.246,0.505C-237.76-282.485-238.139-282.576-238.518-282.576z"/>
				<path fill="#414242" d="M-231.542-280.5c0,0.812-0.204,1.449-0.608,1.916c-0.405,0.463-0.969,0.696-1.689,0.696
					c-0.738,0-1.307-0.229-1.707-0.686c-0.402-0.456-0.602-1.102-0.602-1.936c0-0.824,0.201-1.466,0.603-1.92
					c0.401-0.454,0.972-0.682,1.711-0.682c0.719,0,1.281,0.23,1.685,0.694C-231.744-281.954-231.542-281.315-231.542-280.5z
					 M-235.531-280.5c0,0.687,0.145,1.207,0.434,1.563c0.289,0.354,0.708,0.531,1.258,0.531c0.554,0,0.974-0.176,1.256-0.53
					s0.424-0.876,0.424-1.564c0-0.683-0.141-1.2-0.423-1.553c-0.282-0.355-0.699-0.531-1.251-0.531
					c-0.555,0-0.976,0.178-1.265,0.534C-235.386-281.695-235.531-281.178-235.531-280.5z"/>
				<path fill="#414242" d="M-226.166-277.958h-0.664l-2.735-4.257h-0.027c0.037,0.499,0.055,0.958,0.055,1.375v2.882h-0.538v-5.072
					h0.657l2.729,4.239h0.027c-0.004-0.061-0.015-0.262-0.031-0.602c-0.016-0.339-0.021-0.581-0.017-0.726v-2.912h0.544V-277.958z"
					/>
				<path fill="#414242" d="M-220.53-277.958h-0.664l-2.734-4.257h-0.027c0.036,0.499,0.055,0.958,0.055,1.375v2.882h-0.538v-5.072
					h0.657l2.729,4.239h0.027c-0.004-0.061-0.014-0.262-0.03-0.602c-0.016-0.339-0.021-0.581-0.017-0.726v-2.912h0.543V-277.958z"/>
				<path fill="#414242" d="M-216.013-277.958h-2.79v-5.072h2.79v0.523h-2.207v1.635h2.074v0.52h-2.074v1.867h2.207V-277.958z"/>
				<path fill="#414242" d="M-212.409-282.576c-0.551,0-0.985,0.186-1.304,0.556c-0.317,0.373-0.478,0.88-0.478,1.526
					c0,0.664,0.154,1.177,0.461,1.539s0.744,0.542,1.312,0.542c0.35,0,0.748-0.063,1.195-0.189v0.517
					c-0.347,0.132-0.775,0.198-1.283,0.198c-0.738,0-1.307-0.227-1.707-0.68s-0.602-1.099-0.602-1.933
					c0-0.524,0.097-0.981,0.29-1.375c0.192-0.395,0.472-0.695,0.835-0.909s0.793-0.319,1.285-0.319c0.525,0,0.984,0.097,1.377,0.292
					l-0.246,0.505C-211.651-282.485-212.031-282.576-212.409-282.576z"/>
				<path fill="#414242" d="M-208.238-277.958h-0.582v-4.549h-1.585v-0.523h3.752v0.523h-1.585V-277.958z"/>
			</g>
			<g>
				<path fill="#414242" d="M-195.733-277.958v-5.072h0.582v5.072H-195.733z"/>
				<path fill="#414242" d="M-189.519-277.958h-0.664l-2.734-4.257h-0.028c0.036,0.499,0.055,0.958,0.055,1.375v2.882h-0.537v-5.072
					h0.657l2.729,4.239h0.027c-0.005-0.061-0.016-0.262-0.031-0.602c-0.016-0.339-0.021-0.581-0.017-0.726v-2.912h0.544V-277.958z"
					/>
				<path fill="#414242" d="M-187.209-277.958h-0.582v-5.072h2.79v0.523h-2.208v1.856h2.075v0.524h-2.075V-277.958z"/>
				<path fill="#414242" d="M-179.478-280.5c0,0.812-0.203,1.449-0.607,1.916c-0.404,0.463-0.969,0.696-1.689,0.696
					c-0.738,0-1.307-0.229-1.707-0.686s-0.602-1.102-0.602-1.936c0-0.824,0.201-1.466,0.604-1.92
					c0.401-0.454,0.972-0.682,1.711-0.682c0.721,0,1.281,0.23,1.686,0.694C-179.679-281.954-179.478-281.315-179.478-280.5z
					 M-183.467-280.5c0,0.687,0.146,1.207,0.435,1.563c0.288,0.354,0.707,0.531,1.258,0.531c0.555,0,0.973-0.176,1.256-0.53
					s0.425-0.876,0.425-1.564c0-0.683-0.142-1.2-0.423-1.553c-0.282-0.355-0.699-0.531-1.252-0.531
					c-0.554,0-0.976,0.178-1.264,0.534C-183.321-281.695-183.467-281.178-183.467-280.5z"/>
				<path fill="#414242" d="M-177.429-280.066v2.108h-0.582v-5.072h1.373c0.613,0,1.066,0.12,1.361,0.358
					c0.293,0.236,0.439,0.596,0.439,1.074c0,0.67-0.335,1.124-1.007,1.36l1.359,2.279h-0.688l-1.212-2.108H-177.429z
					 M-177.429-280.574h0.799c0.409,0,0.711-0.083,0.903-0.247c0.19-0.167,0.287-0.414,0.287-0.744c0-0.337-0.098-0.577-0.293-0.727
					c-0.195-0.147-0.509-0.222-0.94-0.222h-0.756V-280.574z"/>
				<path fill="#414242" d="M-171.11-277.958l-1.699-4.497h-0.026c0.031,0.357,0.048,0.78,0.048,1.271v3.226h-0.538v-5.072h0.877
					l1.585,4.186h0.027l1.599-4.186h0.87v5.072h-0.582v-3.268c0-0.375,0.016-0.783,0.049-1.223h-0.029l-1.71,4.49H-171.11z"/>
			</g>
			<g>
				<path fill="#414242" d="M-156.09-277.958v-5.072h0.581v5.072H-156.09z"/>
				<path fill="#414242" d="M-149.876-277.958h-0.663l-2.737-4.257h-0.026c0.036,0.499,0.056,0.958,0.056,1.375v2.882h-0.539v-5.072
					h0.658l2.729,4.239h0.026c-0.004-0.061-0.015-0.262-0.029-0.602c-0.018-0.339-0.023-0.581-0.019-0.726v-2.912h0.544V-277.958z"
					/>
				<path fill="#414242" d="M-145.324-279.308c0,0.447-0.161,0.795-0.479,1.045c-0.319,0.25-0.753,0.375-1.302,0.375
					c-0.593,0-1.05-0.078-1.369-0.233v-0.568c0.204,0.088,0.429,0.156,0.672,0.207c0.241,0.053,0.481,0.077,0.718,0.077
					c0.389,0,0.681-0.074,0.878-0.223c0.197-0.15,0.294-0.357,0.294-0.624c0-0.176-0.035-0.319-0.104-0.433
					c-0.069-0.11-0.187-0.215-0.35-0.31s-0.411-0.201-0.744-0.323c-0.467-0.168-0.798-0.369-0.999-0.6
					c-0.2-0.231-0.3-0.532-0.3-0.906c0-0.391,0.146-0.702,0.435-0.932c0.291-0.232,0.675-0.349,1.151-0.349
					c0.498,0,0.956,0.093,1.373,0.278l-0.182,0.513c-0.412-0.175-0.814-0.264-1.205-0.264c-0.309,0-0.549,0.067-0.723,0.201
					c-0.172,0.135-0.259,0.32-0.259,0.559c0,0.177,0.031,0.32,0.096,0.433c0.062,0.112,0.171,0.216,0.322,0.309
					c0.151,0.095,0.384,0.198,0.698,0.311c0.523,0.189,0.885,0.394,1.082,0.611C-145.423-279.937-145.324-279.653-145.324-279.308z"
					/>
				<path fill="#414242" d="M-140.774-281.552c0,0.514-0.174,0.907-0.521,1.186c-0.346,0.276-0.84,0.414-1.483,0.414h-0.59v1.994
					h-0.581v-5.072h1.298C-141.4-283.03-140.774-282.538-140.774-281.552z M-143.368-280.459h0.524c0.516,0,0.889-0.085,1.119-0.254
					c0.23-0.168,0.347-0.439,0.347-0.811c0-0.337-0.11-0.586-0.326-0.751c-0.217-0.164-0.554-0.245-1.013-0.245h-0.651V-280.459z"/>
				<path fill="#414242" d="M-139.379-277.958v-5.072h0.583v5.072H-139.379z"/>
				<path fill="#414242" d="M-136.491-280.066v2.108h-0.581v-5.072h1.373c0.612,0,1.067,0.12,1.361,0.358
					c0.292,0.236,0.438,0.596,0.438,1.074c0,0.67-0.335,1.124-1.008,1.36l1.36,2.279h-0.688l-1.214-2.108H-136.491z
					 M-136.491-280.574h0.799c0.409,0,0.712-0.083,0.902-0.247c0.193-0.167,0.289-0.414,0.289-0.744
					c0-0.337-0.098-0.577-0.294-0.727c-0.195-0.147-0.509-0.222-0.938-0.222h-0.758V-280.574z"/>
				<path fill="#414242" d="M-129.599-277.958h-2.79v-5.072h2.79v0.523h-2.208v1.635h2.074v0.52h-2.074v1.867h2.208V-277.958z"/>
			</g>
			<path fill="#414242" d="M-201.462-280.372c0,0.376-0.301,0.674-0.67,0.674s-0.669-0.298-0.669-0.674
				c0-0.374,0.3-0.675,0.669-0.675S-201.462-280.746-201.462-280.372z"/>
			<path fill="#414242" d="M-161.834-280.372c0,0.376-0.301,0.674-0.664,0.674c-0.371,0-0.67-0.298-0.67-0.674
				c0-0.374,0.299-0.675,0.67-0.675C-162.135-281.047-161.834-280.746-161.834-280.372z"/>
		</g>
		<g>
			<g>
				<path fill="#414242" d="M-193.249-306.893h11.35v14.174c-3.082,1.057-6.471,1.583-10.163,1.583
					c-4.054,0-7.187-1.175-9.399-3.526c-2.212-2.35-3.318-5.701-3.318-10.055c0-4.244,1.212-7.548,3.634-9.911
					c2.423-2.361,5.815-3.544,10.181-3.544c1.654,0,3.217,0.157,4.687,0.469c1.468,0.312,2.749,0.706,3.84,1.187l-2.249,5.577
					c-1.895-0.936-3.975-1.404-6.241-1.404c-2.075,0-3.679,0.676-4.812,2.023c-1.133,1.35-1.699,3.277-1.699,5.784
					c0,2.458,0.512,4.332,1.537,5.62c1.025,1.29,2.503,1.935,4.435,1.935c1.055,0,2.026-0.102,2.914-0.308v-4.117h-4.694V-306.893z"
					/>
				<path fill="#414242" d="M-176.54-317.793h9.174c3.574,0,6.228,0.53,7.959,1.592c1.733,1.061,2.6,2.713,2.6,4.954
					c0,1.476-0.377,2.734-1.133,3.778s-1.749,1.715-2.985,2.014v0.181c1.63,0.433,2.811,1.152,3.543,2.159
					c0.73,1.007,1.097,2.314,1.097,3.92c0,2.388-0.896,4.268-2.688,5.641c-1.794,1.373-4.236,2.059-7.33,2.059h-10.235V-317.793z
					 M-169.434-307.702h2.139c1.021,0,1.809-0.21,2.367-0.629c0.558-0.42,0.835-1.045,0.835-1.871c0-1.475-1.114-2.214-3.345-2.214
					h-1.996V-307.702z M-169.434-302.504v5.522h2.499c2.218,0,3.33-0.936,3.33-2.807c0-0.875-0.3-1.546-0.892-2.015
					c-0.595-0.468-1.456-0.701-2.582-0.701H-169.434z"/>
				<path fill="#414242" d="M-141.159-306.893h11.351v14.174c-3.083,1.057-6.469,1.583-10.162,1.583
					c-4.053,0-7.187-1.175-9.398-3.526c-2.213-2.35-3.318-5.701-3.318-10.055c0-4.244,1.211-7.548,3.633-9.911
					c2.423-2.361,5.816-3.544,10.182-3.544c1.654,0,3.217,0.157,4.685,0.469c1.47,0.312,2.75,0.706,3.84,1.187l-2.248,5.577
					c-1.894-0.936-3.975-1.404-6.24-1.404c-2.075,0-3.679,0.676-4.812,2.023c-1.134,1.35-1.699,3.277-1.699,5.784
					c0,2.458,0.512,4.332,1.537,5.62c1.026,1.29,2.505,1.935,4.434,1.935c1.056,0,2.026-0.102,2.915-0.308v-4.117h-4.696V-306.893z"
					/>
			</g>
		</g>
		<g>
			<path fill="#ED174F" d="M-231.018-295.515l0.003,0.002c1.086,0,2.177-0.407,3.008-1.238l3.822,3.813l0,0
				c3.772-3.77,3.772-9.885,0-13.654l-3.825,3.824l0,0c1.656,1.658,1.658,4.347,0,6.008
				C-228.855-295.926-229.92-295.516-231.018-295.515z"/>
			<g>
				<defs>
					<path id="SVGID_1_" d="M-231.015-290.104l-0.003-5.411c1.098-0.001,2.163-0.411,3.008-1.245l0,0
						c1.658-1.661,1.656-4.35,0-6.008l0,0l0,0l3.825-3.824c3.772,3.77,3.772,9.885,0,13.654l0,0
						C-226.073-291.055-228.553-290.099-231.015-290.104L-231.015-290.104z"/>
				</defs>
				<clipPath id="SVGID_2_">
					<use xlink:href="#SVGID_1_"  overflow="visible"/>
				</clipPath>
				<path opacity="0.43" clip-path="url(#SVGID_2_)" fill="#49A848" d="M-211.028-305.461l-5.146-1.677
					c-0.341,1.037-1.066,1.934-2.118,2.472l0,0c-2.09,1.06-4.641,0.226-5.71-1.862l0,0h-0.003l-4.821,2.451
					c2.847,5.588,7.742,6.898,12.992,4.231l0,0C-213.464-301.055-211.793-303.118-211.028-305.461L-211.028-305.461z"/>
			</g>
			<path fill="#FFC425" d="M-214.344-316.427c-3.776-3.769-9.889-3.769-13.665,0l0,0l3.824,3.834
				c1.666-1.659,4.353-1.659,6.014-0.003l0,0c0.838,0.832,1.245,1.907,1.245,3.007l0,0l0,0h5.411
				C-211.515-312.06-212.464-314.548-214.344-316.427L-214.344-316.427z"/>
			<path fill="#0079C1" d="M-237.838-292.928c3.769,3.774,9.881,3.778,13.657,0l0,0l-3.826-3.823c-1.663,1.659-4.349,1.65-6.012,0
				l0,0c-0.831-0.84-1.239-1.914-1.24-3.005l0,0l0,0h-5.409C-240.672-297.293-239.721-294.808-237.838-292.928L-237.838-292.928z"/>
			<path fill="#49A942" d="M-216.906-309.555c-0.003,1.101-0.417,2.164-1.256,3.003c-1.67,1.649-4.357,1.636-6.01-0.028l0,0
				c-3.757-3.788-9.87-3.813-13.663-0.062c-1.886,1.877-2.851,4.355-2.857,6.821l5.414,0.028c0.003-1.094,0.416-2.172,1.255-3.002
				c1.671-1.654,4.353-1.642,6.008,0.027l0.004-0.006l-0.004,0.006c3.759,3.784,9.874,3.808,13.659,0.057
				c1.892-1.867,2.851-4.351,2.858-6.823L-216.906-309.555z"/>
			<path fill="#ED174F" d="M-224.185-306.591h0.004c-1.654-1.659-1.653-4.35-0.004-6.002l-3.824-3.834
				c-1.93,1.939-2.864,4.486-2.815,7.021C-228.411-309.36-226.02-308.432-224.185-306.591z"/>
		</g>
	</g>
	<g display="inline">
		<g>
			<rect x="-114.423" y="-312.754" fill="none" width="79.98" height="27.044"/>
			<text transform="matrix(1.0074 0 0 1 -114.4229 -299.9331)" fill="#FFFFFF" font-family="'Bevan'" font-size="18.059">KUALA</text>
		</g>
		<text transform="matrix(1.0074 0 0 1 -114.333 -283.5723)" fill="#FFFFFF" font-family="'Bevan'" font-size="14.1446">LUMPUR</text>
	</g>
</g>
<g id="Layer_2_copy_3">
	<g>
		<path fill="#6D6D6D" d="M106.061,104.678c0,0.376-0.301,0.674-0.67,0.674s-0.669-0.298-0.669-0.674c0-0.374,0.3-0.675,0.669-0.675
			S106.061,104.304,106.061,104.678z"/>
		<path fill="#6D6D6D" d="M145.454,104.678c0,0.376-0.301,0.674-0.664,0.674c-0.371,0-0.67-0.298-0.67-0.674
			c0-0.374,0.299-0.675,0.67-0.675C145.153,104.003,145.454,104.304,145.454,104.678z"/>
		<g>
			<path fill="#6D6D6D" d="M126.721,73.44c0,3.534-1.048,6.35-3.145,8.445c-2.38,2.498-5.478,3.746-9.294,3.746
				c-3.651,0-6.756-1.266-9.311-3.799c-2.557-2.532-3.834-5.671-3.834-9.417s1.277-6.885,3.834-9.417
				c2.555-2.532,5.659-3.799,9.311-3.799c1.813,0,3.545,0.354,5.194,1.061c1.648,0.706,2.969,1.648,3.958,2.826l-2.227,2.227
				c-1.673-2.002-3.981-3.004-6.926-3.004c-2.662,0-4.965,0.937-6.908,2.81s-2.915,4.306-2.915,7.297
				c0,2.992,0.972,5.424,2.915,7.297s4.246,2.81,6.908,2.81c2.827,0,5.182-0.942,7.067-2.827c1.225-1.225,1.932-2.933,2.12-5.124
				h-9.188v-3.039h12.262C126.662,72.192,126.721,72.828,126.721,73.44z"/>
			<path fill="#6D6D6D" d="M130.677,85.066V59.766h9.153c1.979,0,3.692,0.653,5.142,1.961c1.448,1.308,2.173,2.951,2.173,4.93
				c0,1.201-0.312,2.262-0.937,3.181c-0.624,0.918-1.454,1.613-2.491,2.084v0.142c1.249,0.424,2.272,1.154,3.074,2.191
				c0.801,1.036,1.202,2.238,1.202,3.604c0,2.073-0.76,3.794-2.279,5.159c-1.52,1.367-3.316,2.05-5.389,2.05H130.677z
				 M133.929,70.614h5.901c1.225,0,2.209-0.407,2.95-1.22c0.742-0.812,1.113-1.701,1.113-2.668c0-0.966-0.359-1.849-1.077-2.649
				c-0.72-0.801-1.667-1.202-2.845-1.202h-6.043V70.614z M133.929,81.957h6.537c1.248,0,2.262-0.436,3.039-1.308
				c0.777-0.871,1.166-1.825,1.166-2.862c0-1.036-0.4-1.984-1.201-2.845c-0.801-0.859-1.85-1.29-3.145-1.29h-6.396V81.957z"/>
			<path fill="#6D6D6D" d="M176.015,73.44c0,3.534-1.048,6.35-3.145,8.445c-2.381,2.498-5.478,3.746-9.294,3.746
				c-3.651,0-6.755-1.266-9.311-3.799c-2.557-2.532-3.835-5.671-3.835-9.417s1.278-6.885,3.835-9.417
				c2.556-2.532,5.659-3.799,9.311-3.799c1.814,0,3.546,0.354,5.194,1.061c1.649,0.706,2.969,1.648,3.958,2.826l-2.226,2.227
				c-1.674-2.002-3.981-3.004-6.927-3.004c-2.662,0-4.965,0.937-6.908,2.81s-2.915,4.306-2.915,7.297
				c0,2.992,0.972,5.424,2.915,7.297s4.246,2.81,6.908,2.81c2.827,0,5.183-0.942,7.067-2.827c1.225-1.225,1.932-2.933,2.12-5.124
				h-9.188v-3.039h12.262C175.956,72.192,176.015,72.828,176.015,73.44z"/>
		</g>
		<g>
			<path fill="#6D6D6D" d="M67.655,107.279c-0.769,0-1.413-0.261-1.934-0.781s-0.781-1.17-0.781-1.948s0.261-1.428,0.781-1.948
				s1.165-0.78,1.934-0.78c0.788,0,1.428,0.284,1.919,0.854l-0.467,0.452c-0.355-0.442-0.839-0.664-1.452-0.664
				c-0.569,0-1.05,0.192-1.44,0.576c-0.392,0.385-0.588,0.889-0.588,1.511c0,0.623,0.196,1.126,0.588,1.511
				c0.391,0.384,0.871,0.576,1.44,0.576c0.628,0,1.163-0.253,1.605-0.759l0.467,0.467c-0.238,0.287-0.537,0.515-0.897,0.683
				S68.079,107.279,67.655,107.279z"/>
			<path fill="#6D6D6D" d="M74.824,106.487c-0.513,0.527-1.151,0.792-1.915,0.792s-1.402-0.265-1.916-0.792
				c-0.513-0.528-0.77-1.174-0.77-1.938s0.257-1.409,0.77-1.938c0.514-0.527,1.152-0.791,1.916-0.791
				c0.759,0,1.396,0.265,1.911,0.795s0.773,1.175,0.773,1.934C75.594,105.313,75.338,105.959,74.824,106.487z M71.49,106.05
				c0.387,0.392,0.858,0.587,1.419,0.587c0.56,0,1.032-0.195,1.419-0.587s0.58-0.892,0.58-1.5s-0.193-1.107-0.58-1.499
				s-0.859-0.588-1.419-0.588c-0.561,0-1.032,0.196-1.419,0.588c-0.388,0.392-0.58,0.891-0.58,1.499S71.103,105.658,71.49,106.05z"
				/>
			<path fill="#6D6D6D" d="M76.426,107.162v-5.225h0.817l2.539,4.064h0.029l-0.029-1.007v-3.058h0.672v5.225h-0.701l-2.655-4.262
				h-0.029l0.029,1.008v3.254H76.426z"/>
			<path fill="#6D6D6D" d="M81.541,107.162v-5.225h0.817l2.539,4.064h0.029l-0.029-1.007v-3.058h0.672v5.225h-0.701l-2.655-4.262
				h-0.029l0.029,1.008v3.254H81.541z"/>
			<path fill="#6D6D6D" d="M89.706,102.58h-2.379v1.656h2.146v0.627h-2.146v1.656h2.379v0.643h-3.05v-5.225h3.05V102.58z"/>
			<path fill="#6D6D6D" d="M92.96,107.279c-0.769,0-1.413-0.261-1.934-0.781s-0.78-1.17-0.78-1.948s0.26-1.428,0.78-1.948
				s1.165-0.78,1.934-0.78c0.788,0,1.428,0.284,1.919,0.854l-0.467,0.452c-0.355-0.442-0.839-0.664-1.452-0.664
				c-0.569,0-1.05,0.192-1.44,0.576c-0.392,0.385-0.588,0.889-0.588,1.511c0,0.623,0.196,1.126,0.588,1.511
				c0.391,0.384,0.871,0.576,1.44,0.576c0.628,0,1.163-0.253,1.605-0.759l0.467,0.467c-0.238,0.287-0.537,0.515-0.897,0.683
				S93.384,107.279,92.96,107.279z"/>
			<path fill="#6D6D6D" d="M97.638,107.162h-0.672v-4.582h-1.459v-0.643h3.59v0.643h-1.459V107.162z"/>
		</g>
		<g>
			<path fill="#6D6D6D" d="M112.256,107.162v-5.225h0.671v5.225H112.256z"/>
			<path fill="#6D6D6D" d="M113.978,107.162v-5.225h0.817l2.539,4.064h0.029l-0.029-1.007v-3.058h0.672v5.225h-0.701l-2.655-4.262
				h-0.029l0.029,1.008v3.254H113.978z"/>
			<path fill="#6D6D6D" d="M119.728,107.162h-0.672v-5.225h3.051v0.643h-2.379v1.715h2.146v0.627h-2.146V107.162z"/>
			<path fill="#6D6D6D" d="M127.138,106.487c-0.514,0.527-1.152,0.792-1.916,0.792s-1.402-0.265-1.915-0.792
				c-0.514-0.528-0.771-1.174-0.771-1.938s0.257-1.409,0.771-1.938c0.513-0.527,1.151-0.791,1.915-0.791
				c0.759,0,1.396,0.265,1.912,0.795s0.773,1.175,0.773,1.934C127.907,105.313,127.65,105.959,127.138,106.487z M123.803,106.05
				c0.387,0.392,0.858,0.587,1.419,0.587c0.56,0,1.033-0.195,1.42-0.587s0.58-0.892,0.58-1.5s-0.193-1.107-0.58-1.499
				s-0.86-0.588-1.42-0.588c-0.561,0-1.032,0.196-1.419,0.588s-0.58,0.891-0.58,1.499S123.416,105.658,123.803,106.05z"/>
			<path fill="#6D6D6D" d="M128.703,107.162v-5.225h1.78c0.442,0,0.825,0.147,1.148,0.441c0.324,0.295,0.486,0.665,0.486,1.113
				c0,0.364-0.12,0.687-0.358,0.967c-0.238,0.279-0.536,0.456-0.89,0.528l-0.015,0.022l1.467,2.123v0.029h-0.796l-1.408-2.116
				h-0.744v2.116H128.703z M129.374,104.419h1.08c0.268,0,0.497-0.088,0.689-0.263c0.192-0.176,0.288-0.396,0.288-0.664
				c0-0.229-0.085-0.438-0.255-0.628c-0.171-0.189-0.396-0.284-0.679-0.284h-1.124V104.419z"/>
			<path fill="#6D6D6D" d="M132.92,107.162v-5.225h0.672l1.815,3.182h0.03l1.815-3.182h0.673v5.225h-0.673v-3.102l0.029-0.875
				h-0.029l-1.633,2.867h-0.395l-1.634-2.867h-0.029l0.029,0.875v3.102H132.92z"/>
		</g>
		<g>
			<path fill="#6D6D6D" d="M152.019,107.162v-5.225h0.672v5.225H152.019z"/>
			<path fill="#6D6D6D" d="M153.741,107.162v-5.225h0.817l2.539,4.064h0.029l-0.029-1.007v-3.058h0.671v5.225h-0.7l-2.657-4.262
				h-0.029l0.029,1.008v3.254H153.741z"/>
			<path fill="#6D6D6D" d="M160.293,107.279c-0.38,0-0.75-0.124-1.112-0.373c-0.363-0.248-0.6-0.596-0.712-1.043l0.613-0.248
				c0.072,0.287,0.223,0.529,0.448,0.726c0.227,0.197,0.48,0.296,0.763,0.296c0.292,0,0.541-0.076,0.748-0.229
				s0.31-0.361,0.31-0.624c0-0.292-0.103-0.517-0.31-0.675s-0.534-0.306-0.981-0.441c-0.462-0.146-0.812-0.335-1.051-0.565
				c-0.238-0.231-0.357-0.527-0.357-0.887c0-0.375,0.148-0.701,0.445-0.978c0.296-0.277,0.683-0.416,1.16-0.416
				c0.442,0,0.803,0.11,1.079,0.332c0.277,0.221,0.458,0.463,0.54,0.726l-0.612,0.256c-0.044-0.166-0.152-0.319-0.325-0.46
				c-0.173-0.142-0.395-0.212-0.667-0.212c-0.258,0-0.479,0.072-0.661,0.216c-0.182,0.144-0.273,0.322-0.273,0.536
				c0,0.194,0.084,0.358,0.252,0.492s0.414,0.254,0.74,0.361c0.258,0.083,0.474,0.163,0.646,0.241
				c0.172,0.077,0.348,0.181,0.525,0.31c0.177,0.129,0.311,0.289,0.401,0.481c0.09,0.192,0.134,0.415,0.134,0.668
				s-0.052,0.479-0.156,0.679s-0.243,0.357-0.416,0.474c-0.173,0.117-0.358,0.206-0.558,0.267
				C160.706,107.248,160.502,107.279,160.293,107.279z"/>
			<path fill="#6D6D6D" d="M163.525,107.162h-0.671v-5.225h1.78c0.442,0,0.825,0.147,1.149,0.441
				c0.323,0.295,0.485,0.665,0.485,1.113c0,0.447-0.162,0.818-0.485,1.112c-0.324,0.295-0.707,0.441-1.149,0.441h-1.109V107.162z
				 M163.525,104.404h1.124c0.282,0,0.508-0.095,0.679-0.285c0.17-0.189,0.255-0.398,0.255-0.627s-0.085-0.438-0.255-0.628
				c-0.171-0.189-0.396-0.284-0.679-0.284h-1.124V104.404z"/>
			<path fill="#6D6D6D" d="M166.97,107.162v-5.225h0.671v5.225H166.97z"/>
			<path fill="#6D6D6D" d="M168.69,107.162v-5.225h1.781c0.443,0,0.826,0.147,1.149,0.441c0.323,0.295,0.485,0.665,0.485,1.113
				c0,0.364-0.119,0.687-0.357,0.967c-0.238,0.279-0.535,0.456-0.891,0.528l-0.015,0.022l1.467,2.123v0.029h-0.795l-1.408-2.116
				h-0.744v2.116H168.69z M169.363,104.419h1.079c0.268,0,0.498-0.088,0.689-0.263c0.192-0.176,0.289-0.396,0.289-0.664
				c0-0.229-0.086-0.438-0.256-0.628s-0.396-0.284-0.679-0.284h-1.123V104.419z"/>
			<path fill="#6D6D6D" d="M175.959,102.58h-2.379v1.656h2.146v0.627h-2.146v1.656h2.379v0.643h-3.05v-5.225h3.05V102.58z"/>
		</g>
		<g>
			<g>
				<defs>
					<path id="SVGID_3_" d="M70.789,76.413c0,0,0.001,0,0.001-0.002c0.002-2.086,1.692-3.777,3.778-3.777
						c1.043,0,1.988,0.423,2.67,1.105c0.003,0.002,0.004,0.004,0.004,0.004c0.683,0.682,1.105,1.628,1.105,2.67
						c0,1.043-0.423,1.987-1.105,2.67c-0.685,0.685-1.631,1.109-2.674,1.109C72.482,80.192,70.789,78.5,70.789,76.413 M81.396,69.59
						c0,0-0.001-0.003-0.003-0.003c-0.684-0.683-1.105-1.628-1.105-2.671s0.422-1.987,1.105-2.671
						c0.684-0.686,1.63-1.107,2.673-1.107c2.087,0,3.779,1.692,3.779,3.778v0.001c-0.001,2.088-1.693,3.777-3.779,3.777
						C83.022,70.694,82.077,70.272,81.396,69.59 M77.238,60.092c-1.711,1.714-2.781,4.069-2.82,6.674
						c-5.261,0.081-9.501,4.366-9.501,9.646c0,0.002-0.001,0.002-0.001,0.002c0,5.331,4.322,9.652,9.652,9.652
						c2.666,0,5.08-1.08,6.827-2.827c1.713-1.715,2.781-4.069,2.821-6.674c5.26-0.082,9.5-4.368,9.501-9.647v-0.001
						c0-5.331-4.321-9.651-9.652-9.651C81.4,57.265,78.985,58.344,77.238,60.092"/>
				</defs>
				<clipPath id="SVGID_4_">
					<use xlink:href="#SVGID_3_"  overflow="visible"/>
				</clipPath>
				<path clip-path="url(#SVGID_4_)" fill="#DC4637" d="M77.242,73.743c0.683,0.682,1.105,1.627,1.105,2.67
					s-0.423,1.987-1.105,2.672l4.153,4.153c1.713-1.715,2.781-4.069,2.821-6.674c-0.051,0-0.1,0.002-0.151,0.002
					C81.401,76.566,78.988,75.488,77.242,73.743"/>
				<path clip-path="url(#SVGID_4_)" fill="#DC4637" d="M81.393,69.587c-0.684-0.683-1.105-1.628-1.105-2.671
					s0.422-1.987,1.105-2.671l-4.154-4.153c-1.711,1.714-2.781,4.069-2.82,6.674c0.051-0.001,0.1-0.004,0.15-0.004
					C77.232,66.762,79.646,67.842,81.393,69.587"/>
				<g opacity="0.2" clip-path="url(#SVGID_4_)">
					<g>
						<defs>
							<rect id="SVGID_5_" x="80.287" y="67.009" width="1.105" height="2.578"/>
						</defs>
						<clipPath id="SVGID_6_">
							<use xlink:href="#SVGID_5_"  overflow="visible"/>
						</clipPath>
						<path clip-path="url(#SVGID_6_)" fill="#FFFFFF" d="M80.291,67.009c-0.001,0.031-0.004,0.062-0.004,0.093
							c0,0.734,0.212,1.417,0.574,1.996c0.182,0.157,0.36,0.318,0.531,0.489C80.73,68.924,80.316,68.015,80.291,67.009"/>
					</g>
				</g>
			</g>
			<g>
				<defs>
					<path id="SVGID_7_" d="M77.282,73.783l6.238,6.24c0.285-0.705,0.487-1.449,0.599-2.224c0.059-0.404,0.091-0.816,0.097-1.235
						c-0.05,0.001-0.1,0.002-0.15,0.002c-2.647,0-5.046-1.063-6.789-2.788C77.276,73.778,77.28,73.781,77.282,73.783"/>
				</defs>
				<clipPath id="SVGID_8_">
					<use xlink:href="#SVGID_7_"  overflow="visible"/>
				</clipPath>
				<defs>
					<filter id="Adobe_OpacityMaskFilter" filterUnits="userSpaceOnUse" x="74.152" y="70.308" width="13.188" height="13.186">
						<feColorMatrix  type="matrix" values="1 0 0 0 0  0 1 0 0 0  0 0 1 0 0  0 0 0 1 0"/>
					</filter>
				</defs>
				<mask maskUnits="userSpaceOnUse" x="74.152" y="70.308" width="13.188" height="13.186" id="SVGID_9_">
					<g filter="url(#Adobe_OpacityMaskFilter)">
						
							<radialGradient id="SVGID_10_" cx="-863.8911" cy="-57.3779" r="0.1862" gradientTransform="matrix(34.7203 34.7203 34.7203 -34.7203 32063.8672 28076.1133)" gradientUnits="userSpaceOnUse">
							<stop  offset="0" style="stop-color:#333333"/>
							<stop  offset="1" style="stop-color:#050505"/>
						</radialGradient>
						<polygon clip-path="url(#SVGID_8_)" fill="url(#SVGID_10_)" points="80.747,70.308 87.34,76.899 80.747,83.493 74.152,76.899 
													"/>
					</g>
				</mask>
				
					<radialGradient id="SVGID_11_" cx="-863.8911" cy="-57.3779" r="0.1862" gradientTransform="matrix(34.7203 34.7203 34.7203 -34.7203 32063.8672 28076.1133)" gradientUnits="userSpaceOnUse">
					<stop  offset="0" style="stop-color:#3F2723"/>
					<stop  offset="1" style="stop-color:#3F2723"/>
				</radialGradient>
				<polygon clip-path="url(#SVGID_8_)" mask="url(#SVGID_9_)" fill="url(#SVGID_11_)" points="80.747,70.308 87.34,76.899 
					80.747,83.493 74.152,76.899 				"/>
			</g>
			<g>
				<defs>
					<path id="SVGID_12_" d="M70.789,76.413c0,0,0.001,0,0.001-0.002c0.002-2.086,1.692-3.777,3.778-3.777
						c1.043,0,1.988,0.423,2.67,1.105c0.003,0.002,0.004,0.004,0.004,0.004c0.683,0.682,1.105,1.628,1.105,2.67
						c0,1.043-0.423,1.987-1.105,2.67c-0.685,0.685-1.631,1.109-2.674,1.109C72.482,80.192,70.789,78.5,70.789,76.413 M81.396,69.59
						c0,0-0.001-0.003-0.003-0.003c-0.684-0.683-1.105-1.628-1.105-2.671s0.422-1.987,1.105-2.671
						c0.684-0.686,1.63-1.107,2.673-1.107c2.087,0,3.779,1.692,3.779,3.778v0.001c-0.001,2.088-1.693,3.777-3.779,3.777
						C83.022,70.694,82.077,70.272,81.396,69.59 M77.238,60.092c-1.711,1.714-2.781,4.069-2.82,6.674
						c-5.261,0.081-9.501,4.366-9.501,9.646c0,0.002-0.001,0.002-0.001,0.002c0,5.331,4.322,9.652,9.652,9.652
						c2.666,0,5.08-1.08,6.827-2.827c1.713-1.715,2.781-4.069,2.821-6.674c5.26-0.082,9.5-4.368,9.501-9.647v-0.001
						c0-5.331-4.321-9.651-9.652-9.651C81.4,57.265,78.985,58.344,77.238,60.092"/>
				</defs>
				<clipPath id="SVGID_13_">
					<use xlink:href="#SVGID_12_"  overflow="visible"/>
				</clipPath>
				<g opacity="0.2" clip-path="url(#SVGID_13_)">
					<g>
						<defs>
							<rect id="SVGID_14_" x="63.301" y="65.255" width="33.448" height="14.307"/>
						</defs>
						<clipPath id="SVGID_15_">
							<use xlink:href="#SVGID_14_"  overflow="visible"/>
						</clipPath>
						<g clip-path="url(#SVGID_15_)">
							<defs>
								<rect id="SVGID_16_" x="63.301" y="65.255" width="33.448" height="14.307"/>
							</defs>
							<clipPath id="SVGID_17_">
								<use xlink:href="#SVGID_16_"  overflow="visible"/>
							</clipPath>
							<g transform="matrix(1 0 0 1 -3.814697e-06 0)" clip-path="url(#SVGID_17_)">
								
									<image overflow="visible" width="180" height="77" xlink:href="A1D41DF079CCB978.png"  transform="matrix(0.1858 0 0 0.1858 63.3008 65.2549)">
								</image>
							</g>
						</g>
					</g>
				</g>
				<path clip-path="url(#SVGID_13_)" fill="#0F9D58" d="M87.845,66.917c-0.001,2.088-1.693,3.779-3.779,3.779
					c-1.043,0-1.988-0.424-2.67-1.106c0,0-0.001-0.003-0.003-0.003c-1.746-1.745-4.16-2.825-6.824-2.825
					c-0.051,0-0.1,0.003-0.15,0.004c-5.261,0.081-9.501,4.366-9.501,9.646h5.873c0-2.086,1.692-3.777,3.778-3.777
					c1.043,0,1.988,0.423,2.67,1.105c0.003,0.002,0.004,0.002,0.004,0.004c1.746,1.745,4.159,2.823,6.823,2.823
					c0.052,0,0.101-0.002,0.151-0.002c5.26-0.082,9.5-4.368,9.501-9.647H87.845z"/>
				<g opacity="0.2" clip-path="url(#SVGID_13_)">
					<g>
						<defs>
							<rect id="SVGID_18_" x="70.79" y="66.917" width="22.928" height="9.649"/>
						</defs>
						<clipPath id="SVGID_19_">
							<use xlink:href="#SVGID_18_"  overflow="visible"/>
						</clipPath>
						<path clip-path="url(#SVGID_19_)" fill="#273238" d="M70.79,76.411c0.002-2.086,1.692-3.777,3.778-3.777
							c1.043,0,1.988,0.423,2.67,1.105c0.003,0.002,0.004,0.004,0.004,0.004c1.746,1.745,4.159,2.823,6.823,2.823
							c0.052,0,0.101-0.002,0.151-0.002c5.26-0.082,9.5-4.367,9.501-9.647h-0.005c-0.101,5.194-4.298,9.382-9.496,9.462
							c-0.051,0.001-0.1,0.003-0.151,0.003c-2.664,0-5.077-1.08-6.823-2.826c0,0-0.001,0-0.004,0
							c-0.682-0.685-1.627-1.107-2.67-1.107c-2.086,0-3.776,1.691-3.778,3.777"/>
					</g>
				</g>
				<path clip-path="url(#SVGID_13_)" fill="#F3B41B" d="M84.065,63.138c2.087,0,3.779,1.692,3.779,3.778v0.001h5.873v-0.001
					c0-5.331-4.321-9.651-9.652-9.651c-2.665,0-5.08,1.079-6.827,2.827l4.154,4.153C82.076,63.56,83.022,63.138,84.065,63.138"/>
				<g opacity="0.2" clip-path="url(#SVGID_13_)">
					<g>
						<defs>
							<rect id="SVGID_20_" x="74.418" y="57.265" width="19.3" height="9.652"/>
						</defs>
						<clipPath id="SVGID_21_">
							<use xlink:href="#SVGID_20_"  overflow="visible"/>
						</clipPath>
						<path clip-path="url(#SVGID_21_)" fill="#FFFFFF" d="M77.238,60.277c1.747-1.746,4.162-2.826,6.827-2.826
							c5.271,0,9.548,4.222,9.647,9.466h0.005v-0.001c0-5.331-4.321-9.651-9.652-9.651c-2.665,0-5.08,1.079-6.827,2.827
							c-1.711,1.714-2.781,4.069-2.82,6.674c0.003,0,0.004,0,0.006,0C74.512,64.234,75.568,61.95,77.238,60.277"/>
					</g>
				</g>
				<g opacity="0.2" clip-path="url(#SVGID_13_)">
					<g>
						<defs>
							<rect id="SVGID_22_" x="64.917" y="66.762" width="22.928" height="9.649"/>
						</defs>
						<clipPath id="SVGID_23_">
							<use xlink:href="#SVGID_22_"  overflow="visible"/>
						</clipPath>
						<path clip-path="url(#SVGID_23_)" fill="#FFFFFF" d="M87.845,66.917c-0.001,2.088-1.693,3.779-3.779,3.779
							c-1.043,0-1.988-0.424-2.67-1.106c0,0-0.001-0.003-0.003-0.003c-1.746-1.745-4.16-2.825-6.824-2.825
							c-0.051,0-0.1,0.003-0.15,0.004c-5.261,0.081-9.501,4.366-9.501,9.646h0.004c0.1-5.192,4.299-9.381,9.497-9.46
							c0.051-0.001,0.1-0.004,0.15-0.004c2.664,0,5.078,1.08,6.824,2.826c0.002,0,0.003,0,0.003,0.001
							c0.682,0.684,1.627,1.106,2.67,1.106c2.086,0,3.778-1.69,3.779-3.777V66.917z"/>
					</g>
				</g>
				<g opacity="0.2" clip-path="url(#SVGID_13_)">
					<g>
						<defs>
							<rect id="SVGID_24_" x="80.285" y="64.154" width="1.107" height="2.67"/>
						</defs>
						<clipPath id="SVGID_25_">
							<use xlink:href="#SVGID_24_"  overflow="visible"/>
						</clipPath>
						<path clip-path="url(#SVGID_25_)" fill="#3F2723" d="M81.393,64.245c-0.129,0.13-0.246,0.265-0.354,0.412
							c-0.035,0.047-0.07,0.097-0.105,0.148c-0.127,0.188-0.237,0.391-0.33,0.601c-0.025,0.054-0.048,0.107-0.066,0.164
							c-0.023,0.056-0.042,0.111-0.061,0.171c-0.11,0.342-0.174,0.706-0.185,1.083c0-0.017-0.002-0.027-0.002-0.044v-0.004
							c-0.001-0.015-0.004-0.032-0.004-0.045c0-0.998,0.388-1.901,1.016-2.577L81.393,64.245z"/>
					</g>
				</g>
				<g opacity="0.2" clip-path="url(#SVGID_13_)">
					<g>
						<defs>
							<rect id="SVGID_26_" x="81.301" y="62.951" width="6.545" height="3.965"/>
						</defs>
						<clipPath id="SVGID_27_">
							<use xlink:href="#SVGID_26_"  overflow="visible"/>
						</clipPath>
						<path clip-path="url(#SVGID_27_)" fill="#BE3B26" d="M87.846,66.731v0.185c0-2.086-1.694-3.779-3.78-3.779
							c-1.043,0-1.988,0.423-2.673,1.108l-0.091-0.091c0.029-0.031,0.06-0.064,0.091-0.096c0.685-0.684,1.63-1.107,2.673-1.107
							C86.151,62.951,87.846,64.644,87.846,66.731"/>
					</g>
				</g>
				<g opacity="0.2" clip-path="url(#SVGID_13_)">
					<g>
						<defs>
							<rect id="SVGID_28_" x="81.3" y="76.563" width="2.916" height="6.676"/>
						</defs>
						<clipPath id="SVGID_29_">
							<use xlink:href="#SVGID_28_"  overflow="visible"/>
						</clipPath>
						<path clip-path="url(#SVGID_29_)" fill="#3F2723" d="M84.216,76.563c-0.003,0.244-0.016,0.486-0.036,0.726
							c-0.037,0.399-0.098,0.791-0.179,1.176c-0.05,0.225-0.105,0.449-0.171,0.667c-0.001,0.012-0.006,0.021-0.009,0.032
							c-0.021,0.069-0.041,0.137-0.062,0.203c-0.096,0.296-0.202,0.586-0.325,0.867c-0.031,0.071-0.062,0.139-0.093,0.207
							c-0.128,0.281-0.271,0.553-0.425,0.818c-0.069,0.121-0.144,0.238-0.216,0.355c-0.011,0.018-0.022,0.031-0.033,0.05
							c-0.037,0.058-0.077,0.114-0.115,0.173c-0.172,0.252-0.355,0.498-0.55,0.732c-0.086,0.102-0.174,0.205-0.264,0.305
							c-0.061,0.069-0.124,0.136-0.186,0.2c-0.053,0.055-0.104,0.108-0.157,0.163L81.3,83.145c0.031-0.031,0.062-0.061,0.096-0.092
							c0.054-0.054,0.104-0.108,0.157-0.162c0.062-0.066,0.125-0.133,0.186-0.2c0.09-0.103,0.178-0.205,0.264-0.306
							c0.194-0.234,0.378-0.479,0.55-0.732c0.038-0.059,0.078-0.117,0.115-0.175c0.011-0.016,0.022-0.03,0.033-0.047
							c0.072-0.117,0.146-0.237,0.216-0.358c0.154-0.264,0.297-0.535,0.425-0.815c0.03-0.07,0.062-0.138,0.093-0.209
							c0.123-0.281,0.229-0.57,0.325-0.867c0.021-0.066,0.042-0.133,0.062-0.201c0.003-0.011,0.008-0.021,0.009-0.032
							c0.065-0.22,0.121-0.443,0.171-0.668c0.081-0.386,0.142-0.775,0.179-1.176c0.014-0.179,0.024-0.358,0.031-0.54h0.002H84.216z"
							/>
					</g>
				</g>
				<path clip-path="url(#SVGID_13_)" fill="#557EBF" d="M74.568,80.192c-2.086,0-3.778-1.692-3.778-3.779c0,0,0,0,0-0.002h-5.873
					c0,0.002-0.001,0.002-0.001,0.002c0,5.331,4.322,9.652,9.652,9.652c2.666,0,5.08-1.08,6.827-2.827l-4.153-4.153
					C76.559,79.768,75.611,80.192,74.568,80.192"/>
				<g opacity="0.2" clip-path="url(#SVGID_13_)">
					<g>
						<defs>
							<rect id="SVGID_30_" x="64.917" y="76.411" width="16.479" height="9.654"/>
						</defs>
						<clipPath id="SVGID_31_">
							<use xlink:href="#SVGID_30_"  overflow="visible"/>
						</clipPath>
						<path clip-path="url(#SVGID_31_)" fill="#2D3079" d="M81.396,83.238c-1.747,1.747-4.163,2.827-6.827,2.827
							c-5.33,0-9.651-4.32-9.651-9.652v-0.002h0.004c0.099,5.246,4.379,9.468,9.647,9.468c1.332,0,2.603-0.269,3.757-0.759
							c1.114-0.472,2.12-1.146,2.975-1.978L81.396,83.238z"/>
					</g>
				</g>
				<g opacity="0.2" clip-path="url(#SVGID_13_)">
					<g>
						<defs>
							<rect id="SVGID_32_" x="70.789" y="76.411" width="7.559" height="3.966"/>
						</defs>
						<clipPath id="SVGID_33_">
							<use xlink:href="#SVGID_32_"  overflow="visible"/>
						</clipPath>
						<path clip-path="url(#SVGID_33_)" fill="#FFFFFF" d="M70.79,76.597C70.79,76.598,70.79,76.598,70.79,76.597
							c0,2.09,1.692,3.78,3.778,3.78c1.044,0,1.989-0.423,2.674-1.106c0.683-0.685,1.105-1.628,1.105-2.672
							c0-0.032-0.004-0.062-0.004-0.093c-0.024,1.006-0.439,1.915-1.102,2.579c-0.685,0.683-1.63,1.107-2.674,1.107
							c-2.086,0-3.778-1.692-3.778-3.779c0,0,0,0,0-0.002V76.597z"/>
					</g>
				</g>
			</g>
		</g>
	</g>
	<text transform="matrix(1 0 0 1 64.7275 98.5459)" fill="#F3B41B" font-family="'MyriadPro-Regular'" font-size="11.1466">SÃO JOSÉ DOS CAMPOS</text>
</g>
<g id="Layer_6" display="none">
	<g display="inline">
		<path fill="#FFFFFF" d="M-100.957-270.958c0,3.833-3.107,6.94-6.94,6.94h-52.919c-3.833,0-6.94-3.107-6.94-6.94v-52.918
			c0-3.833,3.107-6.94,6.94-6.94h52.919c3.833,0,6.94,3.108,6.94,6.94V-270.958z"/>
		<path fill="#CCCCCC" d="M-107.897-263.584h-52.919c-4.067,0-7.375-3.308-7.375-7.374v-52.918c0-4.066,3.307-7.374,7.375-7.374
			h52.919c4.066,0,7.374,3.308,7.374,7.374v52.918C-100.523-266.892-103.831-263.584-107.897-263.584z M-160.816-330.383
			c-3.588,0-6.507,2.918-6.507,6.506v52.918c0,3.587,2.919,6.507,6.507,6.507h52.919c3.587,0,6.507-2.92,6.507-6.507v-52.918
			c0-3.588-2.92-6.506-6.507-6.506H-160.816z"/>
	</g>
	<g display="inline">
		<g>
			<path fill="#557EBF" d="M-106.888-274.371c0,0.486-0.398,0.885-0.885,0.885h-29.331c-0.486,0-0.885-0.398-0.885-0.885v-8.715
				c0-0.486,0.398-0.885,0.885-0.885h29.331c0.486,0,0.885,0.398,0.885,0.885V-274.371z"/>
		</g>
		<path fill="#557EBF" d="M-130.443-273.995c-0.051,0.041-0.091,0.086-0.102,0.129c-0.136,0.445,0.753,0.339,0.966,0.445
			c0.446,0.209,0.509,0.772,0.285,1.168c-0.353,0.608,0.077,0.739,0.611,0.537c0.32-0.121,0.625-0.307,0.88-0.525
			c0.313-0.261,0.568-0.597,0.918-0.81c0.359-0.209,0.759-0.352,1.174-0.413c0.204-0.029,0.405-0.029,0.608-0.034
			c0.152-0.003,0.331-0.033,0.363-0.207c0.047-0.249-0.333-0.44-0.536-0.493c-0.098-0.021-0.203-0.04-0.31-0.047
			c-0.175-0.016-0.32-0.052-0.479,0.022c-0.193,0.087-0.421,0.094-0.632,0.099c-0.531,0.017-1.062,0.025-1.592,0.034
			c-0.519,0.009-1.035,0.02-1.554,0.026c-0.059,0-0.139,0.019-0.201,0.005c-0.03-0.009-0.055-0.035-0.078-0.04
			c-0.061-0.012-0.092-0.017-0.156,0.005C-130.324-274.077-130.393-274.042-130.443-273.995z"/>
	</g>
	<g display="inline">
		<g>
			<path fill="#F3B41B" d="M-141.667-315.566c0,0.37-0.303,0.672-0.672,0.672h-18.58c-0.369,0-0.672-0.302-0.672-0.672v-9.14
				c0-0.37,0.303-0.672,0.672-0.672h18.58c0.369,0,0.672,0.302,0.672,0.672V-315.566z"/>
		</g>
		<path fill="#F3B41B" d="M-154.046-315.405c-0.051,0.041-0.088,0.086-0.102,0.131c-0.136,0.445,0.754,0.336,0.968,0.445
			c0.445,0.211,0.508,0.771,0.282,1.166c-0.349,0.609,0.078,0.741,0.613,0.54c0.319-0.122,0.624-0.305,0.882-0.526
			c0.313-0.262,0.565-0.597,0.916-0.81c0.359-0.21,0.763-0.351,1.175-0.411c0.203-0.031,0.403-0.031,0.609-0.034
			c0.151-0.005,0.331-0.035,0.363-0.209c0.044-0.251-0.336-0.44-0.536-0.493c-0.098-0.022-0.206-0.042-0.313-0.049
			c-0.171-0.014-0.316-0.047-0.476,0.024c-0.196,0.088-0.422,0.093-0.634,0.1c-0.53,0.017-1.061,0.023-1.591,0.035
			c-0.518,0.01-1.035,0.018-1.551,0.023c-0.061,0-0.143,0.022-0.203,0.005c-0.03-0.007-0.056-0.031-0.078-0.04
			c-0.061-0.01-0.095-0.015-0.156,0.009C-153.926-315.484-153.995-315.45-154.046-315.405z"/>
	</g>
	<g display="inline">
		<g>
			<path fill="#0F9D58" d="M-106.959-291.593c0,0.743-0.608,1.352-1.352,1.352h-28.04c-0.743,0-1.352-0.608-1.352-1.352v-32.414
				c0-0.744,0.608-1.352,1.352-1.352h28.04c0.743,0,1.352,0.608,1.352,1.352V-291.593z"/>
		</g>
		<path fill="#0F9D58" d="M-133.588-291.288c-0.095,0.078-0.176,0.171-0.207,0.266c-0.271,0.906,1.546,0.693,1.982,0.905
			c0.915,0.436,1.041,1.581,0.58,2.391c-0.715,1.254,0.162,1.521,1.257,1.105c0.65-0.248,1.271-0.626,1.807-1.073
			c0.639-0.534,1.155-1.221,1.877-1.654c0.732-0.439,1.551-0.726,2.399-0.85c0.42-0.062,0.828-0.062,1.251-0.07
			c0.308-0.008,0.674-0.064,0.741-0.426c0.096-0.516-0.688-0.902-1.094-1.006c-0.204-0.05-0.431-0.082-0.639-0.101
			c-0.361-0.034-0.656-0.103-0.985,0.046c-0.393,0.179-0.858,0.192-1.291,0.201c-1.088,0.029-2.175,0.052-3.267,0.073
			c-1.058,0.021-2.114,0.036-3.168,0.054c-0.126,0.003-0.295,0.038-0.414,0.007c-0.064-0.016-0.115-0.07-0.164-0.082
			c-0.124-0.027-0.191-0.033-0.32,0.012C-133.344-291.453-133.478-291.379-133.588-291.288z"/>
	</g>
	<g display="inline">
		<g>
			<path fill="#DC4637" d="M-141.029-274.137c0,0.723-0.591,1.313-1.313,1.313h-17.855c-0.723,0-1.313-0.591-1.313-1.313v-36.308
				c0-0.722,0.591-1.313,1.313-1.313h17.855c0.723,0,1.313,0.591,1.313,1.313V-274.137z"/>
		</g>
		<path fill="#DC4637" d="M-158.617-273.871c-0.095,0.079-0.175,0.174-0.203,0.269c-0.275,0.906,1.541,0.695,1.98,0.905
			c0.915,0.435,1.042,1.58,0.579,2.39c-0.713,1.254,0.163,1.523,1.256,1.105c0.654-0.248,1.272-0.626,1.808-1.074
			c0.643-0.532,1.154-1.219,1.879-1.651c0.73-0.438,1.549-0.727,2.399-0.854c0.417-0.058,0.83-0.058,1.247-0.067
			c0.312-0.007,0.675-0.065,0.744-0.427c0.095-0.517-0.689-0.899-1.097-1.003c-0.199-0.054-0.423-0.085-0.639-0.104
			c-0.357-0.033-0.652-0.104-0.984,0.047c-0.392,0.178-0.857,0.19-1.291,0.203c-1.084,0.028-2.172,0.049-3.262,0.075
			c-1.059,0.017-2.116,0.034-3.172,0.048c-0.124,0.007-0.297,0.038-0.415,0.009c-0.064-0.016-0.112-0.067-0.163-0.081
			c-0.125-0.027-0.191-0.034-0.318,0.011C-158.373-274.032-158.506-273.959-158.617-273.871z"/>
	</g>
</g>
<g id="Layer_2_copy_2" display="none">
	<g display="inline">
		<g>
			<g>
				<g>
					<path fill="#F5BA38" d="M-93.161-345.161c0-1.116-0.913-2.03-2.03-2.03h-81.291c-1.116,0-2.03,0.914-2.03,2.03v39.265
						c0,1.116,0.914,2.03,2.03,2.03h81.291c1.117,0,2.03-0.914,2.03-2.03V-345.161z"/>
				</g>
				<path fill="#F5BA38" d="M-159.123-306.042c-0.161,0.136-0.301,0.291-0.353,0.456c-0.466,1.544,2.647,1.182,3.397,1.538
					c1.568,0.745,1.785,2.704,0.993,4.08c-1.224,2.138,0.28,2.594,2.153,1.885c1.116-0.423,2.18-1.065,3.098-1.834
					c1.097-0.905,1.981-2.079,3.214-2.815c1.262-0.751,2.659-1.24,4.113-1.446c0.717-0.106,1.419-0.106,2.143-0.123
					c0.531-0.015,1.154-0.113,1.273-0.727c0.162-0.878-1.181-1.538-1.878-1.716c-0.345-0.085-0.73-0.141-1.095-0.175
					c-0.616-0.053-1.124-0.174-1.686,0.079c-0.674,0.307-1.472,0.324-2.214,0.348c-1.86,0.046-3.726,0.088-5.595,0.123
					c-1.811,0.035-3.623,0.064-5.432,0.091c-0.216,0.006-0.508,0.064-0.709,0.013c-0.111-0.024-0.195-0.118-0.281-0.136
					c-0.214-0.047-0.327-0.062-0.547,0.016C-158.705-306.324-158.931-306.195-159.123-306.042z"/>
			</g>
			<g>
				<g>
					<rect x="-172.839" y="-340.171" fill="none" width="79.981" height="27.045"/>
					<text transform="matrix(1.0074 0 0 1 -172.8394 -327.3496)" fill="#FFFFFF" font-family="'Bevan'" font-size="18.059">KUALA</text>
				</g>
				<text transform="matrix(1.0074 0 0 1 -172.7495 -311.4058)" fill="#FFFFFF" font-family="'Bevan'" font-size="14.1446">LUMPUR</text>
			</g>
		</g>
		<g>
			<g>
				<g>
					<path fill="#414242" d="M-177.119-270.206c-0.424,0-0.756,0.143-1.003,0.428c-0.244,0.287-0.366,0.674-0.366,1.172
						c0,0.512,0.117,0.906,0.354,1.184c0.236,0.279,0.572,0.418,1.01,0.418c0.268,0,0.574-0.051,0.918-0.146v0.396
						c-0.266,0.104-0.596,0.154-0.986,0.154c-0.568,0-1.006-0.176-1.312-0.523c-0.308-0.348-0.462-0.846-0.462-1.486
						c0-0.402,0.073-0.754,0.223-1.059c0.147-0.303,0.362-0.533,0.642-0.697c0.281-0.166,0.611-0.246,0.989-0.246
						c0.403,0,0.757,0.074,1.058,0.225l-0.189,0.389C-176.537-270.136-176.828-270.206-177.119-270.206z"/>
					<path fill="#414242" d="M-171.755-268.61c0,0.623-0.157,1.113-0.468,1.473c-0.312,0.357-0.745,0.537-1.299,0.537
						c-0.567,0-1.006-0.178-1.313-0.529c-0.308-0.35-0.462-0.846-0.462-1.488c0-0.633,0.154-1.127,0.464-1.475
						c0.309-0.35,0.748-0.523,1.316-0.523c0.553,0,0.984,0.176,1.295,0.533C-171.912-269.729-171.755-269.237-171.755-268.61z
						 M-174.824-268.61c0,0.529,0.111,0.928,0.334,1.203c0.223,0.271,0.543,0.406,0.968,0.406c0.426,0,0.749-0.133,0.966-0.406
						c0.218-0.273,0.326-0.674,0.326-1.203c0-0.525-0.107-0.922-0.324-1.193c-0.217-0.273-0.539-0.408-0.963-0.408
						c-0.428,0-0.75,0.137-0.973,0.41C-174.712-269.53-174.824-269.132-174.824-268.61z"/>
					<path fill="#414242" d="M-167.621-266.655h-0.512l-2.104-3.273h-0.021c0.029,0.383,0.043,0.736,0.043,1.057v2.217h-0.414v-3.9
						h0.506l2.099,3.26h0.021c-0.005-0.047-0.013-0.201-0.024-0.463c-0.012-0.26-0.016-0.447-0.014-0.559v-2.238h0.42V-266.655z"/>
					<path fill="#414242" d="M-163.289-266.655h-0.511l-2.103-3.273h-0.021c0.028,0.383,0.043,0.736,0.043,1.057v2.217h-0.414v-3.9
						h0.506l2.099,3.26h0.02c-0.002-0.047-0.01-0.201-0.022-0.463c-0.012-0.26-0.016-0.447-0.014-0.559v-2.238h0.418V-266.655z"/>
					<path fill="#414242" d="M-159.814-266.655h-2.146v-3.9h2.146v0.402h-1.697v1.258h1.595v0.398h-1.595v1.436h1.697V-266.655z"/>
					<path fill="#414242" d="M-157.043-270.206c-0.423,0-0.758,0.143-1.003,0.428c-0.244,0.287-0.367,0.674-0.367,1.172
						c0,0.512,0.119,0.906,0.355,1.184c0.234,0.279,0.571,0.418,1.009,0.418c0.269,0,0.574-0.051,0.919-0.146v0.396
						c-0.267,0.104-0.596,0.154-0.986,0.154c-0.568,0-1.005-0.176-1.312-0.523c-0.309-0.348-0.463-0.846-0.463-1.486
						c0-0.402,0.074-0.754,0.223-1.059c0.147-0.303,0.362-0.533,0.643-0.697c0.279-0.166,0.609-0.246,0.988-0.246
						c0.403,0,0.756,0.074,1.058,0.225l-0.188,0.389C-156.461-270.136-156.752-270.206-157.043-270.206z"/>
					<path fill="#414242" d="M-153.837-266.655h-0.446v-3.498h-1.219v-0.402h2.886v0.402h-1.221V-266.655z"/>
				</g>
				<g>
					<path fill="#414242" d="M-144.221-266.655v-3.9h0.448v3.9H-144.221z"/>
					<path fill="#414242" d="M-139.442-266.655h-0.51l-2.104-3.273h-0.021c0.028,0.383,0.043,0.736,0.043,1.057v2.217h-0.414v-3.9
						h0.506l2.098,3.26h0.021c-0.004-0.047-0.012-0.201-0.023-0.463c-0.014-0.26-0.018-0.447-0.014-0.559v-2.238h0.418V-266.655z"/>
					<path fill="#414242" d="M-137.665-266.655h-0.449v-3.9h2.146v0.402h-1.697v1.428h1.596v0.402h-1.596V-266.655z"/>
					<path fill="#414242" d="M-131.722-268.61c0,0.623-0.156,1.113-0.467,1.473c-0.311,0.357-0.744,0.537-1.299,0.537
						c-0.568,0-1.006-0.178-1.312-0.529c-0.309-0.35-0.463-0.846-0.463-1.488c0-0.633,0.154-1.127,0.465-1.475
						c0.307-0.35,0.746-0.523,1.316-0.523c0.553,0,0.984,0.176,1.295,0.533C-131.876-269.729-131.722-269.237-131.722-268.61z
						 M-134.788-268.61c0,0.529,0.111,0.928,0.334,1.203c0.221,0.271,0.543,0.406,0.967,0.406c0.426,0,0.748-0.133,0.967-0.406
						c0.217-0.273,0.326-0.674,0.326-1.203c0-0.525-0.109-0.922-0.324-1.193c-0.219-0.273-0.539-0.408-0.963-0.408
						c-0.428,0-0.752,0.137-0.973,0.41C-134.677-269.53-134.788-269.132-134.788-268.61z"/>
					<path fill="#414242" d="M-130.146-268.276v1.621h-0.447v-3.9h1.055c0.473,0,0.82,0.092,1.049,0.275
						c0.223,0.182,0.336,0.459,0.336,0.826c0,0.516-0.258,0.865-0.773,1.047l1.045,1.752h-0.529l-0.932-1.621H-130.146z
						 M-130.146-268.669h0.613c0.314,0,0.549-0.062,0.695-0.188c0.146-0.129,0.221-0.32,0.221-0.572c0-0.26-0.074-0.445-0.225-0.561
						c-0.15-0.113-0.393-0.17-0.725-0.17h-0.58V-268.669z"/>
					<path fill="#414242" d="M-125.288-266.655l-1.307-3.459h-0.02c0.023,0.275,0.037,0.6,0.037,0.979v2.48h-0.414v-3.9h0.676
						l1.217,3.219h0.021l1.23-3.219h0.668v3.9h-0.447v-2.514c0-0.287,0.012-0.602,0.037-0.939h-0.021l-1.316,3.453H-125.288z"/>
				</g>
				<g>
					<path fill="#414242" d="M-113.737-266.655v-3.9h0.447v3.9H-113.737z"/>
					<path fill="#414242" d="M-108.96-266.655h-0.51l-2.105-3.273h-0.02c0.027,0.383,0.043,0.736,0.043,1.057v2.217h-0.414v-3.9
						h0.506l2.098,3.26h0.02c-0.002-0.047-0.01-0.201-0.021-0.463c-0.014-0.26-0.018-0.447-0.014-0.559v-2.238h0.418V-266.655z"/>
					<path fill="#414242" d="M-105.46-267.694c0,0.346-0.123,0.613-0.369,0.805c-0.244,0.193-0.578,0.289-1,0.289
						c-0.455,0-0.809-0.061-1.053-0.18v-0.438c0.158,0.068,0.328,0.121,0.516,0.158c0.186,0.041,0.371,0.059,0.553,0.059
						c0.299,0,0.523-0.057,0.676-0.17c0.152-0.115,0.225-0.275,0.225-0.48c0-0.135-0.027-0.244-0.08-0.33s-0.143-0.166-0.268-0.24
						c-0.127-0.074-0.316-0.154-0.572-0.248c-0.359-0.129-0.613-0.283-0.77-0.461c-0.154-0.18-0.23-0.41-0.23-0.697
						c0-0.299,0.113-0.539,0.334-0.717c0.225-0.178,0.521-0.268,0.887-0.268c0.383,0,0.734,0.07,1.055,0.215l-0.139,0.393
						c-0.318-0.133-0.627-0.201-0.928-0.201c-0.236,0-0.422,0.051-0.555,0.152c-0.133,0.107-0.199,0.248-0.199,0.43
						c0,0.137,0.023,0.248,0.072,0.334s0.131,0.166,0.25,0.238c0.115,0.072,0.293,0.152,0.535,0.238
						c0.402,0.145,0.682,0.303,0.832,0.471C-105.536-268.179-105.46-267.96-105.46-267.694z"/>
					<path fill="#414242" d="M-101.962-269.419c0,0.395-0.133,0.697-0.4,0.912c-0.266,0.211-0.645,0.318-1.141,0.318h-0.453v1.533
						h-0.447v-3.9h1C-102.442-270.556-101.962-270.177-101.962-269.419z M-103.956-268.579h0.402c0.398,0,0.686-0.064,0.863-0.195
						c0.176-0.129,0.266-0.338,0.266-0.621c0-0.26-0.084-0.453-0.25-0.58c-0.168-0.125-0.428-0.188-0.779-0.188h-0.502V-268.579z"/>
					<path fill="#414242" d="M-100.888-266.655v-3.9h0.447v3.9H-100.888z"/>
					<path fill="#414242" d="M-98.667-268.276v1.621h-0.447v-3.9h1.057c0.471,0,0.82,0.092,1.045,0.275
						c0.225,0.182,0.338,0.459,0.338,0.826c0,0.516-0.258,0.865-0.775,1.047l1.047,1.752h-0.529l-0.934-1.621H-98.667z
						 M-98.667-268.669h0.613c0.314,0,0.547-0.062,0.695-0.188c0.148-0.129,0.223-0.32,0.223-0.572c0-0.26-0.076-0.445-0.227-0.561
						c-0.15-0.113-0.393-0.17-0.723-0.17h-0.582V-268.669z"/>
					<path fill="#414242" d="M-93.368-266.655h-2.145v-3.9h2.145v0.402h-1.697v1.258h1.596v0.398h-1.596v1.436h1.697V-266.655z"/>
				</g>
				<path fill="#414242" d="M-148.626-268.511c0,0.289-0.23,0.516-0.514,0.516c-0.284,0-0.515-0.227-0.515-0.516
					s0.23-0.52,0.515-0.52C-148.857-269.03-148.626-268.8-148.626-268.511z"/>
				<path fill="#414242" d="M-118.155-268.511c0,0.289-0.23,0.516-0.51,0.516c-0.285,0-0.516-0.227-0.516-0.516
					s0.23-0.52,0.516-0.52C-118.386-269.03-118.155-268.8-118.155-268.511z"/>
			</g>
			<g>
				<g>
					<path fill="#414242" d="M-142.311-288.906h8.728v10.901c-2.371,0.812-4.977,1.217-7.815,1.217
						c-3.117,0-5.525-0.904-7.229-2.711c-1.7-1.809-2.551-4.385-2.551-7.732c0-3.262,0.932-5.803,2.795-7.621
						c1.862-1.816,4.471-2.725,7.827-2.725c1.273,0,2.474,0.119,3.605,0.359c1.127,0.239,2.113,0.543,2.951,0.913l-1.729,4.288
						c-1.457-0.719-3.057-1.08-4.799-1.08c-1.597,0-2.829,0.52-3.699,1.557c-0.873,1.037-1.308,2.52-1.308,4.448
						c0,1.891,0.394,3.332,1.183,4.322c0.788,0.992,1.924,1.486,3.409,1.486c0.811,0,1.558-0.076,2.242-0.236v-3.166h-3.611
						V-288.906z"/>
					<path fill="#414242" d="M-129.462-297.286h7.053c2.748,0,4.789,0.406,6.119,1.223c1.334,0.816,2,2.087,2,3.81
						c0,1.135-0.289,2.102-0.871,2.906c-0.582,0.801-1.346,1.316-2.295,1.547v0.139c1.252,0.334,2.162,0.889,2.725,1.663
						s0.842,1.779,0.842,3.014c0,1.836-0.688,3.281-2.066,4.338c-1.379,1.055-3.258,1.582-5.637,1.582h-7.869V-297.286z
						 M-123.999-289.527h1.645c0.785,0,1.391-0.162,1.82-0.484s0.643-0.803,0.643-1.439c0-1.133-0.857-1.701-2.572-1.701h-1.535
						V-289.527z M-123.999-285.528v4.244h1.924c1.705,0,2.559-0.719,2.559-2.158c0-0.672-0.23-1.188-0.686-1.549
						c-0.457-0.359-1.119-0.537-1.984-0.537H-123.999z"/>
					<path fill="#414242" d="M-102.257-288.906h8.729v10.901c-2.371,0.812-4.975,1.217-7.814,1.217
						c-3.117,0-5.525-0.904-7.227-2.711c-1.703-1.809-2.553-4.385-2.553-7.732c0-3.262,0.932-5.803,2.795-7.621
						c1.863-1.816,4.473-2.725,7.828-2.725c1.273,0,2.475,0.119,3.602,0.359c1.131,0.239,2.115,0.543,2.953,0.913l-1.729,4.288
						c-1.457-0.719-3.057-1.08-4.799-1.08c-1.594,0-2.828,0.52-3.699,1.557s-1.307,2.52-1.307,4.448
						c0,1.891,0.393,3.332,1.182,4.322c0.789,0.992,1.926,1.486,3.408,1.486c0.812,0,1.559-0.076,2.242-0.236v-3.166h-3.611
						V-288.906z"/>
				</g>
			</g>
			<g>
				<path fill="#ED174F" d="M-171.352-280.155h0.002c0.836,0,1.674-0.312,2.312-0.949l2.938,2.93l0,0
					c2.901-2.898,2.901-7.6,0-10.499l-2.941,2.94l0,0c1.273,1.275,1.276,3.344,0,4.621
					C-169.69-280.472-170.508-280.157-171.352-280.155z"/>
				<g>
					<defs>
						<path id="SVGID_34_" d="M-171.35-275.995l-0.002-4.16c0.844-0.002,1.662-0.316,2.312-0.957l0,0
							c1.276-1.277,1.273-3.346,0-4.621l0,0l0,0l2.941-2.94c2.901,2.899,2.901,7.6,0,10.499l0,0
							C-167.55-276.726-169.457-275.991-171.35-275.995L-171.35-275.995z"/>
					</defs>
					<clipPath id="SVGID_35_">
						<use xlink:href="#SVGID_34_"  overflow="visible"/>
					</clipPath>
					<path opacity="0.43" clip-path="url(#SVGID_35_)" fill="#49A848" d="M-155.982-287.804l-3.955-1.289
						c-0.263,0.797-0.821,1.486-1.629,1.901l0,0c-1.608,0.814-3.569,0.174-4.393-1.432l0,0h-0.003l-3.706,1.885
						c2.188,4.297,5.953,5.305,9.989,3.254l0,0C-157.855-284.415-156.57-286.001-155.982-287.804L-155.982-287.804z"/>
				</g>
				<path fill="#FFC425" d="M-158.531-296.235c-2.904-2.898-7.604-2.898-10.508,0l0,0l2.939,2.947
					c1.281-1.275,3.348-1.275,4.625-0.002l0,0c0.645,0.641,0.958,1.467,0.958,2.312l0,0l0,0h4.161
					C-156.355-292.878-157.085-294.792-158.531-296.235L-158.531-296.235z"/>
				<path fill="#0079C1" d="M-176.596-278.167c2.897,2.904,7.597,2.906,10.5,0l0,0l-2.941-2.938c-1.278,1.273-3.345,1.266-4.622,0
					l0,0c-0.639-0.646-0.954-1.475-0.954-2.312l0,0l0,0h-4.159C-178.776-281.522-178.044-279.612-176.596-278.167L-176.596-278.167z
					"/>
				<path fill="#49A942" d="M-160.501-290.951c-0.002,0.846-0.32,1.662-0.967,2.309c-1.283,1.268-3.35,1.258-4.62-0.023l0,0
					c-2.888-2.912-7.589-2.932-10.505-0.047c-1.451,1.444-2.193,3.348-2.198,5.245l4.163,0.021c0.002-0.84,0.32-1.67,0.965-2.307
					c1.285-1.273,3.348-1.264,4.62,0.02l0.003-0.004l-0.003,0.004c2.891,2.91,7.593,2.93,10.504,0.043
					c1.454-1.434,2.19-3.344,2.198-5.247L-160.501-290.951z"/>
				<path fill="#ED174F" d="M-166.099-288.673h0.003c-1.272-1.275-1.271-3.344-0.003-4.615l-2.939-2.947
					c-1.484,1.49-2.202,3.449-2.166,5.398C-169.348-290.802-167.509-290.087-166.099-288.673z"/>
			</g>
		</g>
	</g>
	
		<image display="inline" overflow="visible" width="1008" height="280" xlink:href="A1D41DF079CCB978.jpg"  transform="matrix(0.9999 0 0 0.9999 -8154.9404 -8136.4424)">
	</image>
</g>
<g id="Layer_5">
</g>
</svg>
