<svg xmlns="http://www.w3.org/2000/svg" xmlns:xlink="http://www.w3.org/1999/xlink" width="142.221" height="112.212" viewBox="2.615 8.408 142.221 112.212"><path d="M19.081 100.602c-.901 1.512-1.883 2.635-2.945 3.369-1.262.838-2.794 1.256-4.597 1.256-2.384 0-4.408-.97-6.07-2.91-1.903-2.246-2.854-5.33-2.854-9.252 0-4.086.972-7.24 2.915-9.467 1.623-1.839 3.586-2.758 5.89-2.758 3.286 0 5.79 1.501 7.513 4.503l-2.194 1.104c-1.062-2.206-2.745-3.311-5.048-3.311-2.144 0-3.776.98-4.898 2.941-.981 1.757-1.472 4.086-1.472 6.984 0 2.9.571 5.26 1.712 7.078 1.182 1.879 2.774 2.817 4.778 2.817 2.204 0 3.967-1.153 5.289-3.462l1.981 1.108zm16.286-1.379c0 2.043-.822 3.594-2.464 4.656-1.382.898-3.055 1.348-5.019 1.348-2.644 0-5.108-.785-7.392-2.358l1.292-1.991c.741.572 1.652 1.053 2.734 1.439 1.202.43 2.344.644 3.426.644 1.302 0 2.354-.245 3.155-.735 1.042-.633 1.562-1.623 1.562-2.972 0-1.226-.671-2.379-2.013-3.462-.621-.49-1.833-1.227-3.636-2.206-4.147-2.246-6.22-4.585-6.22-7.017 0-1.775.761-3.195 2.284-4.258 1.402-.98 3.155-1.471 5.259-1.471 2.143 0 4.287.674 6.43 2.021l-1.052 2.082c-1.823-1.184-3.586-1.775-5.289-1.775-1.242 0-2.313.245-3.215.734-1.122.594-1.683 1.461-1.683 2.604 0 1.042.621 2.043 1.863 3.003.46.348 1.677 1.077 3.651 2.19 1.973 1.112 3.39 2.089 4.252 2.926 1.384 1.37 2.075 2.9 2.075 4.598zm16.497 0c0 2.043-.822 3.594-2.464 4.656-1.382.898-3.055 1.348-5.019 1.348-2.644 0-5.108-.785-7.392-2.358l1.292-1.991c.741.572 1.652 1.053 2.734 1.439 1.202.43 2.344.644 3.426.644 1.302 0 2.354-.245 3.155-.735 1.042-.633 1.562-1.623 1.562-2.972 0-1.226-.671-2.379-2.013-3.462-.621-.49-1.833-1.227-3.636-2.206-4.147-2.246-6.22-4.585-6.22-7.017 0-1.775.761-3.195 2.284-4.258 1.402-.98 3.155-1.471 5.259-1.471 2.143 0 4.287.674 6.43 2.021l-1.052 2.082c-1.823-1.184-3.586-1.775-5.289-1.775-1.242 0-2.313.245-3.215.734-1.122.594-1.683 1.461-1.683 2.604 0 1.042.621 2.043 1.863 3.003.46.348 1.677 1.077 3.651 2.19 1.973 1.112 3.39 2.089 4.252 2.926 1.384 1.37 2.075 2.9 2.075 4.598zm16.618 5.757h-2.794v7.107h-2.554l.03-7.107h-9.165v-1.531l7.723-15.686h2.645l-7.182 14.98h5.979v-7.262h2.524v7.262h2.794v2.237zm19.472 0h-2.585V93.859H74.762v11.121h-2.614V81.084h2.614v10.447h10.607V81.084h2.585v23.896zm19.351-21.69h-6.852v21.69h-2.584V83.29h-6.881v-2.206h16.316v2.206h.001zm21.515 21.69h-2.285V83.81h-.18l-6.281 21.323h-1.803l-6.279-21.538h-.18v21.385h-2.285V81.084h3.787l5.77 20.252h.18l5.799-20.252h3.758v23.896h-.001zm16.016 0h-12.68l-.031-23.896h2.615v21.691h10.096v2.205z" fill="#fff"/><path d="M122.721 8.408c-.363 2.642-.693 5.288-1.1 7.923-.225 1.47-.57 1.63-1.51.609-.979-1.062-1.531-.789-2.367.183-7.27 8.46-14.586 16.877-21.887 25.307-1.691 1.952-3.377 3.909-5.066 5.864a48.714 48.714 0 0 1-.354-.283c.967-1.312 1.924-2.631 2.897-3.936 7.306-9.759 14.604-19.523 21.935-29.262.707-.941.713-1.581-.265-2.27-.465-.329-1.248-.627-1.067-1.328.166-.661.996-.553 1.545-.754 2.086-.762 4.297-1.121 6.328-2.053h.911zm-9.295 41.969c-.021 14.021-13.436 24.007-26.582 19.721-1.402-.457-2.34-.412-3.496.651-2.391 2.203-6.865 2.563-9.684 1.035-.347-.188-.824-.33-.709-.854.089-.408.516-.455.862-.496 4.145-.488 7.059-2.849 9.164-6.353.677-1.125 1.271-.727 2.088-.247 8.882 5.202 20.058.903 22.795-8.886 1.605-5.738.521-11.025-3.594-15.43-.971-1.039-.938-1.664-.002-2.647 2.174-2.285 2.181-2.366 4.271.082 3.273 3.84 4.846 8.352 4.887 13.424m-52.223 3.705c.594-.859 1.043-1.505 1.488-2.154 3.754-5.482 7.462-10.997 11.292-16.423.902-1.278.193-1.77-.575-2.472-1.246-1.139-1.21-1.316.361-1.811 2.024-.637 4.067-1.22 6.088-1.867 1.138-.363 1.486.02 1.312 1.176-.326 2.132-.576 4.276-.905 6.408-.222 1.435-.515 1.573-1.531.601-.92-.878-1.453-.771-2.293.185-4.477 5.092-9.031 10.113-13.571 15.147-.39.43-.697.998-1.666 1.21" fill="#747578"/><defs><path id="a" d="M102.422 16.121c-2.545 1.275-5.34 1.818-7.971 2.844-.824.322-2.137.22-2.344 1.111-.217.934 1.002 1.404 1.678 1.969.771.645 1.004 1.226.205 2.003-.289.281-.506.64-.762.957-9.652 11.933-19.283 23.884-28.972 35.786-3.499 4.298-8.164 6.027-13.497 5.188C39.325 64.18 35.306 53.146 37.6 45.685c2.08-6.766 8.283-12.05 15.186-11.683 3.023.16 4.441-.497 5.921-3.095 5.207-9.143 17.147-10.666 24.735-3.407.777.744 1.074 2.386 2.272 2.167 1.072-.197 1.576-1.636 2.392-2.472.104-.11.197-.233.301-.346.459-.513.389-.992-.039-1.501-1.582-1.885-3.301-3.618-5.451-4.826-8.912-5.011-21.284-3.689-28.206 6.817-.841 1.275-1.719 1.776-3.199 1.718-3.64-.141-6.987.953-9.993 3.012-4.843 3.318-8.074 7.82-9.38 13.671-.585 3.298-.533 6.405 0 8.64.095.29.206.577.282.873 2.003 7.732 6.802 12.979 14.232 15.208 4.7 1.41 9.68 1.299 14.391-.61 1.729-.699 3.445-1.547 4.664-3.053 10.425-12.87 20.825-25.757 31.233-38.638 1.576-1.953 1.576-1.953 3.531-.463.282.215.561.438.848.646.6.435 1.063.384 1.162-.445.467-3.917 1.307-7.797 1.151-11.777h-1.211z"/></defs><clipPath id="b"><use xlink:href="#a" overflow="visible"/></clipPath><linearGradient id="c" gradientUnits="userSpaceOnUse" x1="-223.842" y1="-7.408" x2="-222.842" y2="-7.408" gradientTransform="rotate(-90 -5914.088 -6391.385) scale(55.2927)"><stop offset="0" stop-color="#3b4387"/><stop offset=".076" stop-color="#3b4387"/><stop offset=".464" stop-color="#0094c6"/><stop offset=".704" stop-color="#009bcc"/><stop offset=".857" stop-color="#39468b"/><stop offset=".959" stop-color="#3d3980"/><stop offset="1" stop-color="#3d3980"/></linearGradient><path clip-path="url(#b)" fill="url(#c)" d="M31.555 15.51h72.234v56.36H31.555z"/><path d="M96.908 112.63c.18-.129.316-.192.41-.192.074 0 .135.024.182.074a.26.26 0 0 1 .07.186c0 .156-.113.265-.344.324l-.455.912a4 4 0 0 0-.256.76 3.466 3.466 0 0 0-.086.777c0 .334.077.868.235 1.604.604-.41 1.17-.959 1.69-1.647a18.28 18.28 0 0 1-.006-.38c0-.884.129-1.582.385-2.093.17-.338.357-.508.562-.508.121 0 .223.055.305.16.08.106.121.266.121.475 0 .169-.031.363-.096.585a6.478 6.478 0 0 1-.377.995c0 1.014.074 1.816.227 2.413.474-.33.933-.744 1.377-1.243.326-.365.576-.747.744-1.143.17-.396.254-.722.254-.976 0-.124-.043-.284-.133-.481-.1-.229-.15-.396-.15-.5 0-.104.037-.194.113-.27a.376.376 0 0 1 .273-.111c.131 0 .236.062.312.189.078.127.116.354.116.68 0 .827-.354 1.696-1.059 2.604a7.241 7.241 0 0 1-2.587 2.104c-.125-.438-.241-1.09-.35-1.953-.535.547-.867.873-.996.981-.26.222-.512.409-.754.563-.24.154-.5.291-.775.408a16.91 16.91 0 0 0-.188-1.111c-.137-.719-.207-1.233-.207-1.543 0-.418.101-.83.3-1.233a3.01 3.01 0 0 1 .896-1.063c-.715.021-1.224.104-1.524.252-.205.102-.31.223-.31.362 0 .052.022.138.069.253a.705.705 0 0 1 .066.241.268.268 0 0 1-.275.266.32.32 0 0 1-.262-.14c-.072-.093-.107-.223-.107-.392 0-.322.142-.584.427-.784.417-.289 1.136-.426 2.163-.405z" fill="#fff"/><g fill="#fff"><path d="M105.738 116.02l.195.267c-.968.937-1.795 1.405-2.484 1.405-.281 0-.494-.098-.643-.291-.149-.192-.222-.502-.222-.928 0-.861.256-1.718.769-2.57.576-.969 1.264-1.453 2.063-1.453.281 0 .494.072.644.215.148.143.223.339.223.588 0 .262-.09.52-.268.771-.179.254-.494.518-.951.789-.23.133-.719.373-1.469.719a3.932 3.932 0 0 0-.054.621c0 .285.045.484.133.598.091.111.22.169.39.169.16 0 .338-.046.531-.14.262-.126.641-.38 1.143-.76zm-2.07-.875c.635-.289 1.111-.601 1.432-.935.217-.233.324-.465.324-.692 0-.174-.043-.312-.133-.414a.431.431 0 0 0-.346-.153.674.674 0 0 0-.426.169c-.187.148-.343.374-.468.676-.18.44-.309.892-.383 1.349zm4.838-1.627c.318-.358.633-.621.943-.787.309-.168.582-.252.818-.252.274 0 .498.113.662.338.166.227.25.565.25 1.021a4.41 4.41 0 0 1-.457 1.937c-.304.631-.679 1.111-1.127 1.441-.447.329-.884.494-1.312.494-.361 0-.652-.107-.869-.325s-.324-.499-.324-.845c0-.277.054-.663.158-1.158l.699-3.189c.17-.78.383-1.375.639-1.782a2.91 2.91 0 0 1 1.013-.978c.418-.244.813-.365 1.188-.365.226 0 .389.039.494.117a.376.376 0 0 1 .155.316.378.378 0 0 1-.143.303c-.094.079-.229.119-.402.119-.131 0-.354-.029-.674-.09a2.092 2.092 0 0 0-.379-.042c-.197 0-.357.108-.48.325-.09.169-.215.598-.373 1.285l-.479 2.117zm1.164-.37c-.193 0-.422.117-.689.354-.266.237-.518.656-.754 1.259a4.843 4.843 0 0 0-.354 1.771c0 .217.067.397.205.546.137.146.295.22.478.22.438 0 .827-.353 1.17-1.06.344-.704.516-1.407.516-2.106 0-.317-.064-.577-.195-.778a.436.436 0 0 0-.377-.206zm7.789 2.872l.195.267c-.965.937-1.793 1.405-2.484 1.405-.279 0-.494-.098-.641-.291-.148-.192-.223-.502-.223-.928 0-.861.256-1.718.77-2.57.576-.969 1.264-1.453 2.064-1.453.278 0 .493.072.641.215.148.143.223.339.223.588 0 .262-.088.52-.266.771-.178.254-.496.518-.953.789-.229.133-.717.373-1.467.719a3.926 3.926 0 0 0-.053.621c0 .285.043.484.133.598a.466.466 0 0 0 .387.169c.162 0 .34-.046.533-.14.26-.126.641-.38 1.141-.76zm-2.07-.875c.635-.289 1.113-.601 1.432-.935.218-.233.326-.465.326-.692a.613.613 0 0 0-.133-.414.437.437 0 0 0-.346-.153.68.68 0 0 0-.428.169c-.184.148-.34.374-.467.676-.181.44-.308.892-.384 1.349zm3.595-1.465l-.17-.242c.418-.36.781-.627 1.094-.795.209-.117.365-.176.467-.176.15 0 .271.076.361.229.131.218.258.691.385 1.424.488-.73.92-1.236 1.295-1.514.375-.278.689-.416.941-.416.129 0 .233.037.312.115.08.076.119.172.119.284a.377.377 0 0 1-.166.312c-.078.057-.293.097-.646.121a1.265 1.265 0 0 0-.758.295c-.346.291-.682.719-1.006 1.279l.379 1.803c.162.793.332 1.379.51 1.762.178.382.396.676.65.881a.766.766 0 0 0 .484.175c.252 0 .436-.155.551-.471.074-.205.195-.308.361-.308.078 0 .146.033.207.1.059.066.088.15.088.251 0 .196-.109.378-.328.543-.219.164-.5.247-.844.247-.377 0-.74-.122-1.084-.365-.347-.242-.646-.633-.896-1.17s-.481-1.391-.694-2.561c-.078.107-.205.289-.377.543-.498.716-.884 1.176-1.154 1.381-.271.205-.533.308-.781.308a.643.643 0 0 1-.432-.147.442.442 0 0 1-.06-.646.34.34 0 0 1 .261-.124c.102 0 .207.069.312.205.092.121.178.182.262.182a.41.41 0 0 0 .185-.055c.098-.057.229-.177.396-.361.235-.262.418-.486.543-.676l.733-1.104-.241-1.129c-.063-.305-.127-.502-.193-.588-.063-.086-.137-.129-.215-.129a.524.524 0 0 0-.25.096 3.48 3.48 0 0 0-.601.441z"/><path d="M123.557 113.956l-.229-.241c.358-.438.717-.762 1.069-.971.355-.209.664-.312.924-.312.099 0 .177.024.232.074.059.051.086.124.086.221 0 .116-.012.235-.037.358-.024.123-.104.413-.24.871.604-.615 1.017-.995 1.236-1.14.371-.246.709-.369 1.019-.369.2 0 .37.098.508.291.14.191.207.484.207.873 0 .975-.297 1.898-.894 2.775-.594.877-1.252 1.314-1.973 1.314-.285 0-.568-.078-.852-.235l-.506 1.99c-.031.121-.047.22-.047.296 0 .148.055.255.164.318.17.102.526.185 1.071.248l-.078.302a19.443 19.443 0 0 0-1.495-.078c-.375 0-.859.026-1.455.078l.075-.302c.302-.032.519-.116.654-.254.136-.137.246-.379.328-.729l1.069-4.578c.201-.854.304-1.326.304-1.424 0-.104-.052-.156-.148-.156-.172.004-.502.262-.992.78zm1.199 2.849c.311.316.629.477.957.477.473 0 .887-.377 1.244-1.129.355-.752.533-1.485.533-2.201 0-.229-.049-.402-.15-.521a.505.505 0 0 0-.404-.178c-.188 0-.399.096-.637.283-.367.294-.646.585-.838.875-.139.209-.268.57-.391 1.085l-.314 1.309zm7.094-.785l.195.267c-.967.937-1.795 1.405-2.484 1.405-.281 0-.494-.098-.643-.291-.148-.192-.221-.502-.221-.928 0-.861.256-1.718.768-2.57.576-.969 1.264-1.453 2.064-1.453.281 0 .494.072.643.215s.223.339.223.588c0 .262-.09.52-.268.771-.178.254-.494.518-.951.789-.23.133-.719.373-1.469.719a3.926 3.926 0 0 0-.053.621c0 .285.045.484.133.598.09.111.219.169.389.169.16 0 .338-.046.531-.14.262-.126.641-.38 1.143-.76zm-2.071-.875c.635-.289 1.111-.601 1.432-.935.217-.233.324-.465.324-.692 0-.174-.043-.312-.133-.414a.431.431 0 0 0-.346-.153.679.679 0 0 0-.427.169c-.187.148-.342.374-.467.676-.18.44-.308.892-.383 1.349zm4.135 2.388h-.883l.414-1.622c.201-.798.377-1.554.527-2.269.034-.178.053-.287.053-.332 0-.097-.043-.146-.129-.146-.062 0-.15.042-.273.124-.121.082-.342.286-.662.611l-.184-.211c.379-.414.756-.725 1.133-.933.377-.207.664-.312.865-.312.072 0 .129.019.17.053s.062.077.062.13c0 .054-.026.19-.077.418l-.259 1.085a7.628 7.628 0 0 1 1.353-1.646c.24-.217.44-.326.604-.326.119 0 .219.039.297.117a.37.37 0 0 1 .119.273.377.377 0 0 1-.115.277c-.078.076-.27.167-.576.271-.293.1-.529.221-.713.361s-.385.355-.604.646a3.415 3.415 0 0 0-.457.756c-.088.217-.221.716-.398 1.5l-.267 1.175z"/><path d="M138.059 111.532l.939-.368-.426 1.688h1.225l-.094.43h-1.227l-.517 2.021c-.164.605-.246 1.027-.246 1.266 0 .107.022.187.068.234.045.049.106.072.186.072.123 0 .312-.074.562-.225.332-.195.646-.42.947-.668l.226.276c-.863.663-1.44 1.069-1.734 1.218-.29.149-.524.225-.702.225a.418.418 0 0 1-.347-.163c-.086-.108-.127-.285-.127-.53 0-.29.074-.732.226-1.326l.602-2.4h-.959l.107-.43h.959l.332-1.32zm4.765.929c.352 0 .623.068.814.208.19.14.286.299.286.479a.394.394 0 0 1-.12.283.408.408 0 0 1-.488.068 1.07 1.07 0 0 1-.236-.256c-.193-.262-.385-.393-.574-.393a.585.585 0 0 0-.43.189.652.652 0 0 0-.186.473c0 .164.039.324.116.479.08.155.279.405.599.75.438.474.658.924.658 1.35 0 .427-.179.798-.533 1.117-.355.319-.812.479-1.373.479-.469 0-.818-.099-1.047-.293a.913.913 0 0 1-.343-.722c0-.141.044-.257.13-.35a.42.42 0 0 1 .319-.14.4.4 0 0 1 .283.111.356.356 0 0 1 .118.264c0 .039-.004.092-.008.155-.004.054-.004.097-.004.134a.43.43 0 0 0 .164.338c.105.092.252.139.437.139.213 0 .399-.037.562-.111a.847.847 0 0 0 .377-.338c.092-.15.137-.3.137-.447a.863.863 0 0 0-.127-.435c-.086-.146-.275-.384-.572-.718-.41-.465-.615-.914-.615-1.344 0-.394.156-.738.469-1.033.31-.29.707-.436 1.187-.436z"/></g></svg>