<?xml version="1.0" encoding="utf-8"?>
<!-- Generator: Adobe Illustrator 16.0.4, SVG Export Plug-In . SVG Version: 6.00 Build 0)  -->
<!DOCTYPE svg PUBLIC "-//W3C//DTD SVG 1.1//EN" "http://www.w3.org/Graphics/SVG/1.1/DTD/svg11.dtd">
<svg version="1.1" id="Layer_1" xmlns="http://www.w3.org/2000/svg" xmlns:xlink="http://www.w3.org/1999/xlink" x="0px" y="0px"
	 width="545.685px" height="254px" viewBox="148.102 174.14 545.685 254" enable-background="new 148.102 174.14 545.685 254"
	 xml:space="preserve">
<g>
	<path fill="#C1C131" d="M693.787,338.654v-104.37c0-16.154-13.096-29.249-29.248-29.249H537.826
		c-16.154,0-29.25,13.095-29.25,29.249v126.711c0,16.153,13.096,29.248,29.25,29.248h104.369L693.787,338.654z"/>
	<path opacity="0.4" enable-background="new    " d="M671.445,338.654c-16.154,0-29.25,13.094-29.25,29.248v22.342l51.592-51.59
		H671.445z"/>
	<g>
		<path fill="#FFFFFF" d="M575.992,266.086c-1.936,0-4.658,0.915-6.645,5.273l-15.543,34.154l-15.387-34.222
			c-1.941-4.302-4.658-5.205-6.596-5.205c-2.586,0-5.738,1.097-6.072,6.328l-3.41,56.183h10.051l2.465-42.145l13.336,29.946
			c0.834,1.875,2.32,4.369,5.578,4.369c3.236,0,4.721-2.494,5.555-4.367l13.35-29.954l2.396,42.151h10.297l-3.252-56.149
			C581.802,266.913,578.144,266.086,575.992,266.086z"/>
		<path fill="#FFFFFF" d="M614.082,266.086c-2.221,0-5.229,0.981-6.945,5.655l-21.057,56.856h10.818l5.967-16.652h21.939
			l5.965,16.652h11.078l-20.766-56.847C619.373,267.069,616.332,266.086,614.082,266.086z M606.138,302.85l7.721-21.504
			l7.697,21.504H606.138z"/>
		<path fill="#FFFFFF" d="M677.031,318.876c-2.717,0.406-6.289,0.873-9.846,0.873c-15.584,0-17.213-6.737-17.213-22.109
			c0-15.711,1.559-22.109,17.213-22.109c3.383,0,7.025,0.479,9.82,0.897l2.043,0.305l1.049-8.971l-1.799-0.368
			c-2.922-0.597-7.65-1.308-13.598-1.308c-21.111,0-25.24,11.569-25.24,31.554c0,19.982,4.129,31.553,25.24,31.553
			c4.752,0,9.33-0.459,13.609-1.361l1.779-0.375l-1.012-8.887L677.031,318.876z"/>
	</g>
	<g>
		<path fill="#FFFFFF" d="M176.105,225.271c-2.221,0-5.228,0.981-6.946,5.654l-21.057,56.855h10.819l5.965-16.652h21.939
			l5.966,16.652h11.078l-20.766-56.847C181.397,226.253,178.356,225.271,176.105,225.271z M168.16,262.033l7.719-21.504
			l7.701,21.504H168.16z"/>
		<path fill="#FFFFFF" d="M223.74,225.271c-6.085,0-12.614,0.489-17.916,1.343l-1.682,0.271v59.821l1.672,0.277
			c5.339,0.887,11.873,1.395,17.926,1.395c22.806,0,27.129-11.09,27.129-31.554C250.869,236.36,246.546,225.271,223.74,225.271z
			 M214.506,235.114c2.979-0.327,5.554-0.499,7.52-0.499c18.432,0,18.432,8.359,18.432,22.209c0,13.85,0,22.209-18.432,22.209
			c-2.496,0-5.381-0.267-7.52-0.514V235.114z"/>
		<path fill="#FFFFFF" d="M276.298,225.718c-8.378,0-21.039,0-21.039,14.825v32.611c0,14.775,12.661,14.775,21.039,14.775
			c2.987,0,8.824-0.036,14.354-0.275l1.913-0.083v-8.985h-16.516c-9.76,0-10.402-1.132-10.402-9.011v-8.688h25.726v-9.195h-25.726
			v-7.545c0-7.943,0.643-9.085,10.402-9.085h16.516v-8.914l-1.916-0.08C285.668,225.859,279.9,225.718,276.298,225.718z"/>
		<path fill="#FFFFFF" d="M316.254,251.471c-10.059-2.877-11.849-3.87-11.849-9.884c0-5.011,3.77-6.873,13.908-6.873
			c3.14,0,6.815,0.317,11.24,0.972l2.05,0.303l1.012-9.047l-1.853-0.323c-2.877-0.504-8.647-1.348-14.983-1.348
			c-9.343,0-21.761,1.808-21.761,17.435c0,11.778,7.359,14.899,17.752,18.022c8.104,2.444,11.402,4.001,11.402,9.642
			c0,6.207-3.297,8.515-12.167,8.515c-4.033,0-9.01-0.392-13.653-1.073l-2.034-0.299l-1.083,9.101l1.816,0.359
			c4.266,0.844,8.483,1.405,15.202,1.405c15.178,0,22.556-5.987,22.556-18.305C333.81,258.133,325.371,254.077,316.254,251.471z"/>
		<rect x="336.507" y="225.867" fill="#FFFFFF" width="10.388" height="61.914"/>
		<path fill="#FFFFFF" d="M390.176,225.867l-15.707,46.052l-15.502-46.052h-11.033l19.688,56.796
			c1.344,3.846,3.562,5.715,6.784,5.715c4.237,0,5.859-3.265,6.71-5.716l19.817-56.795H390.176L390.176,225.867z"/>
		<path fill="#FFFFFF" d="M423.234,225.271c-20.333,0-24.418,12.073-24.418,31.553c0,19.48,4.085,31.554,24.418,31.554
			c20.314,0,24.396-12.073,24.396-31.554C447.63,237.344,443.548,225.271,423.234,225.271z M423.234,278.984
			c-12.671,0-13.932-6.413-13.932-22.16c0-15.746,1.261-22.159,13.932-22.159c12.615,0,13.934,6.752,13.934,22.159
			C437.167,272.231,435.849,278.984,423.234,278.984z"/>
		<path fill="#FFFFFF" d="M471.818,251.471c-10.059-2.877-11.85-3.87-11.85-9.884c0-5.011,3.771-6.873,13.908-6.873
			c3.137,0,6.814,0.317,11.242,0.972l2.049,0.303l1.01-9.047l-1.852-0.323c-2.877-0.504-8.648-1.348-14.984-1.348
			c-9.342,0-21.76,1.808-21.76,17.435c0,11.779,7.357,14.899,17.752,18.022c8.102,2.444,11.402,4,11.402,9.642
			c0,6.207-3.297,8.515-12.166,8.515c-4.033,0-9.012-0.392-13.654-1.073l-2.033-0.299l-1.084,9.101l1.818,0.359
			c4.266,0.844,8.482,1.405,15.201,1.405c15.178,0,22.555-5.987,22.555-18.305C489.375,258.133,480.935,254.077,471.818,251.471z"/>
	</g>
	<g>
		<path fill="#FFFFFF" d="M319.632,309.5c-6.214,0-12.577,0.521-17.697,1.367v57.143h6.388v-23.661
			c2.858,0.147,8.799,0.396,11.979,0.396c12.825,0,21.85-3.182,21.85-17.795C342.151,311.986,332.01,309.5,319.632,309.5z
			 M319.632,339.525c-3.354,0-6.686-0.025-11.31-0.523V315.49c4.126-0.547,8.352-0.771,11.607-0.771
			c11.657,0,15.857,3.529,15.857,12.23C335.788,337.039,329.972,339.525,319.632,339.525z"/>
		<path fill="#FFFFFF" d="M365.104,309.5c-2.36,0-4.002,1.441-5.069,4.351l-20.06,54.159h6.537l5.965-16.653h24.758l5.965,16.653
			h6.811l-19.785-54.159C369.155,310.917,367.466,309.5,365.104,309.5z M354.317,346.259l10.562-29.428l10.539,29.428H354.317z"/>
		<path fill="#FFFFFF" d="M435.308,326.673c0-14.86-10.215-17.174-22.519-17.174c-6.188,0-12.576,0.521-17.672,1.367v57.143h6.363
			V343.85c2.857,0.149,8.822,0.397,11.979,0.397h0.896l13.447,23.762h7.457l-14.193-24.284
			C429.667,342.357,435.308,337.958,435.308,326.673z M412.789,339.001c-3.355,0-6.661-0.022-11.309-0.521v-23.017
			c4.149-0.547,8.352-0.77,11.606-0.77c11.608,0,15.858,3.355,15.858,11.979C428.945,336.466,423.054,339.001,412.789,339.001z"/>
		<path fill="#FFFFFF" d="M470.589,313.85c-1.07-2.933-2.76-4.351-5.121-4.351c-2.359,0-4.002,1.441-5.068,4.351l-20.061,54.159
			h6.537l5.967-16.653h24.756l5.967,16.653h6.811L470.589,313.85z M454.681,346.259l10.564-29.428l10.537,29.428H454.681z"/>
	</g>
	<g>
		<path fill="#FFFFFF" d="M652.255,370.391c-0.373,0.373-0.352,0.928,0.031,1.312c0.385,0.385,0.928,0.416,1.291,0.055
			c0.395-0.396,0.361-0.939-0.021-1.322C653.162,370.039,652.628,370.018,652.255,370.391z"/>
		<path fill="#FFFFFF" d="M657.656,366.195c-2.248,2.248-3.559,1.381-5.566-0.629c-2.002-2.002-2.912-3.283-0.629-5.566
			c0.432-0.432,0.951-0.838,1.418-1.182l-0.578-0.732c-0.564,0.375-1.217,0.892-1.857,1.533c-2.402,2.402-1.834,4.139,0.811,6.783
			c2.641,2.641,4.379,3.217,6.783,0.812c0.65-0.652,1.156-1.297,1.525-1.865l-0.719-0.572
			C658.478,365.27,658.093,365.757,657.656,366.195z"/>
		<path fill="#FFFFFF" d="M655.708,354.354c-2.246,2.244-1.779,3.981,0.916,6.679c2.695,2.694,4.434,3.161,6.678,0.916
			c2.246-2.244,1.777-3.98-0.918-6.675C659.687,352.576,657.953,352.107,655.708,354.354z M662.609,361.253
			c-1.975,1.976-3.332,0.763-5.15-1.057c-1.824-1.824-3.031-3.178-1.057-5.15c1.967-1.967,3.326-0.768,5.15,1.058
			C663.371,357.921,664.576,359.287,662.609,361.253z"/>
		<path fill="#FFFFFF" d="M674.882,350.214l-7.346-6.541c-0.422-0.377-0.773-0.377-1.105-0.045
			c-0.246,0.246-0.287,0.627-0.092,1.148l2.672,7.137l-7.125-2.705c-0.523-0.196-0.887-0.146-1.131,0.097
			c-0.332,0.332-0.326,0.67,0.049,1.096l6.525,7.369l0.775-0.776l-5.863-6.593l6.955,2.67c0.383,0.146,0.664,0.152,0.891-0.073
			c0.227-0.227,0.217-0.504,0.07-0.888l-2.67-6.963l6.586,5.877L674.882,350.214z"/>
	</g>
</g>
</svg>
