<?xml version="1.0" encoding="utf-8"?>
<!-- Generator: Adobe Illustrator 16.0.0, SVG Export Plug-In . SVG Version: 6.00 Build 0)  -->
<!DOCTYPE svg PUBLIC "-//W3C//DTD SVG 1.1//EN" "http://www.w3.org/Graphics/SVG/1.1/DTD/svg11.dtd">
<svg version="1.1" id="Layer_1" xmlns="http://www.w3.org/2000/svg" xmlns:xlink="http://www.w3.org/1999/xlink" x="0px" y="0px"
	 width="782px" height="226px" viewBox="0 0 782 226" enable-background="new 0 0 782 226" xml:space="preserve">
<path fill="#FFFFFF" d="M247.473,77.057c0-2.836,0.974-5.22,2.924-7.167c1.949-1.951,4.341-2.926,7.174-2.926c2.834,0,5.217,0.975,7.167,2.926
	c1.949,1.947,2.924,4.331,2.924,7.167c0,2.831-0.975,5.225-2.924,7.172c-1.95,1.949-4.333,2.924-7.167,2.924
	c-2.833,0-5.225-0.975-7.174-2.924C248.447,82.282,247.473,79.888,247.473,77.057 M247.875,103.355c0-2.566,0.663-4.824,1.99-6.775
	c1.327-1.941,3.899-2.916,7.707-2.916c3.8,0,6.372,0.975,7.699,2.916c1.327,1.951,1.99,4.209,1.99,6.775v53.53
	c0,2.571-0.663,4.827-1.99,6.772c-1.327,1.948-3.899,2.924-7.699,2.924c-3.808,0-6.38-0.976-7.707-2.924
	c-1.327-1.945-1.99-4.201-1.99-6.772V103.355"/>
<path fill="#FFFFFF" d="M279.259,78.25c0-2.211,0.311-3.98,0.925-5.305c0.713-1.417,1.638-2.522,2.793-3.325c1.155-0.795,2.392-1.329,3.719-1.591
	c1.416-0.352,2.874-0.533,4.381-0.533h6.38c3.367,0,5.93,0.754,7.699,2.253c1.86,1.416,3.366,3.99,4.521,7.706l18.993,61.365h0.262
	l18.731-61.365c1.147-3.716,2.613-6.29,4.382-7.706c1.859-1.499,4.471-2.253,7.838-2.253h6.11c1.416,0,2.833,0.181,4.25,0.533
	c1.417,0.262,2.695,0.796,3.85,1.591c1.154,0.802,2.039,1.908,2.653,3.325c0.713,1.325,1.065,3.094,1.065,5.305v77.708
	c0,2.744-0.754,5.217-2.261,7.437c-1.416,2.121-3.89,3.187-7.436,3.187c-3.538,0-6.061-1.065-7.568-3.187
	c-1.417-2.22-2.129-4.692-2.129-7.437V96.72h-0.262l-20.32,63.481c-0.713,2.31-1.859,3.947-3.456,4.922
	c-1.598,0.967-3.539,1.459-5.84,1.459c-2.31,0-4.251-0.492-5.848-1.459c-1.597-0.975-2.743-2.612-3.456-4.922l-20.32-63.481h-0.262
	v59.239c0,2.744-0.753,5.217-2.26,7.437c-1.417,2.121-3.899,3.187-7.437,3.187c-3.546,0-6.069-1.065-7.576-3.187
	c-1.417-2.22-2.121-4.692-2.121-7.437V78.25"/>
<path fill="#FFFFFF" d="M433.946,132.186c-1.065,0.972-2.433,1.676-4.12,2.117c-1.679,0.443-3.096,0.754-4.251,0.938l-7.035,1.053
	c-4.069,0.622-7.174,1.638-9.296,3.06c-2.129,1.412-3.194,3.582-3.194,6.507c0,2.211,0.935,4.118,2.794,5.708
	c1.948,1.507,4.603,2.261,7.969,2.261c2.653,0,5.045-0.394,7.175-1.196c2.121-0.789,3.89-1.858,5.307-3.186
	c1.507-1.327,2.662-2.834,3.456-4.521c0.794-1.679,1.196-3.406,1.196-5.176V132.186 M453.34,146.122
	c0,2.039,0.091,3.726,0.263,5.054c0.27,1.326,0.491,2.473,0.663,3.447c0.271,0.889,0.491,1.688,0.664,2.393
	c0.27,0.621,0.4,1.326,0.4,2.129c0,2.216-0.884,4.029-2.652,5.451c-1.777,1.322-3.81,1.985-6.11,1.985
	c-4.161,0-7.084-1.106-8.772-3.325c-1.679-2.302-2.562-4.951-2.652-7.969c-3.81,4.25-7.929,7.223-12.352,8.902
	c-4.341,1.597-9.075,2.392-14.21,2.392c-2.752,0-5.447-0.491-8.107-1.458c-2.564-0.893-4.914-2.17-7.036-3.857
	c-2.039-1.68-3.678-3.719-4.914-6.106c-1.245-2.485-1.859-5.271-1.859-8.366c0-3.988,0.705-7.305,2.121-9.967
	c1.417-2.744,3.367-4.914,5.848-6.503c2.475-1.687,5.357-2.974,8.634-3.856c3.274-0.886,6.772-1.549,10.49-1.992l11.818-1.326
	c1.155-0.09,2.22-0.271,3.195-0.532c1.056-0.263,1.94-0.663,2.65-1.196c0.798-0.531,1.419-1.195,1.861-1.986
	c0.443-0.885,0.664-2.041,0.664-3.459c0-2.832-1.237-4.863-3.718-6.11c-2.393-1.237-5.227-1.859-8.502-1.859
	c-3.628,0-6.462,0.575-8.501,1.73c-2.031,1.063-3.761,2.261-5.177,3.585c-1.417,1.327-2.743,2.564-3.988,3.719
	c-1.237,1.066-2.834,1.592-4.783,1.592c-2.473,0-4.472-0.705-5.971-2.125c-1.507-1.507-2.261-3.276-2.261-5.312
	c0-1.951,0.663-3.942,1.99-5.981c1.327-2.029,3.276-3.888,5.848-5.577c2.653-1.769,5.89-3.184,9.697-4.249
	c3.891-1.149,8.321-1.722,13.276-1.722c4.611,0,8.854,0.393,12.752,1.198c3.898,0.704,7.216,1.898,9.959,3.579
	c2.752,1.597,4.874,3.677,6.381,6.247c1.588,2.473,2.391,5.446,2.391,8.894V146.122"/>
<path fill="#FFFFFF" d="M460.679,115.313c0-3.983,0.893-7.346,2.662-10.101c1.769-2.741,4.028-4.955,6.772-6.633
	c2.834-1.776,5.979-3.013,9.428-3.717c3.455-0.804,6.862-1.197,10.229-1.197c3.719,0,7.347,0.352,10.893,1.056
	c3.538,0.712,6.684,1.73,9.428,3.055c2.834,1.245,5.094,2.793,6.771,4.652c1.689,1.769,2.525,3.759,2.525,5.981
	c0,2.299-0.704,4.291-2.121,5.977c-1.417,1.679-3.408,2.522-5.979,2.522c-1.858,0-3.406-0.442-4.644-1.333
	c-1.155-0.966-2.391-1.992-3.718-3.055c-1.245-1.146-2.752-2.164-4.521-3.055c-1.769-0.966-4.161-1.46-7.175-1.46
	c-3.358,0-6.061,0.494-8.1,1.46c-2.039,0.973-3.056,2.48-3.056,4.521c0,2.301,0.976,3.85,2.924,4.644
	c1.949,0.806,4.424,1.554,7.438,2.258l8.1,1.864c2.743,0.618,5.536,1.412,8.368,2.387c2.926,0.975,5.539,2.26,7.84,3.85
	c2.302,1.597,4.202,3.588,5.708,5.979c1.509,2.303,2.262,5.135,2.262,8.502c0,3.988-0.886,7.436-2.654,10.36
	c-1.688,2.834-3.947,5.226-6.781,7.175c-2.834,1.859-6.061,3.227-9.688,4.119c-3.546,0.967-7.135,1.458-10.763,1.458
	c-4.431,0-8.591-0.491-12.481-1.458c-3.898-0.893-7.306-2.088-10.229-3.583c-2.924-1.601-5.225-3.46-6.903-5.581
	c-1.688-2.13-2.531-4.391-2.531-6.782c0-2.121,0.62-3.976,1.858-5.577c1.245-1.679,3.235-2.522,5.979-2.522
	c2.129,0,3.858,0.627,5.184,1.858c1.327,1.245,2.744,2.617,4.251,4.12c1.59,1.507,3.407,2.875,5.446,4.12
	c2.122,1.236,4.996,1.859,8.633,1.859c3.448,0,6.192-0.664,8.231-1.999c2.039-1.327,3.055-3.005,3.055-5.046
	c0-2.473-1.016-4.118-3.055-4.913c-1.95-0.794-4.645-1.638-8.101-2.519l-11.425-2.793c-2.834-0.707-5.488-1.552-7.969-2.527
	c-2.392-0.969-4.513-2.252-6.372-3.844c-1.77-1.602-3.186-3.498-4.251-5.714C461.17,121.38,460.679,118.587,460.679,115.313"/>
<path fill="#FFFFFF" d="M533.742,108.139h-3.316c-2.752,0-4.742-0.535-5.979-1.591c-1.154-1.065-1.728-2.662-1.728-4.781
	c0-2.132,0.573-3.72,1.728-4.785c1.237-1.063,3.228-1.595,5.979-1.595h3.316V83.565c0-3.184,0.886-5.577,2.654-7.174
	c1.777-1.679,4.119-2.523,7.043-2.523s5.267,0.844,7.036,2.523c1.777,1.597,2.661,3.99,2.661,7.174v11.821h5.84
	c2.834,0,5.004,0.489,6.511,1.464c1.507,0.976,2.261,2.612,2.261,4.916c0,2.299-0.754,3.939-2.261,4.912
	c-1.507,0.974-3.677,1.46-6.511,1.46h-5.84v38.785c0,3.007,1.679,4.514,5.045,4.514h2.793c2.122,0,3.76,0.577,4.914,1.729
	c1.237,1.154,1.859,2.744,1.859,4.787c0,5.754-4.692,8.629-14.078,8.629c-7.085,0-12.18-1.418-15.275-4.252
	c-3.104-2.924-4.652-7.261-4.652-13.014V108.139"/>
<path fill="#FFFFFF" d="M621.819,122.617c-0.532-4.512-2.302-8.188-5.315-11.024c-3.014-2.922-6.684-4.382-11.024-4.382
	c-4.873,0-8.763,1.37-11.687,4.12c-2.924,2.746-4.914,6.505-5.979,11.287H621.819 M587.813,133.771
	c0,5.139,1.548,9.387,4.652,12.752c3.186,3.275,7.609,4.914,13.276,4.914c3.637,0,6.471-0.482,8.502-1.458
	c2.129-0.974,3.856-2.039,5.184-3.187c1.417-1.24,2.744-2.35,3.981-3.324c1.243-1.061,2.833-1.598,4.782-1.598
	c2.302,0,4.209,0.844,5.708,2.531c1.507,1.59,2.262,3.276,2.262,5.045c0,2.924-1.065,5.487-3.187,7.699
	c-2.039,2.129-4.603,3.898-7.707,5.314c-3.006,1.328-6.282,2.352-9.828,3.056c-3.539,0.712-6.773,1.065-9.697,1.065
	c-6.814,0-12.571-1.017-17.265-3.056c-4.692-2.13-8.543-4.868-11.557-8.239c-3.005-3.354-5.176-7.125-6.503-11.287
	c-1.335-4.16-1.998-8.369-1.998-12.621c0-5.662,0.844-10.801,2.522-15.404c1.688-4.601,4.078-8.542,7.175-11.818
	c3.186-3.367,7.044-5.938,11.556-7.705c4.521-1.86,9.656-2.787,15.406-2.787c5.577,0,10.541,0.927,14.882,2.787
	c4.332,1.766,8.01,4.158,11.023,7.172c3.006,2.924,5.267,6.29,6.773,10.09c1.589,3.809,2.391,7.707,2.391,11.697
	c0,3.357-0.622,5.617-1.858,6.776c-1.155,1.053-3.366,1.585-6.643,1.585H587.813"/>
<path fill="#FFFFFF" d="M647.226,102.69c0-2.914,0.844-5.135,2.522-6.642c1.679-1.589,3.759-2.383,6.241-2.383c2.481,0,4.562,0.794,6.24,2.383
	c1.687,1.507,2.53,3.728,2.53,6.642v7.445h0.263c0.532-2.039,1.236-4.03,2.121-5.979c0.893-1.947,1.949-3.677,3.194-5.182
	c1.326-1.591,2.833-2.875,4.513-3.85c1.769-0.976,3.85-1.459,6.24-1.459c3.104,0,5.627,0.884,7.576,2.653
	c2.031,1.771,3.056,4.03,3.056,6.775c0,1.767-0.271,3.274-0.804,4.511c-0.532,1.247-1.276,2.26-2.252,3.055
	c-0.884,0.715-1.908,1.247-3.055,1.599c-1.155,0.352-2.301,0.532-3.456,0.532H678.7c-3.891,0-6.905,1.596-9.026,4.782
	c-2.039,3.095-3.055,8.677-3.055,16.731v22.58c0,2.572-0.663,4.828-1.998,6.772c-1.327,1.951-3.89,2.925-7.699,2.925
	c-3.808,0-6.38-0.974-7.707-2.925c-1.326-1.944-1.989-4.2-1.989-6.772V102.69"/>
<path fill="#FFFFFF" d="M690.682,115.313c0-3.983,0.885-7.346,2.662-10.101c1.77-2.741,4.029-4.955,6.773-6.633
	c2.834-1.776,5.979-3.013,9.427-3.717c3.456-0.804,6.863-1.197,10.229-1.197c3.719,0,7.347,0.352,10.893,1.056
	c3.539,0.712,6.684,1.73,9.427,3.055c2.834,1.245,5.095,2.793,6.773,4.652c1.687,1.769,2.522,3.759,2.522,5.981
	c0,2.299-0.703,4.291-2.121,5.977c-1.416,1.679-3.407,2.522-5.979,2.522c-1.859,0-3.407-0.442-4.652-1.333
	c-1.146-0.966-2.383-1.992-3.718-3.055c-1.237-1.146-2.744-2.164-4.513-3.055c-1.77-0.966-4.161-1.46-7.175-1.46
	c-3.366,0-6.062,0.494-8.101,1.46c-2.039,0.973-3.055,2.48-3.055,4.521c0,2.301,0.975,3.85,2.924,4.644
	c1.949,0.806,4.423,1.554,7.438,2.258l8.1,1.864c2.743,0.618,5.536,1.412,8.37,2.387c2.924,0.975,5.537,2.26,7.838,3.85
	c2.302,1.597,4.202,3.588,5.709,5.979c1.507,2.303,2.26,5.135,2.26,8.502c0,3.988-0.885,7.436-2.662,10.36
	c-1.679,2.834-3.938,5.226-6.772,7.175c-2.834,1.859-6.062,3.227-9.697,4.119c-3.538,0.967-7.126,1.458-10.754,1.458
	c-4.431,0-8.591-0.491-12.49-1.458c-3.89-0.893-7.297-2.088-10.221-3.583c-2.924-1.601-5.225-3.46-6.912-5.581
	c-1.679-2.13-2.523-4.391-2.523-6.782c0-2.121,0.622-3.976,1.859-5.577c1.245-1.679,3.235-2.522,5.979-2.522
	c2.129,0,3.849,0.627,5.184,1.858c1.327,1.245,2.744,2.617,4.251,4.12c1.589,1.507,3.407,2.875,5.438,4.12
	c2.13,1.236,5.004,1.859,8.641,1.859c3.446,0,6.192-0.664,8.23-1.999c2.039-1.327,3.056-3.005,3.056-5.046
	c0-2.473-1.017-4.118-3.056-4.913c-1.948-0.794-4.651-1.638-8.1-2.519l-11.425-2.793c-2.834-0.707-5.488-1.552-7.969-2.527
	c-2.393-0.969-4.514-2.252-6.372-3.844c-1.778-1.602-3.194-3.498-4.251-5.714C691.173,121.38,690.682,118.587,690.682,115.313"/>
<path fill="#FFFFFF" d="M113.509,18.466L26.088,60.325c0,0-0.527,0.289-1.115,0.663c-0.501,0.319-1.046,0.711-1.344,0.907
	c-1.918,1.262-1.871,3.154-1.871,3.154l0.059,97.824l1.734,2.926l89.252,45.686c0,0,2.278,0.855,3.845,0.855
	c1.726,0,3.684-1.242,3.684-1.242l88.743-45.191l2.156-4.012l-0.011-18.768l0.029-20.238l-0.046-9.966l-0.068-47.375
	c0,0,0.032-1.062-0.63-2.055c-0.761-1.142-5.822-3.513-5.822-3.513l-86.06-41.529L113.509,18.466z"/>
<path fill="#0083CA" d="M183.106,141.634c0,1.128,0.841,1.616,1.879,1.09l24.432-12.384c1.038-0.526,1.839-1.867,1.839-2.995
	l-0.04-26.558c0-1.128-0.761-1.616-1.799-1.09l-24.432,12.384c-1.038,0.526-1.879,1.867-1.879,2.996V141.634z"/>
<path fill="#E67E23" d="M150.905,158.25c0,1.129,0.841,1.617,1.879,1.091l24.432-12.384c1.038-0.526,1.88-1.867,1.88-2.995v-26.558
	c0-1.129-0.842-1.617-1.88-1.091l-24.432,12.384c-1.038,0.526-1.879,1.867-1.879,2.996V158.25z"/>
<path fill="#006CB7" d="M118.452,174.479c0,1.128,0.841,1.617,1.879,1.09l24.432-12.384c1.038-0.526,1.879-1.867,1.879-2.995
	v-26.557c0-1.129-0.841-1.617-1.879-1.092l-24.432,12.385c-1.038,0.525-1.879,1.867-1.879,2.996V174.479z"/>
<path fill="#0083CA" d="M182.913,106.366c0,1.128,0.812,1.616,1.85,1.09l24.446-12.384c1.038-0.526,1.975-1.867,1.975-2.995
	l0.001-13.092l-0.037-5.377l-0.004-8.089c0-1.128-0.911-1.616-1.949-1.09l-24.417,12.384c-1.038,0.526-1.865,1.867-1.865,2.996
	V106.366z"/>
<path fill="#E67E23" d="M150.964,122.709c0,1.129,0.812,1.617,1.85,1.091l24.446-12.384c1.038-0.526,1.894-1.867,1.894-2.995V81.862
	c0-1.128-0.87-1.616-1.908-1.09l-24.417,12.384c-1.038,0.526-1.865,1.867-1.865,2.996V122.709z"/>
<path fill="#006CB7" d="M118.511,138.916c0,1.127,0.812,1.616,1.85,1.09l24.446-12.385c1.038-0.525,1.894-1.867,1.894-2.994V98.069
	c0-1.129-0.87-1.617-1.908-1.091l-24.417,12.384c-1.038,0.526-1.865,1.867-1.865,2.996V138.916z"/>
<path fill="#B13432" d="M173.9,75.965c1.028,0.503,1.055,1.318,0.06,1.819l-23.603,11.894c-1.01,0.509-2.665,0.508-3.695-0.003
	l-24.1-11.954c-1.017-0.505-1.021-1.321-0.008-1.822l23.652-11.716c0.997-0.494,2.628-0.491,3.643,0.006L173.9,75.965z"/>
<path fill="#00A0DC" d="M204.981,60.106c1.025,0.495,1.066,1.294,0.09,1.785l-23.143,11.597c-0.99,0.499-2.627,0.497-3.654-0.005
	l-24.04-11.746c-1.016-0.496-1.033-1.297-0.041-1.788l23.193-11.488c0.978-0.484,2.591-0.481,3.604,0.008L204.981,60.106z"/>
<path fill="#00A0DC" d="M142.154,91.973c1.03,0.512,1.044,1.342,0.029,1.854l-24.079,12.135c-1.031,0.519-2.705,0.519-3.737-0.001
	L90.209,93.792c-1.02-0.513-1.009-1.345,0.024-1.857l24.126-11.952c1.017-0.504,2.666-0.502,3.684,0.005L142.154,91.973z"/>
<path fill="#00A0DC" d="M141.662,60.092c1.012,0.495,1.025,1.297,0.028,1.79l-23.66,11.687c-1.013,0.501-2.657,0.499-3.672-0.005
	L90.622,61.791c-1.002-0.497-0.991-1.3,0.023-1.793l23.706-11.514c1-0.486,2.62-0.482,3.621,0.008L141.662,60.092z"/>
<path fill="#2B93D1" d="M172.845,44.557c1.01,0.487,1.036,1.274,0.058,1.757l-23.201,11.459c-0.993,0.491-2.619,0.488-3.631-0.007
	l-23.68-11.57c-1-0.488-1.004-1.276-0.009-1.76l23.248-11.29c0.981-0.477,2.584-0.472,3.582,0.01L172.845,44.557z"/>
<path fill="#00A0DC" d="M109.858,75.935c1.015,0.505,1.013,1.321-0.004,1.823L85.721,89.681c-1.034,0.511-2.696,0.51-3.713-0.003
	L58.22,77.696c-1.005-0.506-0.98-1.324,0.055-1.827l24.177-11.744c1.02-0.495,2.658-0.493,3.661,0.006L109.858,75.935z"/>
<path fill="#2B93D1" d="M109.77,44.569c0.997,0.488,0.996,1.277-0.004,1.761L86.052,57.816c-1.016,0.492-2.649,0.489-3.648-0.007
	L59.025,46.212c-0.988-0.49-0.963-1.279,0.054-1.764l23.756-11.317c1.002-0.477,2.612-0.472,3.598,0.01L109.77,44.569z"/>
<path fill="#2B93D1" d="M141.031,29.3c0.995,0.48,1.007,1.254,0.027,1.729l-23.257,11.264c-0.996,0.482-2.612,0.478-3.609-0.009
	L90.864,30.885c-0.985-0.481-0.975-1.256,0.023-1.731l23.301-11.099c0.982-0.468,2.575-0.463,3.559,0.011L141.031,29.3z"/>
<path fill="#00A0DC" d="M77.891,60.14c0.999,0.497,0.984,1.3-0.036,1.794L53.67,73.65c-1.036,0.501-2.687,0.499-3.689-0.005
	L26.554,61.843c-0.989-0.498-0.95-1.303,0.087-1.797l24.225-11.541c1.022-0.487,2.649-0.483,3.637,0.008L77.891,60.14z"/>
<path fill="#E67E23" d="M150.738,193.55c0,1.128,0.841,1.616,1.879,1.09l24.432-12.384c1.038-0.526,1.879-1.867,1.879-2.995v-26.558
	c0-1.129-0.841-1.616-1.879-1.09l-24.432,12.383c-1.038,0.526-1.879,1.867-1.879,2.996V193.55z"/>
<path fill="#1268B3" d="M50.007,141.634c0,1.128-0.841,1.616-1.879,1.09L23.696,130.34c-1.038-0.526-1.879-1.867-1.879-2.995
	v-26.558c0-1.128,0.841-1.616,1.879-1.09l24.432,12.384c1.038,0.526,1.879,1.867,1.879,2.996V141.634z"/>
<path fill="#0E5595" d="M82.125,158.159c0,1.128-0.841,1.616-1.879,1.09l-24.432-12.384c-1.038-0.525-1.879-1.867-1.879-2.995
	v-26.558c0-1.129,0.841-1.616,1.879-1.09l24.432,12.384c1.038,0.526,1.879,1.866,1.879,2.996V158.159z"/>
<path fill="#06447C" d="M114.473,174.594c0,1.128-0.841,1.617-1.879,1.09L88.162,163.3c-1.038-0.526-1.879-1.867-1.879-2.995
	v-26.557c0-1.129,0.841-1.617,1.879-1.092l24.432,12.385c1.038,0.525,1.879,1.867,1.879,2.996V174.594z"/>
<path fill="#1268B3" d="M49.949,106.092c0,1.128-0.812,1.617-1.85,1.09L23.652,94.798c-1.038-0.526-1.894-1.867-1.894-2.995V65.245
	c0-1.128,0.87-1.616,1.908-1.09L48.083,76.54c1.038,0.526,1.865,1.867,1.865,2.996V106.092z"/>
<path fill="#0E5595" d="M82.066,122.618c0,1.128-0.812,1.616-1.85,1.091L55.77,111.324c-1.038-0.526-1.894-1.867-1.894-2.995V81.771
	c0-1.128,0.87-1.616,1.908-1.09l24.417,12.384c1.038,0.526,1.865,1.867,1.865,2.995V122.618z"/>
<path fill="#06447C" d="M114.414,139.053c0,1.128-0.812,1.617-1.85,1.09l-24.446-12.384c-1.038-0.526-1.894-1.867-1.894-2.995
	V98.207c0-1.129,0.87-1.617,1.908-1.091l24.417,12.384c1.038,0.526,1.865,1.867,1.865,2.996V139.053z"/>
<path fill="#0E5595" d="M82.082,193.699c0,1.129-0.841,1.616-1.879,1.09l-24.432-12.537c-1.038-0.525-1.879-1.866-1.879-2.996
	v-26.469c0-1.129,0.841-1.617,1.879-1.091l24.432,12.384c1.038,0.527,1.879,1.868,1.879,2.996V193.699z"/>
<path fill="#06447C" d="M114.473,210.297c0,1.129-0.841,1.617-1.879,1.091l-24.432-12.515c-1.038-0.526-1.879-1.867-1.879-2.996
	v-26.558c0-1.128,0.841-1.616,1.879-1.09l24.432,12.384c1.038,0.526,1.879,1.867,1.879,2.995V210.297z"/>
<path fill="#1268B3" d="M50.007,177.271c0,1.128-0.841,1.617-1.879,1.09l-24.432-12.492c-1.038-0.526-1.879-1.89-1.879-3.019
	v-26.558c0-1.127,0.841-1.615,1.879-1.09l24.432,12.385c1.038,0.525,1.879,1.867,1.879,2.994V177.271z"/>
<path fill="#006CB7" d="M118.452,209.984c0,1.129,0.841,1.617,1.879,1.091l24.432-12.384c1.038-0.526,1.879-1.867,1.879-2.995
	v-26.558c0-1.129-0.841-1.617-1.879-1.091l-24.432,12.384c-1.038,0.526-1.879,1.867-1.879,2.996V209.984z"/>
<path fill="#0083CA" d="M183.106,177.031c0,1.127,0.841,1.615,1.879,1.09l24.432-12.385c1.038-0.525,1.839-1.867,1.839-2.994
	l-0.04-26.559c0-1.128-0.761-1.616-1.799-1.09l-24.432,12.384c-1.038,0.526-1.879,1.867-1.879,2.996V177.031z"/>
<g>
</g>
<g>
</g>
<g>
</g>
<g>
</g>
<g>
</g>
<g>
</g>
</svg>
