<svg xmlns="http://www.w3.org/2000/svg" width="201.719" height="203.076" viewBox="50.703 47.405 201.719 203.076"><path d="M199.491 206.327c-3.539-.269-5.959-1.085-7.175-2.36-.836-.878-1.738-2.898-1.738-7.546V73.253c0-1.074.296-1.215-.779-1.215h-45.005c-1.073 0-2.365.141-2.365 1.215v60.309c-4.012-4.342-7.416-7.901-12.433-10.617-6.972-3.771-14.629-5.684-22.966-5.684-8.307 0-15.957 1.7-22.831 5.053-6.85 3.343-12.817 8.057-17.784 14.001-4.949 5.923-8.839 13.027-11.587 21.108-2.74 8.06-4.125 16.875-4.125 26.209 0 9.671 1.518 18.7 4.505 26.845 2.991 8.17 7.229 15.316 12.585 21.242 5.373 5.941 11.851 10.606 19.255 13.86 7.401 3.253 15.596 4.899 24.351 4.899 8.459 0 16.551-1.815 24.053-5.401 6.204-2.966 11.413-7.41 15.534-13.24 2.631 12.369 12.182 18.644 28.393 18.644 2.725 0 5.903-.203 9.459-.606 3.495-.397 6.246-1.001 10.842-1.792.93-.159.262-.969.262-1.916V208.27c-.003-1.019.566-1.863-.451-1.943z" fill="#fff"/><ellipse cx="228.854" cy="70.685" rx="23.568" ry="23.28" fill="#50c6e4"/></svg>