<?xml version="1.0" encoding="utf-8"?>
<!-- Generator: Adobe Illustrator 16.0.0, SVG Export Plug-In . SVG Version: 6.00 Build 0)  -->
<!DOCTYPE svg PUBLIC "-//W3C//DTD SVG 1.1//EN" "http://www.w3.org/Graphics/SVG/1.1/DTD/svg11.dtd">
<svg version="1.1" xmlns="http://www.w3.org/2000/svg" xmlns:xlink="http://www.w3.org/1999/xlink" x="0px" y="0px"
	 width="89.469px" height="80px" viewBox="0 0 89.469 80" enable-background="new 0 0 89.469 80" xml:space="preserve">
<g id="Logo__x2B__tipo">
</g>
<g id="Camada_4" display="none">
</g>
<g id="Objetos" display="none">
	<polygon display="inline" points="53.714,-802.39 28.714,-802.39 3.84,-1227.328 28.84,-1227.328 	"/>
	<polygon display="inline" fill="#FEEE00" points="27.135,-827.328 2.135,-827.328 -22.74,-1227.328 2.26,-1227.328 	"/>
	<polygon display="inline" points="353.963,-827.327 378.963,-827.327 403.838,-1227.328 378.838,-1227.328 	"/>
	<polygon display="inline" fill="#FEEE00" points="378.783,-827.327 403.783,-827.327 428.658,-1227.328 403.658,-1227.328 	"/>
	<rect x="28.84" y="-1227.328" display="inline" width="353.5" height="25"/>
	<rect x="-45.828" y="-1114.828" display="inline" fill="#FEEE00" width="499.667" height="25"/>
	<rect x="4.005" y="-977.328" display="inline" fill="#FEEE00" width="399.833" height="25"/>
	<rect x="194.701" y="-815.498" display="inline" fill="#FFFFFF" width="20.138" height="24.002"/>
	<polygon display="inline" fill="#FEEE00" points="178.875,-952.328 153.875,-952.328 166.505,-1089.828 191.505,-1089.828 	"/>
	<polygon display="inline" fill="#FEEE00" points="228.838,-952.328 253.838,-952.328 241.208,-1089.828 216.208,-1089.828 	"/>
	<circle display="inline" cx="213.115" cy="-778.037" r="12.417"/>
	<circle display="inline" cx="213.115" cy="-778.037" r="12.417"/>
	<circle display="inline" cx="200.724" cy="-790.427" r="12.391"/>
	<circle display="inline" cx="225.505" cy="-790.427" r="12.391"/>
	<g display="inline">
		<circle cx="198.818" cy="-778.037" r="7.583"/>
		<polygon points="204.005,-777.328 28.838,-802.39 28.713,-827.328 204.005,-802.39 		"/>
		<circle fill="#FFFFFF" cx="188.958" cy="-763.621" r="15.763"/>
	</g>
	<g display="inline">
		<circle cx="227.808" cy="-778.033" r="7.583"/>
		<polygon points="222.62,-777.324 397.787,-802.386 397.912,-827.324 222.62,-802.386 		"/>
		<circle fill="#FFFFFF" cx="237.667" cy="-763.617" r="15.763"/>
	</g>
	<rect x="-45.828" y="-1127.328" display="inline" fill="#FFFFFF" width="499.667" height="12.5"/>
	<rect x="-45.995" y="-952.328" display="inline" fill="#FFFFFF" width="499.667" height="12.5"/>
</g>
<g id="fatiado" display="none">
</g>
<g id="Camada_6">
	<g>
		<polygon points="34.693,-1127.328 30.303,-1202.328 203.338,-1202.328 213.115,-1202.328 232.963,-1202.328 395.926,-1202.328 
			391.536,-1127.328 416.536,-1127.328 422.389,-1227.328 397.389,-1227.328 232.963,-1227.328 213.115,-1227.328 
			203.338,-1227.328 28.84,-1227.328 3.84,-1227.328 9.693,-1127.328 		"/>
		<path d="M373.778-823.951L225.08-802.796c-0.906,0.031-1.786,0.159-2.634,0.375l-0.222,0.031v0.025
			c-5.239,1.438-9.097,6.217-9.108,11.911c0,0,0,0-0.001,0c0,0-0.001,0-0.001,0c-0.012-5.694-3.868-10.474-9.108-11.911v-0.025
			l-0.222-0.031c-0.847-0.216-1.727-0.344-2.633-0.375L52.452-823.951l-6.783-115.877h-25l8.045,137.438h0.125l161.181,23.061
			c5.487,0.366,10.207,3.526,12.732,8.085c2.218,3.379,6.02,5.624,10.363,5.624s8.146-2.245,10.363-5.624
			c2.525-4.559,7.245-7.719,12.731-8.085l161.182-23.061h0.125l8.045-137.438h-25L373.778-823.951z"/>
		<path d="M441.208-1114.828h-25h-190.37h-12.724h-6.61H10.021h-25h-30.084v25h31.639l8.551,137.5h25h40.977h93.537h25l2.296-25
			l10.333-112.5h14.235h6.61h12.724h8.121l10.334,112.5l2.296,25h25h93.537h40.977h25l8.551-137.5h31.64v-25H441.208z
			 M156.937-977.328H18.572l-6.996-112.5H167.27L156.937-977.328z M407.658-977.328H269.293l-10.334-112.5h155.694L407.658-977.328z
			"/>
	</g>
	<g>
		<g>
			<polygon fill="#F7DF1E" points="72.203,-616.476 68.749,-675.479 204.877,-675.479 212.566,-675.479 228.18,-675.479 
				356.386,-675.479 352.929,-616.476 372.596,-616.476 377.203,-695.146 357.536,-695.146 228.18,-695.146 212.566,-695.146 
				204.877,-695.146 67.598,-695.146 47.931,-695.146 52.536,-616.476 			"/>
			<path fill="#F7DF1E" d="M338.958-377.813l-116.982,16.642c-0.709,0.027-1.404,0.128-2.07,0.297l-0.173,0.024v0.021
				c-4.122,1.128-7.158,4.888-7.168,9.367l0,0l0,0c-0.01-4.479-3.046-8.239-7.166-9.367v-0.021l-0.174-0.024
				c-0.666-0.169-1.361-0.27-2.071-0.297L86.173-377.813l-5.336-91.161H61.169L67.5-360.85h0.095l126.8,18.142
				c4.318,0.288,8.032,2.773,10.019,6.358c1.744,2.661,4.735,4.426,8.152,4.426c3.418,0,6.41-1.765,8.151-4.426
				c1.99-3.585,5.705-6.07,10.019-6.358l126.8-18.142h0.096l6.331-108.124h-19.667L338.958-377.813z"/>
			<path fill="#424242" d="M392.005-606.644h-19.667H222.576h-10.01h-5.2H52.794H33.126H9.459v19.667h24.889l6.727,108.171h19.667
				h32.235h73.589h19.666l1.808-19.667l8.126-88.504h11.199h5.2h10.01h6.389l8.129,88.504l1.805,19.667h19.668h73.586h32.235h19.667
				l6.728-108.171h24.888v-19.667H392.005z M168.373-498.473H59.519l-5.502-88.504h122.482L168.373-498.473z M365.614-498.473
				H256.762l-8.129-88.504h122.485L365.614-498.473z"/>
		</g>
		<g>
			<path fill="#424242" d="M19.073-294.9l-4.736,1.226v0.264l4.736,1.229l26.931,11.754v5.526L9.73-291.524v-4.254l36.273-16.579
				v5.526L19.073-294.9z"/>
			<path fill="#424242" d="M60.396-269.55v-32.608h-5.933v-3.249h5.933v-5.235c0-3.602,0.901-6.383,2.699-8.354
				c1.802-1.962,4.326-2.946,7.575-2.946c0.729,0,1.466,0.055,2.22,0.166c0.75,0.108,1.511,0.264,2.285,0.465l-0.496,3.278
				c-0.53-0.131-1.078-0.236-1.641-0.313c-0.563-0.079-1.222-0.117-1.972-0.117c-2.165,0-3.822,0.685-4.969,2.055
				c-1.151,1.37-1.725,3.292-1.725,5.766v5.235h8.55v3.249h-8.55v32.608H60.396z"/>
			<path fill="#424242" d="M96.318-301.992l-2.951-0.199c-2.495,0-4.545,0.701-6.146,2.104c-1.601,1.402-2.746,3.33-3.431,5.784
				v24.753h-3.975v-35.857h3.478l0.497,5.967v0.397c1.039-2.21,2.431-3.934,4.177-5.171c1.744-1.236,3.821-1.856,6.23-1.856
				c0.508,0,0.999,0.041,1.475,0.117c0.475,0.079,0.867,0.16,1.176,0.25L96.318-301.992z"/>
			<path fill="#424242" d="M100.03-288.007c0-5.282,1.446-9.612,4.34-12.991c2.895-3.381,6.728-5.072,11.5-5.072
				c4.794,0,8.638,1.691,11.534,5.072c2.894,3.379,4.341,7.709,4.341,12.991v1.093c0,5.304-1.442,9.639-4.325,13.007
				c-2.883,3.371-6.71,5.054-11.482,5.054c-4.818,0-8.673-1.683-11.568-5.054c-2.894-3.368-4.34-7.703-4.34-13.007V-288.007z
				 M104.007-286.934c0,4.151,1.048,7.639,3.148,10.463c2.099,2.825,5.026,4.238,8.783,4.238c3.689,0,6.588-1.413,8.697-4.238
				c2.112-2.824,3.166-6.312,3.166-10.463v-1.09c0-4.083-1.06-7.549-3.18-10.395c-2.122-2.849-5.037-4.271-8.75-4.271
				c-3.71,0-6.616,1.422-8.715,4.271c-2.1,2.846-3.148,6.312-3.148,10.395V-286.934z"/>
			<path fill="#424242" d="M143.542-305.407l0.364,6.264c1.148-2.208,2.7-3.915,4.655-5.122c1.958-1.201,4.271-1.805,6.944-1.805
				c3.889,0,6.848,1.19,8.882,3.564c2.032,2.375,3.049,6.08,3.049,11.117v21.839h-3.977v-21.85c0-4.115-0.768-7.029-2.304-8.731
				c-1.535-1.707-3.719-2.558-6.544-2.558c-2.785,0-5.055,0.736-6.811,2.21c-1.756,1.471-3.02,3.425-3.793,5.858v25.07h-3.979
				v-35.857H143.542z"/>
			<path fill="#424242" d="M184.039-314.587v9.18h7.887v3.249h-7.887v23.363c0,2.344,0.425,4.005,1.276,4.988
				c0.851,0.981,1.981,1.474,3.397,1.474c0.641,0,1.264-0.027,1.872-0.084c0.608-0.055,1.309-0.149,2.104-0.28l0.598,2.949
				c-0.663,0.285-1.472,0.509-2.419,0.663c-0.951,0.155-1.901,0.231-2.85,0.231c-2.52,0-4.481-0.797-5.882-2.387
				c-1.404-1.59-2.105-4.107-2.105-7.555v-23.363h-6.198v-3.249h6.198v-9.18H184.039z"/>
			<path fill="#424242" d="M204.785-315.68h-3.944v-5.566h3.944V-315.68z M204.785-269.55h-3.944v-35.857h3.944V-269.55z"/>
			<path fill="#424242" d="M219.267-305.407l0.364,6.264c1.147-2.208,2.701-3.915,4.656-5.122c1.956-1.201,4.268-1.805,6.943-1.805
				c3.889,0,6.849,1.19,8.881,3.564c2.032,2.375,3.05,6.08,3.05,11.117v21.839h-3.979v-21.85c0-4.115-0.768-7.029-2.302-8.731
				c-1.536-1.707-3.717-2.558-6.545-2.558c-2.782,0-5.052,0.736-6.811,2.21c-1.754,1.471-3.02,3.425-3.793,5.858v25.07h-3.977
				v-35.857H219.267z"/>
			<path fill="#424242" d="M264.966-282.904l0.63,3.313h0.197l0.663-3.313l5.9-22.503h10.106l-12.196,35.857h-9.245l-12.194-35.857
				h10.106L264.966-282.904z"/>
			<path fill="#424242" d="M307.153-269.55c-0.355-0.815-0.658-1.677-0.911-2.585c-0.256-0.905-0.438-1.832-0.548-2.783
				c-0.994,1.745-2.302,3.193-3.927,4.341c-1.624,1.147-3.562,1.724-5.817,1.724c-3.755,0-6.649-0.965-8.683-2.9
				c-2.032-1.93-3.048-4.566-3.048-7.902c0-3.515,1.354-6.235,4.06-8.168c2.708-1.936,6.656-2.9,11.848-2.9h5.401v-2.85
				c0-1.726-0.453-3.061-1.357-4.012c-0.907-0.949-2.243-1.425-4.011-1.425c-1.57,0-2.778,0.381-3.629,1.145
				c-0.851,0.761-1.276,1.815-1.276,3.164l-9.345-0.032l-0.033-0.199c-0.155-3.027,1.161-5.64,3.944-7.836
				c2.783-2.199,6.439-3.301,10.97-3.301c4.285,0,7.766,1.09,10.438,3.268c2.672,2.175,4.009,5.273,4.009,9.294v14.815
				c0,1.677,0.126,3.256,0.382,4.734c0.253,1.482,0.657,2.952,1.208,4.409H307.153z M298.305-276.011
				c1.702,0,3.214-0.422,4.54-1.259c1.327-0.84,2.219-1.813,2.684-2.92v-5.069h-5.401c-2.055,0-3.611,0.514-4.673,1.542
				c-1.061,1.027-1.59,2.27-1.59,3.729c0,1.193,0.397,2.153,1.193,2.882C295.853-276.378,296.933-276.011,298.305-276.011z"/>
			<path fill="#424242" d="M332.736-269.55h-9.677v-51.696h9.677V-269.55z"/>
			<path fill="#424242" d="M356.563-268.854c-5.167,0-9.301-1.655-12.393-4.972c-3.093-3.313-4.64-7.521-4.64-12.627v-1.323
				c0-5.325,1.464-9.71,4.392-13.157c2.927-3.446,6.854-5.159,11.781-5.138c4.838,0,8.594,1.46,11.267,4.377
				c2.672,2.916,4.011,6.858,4.011,11.83v5.268h-21.41l-0.065,0.199c0.175,2.354,0.967,4.292,2.368,5.809
				c1.404,1.52,3.31,2.278,5.718,2.278c2.144,0,3.921-0.215,5.334-0.645c1.414-0.433,2.962-1.112,4.639-2.042l2.619,5.98
				c-1.458,1.199-3.37,2.194-5.733,2.982C362.087-269.248,359.458-268.854,356.563-268.854z M355.702-298.611
				c-1.79,0-3.204,0.686-4.242,2.053c-1.039,1.37-1.679,3.172-1.922,5.404l0.101,0.163h11.863v-0.859
				c0-2.058-0.479-3.697-1.44-4.923C359.099-297.999,357.646-298.611,355.702-298.611z"/>
			<path fill="#424242" d="M378.34-306.965v-5.393l37.064,16.579v4.254l-37.064,16.623v-5.437l27.72-12.019l4.738-1.185v-0.264
				l-4.738-1.272L378.34-306.965z"/>
		</g>
	</g>
	<g>
		<polygon fill="#FFFFFF" points="13.819,17.327 13.059,4.331 43.041,4.331 44.734,4.331 48.174,4.331 76.411,4.331 75.649,17.327 
			79.981,17.327 80.995,0 76.663,0 48.174,0 44.734,0 43.041,0 12.806,0 8.474,0 9.488,17.327 		"/>
		<path fill="#FFFFFF" d="M72.572,69.893l-25.764,3.665c-0.157,0.007-0.311,0.028-0.457,0.065l-0.038,0.006v0.004
			c-0.908,0.249-1.577,1.077-1.579,2.063l0,0l0,0c-0.002-0.986-0.67-1.814-1.578-2.063v-0.004l-0.039-0.006
			c-0.146-0.037-0.298-0.059-0.456-0.065l-25.765-3.665l-1.175-20.078H11.39l1.395,23.814h0.021l27.928,3.996
			c0.951,0.063,1.769,0.609,2.206,1.4C43.323,79.611,43.981,80,44.734,80s1.411-0.389,1.796-0.975
			c0.438-0.791,1.257-1.338,2.206-1.4l27.927-3.996h0.021l1.395-23.814h-4.331L72.572,69.893z"/>
		<path fill="#FFFFFF" d="M84.256,19.492h-4.332H46.939h-2.205H43.59H9.545H5.214H0v4.333h5.482l1.481,23.823h4.332h7.1h16.208
			h4.331l0.397-4.331l1.791-19.492h2.467h1.145h2.205h1.406l1.791,19.492l0.397,4.331h4.333h16.206h7.101h4.332l1.481-23.823h5.481
			v-4.333H84.256z M35.002,43.317H11.026L9.814,23.825h26.977L35.002,43.317z M78.443,43.317H54.47l-1.792-19.492h26.978
			L78.443,43.317z"/>
	</g>
</g>
<g id="grid" display="none">
</g>
<g id="Camada_2" display="none">
	<rect x="3.838" y="-1127.328" display="inline" fill="none" width="25" height="25"/>
</g>
</svg>
