<?xml version="1.0" encoding="utf-8"?>
<!-- Generator: Adobe Illustrator 16.0.4, SVG Export Plug-In . SVG Version: 6.00 Build 0)  -->
<!DOCTYPE svg PUBLIC "-//W3C//DTD SVG 1.1//EN" "http://www.w3.org/Graphics/SVG/1.1/DTD/svg11.dtd">
<svg version="1.1" id="Layer_1" xmlns="http://www.w3.org/2000/svg" xmlns:xlink="http://www.w3.org/1999/xlink" x="0px" y="0px"
	 width="174.519px" height="78.987px" viewBox="0 0 174.519 78.987" enable-background="new 0 0 174.519 78.987"
	 xml:space="preserve">
<g>
	<path fill="#EC1C24" d="M115.069,0.144l-9.945,0.005C26.028,52.69,145.661,8.19,84.612,51.317h23.645
		C156.803-0.506,46.116,44.646,115.069,0.144 M63.3,65.327c-6.446,4.026-13.817,8.504-22.293,13.517l37.135-0.011
		c5.952-4.938,11.124-9.416,15.656-13.506H63.3z"/>
	<path fill="none" stroke="#EC1C24" stroke-width="0.422" stroke-miterlimit="22.926" d="M115.024,0.211l-9.905,0.006
		c-78.782,52.45,40.375,8.027-20.431,51.08h23.55C156.592-0.436,46.345,44.637,115.024,0.211z M63.461,65.282
		c-6.42,4.021-13.763,8.489-22.205,13.494l36.987-0.011c5.929-4.932,11.081-9.399,15.595-13.483H63.461z"/>
	<path fill="#034EA1" d="M0,11.673h9.374v19.852c0,1.881,0.471,3.395,1.412,4.556c0.938,1.158,2.906,1.735,4.737,1.735
		c3.77,0,5.639-1.999,5.649-5.99l0.054-20.153h5.089v20.756c0,3.479-1.144,6.201-3.422,8.174c-2.278,1.972-5.051,3.221-9.826,3.067
		c-4.771-0.153-7.152-1.032-9.456-3.36C1.391,38.066,0,34.904,0,30.812V11.673z M31.3,43.387v-25.86c0-4.09,2.069-6.282,5.324-6.282
		c1.491,0,2.713,0.322,3.661,0.949c0.952,0.633,1.972,1.563,2.864,2.923l9.818,14.943h0.16V11.71h5.142v26.555
		c0,3.606-1.339,5.404-3.622,5.404c-1.861,0-3.064-0.783-4.184-2.41L36.602,21.076h-0.159v22.311H31.3z M63.634,11.673h9.314v31.714
		h-9.314V11.673z M154.703,11.587h9.263V35.17c0,1.698,0.21,2.794,0.637,3.278c0.427,0.483,1.253,0.73,2.478,0.73h7.438v4.208
		h-11.848c-2.942,0-5.002-0.559-6.188-1.681c-1.18-1.114-1.779-2.749-1.779-4.903V11.587z M121.607,43.387l9.152-26.216
		c0.775-2.165,1.722-3.669,2.845-4.512c1.126-0.846,1.51-1.176,3.368-1.176c1.581,0,2.242,0.271,3.274,1.012
		c1.026,0.738,1.952,2.246,2.766,4.512l9.46,26.38h-9.787l-1.979-5.844h-11.619l-2.238,5.844H121.607z M138.622,33.077
		l-3.798-12.766h-0.139l-4.017,12.766H138.622z"/>
	<path fill="#034EA1" d="M25.455,57.008c-0.292,0-0.533,0.131-0.722,0.395c-0.187,0.263-0.324,0.583-0.41,0.956
		c-0.086,0.377-0.138,0.744-0.158,1.108c0,0.595,0.058,1.073,0.172,1.434c0.095,0.366,0.245,0.673,0.45,0.924
		c0.205,0.251,0.428,0.378,0.668,0.378c0.23,0,0.428-0.085,0.593-0.256c0.166-0.17,0.297-0.387,0.396-0.652
		c0.098-0.265,0.168-0.55,0.211-0.853c0.044-0.299,0.065-0.582,0.065-0.844c0-0.354-0.041-0.731-0.122-1.132
		c-0.081-0.398-0.216-0.743-0.406-1.029C26.002,57.152,25.755,57.008,25.455,57.008 M23.047,59.68c0-0.656,0.104-1.211,0.308-1.663
		c0.204-0.454,0.476-0.796,0.813-1.025c0.339-0.23,0.714-0.36,1.127-0.396c0.347,0,0.674,0.079,0.982,0.234
		c0.307,0.154,0.577,0.367,0.809,0.637c0.233,0.271,0.414,0.577,0.547,0.922c0.133,0.345,0.202,0.704,0.214,1.079
		c0,0.69-0.109,1.275-0.329,1.755c-0.218,0.479-0.511,0.834-0.875,1.068c-0.363,0.234-0.762,0.351-1.19,0.351
		c-0.417-0.008-0.81-0.152-1.18-0.436c-0.366-0.281-0.662-0.648-0.882-1.102C23.169,60.651,23.056,60.174,23.047,59.68
		 M19.208,56.745h1.946c0.406,0,0.748,0.148,1.023,0.444c0.277,0.294,0.415,0.682,0.415,1.162c0,0.36-0.086,0.643-0.258,0.846
		c-0.171,0.2-0.412,0.362-0.723,0.483l1.249,2.801h-1.12l-1.149-2.883l0.127,0.026c0.288-0.014,0.513-0.137,0.675-0.367
		c0.16-0.233,0.242-0.535,0.242-0.906c0-0.349-0.091-0.633-0.271-0.852c-0.181-0.22-0.417-0.328-0.707-0.328h-0.501v5.31h-0.947
		V56.745z M15.692,56.745h2.819v0.427h-0.925v5.31h-0.958v-5.31h-0.936V56.745z M11.331,62.481V57.61
		c0-0.28,0.062-0.495,0.189-0.642c0.127-0.147,0.298-0.224,0.513-0.224c0.315,0,0.569,0.192,0.765,0.573l1.5,2.774
		c0.084,0.181,0.146,0.288,0.182,0.317c0.044-0.018,0.066-0.199,0.066-0.544v-3.121h0.456v5.273c0,0.396-0.095,0.596-0.287,0.596
		c-0.177,0-0.322-0.116-0.437-0.348l-2.18-4.14l-0.081-0.157l-0.111-0.163l-0.098-0.039c-0.028,0-0.04,0.039-0.04,0.119v4.595
		H11.331z M10.415,56.745v0.427H8.67c-0.125,0-0.209,0.015-0.252,0.045c-0.044,0.032-0.066,0.116-0.066,0.26v1.766h1.713v0.546
		H8.352v1.885c0,0.127,0.035,0.225,0.106,0.293c0.073,0.069,0.164,0.104,0.277,0.104h1.817v0.411H8.126
		c-0.481,0-0.724-0.326-0.724-0.982v-3.692c0-0.355,0.059-0.621,0.176-0.798c0.116-0.174,0.342-0.264,0.675-0.264H10.415z
		 M6.093,55.759c-0.322-0.529-0.632-0.92-0.931-1.176c-0.297-0.256-0.627-0.39-0.985-0.403c-0.585,0-1.071,0.168-1.458,0.497
		c-0.385,0.331-0.672,0.777-0.858,1.338c-0.185,0.562-0.287,1.193-0.303,1.898c0,0.58,0.049,1.123,0.147,1.632
		c0.101,0.508,0.252,0.952,0.462,1.333c0.208,0.383,0.471,0.673,0.787,0.875c0.308,0.184,0.635,0.289,0.981,0.317
		c0.493-0.014,0.953-0.191,1.38-0.533c0.428-0.345,0.736-0.811,0.928-1.392l0.459,0.29c-0.199,0.585-0.55,1.11-1.051,1.579
		c-0.502,0.472-1.131,0.706-1.889,0.706c-0.173,0-0.4-0.017-0.681-0.056c-0.415-0.087-0.802-0.265-1.161-0.529
		c-0.358-0.268-0.671-0.606-0.937-1.016c-0.265-0.41-0.469-0.863-0.614-1.362c-0.145-0.498-0.221-1.016-0.228-1.554
		c0.021-0.652,0.135-1.276,0.345-1.875c0.208-0.599,0.503-1.114,0.886-1.551c0.382-0.438,0.828-0.747,1.338-0.929
		c0.354-0.142,0.711-0.214,1.074-0.214c1.096,0,1.99,0.589,2.682,1.767L6.093,55.759z M163.173,56.745h0.958v4.13
		c0,0.305,0.077,0.563,0.231,0.776c0.155,0.213,0.376,0.325,0.664,0.339c0.321,0,0.575-0.13,0.766-0.394
		c0.19-0.261,0.287-0.648,0.287-1.16v-3.691h0.435v3.995c0,0.387-0.067,0.724-0.2,1.013c-0.135,0.287-0.328,0.506-0.581,0.66
		c-0.252,0.151-0.544,0.229-0.879,0.229c-1.119-0.029-1.681-0.679-1.681-1.953V56.745z M160.963,60.169l-0.578-2.536
		c-0.029-0.114-0.054-0.183-0.07-0.205l-0.099-0.033l-0.099,0.053c-0.017,0.035-0.042,0.105-0.072,0.213l-0.553,2.509H160.963z
		 M158.534,62.481l1.053-4.848c0.093-0.395,0.206-0.663,0.339-0.812c0.132-0.15,0.309-0.226,0.535-0.226
		c0.257,0,0.444,0.074,0.565,0.223c0.119,0.145,0.229,0.445,0.328,0.896l1.151,4.768h-1.023l-0.393-1.741h-1.748l-0.37,1.741
		H158.534z M154.744,54.288v4.063h0.628c0.672,0,1.124-0.205,1.354-0.614c0.232-0.41,0.349-0.939,0.349-1.592
		c-0.011-0.355-0.068-0.67-0.181-0.944c-0.109-0.274-0.292-0.496-0.543-0.664c-0.252-0.168-0.578-0.249-0.979-0.249H154.744z
		 M153.456,53.875h2.871c0.27,0,0.523,0.055,0.763,0.16c0.24,0.106,0.453,0.26,0.639,0.464c0.185,0.206,0.333,0.454,0.444,0.744
		c0.11,0.293,0.173,0.621,0.188,0.983c0.006,0.071,0.012,0.173,0.012,0.306c0,0.493-0.082,0.913-0.244,1.264
		c-0.161,0.348-0.433,0.618-0.812,0.812c-0.381,0.192-0.884,0.289-1.509,0.289h-1.064v3.585h-1.288V53.875z M147.227,57.008
		c-0.293,0-0.535,0.131-0.723,0.395c-0.188,0.263-0.324,0.583-0.409,0.956c-0.086,0.377-0.139,0.744-0.158,1.108
		c0,0.595,0.058,1.073,0.172,1.434c0.096,0.366,0.244,0.673,0.449,0.924s0.428,0.378,0.669,0.378c0.229,0,0.428-0.085,0.593-0.256
		c0.164-0.17,0.296-0.387,0.395-0.652c0.1-0.265,0.171-0.55,0.213-0.853c0.043-0.299,0.064-0.582,0.064-0.844
		c0-0.354-0.04-0.731-0.122-1.132c-0.081-0.398-0.218-0.743-0.406-1.029C147.773,57.152,147.526,57.008,147.227,57.008
		 M144.819,59.68c0-0.656,0.102-1.211,0.308-1.663c0.203-0.454,0.474-0.796,0.812-1.025c0.338-0.23,0.714-0.36,1.127-0.396
		c0.347,0,0.676,0.079,0.982,0.234c0.307,0.154,0.577,0.367,0.808,0.637c0.233,0.271,0.414,0.577,0.547,0.922
		c0.134,0.345,0.204,0.704,0.216,1.079c0,0.69-0.11,1.275-0.329,1.755c-0.218,0.479-0.511,0.834-0.875,1.068
		s-0.763,0.351-1.191,0.351c-0.416-0.008-0.81-0.152-1.178-0.436c-0.367-0.281-0.663-0.648-0.883-1.102
		C144.939,60.651,144.826,60.174,144.819,59.68 M141.071,55.561c0.041-0.381,0.158-0.671,0.355-0.867
		c0.197-0.199,0.396-0.299,0.601-0.299c0.158,0.009,0.287,0.026,0.39,0.054c0.104,0.026,0.232,0.066,0.382,0.121
		c0.149,0.058,0.253,0.091,0.309,0.104c0.083,0,0.147,0.009,0.191,0.024c0.102-0.011,0.172-0.041,0.211-0.093
		c0.04-0.051,0.107-0.177,0.205-0.373h0.413c-0.058,0.411-0.188,0.713-0.389,0.905c-0.2,0.195-0.433,0.29-0.694,0.29
		c-0.104-0.012-0.281-0.063-0.536-0.155c-0.255-0.093-0.457-0.136-0.608-0.136c-0.22,0-0.365,0.133-0.437,0.398L141.071,55.561z
		 M143.045,60.169l-0.577-2.536c-0.029-0.114-0.054-0.183-0.07-0.205l-0.098-0.033l-0.099,0.053
		c-0.019,0.035-0.043,0.105-0.072,0.213l-0.555,2.509H143.045z M140.618,62.481l1.053-4.848c0.093-0.395,0.206-0.663,0.338-0.812
		c0.132-0.15,0.31-0.226,0.534-0.226c0.257,0,0.444,0.074,0.566,0.223c0.119,0.145,0.229,0.445,0.329,0.896l1.15,4.768h-1.023
		l-0.393-1.741h-1.747l-0.372,1.741H140.618z M135.646,61.392l0.468-0.464c0.174,0.341,0.34,0.588,0.5,0.747
		c0.158,0.157,0.347,0.263,0.565,0.314l0.17,0.028l0.137,0.026c0.344-0.013,0.64-0.143,0.891-0.388
		c0.25-0.244,0.383-0.568,0.398-0.969c0-0.562-0.121-0.994-0.368-1.289c-0.246-0.296-0.601-0.541-1.06-0.731
		c-0.364-0.165-0.674-0.339-0.923-0.523c-0.25-0.183-0.457-0.442-0.619-0.771c-0.164-0.331-0.244-0.749-0.244-1.252
		c0.012-0.502,0.126-0.943,0.342-1.322c0.215-0.378,0.502-0.667,0.856-0.864c0.357-0.198,0.745-0.298,1.163-0.298
		c0.271,0.015,0.533,0.087,0.789,0.221c0.256,0.131,0.482,0.311,0.681,0.534c0.197,0.225,0.346,0.481,0.45,0.772l-0.437,0.372
		c-0.292-0.787-0.758-1.194-1.396-1.223c-0.317,0-0.585,0.122-0.803,0.367s-0.337,0.577-0.357,1.001
		c0,0.384,0.077,0.683,0.232,0.897c0.154,0.215,0.423,0.434,0.801,0.656c0.275,0.149,0.543,0.296,0.8,0.439
		c0.259,0.141,0.49,0.309,0.697,0.497c0.207,0.189,0.378,0.443,0.514,0.762c0.135,0.319,0.202,0.715,0.202,1.186
		c-0.004,0.382-0.074,0.739-0.207,1.063c-0.133,0.327-0.312,0.604-0.538,0.832c-0.224,0.229-0.476,0.404-0.757,0.527
		c-0.28,0.119-0.571,0.18-0.869,0.18c-0.426,0-0.827-0.112-1.199-0.34C136.147,62.155,135.856,61.825,135.646,61.392 M131.76,56.745
		v0.427h-1.744c-0.125,0-0.209,0.015-0.253,0.045c-0.044,0.032-0.066,0.116-0.066,0.26v1.766h1.714v0.546h-1.714v1.885
		c0,0.127,0.036,0.225,0.107,0.293c0.071,0.069,0.163,0.104,0.277,0.104h1.817v0.411h-2.428c-0.481,0-0.722-0.326-0.722-0.982
		v-3.692c0-0.355,0.059-0.621,0.175-0.798c0.118-0.174,0.343-0.264,0.676-0.264H131.76z M124.882,62.12h0.56
		c0.57,0,0.988-0.212,1.252-0.629c0.266-0.422,0.397-0.982,0.397-1.688c0-0.16-0.003-0.281-0.007-0.362
		c-0.036-0.695-0.199-1.256-0.487-1.684c-0.29-0.428-0.672-0.643-1.147-0.643h-0.567V62.12z M124.011,56.752h1.493
		c0.806,0,1.438,0.326,1.901,0.98c0.357,0.504,0.538,1.175,0.538,2.016c0,0.672-0.126,1.227-0.377,1.662
		c-0.188,0.339-0.438,0.6-0.749,0.789c-0.313,0.188-0.707,0.281-1.185,0.281h-1.622V56.752z M118.022,57.008
		c-0.292,0-0.533,0.131-0.721,0.395c-0.188,0.263-0.325,0.583-0.411,0.956c-0.085,0.377-0.138,0.744-0.157,1.108
		c0,0.595,0.058,1.073,0.171,1.434c0.097,0.366,0.245,0.673,0.449,0.924c0.207,0.251,0.428,0.378,0.669,0.378
		c0.229,0,0.429-0.085,0.594-0.256c0.164-0.17,0.297-0.387,0.395-0.652c0.1-0.265,0.17-0.55,0.211-0.853
		c0.045-0.299,0.066-0.582,0.066-0.844c0-0.354-0.041-0.731-0.123-1.132c-0.081-0.398-0.217-0.743-0.405-1.029
		C118.569,57.152,118.322,57.008,118.022,57.008 M115.615,59.68c0-0.656,0.103-1.211,0.308-1.663
		c0.203-0.454,0.475-0.796,0.812-1.025c0.34-0.23,0.715-0.36,1.128-0.396c0.348,0,0.675,0.079,0.981,0.234
		c0.307,0.154,0.577,0.367,0.809,0.637c0.233,0.271,0.414,0.577,0.547,0.922c0.134,0.345,0.204,0.704,0.215,1.079
		c0,0.69-0.108,1.275-0.328,1.755c-0.219,0.479-0.512,0.834-0.876,1.068c-0.363,0.234-0.762,0.351-1.189,0.351
		c-0.418-0.008-0.811-0.152-1.18-0.436c-0.367-0.281-0.661-0.648-0.883-1.102C115.736,60.651,115.624,60.174,115.615,59.68
		 M111.171,62.481V57.61c0-0.28,0.062-0.495,0.189-0.642c0.126-0.147,0.298-0.224,0.513-0.224c0.314,0,0.569,0.192,0.765,0.573
		l1.499,2.774c0.085,0.181,0.146,0.288,0.183,0.317c0.044-0.018,0.066-0.199,0.066-0.544v-3.121h0.455v5.273
		c0,0.396-0.096,0.596-0.287,0.596c-0.178,0-0.322-0.116-0.437-0.348l-2.181-4.14l-0.081-0.157l-0.11-0.163l-0.098-0.039
		c-0.028,0-0.042,0.039-0.042,0.119v4.595H111.171z M108.668,60.169l-0.578-2.536c-0.029-0.114-0.053-0.183-0.07-0.205l-0.097-0.033
		l-0.1,0.053c-0.018,0.035-0.042,0.105-0.072,0.213l-0.554,2.509H108.668z M106.241,62.481l1.052-4.848
		c0.094-0.395,0.205-0.663,0.339-0.812c0.131-0.15,0.31-0.226,0.534-0.226c0.258,0,0.444,0.074,0.565,0.223
		c0.119,0.145,0.23,0.445,0.329,0.896l1.151,4.768h-1.024l-0.392-1.741h-1.747l-0.372,1.741H106.241z M104.587,56.745h0.979v5.736
		h-0.979V56.745z M103.474,56.824v0.411c-0.333-0.043-0.595-0.063-0.787-0.063c-0.278,0-0.495,0.058-0.652,0.174
		c-0.157,0.117-0.26,0.324-0.307,0.618c0.028,0.323,0.213,0.592,0.554,0.812c0.425,0.297,0.723,0.515,0.89,0.65
		s0.325,0.335,0.475,0.597c0.149,0.26,0.224,0.579,0.224,0.957c-0.01,0.552-0.186,0.938-0.528,1.164
		c-0.345,0.224-0.758,0.337-1.239,0.337c-0.491,0-0.876-0.053-1.151-0.159v-0.359c0.172,0.027,0.464,0.063,0.874,0.107
		c0.376-0.014,0.651-0.091,0.825-0.233c0.174-0.142,0.261-0.359,0.261-0.654c0-0.276-0.08-0.494-0.241-0.655
		c-0.161-0.16-0.414-0.357-0.761-0.585c-0.346-0.231-0.605-0.458-0.784-0.684c-0.178-0.225-0.266-0.519-0.266-0.883
		c0-0.538,0.16-0.944,0.481-1.218c0.32-0.275,0.705-0.413,1.153-0.413c0.081,0,0.183,0.006,0.304,0.014
		c0.12,0.009,0.228,0.02,0.317,0.027C103.204,56.794,103.324,56.81,103.474,56.824 M100.399,56.745v0.427h-1.744
		c-0.126,0-0.209,0.015-0.253,0.045c-0.044,0.032-0.066,0.116-0.066,0.26v1.766h1.714v0.546h-1.714v1.885
		c0,0.127,0.036,0.225,0.107,0.293c0.072,0.069,0.164,0.104,0.276,0.104h1.818v0.411h-2.427c-0.481,0-0.723-0.326-0.723-0.982
		v-3.692c0-0.355,0.059-0.621,0.175-0.798c0.117-0.174,0.343-0.264,0.675-0.264H100.399z M94.59,56.595h0.969v5.13l-0.021,0.13
		c0.011,0.104,0.033,0.166,0.062,0.185c0.03,0.02,0.115,0.03,0.257,0.03h1.124v0.411h-1.751c-0.281,0-0.459-0.08-0.532-0.24
		c-0.07-0.16-0.106-0.391-0.106-0.691V56.595z M167.427,56.595h0.969v5.13l-0.021,0.13c0.011,0.104,0.031,0.166,0.06,0.185
		c0.031,0.02,0.117,0.03,0.258,0.03h1.125v0.411h-1.751c-0.282,0-0.458-0.08-0.531-0.24c-0.072-0.16-0.108-0.391-0.108-0.691V56.595
		z M92.562,60.169l-0.576-2.536c-0.03-0.114-0.054-0.183-0.071-0.205l-0.098-0.033l-0.099,0.053
		c-0.017,0.035-0.042,0.105-0.072,0.213l-0.553,2.509H92.562z M90.137,62.481l1.052-4.848c0.094-0.395,0.206-0.663,0.338-0.812
		c0.133-0.15,0.311-0.226,0.535-0.226c0.257,0,0.445,0.074,0.565,0.223c0.12,0.145,0.229,0.445,0.328,0.896l1.151,4.768h-1.023
		l-0.392-1.741h-1.748l-0.37,1.741H90.137z M85.36,61.392l0.469-0.464c0.173,0.341,0.34,0.588,0.5,0.747
		c0.157,0.157,0.347,0.263,0.565,0.314l0.17,0.028l0.137,0.026c0.344-0.013,0.641-0.143,0.891-0.388
		c0.249-0.244,0.382-0.568,0.399-0.969c0-0.562-0.123-0.994-0.368-1.289c-0.247-0.296-0.602-0.541-1.06-0.731
		c-0.366-0.165-0.674-0.339-0.925-0.523c-0.25-0.183-0.456-0.442-0.618-0.771c-0.164-0.331-0.245-0.749-0.245-1.252
		c0.012-0.502,0.126-0.943,0.342-1.322c0.216-0.378,0.501-0.667,0.857-0.864c0.356-0.198,0.744-0.298,1.164-0.298
		c0.27,0.015,0.532,0.087,0.788,0.221c0.256,0.131,0.481,0.311,0.68,0.534c0.196,0.225,0.347,0.481,0.45,0.772l-0.438,0.372
		c-0.291-0.787-0.756-1.194-1.396-1.223c-0.318,0-0.585,0.122-0.803,0.367c-0.217,0.245-0.336,0.577-0.357,1.001
		c0,0.384,0.078,0.683,0.233,0.897c0.153,0.215,0.422,0.434,0.799,0.656c0.277,0.149,0.545,0.296,0.802,0.439
		c0.258,0.141,0.49,0.309,0.697,0.497c0.205,0.189,0.378,0.443,0.514,0.762c0.135,0.319,0.202,0.715,0.202,1.186
		c-0.006,0.382-0.073,0.739-0.207,1.063c-0.134,0.327-0.313,0.604-0.538,0.832c-0.224,0.229-0.477,0.404-0.758,0.527
		c-0.279,0.119-0.57,0.18-0.869,0.18c-0.425,0-0.825-0.112-1.199-0.34C85.864,62.155,85.571,61.825,85.36,61.392 M79.207,57.008
		c-0.292,0-0.533,0.131-0.72,0.395c-0.188,0.263-0.326,0.583-0.412,0.956c-0.085,0.377-0.137,0.744-0.157,1.108
		c0,0.595,0.058,1.073,0.171,1.434c0.096,0.366,0.245,0.673,0.449,0.924c0.206,0.251,0.428,0.378,0.668,0.378
		c0.23,0,0.429-0.085,0.593-0.256c0.166-0.17,0.298-0.387,0.396-0.652c0.099-0.265,0.169-0.55,0.211-0.853
		c0.044-0.299,0.065-0.582,0.065-0.844c0-0.354-0.042-0.731-0.122-1.132c-0.082-0.398-0.217-0.743-0.406-1.029
		C79.754,57.152,79.507,57.008,79.207,57.008 M76.8,59.68c0-0.656,0.103-1.211,0.308-1.663c0.203-0.454,0.475-0.796,0.813-1.025
		c0.339-0.23,0.714-0.36,1.126-0.396c0.349,0,0.675,0.079,0.983,0.234c0.307,0.154,0.577,0.367,0.809,0.637
		c0.233,0.271,0.414,0.577,0.547,0.922c0.133,0.345,0.204,0.704,0.214,1.079c0,0.69-0.108,1.275-0.329,1.755
		c-0.218,0.479-0.512,0.834-0.875,1.068s-0.762,0.351-1.19,0.351c-0.417-0.008-0.809-0.152-1.178-0.436
		c-0.368-0.281-0.663-0.648-0.884-1.102C76.921,60.651,76.808,60.174,76.8,59.68 M74.96,56.745h0.979v5.736H74.96V56.745z
		 M70.587,56.745h1.946c0.407,0,0.748,0.148,1.024,0.444c0.276,0.294,0.415,0.682,0.415,1.162c0,0.36-0.086,0.643-0.257,0.846
		c-0.172,0.2-0.413,0.362-0.724,0.483l1.249,2.801H73.12l-1.149-2.883l0.127,0.026c0.287-0.014,0.512-0.137,0.674-0.367
		c0.16-0.233,0.242-0.535,0.242-0.906c0-0.349-0.091-0.633-0.271-0.852c-0.182-0.22-0.417-0.328-0.708-0.328h-0.501v5.31h-0.947
		V56.745z M69.149,53.875l-1.416,2.018h-0.498l1.021-2.018H69.149z M68.331,60.169l-0.577-2.536
		c-0.029-0.114-0.053-0.183-0.07-0.205l-0.098-0.033l-0.099,0.053c-0.019,0.035-0.042,0.105-0.073,0.213l-0.554,2.509H68.331z
		 M65.905,62.481l1.052-4.848c0.093-0.395,0.206-0.663,0.337-0.812c0.132-0.15,0.31-0.226,0.535-0.226
		c0.257,0,0.444,0.074,0.566,0.223c0.12,0.145,0.229,0.445,0.328,0.896l1.151,4.768h-1.024l-0.392-1.741h-1.747l-0.372,1.741H65.905
		z M62.933,56.745h2.818v0.427h-0.925v5.31h-0.958v-5.31h-0.936V56.745z M61.177,56.745h0.979v5.736h-0.979V56.745z M59.94,56.824
		v0.411c-0.333-0.043-0.596-0.063-0.787-0.063c-0.28,0-0.496,0.058-0.652,0.174c-0.158,0.117-0.26,0.324-0.307,0.618
		c0.028,0.323,0.212,0.592,0.554,0.812c0.426,0.297,0.723,0.515,0.89,0.65c0.167,0.136,0.325,0.335,0.475,0.597
		c0.149,0.26,0.223,0.579,0.223,0.957c-0.008,0.552-0.186,0.938-0.529,1.164c-0.343,0.224-0.756,0.337-1.238,0.337
		c-0.491,0-0.876-0.053-1.152-0.159v-0.359c0.173,0.027,0.464,0.063,0.875,0.107c0.375-0.014,0.65-0.091,0.824-0.233
		c0.175-0.142,0.261-0.359,0.261-0.654c0-0.276-0.081-0.494-0.241-0.655c-0.162-0.16-0.414-0.357-0.76-0.585
		c-0.346-0.231-0.607-0.458-0.785-0.684c-0.177-0.225-0.267-0.519-0.267-0.883c0-0.538,0.161-0.944,0.482-1.218
		c0.322-0.275,0.707-0.413,1.155-0.413c0.08,0,0.182,0.006,0.303,0.014c0.12,0.009,0.227,0.02,0.316,0.027
		C59.671,56.794,59.792,56.81,59.94,56.824 M53.46,56.745h1.947c0.407,0,0.749,0.148,1.024,0.444
		c0.275,0.294,0.415,0.682,0.415,1.162c0,0.36-0.086,0.643-0.258,0.846c-0.171,0.2-0.413,0.362-0.724,0.483l1.25,2.801h-1.12
		l-1.148-2.883l0.125,0.026c0.288-0.014,0.513-0.137,0.675-0.367c0.161-0.233,0.243-0.535,0.243-0.906
		c0-0.349-0.091-0.633-0.272-0.852c-0.18-0.22-0.415-0.328-0.706-0.328h-0.502v5.31H53.46V56.745z M52.544,56.745v0.427H50.8
		c-0.125,0-0.208,0.015-0.252,0.045c-0.044,0.032-0.067,0.116-0.067,0.26v1.766h1.714v0.546h-1.714v1.885
		c0,0.127,0.036,0.225,0.109,0.293c0.071,0.069,0.163,0.104,0.276,0.104h1.817v0.411h-2.426c-0.482,0-0.723-0.326-0.723-0.982
		v-3.692c0-0.355,0.058-0.621,0.175-0.798c0.117-0.174,0.342-0.264,0.674-0.264H52.544z M44.83,56.745h1.053l1.107,4.672
		c0.036,0.168,0.086,0.262,0.148,0.278c0.055,0,0.108-0.092,0.16-0.278l1.063-4.672h0.48l-1.127,4.807
		c-0.101,0.428-0.211,0.715-0.336,0.864c-0.126,0.149-0.312,0.226-0.558,0.226c-0.228,0-0.401-0.077-0.524-0.229
		c-0.121-0.151-0.231-0.419-0.329-0.807L44.83,56.745z M43.074,56.745h0.979v5.736h-0.979V56.745z M38.096,62.481V57.61
		c0-0.28,0.062-0.495,0.189-0.642c0.126-0.147,0.297-0.224,0.512-0.224c0.316,0,0.569,0.192,0.766,0.573l1.499,2.774
		c0.085,0.181,0.146,0.288,0.183,0.317c0.044-0.018,0.065-0.199,0.065-0.544v-3.121h0.457v5.273c0,0.396-0.096,0.596-0.287,0.596
		c-0.178,0-0.322-0.116-0.438-0.348l-2.18-4.14l-0.081-0.157l-0.11-0.163l-0.097-0.039c-0.029,0-0.042,0.039-0.042,0.119v4.595
		H38.096z M33.016,53.875v6.162c0,0.527,0.146,0.954,0.44,1.275c0.295,0.321,0.662,0.502,1.101,0.543
		c0.353-0.025,0.666-0.119,0.938-0.278c0.224-0.163,0.388-0.359,0.489-0.597c0.101-0.235,0.151-0.54,0.151-0.914v-6.191h0.564v6.352
		c0,0.536-0.106,0.996-0.314,1.37c-0.211,0.377-0.501,0.658-0.873,0.846c-0.373,0.188-0.801,0.279-1.285,0.279
		c-0.415,0-0.782-0.065-1.1-0.196c-0.317-0.13-0.581-0.317-0.792-0.562c-0.211-0.243-0.368-0.54-0.472-0.883
		c-0.104-0.345-0.156-0.733-0.156-1.164v-6.041H33.016z M169.644,59.68c0-0.656,0.102-1.211,0.307-1.663
		c0.203-0.454,0.475-0.796,0.813-1.025c0.339-0.23,0.715-0.36,1.127-0.396c0.347,0,0.675,0.079,0.981,0.234
		c0.309,0.154,0.578,0.367,0.81,0.637c0.231,0.271,0.414,0.577,0.547,0.922s0.203,0.704,0.215,1.079c0,0.69-0.11,1.275-0.33,1.755
		c-0.218,0.479-0.51,0.834-0.875,1.068c-0.364,0.234-0.76,0.351-1.189,0.351c-0.419-0.008-0.811-0.152-1.179-0.436
		c-0.367-0.281-0.664-0.648-0.883-1.102C169.764,60.651,169.651,60.174,169.644,59.68 M172.051,57.008
		c-0.294,0-0.533,0.131-0.722,0.395c-0.188,0.263-0.325,0.583-0.411,0.956c-0.086,0.377-0.138,0.744-0.157,1.108
		c0,0.595,0.057,1.073,0.171,1.434c0.097,0.366,0.245,0.673,0.45,0.924s0.428,0.378,0.669,0.378c0.229,0,0.428-0.085,0.594-0.256
		c0.165-0.17,0.295-0.387,0.396-0.652c0.097-0.265,0.167-0.55,0.211-0.853c0.043-0.299,0.065-0.582,0.065-0.844
		c0-0.354-0.042-0.731-0.123-1.132c-0.082-0.398-0.218-0.743-0.407-1.029C172.597,57.152,172.351,57.008,172.051,57.008"/>
</g>
</svg>
