<?xml version="1.0" encoding="utf-8"?>
<!-- Generator: Adobe Illustrator 16.0.0, SVG Export Plug-In . SVG Version: 6.00 Build 0)  -->
<!DOCTYPE svg PUBLIC "-//W3C//DTD SVG 1.1//EN" "http://www.w3.org/Graphics/SVG/1.1/DTD/svg11.dtd">
<svg version="1.1"
	 id="svg2" xmlns:dc="http://purl.org/dc/elements/1.1/" xmlns:cc="http://web.resource.org/cc/" xmlns:rdf="http://www.w3.org/1999/02/22-rdf-syntax-ns#" xmlns:svg="http://www.w3.org/2000/svg" xmlns:sodipodi="http://inkscape.sourceforge.net/DTD/sodipodi-0.dtd" xmlns:inkscape="http://www.inkscape.org/namespaces/inkscape" sodipodi:docbase="/home/sdeibel" sodipodi:docname="logo-python-generic.svg" inkscape:version="0.43" sodipodi:version="0.32"
	 xmlns="http://www.w3.org/2000/svg" xmlns:xlink="http://www.w3.org/1999/xlink" x="0px" y="0px" width="111.162px"
	 height="112.39px" viewBox="5.591 6.397 111.162 112.39" enable-background="new 5.591 6.397 111.162 112.39" xml:space="preserve"
	>
<sodipodi:namedview  inkscape:cy="71.887497" inkscape:cx="243.02499" borderopacity="1.0" pagecolor="#ffffff" bordercolor="#666666" inkscape:zoom="1.4340089" id="base" inkscape:current-layer="svg2" inkscape:window-y="0" inkscape:window-x="0" inkscape:window-width="791" inkscape:window-height="543" inkscape:pageshadow="2" inkscape:pageopacity="0.0">
	</sodipodi:namedview>
<g>
	<path id="path1948" fill="#FFFFFF" d="M60.51,6.398c-4.584,0.021-8.961,0.412-12.812,1.094c-11.346,2.005-13.406,6.2-13.406,13.938
		v10.219h26.812v3.406H34.292H24.229c-7.792,0-14.616,4.684-16.75,13.594c-2.462,10.213-2.571,16.586,0,27.25
		c1.906,7.938,6.458,13.594,14.25,13.594h9.219v-12.25c0-8.85,7.657-16.656,16.75-16.656h26.781c7.455,0,13.406-6.138,13.406-13.625
		V21.429c0-7.266-6.13-12.725-13.406-13.938C69.873,6.725,65.094,6.376,60.51,6.398z M46.01,14.616c2.77,0,5.031,2.299,5.031,5.125
		c0,2.816-2.262,5.094-5.031,5.094c-2.78,0-5.031-2.277-5.031-5.094C40.979,16.915,43.23,14.616,46.01,14.616z"/>
	<path id="path1950" fill="#FFFFFF" d="M91.229,35.054V46.96c0,9.231-7.826,17-16.75,17H47.698c-7.336,0-13.406,6.278-13.406,13.625
		v25.531c0,7.267,6.318,11.541,13.406,13.625c8.487,2.496,16.626,2.947,26.781,0c6.75-1.954,13.406-5.888,13.406-13.625V92.898
		H61.104v-3.406h26.781h13.406c7.792,0,10.696-5.436,13.406-13.594c2.799-8.398,2.68-16.476,0-27.25
		c-1.926-7.757-5.604-13.594-13.406-13.594H91.229z M76.167,99.71c2.779,0,5.031,2.277,5.031,5.094c0,2.826-2.252,5.125-5.031,5.125
		c-2.77,0-5.031-2.299-5.031-5.125C71.135,101.988,73.397,99.71,76.167,99.71z"/>
</g>
</svg>
