<svg xmlns="http://www.w3.org/2000/svg" width="430" height="190" viewBox="0 0 689 263">
    <g fill="#06C9CF" fill-rule="evenodd">
        <path stroke="#6BFF49" stroke-width="20" d="M297.66 228.572a.253.253 0 0 1 .12 0 .371.371 0 0 1 .29.325.654.654 0 0 1-.108.47c-.097.145-.181.121-.254-.072-.047-.126-.064-.368-.049-.723zm0 0c-.186.039-.472.232-.857.579 0 .193.278.47.833.832.555.362 1.255.687 2.1.977.846.29 1.751.434 2.717.434a4.84 4.84 0 0 0 2.68-.796c1.545-1.061 2.692-1.604 3.44-1.628.75-.024 1.256.193 1.522.651.265.458.374.99.326 1.592-.048.603-.12 1.001-.217 1.194.241.242.217.591-.073 1.05-.29.458-.76.916-1.412 1.375-.652.458-1.45.868-2.39 1.23a11.15 11.15 0 0 1-3.007.688c-1.062.096-2.16-.013-3.296-.326-1.135-.314-2.209-.929-3.223-1.846-.193.772-.483 1.207-.87 1.303-.386.097-.82 0-1.303-.29a15.166 15.166 0 0 1-1.63-1.157 14.777 14.777 0 0 0-1.775-1.23c-.58-.338-1.135-.52-1.666-.543-.53-.025-1.014.253-1.448.832-1.16 1.978-2.101 3.184-2.825 3.618-.725.435-1.353.543-1.884.326a10.092 10.092 0 0 1-1.593-.832c-.532-.338-1.208-.29-2.029.145-2.076-.338-3.513-.953-4.31-1.846-.796-.893-1.122-1.797-.977-2.714.144-.917.7-1.749 1.666-2.497.965-.747 2.173-1.17 3.621-1.266.628 0 1.28-.169 1.956-.507a9.7 9.7 0 0 1 2.065-.76 4.03 4.03 0 0 1 2.136.073c.725.217 1.45.856 2.174 1.918.096.193.193.156.29-.109.096-.265.229-.64.398-1.122.169-.482.362-1.013.58-1.592.216-.579.518-1.085.905-1.52.29-.29.627-.47 1.014-.542a9.612 9.612 0 0 0 1.05-.254c.314-.096.543-.241.688-.434.145-.193.073-.507-.217-.94-.531-1.014-.724-1.81-.58-2.389.145-.579.435-1.05.87-1.411a5.984 5.984 0 0 1 1.376-.869c.483-.217.773-.47.87-.76-.532-.965-1.003-2.062-1.413-3.292a27.719 27.719 0 0 1-.942-3.547c-.217-1.133-.338-2.159-.362-3.075-.024-.917.096-1.532.362-1.846.266-.313.676-.253 1.231.181.556.434 1.292 1.4 2.21 2.895.917-2.123 1.497-3.775 1.738-4.957.242-1.182.266-2.075.073-2.678-.194-.603-.544-1.013-1.05-1.23a54.055 54.055 0 0 0-1.594-.652 8.196 8.196 0 0 1-1.63-.868c-.531-.362-.918-1.001-1.16-1.918-.096-.29-.518-.483-1.267-.579a19.658 19.658 0 0 0-2.499-.145c-.917 0-1.823.036-2.716.109-.894.072-1.51.157-1.847.253-.435.097-.821.35-1.16.76-.337.41-.712.82-1.122 1.23-.41.41-.905.736-1.485.977-.58.242-1.376.217-2.39-.072-.821-.193-1.546-.181-2.173.036-.628.217-1.123.386-1.485.507-.363.12-.58.108-.652-.036-.073-.145.036-.676.326-1.593.193-.916.688-1.881 1.485-2.894a26.06 26.06 0 0 1 2.571-2.823 37.192 37.192 0 0 1 3.55-2.967 4.989 4.989 0 0 1 1.847-2.823c.941-.723 1.92-1.085 2.933-1.085 1.014 0 1.92.422 2.717 1.266.796.845 1.195 2.208 1.195 4.09.917-.338 1.509-.531 1.774-.58.266-.048.399.012.399.181 0 .17-.048.41-.145.724a1.02 1.02 0 0 0 .145.905c.193.29.604.567 1.231.832.628.265 1.666.422 3.115.47.531 0 .893.278 1.087.833.193.554.434 1.194.724 1.917.29.724.712 1.448 1.268 2.171.555.724 1.46 1.255 2.716 1.593.773.193 1.316.711 1.63 1.556.314.844.458 1.87.434 3.075a22.894 22.894 0 0 1-.434 3.872 60.356 60.356 0 0 1-.906 3.98 56.88 56.88 0 0 1-1.014 3.438c-.338 1.013-.603 1.737-.797 2.171-.193.531-.519 1.146-.978 1.846-.458.7-.917 1.375-1.376 2.026a18.684 18.684 0 0 0-1.123 1.773c-.29.53-.338.941-.144 1.23-.29 1.593-.471 2.75-.544 3.474-.025.249-.04.466-.049.652zm34.926-44.653c.628 0 1.304.205 2.028.615.725.41 1.522.917 2.39 1.52.87.603 1.812 1.266 2.826 1.99s2.1 1.4 3.26 2.026c.724.338 1.533.543 2.426.616.893.072 1.787.168 2.68.29.894.12 1.75.373 2.572.759.82.386 1.52 1.098 2.1 2.135.58 1.037 1.014 2.485 1.304 4.342.29 1.858.338 4.33.145 7.418-.193 2.895-.41 5.766-.652 8.612a54.239 54.239 0 0 0-.072 8.395c0 1.834-.073 3.438-.218 4.813-.145 1.375-.386 2.436-.724 3.184-.338.748-.785 1.122-1.34 1.122s-1.244-.507-2.064-1.52c-.483-.627-1.039-.844-1.667-.651-.627.193-1.291.59-1.992 1.194a28.87 28.87 0 0 0-2.173 2.099 30.051 30.051 0 0 1-2.209 2.135c-.724.627-1.424 1.073-2.1 1.338-.677.266-1.28.157-1.811-.325-.387-.193-.773-.543-1.16-1.05a20.45 20.45 0 0 1-1.195-1.773c-.41-.675-.82-1.41-1.231-2.207-.41-.796-.785-1.58-1.123-2.352a80.534 80.534 0 0 1-2.535-6.007c-.821.531-1.606.495-2.354-.108-.749-.603-1.485-1.532-2.21-2.787-.724-1.254-1.448-2.726-2.173-4.414a93.637 93.637 0 0 0-2.318-4.994 26.14 26.14 0 0 1-1.666-4.56 23.948 23.948 0 0 1-.724-4.305c-.096-1.375-.096-2.63 0-3.763.097-1.134.29-2.111.58-2.931.241-.58.567-.893.977-.941.41-.049.87.012 1.377.18l1.63.543c.579.193 1.159.193 1.738 0 .58-.193 1.159-.639 1.738-1.338.58-.7 1.111-1.87 1.594-3.51.724-2.172 1.4-3.68 2.028-4.524.628-.844 1.4-1.266 2.318-1.266zm5.748 41.055c.32-.444.83-.994 1.532-1.65.749-.699 1.582-1.386 2.5-2.062.917-.675 1.641-1.061 2.172-1.158.628-.193 1.207-.265 1.739-.217.53.048.941-.012 1.231-.18.29-.17.435-.531.435-1.086s-.17-1.508-.507-2.859c-.387-1.35-.447-2.533-.181-3.546.265-1.013.519-2.014.76-3.004.242-.989.338-2.014.29-3.075-.048-1.062-.58-2.316-1.594-3.764-.628-.916-.99-1.495-1.086-1.736a1.37 1.37 0 0 0-.507-.616c-.242-.168-.749-.47-1.522-.904-.772-.434-2.148-1.279-4.128-2.533-1.111-.627-2.029-1.074-2.753-1.339-.724-.265-1.328-.434-1.81-.507-.484-.072-.846-.084-1.087-.036-.242.048-.41.073-.507.073-.918-.29-1.618-.157-2.101.398-.483.554-.87 1.266-1.159 2.135-.29.868-.495 1.76-.616 2.677-.12.917-.277 1.592-.47 2.027-.435.82-.785 1.724-1.05 2.714-.266.989-.387 1.893-.363 2.713.024.82.205 1.46.543 1.918.338.459.87.543 1.594.254 1.787-.869 3.163-1.351 4.129-1.448.965-.096 1.678.06 2.137.47.458.41.7 1.05.724 1.918.024.869-.024 1.834-.145 2.895-.12 1.062-.266 2.195-.435 3.402a16.46 16.46 0 0 0-.144 3.401 8.839 8.839 0 0 0 .688 2.931c.332.767.896 1.365 1.691 1.794zm25.617 14.67l-2.897-10.855c.048-.917.096-1.81.144-2.678.049-.772.06-1.556.037-2.352a19.91 19.91 0 0 0-.181-2.207c-.29-1.255-.375-2.714-.254-4.379a54.52 54.52 0 0 1 .543-4.74c.29-1.737.676-3.522 1.16-5.355-.967-1.786-1.606-3.173-1.92-4.162-.314-.989-.435-1.713-.362-2.17.072-.46.301-.725.688-.797a5.13 5.13 0 0 1 1.231-.072c.435.024.833.012 1.195-.037.362-.048.568-.289.616-.723.193-1.64.23-3.148.109-4.523-.121-1.375-.64-2.521-1.558-3.438-1.352-1.544-2.137-2.955-2.354-4.234-.217-1.278-.072-2.364.435-3.256.507-.893 1.243-1.58 2.209-2.063.966-.482 1.956-.675 2.97-.579.628 0 1.28.29 1.956.869.676.579 1.231 1.399 1.666 2.46.434 1.062.712 2.352.833 3.872.12 1.52-.036 3.22-.471 5.102-.193.724-.242 1.279-.145 1.665.097.386.254.723.47 1.013.218.29.435.603.653.94.217.338.374.82.47 1.448.097.434.097 1.025 0 1.773-.096.748-.229 1.508-.398 2.28l-.47 2.135c-.145.651-.218 1.122-.218 1.411l3.622-5.428c.338.193.459.76.362 1.7-.097.942-.374 2.148-.833 3.62a82.823 82.823 0 0 1-1.775 5.03 131.67 131.67 0 0 1-2.462 5.934c1.159 1.254 1.835 2.352 2.028 3.292.193.941.108 1.774-.254 2.497-.362.724-.893 1.375-1.593 1.954-.7.58-1.365 1.134-1.992 1.665-.773 1.013-1.304 1.93-1.594 2.75-.241.675-.278 1.29-.109 1.845.17.555.858.833 2.065.833a2.245 2.245 0 0 1 1.557.76c.41.458.749 1.049 1.014 1.773.266.723.46 1.543.58 2.46.12.917.18 1.834.18 2.75.05 2.22-.096 4.704-.434 7.454-.386-.096-.7.133-.941.688a21.501 21.501 0 0 0-.725 1.954c-.241.748-.483 1.471-.724 2.171-.242.7-.531 1.122-.87 1.267-.337.144-.736-.109-1.195-.76-.458-.652-1.026-1.942-1.702-3.872l-.362-8.685zm27.091-57.896c.918.193 1.811.47 2.68.832.87.362 1.666.808 2.39 1.339.822.53 1.546.88 2.174 1.05.627.168 1.159.3 1.593.397.435.097.76.23.978.398.217.17.326.52.326 1.05.58 1.206 1.087 2.17 1.521 2.895.435.723.773 1.35 1.014 1.881.242.531.435 1.025.58 1.484.145.458.241 1.025.29 1.7.048.676.048 1.52 0 2.534-.049 1.013-.097 2.34-.145 3.98 0 2.557-.302 4.692-.906 6.405-.603 1.712-1.63 2.834-3.078 3.365v.362c1.545.096 2.668.398 3.368.904.7.507 1.22 1.195 1.557 2.063.338.868.616 1.882.833 3.04.218 1.157.592 2.412 1.123 3.763.242.579.604 1.194 1.087 1.845.483.652.93 1.303 1.34 1.954.41.652.748 1.303 1.014 1.954.265.652.29 1.29.072 1.918-.217.627-.736 1.242-1.557 1.846-.821.603-2.077 1.17-3.767 1.7-1.448.386-3.006.845-4.672 1.375-1.666.531-3.127 1.158-4.382 1.882-1.835.724-3.32 1.086-4.455 1.086-1.135 0-1.702-.724-1.702-2.172 0-.723-.495-1.375-1.485-1.954a29.3 29.3 0 0 0-3.26-1.628 54.193 54.193 0 0 1-3.332-1.556c-1.038-.53-1.606-1.11-1.702-1.737-.193-.627-.145-1.399.145-2.316.29-.916.628-1.785 1.014-2.605a34.097 34.097 0 0 1 1.738-3.04c-.724-.337-1.159-.82-1.304-1.447-.144-.627-.12-1.327.073-2.099.193-.772.519-1.592.978-2.46.459-.869.905-1.761 1.34-2.678.386-.724.772-1.351 1.159-1.882a6.2 6.2 0 0 1 1.376-1.375c-.724-.434-1.231-1-1.521-1.7-.29-.7-.507-1.436-.652-2.208a77.354 77.354 0 0 1-.398-2.316 6.507 6.507 0 0 0-.689-2.098c-1.11-1.351-1.762-2.389-1.955-3.112-.193-.724-.181-1.303.036-1.737a3.08 3.08 0 0 1 .978-1.122c.434-.314.748-.736.941-1.266.194-.531.302-1.146.326-1.846.025-.7.11-1.35.254-1.954.145-.603.435-1.073.87-1.411.434-.338 1.158-.41 2.172-.217 0-1.834.326-3.136.978-3.908.652-.772 1.533-1.158 2.644-1.158zm1.811 5.79a3.85 3.85 0 0 0-.543.036c-.17.024-.35.132-.544.325-.724.531-1.4 1.11-2.028 1.737-.628.627-1.038 1.496-1.231 2.606 0 .723-.133 1.507-.399 2.352a56.06 56.06 0 0 0-.688 2.352c0 .434.266 1.085.797 1.954a22.51 22.51 0 0 0 1.739 2.46c.627.772 1.207 1.363 1.738 1.773.531.41.797.398.797-.036.048-1.11.193-1.833.434-2.171.242-.338.532-.446.87-.326.338.121.7.41 1.086.869.387.458.76.953 1.123 1.483.362.531.676 1.026.942 1.484.265.458.47.736.615.832.435.435.688.374.76-.18.073-.555.073-1.267 0-2.136l-.216-2.605c-.073-.868-.012-1.4.18-1.592.194-.097.339-.35.435-.76.097-.41.157-.868.181-1.375.025-.507.012-1.025-.036-1.556-.048-.53-.12-.989-.217-1.375-.097-.434-.254-.772-.471-1.013a3.5 3.5 0 0 0-.724-.615 8.139 8.139 0 0 1-.833-.616c-.29-.24-.58-.578-.87-1.013a103.59 103.59 0 0 1-1.086-1.52c-.338-.482-.7-.82-1.087-1.013-.193-.193-.314-.301-.362-.325-.048-.024-.169-.037-.362-.037zm1.449 25.691c-1.111.097-2.029.326-2.753.688-.724.361-1.207.844-1.449 1.447-.241.603-.217 1.339.073 2.207.29.869.942 1.834 1.956 2.895.29.386.374.796.253 1.23-.12.435-.35.893-.688 1.375-.338.483-.7.965-1.087 1.448a7.258 7.258 0 0 0-.905 1.411c-.217.458-.278.869-.181 1.23.096.362.483.664 1.159.905.628.193 1.207-.024 1.738-.651a39.625 39.625 0 0 1 1.666-1.846c.58-.603 1.196-1.013 1.848-1.23.651-.217 1.436.18 2.354 1.194.434.434.664.446.688.036.024-.41-.073-1.013-.29-1.809a67.858 67.858 0 0 0-.76-2.57c-.29-.916-.532-1.64-.725-2.17-.193-.531-.253-1.146-.181-1.846.072-.7.012-1.411-.181-2.135l-1.449-1.447a.918.918 0 0 1-.543-.181.918.918 0 0 0-.543-.18z"/>
        <path stroke="#093E18" stroke-width="3" d="M297.66 228.572a.253.253 0 0 1 .12 0 .371.371 0 0 1 .29.325.654.654 0 0 1-.108.47c-.097.145-.181.121-.254-.072-.047-.126-.064-.368-.049-.723zm0 0c-.186.039-.472.232-.857.579 0 .193.278.47.833.832.555.362 1.255.687 2.1.977.846.29 1.751.434 2.717.434a4.84 4.84 0 0 0 2.68-.796c1.545-1.061 2.692-1.604 3.44-1.628.75-.024 1.256.193 1.522.651.265.458.374.99.326 1.592-.048.603-.12 1.001-.217 1.194.241.242.217.591-.073 1.05-.29.458-.76.916-1.412 1.375-.652.458-1.45.868-2.39 1.23a11.15 11.15 0 0 1-3.007.688c-1.062.096-2.16-.013-3.296-.326-1.135-.314-2.209-.929-3.223-1.846-.193.772-.483 1.207-.87 1.303-.386.097-.82 0-1.303-.29a15.166 15.166 0 0 1-1.63-1.157 14.777 14.777 0 0 0-1.775-1.23c-.58-.338-1.135-.52-1.666-.543-.53-.025-1.014.253-1.448.832-1.16 1.978-2.101 3.184-2.825 3.618-.725.435-1.353.543-1.884.326a10.092 10.092 0 0 1-1.593-.832c-.532-.338-1.208-.29-2.029.145-2.076-.338-3.513-.953-4.31-1.846-.796-.893-1.122-1.797-.977-2.714.144-.917.7-1.749 1.666-2.497.965-.747 2.173-1.17 3.621-1.266.628 0 1.28-.169 1.956-.507a9.7 9.7 0 0 1 2.065-.76 4.03 4.03 0 0 1 2.136.073c.725.217 1.45.856 2.174 1.918.096.193.193.156.29-.109.096-.265.229-.64.398-1.122.169-.482.362-1.013.58-1.592.216-.579.518-1.085.905-1.52.29-.29.627-.47 1.014-.542a9.612 9.612 0 0 0 1.05-.254c.314-.096.543-.241.688-.434.145-.193.073-.507-.217-.94-.531-1.014-.724-1.81-.58-2.389.145-.579.435-1.05.87-1.411a5.984 5.984 0 0 1 1.376-.869c.483-.217.773-.47.87-.76-.532-.965-1.003-2.062-1.413-3.292a27.719 27.719 0 0 1-.942-3.547c-.217-1.133-.338-2.159-.362-3.075-.024-.917.096-1.532.362-1.846.266-.313.676-.253 1.231.181.556.434 1.292 1.4 2.21 2.895.917-2.123 1.497-3.775 1.738-4.957.242-1.182.266-2.075.073-2.678-.194-.603-.544-1.013-1.05-1.23a54.055 54.055 0 0 0-1.594-.652 8.196 8.196 0 0 1-1.63-.868c-.531-.362-.918-1.001-1.16-1.918-.096-.29-.518-.483-1.267-.579a19.658 19.658 0 0 0-2.499-.145c-.917 0-1.823.036-2.716.109-.894.072-1.51.157-1.847.253-.435.097-.821.35-1.16.76-.337.41-.712.82-1.122 1.23-.41.41-.905.736-1.485.977-.58.242-1.376.217-2.39-.072-.821-.193-1.546-.181-2.173.036-.628.217-1.123.386-1.485.507-.363.12-.58.108-.652-.036-.073-.145.036-.676.326-1.593.193-.916.688-1.881 1.485-2.894a26.06 26.06 0 0 1 2.571-2.823 37.192 37.192 0 0 1 3.55-2.967 4.989 4.989 0 0 1 1.847-2.823c.941-.723 1.92-1.085 2.933-1.085 1.014 0 1.92.422 2.717 1.266.796.845 1.195 2.208 1.195 4.09.917-.338 1.509-.531 1.774-.58.266-.048.399.012.399.181 0 .17-.048.41-.145.724a1.02 1.02 0 0 0 .145.905c.193.29.604.567 1.231.832.628.265 1.666.422 3.115.47.531 0 .893.278 1.087.833.193.554.434 1.194.724 1.917.29.724.712 1.448 1.268 2.171.555.724 1.46 1.255 2.716 1.593.773.193 1.316.711 1.63 1.556.314.844.458 1.87.434 3.075a22.894 22.894 0 0 1-.434 3.872 60.356 60.356 0 0 1-.906 3.98 56.88 56.88 0 0 1-1.014 3.438c-.338 1.013-.603 1.737-.797 2.171-.193.531-.519 1.146-.978 1.846-.458.7-.917 1.375-1.376 2.026a18.684 18.684 0 0 0-1.123 1.773c-.29.53-.338.941-.144 1.23-.29 1.593-.471 2.75-.544 3.474-.025.249-.04.466-.049.652zm34.926-44.653c.628 0 1.304.205 2.028.615.725.41 1.522.917 2.39 1.52.87.603 1.812 1.266 2.826 1.99s2.1 1.4 3.26 2.026c.724.338 1.533.543 2.426.616.893.072 1.787.168 2.68.29.894.12 1.75.373 2.572.759.82.386 1.52 1.098 2.1 2.135.58 1.037 1.014 2.485 1.304 4.342.29 1.858.338 4.33.145 7.418-.193 2.895-.41 5.766-.652 8.612a54.239 54.239 0 0 0-.072 8.395c0 1.834-.073 3.438-.218 4.813-.145 1.375-.386 2.436-.724 3.184-.338.748-.785 1.122-1.34 1.122s-1.244-.507-2.064-1.52c-.483-.627-1.039-.844-1.667-.651-.627.193-1.291.59-1.992 1.194a28.87 28.87 0 0 0-2.173 2.099 30.051 30.051 0 0 1-2.209 2.135c-.724.627-1.424 1.073-2.1 1.338-.677.266-1.28.157-1.811-.325-.387-.193-.773-.543-1.16-1.05a20.45 20.45 0 0 1-1.195-1.773c-.41-.675-.82-1.41-1.231-2.207-.41-.796-.785-1.58-1.123-2.352a80.534 80.534 0 0 1-2.535-6.007c-.821.531-1.606.495-2.354-.108-.749-.603-1.485-1.532-2.21-2.787-.724-1.254-1.448-2.726-2.173-4.414a93.637 93.637 0 0 0-2.318-4.994 26.14 26.14 0 0 1-1.666-4.56 23.948 23.948 0 0 1-.724-4.305c-.096-1.375-.096-2.63 0-3.763.097-1.134.29-2.111.58-2.931.241-.58.567-.893.977-.941.41-.049.87.012 1.377.18l1.63.543c.579.193 1.159.193 1.738 0 .58-.193 1.159-.639 1.738-1.338.58-.7 1.111-1.87 1.594-3.51.724-2.172 1.4-3.68 2.028-4.524.628-.844 1.4-1.266 2.318-1.266zm5.748 41.055c.32-.444.83-.994 1.532-1.65.749-.699 1.582-1.386 2.5-2.062.917-.675 1.641-1.061 2.172-1.158.628-.193 1.207-.265 1.739-.217.53.048.941-.012 1.231-.18.29-.17.435-.531.435-1.086s-.17-1.508-.507-2.859c-.387-1.35-.447-2.533-.181-3.546.265-1.013.519-2.014.76-3.004.242-.989.338-2.014.29-3.075-.048-1.062-.58-2.316-1.594-3.764-.628-.916-.99-1.495-1.086-1.736a1.37 1.37 0 0 0-.507-.616c-.242-.168-.749-.47-1.522-.904-.772-.434-2.148-1.279-4.128-2.533-1.111-.627-2.029-1.074-2.753-1.339-.724-.265-1.328-.434-1.81-.507-.484-.072-.846-.084-1.087-.036-.242.048-.41.073-.507.073-.918-.29-1.618-.157-2.101.398-.483.554-.87 1.266-1.159 2.135-.29.868-.495 1.76-.616 2.677-.12.917-.277 1.592-.47 2.027-.435.82-.785 1.724-1.05 2.714-.266.989-.387 1.893-.363 2.713.024.82.205 1.46.543 1.918.338.459.87.543 1.594.254 1.787-.869 3.163-1.351 4.129-1.448.965-.096 1.678.06 2.137.47.458.41.7 1.05.724 1.918.024.869-.024 1.834-.145 2.895-.12 1.062-.266 2.195-.435 3.402a16.46 16.46 0 0 0-.144 3.401 8.839 8.839 0 0 0 .688 2.931c.332.767.896 1.365 1.691 1.794zm25.617 14.67l-2.897-10.855c.048-.917.096-1.81.144-2.678.049-.772.06-1.556.037-2.352a19.91 19.91 0 0 0-.181-2.207c-.29-1.255-.375-2.714-.254-4.379a54.52 54.52 0 0 1 .543-4.74c.29-1.737.676-3.522 1.16-5.355-.967-1.786-1.606-3.173-1.92-4.162-.314-.989-.435-1.713-.362-2.17.072-.46.301-.725.688-.797a5.13 5.13 0 0 1 1.231-.072c.435.024.833.012 1.195-.037.362-.048.568-.289.616-.723.193-1.64.23-3.148.109-4.523-.121-1.375-.64-2.521-1.558-3.438-1.352-1.544-2.137-2.955-2.354-4.234-.217-1.278-.072-2.364.435-3.256.507-.893 1.243-1.58 2.209-2.063.966-.482 1.956-.675 2.97-.579.628 0 1.28.29 1.956.869.676.579 1.231 1.399 1.666 2.46.434 1.062.712 2.352.833 3.872.12 1.52-.036 3.22-.471 5.102-.193.724-.242 1.279-.145 1.665.097.386.254.723.47 1.013.218.29.435.603.653.94.217.338.374.82.47 1.448.097.434.097 1.025 0 1.773-.096.748-.229 1.508-.398 2.28l-.47 2.135c-.145.651-.218 1.122-.218 1.411l3.622-5.428c.338.193.459.76.362 1.7-.097.942-.374 2.148-.833 3.62a82.823 82.823 0 0 1-1.775 5.03 131.67 131.67 0 0 1-2.462 5.934c1.159 1.254 1.835 2.352 2.028 3.292.193.941.108 1.774-.254 2.497-.362.724-.893 1.375-1.593 1.954-.7.58-1.365 1.134-1.992 1.665-.773 1.013-1.304 1.93-1.594 2.75-.241.675-.278 1.29-.109 1.845.17.555.858.833 2.065.833a2.245 2.245 0 0 1 1.557.76c.41.458.749 1.049 1.014 1.773.266.723.46 1.543.58 2.46.12.917.18 1.834.18 2.75.05 2.22-.096 4.704-.434 7.454-.386-.096-.7.133-.941.688a21.501 21.501 0 0 0-.725 1.954c-.241.748-.483 1.471-.724 2.171-.242.7-.531 1.122-.87 1.267-.337.144-.736-.109-1.195-.76-.458-.652-1.026-1.942-1.702-3.872l-.362-8.685zm27.091-57.896c.918.193 1.811.47 2.68.832.87.362 1.666.808 2.39 1.339.822.53 1.546.88 2.174 1.05.627.168 1.159.3 1.593.397.435.097.76.23.978.398.217.17.326.52.326 1.05.58 1.206 1.087 2.17 1.521 2.895.435.723.773 1.35 1.014 1.881.242.531.435 1.025.58 1.484.145.458.241 1.025.29 1.7.048.676.048 1.52 0 2.534-.049 1.013-.097 2.34-.145 3.98 0 2.557-.302 4.692-.906 6.405-.603 1.712-1.63 2.834-3.078 3.365v.362c1.545.096 2.668.398 3.368.904.7.507 1.22 1.195 1.557 2.063.338.868.616 1.882.833 3.04.218 1.157.592 2.412 1.123 3.763.242.579.604 1.194 1.087 1.845.483.652.93 1.303 1.34 1.954.41.652.748 1.303 1.014 1.954.265.652.29 1.29.072 1.918-.217.627-.736 1.242-1.557 1.846-.821.603-2.077 1.17-3.767 1.7-1.448.386-3.006.845-4.672 1.375-1.666.531-3.127 1.158-4.382 1.882-1.835.724-3.32 1.086-4.455 1.086-1.135 0-1.702-.724-1.702-2.172 0-.723-.495-1.375-1.485-1.954a29.3 29.3 0 0 0-3.26-1.628 54.193 54.193 0 0 1-3.332-1.556c-1.038-.53-1.606-1.11-1.702-1.737-.193-.627-.145-1.399.145-2.316.29-.916.628-1.785 1.014-2.605a34.097 34.097 0 0 1 1.738-3.04c-.724-.337-1.159-.82-1.304-1.447-.144-.627-.12-1.327.073-2.099.193-.772.519-1.592.978-2.46.459-.869.905-1.761 1.34-2.678.386-.724.772-1.351 1.159-1.882a6.2 6.2 0 0 1 1.376-1.375c-.724-.434-1.231-1-1.521-1.7-.29-.7-.507-1.436-.652-2.208a77.354 77.354 0 0 1-.398-2.316 6.507 6.507 0 0 0-.689-2.098c-1.11-1.351-1.762-2.389-1.955-3.112-.193-.724-.181-1.303.036-1.737a3.08 3.08 0 0 1 .978-1.122c.434-.314.748-.736.941-1.266.194-.531.302-1.146.326-1.846.025-.7.11-1.35.254-1.954.145-.603.435-1.073.87-1.411.434-.338 1.158-.41 2.172-.217 0-1.834.326-3.136.978-3.908.652-.772 1.533-1.158 2.644-1.158zm1.811 5.79a3.85 3.85 0 0 0-.543.036c-.17.024-.35.132-.544.325-.724.531-1.4 1.11-2.028 1.737-.628.627-1.038 1.496-1.231 2.606 0 .723-.133 1.507-.399 2.352a56.06 56.06 0 0 0-.688 2.352c0 .434.266 1.085.797 1.954a22.51 22.51 0 0 0 1.739 2.46c.627.772 1.207 1.363 1.738 1.773.531.41.797.398.797-.036.048-1.11.193-1.833.434-2.171.242-.338.532-.446.87-.326.338.121.7.41 1.086.869.387.458.76.953 1.123 1.483.362.531.676 1.026.942 1.484.265.458.47.736.615.832.435.435.688.374.76-.18.073-.555.073-1.267 0-2.136l-.216-2.605c-.073-.868-.012-1.4.18-1.592.194-.097.339-.35.435-.76.097-.41.157-.868.181-1.375.025-.507.012-1.025-.036-1.556-.048-.53-.12-.989-.217-1.375-.097-.434-.254-.772-.471-1.013a3.5 3.5 0 0 0-.724-.615 8.139 8.139 0 0 1-.833-.616c-.29-.24-.58-.578-.87-1.013a103.59 103.59 0 0 1-1.086-1.52c-.338-.482-.7-.82-1.087-1.013-.193-.193-.314-.301-.362-.325-.048-.024-.169-.037-.362-.037zm1.449 25.691c-1.111.097-2.029.326-2.753.688-.724.361-1.207.844-1.449 1.447-.241.603-.217 1.339.073 2.207.29.869.942 1.834 1.956 2.895.29.386.374.796.253 1.23-.12.435-.35.893-.688 1.375-.338.483-.7.965-1.087 1.448a7.258 7.258 0 0 0-.905 1.411c-.217.458-.278.869-.181 1.23.096.362.483.664 1.159.905.628.193 1.207-.024 1.738-.651a39.625 39.625 0 0 1 1.666-1.846c.58-.603 1.196-1.013 1.848-1.23.651-.217 1.436.18 2.354 1.194.434.434.664.446.688.036.024-.41-.073-1.013-.29-1.809a67.858 67.858 0 0 0-.76-2.57c-.29-.916-.532-1.64-.725-2.17-.193-.531-.253-1.146-.181-1.846.072-.7.012-1.411-.181-2.135l-1.449-1.447a.918.918 0 0 1-.543-.181.918.918 0 0 0-.543-.18z"/>
        <g>
            <path stroke="#6BFF49" stroke-width="20" d="M15.963 88.193c1.65-.44 3.519-.66 5.608-.66 2.09 0 4.234.11 6.434.33.44-.659 1.127-1.153 2.062-1.482.935-.33 1.842-.824 2.722-1.483.88-.659 1.595-1.647 2.145-2.965.55-1.318.66-3.295.33-5.931l.494-4.283c-.55 0-1.264-.494-2.144-1.483-1.87-2.087-3.107-3.981-3.712-5.683-.605-1.703-.88-3.323-.825-4.86a13.16 13.16 0 0 1 .99-4.53 795.843 795.843 0 0 0 1.897-4.696c.66-1.647 1.017-3.432 1.072-5.354a52.3 52.3 0 0 0-.165-5.848 245.778 245.778 0 0 0-.577-6.013 54.39 54.39 0 0 1-.33-5.848c-3.08-4.723-4.619-8.128-4.619-10.214 0-2.087.99-3.433 2.97-4.037 1.98-.604 4.646-.713 8-.329 3.355.384 6.819.741 10.393 1.07 3.574.33 7.011.385 10.31.166 3.3-.22 5.83-1.263 7.589-3.13 4.729.329 8.935 1.07 12.62 2.223 3.684 1.154 6.24 2.444 7.67 3.872 1.43 1.428 1.485 2.883.166 4.365-1.32 1.483-4.564 2.664-9.733 3.542-4.73.44-7.946.44-9.65 0-1.705-.439-2.723-.85-3.053-1.235-.33-.385-.467-.577-.412-.577.055 0-.523.604-1.732 1.812-.44.22-1.457.55-3.052.989-1.595.44-3.244.988-4.95 1.647-1.704.66-3.188 1.455-4.453 2.389-1.265.934-1.787 2.004-1.567 3.212.55 2.197.66 4.064.33 5.602a26.933 26.933 0 0 1-1.403 4.53 293.682 293.682 0 0 0-1.897 4.777c-.66 1.703-1.044 3.762-1.154 6.178-.11 2.416.165 5.382.824 8.896.66 3.515 2.035 7.798 4.125 12.85 1.43-3.624 2.501-5.327 3.216-5.107.715.22 1.1 1.428 1.155 3.624.055 2.197-.192 4.97-.742 8.32-.55 3.35-1.265 6.397-2.145 9.143 4.29.549 8.111.686 11.465.412 3.355-.275 6.269-.66 8.743-1.153 2.475-.495 4.564-.989 6.27-1.483 1.704-.494 3.051-.632 4.04-.412.99.22 1.705.906 2.145 2.06.44 1.152.605 3.047.495 5.683 0 .549-.715.878-2.144.988-1.43.11-3.135.22-5.114.33-1.98.11-3.932.33-5.857.659-1.924.33-3.326 1.043-4.206 2.141L46.81 105.82c-.22 1.098-.44 1.922-.66 2.471-1.21 5.93-1.622 10.873-1.237 14.827.385 3.954.467 6.7.247 8.237-.66 1.647-.99 2.663-.99 3.048 0 .384.33.714.99.988.66.275 1.595.741 2.805 1.4 1.21.66 2.75 2.142 4.619 4.448.77.989 1.21 1.62 1.32 1.895.11.274.027.467-.248.577-.275.11-.605.329-.99.658-.385.33-.687.989-.907 1.977-.44 2.856-.165 5.272.825 7.249a66.94 66.94 0 0 0 2.97 5.354c.989 1.593 1.621 3.13 1.896 4.613.275 1.482-.522 3.157-2.392 5.024-.88 2.966-2.172 5.162-3.876 6.59-1.705 1.428-3.41 1.647-5.114.659-1.705-.988-3.107-3.377-4.207-7.166-1.1-3.79-1.375-9.418-.825-16.886-1.21-3.295-2.172-6.48-2.887-9.555-.714-3.075-1.264-5.958-1.65-8.65-.384-2.69-.714-5.216-.99-7.577-.274-2.361-.631-4.476-1.071-6.343-1.21-2.086-1.76-4.09-1.65-6.013.11-1.922.44-3.816.99-5.683-2.09-.66-4.344-1.538-6.764-2.636L15.963 88.193zm92.886-30.741c.283 1.981.531 3.998.744 6.05.212 2.052.443 4.034.69 5.945.249 1.91.55 3.662.904 5.254.354 1.592.815 2.92 1.382 3.98.567-2.406 1.47-5.077 2.71-8.014 1.24-2.937 3.349-6.28 6.325-10.03.496.424.903.92 1.222 1.485.32.566.691 1.062 1.116 1.486.426.425 1.01.708 1.754.85.744.141 1.86-.071 3.349-.637.637.07 1.24.212 1.807.424a7.78 7.78 0 0 1 2.976 1.699c.354.778.514 1.663.478 2.653-.035.991-.16 1.911-.372 2.76a20.83 20.83 0 0 1-1.17 3.079 89.757 89.757 0 0 0 3.562 7.165c1.31 2.37 2.232 4.741 2.763 7.112.532 2.37.408 4.706-.372 7.006s-2.763 4.582-5.952 6.846L120.54 112.65a144.03 144.03 0 0 1 4.305 5.149c1.382 1.734 2.516 3.45 3.401 5.148.886 1.698 1.364 3.38 1.435 5.042.071 1.663-.496 3.273-1.7 4.83a103.42 103.42 0 0 1 3.082 4.034 57.576 57.576 0 0 1 2.285 3.609c.745 1.274 1.258 2.441 1.542 3.503.283 1.061.354 2.3.212 3.715a138.34 138.34 0 0 1-.531 4.511 606.865 606.865 0 0 0-.638 4.936 22.698 22.698 0 0 0-.106 4.883c.142 1.628.407 3.132.797 4.512.39 1.38.78 2.706 1.17 3.98.389 1.274.726 2.477 1.009 3.61.283 1.131.354 2.228.213 3.29-.284 1.203-.674 2.034-1.17 2.494-.496.46-1.027.761-1.594.903-.638.141-1.311.07-2.02-.213l-4.251-29.19c0 .14-.213-.125-.638-.797a82.703 82.703 0 0 1-1.648-2.76 215.313 215.313 0 0 1-2.232-3.98 95.554 95.554 0 0 1-2.392-4.671 661.164 661.164 0 0 0-1.647-3.875c-.532-1.238-1.01-2.37-1.435-3.396a41.106 41.106 0 0 1-1.01-2.654c-.248-.743-.301-1.327-.16-1.752.142-2.123.125-3.998-.052-5.625-.178-1.628-.372-3.008-.585-4.14a35.334 35.334 0 0 0-.957-3.503l-3.189 25.476c0 2.264-.053 4.635-.159 7.112-.106 2.477-.319 4.67-.638 6.581-.319 1.91-.797 3.361-1.435 4.352-.638.99-1.488 1.168-2.55.53l-1.064-13.799 1.595-14.33c-1.63-1.203-2.534-2.689-2.71-4.458-.178-1.77-.09-3.627.265-5.573a69.21 69.21 0 0 1 1.329-5.838c.531-1.946.726-3.733.584-5.36-1.346-1.628-2.232-3.946-2.657-6.954-.425-3.007-.248-6.528.531-10.561.638-3.68 1.046-7.537 1.223-11.57.177-4.035.3-7.697.372-10.987.07-3.29.195-6.015.372-8.174.177-2.158.584-3.237 1.222-3.237h.532zm14.88 21.23c-.566 0-1.186.3-1.86.902a46.16 46.16 0 0 0-1.86 1.751c-.566.566-.938 1.133-1.116 1.699a13.457 13.457 0 0 0-.425 1.804c-.106.637-.212 1.292-.319 1.964-.106.672-.372 1.327-.797 1.964-.142.424-.443.778-.903 1.061-.461.283-.904.549-1.329.796-.425.248-.762.513-1.01.797-.248.283-.23.636.053 1.061.284.425.727.973 1.329 1.645a24.54 24.54 0 0 1 1.86 2.389 45.95 45.95 0 0 1 1.86 2.919 12.6 12.6 0 0 1 1.329 3.131c.142.637.443.655.903.053.461-.601.94-1.468 1.435-2.6a33.184 33.184 0 0 0 1.33-3.61c.389-1.273.584-2.229.584-2.865 0-.496-.142-1.009-.425-1.54l-.85-1.592a16.047 16.047 0 0 1-.745-1.592 2.613 2.613 0 0 1-.106-1.645c.142-.779.46-1.451.957-2.017.496-.566.974-1.097 1.435-1.593a6.008 6.008 0 0 0 1.062-1.539c.248-.53.16-1.114-.265-1.751-.284-.566-.567-.973-.85-1.22-.284-.249-.71-.372-1.276-.372zm47.62 15.604c.851 0 1.542.318 2.073.955.532.637.691 1.804.479 3.503 0 1.415.584 2.671 1.754 3.768a39.622 39.622 0 0 0 3.88 3.185 74.014 74.014 0 0 1 4.092 3.184c1.31 1.097 2.072 2.318 2.285 3.662.142 1.133.018 2.566-.372 4.3a150.92 150.92 0 0 1-1.222 5.042c-.567 1.91-1.17 3.927-1.807 6.05.85.85 1.346 1.893 1.488 3.131.141 1.239.053 2.637-.266 4.193a42.225 42.225 0 0 1-1.329 4.883 453.838 453.838 0 0 0-1.7 5.202c-.78 3.184-1.931 5.484-3.455 6.9-1.524 1.415-2.923 2.122-4.199 2.122-.78 0-1.346-.53-1.7-1.592a76.35 76.35 0 0 0-1.276-3.503 10.145 10.145 0 0 0-2.179-3.397c-.957-.99-2.391-1.38-4.305-1.167-2.267.07-3.897-.354-4.89-1.274-.991-.92-1.735-2.265-2.232-4.034-.496-1.769-.885-3.874-1.169-6.316-.283-2.441-.78-5.148-1.488-8.12-.354-1.77-1.01-3.61-1.966-5.52-.957-1.91-1.63-3.786-2.02-5.626-.39-1.84-.23-3.662.478-5.467.71-1.804 2.551-3.485 5.528-5.042a57.737 57.737 0 0 1 5.74-3.078 19.715 19.715 0 0 0 4.995-3.29c1.701-1.77 3.296-2.654 4.784-2.654zm1.701 17.09c-.425 0-.832.3-1.222.902-.39.601-.78 1.31-1.17 2.123l-1.168 2.441c-.39.814-.815 1.416-1.276 1.805-.46.39-.957.478-1.488.265-.532-.212-1.116-.955-1.754-2.229-.567-.92-.886-.99-.957-.212-.07.778 0 1.928.213 3.45.213 1.521.46 3.167.744 4.936.283 1.769.532 3.149.744 4.14.213.99.301 2.176.266 3.556-.036 1.38-.018 2.689.053 3.927.07 1.239.319 2.265.744 3.078.425.814 1.24 1.15 2.445 1.009 2.763 0 4.535-1.22 5.315-3.662.779-2.442 0-5.82-2.339-10.138-.425-.778-.567-1.645-.425-2.6a13.31 13.31 0 0 1 .797-2.92c.39-.99.815-1.963 1.276-2.918.46-.956.815-1.858 1.063-2.707.248-.85.283-1.593.106-2.23-.177-.636-.691-1.132-1.541-1.486 0-.353-.142-.53-.426-.53zm31.554-7.365c.036-.301.077-.606.122-.915l-.122.915zm0 0c-.526 3.953-1.052 7.983-1.579 12.088-.566 4.423-.708 8.758-.425 13.004 0 .637.089.973.266 1.008.177.036.39-.053.638-.265.248-.213.531-.478.85-.796.319-.319.62-.478.904-.478.496.283.832.637 1.01 1.061.177.425.265.885.265 1.38 0 .496-.035.991-.106 1.486-.071.496-.106.956-.106 1.38-.78 4.246-1.701 8.245-2.764 11.995-1.063 3.751-1.736 7.36-2.02 10.828-.283 5.307-.69 8.987-1.222 11.04-.532 2.051-1.098 3.13-1.7 3.237-.603.106-1.17-.442-1.701-1.646a20.642 20.642 0 0 1-1.223-3.609c-.283-.92-.301-2.211-.053-3.874.248-1.663.55-3.415.903-5.255.355-1.84.691-3.662 1.01-5.466.32-1.805.408-3.309.266-4.512-.283-1.698-.744-3.644-1.382-5.838a147.41 147.41 0 0 0-1.966-6.263c-.673-1.981-1.258-3.715-1.754-5.201-.496-1.486-.744-2.441-.744-2.866-.284-.778-.106-1.468.531-2.07.638-.601 1.347-.62 2.126-.053.284.283.532.548.744.796.213.248.32-.018.32-.796.283-1.698.407-3.22.371-4.564a69.145 69.145 0 0 0-.212-3.928 128.708 128.708 0 0 1-.266-3.928c-.071-1.344-.036-2.866.106-4.564a1.647 1.647 0 0 1 1.063-.478c.425-.035.78-.053 1.063-.053 0-1.769-.266-3.68-.797-5.732a110.495 110.495 0 0 0-1.807-6.21 110.496 110.496 0 0 1-1.807-6.21c-.532-2.052-.797-3.98-.797-5.785 0-1.804.372-3.432 1.116-4.882.744-1.451 2.108-2.636 4.092-3.556-.07-3.68-.035-6.51.106-8.492.142-1.982.39-3.291.744-3.928.355-.637.78-.743 1.276-.318.496.424 1.027 1.132 1.594 2.123.567.99 1.17 2.176 1.807 3.556a79.408 79.408 0 0 0 1.914 3.874 1165.066 1165.066 0 0 1 6.112 17.302c1.948 5.662 3.454 11.57 4.517 17.728.496 2.123 1.612 4.14 3.348 6.05 1.736 1.91 3.561 3.804 5.474 5.68a55.402 55.402 0 0 1 5.156 5.784c1.523 1.982 2.356 4.105 2.498 6.37.283-1.982.885-3.787 1.807-5.414a32.236 32.236 0 0 0 2.338-5.149c.638-1.804.868-3.874.691-6.21-.177-2.335-1.258-5.236-3.242-8.704-.425-.637-.531-1.291-.319-1.964a5.698 5.698 0 0 1 1.063-1.91 10.708 10.708 0 0 1 1.7-1.646c.639-.495 1.241-.955 1.808-1.38-1.984-5.944-3.118-10.685-3.402-14.224-.283-3.538-.053-6.032.691-7.483.744-1.45 1.86-1.91 3.349-1.38 1.488.53 3.047 1.858 4.677 3.98.141-1.486.017-2.9-.372-4.245a33.438 33.438 0 0 0-1.435-3.981 449.276 449.276 0 0 1-1.701-3.98 21.044 21.044 0 0 1-1.276-4.247c-.283-.566-.407-1.238-.372-2.016.036-.779.337-1.168.904-1.168h1.063c1.63 1.344 2.905 2.901 3.826 4.67a75.413 75.413 0 0 1 2.551 5.414c.567.779.78 1.575.638 2.388-.142.814-.354 1.61-.638 2.389a383.82 383.82 0 0 1 1.435 7.324c.461 2.477.727 4.76.798 6.847.07 2.087-.124 3.857-.585 5.307-.46 1.451-1.364 2.389-2.71 2.813-1.063.283-1.577.956-1.542 2.017.036 1.062.284 2.282.744 3.662s.975 2.813 1.542 4.3c.566 1.485.85 2.76.85 3.82.142 1.628-.089 3.168-.691 4.618a68.623 68.623 0 0 1-2.02 4.405 127.143 127.143 0 0 0-2.126 4.459c-.673 1.486-1.01 3.007-1.01 4.564 0 1.84.178 3.892.532 6.157a547.88 547.88 0 0 0 1.116 6.847c.39 2.3.673 4.582.85 6.846.178 2.265.054 4.317-.371 6.157-.284 1.061-.992 1.964-2.126 2.707-1.134.743-2.374.725-3.72-.053-.78-.425-1.258-.089-1.436 1.008-.177 1.097-.248 2.442-.212 4.034l.106 4.83c.036 1.627-.16 2.76-.584 3.396-1.347.283-2.374-.088-3.083-1.114-.709-1.026-.921-2.07-.638-3.132a11.915 11.915 0 0 0-.85-5.89 29.19 29.19 0 0 0-2.923-5.361 56.626 56.626 0 0 0-3.667-4.777 103.421 103.421 0 0 1-3.349-4.087c-.956-1.238-1.576-2.353-1.86-3.344-.283-.99.036-1.84.957-2.547 1.204-.92 1.647-2.07 1.329-3.45-.32-1.38-.957-2.83-1.914-4.352a51.69 51.69 0 0 0-3.242-4.565c-1.204-1.521-2.055-2.883-2.55-4.087a23.96 23.96 0 0 1-3.88-2.813c-1.24-1.096-2.321-2.44-3.243-4.033-.92-1.592-1.576-3.485-1.966-5.68-.348-1.96-.371-4.202-.069-6.727zm85.37-61.951c1.205 1.203 1.666 2.689 1.382 4.458-.283 1.77-.815 3.645-1.594 5.626a239.788 239.788 0 0 0-2.286 6.05c-.744 2.053-.974 3.928-.69 5.627.141.778.354 1.326.637 1.645.284.318.602.566.957.743.354.177.673.425.956.743.284.318.497.867.638 1.645.142.779.036 1.681-.319 2.707l-1.116 3.238a29.284 29.284 0 0 0-.956 3.45c-.248 1.167-.16 2.282.265 3.343.496 1.486.567 3.096.213 4.83a30.677 30.677 0 0 1-1.435 4.936 101.271 101.271 0 0 1-1.648 4.034c-.496 1.132-.602 1.84-.318 2.123.637.566 1.346.76 2.125.584a8.89 8.89 0 0 0 2.18-.797 29.002 29.002 0 0 0 1.86-1.061c.566-.354.992-.46 1.275-.318.354.424.585.884.691 1.38.106.495.089.955-.053 1.38-.142.495-.354.99-.638 1.486-.283.778-.124 1.079.478.902.603-.177 1.453-.372 2.552-.584 1.098-.212 2.356-.248 3.773-.106 1.417.141 2.87.955 4.358 2.441 1.346 1.345 2.569 2.318 3.667 2.92 1.099.6 1.878 1.132 2.339 1.592.46.46.496.99.106 1.592-.39.601-1.364 1.574-2.923 2.919.283 2.265.142 3.786-.425 4.564-.567.779-1.364 1.044-2.392.797-1.027-.248-2.197-.867-3.508-1.858a26.692 26.692 0 0 1-3.773-3.503c-.992 1.628-2.144 2.335-3.455 2.123-1.31-.212-2.568-.743-3.773-1.592-1.417-.991-2.905-2.406-4.464-4.246.354 3.397.496 6.51.425 9.34a44.44 44.44 0 0 1-.744 7.06c-.426 2.229-1.205 3.662-2.339 4.299 0 1.345.124 2.636.372 3.874.248 1.239.479 2.406.691 3.503.213 1.097.301 2.106.266 3.026-.036.92-.301 1.698-.797 2.335-.992 1.698-1.666 3.114-2.02 4.246-.354 1.132-.567 2.158-.638 3.078-.07.92-.088 1.84-.053 2.76.036.92-.07 1.964-.319 3.132-.248 1.167-.69 2.547-1.328 4.14-.638 1.592-1.666 3.59-3.083 5.997-.78-1.132-1.31-2-1.594-2.6-.284-.602-.408-1.098-.372-1.487.035-.39.159-.778.372-1.168.212-.389.46-.937.744-1.645.283-.708.513-1.68.69-2.919.178-1.238.23-2.92.16-5.042 0-1.203.07-2.46.213-3.768.141-1.31.265-2.601.372-3.875a33.7 33.7 0 0 0 .106-3.768c-.036-1.239-.266-2.389-.691-3.45-.425-1.062-.833-2.07-1.222-3.025a8.48 8.48 0 0 1-.638-2.92c-.036-.99.142-2.034.531-3.13.39-1.098 1.187-2.318 2.392-3.663a6.73 6.73 0 0 0 1.329-2.6c.248-.956.372-2.018.372-3.185 0-1.168-.071-2.46-.213-3.875a285.124 285.124 0 0 1-.425-4.67c-.142-.425-.567-.673-1.276-.743-.708-.071-1.488-.16-2.338-.266-.85-.106-1.683-.3-2.498-.583-.815-.284-1.435-.814-1.86-1.593-.142-.495-.585-.884-1.329-1.167a17.003 17.003 0 0 0-2.285-.69c-.78-.177-1.47-.39-2.073-.637-.602-.248-.833-.655-.69-1.221 0-.778.265-1.663.796-2.654.532-.99 1.329-1.344 2.392-1.061.921.424 1.612.601 2.073.53.46-.07.832-.265 1.116-.583.283-.319.514-.673.69-1.062.178-.389.48-.725.904-1.008.78-.283 1.754-.513 2.923-.69 1.17-.177 2.144-.655 2.923-1.433.496-.637.638-.92.426-.85l-.798.266c-.318.106-.531.035-.637-.212-.107-.248.23-1.044 1.01-2.389a46.79 46.79 0 0 0 .69-4.352c.178-1.557.39-3.237.638-5.042a63.059 63.059 0 0 1 1.063-5.679 52.178 52.178 0 0 1 1.86-6.157c0-3.609.46-7.006 1.382-10.19.921-3.185 1.949-6.015 3.083-8.492a42.98 42.98 0 0 1 4.57-7.855zm67.497 3.715l5.315 2.123a10.135 10.135 0 0 1 2.604 2.76c.673 1.062.904 2.441.691 4.14-.213 1.698-.974 3.874-2.285 6.528-1.311 2.654-3.42 5.962-6.325 9.925a34.552 34.552 0 0 1-3.826-3.078 26.215 26.215 0 0 1-2.71-2.92c-.816-1.026-1.294-2.034-1.436-3.025-.283-1.061-.301-2.264-.053-3.609a25.136 25.136 0 0 1 1.01-3.821c.425-1.345.992-2.76 1.7-4.246a32.095 32.095 0 0 0-1.488-3.185c-.567-1.061-.903-2.123-1.01-3.184-.106-1.062.195-2.123.904-3.185.709-1.061 2.126-2.123 4.252-3.184l2.657 7.961zm5.315 40.868l-2.126 16.984a61.22 61.22 0 0 1 2.764 3.609 25.25 25.25 0 0 1 2.179 3.29c.673 1.204 1.151 2.265 1.435 3.185.354 1.77.425 3.84.212 6.21a72.986 72.986 0 0 1-.956 6.953 94.257 94.257 0 0 1-1.914 8.067c-.496 2.901-.708 5.484-.637 7.749.07 2.264.265 4.246.584 5.944a74.83 74.83 0 0 0 .904 4.246c.283 1.133.372 2.052.265 2.76-.106.708-.531 1.185-1.275 1.433-.744.248-2.002.336-3.774.266-1.488 0-2.462-.089-2.923-.266-.46-.177-.69-.637-.69-1.38 0-.743.159-1.857.478-3.343.319-1.487.549-3.574.69-6.263l-2.657-12.738c-.567-.142-1.098-.301-1.594-.478s-.815-.672-.957-1.486c-.142-.814 0-2.052.425-3.715.426-1.663 1.311-4.016 2.658-7.06l-.532-26.855c-.354 1.061-.744 1.946-1.169 2.654a5.135 5.135 0 0 1-1.329 1.433c-.531.389-1.116.371-1.754-.053-.779-.425-1.364-1.08-1.753-1.964-.39-.885-.603-1.876-.638-2.972a20.982 20.982 0 0 1 .212-3.556 29.32 29.32 0 0 1 .798-3.822c.78-2.901 1.948-6.05 3.507-9.447.638.424 1.33.973 2.073 1.645.744.672 1.488 1.097 2.232 1.274.744.177 1.524-.053 2.339-.69.815-.637 1.612-2.088 2.391-4.352l.532 12.738zm30.384 17.368c.036-.301.077-.606.122-.915l-.122.915zm0 0c-.526 3.953-1.052 7.983-1.578 12.088-.567 4.423-.709 8.758-.426 13.004 0 .637.09.973.266 1.008.177.036.39-.053.638-.265.248-.213.531-.478.85-.796.32-.319.62-.478.904-.478.496.283.832.637 1.01 1.061.177.425.265.885.265 1.38 0 .496-.035.991-.106 1.486-.07.496-.106.956-.106 1.38-.78 4.246-1.7 8.245-2.764 11.995-1.063 3.751-1.736 7.36-2.02 10.828-.283 5.307-.69 8.987-1.222 11.04-.531 2.051-1.098 3.13-1.7 3.237-.603.106-1.17-.442-1.701-1.646a20.642 20.642 0 0 1-1.223-3.609c-.283-.92-.3-2.211-.053-3.874.248-1.663.55-3.415.904-5.255.354-1.84.69-3.662 1.01-5.466.318-1.805.407-3.309.265-4.512-.283-1.698-.744-3.644-1.382-5.838a147.412 147.412 0 0 0-1.966-6.263c-.673-1.981-1.258-3.715-1.754-5.201-.496-1.486-.744-2.441-.744-2.866-.283-.778-.106-1.468.532-2.07.637-.601 1.346-.62 2.125-.053.284.283.532.548.744.796.213.248.32-.018.32-.796.283-1.698.407-3.22.371-4.564a69.145 69.145 0 0 0-.212-3.928 128.708 128.708 0 0 1-.266-3.928c-.07-1.344-.035-2.866.106-4.564a1.647 1.647 0 0 1 1.063-.478c.425-.035.78-.053 1.063-.053 0-1.769-.266-3.68-.797-5.732a110.496 110.496 0 0 0-1.807-6.21 110.495 110.495 0 0 1-1.807-6.21c-.531-2.052-.797-3.98-.797-5.785 0-1.804.372-3.432 1.116-4.882.744-1.451 2.108-2.636 4.092-3.556-.07-3.68-.035-6.51.107-8.492.141-1.982.39-3.291.744-3.928s.78-.743 1.275-.318c.496.424 1.028 1.132 1.595 2.123.566.99 1.169 2.176 1.807 3.556a79.41 79.41 0 0 0 1.913 3.874 1165.066 1165.066 0 0 1 6.112 17.302c1.949 5.662 3.454 11.57 4.517 17.728.496 2.123 1.612 4.14 3.349 6.05 1.736 1.91 3.56 3.804 5.474 5.68a55.402 55.402 0 0 1 5.155 5.784c1.524 1.982 2.356 4.105 2.498 6.37.283-1.982.886-3.787 1.807-5.414a32.236 32.236 0 0 0 2.338-5.149c.638-1.804.868-3.874.691-6.21-.177-2.335-1.258-5.236-3.242-8.704-.425-.637-.531-1.291-.319-1.964a5.698 5.698 0 0 1 1.063-1.91 10.708 10.708 0 0 1 1.701-1.646c.638-.495 1.24-.955 1.807-1.38-1.984-5.944-3.118-10.685-3.401-14.224-.284-3.538-.053-6.032.69-7.483.745-1.45 1.86-1.91 3.349-1.38 1.488.53 3.047 1.858 4.677 3.98.142-1.486.018-2.9-.372-4.245a33.438 33.438 0 0 0-1.435-3.981 449.276 449.276 0 0 1-1.7-3.98 21.044 21.044 0 0 1-1.276-4.247c-.284-.566-.408-1.238-.372-2.016.035-.779.336-1.168.903-1.168h1.063c1.63 1.344 2.905 2.901 3.827 4.67a75.413 75.413 0 0 1 2.55 5.414c.568.779.78 1.575.638 2.388-.141.814-.354 1.61-.637 2.389a383.82 383.82 0 0 1 1.435 7.324c.46 2.477.726 4.76.797 6.847.07 2.087-.124 3.857-.585 5.307-.46 1.451-1.364 2.389-2.71 2.813-1.063.283-1.577.956-1.542 2.017.036 1.062.284 2.282.744 3.662.461 1.38.975 2.813 1.542 4.3.567 1.485.85 2.76.85 3.82.142 1.628-.088 3.168-.69 4.618a68.624 68.624 0 0 1-2.02 4.405 127.143 127.143 0 0 0-2.126 4.459c-.673 1.486-1.01 3.007-1.01 4.564 0 1.84.177 3.892.531 6.157a547.88 547.88 0 0 0 1.116 6.847c.39 2.3.674 4.582.85 6.846.178 2.265.054 4.317-.371 6.157-.284 1.061-.992 1.964-2.126 2.707-1.134.743-2.374.725-3.72-.053-.78-.425-1.258-.089-1.435 1.008-.178 1.097-.248 2.442-.213 4.034l.106 4.83c.036 1.627-.16 2.76-.584 3.396-1.347.283-2.374-.088-3.083-1.114-.708-1.026-.921-2.07-.638-3.132a11.915 11.915 0 0 0-.85-5.89 29.19 29.19 0 0 0-2.923-5.361 56.626 56.626 0 0 0-3.667-4.777 103.422 103.422 0 0 1-3.348-4.087c-.957-1.238-1.577-2.353-1.86-3.344-.284-.99.035-1.84.956-2.547 1.205-.92 1.648-2.07 1.329-3.45-.32-1.38-.957-2.83-1.914-4.352a51.69 51.69 0 0 0-3.242-4.565c-1.204-1.521-2.055-2.883-2.55-4.087a23.96 23.96 0 0 1-3.88-2.813c-1.24-1.096-2.321-2.44-3.242-4.033-.922-1.592-1.577-3.485-1.967-5.68-.348-1.96-.371-4.202-.069-6.727zm135.745-86.229c.641 0 1.484.49 2.526 1.469 1.043.98 2.206 2.632 3.49 4.958 1.123 5.753 1.845 10.741 2.166 14.965.32 4.223.4 8.14.24 11.751a216.31 216.31 0 0 1-.722 10.558c-.32 3.428-.481 7.223-.481 11.385-1.765.98-3.289 2.754-4.572 5.325-1.284 2.57-2.286 5.57-3.008 8.997a89.388 89.388 0 0 0-1.565 10.65c-.32 3.673-.48 6.978-.48 9.916.64 2.938.6 5.294-.121 7.069-.722 1.775-1.765 3.213-3.129 4.315-1.363 1.102-2.928 1.959-4.692 2.57a87.765 87.765 0 0 1-5.295 1.653c-1.764.49-3.328 1.071-4.692 1.745-1.364.673-2.206 1.622-2.527 2.846.32 4.652.441 8.507.361 11.568-.08 3.06-.28 5.6-.602 7.62-.32 2.02-.681 3.58-1.083 4.682a48.465 48.465 0 0 1-1.082 2.755c-1.444-1.347-2.768-2.02-3.971-2.02-1.203 0-2.246-.214-3.129-.643-.882-.428-1.524-1.5-1.925-3.213-.4-1.714-.601-4.958-.601-9.732-2.567.49-4.813.214-6.738-.826-1.926-1.04-3.53-2.48-4.813-4.315-1.284-1.837-2.246-3.979-2.888-6.427a47.553 47.553 0 0 1-1.324-7.161c-.24-2.326-.24-4.438 0-6.335.24-1.898.682-3.336 1.324-4.315l-3.61-22.953c-.642-4.407-1.965-8.997-3.97-13.771-2.006-4.774-3.69-9.456-5.054-14.047-1.364-4.59-1.845-8.936-1.444-13.037.401-4.1 2.687-7.62 6.858-10.558-2.406-5.141-3.409-8.783-3.008-10.925.401-2.143 1.805-3.703 4.212-4.683l7.22 18.362 4.812 16.526 9.626 62.43c0-2.08.642-3.519 1.925-4.314 1.284-.796 2.808-1.5 4.572-2.112a52.002 52.002 0 0 0 5.174-2.112c1.685-.795 3.008-2.234 3.971-4.315 1.123-2.57 1.845-5.753 2.166-9.548a93.56 93.56 0 0 0 .24-11.66c-.16-3.978-.4-7.712-.721-11.2-.321-3.49-.482-6.152-.482-7.988 1.444-2.326 2.848-3.091 4.212-2.295 1.363.795 2.566 1.866 3.61 3.213 1.042 1.347 1.924 2.418 2.646 3.213.722.796 1.244.031 1.565-2.295 0-.857-.241-1.867-.722-3.03-.482-1.163-.963-2.662-1.444-4.498-.482-1.836-.802-4.132-.963-6.886-.16-2.754.08-6.212.722-10.375.642-6.487 1.564-11.935 2.768-16.342 1.203-4.407 2.687-6.61 4.452-6.61zm30.827 41.793c.284.566.514 1.203.691 1.91.177.708.32 1.699.425 2.972.107 1.274.16 2.884.16 4.83 0 1.946-.071 4.37-.213 7.272.425 1.203.886 2.246 1.382 3.131.496.885.94 1.875 1.329 2.972.39 1.097.602 2.495.638 4.193.035 1.699-.195 3.928-.691 6.688.141 1.981.23 3.962.265 5.944.036 1.981.16 3.839.372 5.573.213 1.734.55 3.273 1.01 4.617.46 1.345 1.152 2.336 2.073 2.972 0 2.69.089 5.131.266 7.325.177 2.194.319 4.458.425 6.793.106 2.336.088 4.919-.053 7.75-.142 2.83-.532 6.156-1.17 9.977l-6.377-11.145-1.595-17.515-3.72-3.185-4.252 11.677-2.126 10.615-4.251 12.207c-1.063-.566-1.666-1.592-1.807-3.078-.142-1.486.46-3.822 1.807-7.006-2.126-1.982-3.295-4.3-3.508-6.953-.213-2.654.018-5.449.69-8.386a113.384 113.384 0 0 1 2.499-9.076c.992-3.113 1.63-6.12 1.913-9.022l1.595-14.861c-.426-.92-.674-2.088-.745-3.503-.07-1.415.107-2.76.532-4.034.425-1.274 1.17-2.3 2.232-3.078 1.063-.779 2.516-.956 4.358-.53 0-3.044.177-5.52.532-7.431.354-1.911.815-3.503 1.381-4.777.567-1.274 1.205-2.335 1.914-3.185a37.37 37.37 0 0 0 2.02-2.653zm-3.72 23.883a981.187 981.187 0 0 0-2.445 8.386c-.567 2.123-1.098 4.105-1.594 5.945-.496 1.84-.744 2.9-.744 3.184.425-1.061.832-1.875 1.222-2.441.39-.567.833-.797 1.329-.69.496.106 1.063.583 1.7 1.433.638.849 1.347 2.123 2.126 3.821l-1.594-9.553V83.458zm26.655 32.98c-.155-.481-.289-1.39-.4-2.727.283-1.77.212-3.078-.213-3.928-.425-.849-.956-1.486-1.594-1.91a10.772 10.772 0 0 0-1.86-1.009c-.603-.247-.975-.619-1.116-1.114-.142-.496.088-1.256.69-2.282.603-1.027 1.79-2.566 3.561-4.618.496-.637.638-1.45.425-2.441a60.73 60.73 0 0 0-.797-3.238 20.272 20.272 0 0 1-.638-3.662c-.106-1.274.23-2.583 1.01-3.928.284-1.203.514-2.565.691-4.086.177-1.522.39-3.15.638-4.883a65.995 65.995 0 0 1 1.063-5.573 52.178 52.178 0 0 1 1.86-6.157c0-3.75.408-6.829 1.222-9.235.815-2.406 1.719-4.352 2.711-5.838 1.205-1.699 2.551-3.043 4.04-4.034 1.204 1.203 1.718 2.282 1.54 3.238-.177.955-.584 1.946-1.222 2.972a43.132 43.132 0 0 0-1.913 3.45c-.638 1.274-.815 2.83-.532 4.67.284 1.345.904 2.778 1.86 4.3.957 1.52 1.577 3.095 1.86 4.723.142.779-.053 1.433-.584 1.964a23.78 23.78 0 0 1-1.7 1.539 6.76 6.76 0 0 0-1.489 1.698c-.39.637-.372 1.487.053 2.548.142.637-.035 1.734-.531 3.29-.496 1.558-.904 3.45-1.223 5.68-.318 2.229-.39 4.723-.212 7.483.177 2.76 1.01 5.662 2.498 8.705.141.283.3.159.478-.372l1.17-3.503c.176-.53.336-.655.478-.371.92 1.203 1.4 2.459 1.435 3.768.035 1.309-.178 2.636-.638 3.98a24.42 24.42 0 0 1-1.86 4.087 64.662 64.662 0 0 0-2.126 4.087c-1.347 3.255-2.232 6.015-2.658 8.28-.425 2.264-.602 4.175-.531 5.732.07 1.557.319 2.883.744 3.98s.833 2.123 1.222 3.079c.39.955.691 1.928.904 2.919.212.99.142 2.194-.213 3.609-.141.778.142 1.115.85 1.008.71-.106 1.542-.371 2.499-.796a68.606 68.606 0 0 0 2.816-1.327c.922-.46 1.524-.619 1.807-.477.78.778 1.205 1.539 1.276 2.282.07.743.283 1.398.638 1.964.354.566 1.133 1.079 2.338 1.539 1.205.46 3.33.831 6.378 1.114 1.346 1.345 2.586 2.318 3.72 2.92 1.134.601 1.949 1.132 2.445 1.592.496.46.55.99.16 1.592-.39.602-1.436 1.575-3.136 2.92.283 2.264.141 3.767-.426 4.51-.566.744-1.364.974-2.391.69-1.028-.283-2.197-.92-3.508-1.91a36.39 36.39 0 0 1-3.773-3.29c-.992 1.627-2.108 2.334-3.349 2.122-1.24-.212-2.462-.743-3.667-1.592-1.346-.99-2.728-2.406-4.145-4.246-2.764 1.061-5.315 1.875-7.653 2.441-2.339.566-4.11.655-5.315.266-1.205-.39-1.736-1.327-1.595-2.813.142-1.486 1.276-3.75 3.402-6.794 0-1.203.07-2.459.212-3.768.142-1.31.266-2.6.372-3.875a33.7 33.7 0 0 0 .107-3.768c-.036-1.238-.266-2.388-.691-3.45-.425-1.061-.833-2.07-1.223-3.025a8.48 8.48 0 0 1-.637-2.92c-.036-.99.141-2.034.531-3.13.39-1.097 1.187-2.318 2.392-3.663.672-.671 1.16-1 1.463-.987zm77.939-29.795c2.126-.425 3.667-.071 4.624 1.061.956 1.133 1.612 2.601 1.966 4.406.354 1.804.567 3.715.638 5.732.07 2.016.319 3.768.744 5.254-.355.566-.514 1.15-.479 1.751l.107 1.805a4.484 4.484 0 0 1-.213 1.698c-.177.531-.69.938-1.541 1.221-.85.283-2.108.407-3.774.372-1.665-.036-3.95-.266-6.856-.69-.566.778-1.151 1.592-1.753 2.441a7.57 7.57 0 0 1-2.18 2.07c-.85.53-1.806.796-2.87.796-1.062 0-2.338-.46-3.826-1.38l-5.846 4.777 3.72 20.7 10.098 1.06 8.504-.53 2.657-11.677 3.189 1.593 3.189-5.308-2.658 17.515c-1.984 1.345-3.685 2.406-5.102 3.184-1.417.779-2.657 1.327-3.72 1.646-1.063.318-2.02.371-2.87.159-.85-.212-1.736-.637-2.657-1.274-3.331 1.345-5.953 2.318-7.866 2.92-1.914.6-3.366.955-4.358 1.06-.992.107-1.648.072-1.967-.105a1.622 1.622 0 0 1-.69-.69 43.168 43.168 0 0 0-1.33-8.864c-.743-2.866-1.647-5.484-2.71-7.855-1.063-2.37-2.214-4.458-3.454-6.263-1.24-1.804-2.463-3.167-3.668-4.087-.425-.283-.62-.707-.584-1.273.035-.566.177-1.186.425-1.858a16.51 16.51 0 0 1 1.01-2.176c.425-.778.85-1.486 1.275-2.123-.141-2.123-.513-4.317-1.116-6.581-.602-2.265-.921-4.476-.956-6.635a11.947 11.947 0 0 1 1.54-6.103c1.064-1.911 3.19-3.61 6.379-5.095-.922-1.557-1.134-2.743-.638-3.556.496-.814 1.435-1.416 2.817-1.805 1.381-.39 3.029-.62 4.942-.69 1.914-.07 3.791-.177 5.634-.318l12.224 3.715zm-9.567 4.777c-1.63 0-2.94.159-3.933.477-.992.319-1.63.867-1.913 1.646l-3.72 3.715-5.315 3.715 1.594 5.838c1.985.283 4.022.584 6.112.903 2.09.318 4.093.424 6.006.318 1.913-.106 3.703-.548 5.368-1.327 1.665-.778 3.1-2.158 4.305-4.14-1.205-.495-2.038-1.167-2.498-2.017a6.078 6.078 0 0 1-.744-2.706c-.036-.956.07-1.946.319-2.973a49.1 49.1 0 0 1 .797-2.919c-1.347 0-2.551-.088-3.614-.265-1.063-.177-1.984-.265-2.764-.265z"/>
            <path stroke="#093E18" stroke-width="3" d="M15.468 86.296c1.65-.439 3.52-.659 5.61-.659 2.089 0 4.233.11 6.433.33.44-.659 1.127-1.153 2.062-1.483.935-.33 1.842-.823 2.722-1.482.88-.66 1.595-1.648 2.144-2.966.55-1.318.66-3.294.33-5.93l.495-4.284c-.55 0-1.264-.494-2.144-1.482-1.87-2.087-3.107-3.982-3.712-5.684s-.88-3.322-.825-4.86a13.16 13.16 0 0 1 .99-4.53 795.843 795.843 0 0 0 1.897-4.695c.66-1.648 1.017-3.432 1.072-5.354a52.3 52.3 0 0 0-.165-5.849 245.778 245.778 0 0 0-.577-6.013 54.39 54.39 0 0 1-.33-5.848c-3.08-4.722-4.619-8.127-4.619-10.214 0-2.087.99-3.432 2.97-4.036 1.979-.604 4.646-.714 8-.33 3.355.385 6.819.742 10.393 1.071 3.574.33 7.011.385 10.31.165 3.3-.22 5.83-1.263 7.589-3.13 4.729.33 8.935 1.07 12.62 2.224 3.684 1.153 6.24 2.444 7.67 3.871 1.43 1.428 1.485 2.883.165 4.366-1.32 1.483-4.564 2.663-9.732 3.542-4.73.44-7.946.44-9.65 0-1.706-.44-2.723-.851-3.053-1.236-.33-.384-.467-.576-.412-.576.055 0-.523.604-1.732 1.812-.44.22-1.458.55-3.052.988-1.595.44-3.245.989-4.95 1.648-1.704.659-3.188 1.455-4.453 2.389-1.265.933-1.787 2.004-1.567 3.212.55 2.197.66 4.064.33 5.601a26.933 26.933 0 0 1-1.403 4.53 293.682 293.682 0 0 0-1.897 4.778c-.66 1.702-1.045 3.762-1.155 6.178-.11 2.416.165 5.381.825 8.896.66 3.514 2.035 7.798 4.124 12.85 1.43-3.625 2.502-5.327 3.217-5.107.715.22 1.1 1.427 1.155 3.624.055 2.197-.192 4.97-.742 8.32-.55 3.35-1.265 6.397-2.145 9.142 4.29.55 8.11.687 11.465.412 3.355-.274 6.269-.659 8.743-1.153 2.475-.494 4.564-.988 6.269-1.483 1.705-.494 3.052-.631 4.042-.411.99.22 1.704.906 2.144 2.059.44 1.153.605 3.048.495 5.683 0 .55-.715.88-2.144.989a246 246 0 0 1-5.114.33c-1.98.11-3.932.329-5.857.658-1.924.33-3.326 1.044-4.206 2.142l-19.796 4.613c-.22 1.098-.44 1.922-.66 2.47-1.21 5.932-1.622 10.874-1.237 14.828.385 3.953.467 6.699.247 8.237-.66 1.647-.99 2.663-.99 3.047 0 .385.33.714.99.989.66.274 1.595.741 2.805 1.4 1.21.659 2.75 2.142 4.619 4.448.77.988 1.21 1.62 1.32 1.895.11.274.027.466-.248.576-.275.11-.605.33-.99.66-.385.329-.687.988-.907 1.976-.44 2.855-.165 5.272.825 7.249a66.94 66.94 0 0 0 2.97 5.354c.989 1.592 1.621 3.13 1.896 4.612.275 1.483-.522 3.158-2.392 5.025-.88 2.965-2.172 5.162-3.876 6.59-1.705 1.427-3.41 1.647-5.114.659-1.705-.989-3.107-3.378-4.207-7.167-1.1-3.789-1.375-9.417-.825-16.886-1.21-3.294-2.172-6.48-2.887-9.555-.715-3.075-1.264-5.958-1.65-8.648-.384-2.691-.714-5.217-.99-7.579-.274-2.36-.632-4.475-1.071-6.342-1.21-2.087-1.76-4.091-1.65-6.013.11-1.922.44-3.817.99-5.684-2.09-.659-4.344-1.537-6.764-2.636L15.468 86.296zm93.38-28.844c.284 1.981.532 3.998.745 6.05.213 2.053.443 4.034.69 5.945.249 1.91.55 3.662.904 5.254.355 1.592.815 2.92 1.382 3.98.567-2.405 1.47-5.077 2.71-8.014 1.24-2.936 3.349-6.28 6.325-10.03.496.424.904.92 1.223 1.485.319.566.69 1.062 1.116 1.486.425.425 1.01.708 1.754.85.744.141 1.86-.071 3.348-.637.638.07 1.24.212 1.807.424a7.781 7.781 0 0 1 2.976 1.699c.355.778.514 1.663.479 2.653-.036.991-.16 1.911-.372 2.76a20.83 20.83 0 0 1-1.17 3.079 89.757 89.757 0 0 0 3.561 7.165c1.311 2.37 2.232 4.741 2.764 7.112.531 2.37.407 4.706-.372 7.006-.78 2.3-2.764 4.582-5.953 6.847l-12.224 10.084a144.034 144.034 0 0 1 4.305 5.148c1.382 1.734 2.516 3.45 3.402 5.148.886 1.699 1.364 3.38 1.435 5.043.07 1.663-.496 3.273-1.701 4.83a103.42 103.42 0 0 1 3.083 4.033 57.575 57.575 0 0 1 2.285 3.61c.744 1.273 1.258 2.44 1.541 3.502.284 1.062.354 2.3.213 3.715-.142 1.416-.32 2.92-.532 4.512a606.87 606.87 0 0 0-.637 4.936 22.698 22.698 0 0 0-.107 4.883c.142 1.627.408 3.131.797 4.511.39 1.38.78 2.707 1.17 3.98.39 1.275.726 2.478 1.01 3.61.283 1.132.354 2.229.212 3.29-.283 1.204-.673 2.035-1.17 2.495-.495.46-1.027.76-1.594.902-.637.142-1.31.071-2.02-.212l-4.251-29.191c0 .141-.213-.124-.638-.796a82.7 82.7 0 0 1-1.647-2.76 215.314 215.314 0 0 1-2.233-3.981 95.556 95.556 0 0 1-2.391-4.67 661.113 661.113 0 0 0-1.648-3.875 295.57 295.57 0 0 1-1.435-3.397 41.106 41.106 0 0 1-1.01-2.654c-.248-.743-.3-1.327-.159-1.751.142-2.123.124-3.998-.053-5.626-.177-1.628-.372-3.008-.585-4.14a35.334 35.334 0 0 0-.956-3.503l-3.19 25.476c0 2.265-.052 4.635-.159 7.112-.106 2.477-.319 4.67-.637 6.582-.32 1.91-.798 3.361-1.435 4.352-.638.99-1.489 1.167-2.551.53l-1.063-13.8 1.594-14.33c-1.63-1.202-2.533-2.688-2.71-4.458-.178-1.769-.09-3.626.265-5.573a69.21 69.21 0 0 1 1.329-5.838c.531-1.946.726-3.733.585-5.36-1.347-1.628-2.233-3.946-2.658-6.953-.425-3.008-.248-6.528.532-10.562.637-3.68 1.045-7.537 1.222-11.57.177-4.034.301-7.696.372-10.987.07-3.29.195-6.015.372-8.174.177-2.158.585-3.237 1.222-3.237h.532zm14.882 21.23c-.567 0-1.187.3-1.86.902a46.16 46.16 0 0 0-1.86 1.752c-.567.566-.939 1.132-1.116 1.698a13.457 13.457 0 0 0-.425 1.804c-.107.637-.213 1.292-.32 1.964-.106.673-.371 1.327-.796 1.964-.142.425-.443.778-.904 1.062-.46.283-.903.548-1.329.796-.425.247-.761.513-1.01.796-.248.283-.23.637.054 1.061.283.425.726.973 1.328 1.646a24.54 24.54 0 0 1 1.86 2.388c.638.92 1.258 1.893 1.86 2.92a12.601 12.601 0 0 1 1.33 3.13c.141.637.442.655.903.054.46-.602.939-1.469 1.435-2.601a33.184 33.184 0 0 0 1.329-3.61c.39-1.273.584-2.228.584-2.865 0-.496-.142-1.009-.425-1.54l-.85-1.592a16.047 16.047 0 0 1-.744-1.592 2.613 2.613 0 0 1-.107-1.645c.142-.779.46-1.45.957-2.017.496-.566.974-1.097 1.435-1.592a6.009 6.009 0 0 0 1.063-1.54c.248-.53.16-1.114-.266-1.751-.283-.566-.567-.973-.85-1.22-.284-.248-.709-.372-1.276-.372zm47.62 15.604c.85 0 1.542.318 2.073.955.532.637.691 1.805.478 3.503 0 1.415.585 2.672 1.754 3.768a39.622 39.622 0 0 0 3.88 3.185 74.014 74.014 0 0 1 4.092 3.185c1.311 1.096 2.073 2.317 2.286 3.662.141 1.132.017 2.565-.372 4.299-.39 1.734-.798 3.414-1.223 5.042-.567 1.91-1.169 3.927-1.807 6.05.85.85 1.347 1.893 1.488 3.132.142 1.238.054 2.636-.265 4.193a42.225 42.225 0 0 1-1.329 4.883 453.842 453.842 0 0 0-1.7 5.201c-.78 3.185-1.932 5.485-3.455 6.9-1.524 1.415-2.923 2.123-4.199 2.123-.78 0-1.346-.53-1.7-1.592a76.35 76.35 0 0 0-1.276-3.503 10.145 10.145 0 0 0-2.18-3.397c-.956-.99-2.39-1.38-4.304-1.168-2.268.071-3.898-.354-4.89-1.274-.992-.92-1.736-2.264-2.232-4.033-.496-1.77-.886-3.875-1.17-6.316-.283-2.442-.779-5.149-1.487-8.12-.355-1.77-1.01-3.61-1.967-5.52-.956-1.911-1.63-3.787-2.02-5.627-.39-1.84-.23-3.662.479-5.466.709-1.805 2.551-3.486 5.527-5.042a57.737 57.737 0 0 1 5.74-3.079 19.715 19.715 0 0 0 4.996-3.29c1.7-1.77 3.295-2.654 4.783-2.654zm1.701 17.09c-.425 0-.833.3-1.222.902-.39.602-.78 1.31-1.17 2.123l-1.169 2.442c-.39.814-.815 1.415-1.275 1.804-.461.39-.957.478-1.489.266-.531-.213-1.116-.956-1.753-2.23-.567-.92-.886-.99-.957-.212-.07.779 0 1.929.213 3.45.212 1.522.46 3.167.744 4.936.283 1.77.531 3.15.744 4.14.212.99.3 2.176.265 3.556-.035 1.38-.017 2.69.054 3.928.07 1.238.318 2.264.744 3.078.425.814 1.24 1.15 2.444 1.008 2.764 0 4.536-1.22 5.315-3.662.78-2.441 0-5.82-2.338-10.137-.426-.779-.567-1.645-.426-2.6a13.31 13.31 0 0 1 .798-2.92c.39-.99.815-1.964 1.275-2.92.46-.954.815-1.857 1.063-2.706.248-.85.284-1.592.106-2.23-.177-.636-.69-1.131-1.54-1.485 0-.354-.143-.531-.426-.531zm31.554-7.365c.036-.3.077-.606.122-.915l-.122.915zm0 0c-.526 3.954-1.053 7.983-1.579 12.089-.567 4.423-.708 8.757-.425 13.003 0 .637.089.973.266 1.009.177.035.39-.054.638-.266.248-.212.531-.477.85-.796.319-.318.62-.478.903-.478.496.283.833.637 1.01 1.062.177.424.266.884.266 1.38 0 .495-.036.99-.106 1.486-.071.495-.107.955-.107 1.38-.78 4.246-1.7 8.244-2.763 11.995-1.063 3.75-1.736 7.36-2.02 10.827-.283 5.308-.69 8.988-1.222 11.04-.532 2.052-1.099 3.131-1.701 3.237-.602.107-1.17-.442-1.7-1.645a20.642 20.642 0 0 1-1.223-3.609c-.284-.92-.301-2.211-.053-3.875.248-1.663.549-3.414.903-5.254.355-1.84.691-3.662 1.01-5.467.319-1.804.407-3.308.266-4.511-.284-1.698-.744-3.645-1.382-5.838a147.411 147.411 0 0 0-1.967-6.263c-.673-1.982-1.257-3.715-1.753-5.202-.496-1.486-.744-2.441-.744-2.866-.284-.778-.107-1.468.531-2.07.638-.601 1.346-.619 2.126-.053.283.283.531.549.744.796.213.248.319-.017.319-.796.283-1.698.407-3.22.372-4.564a69.146 69.146 0 0 0-.213-3.928 128.706 128.706 0 0 1-.265-3.927c-.071-1.345-.036-2.866.106-4.565a1.647 1.647 0 0 1 1.063-.477c.425-.036.78-.053 1.063-.053 0-1.77-.266-3.68-.797-5.733a110.497 110.497 0 0 0-1.807-6.21 110.496 110.496 0 0 1-1.808-6.21c-.531-2.051-.797-3.98-.797-5.784 0-1.805.372-3.432 1.116-4.883.744-1.45 2.109-2.636 4.093-3.556-.071-3.68-.036-6.51.106-8.492.142-1.982.39-3.29.744-3.928.354-.637.78-.743 1.276-.318.496.424 1.027 1.132 1.594 2.123.567.99 1.17 2.176 1.807 3.556a79.41 79.41 0 0 0 1.913 3.874 1165.07 1165.07 0 0 1 6.112 17.303c1.95 5.661 3.455 11.57 4.518 17.727.496 2.123 1.612 4.14 3.348 6.05 1.736 1.911 3.561 3.804 5.474 5.68a55.403 55.403 0 0 1 5.156 5.785c1.523 1.981 2.356 4.104 2.498 6.369.283-1.982.885-3.786 1.807-5.414a32.236 32.236 0 0 0 2.338-5.148c.638-1.805.868-3.875.691-6.21-.177-2.335-1.258-5.237-3.242-8.704-.425-.637-.531-1.292-.319-1.964a5.698 5.698 0 0 1 1.063-1.91 10.708 10.708 0 0 1 1.7-1.646c.639-.496 1.24-.956 1.808-1.38-1.984-5.945-3.118-10.686-3.402-14.224-.283-3.539-.053-6.033.691-7.484.744-1.45 1.86-1.91 3.349-1.38 1.488.53 3.047 1.858 4.677 3.98.141-1.485.017-2.9-.373-4.245a33.438 33.438 0 0 0-1.434-3.98 449.277 449.277 0 0 1-1.701-3.982 21.044 21.044 0 0 1-1.276-4.246c-.283-.566-.407-1.238-.372-2.016.036-.779.337-1.168.904-1.168h1.063c1.63 1.345 2.905 2.901 3.826 4.67a75.413 75.413 0 0 1 2.551 5.414c.567.779.78 1.575.638 2.389-.142.813-.354 1.61-.638 2.388.496 2.406.975 4.848 1.435 7.324.461 2.477.727 4.76.798 6.847.07 2.088-.124 3.857-.585 5.308-.46 1.45-1.364 2.388-2.71 2.813-1.064.283-1.577.955-1.542 2.016.036 1.062.284 2.283.744 3.663s.975 2.813 1.541 4.299c.567 1.486.85 2.76.85 3.821.143 1.628-.088 3.167-.69 4.618a68.624 68.624 0 0 1-2.02 4.405 127.145 127.145 0 0 0-2.126 4.458c-.673 1.486-1.01 3.008-1.01 4.565 0 1.84.178 3.892.532 6.156.354 2.265.726 4.547 1.116 6.847.39 2.3.673 4.582.85 6.847.178 2.264.054 4.316-.371 6.156-.284 1.062-.993 1.964-2.126 2.707-1.134.743-2.374.726-3.72-.053-.78-.424-1.259-.088-1.436 1.009-.177 1.097-.248 2.441-.212 4.033l.106 4.83c.035 1.628-.16 2.76-.585 3.397-1.346.283-2.373-.088-3.082-1.115-.709-1.026-.921-2.07-.638-3.131a11.915 11.915 0 0 0-.85-5.891 29.19 29.19 0 0 0-2.923-5.361 56.626 56.626 0 0 0-3.668-4.777 103.422 103.422 0 0 1-3.348-4.087c-.956-1.238-1.577-2.352-1.86-3.343-.283-.991.035-1.84.957-2.548 1.204-.92 1.647-2.07 1.328-3.45-.319-1.38-.956-2.83-1.913-4.352a51.69 51.69 0 0 0-3.242-4.564c-1.205-1.522-2.055-2.884-2.551-4.087a23.96 23.96 0 0 1-3.88-2.813c-1.24-1.097-2.32-2.442-3.242-4.034-.921-1.592-1.576-3.485-1.966-5.679-.348-1.96-.371-4.203-.07-6.728zm85.37-61.951c1.205 1.203 1.666 2.689 1.382 4.458-.283 1.77-.815 3.645-1.594 5.626a239.79 239.79 0 0 0-2.286 6.05c-.744 2.053-.974 3.928-.69 5.627.141.778.354 1.327.637 1.645.284.318.603.566.957.743.354.177.673.425.957.743.283.319.496.867.637 1.645.142.779.036 1.681-.318 2.707-.355 1.026-.727 2.106-1.117 3.238a29.284 29.284 0 0 0-.956 3.45c-.248 1.167-.16 2.282.265 3.344.497 1.486.567 3.096.213 4.83a30.678 30.678 0 0 1-1.435 4.935 101.272 101.272 0 0 1-1.647 4.034c-.497 1.132-.603 1.84-.32 2.123.638.566 1.347.76 2.127.584a8.89 8.89 0 0 0 2.179-.796 29.002 29.002 0 0 0 1.86-1.062c.567-.354.992-.46 1.275-.318.355.424.585.884.691 1.38.107.495.089.955-.053 1.38-.142.495-.354.99-.638 1.486-.283.778-.124 1.079.479.902.602-.177 1.452-.371 2.55-.584 1.1-.212 2.357-.247 3.774-.106 1.417.142 2.87.955 4.358 2.442 1.347 1.344 2.569 2.317 3.667 2.919 1.099.601 1.878 1.132 2.339 1.592.46.46.496.99.106 1.592-.39.602-1.364 1.575-2.923 2.92.284 2.264.142 3.785-.425 4.564-.567.778-1.364 1.044-2.392.796-1.027-.248-2.196-.867-3.507-1.858a26.692 26.692 0 0 1-3.774-3.503c-.992 1.628-2.144 2.336-3.454 2.123-1.311-.212-2.57-.743-3.774-1.592-1.417-.99-2.905-2.406-4.464-4.246.354 3.397.496 6.51.425 9.341a44.44 44.44 0 0 1-.744 7.06c-.425 2.228-1.205 3.661-2.339 4.298 0 1.345.124 2.636.372 3.875.248 1.238.479 2.406.691 3.503.213 1.097.301 2.105.266 3.025-.035.92-.301 1.699-.797 2.335-.992 1.699-1.666 3.114-2.02 4.246-.354 1.133-.567 2.159-.638 3.079-.07.92-.088 1.84-.053 2.76.036.92-.07 1.963-.319 3.131-.248 1.168-.69 2.548-1.328 4.14-.638 1.592-1.666 3.591-3.083 5.997-.78-1.132-1.31-1.999-1.594-2.6-.284-.602-.408-1.097-.372-1.486.035-.39.16-.779.372-1.168.212-.39.46-.938.744-1.645.283-.708.514-1.681.69-2.92.178-1.238.231-2.919.16-5.042 0-1.203.071-2.459.213-3.768.141-1.31.265-2.6.372-3.874a33.7 33.7 0 0 0 .106-3.769c-.035-1.238-.266-2.388-.69-3.45-.426-1.061-.834-2.07-1.223-3.025a8.48 8.48 0 0 1-.638-2.919c-.035-.99.142-2.035.531-3.131.39-1.097 1.187-2.318 2.392-3.663a6.73 6.73 0 0 0 1.329-2.6c.248-.956.372-2.017.372-3.185 0-1.167-.071-2.459-.213-3.874a285.136 285.136 0 0 1-.425-4.67c-.142-.426-.567-.673-1.276-.744-.708-.07-1.488-.16-2.338-.265-.85-.106-1.683-.301-2.498-.584-.815-.283-1.435-.814-1.86-1.592-.142-.496-.585-.885-1.329-1.168a17.003 17.003 0 0 0-2.285-.69c-.78-.177-1.47-.39-2.073-.637-.602-.248-.833-.655-.69-1.22 0-.78.265-1.664.796-2.654.532-.991 1.33-1.345 2.392-1.062.921.425 1.612.602 2.073.53.46-.07.832-.265 1.116-.583.283-.318.514-.672.69-1.062.178-.389.48-.725.904-1.008.78-.283 1.754-.513 2.923-.69 1.17-.177 2.144-.655 2.924-1.433.496-.637.637-.92.425-.85l-.797.266c-.32.106-.532.036-.638-.212-.107-.248.23-1.044 1.01-2.388a46.79 46.79 0 0 0 .69-4.353c.178-1.557.39-3.237.638-5.042a63.059 63.059 0 0 1 1.063-5.679 52.178 52.178 0 0 1 1.86-6.157c0-3.609.46-7.005 1.382-10.19.921-3.184 1.949-6.015 3.083-8.492a42.98 42.98 0 0 1 4.57-7.855zm67.498 3.715l5.314 2.123a10.135 10.135 0 0 1 2.605 2.76c.673 1.062.903 2.442.69 4.14-.212 1.698-.974 3.874-2.285 6.528-1.31 2.654-3.419 5.962-6.324 9.925a34.552 34.552 0 0 1-3.827-3.078 26.215 26.215 0 0 1-2.71-2.92c-.815-1.025-1.294-2.034-1.435-3.025-.284-1.061-.302-2.264-.054-3.609a25.136 25.136 0 0 1 1.01-3.821c.425-1.345.992-2.76 1.7-4.246a32.095 32.095 0 0 0-1.487-3.185c-.567-1.061-.904-2.123-1.01-3.184-.106-1.062.195-2.123.903-3.185.71-1.061 2.126-2.123 4.252-3.184l2.658 7.961zm5.314 40.868l-2.126 16.984a61.22 61.22 0 0 1 2.764 3.61 25.25 25.25 0 0 1 2.18 3.29c.672 1.203 1.15 2.264 1.434 3.184.354 1.77.425 3.84.213 6.21a72.986 72.986 0 0 1-.957 6.953 94.258 94.258 0 0 1-1.913 8.067c-.496 2.902-.709 5.485-.638 7.75.07 2.264.266 4.245.585 5.944a74.83 74.83 0 0 0 .903 4.246c.284 1.132.372 2.052.266 2.76-.106.707-.532 1.185-1.276 1.433-.744.247-2.002.336-3.773.265-1.488 0-2.463-.088-2.923-.265-.46-.177-.691-.637-.691-1.38 0-.743.16-1.858.478-3.344.32-1.486.55-3.574.691-6.263l-2.657-12.738c-.567-.141-1.099-.3-1.595-.478-.496-.176-.815-.672-.956-1.486-.142-.813 0-2.052.425-3.715.425-1.663 1.31-4.016 2.657-7.059l-.531-26.856c-.355 1.062-.744 1.946-1.17 2.654a5.135 5.135 0 0 1-1.328 1.433c-.532.39-1.116.371-1.754-.053-.78-.425-1.364-1.08-1.754-1.964-.39-.885-.602-1.875-.638-2.972a20.982 20.982 0 0 1 .213-3.556 29.32 29.32 0 0 1 .797-3.822c.78-2.901 1.949-6.05 3.508-9.447.638.425 1.329.973 2.073 1.645.744.673 1.488 1.097 2.232 1.274.744.177 1.523-.053 2.338-.69.815-.637 1.612-2.087 2.392-4.352l.531 12.738zm30.385 17.368c.036-.3.077-.606.122-.915l-.122.915zm0 0c-.526 3.954-1.052 7.983-1.579 12.089-.567 4.423-.708 8.757-.425 13.003 0 .637.089.973.266 1.009.177.035.39-.054.638-.266.248-.212.531-.477.85-.796.319-.318.62-.478.903-.478.497.283.833.637 1.01 1.062.177.424.266.884.266 1.38 0 .495-.035.99-.106 1.486-.071.495-.107.955-.107 1.38-.78 4.246-1.7 8.244-2.763 11.995-1.063 3.75-1.736 7.36-2.02 10.827-.283 5.308-.69 8.988-1.222 11.04-.532 2.052-1.099 3.131-1.7 3.237-.603.107-1.17-.442-1.702-1.645a20.642 20.642 0 0 1-1.222-3.609c-.284-.92-.301-2.211-.053-3.875.248-1.663.549-3.414.903-5.254.355-1.84.691-3.662 1.01-5.467.319-1.804.408-3.308.266-4.511-.284-1.698-.744-3.645-1.382-5.838a147.411 147.411 0 0 0-1.966-6.263c-.674-1.982-1.258-3.715-1.754-5.202-.496-1.486-.744-2.441-.744-2.866-.284-.778-.107-1.468.531-2.07.638-.601 1.346-.619 2.126-.053.283.283.531.549.744.796.213.248.319-.017.319-.796.283-1.698.407-3.22.372-4.564a69.145 69.145 0 0 0-.213-3.928 128.712 128.712 0 0 1-.265-3.927c-.071-1.345-.036-2.866.106-4.565a1.647 1.647 0 0 1 1.063-.477c.425-.036.78-.053 1.063-.053 0-1.77-.266-3.68-.797-5.733a110.497 110.497 0 0 0-1.807-6.21 110.497 110.497 0 0 1-1.807-6.21c-.532-2.051-.798-3.98-.798-5.784 0-1.805.372-3.432 1.116-4.883.745-1.45 2.109-2.636 4.093-3.556-.071-3.68-.036-6.51.106-8.492.142-1.982.39-3.29.744-3.928.355-.637.78-.743 1.276-.318.496.424 1.027 1.132 1.594 2.123.567.99 1.17 2.176 1.807 3.556a79.41 79.41 0 0 0 1.913 3.874 1165.07 1165.07 0 0 1 6.112 17.303c1.95 5.661 3.455 11.57 4.518 17.727.496 2.123 1.612 4.14 3.348 6.05 1.736 1.911 3.561 3.804 5.474 5.68a55.402 55.402 0 0 1 5.156 5.785c1.523 1.981 2.356 4.104 2.498 6.369.283-1.982.885-3.786 1.807-5.414a32.236 32.236 0 0 0 2.338-5.148c.638-1.805.868-3.875.691-6.21-.177-2.335-1.258-5.237-3.242-8.704-.425-.637-.531-1.292-.319-1.964a5.698 5.698 0 0 1 1.063-1.91 10.708 10.708 0 0 1 1.7-1.646c.639-.496 1.241-.956 1.808-1.38-1.984-5.945-3.118-10.686-3.402-14.224-.283-3.539-.053-6.033.691-7.484.744-1.45 1.86-1.91 3.349-1.38 1.488.53 3.047 1.858 4.677 3.98.141-1.485.017-2.9-.372-4.245a33.438 33.438 0 0 0-1.435-3.98 449.277 449.277 0 0 1-1.701-3.982 21.044 21.044 0 0 1-1.276-4.246c-.283-.566-.407-1.238-.372-2.016.036-.779.337-1.168.904-1.168h1.063c1.63 1.345 2.905 2.901 3.826 4.67a75.413 75.413 0 0 1 2.551 5.414c.567.779.78 1.575.638 2.389-.141.813-.354 1.61-.638 2.388.497 2.406.975 4.848 1.435 7.324.461 2.477.727 4.76.798 6.847.07 2.088-.124 3.857-.585 5.308-.46 1.45-1.364 2.388-2.71 2.813-1.063.283-1.577.955-1.542 2.016.036 1.062.284 2.283.744 3.663s.975 2.813 1.542 4.299c.567 1.486.85 2.76.85 3.821.142 1.628-.089 3.167-.691 4.618a68.624 68.624 0 0 1-2.02 4.405 127.144 127.144 0 0 0-2.125 4.458c-.674 1.486-1.01 3.008-1.01 4.565 0 1.84.177 3.892.531 6.156.355 2.265.727 4.547 1.116 6.847.39 2.3.674 4.582.85 6.847.178 2.264.054 4.316-.371 6.156-.284 1.062-.992 1.964-2.126 2.707-1.134.743-2.374.726-3.72-.053-.78-.424-1.258-.088-1.436 1.009-.177 1.097-.248 2.441-.212 4.033l.106 4.83c.036 1.628-.16 2.76-.584 3.397-1.347.283-2.374-.088-3.083-1.115-.709-1.026-.921-2.07-.638-3.131a11.915 11.915 0 0 0-.85-5.891 29.19 29.19 0 0 0-2.923-5.361 56.626 56.626 0 0 0-3.667-4.777 103.421 103.421 0 0 1-3.349-4.087c-.956-1.238-1.576-2.352-1.86-3.343-.283-.991.036-1.84.957-2.548 1.204-.92 1.647-2.07 1.328-3.45-.318-1.38-.956-2.83-1.913-4.352a51.69 51.69 0 0 0-3.242-4.564c-1.205-1.522-2.055-2.884-2.55-4.087a23.96 23.96 0 0 1-3.88-2.813c-1.24-1.097-2.321-2.442-3.243-4.034-.92-1.592-1.576-3.485-1.966-5.679-.348-1.96-.371-4.203-.069-6.728zm135.3-87.334c.642 0 1.484.494 2.527 1.48 1.042.988 2.206 2.654 3.49 4.999 1.122 5.8 1.844 10.828 2.165 15.086.32 4.257.401 8.206.24 11.846-.16 3.64-.4 7.188-.721 10.644-.321 3.455-.482 7.28-.482 11.476-1.764.987-3.289 2.777-4.572 5.368-1.283 2.592-2.286 5.615-3.008 9.07a90.791 90.791 0 0 0-1.564 10.736c-.321 3.702-.482 7.034-.482 9.996.642 2.961.602 5.337-.12 7.126-.722 1.79-1.765 3.24-3.128 4.35-1.364 1.11-2.928 1.975-4.693 2.592a87.25 87.25 0 0 1-5.294 1.666c-1.765.493-3.33 1.08-4.693 1.758-1.364.679-2.206 1.635-2.527 2.87.321 4.688.442 8.576.361 11.66-.08 3.086-.28 5.646-.601 7.683-.321 2.036-.682 3.609-1.083 4.72a49.093 49.093 0 0 1-1.083 2.776c-1.444-1.357-2.768-2.036-3.97-2.036-1.204 0-2.247-.216-3.13-.648-.882-.432-1.523-1.511-1.924-3.24-.401-1.727-.602-4.997-.602-9.81-2.567.494-4.813.216-6.738-.833-1.925-1.048-3.53-2.498-4.813-4.35-1.284-1.85-2.246-4.01-2.888-6.478a48.286 48.286 0 0 1-1.323-7.22c-.241-2.344-.241-4.472 0-6.385.24-1.913.681-3.363 1.323-4.35l-3.61-23.138c-.641-4.443-1.965-9.07-3.97-13.883-2.006-4.813-3.69-9.533-5.054-14.16-1.364-4.628-1.845-9.009-1.444-13.143s2.687-7.681 6.859-10.643c-2.407-5.183-3.41-8.854-3.008-11.014.4-2.16 1.804-3.733 4.211-4.72l7.22 18.51 4.812 16.66 9.626 62.935c0-2.098.642-3.548 1.925-4.35 1.284-.802 2.808-1.512 4.573-2.129a51.765 51.765 0 0 0 5.174-2.128c1.684-.802 3.008-2.252 3.97-4.35 1.123-2.592 1.845-5.8 2.166-9.626.321-3.825.401-7.743.24-11.754-.16-4.01-.4-7.774-.721-11.291-.321-3.517-.481-6.201-.481-8.052 1.443-2.345 2.847-3.116 4.21-2.314 1.365.802 2.568 1.882 3.61 3.24 1.043 1.357 1.926 2.437 2.648 3.239.722.802 1.243.03 1.564-2.314 0-.864-.24-1.882-.722-3.054-.481-1.173-.963-2.684-1.444-4.535s-.802-4.165-.962-6.942c-.16-2.776.08-6.262.721-10.458.642-6.54 1.565-12.032 2.768-16.474 1.203-4.443 2.687-6.664 4.452-6.664zm31.273 42.898c.283.566.513 1.203.69 1.91.178.708.32 1.699.426 2.973.106 1.273.16 2.883.16 4.83 0 1.946-.072 4.37-.213 7.27.425 1.204.885 2.248 1.381 3.132.497.885.94 1.875 1.33 2.972.389 1.097.602 2.495.637 4.193.035 1.699-.195 3.928-.691 6.688.142 1.981.23 3.963.266 5.944.035 1.982.16 3.84.372 5.573.212 1.734.549 3.273 1.01 4.618.46 1.344 1.151 2.335 2.072 2.972 0 2.689.089 5.13.266 7.324.177 2.194.319 4.459.425 6.794.107 2.335.089 4.918-.053 7.749-.142 2.83-.531 6.156-1.17 9.978l-6.377-11.146-1.594-17.515-3.72-3.184-4.252 11.676-2.126 10.615-4.252 12.208c-1.063-.566-1.665-1.593-1.807-3.079-.142-1.486.46-3.821 1.807-7.006-2.126-1.981-3.295-4.299-3.508-6.952-.212-2.654.018-5.45.691-8.386a113.385 113.385 0 0 1 2.498-9.076c.992-3.114 1.63-6.121 1.913-9.023l1.595-14.861c-.425-.92-.673-2.088-.744-3.503-.071-1.415.106-2.76.531-4.034.425-1.273 1.17-2.3 2.232-3.078 1.063-.778 2.516-.955 4.358-.53 0-3.044.178-5.52.532-7.431.354-1.911.815-3.503 1.382-4.777s1.204-2.335 1.913-3.185a37.37 37.37 0 0 0 2.02-2.653zm-3.72 23.884a981.19 981.19 0 0 0-2.445 8.385c-.567 2.123-1.099 4.105-1.595 5.945-.496 1.84-.744 2.901-.744 3.184.425-1.061.833-1.875 1.222-2.441.39-.566.833-.796 1.33-.69.495.106 1.062.584 1.7 1.433.638.85 1.346 2.123 2.126 3.821l-1.595-9.553V83.459zm26.655 32.98c-.156-.482-.29-1.391-.4-2.728.283-1.769.212-3.078-.213-3.927-.426-.85-.957-1.486-1.595-1.91a10.772 10.772 0 0 0-1.86-1.01c-.602-.247-.974-.619-1.116-1.114-.142-.495.089-1.256.69-2.282.603-1.026 1.79-2.565 3.562-4.618.496-.637.638-1.45.425-2.441a60.73 60.73 0 0 0-.797-3.238 20.272 20.272 0 0 1-.638-3.662c-.106-1.274.23-2.583 1.01-3.927.283-1.204.513-2.566.69-4.087.178-1.522.39-3.15.638-4.883a65.994 65.994 0 0 1 1.063-5.573 52.178 52.178 0 0 1 1.86-6.157c0-3.75.408-6.829 1.223-9.235.815-2.406 1.718-4.352 2.71-5.838 1.205-1.699 2.552-3.043 4.04-4.034 1.204 1.203 1.718 2.282 1.54 3.238-.176.955-.584 1.946-1.221 2.972a43.132 43.132 0 0 0-1.914 3.45c-.638 1.274-.815 2.83-.531 4.67.283 1.345.903 2.778 1.86 4.3.957 1.521 1.577 3.096 1.86 4.723.142.779-.053 1.433-.585 1.964a23.781 23.781 0 0 1-1.7 1.54 6.76 6.76 0 0 0-1.488 1.698c-.39.636-.372 1.486.053 2.547.141.637-.036 1.734-.532 3.29-.496 1.558-.903 3.45-1.222 5.68-.319 2.23-.39 4.724-.213 7.483.177 2.76 1.01 5.662 2.498 8.705.142.283.301.159.479-.372l1.169-3.503c.177-.53.336-.654.478-.371.921 1.203 1.4 2.459 1.435 3.768.036 1.31-.177 2.636-.638 3.98a24.42 24.42 0 0 1-1.86 4.088 64.661 64.661 0 0 0-2.126 4.086c-1.346 3.256-2.232 6.016-2.657 8.28-.425 2.265-.602 4.175-.532 5.732.071 1.557.32 2.884.744 3.98.426 1.098.833 2.124 1.223 3.08.39.955.69 1.928.903 2.918.213.991.142 2.194-.212 3.61-.142.778.142 1.114.85 1.008.709-.106 1.541-.372 2.498-.796a68.61 68.61 0 0 0 2.817-1.327c.921-.46 1.523-.62 1.807-.478.78.779 1.205 1.54 1.275 2.282.071.743.284 1.398.638 1.964.355.566 1.134 1.08 2.339 1.54 1.204.46 3.33.83 6.377 1.114 1.347 1.345 2.587 2.318 3.72 2.92 1.135.6 1.95 1.131 2.446 1.591.496.46.549.991.159 1.593-.39.601-1.435 1.574-3.136 2.919.284 2.264.142 3.768-.425 4.511-.567.743-1.364.973-2.392.69-1.027-.283-2.196-.92-3.507-1.91a36.39 36.39 0 0 1-3.774-3.291c-.992 1.627-2.108 2.335-3.348 2.123-1.24-.213-2.463-.743-3.667-1.593-1.347-.99-2.728-2.406-4.146-4.246-2.763 1.062-5.314 1.876-7.653 2.442-2.338.566-4.11.654-5.315.265-1.204-.389-1.736-1.327-1.594-2.813.142-1.486 1.275-3.75 3.401-6.793 0-1.203.071-2.46.213-3.769.142-1.309.266-2.6.372-3.874a33.7 33.7 0 0 0 .106-3.768c-.035-1.239-.266-2.389-.69-3.45-.426-1.062-.833-2.07-1.223-3.026a8.48 8.48 0 0 1-.638-2.919c-.035-.99.142-2.034.532-3.131s1.187-2.318 2.391-3.662c.672-.672 1.16-1 1.464-.988zm77.939-29.796c2.125-.425 3.667-.07 4.623 1.062.957 1.132 1.612 2.6 1.967 4.405.354 1.804.567 3.715.638 5.732.07 2.017.318 3.768.744 5.254-.355.566-.514 1.15-.479 1.752l.107 1.804a4.484 4.484 0 0 1-.213 1.699c-.177.53-.69.937-1.541 1.22-.85.284-2.108.407-3.774.372-1.665-.035-3.95-.265-6.856-.69-.567.778-1.151 1.592-1.754 2.441a7.57 7.57 0 0 1-2.179 2.07c-.85.531-1.807.797-2.87.797-1.063 0-2.338-.46-3.826-1.38l-5.846 4.776 3.72 20.7 10.098 1.061 8.503-.53 2.658-11.677 3.189 1.592 3.189-5.307-2.658 17.514c-1.984 1.345-3.685 2.406-5.102 3.185-1.417.778-2.657 1.327-3.72 1.645-1.063.319-2.02.372-2.87.16-.85-.213-1.736-.637-2.658-1.274-3.33 1.344-5.952 2.317-7.865 2.919-1.914.601-3.366.955-4.359 1.061-.992.106-1.647.071-1.966-.106a1.622 1.622 0 0 1-.69-.69 43.169 43.169 0 0 0-1.33-8.863c-.744-2.866-1.647-5.485-2.71-7.855-1.063-2.371-2.215-4.459-3.455-6.263-1.24-1.805-2.462-3.167-3.667-4.087-.425-.283-.62-.708-.584-1.274.035-.566.177-1.185.425-1.858a16.51 16.51 0 0 1 1.01-2.176c.425-.778.85-1.486 1.275-2.123-.142-2.123-.514-4.316-1.116-6.581-.602-2.265-.921-4.476-.957-6.634a11.947 11.947 0 0 1 1.542-6.104c1.063-1.91 3.188-3.61 6.377-5.095-.921-1.557-1.134-2.742-.638-3.556.497-.814 1.435-1.416 2.817-1.805 1.382-.389 3.03-.619 4.943-.69 1.913-.07 3.791-.177 5.634-.318l12.224 3.715zm-9.567 4.777c-1.63 0-2.94.159-3.933.477-.992.319-1.63.867-1.913 1.646l-3.72 3.715-5.315 3.715 1.594 5.839c1.984.283 4.022.583 6.112.902 2.09.318 4.092.424 6.006.318 1.913-.106 3.702-.548 5.368-1.327 1.665-.778 3.1-2.158 4.305-4.14-1.205-.495-2.038-1.167-2.498-2.016a6.078 6.078 0 0 1-.744-2.707c-.036-.955.07-1.946.318-2.972a49.1 49.1 0 0 1 .798-2.92c-1.347 0-2.551-.088-3.614-.265-1.063-.177-1.985-.265-2.764-.265z"/>
        </g>
    </g>
</svg>
