<?xml version="1.0" encoding="utf-8"?>
<!-- Generator: Adobe Illustrator 16.0.4, SVG Export Plug-In . SVG Version: 6.00 Build 0)  -->
<!DOCTYPE svg PUBLIC "-//W3C//DTD SVG 1.1//EN" "http://www.w3.org/Graphics/SVG/1.1/DTD/svg11.dtd">
<svg version="1.1" id="Layer_1" xmlns="http://www.w3.org/2000/svg" xmlns:xlink="http://www.w3.org/1999/xlink" x="0px" y="0px"
	 width="587.666px" height="567.649px" viewBox="106.167 116.175 587.666 567.649"
	 enable-background="new 106.167 116.175 587.666 567.649" xml:space="preserve">
<g>
	<title>background</title>
	<rect id="canvas_background" x="-1" y="-1" fill="none" width="802" height="802"/>
</g>
<g>
	<title>Layer 1</title>
	<g id="_x31_20-slate">
	</g>
	<g id="_x34_80-wordmark-white">
	</g>
	<g id="_x34_80-wordmark-blue">
	</g>
	<g id="_x34_80-wordmark-slate">
	</g>
	<g id="_x35_2-slate">
	</g>
	<g id="_x31_20-blue">
	</g>
	<g id="_x31_20-white">
	</g>
	<g id="_x32_40-white">
	</g>
	<g id="_x32_40-blue">
	</g>
	<g id="_x32_40-slate">
	</g>
	<g id="_x34_80-slate">
	</g>
	<g id="_x34_80-blue">
	</g>
	<g id="_x34_80-white">
	</g>
	<g id="_x32_50-vert-white">
	</g>
	<g id="_x32_50-vert-slate">
	</g>
	<g id="_x32_50-vert-blue">
	</g>
	<g id="_x35_00-vert-slate">
	</g>
	<g id="_x35_00-vert-blue">
	</g>
	<g id="_x35_00-vert-white">
	</g>
	<g id="vert_2_">
		<g id="svg_1">
			<path id="svg_2" fill="#02B3E4" d="M333.909,116.175l-130.742,75.603V365l0,0c0.002,79.557,64.28,144.051,143.838,144.051
				c26.306,0,50.965-7.053,72.19-19.367v0.001l106.253-61.345c41.829-21.866,69.719-65.667,69.719-116.136V131l-25.532-14.825
				l-104.468,60.501v188.32c0,8.014-1.105,16.015-2.694,23.781c-1.546,7.555-3.853,14.987-6.856,22.088
				c-0.777,1.838-1.605,3.658-2.479,5.458c-3.169-0.352-6.313-0.845-9.416-1.479c-6.715-1.374-13.318-3.424-19.63-6.094
				c-6.202-2.623-12.187-5.872-17.786-9.655c-5.553-3.752-10.775-8.061-15.523-12.809s-9.058-9.971-12.81-15.524
				c-3.782-5.6-7.03-11.584-9.654-17.786c-2.669-6.311-4.721-12.916-6.095-19.63c-1.413-6.904-2.129-14.017-2.129-21.142h0.005
				V131.302L333.909,116.175L333.909,116.175z M392.875,473.608c-7.101,3.004-14.533,5.311-22.088,6.857
				c-7.766,1.589-15.768,2.395-23.781,2.395s-16.015-0.806-23.781-2.395c-7.555-1.546-14.986-3.854-22.088-6.857
				c-6.978-2.952-13.711-6.605-20.01-10.862c-6.247-4.22-12.122-9.067-17.462-14.407c-5.34-5.341-10.187-11.216-14.408-17.462
				c-4.256-6.301-7.911-13.032-10.862-20.011c-3.004-7.101-5.311-14.532-6.857-22.088c-1.589-7.766-2.395-15.767-2.395-23.781
				V206.894l105.024-60.482v165.792c0,62.995,44.216,115.602,103.481,128.128c-2.312,2.778-4.75,5.453-7.302,8.006
				c-5.34,5.34-11.215,10.187-17.462,14.407C406.586,467.002,399.853,470.656,392.875,473.608L392.875,473.608z M567.506,333.347
				c-1.374,6.715-3.424,13.319-6.094,19.63c-2.623,6.202-5.872,12.187-9.655,17.786c-3.752,5.553-8.061,10.776-12.809,15.524
				c-4.747,4.748-9.972,9.057-15.524,12.809c-5.6,3.783-11.584,7.031-17.786,9.654c-6.311,2.67-12.916,4.721-19.63,6.095
				c-1.354,0.276-2.717,0.525-4.085,0.75c5.903-15.732,9.133-32.77,9.137-50.562l0,0v-173.25h0.002l79.105-45.364v165.786
				C570.167,319.33,568.919,326.443,567.506,333.347L567.506,333.347z"/>
		</g>
		<g id="svg_3">
			<path id="svg_4" fill="#FFFFFF" d="M157.167,656.249c0,11.764-9.083,21.354-22.345,21.354c-13.262,0-22.655-9.591-22.655-21.354
				V613h-6v43.349c0,15.163,10.459,27.476,28.655,27.476c18.196,0,28.345-12.312,28.345-27.476V613h-6V656.249z"/>
			<path id="svg_5" fill="#FFFFFF" d="M233.105,614h-21.938v69h21.938c20.511,0,34.313-12.783,34.313-34.558
				C267.418,626.865,253.617,614,233.105,614L233.105,614z M232.425,676h-14.258v-56h14.258c16.718,0,27.994,10.269,27.994,28.442
				C260.419,666.719,249.241,676,232.425,676L232.425,676z"/>
			<path id="svg_6" fill="#FFFFFF" d="M429.679,677.604c-16.231,0-27.702-13.315-27.702-29.648
				c0-16.133,11.471-28.576,27.509-28.576c12.832,0,20.801,7.581,20.801,7.581l3.597-4.955c0,0-8.262-8.848-24.592-8.848
				c-19.538,0-34.313,15.067-34.313,34.896c0,19.926,14.388,35.77,34.606,35.77c16.816,0,26.146-10.593,26.146-10.593l-3.889-4.764
				C451.841,668.469,443.483,677.604,429.679,677.604L429.679,677.604z"/>
			<rect id="svg_7" x="500.202" y="614" fill="#FFFFFF" width="6.965" height="69"/>
			<polygon id="svg_8" fill="#FFFFFF" points="548.167,620 573.167,620 573.167,683 580.167,683 580.167,620 605.167,620 
				605.167,614 548.167,614 			"/>
			<polygon id="svg_9" fill="#FFFFFF" points="686.251,614 664.233,647.278 664.039,647.278 642.023,614 634.343,614 
				660.167,653.306 660.167,683 667.167,683 667.167,653.306 693.833,614 			"/>
			<path id="svg_10" fill="#FFFFFF" d="M327.168,614l-27.851,69h7.366l7.373-18.431l30.998-6.356L355.019,683h7.366l-27.851-69
				H327.168L327.168,614z M330.756,623.597h0.191l11.488,28.188l-25.28,5.186L330.756,623.597L330.756,623.597z"/>
		</g>
	</g>
	<g id="_x31_000-vert-blue">
	</g>
	<g id="_x31_000-vert-white_1_">
	</g>
	<g id="_x38_0-mark-white">
	</g>
	<g id="_x38_0-mark-blue">
	</g>
	<g id="_x38_0-mark-slate">
	</g>
	<g id="_x31_60-mark-blue">
	</g>
	<g id="_x31_60-mark-white">
	</g>
	<g id="_x31_60-mark-slate">
	</g>
	<g id="_x33_20-mark-blue">
	</g>
	<g id="_x33_20-mark-white">
	</g>
	<g id="_x31_280-mark-slate_1_">
	</g>
	<g id="_x31_280-mark-white_1_">
	</g>
	<g id="_x31_280-mark-blue">
	</g>
	<g id="_x33_20-mark-slate">
	</g>
</g>
</svg>
