<?xml version="1.0" encoding="UTF-8" standalone="no"?>
<svg width="2761px" height="805px" viewBox="0 0 2761 805" version="1.1" xmlns="http://www.w3.org/2000/svg" xmlns:xlink="http://www.w3.org/1999/xlink">
    <!-- Generator: Sketch 39.1 (31720) - http://www.bohemiancoding.com/sketch -->
    <title>pt-sec-color</title>
    <desc>Created with Sketch.</desc>
    <defs></defs>
    <g id="Page-1" stroke="none" stroke-width="1" fill="none" fill-rule="evenodd">
        <g id="pt-sec-color" transform="translate(-177.000000, -258.000000)">
            <g transform="translate(177.000000, 258.000000)">
                <path d="M1099.938,691.89 C1099.938,699.162 1103.776,703 1111.048,703 L1182.152,703 C1189.424,703 1193.262,699.162 1193.262,691.89 L1193.262,683.81 C1193.262,676.538 1189.424,672.7 1182.152,672.7 L1135.288,672.7 L1135.288,645.43 L1168.214,645.43 C1175.486,645.43 1179.324,641.592 1179.324,634.32 L1179.324,626.24 C1179.324,618.968 1175.486,615.13 1168.214,615.13 L1135.288,615.13 L1135.288,588.87 L1179.324,588.87 C1186.596,588.87 1190.434,585.032 1190.434,577.76 L1190.434,569.68 C1190.434,562.408 1186.596,558.57 1179.324,558.57 L1111.048,558.57 C1103.776,558.57 1099.938,562.408 1099.938,569.68 L1099.938,691.89 Z M1288.058,691.89 C1288.058,699.162 1291.896,703 1299.168,703 L1339.366,703 C1384.816,703 1413.904,675.932 1413.904,630.482 C1413.904,585.032 1384.816,558.57 1339.366,558.57 L1299.168,558.57 C1291.896,558.57 1288.058,562.408 1288.058,569.68 L1288.058,691.89 Z M1323.408,672.7 L1323.408,588.87 L1337.952,588.87 C1361.788,588.87 1377.342,603.01 1377.342,630.482 C1377.342,658.156 1362.394,672.7 1337.952,672.7 L1323.408,672.7 Z M1508.296,649.874 C1508.296,682.396 1532.132,705.424 1568.896,705.424 C1605.256,705.424 1629.092,682.396 1629.092,649.874 L1629.092,569.68 C1629.092,562.408 1625.254,558.57 1617.982,558.57 L1604.852,558.57 C1597.58,558.57 1593.742,562.408 1593.742,569.68 L1593.742,649.874 C1593.742,665.024 1583.844,673.104 1568.694,673.104 C1553.544,673.104 1543.646,665.024 1543.646,649.874 L1543.646,569.68 C1543.646,562.408 1539.808,558.57 1532.536,558.57 L1519.406,558.57 C1512.134,558.57 1508.296,562.408 1508.296,569.68 L1508.296,649.874 Z M1723.08,630.482 C1723.08,673.306 1752.37,705.424 1798.83,705.424 C1823.272,705.424 1840.24,695.324 1849.33,688.254 C1854.784,684.012 1854.986,678.356 1851.148,672.7 L1845.492,664.822 C1841.25,658.762 1835.998,658.56 1829.938,662.802 C1823.07,667.65 1812.566,673.104 1800.446,673.104 C1772.57,673.104 1759.642,651.086 1759.642,629.674 C1759.642,608.868 1771.56,588.466 1800.446,588.466 C1811.152,588.466 1820.646,592.708 1827.312,596.546 C1833.574,600.384 1838.624,599.778 1842.462,593.516 L1847.512,585.234 C1851.148,579.376 1850.744,573.922 1845.088,569.882 C1836.604,564.024 1821.05,556.146 1798.83,556.146 C1754.188,556.146 1723.08,588.466 1723.08,630.482 L1723.08,630.482 Z M1935.44,690.274 C1932.814,697.95 1936.45,703 1944.53,703 L1957.862,703 C1964.326,703 1968.366,699.97 1970.184,693.708 L1976.244,672.7 L2021.29,672.7 L2027.35,693.708 C2029.37,699.97 2033.41,703 2039.874,703 L2053.206,703 C2061.286,703 2064.922,697.95 2062.296,690.274 L2020.482,567.66 C2018.462,561.398 2014.422,558.57 2007.958,558.57 L1989.778,558.57 C1983.314,558.57 1979.274,561.398 1977.254,567.66 L1935.44,690.274 Z M1984.526,644.42 L1992.808,616.342 C1995.434,607.252 1998.666,591.496 1998.666,591.496 L1999.07,591.496 C1999.07,591.496 2002.302,607.252 2004.928,616.342 L2013.008,644.42 L1984.526,644.42 Z M2206.178,711.888 C2204.764,716.332 2205.572,718.958 2209.006,719.16 C2213.854,719.564 2217.288,720.574 2217.288,724.008 C2217.288,727.038 2215.268,728.856 2211.834,728.856 C2210.42,728.856 2208.804,728.452 2206.784,728.452 C2204.562,728.452 2201.936,731.078 2201.936,737.138 C2201.936,744.41 2209.41,745.42 2214.864,745.42 C2226.378,745.42 2238.498,740.976 2238.498,726.432 C2238.498,715.726 2231.428,711.08 2223.348,710.272 L2224.358,705.222 C2246.174,704.01 2261.526,694.92 2270.01,688.254 C2275.464,684.012 2275.666,678.356 2271.828,672.7 L2266.172,664.822 C2261.93,658.762 2256.678,658.56 2250.618,662.802 C2243.75,667.65 2233.246,673.104 2221.126,673.104 C2193.25,673.104 2180.322,651.086 2180.322,629.674 C2180.322,608.868 2192.24,588.466 2221.126,588.466 C2231.832,588.466 2241.326,592.708 2247.992,596.546 C2254.254,600.384 2259.304,599.778 2263.142,593.516 L2268.192,585.234 C2271.828,579.376 2271.424,573.922 2265.768,569.882 C2257.284,564.024 2241.73,556.146 2219.51,556.146 C2174.868,556.146 2143.76,588.466 2143.76,630.482 C2143.76,669.872 2168.404,700.172 2208.4,704.818 L2206.178,711.888 Z M2356.322,690.274 C2353.696,697.95 2357.332,703 2365.412,703 L2378.744,703 C2385.208,703 2389.248,699.97 2391.066,693.708 L2397.126,672.7 L2442.172,672.7 L2448.232,693.708 C2450.252,699.97 2454.292,703 2460.756,703 L2474.088,703 C2482.168,703 2485.804,697.95 2483.178,690.274 L2441.364,567.66 C2439.344,561.398 2435.304,558.57 2428.84,558.57 L2410.66,558.57 C2404.196,558.57 2400.156,561.398 2398.136,567.66 L2356.322,690.274 Z M2405.408,644.42 L2413.69,616.342 C2416.316,607.252 2419.548,591.496 2419.548,591.496 L2419.952,591.496 C2419.952,591.496 2423.184,607.252 2425.81,616.342 L2433.89,644.42 L2405.408,644.42 Z M2389.854,549.278 L2392.278,549.278 C2397.126,549.278 2400.358,547.46 2400.964,544.228 C2401.57,540.592 2404.196,537.764 2408.236,537.764 C2416.114,537.764 2420.962,549.884 2437.122,549.884 C2450.454,549.884 2459.544,540.592 2459.544,527.664 C2459.544,521.604 2456.312,518.978 2449.848,518.978 L2447.424,518.978 C2441.97,518.978 2438.536,521.2 2438.132,524.432 C2437.526,528.674 2435.304,530.492 2431.466,530.492 C2423.588,530.492 2418.74,518.372 2402.782,518.372 C2389.45,518.372 2380.158,528.674 2380.158,539.986 C2380.158,546.248 2383.794,549.278 2389.854,549.278 L2389.854,549.278 Z M2567.268,629.876 C2567.268,672.296 2597.972,705.424 2642.816,705.424 C2687.66,705.424 2718.364,672.296 2718.364,629.876 C2718.364,588.466 2687.66,556.146 2642.816,556.146 C2597.972,556.146 2567.268,588.466 2567.268,629.876 L2567.268,629.876 Z M2603.83,629.876 C2603.83,606.242 2619.99,588.466 2642.816,588.466 C2665.642,588.466 2681.802,606.242 2681.802,629.876 C2681.802,654.52 2665.642,673.104 2642.816,673.104 C2619.99,673.104 2603.83,654.52 2603.83,629.876 L2603.83,629.876 Z" id="EDUCAÇÃO" fill="#18ACC4"></path>
                <g id="QUERO" transform="translate(1054.000000, 95.000000)" fill="#FC9F00">
                    <g id="Group" transform="translate(0.289199, 0.612906)">
                        <path d="M409.449558,38.81956 C409.449558,17.0427337 421.313014,5.9965174 442.795489,5.9965174 L484.477903,5.9965174 C505.960378,5.9965174 517.823834,17.0427337 517.823834,38.81956 L517.823834,233.548572 C517.823834,263.846765 538.023773,278.680256 568.163365,278.680256 C598.944224,278.680256 619.144163,264.162372 619.144163,234.179785 L619.144163,38.81956 C619.144163,17.0427337 630.366352,5.9965174 652.490095,5.9965174 L693.531241,5.9965174 C715.654983,5.9965174 726.877172,17.0427337 726.877172,38.81956 L726.877172,233.548572 C726.877172,315.921785 664.674185,375.571353 568.483999,375.571353 C471.331911,375.571353 409.128924,315.921785 409.128924,233.548572 L409.128924,38.81956 L409.449558,38.81956 Z" id="Shape"></path>
                        <path d="M754.772326,38.81956 C754.772326,17.0427337 766.635782,5.9965174 788.759525,5.9965174 L960.939957,5.9965174 C982.422432,5.9965174 994.285888,17.0427337 994.285888,38.81956 L994.285888,64.0680543 C994.285888,85.2136683 982.422432,96.8910969 960.939957,96.8910969 L863.146602,96.8910969 L863.146602,140.760356 L933.044803,140.760356 C955.168546,140.760356 967.032002,152.437784 967.032002,173.583398 L967.032002,198.831893 C967.032002,220.608719 955.168546,231.654935 933.044803,231.654935 L863.146602,231.654935 L863.146602,278.049044 L967.032002,278.049044 C989.155745,278.049044 1001.0192,289.726472 1001.0192,310.872086 L1001.0192,336.12058 C1001.0192,357.266194 989.155745,368.943623 967.032002,368.943623 L788.759525,368.943623 C766.635782,368.943623 754.772326,357.266194 754.772326,336.12058 L754.772326,38.81956 L754.772326,38.81956 Z" id="Shape"></path>
                        <path d="M1019.29534,38.81956 C1019.29534,17.0427337 1031.15879,5.9965174 1053.28254,5.9965174 L1153.64096,5.9965174 C1187.62816,5.9965174 1210.71381,7.89015447 1227.06614,13.5710657 C1268.74855,27.1421314 1299.52941,69.1177532 1299.52941,122.770804 C1299.52941,159.696726 1284.13898,202.619167 1248.22798,224.395993 L1248.22798,225.342812 C1248.22798,225.342812 1256.56446,234.495391 1264.58031,248.697669 L1310.7516,329.492851 C1325.18013,354.741345 1312.35477,369.574835 1287.66596,369.574835 L1239.8915,369.574835 C1223.8598,369.574835 1209.43127,363.578318 1200.45352,346.219978 L1153.64096,257.219036 L1127.99025,257.219036 L1127.99025,336.751793 C1127.99025,357.897407 1116.76806,369.574835 1094.64432,369.574835 L1053.60317,369.574835 C1031.47943,369.574835 1019.61597,357.897407 1019.61597,336.751793 L1019.61597,38.81956 L1019.29534,38.81956 L1019.29534,38.81956 Z M1150.75526,166.324456 C1176.40597,166.324456 1189.23133,155.27824 1189.23133,127.820502 C1189.23133,118.352317 1187.62816,106.990495 1172.879,100.993977 C1164.54252,97.5223092 1155.8854,96.8910969 1144.02194,96.8910969 L1127.66961,96.8910969 L1127.66961,166.324456 L1150.75526,166.324456 L1150.75526,166.324456 L1150.75526,166.324456 Z" id="Shape"></path>
                        <path d="M1510.50655,0 C1627.53795,0 1705.77263,81.4263941 1705.77263,185.576433 C1705.77263,292.251322 1627.53795,375.886959 1510.50655,375.886959 C1393.47516,375.886959 1315.88174,292.566928 1315.88174,185.576433 C1315.56111,81.4263941 1393.15453,0 1510.50655,0 L1510.50655,0 L1510.50655,0 Z M1510.50655,278.680256 C1559.88418,278.680256 1593.87138,238.598271 1593.87138,185.576433 C1593.87138,135.079445 1559.88418,97.2067031 1510.50655,97.2067031 C1461.77019,97.2067031 1427.78299,135.079445 1427.78299,185.576433 C1427.78299,238.913877 1461.44956,278.680256 1510.50655,278.680256 L1510.50655,278.680256 L1510.50655,278.680256 Z" id="Shape"></path>
                        <path d="M389.890887,185.576433 C389.890887,81.4263941 311.656202,0 194.62481,0 C77.5934166,0 -1.74694037e-11,81.4263941 -1.74694037e-11,185.576433 C-1.74694037e-11,292.251322 77.5934166,375.886959 194.62481,375.886959 C229.253276,375.886959 260.35477,368.628017 287.288022,355.688163 L290.173728,358.528619 C307.487961,375.571353 336.024383,375.571353 353.338616,358.528619 L353.65925,358.213013 C370.332216,341.801492 370.973484,315.290573 355.583054,297.932233 C377.386163,266.687221 389.890887,227.867661 389.890887,185.576433 L389.890887,185.576433 L389.890887,185.576433 Z M111.580616,185.576433 C111.580616,135.079445 145.567815,97.2067031 194.304176,97.2067031 C243.681804,97.2067031 277.669003,135.079445 277.669003,185.576433 C277.669003,196.622649 276.065834,207.353259 273.180128,216.821445 C255.545261,200.72553 228.291375,201.041136 210.977141,217.768263 L210.656507,218.08387 C194.304176,234.179785 193.342274,260.059491 207.770802,277.102225 C203.281926,277.733437 198.793051,278.36465 193.983542,278.36465 C145.567815,278.680256 111.580616,238.913877 111.580616,185.576433 L111.580616,185.576433 L111.580616,185.576433 Z" id="Shape"></path>
                    </g>
                </g>
                <g id="icon">
                    <g id="Group-2" fill="#18ACC4">
                        <path d="M596.605875,483.761316 C608.867044,594.720688 651.739417,694.596035 715.10505,771.670642 L715.105018,771.670603 C666.080341,793.107223 611.929024,805 555,805 C334.0861,805 155,625.9139 155,405 C155,332.803881 174.126852,265.075078 207.589723,206.604423 C129.735629,236.445462 59.4806427,281.632939 0.527231588,338.464383 C86.3744674,139.367762 284.411691,0 515,0 C559.683621,0 603.144914,5.2334065 644.804379,15.1207145 C675.038634,22.0563888 703.965495,32.4185011 731.154412,45.7765016 C691.005681,89.8845969 657.987092,142.611095 634.308355,201.397121 C652.790035,207.96466 670.865437,215.389631 688.486713,223.624179 L688.486699,223.624173 C650.184119,298.243669 628.143219,382.584592 627.043236,471.96769 C616.756002,475.610115 606.606892,479.544647 596.605875,483.761316 L596.605875,483.761316 Z" id="Combined-Shape"></path>
                    </g>
                    <path d="M951.370237,456.972452 C888.468925,355.901006 797.105217,274.382385 688.486698,223.624173 C715.380173,171.231421 750.290486,123.631231 791.597944,82.4432979 C890.686164,155.24793 955,272.613315 955,405 C955,422.743631 953.844684,440.217424 951.605173,457.350258 L951.605173,457.350258 C951.526905,457.224292 951.448593,457.098357 951.370237,456.972452 C951.461952,456.995582 951.553659,457.018734 951.645357,457.041908 C933.065847,600.044544 838.959585,719.334459 710.653271,773.584955 L710.653271,773.584955 C657.61796,688.008251 627,587.079729 627,479 C627,476.652494 627.014444,474.308361 627.043236,471.96769 C685.510595,451.266018 748.439638,440 814,440 C861.395818,440 907.416419,445.888 951.370237,456.972452 L951.370237,456.972452 Z" id="Combined-Shape" fill="#FC9F00"></path>
                    <path d="M626.477835,472.168227 C496.405549,518.381298 388.466413,611.310912 322.843768,730.773729 C388.303004,777.505648 468.440677,805 555,805 C610.211249,805 662.809891,793.8141 710.653271,773.584955 L710.653271,773.584955 C657.61796,688.008251 627,587.079729 627,479 C627,477.220538 627.0083,475.443015 627.024857,473.667469 C628.450382,320.850399 691.086232,182.664176 791.597944,82.4432979 L791.597944,82.4432979 C752.055876,53.3899383 706.976048,31.4328008 658.235676,18.4491024 C616.594383,96.7569855 593,186.123111 593,281 C593,348.137378 604.814532,412.515325 626.477944,472.168188 L626.477835,472.168227 Z" id="Combined-Shape" fill="#003D52"></path>
                    <path d="M688.486713,223.624179 C797.105213,274.382386 888.468907,355.900993 951.370216,456.972419 C907.416415,445.887999 861.395816,440 814,440 C748.439638,440 685.510595,451.266018 627.043236,471.96769 C628.143219,382.584592 650.184119,298.243669 688.486699,223.624173 L688.486713,223.624179 Z" id="Combined-Shape" fill="#FFFFFF"></path>
                </g>
            </g>
        </g>
    </g>
</svg>