<?xml version="1.0" encoding="iso-8859-1"?>
<!-- Generator: Adobe Illustrator 16.0.0, SVG Export Plug-In . SVG Version: 6.00 Build 0)  -->
<!DOCTYPE svg PUBLIC "-//W3C//DTD SVG 1.1//EN" "http://www.w3.org/Graphics/SVG/1.1/DTD/svg11.dtd">
<svg version="1.1" id="Layer_1" xmlns="http://www.w3.org/2000/svg" xmlns:xlink="http://www.w3.org/1999/xlink" x="0px" y="0px"
	 width="201.719px" height="203.076px" viewBox="50.703 47.405 201.719 203.076"
	 style="enable-background:new 50.703 47.405 201.719 203.076;" xml:space="preserve">
<g>
	<path style="fill:#FFFFFF;" d="M199.491,206.327c-3.539-0.269-5.959-1.085-7.175-2.36c-0.836-0.878-1.738-2.898-1.738-7.546V73.253
		c0-1.074,0.296-1.215-0.779-1.215h-45.005c-1.073,0-2.365,0.141-2.365,1.215v60.309c-4.012-4.342-7.416-7.901-12.433-10.617
		c-6.972-3.771-14.629-5.684-22.966-5.684c-8.307,0-15.957,1.7-22.831,5.053c-6.85,3.343-12.817,8.057-17.784,14.001
		c-4.949,5.923-8.839,13.027-11.587,21.108c-2.74,8.06-4.125,16.875-4.125,26.209c0,9.671,1.518,18.7,4.505,26.845
		c2.991,8.17,7.229,15.316,12.585,21.242c5.373,5.941,11.851,10.606,19.255,13.86c7.401,3.253,15.596,4.899,24.351,4.899
		c8.459,0,16.551-1.815,24.053-5.401c6.204-2.966,11.413-7.41,15.534-13.24c2.631,12.369,12.182,18.644,28.393,18.644
		c2.725,0,5.903-0.203,9.459-0.606c3.495-0.397,6.246-1.001,10.842-1.792c0.93-0.159,0.262-0.969,0.262-1.916V208.27
		C199.939,207.251,200.508,206.407,199.491,206.327z"/>
	<ellipse style="fill:#50C6E4;" cx="228.854" cy="70.685" rx="23.568" ry="23.28"/>
</g>
</svg>
