<?xml version="1.0" encoding="utf-8"?>
<!-- Generator: Adobe Illustrator 16.0.0, SVG Export Plug-In . SVG Version: 6.00 Build 0)  -->
<!DOCTYPE svg PUBLIC "-//W3C//DTD SVG 1.1//EN" "http://www.w3.org/Graphics/SVG/1.1/DTD/svg11.dtd">
<svg version="1.1" id="Layer_1" xmlns="http://www.w3.org/2000/svg" xmlns:xlink="http://www.w3.org/1999/xlink" x="0px" y="0px"
	 width="138.301px" height="50px" viewBox="489.091 536.541 138.301 50" enable-background="new 489.091 536.541 138.301 50"
	 xml:space="preserve">
<g>
	<g>
		<g opacity="0.3">
			<polygon fill="#686868" points="512.587,576.637 508.499,569.566 498.677,586.541 507.089,586.541 512.702,576.833 			"/>
			<polygon fill="#686868" points="504.075,561.914 508.499,569.566 498.677,586.541 489.827,586.541 			"/>
			<g>
				<g>
					<defs>
						<polygon id="SVGID_1_" points="512.702,576.833 512.702,576.833 508.499,569.566 507.466,571.344 						"/>
					</defs>
					<clipPath id="SVGID_2_">
						<use xlink:href="#SVGID_1_"  overflow="visible"/>
					</clipPath>
					<defs>
						<filter id="Adobe_OpacityMaskFilter" filterUnits="userSpaceOnUse" x="507.466" y="569.566" width="5.236" height="7.267">
							<feColorMatrix  type="matrix" values="1 0 0 0 0  0 1 0 0 0  0 0 1 0 0  0 0 0 1 0"/>
						</filter>
					</defs>
					<mask maskUnits="userSpaceOnUse" x="507.466" y="569.566" width="5.236" height="7.267" id="SVGID_10_">
						<g filter="url(#Adobe_OpacityMaskFilter)">
							<g>
								<defs>
									<polygon id="SVGID_3_" points="512.702,576.833 512.702,576.833 508.499,569.566 507.466,571.344 									"/>
								</defs>
								<clipPath id="SVGID_4_" clip-path="url(#SVGID_2_)">
									<use xlink:href="#SVGID_3_"  overflow="visible"/>
								</clipPath>
								
									<radialGradient id="SVGID_5_" cx="-2354.04" cy="430.8955" r="0.368" gradientTransform="matrix(44.2635 0 0 -44.2635 104710.6875 19649.6348)" gradientUnits="userSpaceOnUse">
									<stop  offset="0" style="stop-color:#333333"/>
									<stop  offset="1" style="stop-color:#050505"/>
								</radialGradient>
								<rect x="507.466" y="569.566" clip-path="url(#SVGID_4_)" fill="url(#SVGID_5_)" width="5.236" height="7.267"/>
							</g>
						</g>
					</mask>
					
						<radialGradient id="SVGID_6_" cx="-2354.0396" cy="430.8945" r="0.3686" gradientTransform="matrix(44.2635 0 0 -44.2635 104710.6562 19649.6035)" gradientUnits="userSpaceOnUse">
						<stop  offset="0" style="stop-color:#BF360C"/>
						<stop  offset="1" style="stop-color:#BF360C"/>
					</radialGradient>
					
						<rect x="507.466" y="569.566" clip-path="url(#SVGID_2_)" mask="url(#SVGID_10_)" fill="url(#SVGID_6_)" width="5.236" height="7.267"/>
				</g>
			</g>
			<polygon fill="#686868" points="498.677,537.278 489.827,537.278 512.702,576.833 517.126,569.189 517.126,569.181 			"/>
			<path fill="#686868" d="M519.993,564.225c0.828-1.434,0.828-3.195,0-4.621l-12.904-22.317h-8.412l18.449,31.894L519.993,564.225z
				"/>
			<g opacity="0.2" enable-background="new    ">
				<g>
					<g>
						<defs>
							<rect id="SVGID_7_" x="489.827" y="537.278" width="30.781" height="24.824"/>
						</defs>
						<clipPath id="SVGID_8_">
							<use xlink:href="#SVGID_7_"  overflow="visible"/>
						</clipPath>
						<path clip-path="url(#SVGID_8_)" fill="#FFFFFF" d="M507.089,537.664l12.904,22.325c0.385,0.655,0.574,1.384,0.605,2.114
							c0.033-0.86-0.162-1.729-0.605-2.499l-12.904-22.317h-17.262l0.223,0.377H507.089z"/>
					</g>
				</g>
			</g>
		</g>
		<g opacity="0.3">
			<g>
				<g>
					<g>
						<defs>
							<rect id="SVGID_9_" x="534.872" y="537.631" width="92.52" height="32.574"/>
						</defs>
						<clipPath id="SVGID_11_">
							<use xlink:href="#SVGID_9_"  overflow="visible"/>
						</clipPath>
						<path clip-path="url(#SVGID_11_)" fill="#686868" d="M569.411,538.417h9.193c9.355,0,15.238,6.21,15.238,14.927
							c0,8.758-5.883,14.927-15.238,14.927h-9.193V538.417z M578.769,563.749c6.512,0,10.551-3.613,10.551-10.405
							c0-6.75-4.039-10.405-10.551-10.405h-4.834v20.81H578.769z"/>
					</g>
					<g>
						<defs>
							<rect id="SVGID_12_" x="534.872" y="537.631" width="92.52" height="32.574"/>
						</defs>
						<clipPath id="SVGID_13_">
							<use xlink:href="#SVGID_12_"  overflow="visible"/>
						</clipPath>
						<path clip-path="url(#SVGID_13_)" fill="#686868" d="M565.636,551.984h-14.314v4.44h10.094
							c-0.336,2.261-1.121,4.022-2.293,5.203c-1.492,1.491-3.834,3.138-7.932,3.138c-6.324,0-11.273-5.097-11.273-11.421
							s4.949-11.42,11.273-11.42c3.408,0,5.898,1.344,7.734,3.072l3.031-3.031c-2.564-2.45-5.98-4.334-10.766-4.334
							c-8.658,0-15.941,7.054-15.941,15.713s7.283,15.714,15.941,15.714c4.67,0,8.201-1.533,10.963-4.408
							c2.834-2.835,3.719-6.816,3.719-10.036C565.872,553.615,565.79,552.754,565.636,551.984"/>
					</g>
					<g>
						<defs>
							<rect id="SVGID_14_" x="534.872" y="537.631" width="92.52" height="32.574"/>
						</defs>
						<clipPath id="SVGID_15_">
							<use xlink:href="#SVGID_14_"  overflow="visible"/>
						</clipPath>
						<path clip-path="url(#SVGID_15_)" fill="#686868" d="M627.161,551.984h-14.32v4.44h10.094
							c-0.328,2.261-1.115,4.022-2.285,5.203c-1.5,1.491-3.834,3.138-7.932,3.138c-6.324,0-11.273-5.097-11.273-11.421
							s4.949-11.42,11.273-11.42c3.408,0,5.898,1.344,7.734,3.072l3.031-3.031c-2.572-2.45-5.98-4.334-10.766-4.334
							c-8.668,0-15.943,7.054-15.943,15.713s7.275,15.714,15.943,15.714c4.67,0,8.193-1.533,10.953-4.408
							c2.844-2.835,3.721-6.816,3.721-10.036C627.392,553.615,627.317,552.754,627.161,551.984"/>
					</g>
				</g>
			</g>
			<g>
				<path fill="#686868" d="M538.86,584.837l0.059,0.214l0.057-0.214l3.088-8.594h0.902l-3.646,9.807h-0.795l-3.652-9.807h0.9
					L538.86,584.837z"/>
				<path fill="#686868" d="M548.513,586.05c-0.082-0.222-0.131-0.565-0.156-1.017c-0.279,0.369-0.639,0.656-1.082,0.853
					c-0.434,0.205-0.9,0.304-1.393,0.304c-0.695,0-1.262-0.197-1.695-0.59c-0.434-0.386-0.646-0.885-0.646-1.483
					c0-0.704,0.295-1.271,0.885-1.68c0.59-0.417,1.408-0.622,2.465-0.622h1.467v-0.828c0-0.523-0.164-0.934-0.484-1.229
					c-0.318-0.303-0.793-0.451-1.408-0.451c-0.557,0-1.023,0.148-1.393,0.435s-0.549,0.631-0.549,1.032h-0.811
					c0-0.582,0.27-1.082,0.811-1.508s1.195-0.639,1.982-0.639c0.818,0,1.459,0.205,1.926,0.615c0.467,0.4,0.713,0.966,0.721,1.695
					v3.449c0,0.713,0.074,1.236,0.221,1.59v0.073H548.513L548.513,586.05z M545.981,585.477c0.539,0,1.023-0.131,1.441-0.394
					c0.426-0.263,0.736-0.606,0.934-1.049v-1.598h-1.441c-0.803,0.009-1.434,0.155-1.893,0.442c-0.451,0.287-0.68,0.672-0.68,1.172
					c0,0.41,0.154,0.754,0.459,1.016C545.104,585.346,545.497,585.477,545.981,585.477z"/>
				<path fill="#686868" d="M552.206,586.05h-0.811v-10.348h0.811V586.05z"/>
				<path fill="#686868" d="M557.222,586.189c-0.623,0-1.18-0.156-1.68-0.459c-0.5-0.304-0.895-0.729-1.172-1.278
					c-0.279-0.549-0.418-1.155-0.418-1.835v-0.287c0-0.705,0.139-1.336,0.41-1.893c0.27-0.564,0.646-1.008,1.139-1.327
					c0.482-0.319,1.008-0.483,1.572-0.483c0.885,0,1.59,0.303,2.105,0.91c0.516,0.598,0.779,1.425,0.779,2.474v0.45h-5.203v0.156
					c0,0.827,0.238,1.516,0.713,2.064s1.064,0.827,1.785,0.827c0.436,0,0.812-0.082,1.148-0.237c0.326-0.156,0.621-0.41,0.9-0.754
					l0.5,0.385C559.204,585.763,558.351,586.189,557.222,586.189z M557.073,579.315c-0.605,0-1.123,0.222-1.539,0.663
					c-0.41,0.451-0.664,1.049-0.754,1.795h4.375v-0.082c-0.025-0.705-0.223-1.278-0.607-1.713
					C558.171,579.537,557.681,579.315,557.073,579.315z"/>
				<path fill="#686868" d="M564.562,582.338c0-1.131,0.246-2.031,0.754-2.703s1.188-1.008,2.057-1.008
					c0.99,0,1.736,0.394,2.252,1.172v-4.097h0.803v10.355h-0.754l-0.031-0.975c-0.525,0.737-1.279,1.106-2.277,1.106
					c-0.844,0-1.525-0.336-2.033-1.017c-0.516-0.672-0.77-1.589-0.77-2.736V582.338L564.562,582.338z M565.372,582.486
					c0,0.926,0.189,1.662,0.559,2.195c0.375,0.541,0.9,0.811,1.58,0.811c0.992,0,1.695-0.441,2.113-1.318v-3.425
					c-0.418-0.942-1.121-1.417-2.105-1.417c-0.68,0-1.203,0.262-1.58,0.795C565.562,580.658,565.372,581.445,565.372,582.486z"/>
				<path fill="#686868" d="M572.099,582.297c0-0.695,0.139-1.326,0.41-1.893c0.277-0.557,0.654-0.99,1.154-1.311
					c0.5-0.311,1.057-0.467,1.688-0.467c0.967,0,1.754,0.344,2.359,1.023c0.6,0.681,0.902,1.582,0.902,2.704v0.173
					c0,0.704-0.139,1.335-0.41,1.9c-0.27,0.564-0.654,0.999-1.146,1.303c-0.5,0.303-1.057,0.459-1.695,0.459
					c-0.967,0-1.746-0.336-2.352-1.024c-0.598-0.681-0.91-1.581-0.91-2.704V582.297L572.099,582.297z M572.909,582.527
					c0,0.867,0.23,1.58,0.682,2.146c0.449,0.557,1.039,0.835,1.77,0.835c0.736,0,1.318-0.278,1.77-0.835
					c0.459-0.566,0.68-1.303,0.68-2.213v-0.155c0-0.558-0.107-1.073-0.312-1.532c-0.203-0.459-0.498-0.819-0.867-1.073
					s-0.795-0.385-1.279-0.385c-0.721,0-1.303,0.286-1.76,0.853c-0.451,0.557-0.682,1.294-0.682,2.211V582.527L572.909,582.527z"/>
				<path fill="#686868" d="M584.649,582.06v3.99h-0.826v-9.807h3.342c1.016,0,1.826,0.263,2.418,0.778
					c0.59,0.523,0.885,1.245,0.885,2.154c0,0.918-0.287,1.631-0.854,2.131c-0.572,0.499-1.393,0.753-2.475,0.753H584.649z
					 M584.649,581.355h2.516c0.803,0,1.418-0.188,1.836-0.574c0.418-0.377,0.631-0.908,0.631-1.598c0-0.68-0.213-1.221-0.623-1.621
					c-0.426-0.402-1.016-0.607-1.795-0.615h-2.564V581.355L584.649,581.355z"/>
				<path fill="#686868" d="M596.651,586.05c-0.072-0.222-0.131-0.565-0.154-1.017c-0.279,0.369-0.639,0.656-1.082,0.853
					c-0.434,0.205-0.9,0.304-1.385,0.304c-0.705,0-1.27-0.197-1.703-0.59c-0.436-0.386-0.656-0.885-0.656-1.483
					c0-0.704,0.303-1.271,0.893-1.68c0.59-0.417,1.41-0.622,2.467-0.622h1.467v-0.828c0-0.523-0.164-0.934-0.484-1.229
					c-0.318-0.303-0.795-0.451-1.408-0.451c-0.566,0-1.025,0.148-1.393,0.435c-0.369,0.286-0.549,0.631-0.549,1.032h-0.812
					c0-0.582,0.271-1.082,0.812-1.508s1.195-0.639,1.982-0.639c0.811,0,1.457,0.205,1.926,0.615c0.467,0.4,0.711,0.966,0.721,1.695
					v3.449c0,0.713,0.072,1.236,0.221,1.59v0.073H596.651L596.651,586.05z M594.12,585.477c0.541,0,1.025-0.131,1.443-0.394
					c0.426-0.263,0.736-0.606,0.934-1.049v-1.598h-1.441c-0.805,0.009-1.436,0.155-1.893,0.442
					c-0.451,0.287-0.682,0.672-0.682,1.172c0,0.41,0.156,0.754,0.459,1.016C593.245,585.346,593.638,585.477,594.12,585.477z"/>
				<path fill="#686868" d="M602.813,579.455c-0.172-0.033-0.352-0.05-0.549-0.05c-0.5,0-0.926,0.14-1.27,0.418
					c-0.354,0.278-0.6,0.688-0.746,1.221v5.006h-0.803v-7.284h0.787l0.016,1.156c0.426-0.861,1.113-1.295,2.049-1.295
					c0.229,0,0.408,0.033,0.539,0.09L602.813,579.455z"/>
				<path fill="#686868" d="M608.417,586.05c-0.074-0.222-0.131-0.565-0.156-1.017c-0.277,0.369-0.639,0.656-1.08,0.853
					c-0.436,0.205-0.902,0.304-1.393,0.304c-0.697,0-1.262-0.197-1.697-0.59c-0.434-0.386-0.646-0.885-0.646-1.483
					c0-0.704,0.295-1.271,0.885-1.68c0.59-0.417,1.408-0.622,2.465-0.622h1.467v-0.828c0-0.523-0.164-0.934-0.49-1.229
					c-0.32-0.303-0.787-0.451-1.402-0.451c-0.564,0-1.023,0.148-1.393,0.435c-0.367,0.286-0.549,0.631-0.549,1.032h-0.811
					c0-0.582,0.27-1.082,0.811-1.508c0.533-0.426,1.197-0.639,1.982-0.639c0.812,0,1.459,0.205,1.926,0.615
					c0.467,0.4,0.713,0.966,0.721,1.695v3.449c0,0.713,0.074,1.236,0.221,1.59v0.073H608.417L608.417,586.05z M605.886,585.477
					c0.541,0,1.023-0.131,1.441-0.394c0.426-0.263,0.738-0.606,0.934-1.049v-1.598h-1.441c-0.803,0.009-1.434,0.155-1.893,0.442
					c-0.451,0.287-0.68,0.672-0.68,1.172c0,0.41,0.156,0.754,0.459,1.016C605.009,585.346,605.401,585.477,605.886,585.477z"/>
				<path fill="#686868" d="M612.513,575.866h0.977l-1.557,1.876h-0.705L612.513,575.866z M612.095,586.05h-0.803v-7.284h0.803
					V586.05z"/>
				<path fill="#686868" d="M620.149,582.486c0,1.13-0.254,2.039-0.754,2.703s-1.18,1-2.023,1c-1.025,0-1.787-0.377-2.311-1.131
					l-0.033,0.991h-0.754v-10.348h0.803v4.121c0.508-0.795,1.27-1.196,2.277-1.196c0.861,0,1.541,0.328,2.049,0.983
					c0.5,0.663,0.746,1.581,0.746,2.753V582.486L620.149,582.486z M619.339,582.338c0-0.958-0.182-1.695-0.559-2.22
					s-0.9-0.786-1.572-0.786c-0.525,0-0.959,0.123-1.318,0.377c-0.354,0.254-0.631,0.631-0.812,1.113v3.294
					c0.402,0.917,1.115,1.376,2.139,1.376c0.664,0,1.188-0.262,1.564-0.795C619.157,584.174,619.339,583.387,619.339,582.338z"/>
				<path fill="#686868" d="M626.53,586.05c-0.082-0.222-0.131-0.565-0.154-1.017c-0.287,0.369-0.648,0.656-1.082,0.853
					c-0.434,0.205-0.9,0.304-1.393,0.304c-0.697,0-1.27-0.197-1.695-0.59c-0.443-0.386-0.656-0.885-0.656-1.483
					c0-0.704,0.295-1.271,0.885-1.68c0.59-0.417,1.418-0.622,2.475-0.622h1.459v-0.828c0-0.523-0.156-0.934-0.484-1.229
					c-0.32-0.303-0.787-0.451-1.4-0.451c-0.566,0-1.033,0.148-1.393,0.435c-0.369,0.286-0.559,0.631-0.559,1.032h-0.803
					c0-0.582,0.264-1.082,0.803-1.508c0.541-0.426,1.205-0.639,1.992-0.639c0.811,0,1.449,0.205,1.924,0.615
					c0.469,0.4,0.705,0.966,0.723,1.695v3.449c0,0.713,0.072,1.236,0.221,1.59v0.073H626.53L626.53,586.05z M623.999,585.477
					c0.533,0,1.025-0.131,1.443-0.394c0.426-0.263,0.729-0.606,0.926-1.049v-1.598h-1.443c-0.803,0.009-1.426,0.155-1.885,0.442
					c-0.457,0.287-0.68,0.672-0.68,1.172c0,0.41,0.148,0.754,0.451,1.016C623.114,585.346,623.509,585.477,623.999,585.477z"/>
			</g>
		</g>
	</g>
	<g>
		<g>
			<polygon fill="#FFC107" points="511.851,575.898 507.761,568.828 497.938,585.804 506.353,585.804 511.964,576.096 			"/>
			<polygon fill="#0F9D58" points="503.337,561.177 507.761,568.828 497.938,585.804 489.091,585.804 			"/>
			<g>
				<g>
					<defs>
						<polygon id="SVGID_16_" points="511.964,576.096 511.964,576.096 507.761,568.828 506.729,570.606 						"/>
					</defs>
					<clipPath id="SVGID_17_">
						<use xlink:href="#SVGID_16_"  overflow="visible"/>
					</clipPath>
					<defs>
						<filter id="Adobe_OpacityMaskFilter_1_" filterUnits="userSpaceOnUse" x="506.729" y="568.828" width="5.234" height="7.268">
							<feColorMatrix  type="matrix" values="1 0 0 0 0  0 1 0 0 0  0 0 1 0 0  0 0 0 1 0"/>
						</filter>
					</defs>
					<mask maskUnits="userSpaceOnUse" x="506.729" y="568.828" width="5.234" height="7.268" id="SVGID_21_">
						<g filter="url(#Adobe_OpacityMaskFilter_1_)">
							<g>
								<defs>
									<polygon id="SVGID_18_" points="511.964,576.096 511.964,576.096 507.761,568.828 506.729,570.606 									"/>
								</defs>
								<clipPath id="SVGID_19_" clip-path="url(#SVGID_17_)">
									<use xlink:href="#SVGID_18_"  overflow="visible"/>
								</clipPath>
								
									<radialGradient id="SVGID_20_" cx="-2354.0566" cy="430.9126" r="0.3685" gradientTransform="matrix(44.2635 0 0 -44.2635 104710.6875 19649.6348)" gradientUnits="userSpaceOnUse">
									<stop  offset="0" style="stop-color:#333333"/>
									<stop  offset="1" style="stop-color:#050505"/>
								</radialGradient>
								<rect x="506.729" y="568.828" clip-path="url(#SVGID_19_)" fill="url(#SVGID_20_)" width="5.234" height="7.268"/>
							</g>
						</g>
					</mask>
					
						<radialGradient id="SVGID_22_" cx="-2354.0562" cy="430.9121" r="0.368" gradientTransform="matrix(44.2635 0 0 -44.2635 104710.6562 19649.6035)" gradientUnits="userSpaceOnUse">
						<stop  offset="0" style="stop-color:#BF360C"/>
						<stop  offset="1" style="stop-color:#BF360C"/>
					</radialGradient>
					
						<rect x="506.729" y="568.828" clip-path="url(#SVGID_17_)" mask="url(#SVGID_21_)" fill="url(#SVGID_22_)" width="5.234" height="7.268"/>
				</g>
			</g>
			<g>
				<g>
					<defs>
						<polygon id="SVGID_23_" points="506.729,570.606 507.761,568.828 503.337,561.177 501.224,564.83 						"/>
					</defs>
					<clipPath id="SVGID_24_">
						<use xlink:href="#SVGID_23_"  overflow="visible"/>
					</clipPath>
					<defs>
						<filter id="Adobe_OpacityMaskFilter_2_" filterUnits="userSpaceOnUse" x="501.224" y="561.177" width="6.537" height="9.43">
							<feColorMatrix  type="matrix" values="1 0 0 0 0  0 1 0 0 0  0 0 1 0 0  0 0 0 1 0"/>
						</filter>
					</defs>
					<mask maskUnits="userSpaceOnUse" x="501.224" y="561.177" width="6.537" height="9.43" id="SVGID_26_">
						<g filter="url(#Adobe_OpacityMaskFilter_2_)">
							<g>
								<defs>
									<polygon id="SVGID_25_" points="506.729,570.606 507.761,568.828 503.337,561.177 501.224,564.83 									"/>
								</defs>
								<clipPath id="SVGID_27_" clip-path="url(#SVGID_24_)">
									<use xlink:href="#SVGID_25_"  overflow="visible"/>
								</clipPath>
								
									<radialGradient id="SVGID_28_" cx="-2354.5518" cy="430.9341" r="0.3841" gradientTransform="matrix(44.6228 0 0 -44.6228 105578.5625 19805.5449)" gradientUnits="userSpaceOnUse">
									<stop  offset="0" style="stop-color:#333333"/>
									<stop  offset="1" style="stop-color:#050505"/>
								</radialGradient>
								<rect x="501.224" y="561.177" clip-path="url(#SVGID_27_)" fill="url(#SVGID_28_)" width="6.537" height="9.43"/>
							</g>
						</g>
					</mask>
					
						<radialGradient id="SVGID_29_" cx="-2354.5513" cy="430.9341" r="0.3832" gradientTransform="matrix(44.6228 0 0 -44.6228 105578.5312 19805.5137)" gradientUnits="userSpaceOnUse">
						<stop  offset="0" style="stop-color:#263238"/>
						<stop  offset="1" style="stop-color:#263238"/>
					</radialGradient>
					
						<rect x="501.224" y="561.177" clip-path="url(#SVGID_24_)" mask="url(#SVGID_26_)" fill="url(#SVGID_29_)" width="6.537" height="9.43"/>
				</g>
			</g>
			<polygon fill="#4285F4" points="497.938,536.541 489.091,536.541 511.964,576.096 516.388,568.451 516.388,568.443 			"/>
			<path fill="#DB4437" d="M519.257,563.486c0.826-1.434,0.826-3.194,0-4.62l-12.904-22.317h-8.414l18.449,31.894L519.257,563.486z"
				/>
			<g opacity="0.2" enable-background="new    ">
				<g>
					<g>
						<defs>
							<rect id="SVGID_30_" x="489.091" y="536.541" width="27.297" height="39.555"/>
						</defs>
						<clipPath id="SVGID_31_">
							<use xlink:href="#SVGID_30_"  overflow="visible"/>
						</clipPath>
						<polygon clip-path="url(#SVGID_31_)" fill="#1A237E" points="516.388,568.443 516.282,568.255 511.964,575.711 
							489.312,536.541 489.091,536.541 511.964,576.096 516.388,568.451 						"/>
					</g>
				</g>
			</g>
			<g opacity="0.2" enable-background="new    ">
				<g>
					<g>
						<defs>
							<rect id="SVGID_32_" x="489.091" y="536.541" width="30.779" height="24.824"/>
						</defs>
						<clipPath id="SVGID_33_">
							<use xlink:href="#SVGID_32_"  overflow="visible"/>
						</clipPath>
						<path clip-path="url(#SVGID_33_)" fill="#FFFFFF" d="M506.353,536.926l12.904,22.325c0.385,0.655,0.572,1.384,0.605,2.114
							c0.033-0.86-0.164-1.729-0.605-2.499l-12.904-22.317h-17.262l0.221,0.377H506.353z"/>
					</g>
				</g>
			</g>
			<g opacity="0.2" enable-background="new    ">
				<g>
					<g>
						<defs>
							<rect id="SVGID_34_" x="516.282" y="560.98" width="3.588" height="7.463"/>
						</defs>
						<clipPath id="SVGID_35_">
							<use xlink:href="#SVGID_34_"  overflow="visible"/>
						</clipPath>
						<path clip-path="url(#SVGID_35_)" fill="#3E2723" d="M516.388,568.443l2.869-4.957c0.449-0.77,0.646-1.646,0.605-2.506
							c-0.025,0.729-0.221,1.458-0.605,2.122l-2.975,5.153L516.388,568.443z"/>
					</g>
				</g>
			</g>
			<g>
				<g>
					<defs>
						<path id="SVGID_36_" d="M489.091,536.541l14.246,24.636l-14.246,24.627h17.262l12.904-22.317c0.826-1.434,0.826-3.194,0-4.62
							l-12.904-22.317h-17.262V536.541z"/>
					</defs>
					<clipPath id="SVGID_38_">
						<use xlink:href="#SVGID_36_"  overflow="visible"/>
					</clipPath>
					<defs>
						
							<filter id="Adobe_OpacityMaskFilter_3_" filterUnits="userSpaceOnUse" x="489.091" y="536.541" width="30.992" height="49.263">
							<feColorMatrix  type="matrix" values="1 0 0 0 0  0 1 0 0 0  0 0 1 0 0  0 0 0 1 0"/>
						</filter>
					</defs>
					<mask maskUnits="userSpaceOnUse" x="489.091" y="536.541" width="30.992" height="49.263" id="SVGID_37_">
						<g filter="url(#Adobe_OpacityMaskFilter_3_)">
							<g>
								<defs>
									<path id="SVGID_39_" d="M489.091,536.541l14.246,24.636l-14.246,24.627h17.262l12.904-22.317
										c0.826-1.434,0.826-3.194,0-4.62l-12.904-22.317h-17.262V536.541z"/>
								</defs>
								<clipPath id="SVGID_40_" clip-path="url(#SVGID_38_)">
									<use xlink:href="#SVGID_39_"  overflow="visible"/>
								</clipPath>
								
									<radialGradient id="SVGID_41_" cx="-2395.1655" cy="431.875" r="0.384" gradientTransform="matrix(134.3503 0 0 -134.3503 322279.9062 58559.5078)" gradientUnits="userSpaceOnUse">
									<stop  offset="0" style="stop-color:#1A1A1A"/>
									<stop  offset="1" style="stop-color:#000000"/>
								</radialGradient>
								<rect x="489.091" y="536.541" clip-path="url(#SVGID_40_)" fill="url(#SVGID_41_)" width="30.992" height="49.263"/>
							</g>
						</g>
					</mask>
					
						<radialGradient id="SVGID_42_" cx="-2395.1655" cy="431.875" r="0.384" gradientTransform="matrix(134.3503 0 0 -134.3503 322279.9062 58559.5078)" gradientUnits="userSpaceOnUse">
						<stop  offset="0" style="stop-color:#FFFFFF"/>
						<stop  offset="1" style="stop-color:#FFFFFF"/>
					</radialGradient>
					
						<rect x="489.091" y="536.541" clip-path="url(#SVGID_38_)" mask="url(#SVGID_37_)" fill="url(#SVGID_42_)" width="30.992" height="49.263"/>
				</g>
			</g>
		</g>
		<g>
			<g>
				<g>
					<g>
						<defs>
							<rect id="SVGID_43_" x="534.134" y="536.894" width="92.52" height="32.574"/>
						</defs>
						<clipPath id="SVGID_44_">
							<use xlink:href="#SVGID_43_"  overflow="visible"/>
						</clipPath>
						<path clip-path="url(#SVGID_44_)" fill="#FFFFFF" d="M568.675,537.68h9.191c9.355,0,15.238,6.21,15.238,14.927
							c0,8.758-5.883,14.927-15.238,14.927h-9.191V537.68z M578.03,563.012c6.514,0,10.553-3.613,10.553-10.405
							c0-6.75-4.039-10.405-10.553-10.405h-4.834v20.81H578.03z"/>
					</g>
					<g>
						<defs>
							<rect id="SVGID_45_" x="534.134" y="536.894" width="92.52" height="32.574"/>
						</defs>
						<clipPath id="SVGID_46_">
							<use xlink:href="#SVGID_45_"  overflow="visible"/>
						</clipPath>
						<path clip-path="url(#SVGID_46_)" fill="#FFFFFF" d="M564.897,551.247h-14.312v4.44h10.094
							c-0.336,2.261-1.123,4.022-2.295,5.202c-1.49,1.491-3.834,3.138-7.93,3.138c-6.324,0-11.273-5.096-11.273-11.42
							s4.949-11.42,11.273-11.42c3.408,0,5.898,1.344,7.734,3.072l3.031-3.031c-2.564-2.45-5.982-4.334-10.766-4.334
							c-8.66,0-15.943,7.054-15.943,15.713s7.283,15.713,15.943,15.713c4.67,0,8.201-1.531,10.961-4.407
							c2.836-2.835,3.721-6.816,3.721-10.036C565.136,552.877,565.054,552.017,564.897,551.247"/>
					</g>
					<g>
						<defs>
							<rect id="SVGID_47_" x="534.134" y="536.894" width="92.52" height="32.574"/>
						</defs>
						<clipPath id="SVGID_48_">
							<use xlink:href="#SVGID_47_"  overflow="visible"/>
						</clipPath>
						<path clip-path="url(#SVGID_48_)" fill="#FFFFFF" d="M626.425,551.247h-14.32v4.44h10.092
							c-0.326,2.261-1.113,4.022-2.285,5.202c-1.498,1.491-3.834,3.138-7.93,3.138c-6.326,0-11.273-5.096-11.273-11.42
							s4.947-11.42,11.273-11.42c3.408,0,5.898,1.344,7.732,3.072l3.031-3.031c-2.572-2.45-5.98-4.334-10.764-4.334
							c-8.668,0-15.943,7.054-15.943,15.713s7.275,15.713,15.943,15.713c4.67,0,8.191-1.531,10.953-4.407
							c2.844-2.835,3.719-6.816,3.719-10.036C626.653,552.877,626.581,552.017,626.425,551.247"/>
					</g>
				</g>
			</g>
			<g>
				<path fill="#FFFFFF" d="M538.124,584.1l0.057,0.213l0.059-0.213l3.088-8.594h0.9l-3.645,9.807h-0.795l-3.654-9.807h0.9
					L538.124,584.1z"/>
				<path fill="#FFFFFF" d="M547.774,585.312c-0.082-0.221-0.131-0.565-0.156-1.016c-0.277,0.368-0.639,0.654-1.08,0.852
					c-0.436,0.205-0.902,0.303-1.393,0.303c-0.697,0-1.262-0.196-1.697-0.59c-0.434-0.385-0.646-0.885-0.646-1.482
					c0-0.705,0.295-1.27,0.885-1.68c0.59-0.418,1.41-0.623,2.467-0.623h1.465v-0.827c0-0.524-0.162-0.934-0.482-1.229
					c-0.32-0.304-0.795-0.45-1.41-0.45c-0.557,0-1.023,0.146-1.393,0.434c-0.367,0.287-0.549,0.631-0.549,1.032h-0.811
					c0-0.581,0.271-1.081,0.811-1.507c0.541-0.427,1.197-0.64,1.982-0.64c0.82,0,1.459,0.205,1.926,0.614
					c0.467,0.402,0.713,0.967,0.721,1.696v3.448c0,0.713,0.074,1.238,0.223,1.59v0.074H547.774L547.774,585.312z M545.243,584.738
					c0.541,0,1.023-0.131,1.441-0.393c0.426-0.262,0.738-0.606,0.934-1.049v-1.598h-1.441c-0.803,0.008-1.434,0.156-1.893,0.442
					c-0.449,0.286-0.68,0.672-0.68,1.172c0,0.409,0.156,0.753,0.459,1.016C544.366,584.607,544.761,584.738,545.243,584.738z"/>
				<path fill="#FFFFFF" d="M551.47,585.312h-0.811v-10.348h0.811V585.312z"/>
				<path fill="#FFFFFF" d="M556.483,585.451c-0.623,0-1.18-0.155-1.68-0.459c-0.5-0.303-0.893-0.729-1.172-1.277
					c-0.277-0.541-0.418-1.155-0.418-1.836v-0.286c0-0.704,0.141-1.335,0.41-1.893c0.271-0.565,0.648-1.008,1.139-1.327
					c0.484-0.319,1.008-0.483,1.574-0.483c0.885,0,1.588,0.304,2.105,0.909c0.516,0.598,0.777,1.426,0.777,2.475v0.45h-5.203v0.155
					c0,0.828,0.238,1.516,0.713,2.065c0.477,0.549,1.066,0.827,1.787,0.827c0.434,0,0.818-0.082,1.146-0.237
					s0.623-0.409,0.902-0.754l0.498,0.386C558.466,585.025,557.614,585.451,556.483,585.451z M556.337,578.578
					c-0.607,0-1.123,0.221-1.533,0.664c-0.418,0.449-0.672,1.048-0.762,1.793h4.375v-0.082c-0.025-0.704-0.221-1.277-0.598-1.711
					C557.435,578.799,556.942,578.578,556.337,578.578z"/>
				<path fill="#FFFFFF" d="M563.823,581.602c0-1.131,0.246-2.032,0.754-2.704s1.189-1.008,2.057-1.008
					c0.992,0,1.738,0.394,2.254,1.171v-4.096h0.803v10.355h-0.754l-0.033-0.975c-0.523,0.737-1.277,1.105-2.277,1.105
					c-0.844,0-1.523-0.336-2.031-1.016c-0.516-0.672-0.771-1.59-0.771-2.736V581.602L563.823,581.602z M564.636,581.748
					c0,0.926,0.188,1.664,0.557,2.196c0.377,0.54,0.9,0.812,1.582,0.812c0.99,0,1.695-0.443,2.113-1.32v-3.424
					c-0.418-0.942-1.123-1.418-2.105-1.418c-0.68,0-1.205,0.263-1.582,0.795C564.823,579.922,564.636,580.708,564.636,581.748z"/>
				<path fill="#FFFFFF" d="M571.362,581.561c0-0.697,0.139-1.328,0.408-1.893c0.279-0.558,0.656-0.992,1.156-1.312
					c0.5-0.312,1.057-0.467,1.688-0.467c0.967,0,1.754,0.345,2.359,1.024c0.598,0.68,0.9,1.581,0.9,2.703v0.172
					c0,0.705-0.139,1.336-0.408,1.9c-0.271,0.566-0.656,1-1.148,1.303c-0.5,0.304-1.057,0.459-1.695,0.459
					c-0.967,0-1.744-0.336-2.352-1.023c-0.598-0.68-0.908-1.582-0.908-2.704V581.561L571.362,581.561z M572.173,581.789
					c0,0.869,0.229,1.582,0.68,2.146c0.451,0.558,1.041,0.836,1.77,0.836c0.738,0,1.318-0.278,1.77-0.836
					c0.459-0.564,0.68-1.303,0.68-2.212v-0.155c0-0.557-0.105-1.073-0.311-1.532s-0.5-0.819-0.869-1.073s-0.795-0.385-1.277-0.385
					c-0.721,0-1.303,0.287-1.762,0.852c-0.451,0.557-0.68,1.295-0.68,2.213V581.789L572.173,581.789z"/>
				<path fill="#FFFFFF" d="M583.913,581.322v3.99h-0.828v-9.807h3.344c1.016,0,1.826,0.262,2.416,0.777
					c0.59,0.525,0.885,1.246,0.885,2.155c0,0.917-0.287,1.63-0.852,2.13c-0.574,0.5-1.393,0.754-2.475,0.754H583.913z
					 M583.913,580.617h2.516c0.803,0,1.416-0.188,1.834-0.572c0.418-0.377,0.631-0.91,0.631-1.598c0-0.681-0.213-1.221-0.623-1.623
					c-0.426-0.4-1.016-0.605-1.793-0.614h-2.564V580.617L583.913,580.617z"/>
				<path fill="#FFFFFF" d="M595.915,585.312c-0.074-0.221-0.131-0.565-0.156-1.016c-0.277,0.368-0.639,0.654-1.08,0.852
					c-0.436,0.205-0.902,0.303-1.385,0.303c-0.705,0-1.27-0.196-1.705-0.59c-0.434-0.385-0.654-0.885-0.654-1.482
					c0-0.705,0.303-1.27,0.893-1.68c0.59-0.418,1.408-0.623,2.465-0.623h1.467v-0.827c0-0.524-0.164-0.934-0.482-1.229
					c-0.32-0.304-0.795-0.45-1.41-0.45c-0.564,0-1.023,0.146-1.393,0.434s-0.549,0.631-0.549,1.032h-0.811
					c0-0.581,0.27-1.081,0.811-1.507c0.541-0.427,1.197-0.64,1.982-0.64c0.812,0,1.459,0.205,1.926,0.614
					c0.467,0.402,0.713,0.967,0.721,1.696v3.448c0,0.713,0.074,1.238,0.221,1.59v0.074H595.915L595.915,585.312z M593.384,584.738
					c0.541,0,1.023-0.131,1.441-0.393c0.426-0.262,0.738-0.606,0.934-1.049v-1.598h-1.441c-0.803,0.008-1.434,0.156-1.893,0.442
					c-0.451,0.286-0.68,0.672-0.68,1.172c0,0.409,0.156,0.753,0.459,1.016C592.507,584.607,592.899,584.738,593.384,584.738z"/>
				<path fill="#FFFFFF" d="M602.075,578.717c-0.172-0.032-0.352-0.049-0.549-0.049c-0.5,0-0.926,0.139-1.27,0.418
					c-0.352,0.278-0.598,0.688-0.746,1.221v5.006h-0.803v-7.283h0.787l0.016,1.154c0.428-0.859,1.115-1.294,2.049-1.294
					c0.23,0,0.41,0.032,0.541,0.091L602.075,578.717z"/>
				<path fill="#FFFFFF" d="M607.681,585.312c-0.074-0.221-0.133-0.565-0.156-1.016c-0.279,0.368-0.639,0.654-1.082,0.852
					c-0.434,0.205-0.9,0.303-1.393,0.303c-0.697,0-1.262-0.196-1.695-0.59c-0.436-0.385-0.648-0.885-0.648-1.482
					c0-0.705,0.295-1.27,0.885-1.68c0.59-0.418,1.41-0.623,2.467-0.623h1.467v-0.827c0-0.524-0.164-0.934-0.492-1.229
					c-0.311-0.304-0.787-0.45-1.4-0.45c-0.566,0-1.023,0.146-1.393,0.434s-0.549,0.631-0.549,1.032h-0.812
					c0-0.581,0.271-1.081,0.812-1.507c0.531-0.427,1.195-0.64,1.982-0.64c0.811,0,1.457,0.205,1.926,0.614
					c0.467,0.402,0.711,0.967,0.721,1.696v3.448c0,0.713,0.072,1.238,0.221,1.59v0.074H607.681L607.681,585.312z M605.147,584.738
					c0.541,0,1.025-0.131,1.443-0.393c0.426-0.262,0.736-0.606,0.934-1.049v-1.598h-1.441c-0.805,0.008-1.436,0.156-1.893,0.442
					c-0.451,0.286-0.682,0.672-0.682,1.172c0,0.409,0.156,0.753,0.459,1.016C604.272,584.607,604.665,584.738,605.147,584.738z"/>
				<path fill="#FFFFFF" d="M611.776,575.129h0.975l-1.557,1.876h-0.705L611.776,575.129z M611.358,585.312h-0.803v-7.283h0.803
					V585.312z"/>
				<path fill="#FFFFFF" d="M619.411,581.748c0,1.131-0.254,2.041-0.754,2.704s-1.18,0.999-2.023,0.999
					c-1.023,0-1.785-0.377-2.311-1.131l-0.031,0.992h-0.754v-10.348h0.803v4.121c0.508-0.795,1.27-1.196,2.277-1.196
					c0.859,0,1.539,0.327,2.049,0.983c0.498,0.664,0.744,1.581,0.744,2.752V581.748L619.411,581.748z M618.601,581.602
					c0-0.959-0.18-1.696-0.557-2.221s-0.902-0.787-1.574-0.787c-0.523,0-0.957,0.123-1.318,0.377
					c-0.352,0.254-0.631,0.631-0.811,1.115v3.293c0.4,0.918,1.113,1.377,2.139,1.377c0.662,0,1.188-0.263,1.564-0.795
					C618.421,583.436,618.601,582.649,618.601,581.602z"/>
				<path fill="#FFFFFF" d="M625.794,585.312c-0.082-0.221-0.131-0.565-0.156-1.016c-0.287,0.368-0.646,0.654-1.08,0.852
					c-0.436,0.205-0.902,0.303-1.395,0.303c-0.695,0-1.27-0.196-1.695-0.59c-0.441-0.385-0.654-0.885-0.654-1.482
					c0-0.705,0.295-1.27,0.885-1.68c0.59-0.418,1.416-0.623,2.473-0.623h1.459v-0.827c0-0.524-0.156-0.934-0.482-1.229
					c-0.32-0.304-0.787-0.45-1.402-0.45c-0.564,0-1.031,0.146-1.393,0.434c-0.369,0.287-0.557,0.631-0.557,1.032h-0.803
					c0-0.581,0.262-1.081,0.803-1.507c0.541-0.427,1.205-0.64,1.99-0.64c0.811,0,1.451,0.205,1.926,0.614
					c0.467,0.402,0.705,0.967,0.721,1.696v3.448c0,0.713,0.074,1.238,0.221,1.59v0.074H625.794L625.794,585.312z M623.263,584.738
					c0.531,0,1.023-0.131,1.441-0.393c0.426-0.262,0.729-0.606,0.926-1.049v-1.598h-1.441c-0.803,0.008-1.426,0.156-1.885,0.442
					s-0.68,0.672-0.68,1.172c0,0.409,0.146,0.753,0.451,1.016C622.378,584.607,622.771,584.738,623.263,584.738z"/>
			</g>
		</g>
	</g>
</g>
</svg>
