<?xml version="1.0" encoding="iso-8859-1"?>
<!-- Generator: Adobe Illustrator 19.1.0, SVG Export Plug-In . SVG Version: 6.00 Build 0)  -->
<svg version="1.1" id="Layer_1" xmlns="http://www.w3.org/2000/svg" width="274px" height="60px" xmlns:xlink="http://www.w3.org/1999/xlink" x="0px" y="0px"
	 viewBox="0 0 424.984 93.103" style="enable-background:new 0 0 424.984 93.103;" xml:space="preserve">
<path style="fill:#EC1C24;stroke:#231F20;stroke-width:3.2854;" d="M411.449,78.569c-8.044,9.968-21.27,12.394-33.335,13.015H317
	c-8.97-0.343-17.042-0.688-24.351-7.861c-0.829,4.756-7.174,7.791-12.486,7.861H132c-6.484,0.07-16.282-1.167-21.73-6.964
	c-6.275,6.138-29.316,6.964-33.663,7.033H42.669C27.15,91.514,14.46,88.687,5.697,74.688c-4.343-8.279-4.688-15.592-3.169-24.556
	c2.068-12.279,7.932-36.699,7.932-36.699c2.965-8.002,9.861-12,20.83-11.932h17.864c11.244,0,11.796,5.863,11.244,8.14
	C73.987-0.64,106.96-1.329,121.101,8.051c8.619-6.343,20.692-6.413,30.211-6.551h232.527c28.952-0.719,38.536,10.204,39.301,24.959
	c0,0,1.531,12.068-4.597,22.61C419.114,57.497,418.35,69.183,411.449,78.569z"/>
<g>
	<path style="fill-rule:evenodd;clip-rule:evenodd;fill:#231F20;" d="M88.128,57.719c1.24-0.348,2.347-1.038,3.244-2.003
		c1.789-1.723,3.241-4.69,4.204-8.553c0.967-3.585,1.242-6.277,0.76-8.206c-0.483-2.348-2.211-3.66-5.035-3.867
		c-0.756-0.068-1.382-0.138-2.139-0.068c-0.343,0.068-0.69,0.139-1.033,0.275V13.225c14.553-1.794,27.452,3.174,31.663,13.866
		c6.276-9.244,16.138-13.866,29.659-13.725h17.797c4.828,0,7.45,4.068,6.552,9.101l-1.657,8.211
		c-1.312,4.965-4.066,5.791-9.936,5.791l-9.997,0.068c-12.556,0-12.347,3.455-14.006,9.869c-0.691,2.551-0.824,4.964-0.754,7.309
		c-0.07,2.413,2.068,2.829,3.72,2.897c3.315,0.277,8.349,0.141,14.969-0.068c2.347,0,4.829,0.484,5.314,1.037l23.588-37.87
		c2.693-4.347,3.73-6.345,9.037-6.345h11.108c4.206,0.138,6.345,1.725,7.657,7.103l8.554,42.149l-4.693-39.874
		c-0.828-4.826,1.66-9.312,6.554-9.378h10.967c4.345-0.07,6.969,2.483,7.727,7.653l1.239,13.659l7.111-14.833
		c2.065-4.342,4.758-6.479,8.138-6.479h11.584c4.416,0,6.899,2.413,7.38,7.241l0.902,14.004l7.309-14.626
		c1.932-4.415,4.277-6.619,9.657-6.619h8.622c4,0,6.483,1.998,7.385,6c6.62-4.761,13.516-6,24.138-6h14.694
		c1.723,0,3.312,0.551,4.761,1.585c1.24-1.035,2.964-1.585,5.169-1.585h31.523c18.558,0,25.317,19.178,11.657,34.142
		c5.246,11.864-0.206,32.628-27.38,32.004h-27.384c-2.347,0-3.932-0.549-4.761-1.587c-1.108,1.108-2.831,1.659-5.314,1.587H321.07
		c-17.801-0.066-26.558-8.756-26.351-26.143L284.44,72.824c-2.143,4.415-3.793,6.622-7.242,6.688h-12.69
		c-4.488-0.066-6.967-2.342-7.455-6.828l-0.965-12.483l-6.415,12.896c-1.657,4.207-4.481,6.415-8.619,6.415h-10.971
		c-3.859,0-6.279-1.514-7.244-4.62c-1.033,3.106-3.448,4.62-7.242,4.62h-11.589c-4.274,0-6.826-1.998-7.721-6.138l-1.176-6.072
		h-10.345l-4.07,6.141c-3.173,5.037-3.793,6.068-9.314,6.068h-37.659c-10.488-0.204-17.453-4.62-20.901-13.173
		c-5.448,7.518-13.314,12.072-24.694,13.45V57.719z M87.024,57.927c0.414,0,0.758-0.139,1.104-0.207v22.07
		c-0.967,0.068-2.002,0.206-3.037,0.274c-10.483,0.695-18.415-1.998-23.866-7.105c-0.828,4.347-3.586,6.488-8.418,6.554H36.533
		c-15.316,0-24.56-9.861-21.385-25.107l6.967-34.42c0.967-4.549,3.793-6.76,8.349-6.619h9.861c3.862,0,7.589,3.514,6.69,8.066
		l-7.101,34.905l14.208,0.141c0.481-22.974,9.519-37.386,27.455-42.011c2.204-0.551,4.413-0.963,6.552-1.242v22.072
		c-1.451,0.486-2.69,1.312-3.796,2.556c-1.376,1.518-2.62,4.275-3.589,7.932c-1.169,3.998-1.307,7.037-0.688,9.033
		c0.688,2.004,2.418,3.037,4.967,3.242C85.714,58.132,86.331,58.132,87.024,57.927z"/>
	<path style="fill-rule:evenodd;clip-rule:evenodd;fill:#FFFFFF;" d="M29.15,20.261h11.105l-6.138,29.593
		c-0.758,3.655-1.174,6.141-1.174,7.31c-0.139,2.486,0.624,4.002,2.556,4.97c1.725,0.824,4.965,1.38,9.793,1.38h10.763l-1.934,9.242
		H42.189c-5.587,0.202-9.589-0.209-12.072-0.963c-5.45-1.523-8.279-5.178-8.693-10.972c0-2.139,0.414-5.79,1.519-10.967
		L29.15,20.261z"/>
	<path style="fill-rule:evenodd;clip-rule:evenodd;fill:#FFFFFF;" d="M158.074,63.514l-1.935,9.242h-18.276
		c-3.45,0-6.141-0.209-7.866-0.413c-6.207-1.31-10.068-4.969-11.586-10.969c-0.967-3.861-0.761-8.829,0.411-14.626
		c1.519-7.035,4.207-12.828,7.866-17.242c2.688-3.244,5.793-5.591,9.446-6.899c3.658-1.587,8.073-2.347,13.246-2.347h17.932
		l-1.93,9.453H148.83c-5.033,0-9.037,1.309-11.934,4c-2.281,2.136-4.209,6.209-5.383,11.863c-1.72,7.727-1.171,12.901,1.174,15.455
		c1.929,1.516,4.969,2.483,9.382,2.483H158.074z"/>
	<polygon style="fill-rule:evenodd;clip-rule:evenodd;fill:#FFFFFF;" points="235.051,20.261 238.501,59.855 257.949,20.261 
		270.437,20.261 273.128,59.855 293.266,20.261 304.65,20.261 276.785,72.756 263.884,72.756 261.057,34.884 242.154,72.756 
		229.465,72.756 223.465,20.261 	"/>
	<path style="fill-rule:evenodd;clip-rule:evenodd;fill:#FFFFFF;" d="M350.454,20.261l-1.935,9.453h-14.622
		c-3.862,0-6.756,0.207-8.483,0.758c-1.929,0.551-3.448,1.517-4.964,3.103c-0.97,0.967-1.795,2.07-2.348,3.035
		c-0.343,1.174-1.171,2.896-1.723,5.378h29.452l-1.93,9.383h-29.661c-0.552,4.416,0.206,7.725,1.93,9.45
		c1.932,1.726,5.589,2.693,10.971,2.693h14.279l-2.141,9.242h-14.415c-4.07,0-7.521-0.209-10.418-0.622
		c-4.62-0.758-7.859-2.828-10-6.348c-2.896-4.755-3.448-11.31-1.728-19.588c1.934-8.965,6.141-16.14,12.903-21.314
		c2.279-1.723,4.62-2.895,6.897-3.451c2.347-0.756,5.38-1.172,9.033-1.172H350.454z"/>
	<path style="fill-rule:evenodd;clip-rule:evenodd;fill:#FFFFFF;" d="M192.7,51.371h7.521l-3.659-18.418l-3.862,6.349V20.47
		l13.106-0.209l10.549,52.496H203.32l-2.549-12.143H192.7V51.371z M192.7,51.371L192.7,51.371v9.242l0,0h-11.934l-7.657,12.143
		h-13.105L192.7,20.47l0,0v18.831l0,0l-7.519,12.07H192.7z"/>
	<path style="fill-rule:evenodd;clip-rule:evenodd;fill:#FFFFFF;" d="M378.39,41.987h2.828c1.589,0,2.692-0.134,3.448-0.343
		c0.826-0.202,1.585-0.411,2.348-0.964c1.929-1.38,3.103-3.103,3.653-5.174c0.347-2.141,0-3.657-1.378-4.624
		c-0.97-0.824-2.692-1.169-5.38-1.169h-5.519v-9.453h10.758c4.622,0,7.868,0.62,9.8,1.589c2.138,1.312,3.657,3.448,4.207,6.138
		c0.62,1.934,0.62,4.002,0,6.138c-0.551,2.692-1.732,5.176-3.657,7.728c-1.932,2.209-4.211,3.723-6.559,4.69
		c4.627,2.348,6.211,6.552,5.042,12.347c-0.765,3.448-2.138,6.348-4.211,8.692c-1.93,1.861-4.07,3.451-6.415,4.211
		c-2.07,0.551-5.1,0.963-8.965,0.963v-9.242c0.756-0.211,1.31-0.211,1.66-0.211c0.958-0.206,1.58-0.551,2.34-1.169
		c1.935-1.103,3.101-2.831,3.658-5.176c0.411-2.139,0-3.655-1.383-4.62c-0.963-0.76-2.688-1.174-5.174-1.174h-1.101V41.987z
		 M378.318,41.987h0.071v9.176h-0.071h-14.415l-2.484,12.35h15.178h1.721c0.071,0,0.071,0,0.071,0v9.242c0,0,0,0-0.071,0h-1.106
		h-29.105l11.176-52.496h19.035h0.071v9.453h-0.071h-9.796l-2.478,12.274H378.318z"/>
	<path style="fill-rule:evenodd;clip-rule:evenodd;fill:#FFFFFF;" d="M87.921,63.857c3.035-0.554,5.519-1.934,7.378-3.795
		c2.902-2.899,5.035-7.518,6.209-13.519c1.104-5.448,1.104-9.521,0-12.418c-1.376-3.446-4.62-5.173-9.859-5.173
		c-1.315,0-2.42,0-3.728,0.138v-8.829c1.862-0.206,3.587-0.206,5.657-0.343c5.241,0,9.653,0.963,13.312,2.69
		c4.206,2.277,6.688,5.725,7.518,10.758c0.76,4.073,0.345,8.622-0.829,14.004c-0.96,5.382-2.826,10.002-5.514,13.796
		c-3.314,4.828-7.383,8.141-12.558,9.868c-2.277,0.963-4.758,1.514-7.586,1.857V63.857z M87.853,63.925c0-0.068,0-0.068,0.068-0.068
		v9.033c-0.068,0.068-0.068,0.068-0.068,0.068c-1.589,0.139-3.106,0.139-4.828,0.139c-5.796,0-10.765-1.101-14.626-3.239
		c-3.312-1.934-5.591-4.831-6.758-8.693c-0.967-4.002-0.967-8.828,0.206-14.417c2.139-9.932,6.138-17.035,12.14-21.248
		c3.657-2.756,8.279-4.481,13.866-5.241c0,0,0,0,0.068,0v8.829c-0.068,0-0.068,0-0.068,0.07c-3.312,0.761-6.207,2.279-8.279,4.761
		c-2.345,2.549-4.066,6.76-5.241,12.486c-1.314,6.138-1.108,10.756,0.411,13.655c1.521,2.896,4.829,4.207,9.45,4.207
		C85.508,64.27,86.677,64.27,87.853,63.925z"/>
</g>
</svg>
