<?xml version="1.0" encoding="utf-8"?>
<!-- Generator: Adobe Illustrator 16.0.4, SVG Export Plug-In . SVG Version: 6.00 Build 0)  -->
<!DOCTYPE svg PUBLIC "-//W3C//DTD SVG 1.1//EN" "http://www.w3.org/Graphics/SVG/1.1/DTD/svg11.dtd">
<svg version="1.1" id="Layer_1" xmlns="http://www.w3.org/2000/svg" xmlns:xlink="http://www.w3.org/1999/xlink" x="0px" y="0px"
	 width="111.778px" height="66.157px" viewBox="64.916 41.122 111.778 66.157"
	 enable-background="new 64.916 41.122 111.778 66.157" xml:space="preserve">
<g id="Layer_2_copy" display="none">
	<g display="inline">
		<g>
			<path fill="#DC4637" d="M-36.411-315.954c0-1.116-0.913-2.03-2.03-2.03h-78.167c-1.117,0-2.03,0.914-2.03,2.03v36.156
				c0,1.117,0.913,2.03,2.03,2.03h78.167c1.117,0,2.03-0.913,2.03-2.03V-315.954z"/>
		</g>
		<path fill="#DC4637" d="M-116.644-299.173c-0.125-0.148-0.271-0.277-0.422-0.326c-1.435-0.43-1.099,2.459-1.429,3.155
			c-0.692,1.455-2.51,1.657-3.787,0.92c-1.985-1.136-2.408,0.262-1.751,2c0.394,1.035,0.99,2.023,1.704,2.875
			c0.841,1.02,1.93,1.838,2.613,2.983c0.696,1.173,1.149,2.469,1.342,3.819c0.099,0.666,0.099,1.317,0.114,1.989
			c0.014,0.493,0.104,1.072,0.675,1.181c0.814,0.15,1.427-1.095,1.592-1.743c0.08-0.319,0.133-0.678,0.163-1.018
			c0.049-0.57,0.162-1.043-0.072-1.563c-0.285-0.625-0.301-1.365-0.323-2.055c-0.043-1.728-0.082-3.458-0.113-5.193
			c-0.031-1.681-0.061-3.362-0.083-5.041c-0.008-0.203-0.062-0.472-0.014-0.66c0.022-0.103,0.108-0.181,0.127-0.262
			c0.043-0.196,0.057-0.304-0.016-0.505C-116.382-298.784-116.501-298.994-116.644-299.173z"/>
	</g>
	<g display="inline">
		<g>
			<g>
				<path fill="#414242" d="M-238.518-282.576c-0.55,0-0.982,0.186-1.303,0.556c-0.318,0.373-0.478,0.88-0.478,1.526
					c0,0.664,0.153,1.177,0.461,1.539c0.307,0.362,0.744,0.542,1.312,0.542c0.35,0,0.748-0.063,1.195-0.189v0.517
					c-0.347,0.132-0.775,0.198-1.284,0.198c-0.738,0-1.307-0.228-1.707-0.68c-0.401-0.453-0.601-1.099-0.601-1.933
					c0-0.524,0.097-0.981,0.29-1.375c0.191-0.395,0.471-0.695,0.835-0.909c0.363-0.214,0.793-0.319,1.286-0.319
					c0.525,0,0.983,0.097,1.376,0.292l-0.246,0.505C-237.76-282.485-238.139-282.576-238.518-282.576z"/>
				<path fill="#414242" d="M-231.542-280.5c0,0.812-0.204,1.449-0.608,1.916c-0.405,0.463-0.969,0.696-1.688,0.696
					c-0.738,0-1.308-0.229-1.707-0.686c-0.402-0.456-0.603-1.102-0.603-1.936c0-0.824,0.201-1.466,0.604-1.92
					c0.4-0.454,0.972-0.682,1.711-0.682c0.719,0,1.281,0.23,1.685,0.694C-231.744-281.954-231.542-281.315-231.542-280.5z
					 M-235.531-280.5c0,0.687,0.146,1.207,0.434,1.563c0.289,0.354,0.708,0.531,1.259,0.531c0.554,0,0.974-0.176,1.256-0.53
					s0.424-0.876,0.424-1.564c0-0.683-0.141-1.2-0.423-1.553c-0.282-0.355-0.699-0.531-1.251-0.531
					c-0.556,0-0.977,0.178-1.266,0.534C-235.385-281.695-235.531-281.178-235.531-280.5z"/>
				<path fill="#414242" d="M-226.166-277.958h-0.664l-2.735-4.257h-0.026c0.036,0.499,0.055,0.958,0.055,1.375v2.882h-0.538v-5.072
					h0.657l2.729,4.239h0.027c-0.004-0.061-0.015-0.262-0.031-0.602c-0.016-0.339-0.021-0.581-0.017-0.726v-2.912h0.544V-277.958z"
					/>
				<path fill="#414242" d="M-220.53-277.958h-0.664l-2.733-4.257h-0.027c0.036,0.499,0.055,0.958,0.055,1.375v2.882h-0.538v-5.072
					h0.657l2.729,4.239h0.026c-0.004-0.061-0.014-0.262-0.03-0.602c-0.016-0.339-0.021-0.581-0.017-0.726v-2.912h0.543
					L-220.53-277.958L-220.53-277.958z"/>
				<path fill="#414242" d="M-216.013-277.958h-2.789v-5.072h2.789v0.523h-2.206v1.635h2.073v0.52h-2.073v1.867h2.206V-277.958z"/>
				<path fill="#414242" d="M-212.409-282.576c-0.551,0-0.985,0.186-1.304,0.556c-0.317,0.373-0.479,0.88-0.479,1.526
					c0,0.664,0.154,1.177,0.461,1.539c0.308,0.362,0.744,0.542,1.312,0.542c0.35,0,0.748-0.063,1.194-0.189v0.517
					c-0.347,0.132-0.774,0.198-1.282,0.198c-0.738,0-1.308-0.228-1.707-0.68c-0.4-0.453-0.603-1.099-0.603-1.933
					c0-0.524,0.098-0.981,0.29-1.375c0.192-0.395,0.473-0.695,0.835-0.909c0.363-0.214,0.793-0.319,1.285-0.319
					c0.525,0,0.984,0.097,1.377,0.292l-0.246,0.505C-211.651-282.485-212.031-282.576-212.409-282.576z"/>
				<path fill="#414242" d="M-208.238-277.958h-0.582v-4.549h-1.585v-0.523h3.752v0.523h-1.585V-277.958L-208.238-277.958z"/>
			</g>
			<g>
				<path fill="#414242" d="M-195.733-277.958v-5.072h0.582v5.072H-195.733z"/>
				<path fill="#414242" d="M-189.519-277.958h-0.664l-2.733-4.257h-0.028c0.036,0.499,0.055,0.958,0.055,1.375v2.882h-0.536v-5.072
					h0.656l2.729,4.239h0.026c-0.005-0.061-0.016-0.262-0.03-0.602c-0.017-0.339-0.021-0.581-0.018-0.726v-2.912h0.544
					L-189.519-277.958L-189.519-277.958z"/>
				<path fill="#414242" d="M-187.209-277.958h-0.582v-5.072h2.79v0.523h-2.208v1.856h2.075v0.524h-2.075V-277.958z"/>
				<path fill="#414242" d="M-179.478-280.5c0,0.812-0.203,1.449-0.606,1.916c-0.404,0.463-0.97,0.696-1.689,0.696
					c-0.738,0-1.307-0.229-1.707-0.686c-0.399-0.457-0.602-1.102-0.602-1.936c0-0.824,0.201-1.466,0.604-1.92
					c0.401-0.454,0.973-0.682,1.711-0.682c0.722,0,1.281,0.23,1.687,0.694C-179.679-281.954-179.478-281.315-179.478-280.5z
					 M-183.467-280.5c0,0.687,0.146,1.207,0.435,1.563c0.288,0.354,0.707,0.531,1.258,0.531c0.556,0,0.974-0.176,1.256-0.53
					c0.283-0.354,0.426-0.876,0.426-1.564c0-0.683-0.143-1.2-0.424-1.553c-0.281-0.355-0.698-0.531-1.252-0.531
					s-0.976,0.178-1.264,0.534C-183.321-281.695-183.467-281.178-183.467-280.5z"/>
				<path fill="#414242" d="M-177.429-280.066v2.108h-0.581v-5.072h1.372c0.613,0,1.066,0.12,1.361,0.358
					c0.293,0.236,0.439,0.596,0.439,1.074c0,0.67-0.335,1.124-1.008,1.36l1.359,2.279h-0.688l-1.213-2.108L-177.429-280.066
					L-177.429-280.066z M-177.429-280.574h0.8c0.408,0,0.711-0.083,0.902-0.247c0.19-0.167,0.287-0.414,0.287-0.744
					c0-0.337-0.098-0.577-0.293-0.727c-0.195-0.147-0.509-0.222-0.939-0.222h-0.757V-280.574z"/>
				<path fill="#414242" d="M-171.11-277.958l-1.699-4.497h-0.025c0.03,0.357,0.048,0.78,0.048,1.271v3.226h-0.538v-5.072h0.877
					l1.585,4.187h0.027l1.599-4.187h0.87v5.072h-0.582v-3.268c0-0.375,0.016-0.783,0.049-1.223h-0.029l-1.71,4.49L-171.11-277.958
					L-171.11-277.958z"/>
			</g>
			<g>
				<path fill="#414242" d="M-156.09-277.958v-5.072h0.581v5.072H-156.09z"/>
				<path fill="#414242" d="M-149.876-277.958h-0.663l-2.737-4.257h-0.025c0.035,0.499,0.056,0.958,0.056,1.375v2.882h-0.539v-5.072
					h0.658l2.729,4.239h0.026c-0.004-0.061-0.016-0.262-0.029-0.602c-0.018-0.339-0.022-0.581-0.019-0.726v-2.912h0.544V-277.958
					L-149.876-277.958z"/>
				<path fill="#414242" d="M-145.324-279.308c0,0.447-0.161,0.795-0.479,1.045s-0.753,0.375-1.302,0.375
					c-0.593,0-1.05-0.078-1.369-0.233v-0.568c0.204,0.088,0.43,0.156,0.673,0.207c0.24,0.053,0.48,0.077,0.718,0.077
					c0.389,0,0.681-0.074,0.878-0.223c0.197-0.15,0.294-0.357,0.294-0.624c0-0.176-0.035-0.319-0.104-0.433
					c-0.068-0.11-0.187-0.215-0.35-0.31c-0.163-0.095-0.411-0.201-0.744-0.323c-0.467-0.168-0.798-0.369-0.999-0.6
					c-0.2-0.231-0.3-0.532-0.3-0.906c0-0.391,0.146-0.702,0.435-0.932c0.291-0.232,0.676-0.349,1.151-0.349
					c0.498,0,0.956,0.093,1.373,0.278l-0.182,0.513c-0.412-0.175-0.814-0.264-1.205-0.264c-0.31,0-0.55,0.067-0.724,0.201
					c-0.172,0.135-0.259,0.32-0.259,0.559c0,0.177,0.031,0.32,0.096,0.433c0.062,0.112,0.171,0.216,0.322,0.309
					c0.151,0.095,0.384,0.198,0.698,0.311c0.522,0.189,0.885,0.394,1.082,0.611C-145.423-279.937-145.324-279.653-145.324-279.308z"
					/>
				<path fill="#414242" d="M-140.774-281.552c0,0.514-0.174,0.907-0.521,1.186c-0.347,0.276-0.84,0.414-1.483,0.414h-0.59v1.994
					h-0.581v-5.072h1.298C-141.4-283.03-140.774-282.538-140.774-281.552z M-143.368-280.459h0.524c0.516,0,0.889-0.085,1.118-0.254
					c0.23-0.168,0.348-0.439,0.348-0.811c0-0.337-0.11-0.586-0.326-0.751c-0.217-0.164-0.554-0.245-1.013-0.245h-0.651V-280.459z"/>
				<path fill="#414242" d="M-139.379-277.958v-5.072h0.583v5.072H-139.379z"/>
				<path fill="#414242" d="M-136.491-280.066v2.108h-0.581v-5.072h1.373c0.612,0,1.067,0.12,1.361,0.358
					c0.292,0.236,0.438,0.596,0.438,1.074c0,0.67-0.335,1.124-1.008,1.36l1.36,2.279h-0.688l-1.214-2.108L-136.491-280.066
					L-136.491-280.066z M-136.491-280.574h0.799c0.409,0,0.712-0.083,0.902-0.247c0.192-0.167,0.289-0.414,0.289-0.744
					c0-0.337-0.099-0.577-0.294-0.727c-0.195-0.147-0.51-0.222-0.938-0.222h-0.758V-280.574L-136.491-280.574z"/>
				<path fill="#414242" d="M-129.599-277.958h-2.79v-5.072h2.79v0.523h-2.208v1.635h2.074v0.52h-2.074v1.867h2.208V-277.958z"/>
			</g>
			<path fill="#414242" d="M-201.462-280.372c0,0.376-0.302,0.674-0.67,0.674c-0.369,0-0.669-0.298-0.669-0.674
				c0-0.374,0.3-0.675,0.669-0.675C-201.763-281.047-201.462-280.746-201.462-280.372z"/>
			<path fill="#414242" d="M-161.834-280.372c0,0.376-0.301,0.674-0.664,0.674c-0.371,0-0.67-0.298-0.67-0.674
				c0-0.374,0.299-0.675,0.67-0.675C-162.135-281.047-161.834-280.746-161.834-280.372z"/>
		</g>
		<g>
			<g>
				<path fill="#414242" d="M-193.249-306.893h11.35v14.174c-3.082,1.057-6.471,1.583-10.163,1.583
					c-4.054,0-7.187-1.175-9.398-3.526c-2.212-2.35-3.318-5.701-3.318-10.055c0-4.244,1.212-7.548,3.634-9.911
					c2.423-2.361,5.815-3.544,10.182-3.544c1.653,0,3.217,0.157,4.687,0.469c1.468,0.312,2.749,0.706,3.84,1.187l-2.249,5.577
					c-1.895-0.936-3.975-1.404-6.24-1.404c-2.075,0-3.68,0.676-4.812,2.023c-1.133,1.35-1.699,3.277-1.699,5.784
					c0,2.458,0.513,4.332,1.537,5.62c1.025,1.29,2.503,1.935,4.436,1.935c1.055,0,2.025-0.102,2.914-0.308v-4.117h-4.694v-5.487
					H-193.249z"/>
				<path fill="#414242" d="M-176.54-317.793h9.174c3.574,0,6.228,0.53,7.959,1.592c1.733,1.061,2.6,2.713,2.6,4.954
					c0,1.476-0.377,2.734-1.133,3.778s-1.749,1.715-2.984,2.014v0.181c1.63,0.433,2.811,1.152,3.543,2.159
					c0.729,1.007,1.097,2.314,1.097,3.92c0,2.388-0.896,4.268-2.688,5.641c-1.794,1.373-4.235,2.059-7.329,2.059h-10.235v-26.298
					H-176.54z M-169.434-307.702h2.14c1.021,0,1.809-0.21,2.366-0.629c0.559-0.42,0.836-1.045,0.836-1.871
					c0-1.475-1.114-2.214-3.346-2.214h-1.996V-307.702z M-169.434-302.504v5.522h2.499c2.219,0,3.33-0.936,3.33-2.807
					c0-0.875-0.3-1.546-0.892-2.015c-0.595-0.468-1.456-0.701-2.582-0.701L-169.434-302.504L-169.434-302.504z"/>
				<path fill="#414242" d="M-141.159-306.893h11.351v14.174c-3.083,1.057-6.469,1.583-10.162,1.583
					c-4.053,0-7.187-1.175-9.397-3.526c-2.213-2.35-3.318-5.701-3.318-10.055c0-4.244,1.211-7.548,3.634-9.911
					c2.423-2.361,5.815-3.544,10.182-3.544c1.654,0,3.217,0.157,4.685,0.469c1.471,0.312,2.75,0.706,3.84,1.187l-2.247,5.577
					c-1.895-0.936-3.976-1.404-6.24-1.404c-2.075,0-3.68,0.676-4.812,2.023c-1.134,1.35-1.699,3.277-1.699,5.784
					c0,2.458,0.513,4.332,1.537,5.62c1.026,1.29,2.506,1.935,4.435,1.935c1.056,0,2.025-0.102,2.915-0.308v-4.117h-4.696v-5.487
					H-141.159z"/>
			</g>
		</g>
		<g>
			<path fill="#ED174F" d="M-231.018-295.515l0.003,0.002c1.086,0,2.178-0.407,3.009-1.238l3.821,3.813l0,0
				c3.772-3.77,3.772-9.885,0-13.654l-3.824,3.824l0,0c1.655,1.658,1.657,4.347,0,6.008
				C-228.855-295.926-229.92-295.516-231.018-295.515z"/>
			<g>
				<g>
					<defs>
						<path id="SVGID_1_" d="M-231.015-290.104l-0.003-5.411c1.099-0.001,2.163-0.411,3.009-1.245l0,0
							c1.657-1.661,1.655-4.35,0-6.008l0,0l0,0l3.824-3.824c3.772,3.77,3.772,9.885,0,13.654l0,0
							C-226.073-291.055-228.552-290.099-231.015-290.104L-231.015-290.104z"/>
					</defs>
					<clipPath id="SVGID_2_">
						<use xlink:href="#SVGID_1_"  overflow="visible"/>
					</clipPath>
					<path opacity="0.43" clip-path="url(#SVGID_2_)" fill="#49A848" enable-background="new    " d="M-211.028-305.461
						l-5.146-1.677c-0.342,1.037-1.066,1.934-2.118,2.472l0,0c-2.09,1.06-4.642,0.226-5.71-1.862l0,0h-0.003l-4.821,2.451
						c2.847,5.588,7.742,6.898,12.992,4.231l0,0C-213.464-301.055-211.793-303.118-211.028-305.461L-211.028-305.461z"/>
				</g>
			</g>
			<path fill="#FFC425" d="M-214.344-316.427c-3.776-3.77-9.89-3.77-13.665,0l0,0l3.823,3.834c1.666-1.659,4.354-1.659,6.015-0.003
				l0,0c0.838,0.832,1.245,1.907,1.245,3.007l0,0l0,0h5.41C-211.515-312.06-212.464-314.548-214.344-316.427L-214.344-316.427z"/>
			<path fill="#0079C1" d="M-237.838-292.928c3.769,3.773,9.881,3.778,13.656,0l0,0l-3.825-3.823c-1.663,1.659-4.35,1.65-6.013,0
				l0,0c-0.831-0.84-1.238-1.914-1.239-3.005l0,0l0,0h-5.409C-240.672-297.293-239.721-294.808-237.838-292.928L-237.838-292.928z"
				/>
			<path fill="#49A942" d="M-216.906-309.555c-0.003,1.101-0.417,2.164-1.256,3.003c-1.67,1.649-4.357,1.636-6.01-0.028l0,0
				c-3.758-3.788-9.87-3.813-13.663-0.062c-1.887,1.877-2.852,4.355-2.857,6.821l5.414,0.028c0.003-1.094,0.416-2.172,1.255-3.002
				c1.671-1.654,4.354-1.642,6.008,0.027l0.005-0.006l-0.005,0.006c3.76,3.784,9.874,3.808,13.659,0.057
				c1.893-1.867,2.852-4.351,2.858-6.823L-216.906-309.555z"/>
			<path fill="#ED174F" d="M-224.185-306.591h0.004c-1.653-1.659-1.652-4.35-0.004-6.002l-3.823-3.834
				c-1.931,1.938-2.864,4.486-2.815,7.021C-228.411-309.36-226.02-308.432-224.185-306.591z"/>
		</g>
	</g>
	<g display="inline">
		<g>
			<rect x="-114.423" y="-312.754" fill="none" width="79.979" height="27.044"/>
			<text transform="matrix(1.0074 0 0 1 -114.4226 -299.9336)" fill="#FFFFFF" font-family="'ArialMT'" font-size="18.059">KUALA</text>
		</g>
		<text transform="matrix(1.0074 0 0 1 -114.3328 -283.5723)" fill="#FFFFFF" font-family="'ArialMT'" font-size="14.1446">LUMPUR</text>
	</g>
</g>
<g>
	<g>
		<g>
			<path fill="#FFFFFF" d="M106.061,96.605c0,0.377-0.301,0.674-0.67,0.674s-0.669-0.297-0.669-0.674c0-0.373,0.3-0.675,0.669-0.675
				S106.061,96.232,106.061,96.605z"/>
			<path fill="#FFFFFF" d="M145.454,96.605c0,0.377-0.302,0.674-0.664,0.674c-0.371,0-0.67-0.297-0.67-0.674
				c0-0.373,0.299-0.675,0.67-0.675C145.153,95.931,145.454,96.232,145.454,96.605z"/>
			<g>
				<path fill="#FFFFFF" d="M126.721,65.368c0,3.534-1.048,6.35-3.145,8.444c-2.381,2.498-5.479,3.746-9.294,3.746
					c-3.651,0-6.757-1.266-9.312-3.799c-2.557-2.532-3.834-5.671-3.834-9.417s1.277-6.885,3.834-9.417
					c2.555-2.532,5.659-3.799,9.312-3.799c1.812,0,3.545,0.354,5.193,1.061s2.969,1.648,3.958,2.826l-2.227,2.228
					c-1.673-2.002-3.981-3.004-6.926-3.004c-2.662,0-4.966,0.937-6.908,2.81c-1.943,1.873-2.915,4.306-2.915,7.297
					c0,2.992,0.972,5.424,2.915,7.297c1.942,1.873,4.246,2.811,6.908,2.811c2.826,0,5.182-0.942,7.066-2.828
					c1.226-1.225,1.932-2.932,2.12-5.123h-9.188v-3.039h12.263C126.662,64.12,126.721,64.756,126.721,65.368z"/>
				<path fill="#FFFFFF" d="M130.677,76.994v-25.3h9.153c1.979,0,3.691,0.652,5.142,1.961c1.448,1.308,2.173,2.95,2.173,4.93
					c0,1.201-0.312,2.262-0.937,3.181c-0.624,0.918-1.454,1.613-2.491,2.084v0.143c1.249,0.424,2.272,1.153,3.074,2.19
					c0.801,1.036,1.202,2.238,1.202,3.604c0,2.072-0.761,3.793-2.279,5.158c-1.521,1.367-3.316,2.051-5.389,2.051h-9.648V76.994z
					 M133.929,62.542h5.901c1.225,0,2.209-0.407,2.949-1.22c0.742-0.812,1.113-1.701,1.113-2.668s-0.358-1.85-1.077-2.649
					c-0.72-0.801-1.667-1.202-2.845-1.202h-6.043L133.929,62.542L133.929,62.542z M133.929,73.885h6.537
					c1.248,0,2.262-0.436,3.039-1.309c0.777-0.871,1.166-1.824,1.166-2.861c0-1.036-0.4-1.983-1.201-2.845
					c-0.801-0.859-1.85-1.29-3.145-1.29h-6.396V73.885z"/>
				<path fill="#FFFFFF" d="M176.015,65.368c0,3.534-1.048,6.35-3.145,8.444c-2.382,2.498-5.479,3.746-9.294,3.746
					c-3.651,0-6.756-1.266-9.312-3.799c-2.557-2.532-3.835-5.671-3.835-9.417s1.278-6.885,3.835-9.417
					c2.556-2.532,5.659-3.799,9.312-3.799c1.813,0,3.546,0.354,5.193,1.061c1.649,0.706,2.969,1.648,3.958,2.826l-2.226,2.228
					c-1.674-2.002-3.981-3.004-6.927-3.004c-2.662,0-4.966,0.937-6.908,2.81c-1.943,1.873-2.915,4.306-2.915,7.297
					c0,2.992,0.972,5.424,2.915,7.297c1.942,1.873,4.246,2.811,6.908,2.811c2.826,0,5.183-0.942,7.066-2.828
					c1.226-1.225,1.933-2.932,2.12-5.123h-9.188v-3.039h12.262C175.956,64.12,176.015,64.756,176.015,65.368z"/>
			</g>
			<g>
				<path fill="#FFFFFF" d="M67.655,99.207c-0.769,0-1.412-0.262-1.934-0.781c-0.521-0.52-0.781-1.17-0.781-1.948
					s0.262-1.428,0.781-1.948c0.521-0.52,1.165-0.779,1.934-0.779c0.788,0,1.429,0.283,1.92,0.854l-0.468,0.452
					c-0.354-0.442-0.839-0.664-1.452-0.664c-0.568,0-1.05,0.192-1.439,0.576c-0.392,0.385-0.588,0.89-0.588,1.511
					c0,0.623,0.196,1.126,0.588,1.512c0.391,0.383,0.871,0.576,1.439,0.576c0.629,0,1.163-0.254,1.605-0.76l0.467,0.467
					c-0.238,0.287-0.537,0.516-0.896,0.684C68.47,99.125,68.079,99.207,67.655,99.207z"/>
				<path fill="#FFFFFF" d="M74.824,98.414c-0.514,0.527-1.151,0.793-1.915,0.793c-0.765,0-1.402-0.266-1.916-0.793
					s-0.771-1.174-0.771-1.938s0.257-1.408,0.771-1.938c0.514-0.527,1.151-0.791,1.916-0.791c0.759,0,1.396,0.265,1.91,0.795
					c0.516,0.529,0.773,1.175,0.773,1.934C75.594,97.24,75.338,97.887,74.824,98.414z M71.49,97.978
					c0.387,0.392,0.857,0.587,1.419,0.587c0.56,0,1.031-0.195,1.419-0.587c0.387-0.392,0.58-0.892,0.58-1.5s-0.193-1.106-0.58-1.499
					c-0.388-0.392-0.859-0.588-1.419-0.588c-0.562,0-1.032,0.196-1.419,0.588c-0.389,0.393-0.58,0.891-0.58,1.499
					S71.103,97.586,71.49,97.978z"/>
				<path fill="#FFFFFF" d="M76.426,99.09v-5.225h0.817l2.539,4.063h0.028l-0.028-1.007v-3.059h0.672v5.226h-0.701l-2.655-4.263
					h-0.029l0.029,1.009v3.254L76.426,99.09L76.426,99.09z"/>
				<path fill="#FFFFFF" d="M81.541,99.09v-5.225h0.816l2.539,4.063h0.029l-0.029-1.007v-3.059h0.672v5.226h-0.7l-2.655-4.263
					h-0.029l0.029,1.009v3.254L81.541,99.09L81.541,99.09z"/>
				<path fill="#FFFFFF" d="M89.706,94.508h-2.379v1.656h2.146v0.627h-2.146v1.656h2.379v0.643h-3.05v-5.225h3.05V94.508
					L89.706,94.508z"/>
				<path fill="#FFFFFF" d="M92.96,99.207c-0.77,0-1.413-0.262-1.935-0.781c-0.521-0.52-0.779-1.17-0.779-1.948
					s0.26-1.428,0.779-1.948c0.521-0.52,1.165-0.779,1.935-0.779c0.788,0,1.428,0.283,1.919,0.854l-0.467,0.452
					c-0.355-0.442-0.839-0.664-1.452-0.664c-0.569,0-1.05,0.192-1.44,0.576c-0.392,0.385-0.588,0.89-0.588,1.511
					c0,0.623,0.196,1.126,0.588,1.512c0.392,0.383,0.871,0.576,1.44,0.576c0.628,0,1.163-0.254,1.604-0.76l0.468,0.467
					c-0.238,0.287-0.537,0.516-0.897,0.684S93.384,99.207,92.96,99.207z"/>
				<path fill="#FFFFFF" d="M97.638,99.09h-0.672v-4.582h-1.459v-0.643h3.59v0.643h-1.459V99.09z"/>
			</g>
			<g>
				<path fill="#FFFFFF" d="M112.256,99.09v-5.225h0.671v5.225H112.256z"/>
				<path fill="#FFFFFF" d="M113.978,99.09v-5.225h0.817l2.539,4.063h0.028l-0.028-1.007v-3.059h0.672v5.226h-0.701l-2.655-4.263
					h-0.028l0.028,1.009v3.254L113.978,99.09L113.978,99.09z"/>
				<path fill="#FFFFFF" d="M119.728,99.09h-0.672v-5.225h3.051v0.643h-2.379v1.715h2.146v0.627h-2.146V99.09L119.728,99.09z"/>
				<path fill="#FFFFFF" d="M127.138,98.414c-0.514,0.527-1.152,0.793-1.916,0.793s-1.402-0.266-1.915-0.793
					c-0.514-0.527-0.771-1.174-0.771-1.938s0.257-1.408,0.771-1.938c0.513-0.527,1.151-0.791,1.915-0.791
					c0.759,0,1.396,0.265,1.912,0.795c0.516,0.529,0.773,1.175,0.773,1.934C127.907,97.24,127.65,97.887,127.138,98.414z
					 M123.803,97.978c0.387,0.392,0.858,0.587,1.419,0.587s1.033-0.195,1.42-0.587s0.58-0.892,0.58-1.5s-0.193-1.106-0.58-1.499
					c-0.387-0.392-0.859-0.588-1.42-0.588s-1.032,0.196-1.419,0.588c-0.387,0.393-0.58,0.891-0.58,1.499
					S123.416,97.586,123.803,97.978z"/>
				<path fill="#FFFFFF" d="M128.703,99.09v-5.225h1.779c0.442,0,0.825,0.146,1.148,0.44c0.324,0.295,0.486,0.665,0.486,1.113
					c0,0.364-0.12,0.687-0.358,0.967c-0.238,0.278-0.536,0.456-0.89,0.528l-0.016,0.021l1.467,2.123v0.029h-0.796l-1.407-2.116
					h-0.744v2.116h-0.67V99.09z M129.374,96.347h1.08c0.268,0,0.497-0.088,0.688-0.263c0.192-0.176,0.288-0.396,0.288-0.664
					c0-0.229-0.085-0.438-0.255-0.628c-0.171-0.189-0.396-0.284-0.679-0.284h-1.124L129.374,96.347L129.374,96.347z"/>
				<path fill="#FFFFFF" d="M132.92,99.09v-5.225h0.672l1.815,3.182h0.029l1.815-3.182h0.673v5.225h-0.673v-3.102l0.029-0.875
					h-0.029l-1.633,2.866h-0.396l-1.634-2.866h-0.029l0.029,0.875v3.102H132.92z"/>
			</g>
			<g>
				<path fill="#FFFFFF" d="M152.019,99.09v-5.225h0.672v5.225H152.019z"/>
				<path fill="#FFFFFF" d="M153.741,99.09v-5.225h0.816l2.539,4.063h0.029l-0.029-1.007v-3.059h0.671v5.226h-0.7l-2.656-4.263
					h-0.029l0.029,1.009v3.254L153.741,99.09L153.741,99.09z"/>
				<path fill="#FFFFFF" d="M160.293,99.207c-0.38,0-0.75-0.125-1.112-0.373c-0.363-0.248-0.6-0.596-0.712-1.043l0.613-0.248
					c0.071,0.287,0.223,0.529,0.447,0.726c0.228,0.197,0.48,0.296,0.764,0.296c0.292,0,0.541-0.076,0.748-0.229
					c0.207-0.153,0.31-0.361,0.31-0.624c0-0.292-0.103-0.517-0.31-0.675s-0.534-0.307-0.981-0.441
					c-0.462-0.146-0.812-0.335-1.051-0.564c-0.238-0.231-0.357-0.527-0.357-0.888c0-0.375,0.148-0.7,0.445-0.978
					c0.296-0.277,0.683-0.416,1.16-0.416c0.442,0,0.803,0.109,1.079,0.332c0.276,0.221,0.458,0.463,0.54,0.726l-0.612,0.256
					c-0.044-0.166-0.152-0.319-0.325-0.46c-0.173-0.142-0.395-0.212-0.667-0.212c-0.258,0-0.479,0.072-0.661,0.216
					c-0.182,0.145-0.272,0.322-0.272,0.536c0,0.194,0.084,0.358,0.252,0.492s0.414,0.254,0.74,0.36
					c0.258,0.084,0.474,0.164,0.646,0.242c0.172,0.076,0.349,0.181,0.525,0.31s0.311,0.289,0.4,0.481
					c0.091,0.191,0.135,0.414,0.135,0.668c0,0.252-0.053,0.479-0.156,0.679c-0.104,0.2-0.243,0.356-0.416,0.474
					s-0.358,0.206-0.558,0.268C160.706,99.176,160.502,99.207,160.293,99.207z"/>
				<path fill="#FFFFFF" d="M163.525,99.09h-0.671v-5.225h1.78c0.442,0,0.825,0.146,1.149,0.44c0.322,0.295,0.484,0.665,0.484,1.113
					c0,0.446-0.162,0.817-0.484,1.112c-0.324,0.295-0.707,0.44-1.149,0.44h-1.109V99.09z M163.525,96.332h1.124
					c0.282,0,0.509-0.096,0.68-0.285c0.17-0.189,0.255-0.398,0.255-0.627s-0.085-0.438-0.255-0.628
					c-0.171-0.189-0.396-0.284-0.68-0.284h-1.124V96.332z"/>
				<path fill="#FFFFFF" d="M166.97,99.09v-5.225h0.671v5.225H166.97z"/>
				<path fill="#FFFFFF" d="M168.69,99.09v-5.225h1.781c0.443,0,0.826,0.146,1.149,0.44c0.322,0.295,0.484,0.665,0.484,1.113
					c0,0.364-0.119,0.687-0.356,0.967c-0.238,0.278-0.535,0.456-0.892,0.528l-0.015,0.021l1.467,2.123v0.029h-0.795l-1.408-2.116
					h-0.744v2.116h-0.672V99.09z M169.363,96.347h1.079c0.269,0,0.498-0.088,0.689-0.263c0.192-0.176,0.289-0.396,0.289-0.664
					c0-0.229-0.086-0.438-0.256-0.628s-0.396-0.284-0.68-0.284h-1.123L169.363,96.347L169.363,96.347z"/>
				<path fill="#FFFFFF" d="M175.959,94.508h-2.379v1.656h2.146v0.627h-2.146v1.656h2.379v0.643h-3.05v-5.225h3.05V94.508z"/>
			</g>
			<g>
				<g>
					<g>
						<defs>
							<path id="SVGID_3_" d="M70.789,68.341c0,0,0.001,0,0.001-0.002c0.002-2.086,1.691-3.777,3.777-3.777
								c1.043,0,1.988,0.424,2.67,1.105c0.004,0.002,0.005,0.004,0.005,0.004c0.683,0.682,1.104,1.628,1.104,2.67
								c0,1.043-0.423,1.987-1.104,2.67c-0.686,0.685-1.632,1.108-2.675,1.108C72.482,72.119,70.789,70.428,70.789,68.341
								 M81.396,61.518c0,0-0.001-0.003-0.003-0.003c-0.684-0.683-1.104-1.628-1.104-2.671s0.422-1.986,1.104-2.671
								c0.685-0.686,1.63-1.106,2.673-1.106c2.087,0,3.779,1.691,3.779,3.777v0.001c-0.001,2.088-1.693,3.777-3.779,3.777
								C83.022,62.622,82.077,62.2,81.396,61.518 M77.238,52.02c-1.711,1.715-2.78,4.069-2.819,6.675
								c-5.261,0.081-9.501,4.365-9.501,9.646c0,0.002-0.001,0.002-0.001,0.002c0,5.331,4.321,9.652,9.651,9.652
								c2.666,0,5.08-1.08,6.827-2.827c1.713-1.716,2.781-4.069,2.821-6.674c5.26-0.082,9.5-4.368,9.501-9.647v-0.001
								c0-5.331-4.321-9.65-9.652-9.65C81.4,49.193,78.985,50.271,77.238,52.02"/>
						</defs>
						<clipPath id="SVGID_4_">
							<use xlink:href="#SVGID_3_"  overflow="visible"/>
						</clipPath>
						<path clip-path="url(#SVGID_4_)" fill="#DC4637" d="M77.242,65.671c0.683,0.682,1.104,1.627,1.104,2.67
							s-0.423,1.987-1.104,2.672l4.152,4.153c1.713-1.715,2.781-4.069,2.821-6.674c-0.051,0-0.1,0.002-0.151,0.002
							C81.401,68.494,78.988,67.416,77.242,65.671"/>
					</g>
					<g>
						<defs>
							<path id="SVGID_5_" d="M70.789,68.341c0,0,0.001,0,0.001-0.002c0.002-2.086,1.691-3.777,3.777-3.777
								c1.043,0,1.988,0.424,2.67,1.105c0.004,0.002,0.005,0.004,0.005,0.004c0.683,0.682,1.104,1.628,1.104,2.67
								c0,1.043-0.423,1.987-1.104,2.67c-0.686,0.685-1.632,1.108-2.675,1.108C72.482,72.119,70.789,70.428,70.789,68.341
								 M81.396,61.518c0,0-0.001-0.003-0.003-0.003c-0.684-0.683-1.104-1.628-1.104-2.671s0.422-1.986,1.104-2.671
								c0.685-0.686,1.63-1.106,2.673-1.106c2.087,0,3.779,1.691,3.779,3.777v0.001c-0.001,2.088-1.693,3.777-3.779,3.777
								C83.022,62.622,82.077,62.2,81.396,61.518 M77.238,52.02c-1.711,1.715-2.78,4.069-2.819,6.675
								c-5.261,0.081-9.501,4.365-9.501,9.646c0,0.002-0.001,0.002-0.001,0.002c0,5.331,4.321,9.652,9.651,9.652
								c2.666,0,5.08-1.08,6.827-2.827c1.713-1.716,2.781-4.069,2.821-6.674c5.26-0.082,9.5-4.368,9.501-9.647v-0.001
								c0-5.331-4.321-9.65-9.652-9.65C81.4,49.193,78.985,50.271,77.238,52.02"/>
						</defs>
						<clipPath id="SVGID_6_">
							<use xlink:href="#SVGID_5_"  overflow="visible"/>
						</clipPath>
						<path clip-path="url(#SVGID_6_)" fill="#DC4637" d="M81.393,61.515c-0.684-0.683-1.104-1.628-1.104-2.671
							s0.422-1.986,1.104-2.671l-4.154-4.153c-1.711,1.715-2.78,4.069-2.819,6.675c0.051-0.001,0.1-0.004,0.149-0.004
							C77.232,58.69,79.646,59.77,81.393,61.515"/>
					</g>
					<g>
						<defs>
							<path id="SVGID_7_" d="M70.789,68.341c0,0,0.001,0,0.001-0.002c0.002-2.086,1.691-3.777,3.777-3.777
								c1.043,0,1.988,0.424,2.67,1.105c0.004,0.002,0.005,0.004,0.005,0.004c0.683,0.682,1.104,1.628,1.104,2.67
								c0,1.043-0.423,1.987-1.104,2.67c-0.686,0.685-1.632,1.108-2.675,1.108C72.482,72.119,70.789,70.428,70.789,68.341
								 M81.396,61.518c0,0-0.001-0.003-0.003-0.003c-0.684-0.683-1.104-1.628-1.104-2.671s0.422-1.986,1.104-2.671
								c0.685-0.686,1.63-1.106,2.673-1.106c2.087,0,3.779,1.691,3.779,3.777v0.001c-0.001,2.088-1.693,3.777-3.779,3.777
								C83.022,62.622,82.077,62.2,81.396,61.518 M77.238,52.02c-1.711,1.715-2.78,4.069-2.819,6.675
								c-5.261,0.081-9.501,4.365-9.501,9.646c0,0.002-0.001,0.002-0.001,0.002c0,5.331,4.321,9.652,9.651,9.652
								c2.666,0,5.08-1.08,6.827-2.827c1.713-1.716,2.781-4.069,2.821-6.674c5.26-0.082,9.5-4.368,9.501-9.647v-0.001
								c0-5.331-4.321-9.65-9.652-9.65C81.4,49.193,78.985,50.271,77.238,52.02"/>
						</defs>
						<clipPath id="SVGID_8_">
							<use xlink:href="#SVGID_7_"  overflow="visible"/>
						</clipPath>
						<g clip-path="url(#SVGID_8_)">
							<g opacity="0.2">
								<g>
									<defs>
										<rect id="SVGID_10_" x="80.287" y="58.937" width="1.104" height="2.578"/>
									</defs>
									<clipPath id="SVGID_11_">
										<use xlink:href="#SVGID_10_"  overflow="visible"/>
									</clipPath>
									<path clip-path="url(#SVGID_11_)" fill="#FFFFFF" d="M80.291,58.937c-0.001,0.031-0.004,0.062-0.004,0.094
										c0,0.733,0.212,1.417,0.573,1.996c0.183,0.156,0.36,0.317,0.531,0.488C80.73,60.852,80.316,59.943,80.291,58.937"/>
								</g>
							</g>
						</g>
						<g clip-path="url(#SVGID_8_)">
							<g>
								<defs>
									<path id="SVGID_12_" d="M77.282,65.711l6.237,6.24c0.285-0.705,0.487-1.449,0.6-2.225c0.059-0.403,0.091-0.815,0.097-1.234
										c-0.05,0.001-0.1,0.002-0.15,0.002c-2.646,0-5.046-1.063-6.789-2.788C77.276,65.706,77.28,65.709,77.282,65.711"/>
								</defs>
								<clipPath id="SVGID_13_">
									<use xlink:href="#SVGID_12_"  overflow="visible"/>
								</clipPath>
								<defs>
									<filter id="Adobe_OpacityMaskFilter" filterUnits="userSpaceOnUse" x="74.152" y="62.236" width="13.188" height="13.185">
										<feColorMatrix  type="matrix" values="1 0 0 0 0  0 1 0 0 0  0 0 1 0 0  0 0 0 1 0"/>
									</filter>
								</defs>
								<mask maskUnits="userSpaceOnUse" x="74.152" y="62.236" width="13.188" height="13.185" id="SVGID_9_">
									<g filter="url(#Adobe_OpacityMaskFilter)">
										<g>
											<defs>
												<path id="SVGID_14_" d="M77.282,65.711l6.237,6.24c0.285-0.705,0.487-1.449,0.6-2.225
													c0.059-0.403,0.091-0.815,0.097-1.234c-0.05,0.001-0.1,0.002-0.15,0.002c-2.646,0-5.046-1.063-6.789-2.788
													C77.276,65.706,77.28,65.709,77.282,65.711"/>
											</defs>
											<clipPath id="SVGID_15_" clip-path="url(#SVGID_13_)">
												<use xlink:href="#SVGID_14_"  overflow="visible"/>
											</clipPath>
											
												<radialGradient id="SVGID_16_" cx="-743.8" cy="145.625" r="0.1862" gradientTransform="matrix(34.7203 34.7203 -34.7203 34.7203 30958.2324 20834.4824)" gradientUnits="userSpaceOnUse">
												<stop  offset="0" style="stop-color:#333333"/>
												<stop  offset="1" style="stop-color:#050505"/>
											</radialGradient>
											<polygon clip-path="url(#SVGID_15_)" fill="url(#SVGID_16_)" points="80.747,62.236 87.34,68.827 80.747,75.421 
												74.152,68.827 											"/>
										</g>
									</g>
								</mask>
								
									<radialGradient id="SVGID_17_" cx="-743.8" cy="145.625" r="0.1862" gradientTransform="matrix(34.7203 34.7203 -34.7203 34.7203 30958.2324 20834.4824)" gradientUnits="userSpaceOnUse">
									<stop  offset="0" style="stop-color:#3F2723"/>
									<stop  offset="1" style="stop-color:#3F2723"/>
								</radialGradient>
								<polygon clip-path="url(#SVGID_13_)" mask="url(#SVGID_9_)" fill="url(#SVGID_17_)" points="80.747,62.236 87.34,68.827 
									80.747,75.421 74.152,68.827 								"/>
							</g>
						</g>
						<g clip-path="url(#SVGID_8_)">
							<g>
								<defs>
									<path id="SVGID_18_" d="M70.789,68.341c0,0,0.001,0,0.001-0.002c0.002-2.086,1.691-3.777,3.777-3.777
										c1.043,0,1.988,0.424,2.67,1.105c0.004,0.002,0.005,0.004,0.005,0.004c0.683,0.682,1.104,1.628,1.104,2.67
										c0,1.043-0.423,1.987-1.104,2.67c-0.686,0.685-1.632,1.108-2.675,1.108C72.482,72.119,70.789,70.428,70.789,68.341
										 M81.396,61.518c0,0-0.001-0.003-0.003-0.003c-0.684-0.683-1.104-1.628-1.104-2.671s0.422-1.986,1.104-2.671
										c0.685-0.686,1.63-1.106,2.673-1.106c2.087,0,3.779,1.691,3.779,3.777v0.001c-0.001,2.088-1.693,3.777-3.779,3.777
										C83.022,62.622,82.077,62.2,81.396,61.518 M77.238,52.02c-1.711,1.715-2.78,4.069-2.819,6.675
										c-5.261,0.081-9.501,4.365-9.501,9.646c0,0.002-0.001,0.002-0.001,0.002c0,5.331,4.321,9.652,9.651,9.652
										c2.666,0,5.08-1.08,6.827-2.827c1.713-1.716,2.781-4.069,2.821-6.674c5.26-0.082,9.5-4.368,9.501-9.647v-0.001
										c0-5.331-4.321-9.65-9.652-9.65C81.4,49.193,78.985,50.271,77.238,52.02"/>
								</defs>
								<clipPath id="SVGID_19_">
									<use xlink:href="#SVGID_18_"  overflow="visible"/>
								</clipPath>
								<g clip-path="url(#SVGID_19_)">
									<g>
										<g opacity="0.2">
											<defs>
												<rect id="SVGID_20_" x="63.301" y="57.183" opacity="0.2" width="33.448" height="14.308"/>
											</defs>
											<clipPath id="SVGID_21_">
												<use xlink:href="#SVGID_20_"  overflow="visible"/>
											</clipPath>
											<g clip-path="url(#SVGID_21_)">
												<g>
													<defs>
														<rect id="SVGID_22_" x="63.301" y="57.183" width="33.448" height="14.308"/>
													</defs>
													<clipPath id="SVGID_23_">
														<use xlink:href="#SVGID_22_"  overflow="visible"/>
													</clipPath>
													<g transform="matrix(1 0 0 1 -3.814697e-06 0)" clip-path="url(#SVGID_23_)">
													</g>
												</g>
											</g>
										</g>
										<g>
											<defs>
												<path id="SVGID_24_" d="M70.789,68.341c0,0,0.001,0,0.001-0.002c0.002-2.086,1.691-3.777,3.777-3.777
													c1.043,0,1.988,0.424,2.67,1.105c0.004,0.002,0.005,0.004,0.005,0.004c0.683,0.682,1.104,1.628,1.104,2.67
													c0,1.043-0.423,1.987-1.104,2.67c-0.686,0.685-1.632,1.108-2.675,1.108C72.482,72.119,70.789,70.428,70.789,68.341
													 M81.396,61.518c0,0-0.001-0.003-0.003-0.003c-0.684-0.683-1.104-1.628-1.104-2.671s0.422-1.986,1.104-2.671
													c0.685-0.686,1.63-1.106,2.673-1.106c2.087,0,3.779,1.691,3.779,3.777v0.001c-0.001,2.088-1.693,3.777-3.779,3.777
													C83.022,62.622,82.077,62.2,81.396,61.518 M77.238,52.02c-1.711,1.715-2.78,4.069-2.819,6.675
													c-5.261,0.081-9.501,4.365-9.501,9.646c0,0.002-0.001,0.002-0.001,0.002c0,5.331,4.321,9.652,9.651,9.652
													c2.666,0,5.08-1.08,6.827-2.827c1.713-1.716,2.781-4.069,2.821-6.674c5.26-0.082,9.5-4.368,9.501-9.647v-0.001
													c0-5.331-4.321-9.65-9.652-9.65C81.4,49.193,78.985,50.271,77.238,52.02"/>
											</defs>
											<clipPath id="SVGID_25_">
												<use xlink:href="#SVGID_24_"  overflow="visible"/>
											</clipPath>
											<path clip-path="url(#SVGID_25_)" fill="#0F9D58" d="M87.845,58.845c-0.001,2.088-1.693,3.779-3.779,3.779
												c-1.043,0-1.987-0.424-2.67-1.106c0,0-0.001-0.003-0.003-0.003c-1.746-1.745-4.16-2.824-6.824-2.824
												c-0.051,0-0.1,0.003-0.149,0.004c-5.261,0.081-9.501,4.365-9.501,9.646h5.873c0-2.086,1.691-3.777,3.777-3.777
												c1.043,0,1.988,0.424,2.671,1.105c0.003,0.002,0.004,0.002,0.004,0.004c1.746,1.745,4.158,2.823,6.822,2.823
												c0.053,0,0.102-0.002,0.151-0.002c5.26-0.082,9.5-4.368,9.501-9.647L87.845,58.845L87.845,58.845z"/>
										</g>
										<g>
											<defs>
												<path id="SVGID_26_" d="M70.789,68.341c0,0,0.001,0,0.001-0.002c0.002-2.086,1.691-3.777,3.777-3.777
													c1.043,0,1.988,0.424,2.67,1.105c0.004,0.002,0.005,0.004,0.005,0.004c0.683,0.682,1.104,1.628,1.104,2.67
													c0,1.043-0.423,1.987-1.104,2.67c-0.686,0.685-1.632,1.108-2.675,1.108C72.482,72.119,70.789,70.428,70.789,68.341
													 M81.396,61.518c0,0-0.001-0.003-0.003-0.003c-0.684-0.683-1.104-1.628-1.104-2.671s0.422-1.986,1.104-2.671
													c0.685-0.686,1.63-1.106,2.673-1.106c2.087,0,3.779,1.691,3.779,3.777v0.001c-0.001,2.088-1.693,3.777-3.779,3.777
													C83.022,62.622,82.077,62.2,81.396,61.518 M77.238,52.02c-1.711,1.715-2.78,4.069-2.819,6.675
													c-5.261,0.081-9.501,4.365-9.501,9.646c0,0.002-0.001,0.002-0.001,0.002c0,5.331,4.321,9.652,9.651,9.652
													c2.666,0,5.08-1.08,6.827-2.827c1.713-1.716,2.781-4.069,2.821-6.674c5.26-0.082,9.5-4.368,9.501-9.647v-0.001
													c0-5.331-4.321-9.65-9.652-9.65C81.4,49.193,78.985,50.271,77.238,52.02"/>
											</defs>
											<clipPath id="SVGID_27_">
												<use xlink:href="#SVGID_26_"  overflow="visible"/>
											</clipPath>
											<g clip-path="url(#SVGID_27_)">
												<g opacity="0.2">
													<g>
														<defs>
															<rect id="SVGID_28_" x="70.79" y="58.845" width="22.928" height="9.649"/>
														</defs>
														<clipPath id="SVGID_29_">
															<use xlink:href="#SVGID_28_"  overflow="visible"/>
														</clipPath>
														<path clip-path="url(#SVGID_29_)" fill="#273238" d="M70.79,68.339c0.002-2.086,1.691-3.777,3.777-3.777
															c1.043,0,1.988,0.424,2.67,1.105c0.004,0.002,0.005,0.004,0.005,0.004c1.745,1.745,4.158,2.823,6.822,2.823
															c0.053,0,0.102-0.002,0.151-0.002c5.26-0.082,9.5-4.367,9.501-9.647h-0.005c-0.102,5.194-4.298,9.382-9.496,9.462
															c-0.051,0.001-0.1,0.003-0.151,0.003c-2.664,0-5.077-1.08-6.822-2.825c0,0-0.001,0-0.005,0
															c-0.682-0.686-1.627-1.107-2.67-1.107c-2.086,0-3.775,1.691-3.777,3.777"/>
													</g>
												</g>
												<g>
													<defs>
														<path id="SVGID_30_" d="M70.789,68.341c0,0,0.001,0,0.001-0.002c0.002-2.086,1.691-3.777,3.777-3.777
															c1.043,0,1.988,0.424,2.67,1.105c0.004,0.002,0.005,0.004,0.005,0.004c0.683,0.682,1.104,1.628,1.104,2.67
															c0,1.043-0.423,1.987-1.104,2.67c-0.686,0.685-1.632,1.108-2.675,1.108C72.482,72.119,70.789,70.428,70.789,68.341
															 M81.396,61.518c0,0-0.001-0.003-0.003-0.003c-0.684-0.683-1.104-1.628-1.104-2.671s0.422-1.986,1.104-2.671
															c0.685-0.686,1.63-1.106,2.673-1.106c2.087,0,3.779,1.691,3.779,3.777v0.001c-0.001,2.088-1.693,3.777-3.779,3.777
															C83.022,62.622,82.077,62.2,81.396,61.518 M77.238,52.02c-1.711,1.715-2.78,4.069-2.819,6.675
															c-5.261,0.081-9.501,4.365-9.501,9.646c0,0.002-0.001,0.002-0.001,0.002c0,5.331,4.321,9.652,9.651,9.652
															c2.666,0,5.08-1.08,6.827-2.827c1.713-1.716,2.781-4.069,2.821-6.674c5.26-0.082,9.5-4.368,9.501-9.647v-0.001
															c0-5.331-4.321-9.65-9.652-9.65C81.4,49.193,78.985,50.271,77.238,52.02"/>
													</defs>
													<clipPath id="SVGID_31_">
														<use xlink:href="#SVGID_30_"  overflow="visible"/>
													</clipPath>
													<path clip-path="url(#SVGID_31_)" fill="#F3B41B" d="M84.065,55.066c2.087,0,3.779,1.691,3.779,3.777v0.001h5.873
														v-0.001c0-5.331-4.321-9.65-9.652-9.65c-2.665,0-5.08,1.078-6.827,2.826l4.154,4.153
														C82.076,55.488,83.022,55.066,84.065,55.066"/>
												</g>
												<g>
													<defs>
														<path id="SVGID_32_" d="M70.789,68.341c0,0,0.001,0,0.001-0.002c0.002-2.086,1.691-3.777,3.777-3.777
															c1.043,0,1.988,0.424,2.67,1.105c0.004,0.002,0.005,0.004,0.005,0.004c0.683,0.682,1.104,1.628,1.104,2.67
															c0,1.043-0.423,1.987-1.104,2.67c-0.686,0.685-1.632,1.108-2.675,1.108C72.482,72.119,70.789,70.428,70.789,68.341
															 M81.396,61.518c0,0-0.001-0.003-0.003-0.003c-0.684-0.683-1.104-1.628-1.104-2.671s0.422-1.986,1.104-2.671
															c0.685-0.686,1.63-1.106,2.673-1.106c2.087,0,3.779,1.691,3.779,3.777v0.001c-0.001,2.088-1.693,3.777-3.779,3.777
															C83.022,62.622,82.077,62.2,81.396,61.518 M77.238,52.02c-1.711,1.715-2.78,4.069-2.819,6.675
															c-5.261,0.081-9.501,4.365-9.501,9.646c0,0.002-0.001,0.002-0.001,0.002c0,5.331,4.321,9.652,9.651,9.652
															c2.666,0,5.08-1.08,6.827-2.827c1.713-1.716,2.781-4.069,2.821-6.674c5.26-0.082,9.5-4.368,9.501-9.647v-0.001
															c0-5.331-4.321-9.65-9.652-9.65C81.4,49.193,78.985,50.271,77.238,52.02"/>
													</defs>
													<clipPath id="SVGID_33_">
														<use xlink:href="#SVGID_32_"  overflow="visible"/>
													</clipPath>
													<g clip-path="url(#SVGID_33_)">
														<g opacity="0.2">
															<g>
																<defs>
																	<rect id="SVGID_34_" x="74.418" y="49.193" width="19.3" height="9.651"/>
																</defs>
																<clipPath id="SVGID_35_">
																	<use xlink:href="#SVGID_34_"  overflow="visible"/>
																</clipPath>
																<path clip-path="url(#SVGID_35_)" fill="#FFFFFF" d="M77.238,52.205c1.747-1.746,4.162-2.826,6.827-2.826
																	c5.271,0,9.548,4.222,9.647,9.466h0.005v-0.001c0-5.331-4.321-9.65-9.652-9.65c-2.665,0-5.08,1.078-6.827,2.826
																	c-1.711,1.715-2.78,4.069-2.819,6.675c0.003,0,0.004,0,0.006,0C74.512,56.162,75.568,53.878,77.238,52.205"/>
															</g>
														</g>
														<g>
															<defs>
																<path id="SVGID_36_" d="M70.789,68.341c0,0,0.001,0,0.001-0.002c0.002-2.086,1.691-3.777,3.777-3.777
																	c1.043,0,1.988,0.424,2.67,1.105c0.004,0.002,0.005,0.004,0.005,0.004c0.683,0.682,1.104,1.628,1.104,2.67
																	c0,1.043-0.423,1.987-1.104,2.67c-0.686,0.685-1.632,1.108-2.675,1.108C72.482,72.119,70.789,70.428,70.789,68.341
																	 M81.396,61.518c0,0-0.001-0.003-0.003-0.003c-0.684-0.683-1.104-1.628-1.104-2.671s0.422-1.986,1.104-2.671
																	c0.685-0.686,1.63-1.106,2.673-1.106c2.087,0,3.779,1.691,3.779,3.777v0.001c-0.001,2.088-1.693,3.777-3.779,3.777
																	C83.022,62.622,82.077,62.2,81.396,61.518 M77.238,52.02c-1.711,1.715-2.78,4.069-2.819,6.675
																	c-5.261,0.081-9.501,4.365-9.501,9.646c0,0.002-0.001,0.002-0.001,0.002c0,5.331,4.321,9.652,9.651,9.652
																	c2.666,0,5.08-1.08,6.827-2.827c1.713-1.716,2.781-4.069,2.821-6.674c5.26-0.082,9.5-4.368,9.501-9.647v-0.001
																	c0-5.331-4.321-9.65-9.652-9.65C81.4,49.193,78.985,50.271,77.238,52.02"/>
															</defs>
															<clipPath id="SVGID_37_">
																<use xlink:href="#SVGID_36_"  overflow="visible"/>
															</clipPath>
															<g clip-path="url(#SVGID_37_)">
																<g opacity="0.2">
																	<g>
																		<defs>
																			<rect id="SVGID_38_" x="64.917" y="58.69" width="22.928" height="9.648"/>
																		</defs>
																		<clipPath id="SVGID_39_">
																			<use xlink:href="#SVGID_38_"  overflow="visible"/>
																		</clipPath>
																		<path clip-path="url(#SVGID_39_)" fill="#FFFFFF" d="M87.845,58.845c-0.001,2.088-1.693,3.779-3.779,3.779
																			c-1.043,0-1.987-0.424-2.67-1.106c0,0-0.001-0.003-0.003-0.003c-1.746-1.745-4.16-2.824-6.824-2.824
																			c-0.051,0-0.1,0.003-0.149,0.004c-5.261,0.081-9.501,4.365-9.501,9.646h0.004c0.1-5.191,4.299-9.381,9.497-9.46
																			c0.051-0.001,0.1-0.004,0.149-0.004c2.664,0,5.078,1.08,6.824,2.826c0.002,0,0.003,0,0.003,0.001
																			c0.683,0.684,1.627,1.105,2.67,1.105c2.086,0,3.778-1.689,3.779-3.776V58.845z"/>
																	</g>
																</g>
																<g>
																	<defs>
																		<path id="SVGID_40_" d="M70.789,68.341c0,0,0.001,0,0.001-0.002c0.002-2.086,1.691-3.777,3.777-3.777
																			c1.043,0,1.988,0.424,2.67,1.105c0.004,0.002,0.005,0.004,0.005,0.004c0.683,0.682,1.104,1.628,1.104,2.67
																			c0,1.043-0.423,1.987-1.104,2.67c-0.686,0.685-1.632,1.108-2.675,1.108
																			C72.482,72.119,70.789,70.428,70.789,68.341 M81.396,61.518c0,0-0.001-0.003-0.003-0.003
																			c-0.684-0.683-1.104-1.628-1.104-2.671s0.422-1.986,1.104-2.671c0.685-0.686,1.63-1.106,2.673-1.106
																			c2.087,0,3.779,1.691,3.779,3.777v0.001c-0.001,2.088-1.693,3.777-3.779,3.777
																			C83.022,62.622,82.077,62.2,81.396,61.518 M77.238,52.02c-1.711,1.715-2.78,4.069-2.819,6.675
																			c-5.261,0.081-9.501,4.365-9.501,9.646c0,0.002-0.001,0.002-0.001,0.002c0,5.331,4.321,9.652,9.651,9.652
																			c2.666,0,5.08-1.08,6.827-2.827c1.713-1.716,2.781-4.069,2.821-6.674c5.26-0.082,9.5-4.368,9.501-9.647v-0.001
																			c0-5.331-4.321-9.65-9.652-9.65C81.4,49.193,78.985,50.271,77.238,52.02"/>
																	</defs>
																	<clipPath id="SVGID_41_">
																		<use xlink:href="#SVGID_40_"  overflow="visible"/>
																	</clipPath>
																	<g clip-path="url(#SVGID_41_)">
																		<g opacity="0.2">
																			<g>
																				<defs>
																					<rect id="SVGID_42_" x="80.285" y="56.082" width="1.106" height="2.67"/>
																				</defs>
																				<clipPath id="SVGID_43_">
																					<use xlink:href="#SVGID_42_"  overflow="visible"/>
																				</clipPath>
																				<path clip-path="url(#SVGID_43_)" fill="#3F2723" d="M81.393,56.173c-0.129,0.13-0.246,0.265-0.354,0.412
																					c-0.035,0.047-0.07,0.097-0.105,0.148c-0.127,0.188-0.237,0.391-0.33,0.601
																					c-0.024,0.054-0.048,0.107-0.065,0.164c-0.023,0.056-0.042,0.111-0.062,0.171
																					c-0.109,0.342-0.174,0.706-0.185,1.083c0-0.017-0.002-0.027-0.002-0.044v-0.004
																					c-0.001-0.015-0.004-0.032-0.004-0.045c0-0.998,0.388-1.901,1.016-2.577L81.393,56.173z"/>
																			</g>
																		</g>
																		<g>
																			<defs>
																				<path id="SVGID_44_" d="M70.789,68.341c0,0,0.001,0,0.001-0.002c0.002-2.086,1.691-3.777,3.777-3.777
																					c1.043,0,1.988,0.424,2.67,1.105c0.004,0.002,0.005,0.004,0.005,0.004c0.683,0.682,1.104,1.628,1.104,2.67
																					c0,1.043-0.423,1.987-1.104,2.67c-0.686,0.685-1.632,1.108-2.675,1.108
																					C72.482,72.119,70.789,70.428,70.789,68.341 M81.396,61.518c0,0-0.001-0.003-0.003-0.003
																					c-0.684-0.683-1.104-1.628-1.104-2.671s0.422-1.986,1.104-2.671c0.685-0.686,1.63-1.106,2.673-1.106
																					c2.087,0,3.779,1.691,3.779,3.777v0.001c-0.001,2.088-1.693,3.777-3.779,3.777
																					C83.022,62.622,82.077,62.2,81.396,61.518 M77.238,52.02c-1.711,1.715-2.78,4.069-2.819,6.675
																					c-5.261,0.081-9.501,4.365-9.501,9.646c0,0.002-0.001,0.002-0.001,0.002c0,5.331,4.321,9.652,9.651,9.652
																					c2.666,0,5.08-1.08,6.827-2.827c1.713-1.716,2.781-4.069,2.821-6.674c5.26-0.082,9.5-4.368,9.501-9.647v-0.001
																					c0-5.331-4.321-9.65-9.652-9.65C81.4,49.193,78.985,50.271,77.238,52.02"/>
																			</defs>
																			<clipPath id="SVGID_45_">
																				<use xlink:href="#SVGID_44_"  overflow="visible"/>
																			</clipPath>
																			<g clip-path="url(#SVGID_45_)">
																				<g opacity="0.2">
																					<g>
																						<defs>
																							<rect id="SVGID_46_" x="81.301" y="54.879" width="6.545" height="3.965"/>
																						</defs>
																						<clipPath id="SVGID_47_">
																							<use xlink:href="#SVGID_46_"  overflow="visible"/>
																						</clipPath>
																						<path clip-path="url(#SVGID_47_)" fill="#BE3B26" d="M87.846,58.659v0.185c0-2.086-1.694-3.778-3.78-3.778
																							c-1.043,0-1.987,0.423-2.673,1.107l-0.091-0.091c0.029-0.031,0.06-0.064,0.091-0.096
																							c0.686-0.685,1.63-1.107,2.673-1.107C86.151,54.879,87.846,56.572,87.846,58.659"/>
																					</g>
																				</g>
																				<g>
																					<defs>
																						<path id="SVGID_48_" d="M70.789,68.341c0,0,0.001,0,0.001-0.002c0.002-2.086,1.691-3.777,3.777-3.777
																							c1.043,0,1.988,0.424,2.67,1.105c0.004,0.002,0.005,0.004,0.005,0.004c0.683,0.682,1.104,1.628,1.104,2.67
																							c0,1.043-0.423,1.987-1.104,2.67c-0.686,0.685-1.632,1.108-2.675,1.108
																							C72.482,72.119,70.789,70.428,70.789,68.341 M81.396,61.518c0,0-0.001-0.003-0.003-0.003
																							c-0.684-0.683-1.104-1.628-1.104-2.671s0.422-1.986,1.104-2.671c0.685-0.686,1.63-1.106,2.673-1.106
																							c2.087,0,3.779,1.691,3.779,3.777v0.001c-0.001,2.088-1.693,3.777-3.779,3.777
																							C83.022,62.622,82.077,62.2,81.396,61.518 M77.238,52.02c-1.711,1.715-2.78,4.069-2.819,6.675
																							c-5.261,0.081-9.501,4.365-9.501,9.646c0,0.002-0.001,0.002-0.001,0.002c0,5.331,4.321,9.652,9.651,9.652
																							c2.666,0,5.08-1.08,6.827-2.827c1.713-1.716,2.781-4.069,2.821-6.674c5.26-0.082,9.5-4.368,9.501-9.647
																							v-0.001c0-5.331-4.321-9.65-9.652-9.65C81.4,49.193,78.985,50.271,77.238,52.02"/>
																					</defs>
																					<clipPath id="SVGID_49_">
																						<use xlink:href="#SVGID_48_"  overflow="visible"/>
																					</clipPath>
																					<g clip-path="url(#SVGID_49_)">
																						<g opacity="0.2">
																							<g>
																								<defs>
																									<rect id="SVGID_50_" x="81.3" y="68.491" width="2.916" height="6.676"/>
																								</defs>
																								<clipPath id="SVGID_51_">
																									<use xlink:href="#SVGID_50_"  overflow="visible"/>
																								</clipPath>
																								<path clip-path="url(#SVGID_51_)" fill="#3F2723" d="M84.216,68.491c-0.003,0.244-0.016,0.485-0.036,0.726
																									c-0.037,0.399-0.098,0.791-0.179,1.176c-0.05,0.225-0.105,0.449-0.171,0.667
																									c-0.001,0.013-0.006,0.021-0.01,0.032c-0.021,0.068-0.041,0.137-0.062,0.203
																									c-0.096,0.296-0.202,0.586-0.325,0.867c-0.031,0.07-0.062,0.139-0.093,0.207
																									c-0.128,0.281-0.271,0.553-0.425,0.817c-0.069,0.121-0.145,0.238-0.216,0.355
																									c-0.012,0.018-0.022,0.03-0.033,0.05c-0.037,0.059-0.077,0.113-0.115,0.173
																									c-0.172,0.252-0.355,0.498-0.55,0.731c-0.086,0.103-0.174,0.205-0.265,0.306
																									c-0.061,0.069-0.124,0.136-0.186,0.2c-0.053,0.055-0.104,0.107-0.157,0.162L81.3,75.072
																									c0.031-0.03,0.062-0.061,0.096-0.092c0.055-0.054,0.104-0.107,0.157-0.162
																									c0.062-0.065,0.125-0.133,0.186-0.199c0.091-0.104,0.179-0.205,0.265-0.307
																									c0.193-0.234,0.378-0.479,0.55-0.732c0.038-0.059,0.078-0.116,0.115-0.174
																									c0.011-0.017,0.021-0.03,0.033-0.047c0.071-0.117,0.146-0.238,0.216-0.358
																									c0.153-0.265,0.297-0.535,0.425-0.815c0.03-0.07,0.062-0.138,0.093-0.209
																									c0.123-0.281,0.229-0.57,0.325-0.867c0.021-0.065,0.042-0.133,0.062-0.201
																									c0.004-0.01,0.009-0.021,0.01-0.031c0.064-0.221,0.121-0.443,0.171-0.668
																									c0.081-0.386,0.142-0.775,0.179-1.176c0.014-0.18,0.024-0.358,0.031-0.54h0.002h0.002V68.491z"/>
																							</g>
																						</g>
																						<g>
																							<defs>
																								<path id="SVGID_52_" d="M70.789,68.341c0,0,0.001,0,0.001-0.002c0.002-2.086,1.691-3.777,3.777-3.777
																									c1.043,0,1.988,0.424,2.67,1.105c0.004,0.002,0.005,0.004,0.005,0.004c0.683,0.682,1.104,1.628,1.104,2.67
																									c0,1.043-0.423,1.987-1.104,2.67c-0.686,0.685-1.632,1.108-2.675,1.108
																									C72.482,72.119,70.789,70.428,70.789,68.341 M81.396,61.518c0,0-0.001-0.003-0.003-0.003
																									c-0.684-0.683-1.104-1.628-1.104-2.671s0.422-1.986,1.104-2.671c0.685-0.686,1.63-1.106,2.673-1.106
																									c2.087,0,3.779,1.691,3.779,3.777v0.001c-0.001,2.088-1.693,3.777-3.779,3.777
																									C83.022,62.622,82.077,62.2,81.396,61.518 M77.238,52.02c-1.711,1.715-2.78,4.069-2.819,6.675
																									c-5.261,0.081-9.501,4.365-9.501,9.646c0,0.002-0.001,0.002-0.001,0.002c0,5.331,4.321,9.652,9.651,9.652
																									c2.666,0,5.08-1.08,6.827-2.827c1.713-1.716,2.781-4.069,2.821-6.674c5.26-0.082,9.5-4.368,9.501-9.647
																									v-0.001c0-5.331-4.321-9.65-9.652-9.65C81.4,49.193,78.985,50.271,77.238,52.02"/>
																							</defs>
																							<clipPath id="SVGID_53_">
																								<use xlink:href="#SVGID_52_"  overflow="visible"/>
																							</clipPath>
																							<path clip-path="url(#SVGID_53_)" fill="#557EBF" d="M74.568,72.119c-2.086,0-3.777-1.691-3.777-3.778
																								c0,0,0,0,0-0.002h-5.873c0,0.002-0.001,0.002-0.001,0.002c0,5.331,4.321,9.651,9.651,9.651
																								c2.666,0,5.08-1.08,6.827-2.826l-4.152-4.153C76.559,71.695,75.611,72.119,74.568,72.119"/>
																						</g>
																						<g id="Layer_2_copy_3">
																							<defs>
																								<path id="SVGID_54_" d="M70.789,68.341c0,0,0.001,0,0.001-0.002c0.002-2.086,1.691-3.777,3.777-3.777
																									c1.043,0,1.988,0.424,2.67,1.105c0.004,0.002,0.005,0.004,0.005,0.004c0.683,0.682,1.104,1.628,1.104,2.67
																									c0,1.043-0.423,1.987-1.104,2.67c-0.686,0.685-1.632,1.108-2.675,1.108
																									C72.482,72.119,70.789,70.428,70.789,68.341 M81.396,61.518c0,0-0.001-0.003-0.003-0.003
																									c-0.684-0.683-1.104-1.628-1.104-2.671s0.422-1.986,1.104-2.671c0.685-0.686,1.63-1.106,2.673-1.106
																									c2.087,0,3.779,1.691,3.779,3.777v0.001c-0.001,2.088-1.693,3.777-3.779,3.777
																									C83.022,62.622,82.077,62.2,81.396,61.518 M77.238,52.02c-1.711,1.715-2.78,4.069-2.819,6.675
																									c-5.261,0.081-9.501,4.365-9.501,9.646c0,0.002-0.001,0.002-0.001,0.002c0,5.331,4.321,9.652,9.651,9.652
																									c2.666,0,5.08-1.08,6.827-2.827c1.713-1.716,2.781-4.069,2.821-6.674c5.26-0.082,9.5-4.368,9.501-9.647
																									v-0.001c0-5.331-4.321-9.65-9.652-9.65C81.4,49.193,78.985,50.271,77.238,52.02"/>
																							</defs>
																							<clipPath id="SVGID_55_">
																								<use xlink:href="#SVGID_54_"  overflow="visible"/>
																							</clipPath>
																							<g clip-path="url(#SVGID_55_)">
																								<g opacity="0.2">
																									<g>
																										<defs>
																											<rect id="SVGID_56_" x="64.917" y="68.339" width="16.479" height="9.653"/>
																										</defs>
																										<clipPath id="SVGID_57_">
																											<use xlink:href="#SVGID_56_"  overflow="visible"/>
																										</clipPath>
																										<path clip-path="url(#SVGID_57_)" fill="#2D3079" d="M81.396,75.166
																											c-1.747,1.746-4.163,2.826-6.827,2.826c-5.33,0-9.65-4.319-9.65-9.651v-0.002h0.004
																											c0.099,5.246,4.379,9.468,9.646,9.468c1.332,0,2.604-0.27,3.758-0.759
																											c1.113-0.472,2.119-1.146,2.975-1.978L81.396,75.166z"/>
																									</g>
																								</g>
																								<g>
																									<defs>
																										<path id="SVGID_58_" d="M70.789,68.341c0,0,0.001,0,0.001-0.002c0.002-2.086,1.691-3.777,3.777-3.777
																											c1.043,0,1.988,0.424,2.67,1.105c0.004,0.002,0.005,0.004,0.005,0.004
																											c0.683,0.682,1.104,1.628,1.104,2.67c0,1.043-0.423,1.987-1.104,2.67
																											c-0.686,0.685-1.632,1.108-2.675,1.108C72.482,72.119,70.789,70.428,70.789,68.341 M81.396,61.518
																											c0,0-0.001-0.003-0.003-0.003c-0.684-0.683-1.104-1.628-1.104-2.671s0.422-1.986,1.104-2.671
																											c0.685-0.686,1.63-1.106,2.673-1.106c2.087,0,3.779,1.691,3.779,3.777v0.001
																											c-0.001,2.088-1.693,3.777-3.779,3.777C83.022,62.622,82.077,62.2,81.396,61.518 M77.238,52.02
																											c-1.711,1.715-2.78,4.069-2.819,6.675c-5.261,0.081-9.501,4.365-9.501,9.646
																											c0,0.002-0.001,0.002-0.001,0.002c0,5.331,4.321,9.652,9.651,9.652c2.666,0,5.08-1.08,6.827-2.827
																											c1.713-1.716,2.781-4.069,2.821-6.674c5.26-0.082,9.5-4.368,9.501-9.647v-0.001
																											c0-5.331-4.321-9.65-9.652-9.65C81.4,49.193,78.985,50.271,77.238,52.02"/>
																									</defs>
																									<clipPath id="SVGID_59_">
																										<use xlink:href="#SVGID_58_"  overflow="visible"/>
																									</clipPath>
																									<g clip-path="url(#SVGID_59_)">
																										<g opacity="0.2">
																											<g>
																												<defs>
																													<rect id="SVGID_60_" x="70.789" y="68.339" width="7.559" height="3.966"/>
																												</defs>
																												<clipPath id="SVGID_61_">
																													<use xlink:href="#SVGID_60_"  overflow="visible"/>
																												</clipPath>
																												<path clip-path="url(#SVGID_61_)" fill="#FFFFFF" d="M70.79,68.525
																													C70.79,68.526,70.79,68.526,70.79,68.525c0,2.09,1.691,3.779,3.777,3.779
																													c1.044,0,1.989-0.423,2.675-1.105c0.683-0.686,1.104-1.628,1.104-2.672
																													c0-0.032-0.004-0.062-0.004-0.094c-0.024,1.007-0.439,1.915-1.102,2.579
																													c-0.686,0.683-1.631,1.106-2.675,1.106c-2.086,0-3.777-1.691-3.777-3.778c0,0,0,0,0-0.002L70.79,68.525
																													L70.79,68.525z"/>
																											</g>
																										</g>
																									</g>
																								</g>
																							</g>
																							<g clip-path="url(#SVGID_55_)" enable-background="new    ">
																								
																									<text transform="matrix(1 0 0 1 64.7278 90.4736)" fill="#F3B41B" font-family="'MyriadPro-Regular'" font-size="11.1466">SO JOS DOS CAMPOS</text>
																							</g>
																						</g>
																						<g id="Layer_6" display="none">
																							<g display="inline">
																								<path fill="#FFFFFF" d="M-100.957-279.03c0,3.833-3.107,6.94-6.94,6.94h-52.919
																									c-3.833,0-6.939-3.107-6.939-6.94v-52.918c0-3.833,3.106-6.939,6.939-6.939h52.919
																									c3.833,0,6.94,3.107,6.94,6.939V-279.03z"/>
																								<path fill="#CCCCCC" d="M-107.897-271.656h-52.919c-4.066,0-7.375-3.308-7.375-7.374v-52.918
																									c0-4.065,3.308-7.374,7.375-7.374h52.919c4.066,0,7.374,3.309,7.374,7.374v52.918
																									C-100.523-274.964-103.831-271.656-107.897-271.656z M-160.816-338.455c-3.588,0-6.507,2.918-6.507,6.506
																									v52.918c0,3.587,2.919,6.507,6.507,6.507h52.919c3.587,0,6.507-2.92,6.507-6.507v-52.918
																									c0-3.588-2.92-6.506-6.507-6.506H-160.816z"/>
																							</g>
																							<g display="inline">
																								<g>
																									<path fill="#557EBF" d="M-106.888-282.443c0,0.486-0.397,0.886-0.885,0.886h-29.331
																										c-0.485,0-0.885-0.398-0.885-0.886v-8.715c0-0.486,0.398-0.885,0.885-0.885h29.331
																										c0.486,0,0.885,0.397,0.885,0.885V-282.443z"/>
																								</g>
																								<path fill="#557EBF" d="M-130.443-282.067c-0.051,0.041-0.091,0.086-0.102,0.129
																									c-0.137,0.445,0.753,0.34,0.966,0.445c0.446,0.209,0.509,0.772,0.285,1.168
																									c-0.354,0.608,0.077,0.739,0.61,0.537c0.32-0.121,0.625-0.307,0.88-0.525
																									c0.313-0.261,0.568-0.597,0.919-0.81c0.358-0.209,0.759-0.352,1.174-0.413
																									c0.204-0.029,0.404-0.029,0.607-0.034c0.152-0.003,0.331-0.033,0.363-0.207
																									c0.047-0.249-0.333-0.439-0.536-0.493c-0.098-0.021-0.203-0.04-0.31-0.047
																									c-0.175-0.016-0.32-0.052-0.479,0.022c-0.192,0.087-0.421,0.094-0.632,0.099
																									c-0.531,0.018-1.062,0.025-1.592,0.034c-0.52,0.009-1.035,0.021-1.554,0.026
																									c-0.06,0-0.14,0.019-0.201,0.005c-0.03-0.009-0.056-0.035-0.078-0.04c-0.062-0.012-0.092-0.018-0.156,0.005
																									C-130.324-282.149-130.393-282.114-130.443-282.067z"/>
																							</g>
																							<g display="inline">
																								<g>
																									<path fill="#F3B41B" d="M-141.667-323.638c0,0.369-0.304,0.672-0.672,0.672h-18.58
																										c-0.369,0-0.672-0.303-0.672-0.672v-9.141c0-0.37,0.303-0.672,0.672-0.672h18.58
																										c0.368,0,0.672,0.302,0.672,0.672V-323.638z"/>
																								</g>
																								<path fill="#F3B41B" d="M-154.046-323.478c-0.052,0.041-0.088,0.087-0.103,0.132
																									c-0.136,0.444,0.754,0.336,0.968,0.444c0.445,0.211,0.509,0.771,0.282,1.166
																									c-0.349,0.609,0.078,0.741,0.613,0.54c0.319-0.122,0.624-0.305,0.882-0.525
																									c0.313-0.263,0.565-0.598,0.916-0.811c0.359-0.21,0.763-0.351,1.175-0.411
																									c0.203-0.03,0.403-0.03,0.609-0.033c0.151-0.006,0.331-0.035,0.363-0.21
																									c0.044-0.251-0.336-0.439-0.536-0.492c-0.099-0.022-0.206-0.042-0.313-0.05
																									c-0.171-0.014-0.315-0.047-0.476,0.024c-0.196,0.088-0.422,0.093-0.634,0.1
																									c-0.53,0.018-1.062,0.023-1.592,0.035c-0.518,0.011-1.034,0.019-1.551,0.023
																									c-0.061,0-0.143,0.021-0.203,0.005c-0.029-0.007-0.056-0.031-0.078-0.04
																									c-0.061-0.01-0.095-0.015-0.155,0.009C-153.926-323.556-153.995-323.522-154.046-323.478z"/>
																							</g>
																							<g display="inline">
																								<g>
																									<path fill="#0F9D58" d="M-106.959-299.665c0,0.743-0.608,1.352-1.353,1.352h-28.04
																										c-0.742,0-1.352-0.607-1.352-1.352v-32.414c0-0.744,0.607-1.352,1.352-1.352h28.04
																										c0.743,0,1.353,0.607,1.353,1.352V-299.665z"/>
																								</g>
																								<path fill="#0F9D58" d="M-133.588-299.36c-0.096,0.078-0.177,0.171-0.207,0.267
																									c-0.271,0.905,1.546,0.692,1.981,0.904c0.915,0.437,1.041,1.581,0.58,2.392
																									c-0.715,1.254,0.162,1.521,1.257,1.104c0.65-0.248,1.271-0.626,1.808-1.072
																									c0.639-0.534,1.154-1.222,1.877-1.654c0.731-0.439,1.551-0.727,2.398-0.851
																									c0.42-0.062,0.828-0.062,1.251-0.069c0.309-0.008,0.675-0.064,0.741-0.426
																									c0.096-0.517-0.688-0.902-1.094-1.007c-0.204-0.05-0.431-0.082-0.639-0.101
																									c-0.361-0.034-0.656-0.104-0.985,0.046c-0.394,0.179-0.858,0.192-1.291,0.201
																									c-1.088,0.029-2.175,0.052-3.267,0.073c-1.059,0.021-2.114,0.035-3.169,0.054
																									c-0.126,0.003-0.295,0.038-0.413,0.007c-0.064-0.016-0.115-0.07-0.164-0.082
																									c-0.124-0.027-0.191-0.033-0.32,0.012C-133.344-299.525-133.478-299.451-133.588-299.36z"/>
																							</g>
																							<g display="inline">
																								<g>
																									<path fill="#DC4637" d="M-141.029-282.209c0,0.723-0.591,1.312-1.312,1.312h-17.855
																										c-0.723,0-1.312-0.591-1.312-1.312v-36.308c0-0.723,0.591-1.313,1.312-1.313h17.855
																										c0.723,0,1.312,0.591,1.312,1.313V-282.209z"/>
																								</g>
																								<path fill="#DC4637" d="M-158.617-281.943c-0.095,0.079-0.175,0.174-0.203,0.27
																									c-0.275,0.906,1.541,0.694,1.98,0.904c0.915,0.436,1.042,1.58,0.578,2.391
																									c-0.713,1.254,0.163,1.522,1.257,1.104c0.653-0.248,1.271-0.626,1.808-1.073
																									c0.643-0.532,1.154-1.22,1.879-1.651c0.73-0.438,1.549-0.727,2.399-0.854
																									c0.417-0.058,0.83-0.058,1.247-0.066c0.312-0.007,0.675-0.065,0.743-0.427
																									c0.096-0.518-0.688-0.899-1.097-1.003c-0.199-0.055-0.423-0.085-0.639-0.104
																									c-0.357-0.033-0.652-0.104-0.984,0.047c-0.392,0.178-0.856,0.19-1.291,0.203
																									c-1.084,0.028-2.172,0.049-3.262,0.075c-1.059,0.017-2.116,0.034-3.172,0.048
																									c-0.124,0.007-0.297,0.038-0.415,0.009c-0.064-0.016-0.112-0.066-0.163-0.081
																									c-0.125-0.026-0.191-0.033-0.318,0.012C-158.373-282.104-158.506-282.031-158.617-281.943z"/>
																							</g>
																						</g>
																						<g id="Layer_2_copy_2" display="none">
																							<g display="inline">
																								<g>
																									<g>
																										<g>
																											<path fill="#F5BA38" d="M-93.161-353.233c0-1.115-0.913-2.029-2.03-2.029h-81.291
																												c-1.116,0-2.03,0.914-2.03,2.029v39.266c0,1.115,0.914,2.029,2.03,2.029h81.291
																												c1.117,0,2.03-0.914,2.03-2.029V-353.233z"/>
																										</g>
																										<path fill="#F5BA38" d="M-159.123-314.114c-0.161,0.136-0.301,0.291-0.354,0.456
																											c-0.466,1.544,2.647,1.183,3.397,1.538c1.568,0.745,1.785,2.704,0.993,4.08
																											c-1.225,2.138,0.279,2.594,2.152,1.885c1.116-0.423,2.181-1.064,3.099-1.834
																											c1.097-0.905,1.98-2.079,3.214-2.814c1.262-0.751,2.659-1.24,4.113-1.446
																											c0.717-0.106,1.419-0.106,2.143-0.123c0.531-0.015,1.154-0.113,1.273-0.727
																											c0.161-0.879-1.182-1.538-1.878-1.717c-0.346-0.085-0.73-0.141-1.096-0.175
																											c-0.616-0.053-1.124-0.174-1.686,0.079c-0.674,0.307-1.473,0.324-2.214,0.348
																											c-1.86,0.046-3.727,0.089-5.596,0.123c-1.811,0.035-3.623,0.064-5.432,0.092
																											c-0.216,0.006-0.508,0.063-0.709,0.013c-0.111-0.024-0.195-0.118-0.281-0.136
																											c-0.214-0.048-0.327-0.062-0.547,0.016C-158.705-314.396-158.931-314.267-159.123-314.114z"/>
																									</g>
																									<g>
																										<g>
																											<rect x="-172.839" y="-348.243" fill="none" width="79.98" height="27.045"/>
																											
																												<text transform="matrix(1.0074 0 0 1 -172.8396 -335.4219)" fill="#FFFFFF" font-family="'ArialMT'" font-size="18.059">KUALA</text>
																										</g>
																										
																											<text transform="matrix(1.0074 0 0 1 -172.7488 -319.4785)" fill="#FFFFFF" font-family="'ArialMT'" font-size="14.1446">LUMPUR</text>
																									</g>
																								</g>
																								<g>
																									<g>
																										<g>
																											<path fill="#414242" d="M-177.119-278.278c-0.424,0-0.756,0.144-1.003,0.429
																												c-0.244,0.286-0.366,0.674-0.366,1.172c0,0.512,0.117,0.905,0.354,1.184
																												c0.235,0.279,0.571,0.418,1.01,0.418c0.268,0,0.574-0.051,0.918-0.146v0.396
																												c-0.267,0.104-0.596,0.154-0.986,0.154c-0.567,0-1.006-0.176-1.312-0.523
																												c-0.309-0.348-0.462-0.846-0.462-1.485c0-0.402,0.072-0.755,0.223-1.06
																												c0.146-0.303,0.362-0.533,0.642-0.697c0.281-0.166,0.611-0.245,0.989-0.245
																												c0.403,0,0.757,0.073,1.058,0.225l-0.188,0.389C-176.537-278.208-176.828-278.278-177.119-278.278z"/>
																											<path fill="#414242" d="M-171.755-276.682c0,0.623-0.157,1.112-0.469,1.473
																												c-0.312,0.356-0.744,0.537-1.299,0.537c-0.566,0-1.006-0.178-1.312-0.529
																												c-0.309-0.35-0.462-0.846-0.462-1.488c0-0.633,0.153-1.127,0.464-1.475
																												c0.309-0.35,0.748-0.523,1.315-0.523c0.554,0,0.984,0.177,1.295,0.533
																												C-171.912-277.801-171.755-277.309-171.755-276.682z M-174.824-276.682c0,0.528,0.111,0.928,0.334,1.202
																												c0.223,0.271,0.543,0.406,0.968,0.406c0.426,0,0.749-0.133,0.966-0.406
																												c0.219-0.272,0.326-0.674,0.326-1.202c0-0.525-0.106-0.923-0.324-1.193
																												c-0.217-0.273-0.538-0.408-0.963-0.408c-0.428,0-0.75,0.137-0.973,0.41
																												C-174.712-277.603-174.824-277.204-174.824-276.682z"/>
																											<path fill="#414242" d="M-167.621-274.728h-0.512l-2.104-3.272h-0.021
																												c0.028,0.383,0.043,0.736,0.043,1.057v2.218h-0.414v-3.9h0.506l2.099,3.26h0.021
																												c-0.005-0.047-0.014-0.201-0.024-0.463c-0.012-0.26-0.016-0.447-0.014-0.559v-2.238h0.42V-274.728
																												L-167.621-274.728z"/>
																											<path fill="#414242" d="M-163.289-274.728h-0.511l-2.104-3.272h-0.021
																												c0.027,0.383,0.043,0.736,0.043,1.057v2.218h-0.414v-3.9h0.506l2.099,3.26h0.021
																												c-0.002-0.047-0.011-0.201-0.022-0.463c-0.012-0.26-0.016-0.447-0.014-0.559v-2.238h0.418
																												L-163.289-274.728L-163.289-274.728z"/>
																											<path fill="#414242" d="M-159.814-274.728h-2.146v-3.899h2.146v0.402h-1.696v1.258h1.595v0.397h-1.595
																												v1.437h1.696V-274.728z"/>
																											<path fill="#414242" d="M-157.043-278.278c-0.423,0-0.758,0.144-1.003,0.429
																												c-0.244,0.286-0.367,0.674-0.367,1.172c0,0.512,0.119,0.905,0.354,1.184
																												c0.234,0.279,0.571,0.418,1.01,0.418c0.269,0,0.573-0.051,0.919-0.146v0.396
																												c-0.268,0.104-0.597,0.154-0.986,0.154c-0.568,0-1.005-0.176-1.312-0.523
																												c-0.31-0.348-0.464-0.846-0.464-1.485c0-0.402,0.074-0.755,0.224-1.06
																												c0.146-0.303,0.361-0.533,0.643-0.697c0.279-0.166,0.609-0.245,0.988-0.245
																												c0.403,0,0.756,0.073,1.058,0.225l-0.188,0.389C-156.461-278.208-156.752-278.278-157.043-278.278z"/>
																											<path fill="#414242" d="M-153.837-274.728h-0.446v-3.497h-1.219v-0.402h2.886v0.402h-1.221V-274.728
																												L-153.837-274.728z"/>
																										</g>
																										<g>
																											<path fill="#414242" d="M-144.221-274.728v-3.899h0.448v3.899H-144.221z"/>
																											<path fill="#414242" d="M-139.442-274.728h-0.51l-2.104-3.272h-0.021
																												c0.028,0.383,0.043,0.736,0.043,1.057v2.218h-0.414v-3.9h0.506l2.099,3.26h0.021
																												c-0.004-0.047-0.012-0.201-0.023-0.463c-0.014-0.26-0.018-0.447-0.014-0.559v-2.238h0.418V-274.728z"/>
																											<path fill="#414242" d="M-137.665-274.728h-0.449v-3.899h2.146v0.402h-1.697v1.428h1.596v0.401h-1.596
																												V-274.728L-137.665-274.728z"/>
																											<path fill="#414242" d="M-131.722-276.682c0,0.623-0.155,1.112-0.467,1.473
																												c-0.311,0.356-0.744,0.537-1.299,0.537c-0.568,0-1.006-0.178-1.312-0.529
																												c-0.31-0.35-0.464-0.846-0.464-1.488c0-0.633,0.154-1.127,0.466-1.475
																												c0.307-0.35,0.746-0.523,1.315-0.523c0.553,0,0.984,0.177,1.295,0.533
																												C-131.876-277.801-131.722-277.309-131.722-276.682z M-134.788-276.682c0,0.528,0.111,0.928,0.334,1.202
																												c0.221,0.271,0.543,0.406,0.967,0.406c0.426,0,0.748-0.133,0.967-0.406
																												c0.217-0.272,0.326-0.674,0.326-1.202c0-0.525-0.108-0.923-0.324-1.193
																												c-0.219-0.273-0.539-0.408-0.963-0.408c-0.428,0-0.752,0.137-0.973,0.41
																												C-134.677-277.603-134.788-277.204-134.788-276.682z"/>
																											<path fill="#414242" d="M-130.146-276.348v1.62h-0.446v-3.899h1.055c0.473,0,0.82,0.092,1.049,0.274
																												c0.223,0.183,0.336,0.46,0.336,0.826c0,0.517-0.258,0.865-0.772,1.047l1.045,1.752h-0.529l-0.932-1.62
																												H-130.146z M-130.146-276.741h0.613c0.314,0,0.549-0.062,0.695-0.188
																												c0.146-0.129,0.221-0.32,0.221-0.572c0-0.26-0.074-0.445-0.225-0.562c-0.15-0.112-0.394-0.17-0.726-0.17
																												h-0.58L-130.146-276.741L-130.146-276.741z"/>
																											<path fill="#414242" d="M-125.288-274.728l-1.308-3.459h-0.02c0.023,0.275,0.037,0.601,0.037,0.979
																												v2.479h-0.414v-3.899h0.676l1.217,3.219h0.021l1.229-3.219h0.668v3.899h-0.446v-2.514
																												c0-0.287,0.012-0.602,0.037-0.938h-0.021l-1.315,3.452H-125.288z"/>
																										</g>
																										<g>
																											<path fill="#414242" d="M-113.737-274.728v-3.899h0.447v3.899H-113.737z"/>
																											<path fill="#414242" d="M-108.96-274.728h-0.511l-2.104-3.272h-0.021
																												c0.027,0.383,0.044,0.736,0.044,1.057v2.218h-0.414v-3.9h0.506l2.098,3.26h0.021
																												c-0.002-0.047-0.011-0.201-0.021-0.463c-0.014-0.26-0.018-0.447-0.014-0.559v-2.238h0.418
																												L-108.96-274.728L-108.96-274.728z"/>
																											<path fill="#414242" d="M-105.46-275.766c0,0.346-0.123,0.612-0.369,0.805
																												c-0.244,0.192-0.578,0.289-1,0.289c-0.455,0-0.81-0.062-1.053-0.181v-0.438
																												c0.157,0.068,0.327,0.121,0.516,0.158c0.186,0.041,0.371,0.059,0.553,0.059
																												c0.299,0,0.523-0.057,0.676-0.17c0.152-0.115,0.226-0.275,0.226-0.479c0-0.136-0.027-0.244-0.08-0.33
																												s-0.143-0.166-0.268-0.24c-0.128-0.074-0.316-0.154-0.572-0.248c-0.359-0.129-0.613-0.283-0.771-0.461
																												c-0.153-0.18-0.229-0.41-0.229-0.697c0-0.299,0.113-0.539,0.334-0.717
																												c0.225-0.178,0.521-0.268,0.887-0.268c0.383,0,0.734,0.069,1.055,0.215l-0.139,0.393
																												c-0.318-0.133-0.627-0.201-0.928-0.201c-0.236,0-0.422,0.052-0.556,0.152
																												c-0.133,0.107-0.198,0.248-0.198,0.43c0,0.138,0.022,0.248,0.071,0.334
																												c0.05,0.086,0.132,0.166,0.25,0.238c0.115,0.072,0.293,0.152,0.535,0.238
																												c0.402,0.145,0.683,0.303,0.832,0.471C-105.536-276.251-105.46-276.032-105.46-275.766z"/>
																											<path fill="#414242" d="M-101.962-277.491c0,0.396-0.134,0.697-0.4,0.912
																												c-0.266,0.211-0.645,0.318-1.141,0.318h-0.453v1.532h-0.447v-3.899h1
																												C-102.442-278.628-101.962-278.249-101.962-277.491z M-103.956-276.651h0.401
																												c0.398,0,0.687-0.063,0.863-0.194c0.176-0.129,0.267-0.339,0.267-0.621c0-0.261-0.084-0.453-0.25-0.58
																												c-0.168-0.125-0.429-0.188-0.779-0.188h-0.502V-276.651z"/>
																											<path fill="#414242" d="M-100.888-274.728v-3.899h0.447v3.899H-100.888z"/>
																											<path fill="#414242" d="M-98.667-276.348v1.62h-0.447v-3.899h1.057c0.472,0,0.82,0.092,1.045,0.274
																												c0.226,0.183,0.339,0.46,0.339,0.826c0,0.517-0.259,0.865-0.775,1.047l1.047,1.752h-0.529l-0.934-1.62
																												H-98.667z M-98.667-276.741h0.612c0.314,0,0.548-0.062,0.695-0.188c0.148-0.129,0.224-0.32,0.224-0.572
																												c0-0.26-0.076-0.445-0.228-0.562c-0.15-0.112-0.393-0.17-0.723-0.17h-0.582L-98.667-276.741
																												L-98.667-276.741z"/>
																											<path fill="#414242" d="M-93.368-274.728h-2.146v-3.899h2.146v0.402h-1.697v1.258h1.597v0.397h-1.597
																												v1.437h1.697V-274.728z"/>
																										</g>
																										<path fill="#414242" d="M-148.626-276.583c0,0.289-0.23,0.516-0.515,0.516
																											c-0.283,0-0.515-0.227-0.515-0.516s0.23-0.521,0.515-0.521
																											C-148.857-277.103-148.626-276.872-148.626-276.583z"/>
																										<path fill="#414242" d="M-118.155-276.583c0,0.289-0.229,0.516-0.51,0.516
																											c-0.285,0-0.517-0.227-0.517-0.516s0.23-0.521,0.517-0.521
																											C-118.385-277.103-118.155-276.872-118.155-276.583z"/>
																									</g>
																									<g>
																										<g>
																											<path fill="#414242" d="M-142.311-296.979h8.729v10.901c-2.371,0.812-4.978,1.217-7.815,1.217
																												c-3.117,0-5.524-0.903-7.229-2.711c-1.7-1.809-2.552-4.385-2.552-7.731c0-3.263,0.933-5.804,2.796-7.621
																												c1.861-1.816,4.471-2.726,7.826-2.726c1.273,0,2.475,0.119,3.605,0.359
																												c1.127,0.239,2.113,0.543,2.951,0.913l-1.729,4.288c-1.457-0.719-3.057-1.08-4.799-1.08
																												c-1.597,0-2.829,0.52-3.699,1.557c-0.873,1.037-1.308,2.521-1.308,4.448
																												c0,1.891,0.394,3.332,1.183,4.322c0.788,0.992,1.924,1.485,3.409,1.485c0.812,0,1.559-0.075,2.242-0.235
																												v-3.166h-3.611L-142.311-296.979L-142.311-296.979z"/>
																											<path fill="#414242" d="M-129.462-305.358h7.053c2.748,0,4.789,0.406,6.119,1.224
																												c1.334,0.815,2,2.087,2,3.81c0,1.135-0.289,2.103-0.871,2.906c-0.582,0.801-1.346,1.315-2.295,1.547
																												v0.139c1.252,0.334,2.162,0.89,2.725,1.663c0.563,0.774,0.842,1.779,0.842,3.015
																												c0,1.836-0.688,3.28-2.065,4.338c-1.379,1.055-3.258,1.582-5.637,1.582h-7.869L-129.462-305.358
																												L-129.462-305.358z M-123.999-297.599h1.645c0.785,0,1.392-0.162,1.82-0.484s0.643-0.803,0.643-1.439
																												c0-1.133-0.856-1.7-2.571-1.7h-1.535L-123.999-297.599L-123.999-297.599z M-123.999-293.6v4.243h1.924
																												c1.705,0,2.559-0.719,2.559-2.157c0-0.673-0.229-1.188-0.686-1.55c-0.457-0.358-1.119-0.536-1.984-0.536
																												H-123.999z"/>
																											<path fill="#414242" d="M-102.257-296.979h8.729v10.901c-2.371,0.812-4.975,1.217-7.813,1.217
																												c-3.117,0-5.525-0.903-7.228-2.711c-1.703-1.809-2.553-4.385-2.553-7.731
																												c0-3.263,0.932-5.804,2.795-7.621c1.863-1.816,4.473-2.726,7.828-2.726c1.272,0,2.475,0.119,3.602,0.359
																												c1.131,0.239,2.115,0.543,2.953,0.913l-1.729,4.288c-1.457-0.719-3.058-1.08-4.8-1.08
																												c-1.594,0-2.827,0.52-3.698,1.557s-1.308,2.521-1.308,4.448c0,1.891,0.394,3.332,1.183,4.322
																												c0.789,0.992,1.926,1.485,3.407,1.485c0.812,0,1.56-0.075,2.242-0.235v-3.166h-3.61V-296.979z"/>
																										</g>
																									</g>
																									<g>
																										<path fill="#ED174F" d="M-171.352-288.228h0.002c0.836,0,1.675-0.312,2.312-0.948l2.938,2.93l0,0
																											c2.901-2.898,2.901-7.6,0-10.499l-2.94,2.94l0,0c1.272,1.274,1.275,3.344,0,4.621
																											C-169.69-288.544-170.508-288.229-171.352-288.228z"/>
																										<g>
																											<g>
																												<defs>
																													<path id="SVGID_62_" d="M-171.35-284.067l-0.002-4.16c0.845-0.002,1.662-0.315,2.312-0.956l0,0
																														c1.275-1.277,1.272-3.347,0-4.621l0,0l0,0l2.94-2.94c2.901,2.899,2.901,7.6,0,10.499l0,0
																														C-167.55-284.798-169.457-284.063-171.35-284.067L-171.35-284.067z"/>
																												</defs>
																												<clipPath id="SVGID_63_">
																													<use xlink:href="#SVGID_62_"  overflow="visible"/>
																												</clipPath>
																												<path opacity="0.43" clip-path="url(#SVGID_63_)" fill="#49A848" enable-background="new    " d="
																													M-155.982-295.876l-3.955-1.289c-0.263,0.797-0.82,1.486-1.629,1.901l0,0
																													c-1.607,0.813-3.568,0.174-4.393-1.433l0,0h-0.003l-3.706,1.885c2.188,4.298,5.953,5.306,9.988,3.255
																													l0,0C-157.855-292.487-156.57-294.073-155.982-295.876L-155.982-295.876z"/>
																											</g>
																										</g>
																										<path fill="#FFC425" d="M-158.531-304.307c-2.904-2.898-7.604-2.898-10.508,0l0,0l2.938,2.946
																											c1.281-1.274,3.349-1.274,4.625-0.002l0,0c0.646,0.642,0.958,1.467,0.958,2.312l0,0l0,0h4.161
																											C-156.355-300.95-157.085-302.864-158.531-304.307L-158.531-304.307z"/>
																										<path fill="#0079C1" d="M-176.596-286.239c2.897,2.904,7.598,2.906,10.5,0l0,0l-2.94-2.938
																											c-1.278,1.272-3.345,1.266-4.622,0l0,0c-0.639-0.646-0.954-1.476-0.954-2.312l0,0l0,0h-4.159
																											C-178.776-289.594-178.044-287.684-176.596-286.239L-176.596-286.239z"/>
																										<path fill="#49A942" d="M-160.501-299.023c-0.002,0.847-0.32,1.662-0.967,2.31
																											c-1.283,1.268-3.351,1.258-4.62-0.023l0,0c-2.889-2.912-7.589-2.932-10.505-0.047
																											c-1.451,1.444-2.193,3.348-2.198,5.245l4.163,0.021c0.002-0.84,0.319-1.67,0.965-2.307
																											c1.285-1.272,3.348-1.264,4.62,0.021l0.003-0.005l-0.003,0.005c2.891,2.909,7.593,2.93,10.504,0.043
																											c1.454-1.435,2.189-3.345,2.198-5.247L-160.501-299.023z"/>
																										<path fill="#ED174F" d="M-166.099-296.745h0.003c-1.271-1.275-1.271-3.344-0.003-4.615l-2.938-2.946
																											c-1.484,1.489-2.202,3.448-2.166,5.397C-169.348-298.874-167.509-298.159-166.099-296.745z"/>
																									</g>
																								</g>
																							</g>
																						</g>
																						<g id="Layer_5">
																						</g>
																					</g>
																				</g>
																			</g>
																		</g>
																	</g>
																</g>
															</g>
														</g>
													</g>
												</g>
											</g>
										</g>
									</g>
								</g>
							</g>
						</g>
					</g>
				</g>
			</g>
		</g>
	</g>
	<text transform="matrix(1 0 0 1 64.9387 89.2461)" fill="#F3B41B" font-family="'Roboto-Medium'" font-size="10.0455">SO JOS DOS CAMPOS</text>
</g>
</svg>
