<svg width="659" height="192" viewBox="0 0 659 192" xmlns="http://www.w3.org/2000/svg"><title>quero-educacao</title><g fill="none"><path d="M262.248 165.02c0 1.737.917 2.65 2.653 2.65h16.951c1.732 0 2.649-.913 2.649-2.65v-1.927c0-1.732-.917-2.649-2.649-2.649h-11.175v-6.504h7.852c1.732 0 2.65-.917 2.65-2.65v-1.927c0-1.736-.918-2.649-2.65-2.649h-7.852v-6.265h10.501c1.732 0 2.649-.913 2.649-2.65v-1.927c0-1.732-.917-2.649-2.649-2.649h-16.277c-1.736 0-2.653.917-2.653 2.65v29.148zm44.854 0c0 1.737.917 2.65 2.649 2.65h9.584c10.838 0 17.774-6.454 17.774-17.296 0-10.838-6.936-17.15-17.774-17.15h-9.584c-1.732 0-2.649.916-2.649 2.648v29.149zm8.428-4.576V140.45h3.468c5.682 0 9.393 3.373 9.393 9.925 0 6.602-3.566 10.07-9.393 10.07h-3.468zm44.082-5.442c0 7.754 5.682 13.248 14.447 13.248 8.671 0 14.353-5.494 14.353-13.248v-19.13c0-1.732-.913-2.649-2.649-2.649h-3.13c-1.732 0-2.65.917-2.65 2.65v19.129c0 3.612-2.358 5.54-5.97 5.54-3.614 0-5.973-1.928-5.973-5.54v-19.13c0-1.732-.916-2.649-2.648-2.649h-3.131c-1.732 0-2.649.917-2.649 2.65v19.129zm51.229-4.628c0 10.215 6.975 17.876 18.024 17.876 5.839 0 9.875-2.41 12.069-4.095 1.293-1.011 1.332-2.363.43-3.71l-1.37-1.882c-.98-1.442-2.234-1.493-3.684-.482-1.646 1.16-4.153 2.461-7.053 2.461-6.622 0-9.717-5.254-9.717-10.36 0-4.96 2.86-9.827 9.717-9.827 2.547 0 4.82 1.01 6.426 1.924 1.49.917 2.704.772 3.605-.721l1.215-1.975c.862-1.4.744-2.7-.588-3.664-2.037-1.395-5.72-3.276-11.05-3.276-10.618 0-18.024 7.712-18.024 17.731zm50.625 14.263c-.627 1.83.235 3.033 2.155 3.033h3.174c1.528 0 2.508-.721 2.939-2.214l1.45-5.012h10.736l1.45 5.012c.47 1.493 1.45 2.214 2.978 2.214h3.174c1.92 0 2.82-1.203 2.194-3.033l-9.992-29.247c-.47-1.493-1.45-2.167-2.978-2.167h-4.35c-1.527 0-2.507.674-2.977 2.167l-9.953 29.247zm11.677-10.936l1.998-6.7c.627-2.168 1.372-5.925 1.372-5.925h.117s.784 3.757 1.372 5.924l1.959 6.7h-6.818zm52.859 16.088c-.353 1.062-.157 1.69.666 1.736 1.175.098 1.998.337 1.998 1.156 0 .721-.51 1.156-1.332 1.156-.314 0-.705-.094-1.176-.094-.548 0-1.175.623-1.175 2.069 0 1.736 1.802 1.975 3.095 1.975 2.743 0 5.643-1.058 5.643-4.526 0-2.555-1.685-3.664-3.605-3.856l.235-1.202c5.172-.29 8.856-2.461 10.854-4.048 1.332-1.011 1.371-2.363.47-3.71l-1.371-1.882c-1.02-1.442-2.273-1.493-3.723-.482-1.606 1.16-4.114 2.461-7.014 2.461-6.66 0-9.717-5.254-9.717-10.36 0-4.96 2.821-9.827 9.717-9.827 2.547 0 4.82 1.01 6.387 1.924 1.528.917 2.704.772 3.644-.721l1.176-1.975c.901-1.4.784-2.7-.549-3.664-2.037-1.395-5.76-3.276-11.05-3.276-10.618 0-18.063 7.712-18.063 17.731 0 9.396 5.877 16.622 15.438 17.73l-.548 1.685zm35.814-5.152c-.627 1.83.235 3.033 2.155 3.033h3.173c1.529 0 2.508-.721 2.94-2.214l1.45-5.012h10.735l1.45 5.012c.47 1.493 1.45 2.214 2.978 2.214h3.174c1.92 0 2.821-1.203 2.194-3.033l-9.992-29.247c-.47-1.493-1.45-2.167-2.977-2.167h-4.35c-1.528 0-2.508.674-2.978 2.167l-9.952 29.247zm11.676-10.936l1.999-6.7c.627-2.168 1.371-5.925 1.371-5.925h.118s.744 3.757 1.371 5.924l1.96 6.7h-6.819zm-3.683-22.696h.549c1.175 0 1.959-.43 2.076-1.202.157-.866.784-1.544 1.764-1.544 1.841 0 3.017 2.891 6.857 2.891 3.174 0 5.368-2.213 5.368-5.297 0-1.446-.784-2.073-2.312-2.073h-.588c-1.293 0-2.116.529-2.233 1.3-.118 1.012-.666 1.447-1.568 1.447-1.88 0-3.056-2.892-6.857-2.892-3.174 0-5.368 2.457-5.368 5.157 0 1.492.862 2.213 2.312 2.213zm42.28 19.224c0 10.117 7.327 18.02 18.024 18.02 10.697 0 18.024-7.903 18.024-18.02 0-9.874-7.327-17.586-18.024-17.586-10.697 0-18.025 7.712-18.025 17.586zm8.737 0c0-5.635 3.84-9.874 9.287-9.874 5.446 0 9.286 4.24 9.286 9.874 0 5.878-3.84 10.313-9.286 10.313-5.447 0-9.287-4.435-9.287-10.313z" fill="#18ACC4"/><path d="M348.988 32.062c0-5.194 2.829-7.828 7.95-7.828h9.937c5.121 0 7.95 2.634 7.95 7.828v46.444c0 7.226 4.816 10.764 12.002 10.764 7.34 0 12.155-3.464 12.155-10.615V32.062c0-5.194 2.677-7.829 7.95-7.829h9.789c5.274 0 7.95 2.635 7.95 7.829v46.444c0 19.647-14.83 33.874-37.765 33.874-23.166 0-37.997-14.227-37.997-33.874V32.062h.079zm82.332 0c0-5.194 2.83-7.828 8.104-7.828h41.052c5.122 0 7.95 2.634 7.95 7.828v6.022c0 5.044-2.828 7.829-7.95 7.829h-23.318v10.463h16.665c5.278 0 8.103 2.785 8.103 7.829v6.022c0 5.192-2.825 7.83-8.103 7.83h-16.665v11.065h24.768c5.278 0 8.107 2.786 8.107 7.829v6.022c0 5.043-2.829 7.825-8.107 7.825h-42.502c-5.274 0-8.103-2.782-8.103-7.825V32.062zm63.07 0c0-5.194 2.826-7.828 8.104-7.828h23.925c8.104 0 13.609.451 17.508 1.806 9.937 3.237 17.276 13.249 17.276 26.045 0 8.807-3.668 19.043-12.23 24.24v.226s1.987 2.183 3.9 5.568l11.006 19.27c3.44 6.023.384 9.562-5.505 9.562h-11.391c-3.82 0-7.26-1.43-9.4-5.572l-11.164-21.226h-6.116v18.969c0 5.043-2.673 7.829-7.95 7.829h-9.785c-5.274 0-8.103-2.786-8.103-7.83V32.063h-.074zm31.344 30.41c6.112 0 9.173-2.633 9.173-9.182 0-2.258-.384-4.968-3.9-6.399-1.986-.828-4.05-.978-6.88-.978h-3.899v16.56h5.506zm85.773-39.669c27.902 0 46.546 19.421 46.546 44.262 0 25.442-18.644 45.39-46.546 45.39-27.903 0-46.406-19.873-46.406-45.39-.074-24.84 18.425-44.262 46.406-44.262zm0 66.468c11.77 0 19.874-9.561 19.874-22.206 0-12.044-8.104-21.077-19.874-21.077-11.622 0-19.725 9.033-19.725 21.077 0 12.723 8.028 22.206 19.725 22.206zM344.325 67.065c0-24.84-18.651-44.262-46.558-44.262-27.901 0-46.401 19.421-46.401 44.262 0 25.442 18.5 45.39 46.4 45.39 8.257 0 15.674-1.731 22.097-4.815l.685.674c4.13 4.067 10.933 4.067 15.063 0l.074-.075c3.977-3.914 4.13-10.234.458-14.376 5.2-7.453 8.182-16.712 8.182-26.798zm-66.358 0c0-12.044 8.104-21.077 19.724-21.077 11.77 0 19.874 9.033 19.874 21.077 0 2.633-.38 5.196-1.07 7.453-4.204-3.84-10.7-3.766-14.83.223l-.075.079c-3.9 3.836-4.13 10.011-.69 14.074-1.07.153-2.14.302-3.287.302-11.542.075-19.646-9.408-19.646-22.13z" fill="#FC9F00"/><path d="M142.245 115.379c2.923 26.465 13.146 50.288 28.251 68.67-11.688 5.113-24.6 7.95-38.173 7.95-52.67 0-95.369-42.714-95.369-95.405.002-17.217 4.561-33.372 12.539-47.318C30.932 56.392 14.18 67.171.125 80.725 20.594 33.238 67.811-.001 122.786-.001c10.654 0 21.018 1.248 30.951 3.606a94.68 94.68 0 0 1 20.587 7.312c-9.572 10.52-17.444 23.096-23.09 37.117a146.653 146.653 0 0 1 12.918 5.302c-9.134 17.797-14.388 37.914-14.65 59.23-2.454.87-4.871 1.81-7.257 2.813z" fill="#18ACC4"/><path d="M226.83 108.992c-15-24.106-36.781-43.549-62.678-55.656a133.89 133.89 0 0 1 24.584-33.674c23.624 17.365 38.956 45.36 38.956 76.934 0 4.231-.274 8.4-.807 12.487l-.055-.09c.02.004.043.012.063.016-4.428 34.105-26.864 62.56-57.459 75.499-12.644-20.41-19.944-44.485-19.944-70.26 0-.56.004-1.12.011-1.681 13.942-4.937 28.945-7.621 44.576-7.621a133.7 133.7 0 0 1 32.753 4.047z" fill="#FC9F00"/><path d="M149.368 112.617c-31.014 11.022-56.75 33.184-72.396 61.679 15.607 11.143 34.713 17.703 55.351 17.703 13.166 0 25.705-2.669 37.111-7.492-12.644-20.41-19.944-44.485-19.944-70.26 0-.427.004-.85.007-1.274.341-36.449 15.274-69.406 39.239-93.312v.001A94.96 94.96 0 0 0 156.938 4.4c-9.929 18.677-15.552 39.991-15.552 62.62 0 16.014 2.814 31.37 7.982 45.598z" fill="#003D52"/><path d="M164.152 53.336c25.897 12.107 47.679 31.55 62.678 55.656a133.71 133.71 0 0 0-32.753-4.048c-15.63 0-30.634 2.684-44.576 7.622.263-21.316 5.517-41.433 14.651-59.23z" fill="#FFF"/></g></svg>