<svg xmlns="http://www.w3.org/2000/svg" xmlns:xlink="http://www.w3.org/1999/xlink" width="260" height="260" viewBox="0 0 328 352">
    <defs>
        <path id="a" d="M0 .367h327.735v350.887H0z"/>
        <path id="c" d="M31.578 68.37s9.167-12.2 18.844-16.775c0 0 14.77-8.133 22.41-20.841 0 0 4.075-4.575 10.187-9.659 0 0 9.677-9.658 28.521-17.791 0 0 32.597-6.608 74.87 0 0 0 4.074-3.05 11.205-.508 0 0 10.186 3.558 16.298 4.066 0 0 17.826 6.1 31.068 19.317 0 0 8.659 6.213 19.354 8.19 0 0 12.224 7.568 18.845 15.701 0 0 7.13 11.692 9.168 12.2 0 0 5.093 7.625 7.13 13.725 0 0 5.603 6.608 8.659 13.216 0 0-1.019 8.642 6.62 20.333 0 0 4.075 6.1 0 16.775 0 0-1.98 2.033 1.812 6.1 0 0 2.263 3.05 2.773 8.133 0 0-1.019 5.592 2.546 9.658 0 0 4.075 9.659 2.547 18.3 0 0-1.528 8.642 3.056 14.742 0 0-.51 23.383 0 29.991 0 0 1.528 3.05-3.056 6.1 0 0-1.019 5.592-3.565 10.167 0 0-2.547 12.708-7.64 20.333 0 0-3.565 4.575-5.093 8.133 0 0-2.038 12.708-11.205 18.3 0 0-11.205 10.166-14.261 15.758 0 0-2.037 1.525-5.093 3.558 0 0-5.094 15.25-18.845 20.333 0 0-2.037 10.167-9.677 14.742 0 0-16.298 15.758-24.447 16.266 0 0-39.218 4.321-49.404 4.321 0 0-33.615-1.78-46.857-3.304 0 0-36.671-13.217-45.839-17.283 0 0-21.391-10.167-23.428-15.25 0 0-2.547-6.608-7.64-12.708 0 0-6.621-8.134-19.863-18.3 0 0-6.621 1.525-15.28-19.825 0 0-3.056-11.691-2.546-15.25 0 0 0-3.05-3.056-5.591 0 0-2.038-3.05 0-10.675 0 0-3.566-2.033-3.566-8.133 0 0-1.528-15.25-4.074-19.317 0 0-1.528-4.066 0-11.183 0 0-1.528-6.608-3.056-8.642 0 0 0-10.166 2.547-16.266 0 0 1.528-8.642.509-11.183 0 0 0-6.609 3.056-16.267 0 0-1.019-3.558-2.547-7.116 0 0-1.018-4.575 2.037-7.117 0 0 1.528-5.083.51-9.658 0 0-.51-5.592 3.565-10.675 0 0-.51-4.575 6.112-11.692 0 0 3.056-10.166 7.13-16.266l8.659-11.183z"/>
    </defs>
    <g fill="none" fill-rule="evenodd">
        <g>
            <mask id="b" fill="#fff">
                <use xlink:href="#a"/>
            </mask>
            <path fill="#78EC21" d="M31.578 68.37s9.167-12.2 18.844-16.775c0 0 14.77-8.133 22.41-20.841 0 0 4.075-4.575 10.187-9.659 0 0 9.677-9.658 28.521-17.791 0 0 32.597-6.608 74.87 0 0 0 4.074-3.05 11.205-.508 0 0 10.186 3.558 16.298 4.066 0 0 17.826 6.1 31.068 19.317 0 0 8.659 6.213 19.354 8.19 0 0 12.224 7.568 18.845 15.701 0 0 7.13 11.692 9.168 12.2 0 0 5.093 7.625 7.13 13.725 0 0 5.603 6.608 8.659 13.216 0 0-1.019 8.642 6.62 20.333 0 0 4.075 6.1 0 16.775 0 0-1.98 2.033 1.812 6.1 0 0 2.263 3.05 2.773 8.133 0 0-1.019 5.592 2.546 9.658 0 0 4.075 9.659 2.547 18.3 0 0-1.528 8.642 3.056 14.742 0 0-.51 23.383 0 29.991 0 0 1.528 3.05-3.056 6.1 0 0-1.019 5.592-3.565 10.167 0 0-2.547 12.708-7.64 20.333 0 0-3.565 4.575-5.093 8.133 0 0-2.038 12.708-11.205 18.3 0 0-11.205 10.166-14.261 15.758 0 0-2.037 1.525-5.093 3.558 0 0-5.094 15.25-18.845 20.333 0 0-2.037 10.167-9.677 14.742 0 0-16.298 15.758-24.447 16.266 0 0-39.218 4.321-49.404 4.321 0 0-33.615-1.78-46.857-3.304 0 0-36.671-13.217-45.839-17.283 0 0-21.391-10.167-23.428-15.25 0 0-2.547-6.608-7.64-12.708 0 0-6.621-8.134-19.863-18.3 0 0-6.621 1.525-15.28-19.825 0 0-3.056-11.691-2.546-15.25 0 0 0-3.05-3.056-5.591 0 0-2.038-3.05 0-10.675 0 0-3.566-2.033-3.566-8.133 0 0-1.528-15.25-4.074-19.317 0 0-1.528-4.066 0-11.183 0 0-1.528-6.608-3.056-8.642 0 0 0-10.166 2.547-16.266 0 0 1.528-8.642.509-11.183 0 0 0-6.609 3.056-16.267 0 0-1.019-3.558-2.547-7.116 0 0-1.018-4.575 2.037-7.117 0 0 1.528-5.083.51-9.658 0 0-.51-5.592 3.565-10.675 0 0-.51-4.575 6.112-11.692 0 0 3.056-10.166 7.13-16.266l8.659-11.183z" mask="url(#b)"/>
        </g>
        <path fill="#71CE20" d="M74.262 144.87c-.565-3.788-5.076 0-5.076 0-.94 2.084-10.903 10.039-10.903 10.039.188 5.493-2.444 12.31-2.444 12.31-3.196 6.441 0 26.33 0 26.33 3.76 8.334 6.58 27.464 6.58 27.464 3.007 20.645 15.038 34.093 15.038 34.093 2.632 3.978 9.775 2.652 9.775 2.652 4.136-.189 11.656 4.167 11.656 4.167 4.136 2.084 1.88-2.084 1.88-2.084-26.13-39.965-20.115-49.436-19.786-64.114.28-12.448-2.209-25.097-2.209-25.097-1.128-7.199 3.76-13.259 3.76-13.259 2.255-5.303-1.88-9.091-1.88-9.091s-1.128.379-1.692 6.44c0 0-4.119 8.452-4.888 14.726-.64 5.232-1.825 14.802-.422 22.161.736 3.864 1.516 8.582 1.927 14.632.363 5.372 3.295 19.62 1.039 21.513 0 0-1.616 2.823-3.86-1.436-2.932-5.567-6.767-21.404-6.955-30.685 0 0-2.117-16.474-.188-23.77 1.812-6.851 8.648-26.99 8.648-26.99M56.087 127.116s-1.156 8.742-4.335 13.818c0 0-3.757 5.963 4.335 1.712 0 0 4.912-3.123 1.733 3.082 0 0-13.004 29.608-12.426 42.298 0 0 1.734 10.753-1.156 13.836 0 0-2.312 3.648-2.023 8.442 0 0-2.6.318-2.312-8.442 0 0 2.6-15.528 1.734-21.732 0 0-2.023-3.383-4.912 1.128l-3.18 2.256v-8.178s13.872-17.765 11.27-33.839c0 0-1.155-2.256 2.602-6.485 0 0 7.514-12.69 8.67-7.896M116.643 83.998s6.636-.281 6.348 4.5c0 0-.578 6.467-11.253 7.03 0 0-12.695 3.375-15.869 7.311 0 0-5.77.844-9.81-3.093 0 0-3.173-3.656 10.099-11.53 0 0 9.81-10.405 20.485-4.218"/>
        <path fill="#71CE20" d="M133.201 130.316c-12.12 5.2-22.736 15.682-22.736 15.682-1.705 3.969-4.8 4.536-4.8 4.536-6.318 2.834-12.252 18.327-12.252 18.327-3.221 10.96-6.106 11.148-6.106 11.148-2.696 0-1.284-5.412-1.284-5.412 1.138-2.955 2.085-11.026 2.085-11.026 1.326-14.36 5.684-20.407 5.684-20.407 2.274-3.212 2.653-6.613 2.653-6.613-.569-5.668 1.515-5.668 1.515-5.668 2.274-.945 4.409-3.402 4.409-3.402 1.567-2.645 7.149-5.668 7.149-5.668 9.853-1.89 11.557-7.557 11.557-7.557 2.085-5.669 10.8-5.48 10.8-5.48 10.8-1.324 33.157 1.51 33.157 1.51 3.031 0 4.736 1.324 4.736 1.324 6.253 4.157 40.926 9.825 40.926 9.825 6.252 2.456 8.336 6.046 8.336 6.046 2.084 3.779 10.232 11.148 10.232 11.148 3.6 3.968 4.357-.567 4.357-.567 1.137-9.258-4.547-19.273-4.547-19.273-6.631-10.77-16.673-15.399-16.673-15.399-5.826-2.55-3.694-7.085-3.694-7.085.426-4.11-7.674-7.086-7.674-7.086-2.7-2.834.568-2.55.568-2.55 4.264-2.126-2.813-3.814-4.263-3.968-4.662-.498-8.87.098-11.794-.284-8.375-1.094-30.125-1.842-30.125-1.842-5.4.283-5.258-1.417-5.258-1.417 0-1.984 2.558-2.41 2.558-2.41l17.904-.141c3.695-1.417 1.137-2.834 1.137-2.834-5.684-5.81-19.752-2.834-19.752-2.834-3.694 3.118-16.625 1.822-16.625 1.822-6.82-.303-12.79 2.57-12.79 2.57-5.684 2.268-9.52-1.983-9.52-1.983-4.263-1.984-9.52 1.7-9.52 1.7-3.98 2.41-13.36 3.874-13.36 3.874-25.388 6.046-36.378 18.517-36.378 18.517-3.789 4.913 3.79 4.894 3.79 4.894 3.6-1.718 12.126-10.523 12.126-10.523 5.88-4.688 13.697-7.715 17.053-8.33 1.078-.198 1.611.49 1.515.921-.87 3.885-8.928 8.125-13.452 10.841-1.815 1.09-4.548 1.819-4.548 1.819-2.652 1.51-.758 5.272-.758 5.272-4.547 3.006-18.188 15.89-18.188 15.89-8.905 9.636-12.127 19.272-12.127 19.272-3.22 6.047-3.978 2.645-3.978 2.645-1.327-3.212-2.464 4.724-2.464 4.724-2.273 3.968-.378 6.802-.378 6.802 1.136 1.701 3.788 3.59 3.788 3.59-2.842 7.747-1.988 18.707-1.988 18.707-4.83-6.614-7.675-3.969-7.675-3.969-3.221 5.48 5.305 10.015 5.305 10.015-4.168 3.968-1.136 15.871-1.136 15.871 6.631 12.282 3.506 25.509 3.506 25.509-6.345.567-2.938 6.613-2.938 6.613 6.632 3.78 5.115-3.779 5.115-3.779l2.843-2.267c3.221 9.258 15.81 24.752 15.81 24.752 3.118 3.59 5.031 3.59 5.031 3.59.947-1.323-3.032-6.991-3.032-6.991-5.683-4.724-6.252-12.47-6.252-12.47.19-4.724-4.114-11.338-4.114-11.338-2.978-4.723-1.001-6.613-1.001-6.613 1.136-1.323 2.719-4.535 2.719-4.535-.313-4.723 2.019-3.212 2.019-3.212s4.926.755 10.61 30.61c0 0 2.652 10.203 10.989 17.005 0 0 2.273 6.046-2.653 4.913 0 0-7.958-2.835-3.22 1.889 0 0 1.326 3.78 7.388 3.59 0 0 6.632 2.267 10.8 6.802 0 0 3.6 8.693-1.326 9.07 0 0-6.064-.755-9.663-7.369 0 0-9.473-1.7-11.747 1.322 0 0-7.011 1.134-9.284-8.502 0 0-5.306-16.44-10.232-9.448 0 0-6.632 6.425-5.685-12.943 0 0-.566-6.14-2.177-1.795 0 0-2.938 10.959-5.59 3.968 0 0-1.516-3.779-3.221-5.29 0 0-.948-3.024 0-5.669 0 0 3.22-1.51-5.685-7.368 0 0-.759-30.61 1.705-37.034 0 0 1.864-15.872-1.815-5.102 0 0 .868-9.258-6.71-15.115 0 0-1.517.188-1.706-1.89 0 0 1.326-3.59 3.031-5.48 0 0 10.23-16.25 10.99-27.586 0 0 10.99 2.645 4.357-9.258 0 0-2.652-3.212.759-4.913 0 0 11.178-2.871 7.01-17.213 0 0 9.664-4.814 7.959-10.523 0 0 16.058-2.024.71-1.599 0 0 11.937-10.203 8.242-16.863 0 0-5.4-4.11-.71-6.377 0 0 2.984 4.535 6.82-2.693 0 0 .853-.566 1.99 3.26 0 0 .71 5.952 11.51-7.511 0 0 8.385-5.952 7.532-7.652 0 0-.813-2.41-2.68-.85 0 0-1.014 2.267-6.841 2.125 0 0-1.847-.142-2.415 4.677 0 0-3.695 3.967-5.116-1.843 0 0 .568-4.251 4.263-7.794l8.952-8.078s3.695-3.542 6.253 0l12.22.851s6.963-8.503 10.658-10.77c0 0 3.553 4.393 6.963 5.952 0 0 6.732 2.55 8.837-7.086 0 0 .684 6.802 6.936 6.377 0 0 5.116-.992 6.253-6.377 0 0 4.263-2.976 13.5-2.693 0 0 4.263.568 8.24 2.268 0 0 3.554 2.976 6.396 2.976 0 0 8.81-1.275 15.205-.142 0 0 6.252.85 8.241 2.976 0 0-.568 1.7-2.558 1.56 0 0-8.952-2.694-12.078-.71 0 0-2.7 1.843 0 3.827 0 0 4.974 2.267 11.368 1.842 0 0 .569 2.55-3.41 2.126 0 0-4.121-2.268-5.542.141 0 0-4.88 3.826 11.415 7.605 0 0 15.158.293 20.842 4.682 0 0 1.515 3.632-1.895 4.01 0 0-5.305-4.998-9.095-4.01 0 0-1.515 1.743 11.369 9.3l13.263 8.962s7.958-.966 8.337 2.594c0 0 4.168 8.85-1.516 6.205 0 0-3.79-1.556-5.306-3.612 0 0-15.536-15.282-22.736-16.038 0 0-9.473 0 0 5.668 0 0 15.536 7.662 17.526 12.192 0 0-1.137 1.696-8.81-2.555 0 0-6.537-4.535-10.232-3.401 0 0-3.979.85-8.242-1.134 0 0-7.105-1.7-7.105.567 0 0-.13 4.142 11.653 3.401 0 0 8.241 4.535 14.778 5.385 0 0 10.232 3.117 11.652 5.101 0 0-.283 1.418-1.989 1.418 0 0-5.684 5.668 2.842 4.818 0 0 2.558-2.834 8.81 1.984 0 0 4.264 4.818 4.548 1.417 0 0-1.706-6.235-12.221-9.07 0 0 2.558-1.417 6.821-1.417l.568-1.984s0 2.551 4.832 4.252c0 0 11.084 8.371 14.494 12.263 0 0 3.41 2.06 5.969 0 0 0 1.562-1.352 3.552-1.352 0 0-.853-5.951-6.537-6.377 0 0-8.81 1.418-7.673-7.085 0 0 2.842-4.252 6.394-.425 0 0 1.99 2.834 3.41 5.101 0 0 1.99 1.276 4.406-1.275 0 0 3.268-3.543 7.247 1.275 0 0 8.526 14.313 11.368 17.997 0 0 4.548 5.527 6.395-1.133 0 0 2.131-8.22 8.526 2.267 0 0 6.963 7.511 10.658 10.629 0 0 .679 2.975 1.547 5.101 0 0 .868 2.55 2.29-3.401 0 0 1.562-2.55 1.42 4.818 0 0-1.26 6.66.01 12.47 0 0 3.401 10.77-.72 18.423 0 0-6.679 10.628-4.973 15.021 0 0 6.82-4.393 7.815-14.312 0 0 .568 5.952 0 10.77 0 0-1.563 1.842-3.268 2.976 0 0-5.116 5.668-.995 4.535 0 0 2.558-1.276 3.41-2.693 0 0 .995-1.56 2.274 1.842 0 0 3.126 10.062.853 14.455 0 0-1.137 1.842-.285 5.385 0 0 .426 8.503-1.563 8.644 0 0-2.984-3.118-4.12-.567 0 0-4.264 6.235-6.11 12.613 0 0-2.559 6.66-6.253 10.344 0 0-7.39 8.928-8.243 14.738 0 0-25.909 19.273-45.614 25.13 0 0-6.252.568-7.958 4.347 0 0-3.22 4.346-8.147 4.346 0 0-9.284-3.024-13.452-1.323 0 0-2.463 2.079-6.253 1.89 0 0-9.473-3.78-9.473 1.51 0 0-.19 5.859 5.116 8.881 0 0 1.515.379 1.137 3.78 0 0-1.895 2.645-6.632-2.646 0 0-7.01-6.802-6.82-13.415 0 0 1.325-7.37-6.443-7.37 0 0-16.294.757-16.484-6.801h4.358V257.1s0-1.7 6.631-.189c0 0 6.632 3.59 9.474.756 0 0 .758-3.212-7.2-3.779l16.673-1.134s.758 3.4 5.116 1.89c0 0 2.084-3.59 6.063-3.401 0 0 4.358 1.322 7.2-1.89 0 0 3.6-2.833 8.337-2.456 0 0 6.062-1.134 8.336 1.323 0 0-.379 2.833-4.168 3.023 0 0-7.688.29-9.103 2.64a1.498 1.498 0 0 0-.18 1.139c.757 3.4 2.652 3.212 9.283 2.078 0 0 30.694-8.124 31.641-16.438 0 0 2.558-2.504 4.263-2.08 0 0 1.564 2.551-1.137 4.819 0 0-1.705 4.534 3.269.425 0 0 19.468-13.037 13.215-15.872 0 0-2.558.425-1.705-2.55 0 0-3.268-3.401-6.11 2.692 0 0-2.274 5.81-9.663 9.211 0 0-2.7 1.276-1.421-1.134 0 0 23.73-20.973 25.294-32.876 0 0 1.705-4.251 1.847-9.07 0 0 .853-4.96 8.526-13.462 0 0 7.39-14.172 8.526-24.233 0 0 .426-3.968-1.989-1.276 0 0-7.674 8.645-8.953 17.998 0 0-2.415-12.612-1.99-27.634 0 0-.567-12.045-8.383-18.422 0 0-2.984-3.543-5.542-7.227 0 0-6.253-10.487-4.974-5.952 0 0 6.537 20.548 7.39 26.925 0 0 .568 2.55-1.28 2.976 0 0-2.273 1.7-2.983 9.92 0 0-1.563 18.705-5.542 19.98 0 0-.285-1.558.71-4.392 0 0 5.684-22.249 1.279-25.792 0 0-3.41-2.692-3.552-6.802 0 0-.142-2.834-2.416-2.834 0 0-.71-.142-1.279-2.41 0 0-3.127-5.809-2.984-2.125 0 0-.426 4.251-2.7 1.276 0 0-2.416-6.944-.71-9.07 0 0 1.989-2.267.568-3.543 0 0-6.679-7.794-9.38-11.761 0 0-8.667-5.244-5.968-.284 0 0 1.848 1.842 3.695 3.401 0 0 2.132 2.267 4.264 8.786 0 0 2.131 6.235 3.978 11.904 0 0 8.242 24.09 1.564 45.772 0 0-2.7 5.669-4.974 7.936 0 0 1.137-18.139-2.416-20.406 0 0-7.816.142-8.668 19.13 0 0-4.12 20.265-18.473 27.21 0 0-16.91 8.36-22.595 8.785 0 0-2.273.143-1.137-4.11 0 0 0-5.668-6.678 3.402 0 0-5.258 2.41-20.179 1.275 0 0-24.015-3.117-26.288-21.681 0 0-3.979-21.54 14.494-30.894 0 0 7.39-2.834 7.531 1.701 0 0 1.253 2.976-3.707 3.968 0 0-20.308 6.377-13.77 20.832 0 0 2.415 10.77 9.52 16.013 0 0 2.248-2.126 4.25.567 0 0 3.423 6.377 15.218 4.11 0 0 .852-2.41 2.842-.71 0 0 15.915 2.693 23.588-12.895 0 0 3.695-15.588-14.636-13.037 0 0-4.405 1.559-4.69 4.676 0 0 3.411.425 5.542 5.952 0 0 2.132 3.684 5.827 1.984 0 0 1.136 3.401-3.41 3.401 0 0-10.658-.142-12.932 3.968 0 0-2.984 1.7-5.116-.709 0 0-5.4-3.259-2.131-11.762 0 0 3.837-6.66-2.984-7.51 0 0-1.563 1.559-3.837.425 0 0-4.69-2.41-6.11 2.125 0 0-1.564 3.827-3.837 3.827 0 0-2.842 0-2.984 2.975 0 0-4.831-8.927 6.252-17.855 0 0 4.263-3.118 7.39 1.134 0 0 3.552 4.393 7.815-1.56 0 0 3.269-10.06 6.537-13.32 0 0 1.99-1.275 4.263 2.55 0 0 2.131 13.605 12.363 3.685 0 0 14.067-6.802 2.7-15.021 0 0-2.132 3.826-4.69.283 0 0-2.415-3.968-5.968-3.543 0 0-8.526-.283-13.642-3.4 0 0-15.773-6.52-20.746-21.682 0 0-2.416-1.56-3.837-.284 0 0-5.826 2.41-11.51 1.134 0 0-3.535.392-6.585 1.7"/>
        <path fill="#71CE20" d="M127.473 218.737s6.071-1.427 9.252 2.853c0 0 6.36 9.13 1.734 8.844 0 0-7.806-1.711-10.986-11.697"/>
        <path fill="#71CE20" d="M113.187 193.632s3.112 10.726 5.942 22.018c0 0 2.547 7.338 5.943 12.42 0 0 3.112 5.363 1.98 9.032 0 0-7.622-7.621-4.236 0 0 0 4.52 10.444 26.59 10.726 0 0 6.508 1.129 4.528 3.67 0 0-12.167 2.54-23.203-3.105 0 0-5.359-2.54-7.915-1.976 0 0-19.054-12.697-21.557-23.567 0 0-4.484-7.765-2.22-13.128 0 0 2.547-8.75 7.357.564 0 0-.85 7.396 2.808 5.377 0 0 .87-18.925.87-22.03 0 0 1.854-4.436 3.113 0"/>
        <path fill="#71E721" d="M111.155 87.816c2.286-3.084-3.634-3.62-3.634-3.62-2.152.804-14.933-.67-14.933-.67-3.768 4.022-10.496 6.97-10.496 6.97-6.861 2.28-18.702 18.638-18.702 18.638-3.23 8.58-14.8 24.133-14.8 24.133-12.512 16.76-13.454 34.86-13.454 34.86-.942 4.692 5.112 8.848 5.112 8.848 3.094 2.816 5.383 11.262 5.383 11.262 1.48 4.425 2.825-.134 2.825-.134 9.687-46.925 20.72-49.34 31.383-59.495 9.042-8.612 16.246-19.34 16.246-19.34 4.306-5.9 12.11-6.704 12.11-6.704 5.381-2.145 5.112-7.777 5.112-7.777s-1.076-.535-5.786 3.353c0 0-8.951 3.045-13.959 6.938-4.174 3.246-11.821 9.175-16.044 15.385-2.218 3.26-5.01 7.156-9.015 11.731-3.555 4.062-11.578 16.239-14.538 15.97 0 0-3.162.845-1.742-3.769 1.856-6.032 10.36-19.978 16.819-26.68 0 0 10.187-13.172 16.75-16.961 6.164-3.558 25.363-12.938 25.363-12.938M110.751 61.64s-7.086 5.409-12.958 6.811c0 0-6.913 1.633 1.807 4.222 0 0 5.685 1.187-.997 3.39 0 0-30.369 12.02-39.074 21.435 0 0-6.505 8.84-10.744 9.026 0 0-4.238.989-7.478 4.595 0 0-2.05-1.577 4.441-7.6 0 0 12.97-9.227 16.818-14.235 0 0 1.012-3.806-4.252-2.603l-3.847-.602 5.871-5.809s22.474-3.005 32.192-16.226c0 0 .81-2.404 6.478-2.804 0 0 14.374-3.806 11.743.4M183.818 74.577s4.813 4.45 1.203 7.685c0 0-5.014 4.247-12.836-2.832 0 0-11.23-6.47-16.244-5.864 0 0-4.614-3.438-4.614-9.1 0 0 .401-4.854 15.243-1.214 0 0 14.239-.607 17.248 11.325"/>
        <path fill="#71E721" d="M162.735 119.117c-12.277-4.878-27.239-4.951-27.239-4.951-4.025 1.606-6.62-.179-6.62-.179-6.486-2.454-21.692 4.328-21.692 4.328-10.064 5.487-12.24 3.583-12.24 3.583-1.91-1.904 2.934-4.74 2.934-4.74 2.904-1.29 9.306-6.338 9.306-6.338 11.137-9.234 18.517-10.439 18.517-10.439 3.891-.669 6.575-2.81 6.575-2.81 3.623-4.417 5.099-2.945 5.099-2.945 2.28.937 5.537.706 5.537.706 2.989-.768 9.089 1.034 9.089 1.034 8.32 5.621 13.551 2.81 13.551 2.81 5.502-2.542 11.54 3.748 11.54 3.748 8.588 6.692 22.408 24.491 22.408 24.491 2.147 2.141 2.415 4.282 2.415 4.282 1.476 7.361 22.006 35.868 22.006 35.868 2.683 6.157 1.61 10.172 1.61 10.172-1.207 4.148-.671 15.123-.671 15.123-.268 5.353 3.489 2.676 3.489 2.676 7.38-5.755 10.466-16.863 10.466-16.863 2.951-12.312-.872-22.684-.872-22.684-2.315-5.923 2.415-7.629 2.415-7.629 3.22-2.61-.402-10.439-.402-10.439.1-3.915 2.214-1.405 2.214-1.405 4.528 1.505.715-4.688-.202-5.822-2.948-3.646-6.351-6.196-8.151-8.532-5.154-6.69-20.026-22.584-20.026-22.584-4.026-3.613-2.717-4.718-2.717-4.718 1.409-1.405 3.522.1 3.522.1l12.78 12.547c3.623 1.606 2.818-1.204 2.818-1.204.1-8.13-11.975-15.96-11.975-15.96-4.83-.401-13.069-10.453-13.069-10.453-4.615-5.032-10.882-7.212-10.882-7.212-5.636-2.41-5.334-8.131-5.334-8.131-1.61-4.416-7.95-5.52-7.95-5.52-4.529-1.105-12.211-6.693-12.211-6.693-22.274-13.651-38.913-12.58-38.913-12.58-6.172.803-.791 6.144-.791 6.144 3.77 1.325 16.06 1.111 16.06 1.111 7.492.832 15.18 4.21 17.992 6.146.904.62.794 1.484.419 1.722-3.376 2.137-12.092-.551-17.225-1.823-2.059-.51-4.512-1.924-4.512-1.924-2.952-.803-4.28 3.199-4.28 3.199-5.355-1.083-24.166-1.593-24.166-1.593-13.15.536-22.274 5.085-22.274 5.085-6.575 2.008-4.697-.937-4.697-.937 1.342-3.212-5.098 1.607-5.098 1.607-4.429 1.204-5.1 4.55-5.1 4.55-.402 2.007.135 5.218.135 5.218-7.515 3.48-14.693 11.846-14.693 11.846 1.276-8.095-2.617-8.232-2.617-8.232-6.173 1.606-3.354 10.84-3.354 10.84-5.77-.132-12.077 10.44-12.077 10.44-4.025 13.384-15.63 20.544-15.63 20.544-4.897-4.08-6.778 2.61-6.778 2.61 2.013 7.361 6.306.936 6.306.936l3.623.402c-4.293 8.833-6.38 28.7-6.38 28.7-.342 4.745 1.013 6.096 1.013 6.096 1.61-.268 2.818-7.092 2.818-7.092-.671-7.361 4.428-13.25 4.428-13.25 3.488-3.212 5.137-10.936 5.137-10.936 1.245-5.45 3.987-5.392 3.987-5.392 1.745-.134 5.146-1.291 5.146-1.291 3.133-3.567 3.71-.85 3.71-.85s2.953 4.016-14.222 29.177c0 0-5.367 9.1-4.294 19.807 0 0-2.684 5.889-5.367 1.606 0 0-3.623-7.629-3.623-.937 0 0-1.745 3.614 2.683 7.763 0 0 3.087 6.29 2.818 12.446 0 0-3.624 8.7-7.38 5.486 0 0-3.757-4.817-1.61-12.044 0 0-5.501-7.896-9.258-7.36 0 0-5.77-4.15-.537-12.581 0 0 7.917-15.392-.537-13.92 0 0-9.26-.133 5.165-13.183 0 0 3.96-4.75-.267-2.809 0 0-9.863 5.687-6.777-1.138 0 0 1.61-3.747 1.476-6.023 0 0 1.476-2.81 4.026-4.015 0 0 3.353 1.204 1.206-9.235 0 0 21.2-22.217 27.507-25.027 0 0 12.592-9.925 2.338-4.896 0 0 7.19-5.944 5.982-15.446 0 0-1.207-.938.134-2.544 0 0 3.489-1.605 6.038-1.739 0 0 18.784-4.283 27.372-11.778 0 0 5.905 9.637 9.662-3.479 0 0 .403-4.149 4.025-2.944 0 0 9.956 5.862 17.188-7.24 0 0 10.263 3.416 13.11-1.832 0 0 12.81 9.909 1.638-.63 0 0 15.7 1.204 17.813-6.123 0 0-.905-6.726 4.025-5.02 0 0-1.107 5.32 6.743 2.912 0 0 1.007.2-.906 3.714 0 0-3.723 4.717 13.485 2.81 0 0 10.164 1.707 10.768-.1 0 0 1.135-2.28-1.294-2.496 0 0-2.328.89-6.354-3.327 0 0-1.208-1.404-5.032 1.607 0 0-5.434.201-2.314-4.919 0 0 3.422-2.609 8.554-2.51l12.076.603s5.132.1 4.428 4.417l8.05 9.234s10.97-1.104 15.196-.1c0 0-.603 5.621.705 9.134 0 0 2.956 6.562 11.29 1.224 0 0-4.346 5.3.384 9.416 0 0 4.327 2.911 8.956-.1 0 0 5.133.903 11.473 7.628 0 0 2.616 3.413 4.226 7.427 0 0 .402 4.618 2.415 6.625 0 0 7.145 5.32 10.869 10.64 0 0 3.824 5.019 3.723 7.93 0 0-1.61.803-2.918-.703 0 0-4.428-8.23-8.051-9.034 0 0-3.22-.602-2.717 2.71 0 0 1.912 5.12 6.742 9.335 0 0-1.408 2.209-3.924-.903 0 0-1.308-4.517-4.026-3.814 0 0-6.172-.737 2.684 13.45 0 0 10.526 10.914 11.436 18.038 0 0-1.506 3.643-4.19 1.502 0 0-.209-7.287-3.593-9.265 0 0-2.31.165 1.446 14.618l3.028 15.717s6.323 4.936 4.062 7.726c0 0-3.333 9.213-5.48 3.324 0 0-1.579-3.778-1.192-6.306 0 0-.15-21.799-4.712-27.42 0 0-6.709-6.692-4.025 4.015 0 0 5.562 16.4 3.754 21.015 0 0-2.01.398-4.425-8.033 0 0-1.41-7.83-4.83-9.636 0 0-3.423-2.208-5.033-6.625 0 0-3.824-6.223-5.434-4.617 0 0-3.034 2.841 5.837 10.64 0 0 2.616 9.033 6.642 14.253 0 0 5.032 9.435 4.629 11.844 0 0-1.208.803-2.415-.402 0 0-8.051 0-1.41 5.421 0 0 3.825-.2 4.832 7.628 0 0-.403 6.425 2.214 4.216 0 0 3.22-5.62-2.214-15.056 0 0 2.817.803 5.836 3.814l1.812-1.004s-1.812 1.807.402 6.425c0 0 1.904 13.759 1.556 18.924 0 0 .953 3.869 4.227 4.216 0 0 2.067.146 3.476 1.552 0 0 3.623-4.818-.101-9.134 0 0-7.246-5.22-.402-10.44 0 0 5.031-1.003 4.83 4.217 0 0-.604 3.412-1.208 6.022 0 0 .504 2.308 4.026 2.208 0 0 4.83-.201 4.226 6.023 0 0-4.125 16.16-4.73 20.777 0 0-.704 7.127 5.334 3.714 0 0 7.347-4.316 4.428 7.629 0 0-.402 10.238 0 15.056 0 0-1.633 2.588-2.527 4.707 0 0-1.196 2.42 4.037-.792 0 0 2.918-.703-2.415 4.416 0 0-5.623 3.827-8.85 8.84 0 0-5.24 10.03-13.592 12.54 0 0-12.278 2.81-14.19 7.127 0 0 7.95 1.706 15.7-4.617 0 0-3.825 4.617-7.649 7.628 0 0-2.415.2-4.428-.2 0 0-7.648.4-3.924 2.509 0 0 2.717.903 4.327.502 0 0 1.81-.402.301 2.91 0 0-4.931 9.336-9.66 10.841 0 0-2.114.502-4.026 3.614 0 0-5.736 6.323-7.246 5.018 0 0 .1-4.316-2.515-3.312 0 0-7.447 1.405-13.285 4.617 0 0-6.54 2.91-11.774 2.911 0 0-11.573 1.104-16.303 4.617 0 0-32.035-4.65-50.15-14.42 0 0-4.83-4.014-8.721-2.542 0 0-5.368.802-8.857-2.677 0 0-4.427-8.699-8.586-10.439 0 0-3.222-.267-5.77-3.078 0 0-4.026-9.37-7.782-5.621 0 0-4.295 4.015-2.684 9.904 0 0 .804 1.338-1.88 3.48 0 0-3.22.535-2.817-6.559 0 0-.134-9.77 4.697-14.32 0 0 6.172-4.283.67-9.77 0 0-12.075-10.974-6.842-16.462l3.085 3.079 3.086-3.079s1.208-1.204 4.831 4.55c0 0 2.146 7.228 6.172 7.228 0 0 2.818-1.74-2.415-7.762l12.613 10.974s-1.878 2.944 2.28 4.952c0 0 4.027-1.071 6.71 1.873 0 0 2.147 4.016 6.44 3.748 0 0 4.563.535 7.649 4.149 0 0 5.099 3.48 4.965 6.825 0 0-2.281 1.74-5.1-.803 0 0-5.65-5.225-8.32-4.56a1.51 1.51 0 0 0-.938.68c-1.878 2.943-.402 4.148 5.099 8.03 0 0 27.507 15.926 34.082 10.706 0 0 3.59.032 4.495 1.538 0 0-.704 2.911-4.227 2.61 0 0-4.427 2.007 2.013 2.61 0 0 23.045 4.517 20.63-1.907 0 0-2.113-1.506.604-3.011 0 0 .1-4.718-6.24-2.41 0 0-5.735 2.51-13.384-.3 0 0-2.817-1.004-.2-1.808 0 0 31.7 1.908 41.26-5.42 0 0 4.226-1.806 7.749-5.119 0 0 4.125-2.91 15.598-3.513 0 0 15.296-4.818 23.246-11.141 0 0 3.12-2.51-.502-2.31 0 0-11.574.704-19.121 6.425 0 0 7.246-10.64 18.215-20.979 0 0 8.151-8.933 7.145-18.97 0 0 .402-4.618 1.208-9.035 0 0 3.018-11.844.704-7.728 0 0-9.963 19.171-13.888 24.29 0 0-1.408 2.209-3.019 1.205 0 0-2.818-.401-9.158 4.918 0 0-14.39 12.146-18.114 10.238 0 0 .906-1.304 3.623-2.61 0 0 19.825-11.743 19.221-17.364 0 0-.503-4.317 2.315-7.327 0 0 1.912-2.108.302-3.715 0 0-.403-.601.805-2.61 0 0 1.912-6.323-.604-3.612 0 0-3.32 2.71-2.818-1.005 0 0 3.22-6.624 5.938-6.925 0 0 3.019-.202 2.918-2.108 0 0 .805-10.239 1.711-14.956 0 0-2.415-9.837-4.026-4.417 0 0 0 2.61.202 5.02 0 0-.1 3.11-3.22 9.233 0 0-2.919 5.922-5.636 11.243 0 0-11.271 22.885-31.398 33.525 0 0-5.938 2.108-9.158 2.108 0 0 13.686-12.045 12.78-16.16 0 0-5.635-5.42-19.724 7.427 0 0-17.31 11.444-32.404 6.224 0 0-17.913-6.023-22.24-9.736 0 0-1.712-1.506 2.112-3.714 0 0 4.026-4.016-7.144-2.31 0 0-5.435-2.007-15.197-13.35 0 0-14.793-19.17-3.22-33.926 0 0 12.48-18.068 32.203-11.644 0 0 7.246 3.212 4.127 6.525 0 0-1.226 2.993-5.444.191 0 0-18.91-9.827-24.545 5.028 0 0-5.938 9.336-4.63 18.068 0 0 3.102.082 2.608 3.404 0 0-2.105 6.935 7.858 13.66 0 0 2.315-1.104 2.516 1.506 0 0 9.359 13.149 25.863 7.527 0 0 13.686-8.43-1.107-19.573 0 0-4.226-2.007-6.642 0 0 0 2.114 2.71-.302 8.13 0 0-1.106 4.116 2.717 5.522 0 0-1.61 3.211-4.83 0 0 0-7.447-7.629-11.975-6.325 0 0-3.322-.903-3.12-4.115 0 0-1.51-6.122 6.843-9.837 0 0 7.447-2.007 3.22-7.427 0 0-2.213 0-3.019-2.409 0 0-1.61-5.019-5.836-2.81 0 0-3.825 1.605-5.435 0 0 0-2.012-2.008-4.226 0 0 0 2.918-9.737 17.107-8.232 0 0 5.233.803 4.428 6.023 0 0-.603 5.62 6.642 4.416 0 0 9.46-4.818 14.089-4.818 0 0 2.315.502 1.208 4.818 0 0-8.152 11.142 6.139 11.342 0 0 14.793 5.12 12.579-8.732 0 0-4.227 1.204-3.522-3.112 0 0 1.107-4.517-1.711-6.725 0 0-5.837-6.223-7.246-12.045 0 0-6.541-15.758.705-30.012 0 0-.604-2.81-2.516-2.91 0 0-5.837-2.41-8.956-7.328 0 0-2.782-2.219-5.871-3.447"/>
        <path fill="#71E721" d="M97.693 176.746s5.142 3.189 4.352 8.371c0 0-1.978 10.764-4.945 7.376 0 0-4.153-6.578.593-15.747"/>
        <path fill="#71E721" d="M104.474 149.528s-5.393 9.79-11.384 19.78c0 0-3.396 6.992-4.594 12.986 0 0-1.597 5.993-4.993 7.791 0 0 .013-10.776-2.99-2.99 0 0-4.2 10.582 11.179 26.365 0 0 3.794 5.394.599 5.794 0 0-10.386-6.793-14.18-18.58 0 0-1.985-5.582-4.188-6.987 0 0-4.465-22.44 1.459-31.9 0 0 2.33-8.663 7.722-10.86 0 0 7.989-4.396 4.793 5.594 0 0-5.832 4.634-1.822 5.788 0 0 14.005-12.781 16.202-14.979 0 0 4.446-1.83 2.197 2.198"/>
        <path fill="#459223" d="M149.85 254.243c-3.385.51 0 4.594 0 4.594 1.861.85 8.968 9.868 8.968 9.868 4.907-.17 10.999 2.213 10.999 2.213 5.753 2.892 23.521 0 23.521 0 7.446-3.403 24.536-5.956 24.536-5.956 18.444-2.722 30.459-13.612 30.459-13.612 3.553-2.383 2.369-8.848 2.369-8.848-.17-3.743 3.722-10.55 3.722-10.55 1.862-3.743-1.861-1.701-1.861-1.701-35.704 23.651-44.165 18.206-57.28 17.908-11.12-.252-22.42 2-22.42 2-6.43 1.02-11.845-3.403-11.845-3.403-4.738-2.042-8.122 1.702-8.122 1.702s.338 1.02 5.753 1.53c0 0 7.55 3.729 13.156 4.425 4.674.58 13.224 1.652 19.798.382 3.453-.667 7.667-1.372 13.072-1.743 4.8-.33 17.528-2.983 19.22-.942 0 0 2.522 1.463-1.283 3.494-4.974 2.654-19.122 6.125-27.413 6.295 0 0-14.718 1.917-21.236.17-6.121-1.64-24.113-7.826-24.113-7.826M134.413 271.613s7.887.987 12.467 3.7c0 0 5.38 3.205 1.545-3.7 0 0-2.817-4.192 2.78-1.48 0 0 26.716 11.097 38.166 10.604 0 0 9.701-1.48 12.484.987 0 0 3.291 1.972 7.616 1.726 0 0 .287 2.22-7.616 1.972 0 0-14.01-2.219-19.608-1.48 0 0-3.054 1.727 1.017 4.193l2.036 2.712h-7.379s-16.03-11.836-30.532-9.617c0 0-2.036.987-5.852-2.219 0 0-11.45-6.411-7.124-7.398M95.005 215.901s-.261-5.842 4.176-5.588c0 0 6.004.508 6.526 9.906 0 0 3.132 11.177 6.786 13.97 0 0 .783 5.081-2.871 8.637 0 0-3.393 2.794-10.702-8.89 0 0-9.657-8.636-3.915-18.035"/>
        <path fill="#48981D" d="M137.694 202.587c4.672 10.842 14.091 20.337 14.091 20.337 3.565 1.525 4.075 4.294 4.075 4.294 2.546 5.65 16.467 10.959 16.467 10.959 9.847 2.88 10.017 5.461 10.017 5.461 0 2.41-4.862 1.148-4.862 1.148-2.656-1.017-9.908-1.864-9.908-1.864-12.903-1.187-18.335-5.085-18.335-5.085-2.887-2.033-5.943-2.372-5.943-2.372-5.093.508-5.093-1.356-5.093-1.356-.849-2.033-3.056-3.944-3.056-3.944-2.377-1.401-5.093-6.394-5.093-6.394-1.697-8.813-6.79-10.338-6.79-10.338-5.093-1.864-4.924-9.66-4.924-9.66-1.189-9.66 1.358-29.657 1.358-29.657 0-2.71 1.189-4.236 1.189-4.236 3.734-5.593 8.828-36.607 8.828-36.607 2.207-5.592 5.432-7.456 5.432-7.456 3.396-1.865 10.017-9.152 10.017-9.152 3.565-3.22-.51-3.898-.51-3.898-8.318-1.017-17.316 4.068-17.316 4.068-9.677 5.931-13.836 14.913-13.836 14.913-2.292 5.211-6.367 3.305-6.367 3.305-3.692-.382-6.366 6.863-6.366 6.863-2.547 2.415-2.292-.508-2.292-.508-1.91-3.813-3.427 2.517-3.565 3.813-.448 4.17.088 7.934-.255 10.55-.983 7.49-1.655 26.945-1.655 26.945.254 4.83-1.273 4.703-1.273 4.703-1.783 0-2.165-2.288-2.165-2.288l-.127-16.014c-1.274-3.305-2.547-1.017-2.547-1.017-5.22 5.084-2.547 17.667-2.547 17.667 2.802 3.305 1.638 14.871 1.638 14.871-.273 6.101 2.31 11.44 2.31 11.44 2.037 5.084-1.783 8.515-1.783 8.515-1.783 3.814 1.528 8.516 1.528 8.516 2.165 3.56 3.48 11.949 3.48 11.949 5.432 22.71 16.638 32.538 16.638 32.538 4.414 3.39 4.397-3.39 4.397-3.39-1.543-3.219-9.454-10.845-9.454-10.845-4.213-5.259-6.932-12.252-7.485-15.253-.178-.965.44-1.442.828-1.356 3.49.78 7.3 7.986 9.74 12.033.98 1.623 1.634 4.067 1.634 4.067 1.358 2.373 4.737.678 4.737.678 2.7 4.067 14.277 16.269 14.277 16.269 8.659 7.965 17.317 10.847 17.317 10.847 5.433 2.881 2.377 3.559 2.377 3.559-2.886 1.186 4.244 2.203 4.244 2.203 3.565 2.034 6.112.339 6.112.339 1.528-1.017 3.225-3.389 3.225-3.389 6.961 2.543 16.808 1.778 16.808 1.778-5.942 4.32-3.565 6.866-3.565 6.866 4.923 2.88 8.997-4.746 8.997-4.746 3.566 3.728 14.262 1.017 14.262 1.017 11.035-5.932 22.919-3.137 22.919-3.137.51 5.676 5.941 2.628 5.941 2.628 3.396-5.931-3.395-4.575-3.395-4.575l-2.037-2.542c8.319-2.882 22.24-14.143 22.24-14.143 3.226-2.788 3.226-4.5 3.226-4.5-1.189-.846-6.282 2.712-6.282 2.712-4.244 5.084-11.205 5.593-11.205 5.593-4.244-.17-10.186 3.68-10.186 3.68-4.244 2.663-5.942.896-5.942.896-1.189-1.017-4.074-2.432-4.074-2.432-4.245.28-2.887-1.807-2.887-1.807s.68-4.406 27.503-9.49c0 0 9.168-2.372 15.28-9.83 0 0 5.433-2.033 4.414 2.373 0 0-2.547 7.118 1.697 2.882 0 0 3.396-1.187 3.226-6.61 0 0 2.037-5.932 6.112-9.66 0 0 7.81-3.22 8.149 1.187 0 0-.68 5.423-6.621 8.643 0 0-1.528 8.473 1.188 10.507 0 0 1.019 6.27-7.64 8.304 0 0-14.77 4.746-8.488 9.152 0 0 5.772 5.932-11.63 5.085 0 0-5.517.506-1.612 1.947 0 0 9.846 2.628 3.565 5 0 0-3.396 1.357-4.753 2.882 0 0-2.717.847-5.094 0 0 0-1.357-2.88-6.62 5.085 0 0-27.504.678-33.276-1.525 0 0-14.26-1.667-4.584 1.623 0 0-8.318-.777-13.581 6.003 0 0 .17 1.355-1.698 1.525 0 0-3.226-1.186-4.923-2.712 0 0-14.6-9.15-24.787-9.829 0 0 2.377-9.83-8.319-3.898 0 0-2.886 2.372-4.414-.678 0 0-2.58-9.999-15.466-6.27 0 0-4.325-8.645-9.454-7.12 0 0-1.819-14.363-1.437-.635 0 0-9.168-10.677-15.152-7.372 0 0-3.692 4.83-5.73.635 0 0 4.075-2.669-2.419-6.1 0 0-.51-.763 2.929-1.78 0 0 5.347-.636-6.749-10.296 0 0-5.348-7.499-6.876-6.736 0 0-2.164.727-.764 2.397 0 0 2.038.907 1.91 6.119 0 0-.127 1.652 4.202 2.16 0 0 3.565 3.305-1.655 4.576 0 0-3.82-.508-7.003-3.813l-7.258-8.007s-3.183-3.305 0-5.593l.764-10.931s-7.64-6.228-9.677-9.533c0 0 3.947-3.177 5.348-6.228 0 0 2.292-6.022-6.366-7.904 0 0 6.111-.612 5.73-6.205 0 0-.892-4.575-5.73-5.592 0 0-2.674-3.813-2.42-12.075 0 0 .51-3.813 2.038-7.372 0 0 2.674-3.177 2.674-5.72 0 0-1.146-7.88-.128-13.6 0 0 .764-5.592 2.674-7.372 0 0 1.528.509 1.4 2.288 0 0-2.419 8.008-.636 10.804 0 0 1.655 2.415 3.438 0 0 0 2.037-4.448 1.655-10.168 0 0 2.292-.509 1.91 3.05 0 0-2.037 3.686.127 4.957 0 0 3.438 4.365 6.833-10.21 0 0 .264-13.558 4.206-18.642 0 0 3.264-1.356 3.604 1.694 0 0-4.49 4.745-3.604 8.135 0 0 1.567 1.356 8.358-10.168l8.052-11.863s-.869-7.118 2.33-7.457c0 0 7.952-3.728 5.576 1.356 0 0-1.398 3.389-3.246 4.745 0 0-13.731 13.896-14.41 20.336 0 0 0 8.474 5.093 0 0 0 6.884-13.896 10.954-15.676 0 0 1.524 1.017-2.295 7.88 0 0-4.075 5.848-3.056 9.152 0 0 .764 3.56-1.019 7.372 0 0-1.528 6.356.51 6.356 0 0 3.72.117 3.055-10.423 0 0 4.075-7.372 4.839-13.219 0 0 2.8-9.151 4.584-10.422 0 0 1.273.254 1.273 1.78 0 0 5.093 5.083 4.329-2.543 0 0-2.547-2.288 1.783-7.88 0 0 4.329-3.813 1.273-4.068 0 0-5.603 1.526-8.15 10.931 0 0-1.272-2.288-1.272-6.1l-1.783-.51s2.292 0 3.82-4.32c0 0 7.522-9.915 11.018-12.965 0 0 1.852-3.05 0-5.339 0 0-1.214-1.398-1.214-3.177 0 0-5.348.762-5.73 5.846 0 0 1.274 7.88-6.366 6.864 0 0-3.82-2.542-.382-5.72 0 0 2.546-1.78 4.584-3.05 0 0 1.146-1.78-1.146-3.94 0 0-3.183-2.924 1.146-6.483 0 0 12.86-7.626 16.17-10.168 0 0 4.966-4.067-1.018-5.72 0 0-7.385-1.906 2.037-7.626 0 0 6.748-6.228 9.55-9.533 0 0 2.674-.607 4.583-1.384 0 0 2.292-.777-3.055-2.048 0 0-2.292-1.398 4.329-1.27 0 0 5.984 1.127 11.205-.009 0 0 9.677-3.042 16.552.644 0 0 9.55 5.974 13.497 4.449 0 0-3.947-6.101-12.86-6.991 0 0 5.348-.509 9.677 0 0 0 1.655 1.398 2.674 2.923 0 0 5.093 4.576 4.074.89 0 0-1.146-2.288-2.419-3.05 0 0-1.4-.89 1.655-2.034 0 0 9.04-2.797 12.988-.763 0 0 1.655 1.017 4.838.254 0 0 7.64-.381 7.767 1.398 0 0-2.8 2.67-.509 3.686 0 0 5.602 3.814 11.332 5.466 0 0 5.985 2.288 9.295 5.593 0 0 8.022 6.609 13.242 7.372 0 0 17.317 23.175 22.58 40.8 0 0 .509 5.593 3.905 7.118 0 0 3.905 2.88 3.905 7.287 0 0-2.717 8.304-1.19 12.033 0 0 1.869 2.203 1.699 5.592 0 0-3.396 8.474 1.358 8.474 0 0 5.263.17 7.98-4.576 0 0 .339-1.355 3.395-1.017 0 0 2.376 1.695-2.377 5.932 0 0-6.112 6.27-12.054 6.1 0 0-6.621-1.185-6.621 5.763 0 0 .68 14.574-6.112 14.744v-3.898h-3.904s-1.528 0-.17-5.931c0 0 3.225-5.932.679-8.474 0 0-2.886-.678-3.396 6.44L247.706 147s3.056-.679 1.697-4.576c0 0-3.225-1.865-3.056-5.424 0 0 1.19-3.898-1.697-6.44 0 0-2.546-3.22-2.207-7.456 0 0-1.019-5.423 1.188-7.457 0 0 2.547.339 2.716 3.728 0 0 .26 6.877 2.373 8.142.301.181.64.247 1.023.163 3.056-.679 2.886-2.373 1.868-8.305 0 0-7.3-27.454-14.77-28.301 0 0-2.25-2.288-1.868-3.814 0 0 2.292-1.398 4.329 1.017 0 0 4.075 1.526.382-2.923 0 0-11.714-17.413-14.26-11.82 0 0 .381 2.287-2.293 1.524 0 0-3.056 2.924 2.42 5.466 0 0 5.22 2.034 8.276 8.643 0 0 1.146 2.415-1.019 1.271 0 0-18.844-21.226-29.54-22.624 0 0-3.82-1.526-8.149-1.653 0 0-4.456-.762-12.096-7.626 0 0-12.733-6.61-21.773-7.626 0 0-3.565-.382-1.146 1.78 0 0 7.767 6.863 16.17 8.007 0 0-11.332 2.16-24.829 1.78 0 0-10.822.508-16.552 7.498 0 0-3.183 2.67-6.494 4.957 0 0-9.422 5.593-5.348 4.449 0 0 18.463-5.847 24.193-6.61 0 0 2.292-.508 2.674 1.145 0 0 1.527 2.033 8.913 2.669 0 0 16.807 1.398 17.953 4.957 0 0-1.4.254-3.947-.636 0 0-19.99-5.084-23.174-1.144 0 0-2.42 3.05-6.112 3.178 0 0-2.546.127-2.546 2.16 0 0-.128.636-2.165 1.145 0 0-5.22 2.796-1.91 2.669 0 0 3.82.381 1.146 2.415 0 0-6.24 2.16-8.149.635 0 0-2.037-1.78-3.183-.508 0 0-7.003 5.974-10.568 8.389 0 0-4.712 7.753-.255 5.338 0 0 1.655-1.652 3.056-3.305 0 0 2.037-1.906 7.894-3.813 0 0 5.603-1.906 10.696-3.559 0 0 21.646-7.372 41.127-1.398 0 0 5.093 2.415 7.13 4.449 0 0-16.298-1.017-18.335 2.16 0 0 .127 6.991 17.19 7.754 0 0 18.207 3.686 24.446 16.524 0 0 7.513 15.125 7.895 20.21 0 0 .127 2.033-3.693 1.016 0 0-5.093 0 3.056 5.974 0 0 2.164 4.703 1.146 18.049 0 0-2.801 21.48-19.481 23.514 0 0-19.354 3.559-27.758-12.965 0 0-2.546-6.609 1.528-6.736 0 0 2.674-1.121 3.565 3.316 0 0 5.73 18.164 18.717 12.317 0 0 9.677-2.16 14.389-8.515 0 0-1.91-2.011.509-3.802 0 0 5.73-3.062 3.692-13.612 0 0-2.164-.762-.636-2.542 0 0 2.419-14.235-11.587-21.099 0 0-14.006-3.305-11.714 13.092 0 0 1.4 3.94 4.202 4.194 0 0 .381-3.05 5.347-4.957 0 0 3.31-1.906 1.783-5.211 0 0 3.056-1.017 3.056 3.05 0 0-.128 9.533 3.565 11.567 0 0 1.528 2.67-.637 4.576 0 0-2.928 4.83-10.568 1.906 0 0-5.984-3.432-6.748 2.67 0 0 1.4 1.398.382 3.431 0 0-2.165 4.195 1.91 5.466 0 0 3.437 1.398 3.437 3.431 0 0 0 2.542 2.674 2.67 0 0-8.021 4.32-16.043-5.593 0 0-2.801-3.813 1.019-6.61 0 0 3.947-3.177-1.401-6.99 0 0-9.04-2.923-11.969-5.847 0 0-1.146-1.78 2.292-3.813 0 0 12.224-1.907 3.31-11.058 0 0-6.111-12.583-13.496-2.415 0 0 3.438 1.907.254 4.194 0 0-3.565 2.161-3.183 5.339 0 0-.254 7.626-3.056 12.202 0 0-5.857 14.108-19.48 18.557 0 0-1.401 2.16-.256 3.431 0 0 2.165 5.212 1.02 10.296 0 0 .352 3.162 1.527 5.89"/>
        <path fill="#48981D" d="M215.65 206.576s-1.337-5.36 2.674-8.167c0 0 8.555-5.614 8.288-1.531 0 0-1.604 6.89-10.962 9.698"/>
        <path fill="#48981D" d="M194.103 218.717s9.663-2.782 19.834-5.31c0 0 6.612-2.276 11.19-5.311 0 0 4.83-2.782 8.136-1.77 0 0-6.865 6.812 0 3.785 0 0 9.409-4.038 9.663-23.764 0 0 1.017-5.816 3.306-4.046 0 0 2.289 10.874-2.797 20.737 0 0-2.289 4.79-1.78 7.073 0 0-11.438 17.03-21.23 19.266 0 0-6.996 4.008-11.828 1.985 0 0-7.883-2.276.509-6.575 0 0 6.662.758 4.844-2.51 0 0-17.05-.778-19.847-.778 0 0-3.995-1.656 0-2.782"/>
        <path fill="#FFF" d="M145.868 20.8s-5.085-7.376-16.27-7.376c0 0-8.136 6.885 0 9.836l.508 3.442s10.312.327 13.728 0c3.225-.309 12.711-2.459 12.711-2.459s-3.05-2.95-10.677-3.442M88.71 20.44S99 22.621 95.398 17.286c0 0-2.573-3.395-6.69 3.152M75.577 58.743l7.914-5.163-3.957-3.614s-7.122 1.549-10.815 0c0 0-8.969 1.549-3.693 8.777 0 0 6.595 8.777 10.551 0M37.477 84.843s-8.636-2.287-6.604 2.288c0 0 .508 5.032 6.604 2.287 0 0 4.572-.457 0-4.575M115.438 18s-1.435 1.978 0 3.581 3.987.623 3.828-1.603c0 0-.16-2.62-3.828-1.978M87.124 39.447s3.567-2.482 0-4.393c0 0-2.718-.19-2.888 2.197 0 0 .17 2.77 2.888 2.196M91.34 41.782c.332-.147 3.584.482 2.28 3.529 0 0-1.629 2.085-3.584 0 0 0-1.955-2.085 1.304-3.529M39.078 123.634s7.714-2.99 12.856 0c0 0 2.057 1.745 2.057 5.732 0 0 .514 5.483 3.856 5.732 0 0 3.6 3.987-2.57 5.482 0 0-6.686 2.493-9.514-5.482 0 0-.771-3.24-3.6-5.483 0 0-4.627-2.741-3.085-5.98M21.668 100.798s5.573-.906 6.634 2.263c0 0 .531 2.49-3.317 2.037 0 0-3.847.678-3.317-4.3M11.927 119.18s.802-6.239 4.81-3.743c0 0 4.274 1.996 0 3.743 0 0-3.207 1.997-4.81 0M35.357 180.8s5.884 1.53 3.643 4.592c0 0-5.885 1.532-6.165-2.296 0 0-.53-3.72 2.522-2.297M11.996 194.143s7.81-1.934 6.49 5.077c0 0-2.614 1.45-4.423 0 0 0-2.584-.726-2.067-5.077M29.706 210.054s10.803-9.594 14.572-6.642c0 0 1.507 2.46-2.513 4.92 0 0-4.999 4.674-4.635 6.395 0 0 3.128-2.213 4.886-1.967 0 0 5.235-3.444 7.265-5.658 0 0 8.312 3.936 3.79 9.347 0 0-4.635 5.166-13.623 1.476 0 0-2.456-1.968-6.476-1.968 0 0-5.779-1.722-3.266-5.903M26.926 263.552s9.662.5 15.044 3.244c0 0 2.062.999 3.34-1.622 0 0 1.671-4.617-5.675-5.365 0 0-10.156-3.993-14.496 0 0 0-2.029 3.383 1.787 3.743M64.373 237.873s-1.743-4.957 3.733-4.407c0 0 7.217.551 2.737 6.886 0 0-3.733 4.131-6.47-2.479M46.674 234.877s6.408-2.939 4.358 3.164c0 0-2.307 1.357-4.358 0 0 0-1.025-1.582 0-3.164M65.6 218.136c0 1.029-1.502 1.864-3.354 1.864-1.853 0-3.355-.835-3.355-1.864 0-1.03 1.502-1.865 3.355-1.865 1.852 0 3.354.835 3.354 1.865M125.982 53.695a1.49 1.49 0 1 1-2.982.001 1.49 1.49 0 0 1 2.982-.001M130.455 57.424a1.49 1.49 0 1 1-2.982.001 1.49 1.49 0 0 1 2.982-.001M134.182 60.034c0 1.03-.668 1.864-1.491 1.864-.824 0-1.491-.834-1.491-1.864 0-1.03.667-1.865 1.49-1.865.824 0 1.492.835 1.492 1.865M127.473 65.254c0 1.03-1.002 1.865-2.237 1.865S123 66.284 123 65.254s1.001-1.864 2.236-1.864c1.235 0 2.237.835 2.237 1.864M96.91 87.254a1.491 1.491 0 1 1-2.983.001 1.491 1.491 0 0 1 2.982 0M102.873 95.085c0 1.03-1.002 1.864-2.237 1.864s-2.236-.835-2.236-1.864c0-1.03 1.001-1.865 2.236-1.865 1.235 0 2.237.835 2.237 1.865M148.345 40.271c0 .824-1 1.492-2.236 1.492-1.235 0-2.236-.668-2.236-1.492s1.001-1.491 2.236-1.491c1.235 0 2.236.667 2.236 1.491M167.727 42.881a1.864 1.864 0 1 1-3.728.001 1.864 1.864 0 0 1 3.728 0M152.073 54.44c0 1.236-.835 2.238-1.864 2.238-1.03 0-1.864-1.002-1.864-2.237s.835-2.238 1.864-2.238c1.03 0 1.864 1.003 1.864 2.238M167.727 63.39c0 .824-.834 1.491-1.863 1.491-1.03 0-1.864-.667-1.864-1.491 0-.824.834-1.492 1.864-1.492 1.029 0 1.863.668 1.863 1.492M192.327 76.44c0 1.03-.667 1.865-1.49 1.865-.824 0-1.492-.835-1.492-1.864 0-1.03.668-1.865 1.491-1.865.824 0 1.491.835 1.491 1.865M273.582 52.203a2.237 2.237 0 1 1-4.474 0 2.237 2.237 0 0 1 4.474 0M217.673 28.339c0 1.648-1.836 2.983-4.1 2.983-2.265 0-4.1-1.335-4.1-2.983 0-1.648 1.835-2.983 4.1-2.983 2.264 0 4.1 1.335 4.1 2.983M316.818 165.932a2.61 2.61 0 1 1-5.22 0 2.61 2.61 0 0 1 5.22 0M304.145 159.966a2.61 2.61 0 1 1-5.218.002 2.61 2.61 0 0 1 5.218-.002M263.89 220a1.491 1.491 0 1 1-2.981 0 1.491 1.491 0 0 1 2.982 0M268.364 229.322a1.864 1.864 0 1 1-3.728 0 1.864 1.864 0 0 1 3.728 0M243.764 229.322a1.864 1.864 0 1 1-3.728 0 1.864 1.864 0 0 1 3.728 0M243.764 242.746c0 1.03-1.002 1.864-2.237 1.864s-2.236-.835-2.236-1.864c0-1.03 1.001-1.865 2.236-1.865 1.235 0 2.237.835 2.237 1.865M231.09 239.017c0 1.03-1 1.864-2.235 1.864-1.236 0-2.237-.834-2.237-1.864 0-1.03 1.001-1.864 2.237-1.864 1.235 0 2.236.834 2.236 1.864M231.09 258.034c0 .824-1 1.491-2.235 1.491-1.236 0-2.237-.667-2.237-1.491 0-.824 1.001-1.492 2.237-1.492 1.235 0 2.236.668 2.236 1.492M181.145 266.983a1.491 1.491 0 1 1-2.982 0 1.491 1.491 0 0 1 2.982 0M146.855 277.05c0 1.03-.668 1.865-1.491 1.865-.824 0-1.491-.834-1.491-1.864 0-1.03.667-1.865 1.49-1.865.824 0 1.492.835 1.492 1.865M110.327 280.78a1.864 1.864 0 1 1-3.728 0 1.864 1.864 0 0 1 3.728 0M35.782 251.322a1.491 1.491 0 1 1-2.983 0 1.491 1.491 0 0 1 2.983 0M52.927 250.203c0 1.03-.667 1.865-1.49 1.865-.824 0-1.492-.835-1.492-1.865s.668-1.864 1.491-1.864c.824 0 1.491.835 1.491 1.864M52.182 259.525c0 .824-1.002 1.492-2.237 1.492s-2.236-.668-2.236-1.492c0-.823 1.001-1.491 2.236-1.491 1.235 0 2.237.668 2.237 1.491M58.145 265.119c0 1.03-1 1.864-2.236 1.864-1.235 0-2.236-.835-2.236-1.864 0-1.03 1-1.865 2.236-1.865 1.236 0 2.236.835 2.236 1.865M79.764 258.034a1.491 1.491 0 1 1-2.983 0 1.491 1.491 0 0 1 2.983 0M66.345 256.893c0 .194-.667.35-1.49.35-.824 0-1.491-.156-1.491-.35 0-.194.667-.35 1.49-.35.824 0 1.491.156 1.491.35M99.145 242.746a1.864 1.864 0 1 1-3.727 0 1.864 1.864 0 0 1 3.727 0M96.164 209.932c0 1.03-.668 1.865-1.491 1.865-.824 0-1.491-.836-1.491-1.865 0-1.03.667-1.864 1.49-1.864.824 0 1.492.834 1.492 1.864M125.236 335.593a2.237 2.237 0 1 1-4.474 0 2.237 2.237 0 0 1 4.474 0M235.564 293.83a1.491 1.491 0 1 1-2.982.001 1.491 1.491 0 0 1 2.982 0M280.29 264c0 1.236-.833 2.237-1.863 2.237-1.029 0-1.863-1.001-1.863-2.237 0-1.236.834-2.237 1.863-2.237 1.03 0 1.864 1.001 1.864 2.237M266.873 255.05a2.237 2.237 0 1 1-4.474.002 2.237 2.237 0 0 1 4.474-.001M292.218 239.017c0 1.03-.667 1.864-1.49 1.864-.824 0-1.492-.834-1.492-1.864 0-1.03.668-1.864 1.491-1.864.824 0 1.491.834 1.491 1.864M281.782 242.746a1.864 1.864 0 1 1-3.728 0 1.864 1.864 0 0 1 3.728 0M170.813 232.298s8.428 1.22 13.792 0c0 0 6.13-1.112 8.939.542 0 0-.256.922-2.81 3.607 0 0-.766.976 2.81 1.709 0 0 4.852 3.173-1.533 3.295-6.385.122-12.514 1.098-19.666-3.295 0 0-4.597 0-5.363-3.173 0 0 .285-3.055 3.83-2.685M162.846 320.678s-1.758 8.202 2.762 8.202c0 0 6.78.265 1.758-8.202h-4.52zM156.504 300.542s-7.123-1.657-8.904-2.13c0 0 2.544-3.315 10.685-3.078 0 0 8.905.947-1.78 5.208M198.716 318.447c1.292-.134 3.313 1.999 15.8 0 0 0 5.097.5 8.665 1.999 0 0 6.625 2.749 13.506 1.25 0 0 6.88 1 2.803 4.998 0 0-10.448 10.745-27.013 8.621 0 0-20.387-2.624-19.367-13.12 0 0 .764-3.248 5.606-3.748M122.768 305.017h6.72s3.84 1.353 1.92 4.058c0 0-1.92 3.607-6.48.902 0 0-4.08-2.03-2.16-4.96M90.96 286.373s5.215 1.767 9.187 2.524c0 0 4.47 4.291-3.6 4.291 0 0-3.848-1.767-5.586 1.388 0 0-3.725 0-3.725-4.101 0 0-.496-3.092 3.725-4.102M134.606 307.994s5.629 2.713 7.342-2.17c0 0 1.958-6.24-2.447-5.155 0 0-7.098 2.17-4.895 7.325M146.268 314.855s5.368-1.188 8.787 3.288c0 0-3.074 2.348-7.229 0 0 0-2.337-.465-1.558-3.288M234.686 41.056s6.096.568 6.096 3.252c0 0-1.22 4.088-4.703 2.157 0 0-3.657.377-3.483-2.446 0 0-.318-3.4 2.09-2.963M257.506 55.186c4.058 1.062 3.571 2.478 3.084 4.424 0 0-.487 2.705-3.084 3.034 0 0-4.22-.91-4.22-2.856 0 0-1.298-2.124 0-4.602h4.22zM250.402 44c2.918.557 1.869 2.422 2.307 3.61 0 0-1.963 2.375-4.022 1.357l-3.432-3.901L250.402 44zM293.72 114.716c3.52-1.16 2.06 5.79 1.03 6.843 0 0-4.98-.701-6.011-1.754 0 0-3.092-5.967-1.03-7.195 0 0 .687 3.86 6.01 2.106"/>
        <g>
            <mask id="d" fill="#fff">
                <use xlink:href="#c"/>
            </mask>
            <g mask="url(#d)">
                <path fill="#000" d="M166.338 290.06s-.545-5.17 4.224-6.259c0 0-3.035-4.217-4.243-6.937 0 0-2.335-2.313 0-8.979 0 0 2.335-4.897 1.927-8.298 0 0-.648-2.856 1.787-6.666 0 0 10.475-14.964 20.15-17.685 0 0 15.396-6.665 30.929 0 0 0 2.997 2.721 5.723 3.401 0 0 2.316.68 5.177 4.218 0 0 11.31 10.338 10.492 26.255 0 0 1.31 4.625.042 7.754 0 0-.45 2.584-.315 4.08 0 0-.136 1.77-1.226 2.586 0 0 3.85 2.72 2.674 6.904 0 0-1.022 5.594-7.255 6.036 0 0-3.594 8.01-11.633 11.819 0 0 5.45 3.945 6.54 13.195 0 0 2.045 29.6 2.317 33.818H177.51s-1.363-34.498 8.993-47.83c0 0-6.132-2.313-11.718-11.02 0 0-7.494.682-8.448-6.393z"/>
                <path fill="#FFF" d="M213.073 264.151s-2.18 7.618 20.575 7.346c0 0 1.819 16.595-15.397 13.06-5.163-1.061-14.715-9.956-5.178-20.406M199.117 264.151s2.18 7.618-20.575 7.346c0 0-1.819 16.595 15.397 13.06 5.163-1.061 14.715-9.956 5.178-20.406"/>
                <g>
                    <path fill="#000" d="M113.267 282.74c.272-.813-.009-8.132-.009-8.132h-11.142l2.991-10.843-13.326-4.066s7.343-8.404 10.607-10.03c0 0-5.168-9.76-17.406-9.76l15.23-10.843s-3.807-10.301-13.055-16.265l22.03-1.898s.272-14.367-7.071-16.807c0 0 9.79-.542 18.494 5.693 0 0 4.895-12.199 4.895-20.06 0 0 12.511 12.74 13.327 15.994 0 0 10.335-12.2 17.95-14.097 0 0-1.088 15.181 1.904 21.958l17.134-6.235-10.879 18.163 17.95 2.71L168.75 231.3l14.142 5.356s-5.44 7.049-19.038 8.133c0 0 6.527 5.693 11.423 9.488 0 0-4.623 3.524-10.879 2.982l2.992 10.301-8.16 1.356 4.352 5.963-6.799 2.711s-5.711 7.862-10.607 7.862l-.136 4.066 17.134 4.473s1.428-.61 2.448 3.66l13.463 60.64H98.33l10.585-61.454s-.204-1.626 2.244-2.033l18.154-6.1v-3.659s-7.071-2.372-10.063-4.744c0 0-6.255 3.253-5.983 2.44z"/>
                    <path fill="#FFF" d="M139.248 237.876s-2.652-7.522 3.06-7.929c0 0 10.606-.813 14.89 3.965 0 0 1.631 3.558-1.224 5.794 0 0-9.587-2.236-16.726-1.83M134.344 235.207c0-5.203-4.23-9.42-9.45-9.42-5.22 0-9.451 4.217-9.451 9.42 0 0 .068 2.534.951 4.499 0 0 7.956-3.185 16.727 0"/>
                </g>
            </g>
        </g>
    </g>
</svg>
