<?xml version="1.0" encoding="utf-8"?>
<!-- Generator: Adobe Illustrator 16.0.0, SVG Export Plug-In . SVG Version: 6.00 Build 0)  -->
<!DOCTYPE svg PUBLIC "-//W3C//DTD SVG 1.1//EN" "http://www.w3.org/Graphics/SVG/1.1/DTD/svg11.dtd">
<svg version="1.1" id="Layer_1" xmlns="http://www.w3.org/2000/svg" xmlns:xlink="http://www.w3.org/1999/xlink" x="0px" y="0px"
	 width="23.904px" height="23.733px" viewBox="0 0 23.904 23.733" enable-background="new 0 0 23.904 23.733" xml:space="preserve">
<g>
	<path fill="#231F20" d="M15.252,21.138c-2.896-1.153-4.273-2.482-4.531-3.142v-0.672c0.574-0.657,1.023-1.511,1.31-2.488
		c0.36-0.317,0.601-0.767,0.668-1.256c0.07-0.504-0.043-1.003-0.319-1.423v-1.962c0-2.664-1.6-4.192-4.389-4.192
		c-2.749,0-4.39,1.567-4.39,4.192v1.963c-0.275,0.419-0.388,0.918-0.318,1.421c0.068,0.489,0.308,0.938,0.667,1.256
		c0.286,0.978,0.735,1.832,1.311,2.489v0.672c-0.257,0.658-1.634,1.986-4.533,3.143C0.286,21.316,0,21.746,0,22.233v1
		c0,0.276,0.224,0.5,0.5,0.5S1,23.51,1,23.233v-1c0-0.075,0.041-0.143,0.1-0.166c2.748-1.097,4.766-2.604,5.14-3.844
		c0.014-0.047,0.021-0.096,0.021-0.145v-0.948c0-0.128-0.049-0.251-0.137-0.344c-0.56-0.59-0.993-1.41-1.253-2.372
		c-0.03-0.11-0.096-0.207-0.188-0.273c-0.221-0.16-0.37-0.415-0.409-0.699c-0.041-0.293,0.038-0.582,0.221-0.814
		c0.069-0.089,0.107-0.197,0.107-0.31v-2.123c0-2.059,1.204-3.192,3.39-3.192c2.249,0,3.389,1.074,3.389,3.192v2.123
		c0,0.112,0.038,0.222,0.107,0.31c0.183,0.232,0.262,0.521,0.221,0.814c-0.04,0.285-0.188,0.54-0.409,0.7
		c-0.092,0.066-0.159,0.163-0.189,0.273c-0.261,0.962-0.694,1.782-1.252,2.371c-0.088,0.093-0.137,0.216-0.137,0.344v0.948
		c0,0.049,0.007,0.098,0.021,0.145c0.375,1.24,2.392,2.749,5.139,3.844c0.059,0.023,0.101,0.092,0.101,0.166v1
		c0,0.276,0.224,0.5,0.5,0.5s0.5-0.224,0.5-0.5v-1C15.983,21.745,15.697,21.314,15.252,21.138z"/>
	<path fill="#231F20" d="M18.935,0h-4.523c-2.408,0-4.465,1.862-4.89,4.428C9.476,4.7,9.661,4.958,9.933,5.003
		c0.272,0.047,0.53-0.14,0.575-0.411C10.853,2.511,12.495,1,14.412,1h4.523c2.188,0,3.969,1.968,3.969,4.386
		c0,2.134-1.379,3.95-3.277,4.318c-0.084,0.017-0.162,0.054-0.228,0.109l-3.416,2.883v-2.29c0-0.276-0.224-0.5-0.5-0.5h-1.2
		c-0.276,0-0.5,0.224-0.5,0.5s0.224,0.5,0.5,0.5h0.7v2.866c0,0.194,0.112,0.371,0.29,0.453c0.066,0.031,0.139,0.047,0.21,0.047
		c0.116,0,0.23-0.04,0.322-0.118l4.142-3.495c2.301-0.516,3.957-2.71,3.957-5.273C23.904,2.416,21.675,0,18.935,0z"/>
	<path fill="#231F20" d="M13.559,4.912h5.816c0.276,0,0.5-0.224,0.5-0.5s-0.224-0.5-0.5-0.5h-5.816c-0.276,0-0.5,0.224-0.5,0.5
		S13.283,4.912,13.559,4.912z"/>
	<path fill="#231F20" d="M13.559,6.912h2.908c0.276,0,0.5-0.224,0.5-0.5s-0.224-0.5-0.5-0.5h-2.908c-0.276,0-0.5,0.224-0.5,0.5
		S13.283,6.912,13.559,6.912z"/>
</g>
</svg>
