<?xml version="1.0" encoding="utf-8"?>
<!-- Generator: Adobe Illustrator 16.0.0, SVG Export Plug-In . SVG Version: 6.00 Build 0)  -->
<!DOCTYPE svg PUBLIC "-//W3C//DTD SVG 1.1//EN" "http://www.w3.org/Graphics/SVG/1.1/DTD/svg11.dtd">
<svg version="1.1" id="Layer_1" xmlns="http://www.w3.org/2000/svg" xmlns:xlink="http://www.w3.org/1999/xlink" x="0px" y="0px"
	 width="23.992px" height="17.319px" viewBox="0 0 23.992 17.319" enable-background="new 0 0 23.992 17.319" xml:space="preserve">
<g>
	<path fill="#cecece" d="M16.279,13.157c-4.446-1.756-5.214-2.501-5.345-2.702V9.929c0.498-0.572,0.889-1.309,1.14-2.15
		c0.32-0.286,0.533-0.685,0.594-1.121c0.062-0.448-0.037-0.891-0.28-1.265V3.708C12.388,1.352,10.963,0,8.479,0
		C6.031,0,4.57,1.386,4.57,3.708v1.686C4.328,5.769,4.229,6.211,4.291,6.658c0.061,0.436,0.273,0.834,0.594,1.121
		c0.25,0.841,0.641,1.578,1.14,2.151v0.525c-0.146,0.232-0.96,0.967-5.346,2.701C0.267,13.321,0,13.719,0,14.17v2.062
		c0,0.599,0.478,1.087,1.064,1.087h14.829c0.588,0,1.065-0.488,1.065-1.087V14.17C16.959,13.725,16.686,13.318,16.279,13.157z
		 M15.959,16.232c0,0.052-0.034,0.087-0.065,0.087H1.064C1.034,16.319,1,16.284,1,16.232l0.047-2.146
		c4.922-1.945,5.771-2.775,5.956-3.381c0.015-0.047,0.021-0.096,0.021-0.146V9.736c0-0.129-0.05-0.253-0.139-0.346
		C6.403,8.885,6.029,8.183,5.805,7.358c-0.03-0.111-0.098-0.208-0.19-0.274C5.435,6.955,5.313,6.75,5.281,6.521
		C5.249,6.286,5.312,6.053,5.462,5.865C5.532,5.777,5.57,5.667,5.57,5.554V3.708C5.57,1.937,6.576,1,8.479,1
		c1.93,0,2.908,0.911,2.908,2.708v1.845c0,0.113,0.038,0.223,0.108,0.312c0.149,0.188,0.214,0.42,0.182,0.656
		c-0.032,0.229-0.153,0.434-0.333,0.563c-0.093,0.067-0.16,0.164-0.19,0.274c-0.226,0.824-0.6,1.527-1.081,2.033
		C9.984,9.483,9.935,9.608,9.935,9.736v0.824c0,0.05,0.007,0.099,0.021,0.146c0.186,0.607,1.034,1.438,6.003,3.465V16.232z"/>
	<path fill="#cecece" d="M23.387,13.903c-3.333-1.287-3.993-1.853-4.117-1.999v-0.319c0.381-0.438,0.681-0.994,0.878-1.625
		c0.259-0.237,0.431-0.562,0.479-0.916c0.05-0.359-0.027-0.715-0.219-1.019V6.771c0-1.853-1.186-2.959-3.171-2.959
		c-1.986,0-3.173,1.106-3.173,2.959v1.255c-0.19,0.303-0.268,0.658-0.218,1.017c0.049,0.354,0.221,0.678,0.479,0.917
		c0.221,0.708,0.572,1.321,1.021,1.78c0.193,0.198,0.51,0.202,0.707,0.008c0.197-0.193,0.201-0.51,0.008-0.707
		c-0.364-0.372-0.647-0.894-0.819-1.507c-0.031-0.11-0.1-0.207-0.193-0.273c-0.115-0.081-0.193-0.21-0.213-0.354
		c-0.02-0.146,0.021-0.29,0.115-0.406c0.073-0.089,0.112-0.201,0.112-0.315V6.771c0-1.282,0.751-1.959,2.173-1.959
		c1.44,0,2.171,0.659,2.171,1.959v1.414c0,0.115,0.04,0.227,0.112,0.315c0.095,0.117,0.137,0.262,0.116,0.407
		c-0.02,0.144-0.097,0.272-0.212,0.353c-0.095,0.066-0.163,0.163-0.194,0.274c-0.172,0.613-0.455,1.135-0.818,1.508
		c-0.092,0.093-0.143,0.219-0.143,0.349v0.632c0,0.051,0.008,0.101,0.022,0.148c0.144,0.461,0.64,1.084,4.7,2.619l0.057,1.529
		h-4.581c-0.276,0-0.5,0.224-0.5,0.5s0.224,0.5,0.5,0.5h4.581c0.521,0,0.943-0.426,0.943-0.949v-1.58
		C23.992,14.399,23.749,14.043,23.387,13.903z"/>
</g>
</svg>
